<svg width="503" height="494" viewBox="0 0 503 494" fill="none" xmlns="http://www.w3.org/2000/svg">
<path d="M274.539 60.3667C274.539 60.3667 274.841 65.0103 275.646 66.6899C276.45 68.3695 335.201 134.467 338.018 134.763C340.834 135.059 391.134 131.997 391.134 131.997L274.539 60.3667Z" fill="#000005"/>
<path d="M272.224 59.5764C272.425 62.1452 272.425 65.3068 274.035 67.3816C274.538 68.0732 275.142 68.7648 275.745 69.4564C278.562 72.7168 281.379 75.9772 284.196 79.1388C293.149 89.3152 302.203 99.3928 311.358 109.47C318.601 117.473 325.844 125.674 333.691 133.182C334.596 134.17 335.703 135.06 336.91 135.85C338.117 136.344 339.425 136.542 340.632 136.443C345.863 136.344 351.095 136.048 356.326 135.751C367.995 135.06 379.766 134.368 391.435 133.676H392.139C392.844 133.676 393.447 133.182 393.447 132.491V132.392C393.246 131.503 392.743 130.811 391.938 130.416L380.269 123.302L352.503 106.21L318.802 85.5608L289.729 67.7768C285 64.9116 280.373 61.8488 275.544 59.0824L275.343 58.9836C274.538 58.4896 272.928 58.1932 272.325 59.1812C271.721 60.1692 273.029 61.256 273.733 61.75L285.302 68.8636L313.168 85.956L346.869 106.605L375.943 124.488L385.5 130.416C387.009 131.305 388.518 132.491 390.027 133.182L390.228 133.281L390.027 130.021C380.067 130.614 370.209 131.206 360.249 131.799C354.113 132.194 347.976 132.491 341.839 132.787C340.33 132.886 338.821 132.886 337.312 132.886C336.91 132.886 337.916 132.985 337.614 132.886C337.312 132.787 338.117 132.985 338.117 132.985C338.419 133.084 338.721 133.182 338.922 133.38C338.62 133.084 338.318 132.787 337.916 132.59L337.312 131.997C336.91 131.602 337.815 132.392 337.312 131.997L336.91 131.602C336.306 131.009 335.703 130.416 335.099 129.823C333.59 128.242 332.081 126.662 330.572 125.081C326.448 120.734 322.323 116.288 318.198 111.842C309.044 101.764 299.99 91.5876 290.936 81.4112C287.717 77.7556 284.397 74.0012 281.178 70.3456C280.272 69.2588 279.266 68.172 278.361 67.0852C278.16 66.7888 277.858 66.4924 277.657 66.196C277.455 65.8996 277.958 66.3936 277.757 66.3936C277.556 66.3936 277.757 66.196 277.757 66.3936C277.858 66.0972 277.455 65.4056 277.355 65.0104C277.053 63.6272 276.952 62.3428 276.852 60.9596C276.651 59.774 275.846 58.786 274.639 58.4896C274.035 58.4896 272.124 58.3908 272.224 59.5764Z" fill="#000005"/>
<path d="M274.539 60.3667C274.539 60.3667 326.046 58.9835 328.762 59.2799C331.479 59.5763 391.134 131.898 391.134 131.898C391.134 131.898 342.142 132.293 339.627 132.293C337.112 132.293 274.539 60.3667 274.539 60.3667Z" fill="white"/>
<path d="M275.142 62.6391H275.846H276.651C276.047 62.6391 277.154 62.6391 276.651 62.6391H277.355L284.397 62.4415C291.238 62.2439 298.079 62.1451 305.02 61.9475C311.257 61.8487 317.494 61.6511 323.732 61.5523C325.241 61.5523 326.85 61.5523 328.359 61.5523C328.46 61.5523 328.661 61.5523 328.762 61.5523C328.661 61.6511 327.554 61.0583 327.856 61.2559C327.957 61.3547 328.057 61.4535 328.259 61.5523C328.158 61.5523 327.655 61.0583 327.957 61.3547L328.259 61.6511C330.774 64.1211 333.188 66.6899 335.401 69.3575C339.325 73.7047 343.147 78.2495 346.97 82.6955C355.924 93.1683 364.776 103.74 373.629 114.41C377.05 118.56 380.47 122.611 383.891 126.76C385.601 128.835 387.311 131.108 389.122 133.182C389.222 133.281 389.323 133.38 389.323 133.479L390.933 129.626L360.35 129.823L342.745 129.922H340.431C340.23 129.922 340.029 129.922 339.727 129.922C339.425 129.922 339.123 129.724 339.928 130.021C339.626 129.922 340.532 130.515 340.23 130.218C340.13 130.12 340.029 130.021 339.828 129.922C339.425 129.724 340.431 130.515 339.828 129.922L339.224 129.329C336.407 126.76 333.892 123.895 331.277 121.129C327.152 116.683 323.128 112.237 319.104 107.791C309.95 97.6143 300.896 87.4379 291.942 77.1627C286.711 71.2347 281.58 65.1091 276.148 59.1811L275.947 58.8847C275.242 57.8967 273.834 57.6991 272.828 58.3907C271.822 59.0823 271.621 60.4655 272.325 61.4535C272.426 61.6511 272.526 61.7499 272.727 61.8487C277.154 66.8875 281.58 71.9263 286.007 76.9651C294.96 87.1415 304.014 97.3179 313.068 107.494C320.211 115.497 327.253 123.599 334.898 131.108C336.508 132.688 338.017 134.467 340.431 134.467L355.018 134.368L390.228 134.17H390.933C393.146 134.17 393.85 131.997 392.542 130.317C388.116 124.982 383.79 119.647 379.364 114.312C370.511 103.74 361.658 93.1683 352.805 82.5967C348.781 77.8543 344.757 73.2107 340.632 68.5671C337.916 65.5043 335.2 62.3427 332.283 59.4775C331.578 58.6871 330.774 57.9955 329.868 57.4027C328.762 56.9087 327.554 56.7111 326.247 56.9087C320.714 56.9087 315.181 57.1063 309.748 57.2051C297.978 57.5015 286.107 57.6991 274.337 58.0943H273.633C272.325 58.0943 271.721 59.6751 272.023 60.7619C272.627 61.9475 273.834 62.8367 275.142 62.6391Z" fill="#000005"/>
<path d="M283.592 64.0224C283.592 64.0224 328.359 63.726 329.365 64.0224C330.371 64.3188 384.795 127.946 384.795 127.946H341.437L283.592 64.0224Z" fill="#000005"/>
<path d="M351.698 100.479C351.698 100.479 333.087 100.479 334.295 106.309C335.502 112.138 335.904 115.793 350.491 114.805C365.078 113.817 358.64 99.9855 351.698 100.479Z" fill="#68BA7F"/>
<path d="M394.856 281.778C394.856 281.778 452.601 171.023 400.188 105.716C393.649 97.6144 349.989 98.4048 350.291 104.135C350.592 109.866 372.926 108.878 372.926 108.878C372.926 108.878 366.387 109.866 368.298 116.88C368.298 116.88 359.848 120.042 365.381 126.662C361.86 128.539 360.049 132.491 360.854 136.344C362.161 142.964 374.435 143.359 374.435 143.359C374.435 143.359 374.435 157.882 387.211 161.143L370.813 221.806C370.712 221.806 391.235 298.475 394.856 281.778Z" fill="white"/>
<path d="M396.969 281.679C398.176 279.308 399.282 276.936 400.389 274.565C403.306 268.242 405.922 261.82 408.236 255.299C411.656 246.012 414.674 236.626 417.189 227.141C420.107 216.174 422.219 205.01 423.426 193.747C424.835 181.891 424.835 169.837 423.628 157.981C422.32 146.026 419.201 134.269 414.171 123.302C411.556 117.671 408.437 112.434 404.715 107.396C403.608 105.617 402.2 104.036 400.59 102.752C399.081 101.863 397.472 101.171 395.761 100.677C391.435 99.3929 386.909 98.7013 382.482 98.4049C377.352 98.0097 372.322 97.9109 367.191 98.2073C363.066 98.3061 358.942 98.8989 354.918 99.8869C352.503 100.578 348.077 102.159 348.278 105.321C348.479 108.878 354.213 109.767 356.93 110.162C361.255 110.755 365.581 110.952 369.907 110.854C370.712 110.854 371.517 110.854 372.322 110.755L374.132 107.198C372.221 107.494 370.41 108.384 368.901 109.569C366.487 111.644 365.481 114.904 366.386 117.967L368.398 115.398C366.386 116.189 364.676 117.473 363.268 119.054C360.853 121.919 361.356 125.278 363.569 128.045L365.481 125.18C361.356 127.353 358.238 131.7 358.741 136.443C359.244 141.58 364.676 143.754 369.203 144.643C370.712 144.94 372.221 145.137 373.73 145.137L372.422 144.347C372.523 147.113 373.126 149.88 374.233 152.448C376.245 157.586 380.671 161.439 386.104 162.822L385.299 161.637L378.358 187.226L369.404 220.423C369.102 221.114 368.901 221.905 368.901 222.695C369.002 223.288 369.203 223.98 369.404 224.572C370.41 228.426 371.517 232.279 372.623 236.132C376.044 247.889 379.464 259.646 383.79 271.008C385.299 275.158 386.909 279.505 389.323 283.26C389.826 284.248 390.731 285.137 391.737 285.73C393.749 286.619 395.963 284.84 396.868 283.26C397.17 282.568 397.472 281.876 397.572 281.185C397.773 280.098 396.566 279.9 395.761 280.098C394.554 280.394 393.649 281.284 393.246 282.37C393.146 282.667 393.045 282.963 393.045 283.26C393.246 282.568 392.945 283.358 392.844 283.655C393.347 282.864 394.252 282.37 395.258 282.37C394.856 282.272 395.56 282.667 395.158 282.37C395.057 282.272 395.057 282.272 394.957 282.173C394.554 281.778 394.252 281.284 393.85 280.79C391.637 277.43 390.128 273.38 388.719 269.724C384.494 258.56 381.074 247.099 377.754 235.638C376.547 231.587 375.44 227.536 374.334 223.486C374.233 222.596 373.931 221.707 373.629 220.917C373.428 220.522 373.529 221.114 373.629 221.114C373.73 221.114 373.831 220.423 373.831 220.225L381.979 189.894L389.725 160.945L389.826 160.451C389.927 159.957 389.625 159.364 389.021 159.266C381.376 157.29 377.05 149.682 377.05 142.272C377.05 141.58 376.245 141.482 375.742 141.482C376.849 141.482 375.239 141.383 374.937 141.383C373.931 141.284 372.925 141.086 372.02 140.988C369.505 140.592 367.191 139.604 365.28 138.122C363.268 136.146 362.764 133.182 363.972 130.712C364.173 130.218 364.475 129.724 364.877 129.329C364.978 129.23 365.078 129.132 365.179 128.934C364.978 129.132 364.978 129.132 365.179 128.934C365.38 128.736 365.581 128.638 365.783 128.44C366.084 128.045 365.28 128.736 365.883 128.341L366.286 128.045C366.789 127.65 366.185 128.144 366.084 128.144C366.788 127.748 368.8 126.365 367.996 125.278C366.99 124.192 366.386 122.808 366.286 121.326C366.286 120.635 366.587 119.943 367.191 119.449C366.789 119.844 367.292 119.35 367.392 119.252C367.895 118.758 367.09 119.449 367.493 119.153C367.694 118.955 368.8 118.362 367.996 118.758C368.398 118.56 368.7 118.362 369.102 118.264C369.907 117.967 371.315 116.782 371.114 115.794C370.712 114.608 370.712 113.422 371.014 112.237C371.114 112.039 371.114 111.94 371.215 111.743C371.416 111.348 371.114 111.842 371.316 111.545C371.416 111.446 371.718 110.952 371.416 111.348C371.517 111.249 372.02 110.854 371.416 111.249C371.517 111.15 371.718 111.051 371.819 110.952C371.316 111.15 372.221 110.656 371.819 110.952L372.221 110.755C372.623 110.557 371.718 110.952 372.12 110.755C372.523 110.557 373.529 110.458 372.523 110.557C373.73 110.36 374.837 109.668 375.44 108.581C375.742 108.087 375.641 107.494 375.138 107.099C374.836 106.902 374.535 106.902 374.233 106.902C371.617 107 369.002 107 366.487 106.902C362.664 106.704 357.936 106.605 354.515 104.926C353.912 104.728 353.509 104.333 353.107 103.839C352.805 103.444 353.006 103.641 352.906 103.345C352.704 102.752 352.805 103.444 352.906 103.048C352.906 103.147 352.604 103.641 352.705 103.444C352.805 103.246 352.201 103.938 352.503 103.641C352.805 103.345 352 104.135 352.302 103.74C352.403 103.641 352.503 103.641 352.503 103.542C353.006 103.345 352 103.74 352.302 103.641C352.604 103.542 352.805 103.444 353.107 103.246C352.604 103.444 353.509 103.048 353.107 103.246L353.61 103.048L354.616 102.752L355.823 102.456H356.326C356.427 102.456 357.131 102.258 356.729 102.357C358.741 102.06 360.753 101.764 362.765 101.665C371.919 100.974 381.677 101.171 390.631 103.345C392.341 103.74 393.951 104.234 395.56 105.024C396.164 105.321 396.767 105.617 397.371 106.012C397.874 106.309 398.276 106.704 398.679 107.198C402.501 111.94 405.721 117.078 408.538 122.413C413.769 132.886 417.29 144.05 418.899 155.61C420.509 167.071 420.811 178.63 419.805 190.091C418.799 201.157 417.089 212.222 414.372 223.09C412.058 232.674 409.242 242.06 406.023 251.347C403.608 258.066 400.993 264.883 398.075 271.502C396.566 274.862 395.057 278.122 393.448 281.382L393.246 281.778C392.743 282.766 393.347 283.457 394.353 283.457C395.258 283.556 396.365 282.766 396.969 281.679Z" fill="#000005"/>
<path d="M318.099 81.51C320.815 81.016 323.531 81.9052 325.442 83.98C327.052 85.8572 328.058 89.5128 326.046 91.4888L326.65 91.0936L326.448 91.1924L328.863 90.7972H328.662L330.171 90.9948C329.466 90.6984 329.165 89.1176 328.963 88.5248C328.662 87.5368 328.36 86.45 328.259 85.462C328.058 84.3752 328.058 83.3872 328.058 82.3004C327.957 81.4112 328.36 80.4232 329.165 79.9292C329.668 79.534 329.064 80.1268 328.963 79.8304L329.969 80.028C330.875 80.3244 331.68 80.9172 332.283 81.51C333.591 82.8932 334.496 84.6716 334.899 86.5488C335.201 87.8332 340.13 87.0428 339.929 86.1536C339.023 82.3992 336.508 79.1388 332.484 78.3484C330.07 77.8544 327.454 78.1508 325.241 79.1388C324.436 79.4352 323.732 80.1268 323.33 80.9172C323.028 81.9052 322.927 82.992 323.129 84.0788C323.229 86.1536 323.732 88.3272 324.537 90.3032C324.839 91.0936 325.141 91.884 326.046 92.1804C327.555 92.6744 329.265 92.4768 330.674 91.7852C332.082 90.9948 332.384 88.8212 332.283 87.3392C332.082 85.7584 331.378 84.2764 330.372 83.0908C327.153 79.4352 321.318 79.4352 316.891 80.2256C316.388 80.3244 314.779 80.6208 315.282 81.4112C315.785 82.2016 317.495 81.6088 318.099 81.51Z" fill="white"/>
<path d="M120.219 422.271L113.68 376.132C113.68 376.132 145.872 379.491 174.945 359.434C174.945 359.434 190.639 398.263 190.538 404.586C190.437 410.909 151.505 429.879 120.219 422.271Z" fill="white"/>
<path d="M122.633 422.271L120.42 406.661L116.899 381.862L116.094 376.132L113.378 378.206C117.804 378.602 122.231 378.602 126.657 378.206C136.918 377.515 147.079 375.242 156.736 371.587C163.678 368.919 170.317 365.461 176.454 361.312L172.732 360.027C174.543 364.473 176.253 369.018 178.064 373.464C179.573 377.416 181.082 381.368 182.49 385.419C183.194 387.395 183.898 389.47 184.603 391.446C184.904 392.335 185.206 393.224 185.508 394.212C185.81 395.2 186.112 395.99 186.212 396.386C187.017 398.856 187.721 401.424 188.124 403.993C188.124 403.598 188.224 404.586 188.124 403.993C188.124 404.092 188.023 404.29 188.023 404.388C188.023 403.697 188.124 404.191 187.922 404.388C187.822 404.487 187.822 404.586 187.822 404.685C187.621 405.179 188.023 404.388 187.822 404.685C187.52 405.08 187.118 405.475 186.715 405.87C186.514 406.068 186.313 406.266 186.011 406.463L185.609 406.76C185.508 406.858 184.904 407.254 185.407 406.957C182.289 409.23 178.868 411.206 175.247 412.786C170.519 414.96 165.69 416.64 160.66 418.023C147.682 421.678 133.699 423.16 120.42 419.999C119.313 419.702 118.106 420.295 117.704 421.382V421.481C117.704 422.765 118.609 423.852 119.917 424.05C132.391 427.014 145.57 426.124 157.944 423.16C163.577 421.876 169.11 420.098 174.543 417.825C178.667 416.146 182.691 414.17 186.514 411.798C188.727 410.316 191.544 408.538 192.55 405.969C193.455 403.894 192.55 401.227 191.946 399.152C189.733 391.149 186.816 383.344 183.798 375.539C181.685 369.907 179.673 364.177 177.259 358.644L177.158 358.348C176.655 357.063 174.643 356.273 173.436 357.063C157.038 368.129 137.522 373.958 117.603 373.662C116.597 373.662 115.49 373.662 114.484 373.563C114.183 373.563 112.472 373.365 113.881 373.563C112.472 373.464 110.963 374.057 111.165 375.638L113.378 391.248L116.899 416.047L117.704 421.777C118.106 424.939 123.035 425.235 122.633 422.271Z" fill="#000005"/>
<path d="M136.616 388.58C141.344 391.05 146.173 393.323 151.605 393.422C156.233 393.422 161.665 392.434 164.784 388.679L164.884 388.482C163.778 386.308 160.055 386.901 158.144 387.296C155.428 387.79 152.712 388.679 150.197 389.766C147.682 390.853 145.368 392.236 143.255 393.817C142.149 394.607 141.143 395.496 140.137 396.484C139.131 397.275 138.426 398.263 138.024 399.448C137.42 401.918 140.74 403.598 142.652 404.191C145.67 405.08 149.09 404.685 152.209 404.191C153.617 403.993 155.025 403.697 156.333 403.104C157.138 402.709 158.144 401.721 157.138 401.029C156.132 400.338 154.321 400.634 153.315 400.733C151.706 400.832 150.096 401.227 148.587 401.918C145.77 403.203 143.959 405.673 142.45 408.242C141.746 409.427 141.143 410.316 142.551 411.206C144.161 412.194 145.871 412.984 147.581 413.676C148.587 413.972 149.694 413.972 150.7 413.676C150.901 413.676 152.913 412.984 152.309 412.786C151.001 412.292 149.694 411.7 148.486 411.008C147.983 410.81 147.48 410.514 147.078 410.119C146.374 409.526 146.676 408.933 147.078 408.242C148.185 405.969 149.895 403.993 151.907 402.412C152.41 402.215 152.913 402.017 153.315 401.721L152.309 401.82L152.51 402.116C152.41 402.412 152.51 402.61 152.209 402.808C151.605 403.4 149.794 403.499 148.989 403.499C146.877 403.499 143.758 402.314 143.054 400.14C142.35 397.966 145.267 395.892 146.776 394.706C149.593 392.335 152.812 390.556 156.233 389.272C156.736 389.074 157.339 388.877 157.842 388.778C158.446 388.679 159.049 388.58 159.552 388.383H159.15C158.647 388.383 158.546 388.383 158.949 388.482C159.049 388.58 159.351 388.58 159.452 388.778C160.055 389.272 159.552 389.667 159.049 390.062C158.245 390.853 157.339 391.446 156.333 391.841C154.321 392.73 152.108 392.335 150.096 391.742C147.078 390.754 144.161 389.47 141.444 387.988C140.438 387.691 139.332 387.691 138.326 387.988C138.125 387.79 136.113 388.383 136.616 388.58Z" fill="#68BA7F"/>
<path d="M98.4883 360.324C98.4883 360.324 95.7721 366.943 99.8967 370.105C104.021 373.266 130.278 372.575 129.272 369.512C128.266 366.449 121.425 360.027 118.105 359.336C114.786 358.644 108.85 361.312 108.85 361.312L112.572 357.458L86.9193 343.231C86.9193 343.231 81.2857 350.345 75.2497 353.012C70.0185 355.384 68.0065 363.09 78.5695 360.422C81.3863 359.632 84.1025 358.446 86.5169 356.866L90.2391 354.494C90.2391 354.494 88.7301 365.856 98.4883 360.324Z" fill="white"/>
<path d="M96.1735 361.114C94.6645 364.868 94.6645 370.302 99.1915 371.883C101.204 372.476 103.316 372.871 105.429 372.97C108.145 373.168 110.861 373.266 113.577 373.266C118.406 373.168 123.637 373.069 128.265 371.29C129.372 370.895 132.088 370.006 131.484 368.425C130.981 367.24 130.277 366.252 129.372 365.264C128.265 363.979 127.058 362.794 125.75 361.707C124.543 360.62 123.134 359.632 121.726 358.94C120.418 358.249 118.909 358.051 117.4 358.348C114.181 358.842 110.962 359.731 108.044 361.213L110.962 360.916L114.684 357.063C114.885 356.866 114.986 356.767 114.785 356.569L92.4513 344.219L89.2321 342.441C88.7291 342.144 87.3207 342.836 86.8177 342.935C86.0129 343.132 85.3087 343.626 84.7051 344.219C82.8943 346.492 80.8823 348.468 78.5685 350.345C76.9589 351.53 75.2487 352.617 73.3373 353.605C72.0295 354.297 70.8223 355.285 69.9169 356.47C68.7097 357.952 67.9049 360.422 69.9169 361.608C71.2247 362.3 72.7337 362.497 74.2427 362.201C76.9589 361.806 79.6751 361.114 82.1901 360.027C85.6105 358.446 88.9303 356.569 92.0489 354.396L87.9243 355.581C87.6225 357.458 87.8237 359.336 88.6285 361.114C90.8417 365.165 97.0789 362.003 99.8957 360.521C100.399 360.225 101.304 359.731 100.499 359.533C99.6945 359.336 97.8837 360.225 97.2801 360.62C97.2801 360.62 96.2741 361.114 96.6765 360.916C96.3747 361.015 96.5759 361.015 96.1735 361.015C95.5699 361.015 95.0669 360.916 94.5639 360.62C93.7591 360.027 93.1555 359.138 92.9543 358.15C92.5519 356.668 92.4513 355.186 92.7531 353.704C92.7531 353.408 91.1435 353.803 91.1435 353.803C90.2381 354 89.4333 354.396 88.6285 354.89C86.7171 356.273 84.8057 357.458 82.6931 358.545C80.6811 359.533 76.0535 361.312 74.1421 359.138C72.8343 357.656 74.0415 355.482 75.1481 354.297C75.4499 354 75.7517 353.704 76.1541 353.408C75.9529 353.506 76.4559 353.21 76.2547 353.408C76.0535 353.605 76.5565 353.309 76.5565 353.309C77.1601 353.012 77.6631 352.815 78.1661 352.42C79.9769 351.333 81.7877 350.147 83.3973 348.764C85.6105 346.887 87.6225 344.812 89.4333 342.638L84.9063 344.417L107.24 356.767L110.459 358.545L110.559 358.051L106.837 361.904C106.435 362.3 106.737 362.398 107.24 362.398C108.145 362.3 108.95 362.003 109.755 361.608C109.05 361.904 109.956 361.509 109.755 361.608L110.358 361.41L110.66 361.312L110.861 361.213C111.968 360.818 113.074 360.521 114.282 360.422C116.797 360.225 118.909 361.806 120.72 363.288C122.933 364.967 124.845 367.042 126.354 369.314C126.655 369.71 126.857 370.105 126.957 370.5C126.957 370.599 126.957 370.698 126.957 370.796C126.756 370.796 127.058 370.994 126.957 370.796C126.857 370.796 127.158 370.599 127.058 370.796C127.259 370.599 127.561 370.5 127.762 370.401C128.064 370.302 128.567 370.204 128.064 370.302C128.768 370.302 127.46 370.401 127.863 370.302L126.555 370.5C125.649 370.599 124.643 370.796 123.738 370.895C121.424 371.093 119.11 371.192 116.696 371.192C112.571 371.192 108.044 371.192 104.02 370.006C99.4933 368.722 99.1915 363.386 100.701 359.632C101.002 359.039 98.9903 359.632 98.7891 359.632C98.2861 359.83 96.5759 360.324 96.1735 361.114Z" fill="#000005"/>
<path d="M137.22 373.464C137.22 373.464 38.6321 319.124 37.8273 317.543C37.0225 315.963 39.6381 310.627 41.5495 310.232C43.4609 309.837 141.043 364.078 141.848 364.967C142.653 365.857 150.198 375.539 150.198 375.539L137.22 373.464Z" fill="#68BA7F"/>
<path d="M137.32 371.982L126.254 365.856C117.502 361.015 108.85 356.273 100.198 351.432C90.0377 345.8 79.8771 340.168 69.8171 334.438C61.7691 329.893 53.6205 325.348 45.6731 320.705C43.5605 319.519 41.4479 318.235 39.3353 316.95L38.5305 316.456C38.2287 316.259 38.8323 316.753 38.4299 316.358C38.5305 316.456 39.3353 317.346 39.1341 317.444C39.1341 317.247 39.1341 317.049 39.2347 316.852C39.5365 315.37 40.2407 313.986 41.2467 312.801C41.4479 312.603 41.6491 312.307 41.9509 312.208C42.1521 312.109 42.3533 311.912 42.2527 312.01C42.1521 312.109 41.8503 311.813 42.0515 312.01C42.1521 312.01 42.2527 312.109 42.3533 312.109L42.6551 312.208C43.0575 312.307 42.3533 312.109 42.8563 312.307C43.7617 312.702 44.6671 313.196 45.5725 313.591C48.4899 315.073 51.4073 316.555 54.3247 318.136C63.3787 322.977 72.4327 327.917 81.4867 332.857C91.6473 338.489 101.909 344.12 112.069 349.752C119.916 354.099 127.662 358.446 135.509 362.892C137.42 363.979 139.332 365.066 141.243 366.153C141.444 366.252 141.646 366.35 141.847 366.449C142.249 366.647 141.143 365.659 141.646 366.35C143.255 368.326 144.865 370.302 146.374 372.377L149.694 376.626L150.297 373.958L137.219 371.883C135.207 371.587 136.113 375.045 137.622 375.242L150.7 377.317C152.309 377.614 151.907 375.44 151.303 374.65C148.587 371.192 145.971 367.536 143.054 364.177C141.947 363.189 140.74 362.3 139.332 361.707C132.491 357.755 125.65 354 118.809 350.147C108.649 344.516 98.4881 338.884 88.3275 333.252C78.6699 327.917 68.9117 322.582 59.1535 317.346C55.6325 315.468 52.2121 313.591 48.6911 311.813C46.6791 310.726 44.5665 309.639 42.4539 308.75C41.7497 308.355 40.9449 308.355 40.3413 308.849C39.0335 309.837 38.0275 311.22 37.4239 312.702C36.6191 314.184 36.4179 315.765 36.8203 317.346C37.3233 319.124 39.4359 320.013 40.8443 320.902C47.4839 324.953 54.3247 328.806 61.1655 332.561C71.2255 338.192 81.2855 343.824 91.3455 349.456C101.003 354.791 110.661 360.225 120.318 365.56L136.515 374.452L137.32 374.847C137.722 375.144 138.326 375.045 138.628 374.65C138.728 374.452 138.829 374.254 138.829 374.057C138.728 373.365 138.225 372.476 137.32 371.982Z" fill="#68BA7F"/>
<path d="M89.9375 334.24C89.9375 334.24 123.94 243.937 154.02 234.946C174.341 228.821 163.979 275.059 163.979 275.059C163.979 275.059 132.391 315.567 132.692 317.938C132.692 317.938 138.125 321.792 139.533 330.585C140.942 339.378 141.244 351.728 139.936 359.039C138.628 366.35 132.089 370.401 129.272 363.683C126.455 356.964 126.556 348.863 123.94 346.788C121.325 344.713 116.798 349.159 116.798 349.159" fill="white"/>
<path d="M92.453 334.537C94.2638 329.794 96.1752 325.25 98.0866 320.606C102.614 309.936 107.442 299.463 112.774 289.089C118.71 277.529 125.148 266.068 132.995 255.694C136.315 251.15 139.936 247 144.061 243.048C147.28 240.084 151.002 237.318 155.127 235.836C155.63 235.638 156.133 235.539 156.636 235.342L157.139 235.243C157.239 235.243 158.145 235.144 157.742 235.144H158.145C157.541 235.144 158.547 235.144 158.145 235.144C158.748 235.144 157.541 235.045 158.245 235.144C157.34 235.045 158.648 235.243 157.843 235.045C157.944 235.045 158.044 235.144 158.245 235.144C157.843 235.045 158.447 235.243 158.245 235.144C158.547 235.243 158.849 235.44 159.151 235.539C159.453 235.737 159.754 236.033 160.056 236.231C160.66 236.824 161.163 237.515 161.666 238.306C163.879 242.159 164.08 247.099 164.181 251.347C164.181 256.287 163.778 261.227 163.074 266.068C162.672 268.835 161.968 271.601 161.666 274.368C161.666 274.664 161.666 274.565 161.666 274.466C161.565 274.664 161.364 274.96 161.163 275.158L158.648 278.418C155.529 282.37 152.511 286.421 149.493 290.373C145.872 295.116 142.351 299.858 138.83 304.6C136.315 308.058 133.699 311.615 131.385 315.271C130.983 315.962 130.077 316.95 130.48 317.642C130.58 317.84 130.782 317.84 130.681 317.741C130.983 317.938 131.285 318.235 131.586 318.531C132.492 319.42 133.297 320.507 134.001 321.594C136.415 325.348 137.119 329.597 137.622 333.944C138.125 338.785 138.427 343.626 138.327 348.468C138.226 352.617 138.327 357.36 136.717 361.312C136.113 362.991 134.906 364.572 133.498 365.659C133.196 365.856 132.995 365.955 132.693 366.054C132.592 366.054 132.492 366.054 132.492 366.153H132.291C132.693 366.054 133.095 366.153 133.397 366.252C134.604 366.449 133.9 366.35 133.498 365.955C133.095 365.659 132.794 365.264 132.592 364.967C131.285 362.991 130.681 360.422 130.178 358.249C129.675 356.075 129.273 353.803 128.77 351.629C128.468 350.048 127.965 348.468 127.059 347.183C125.852 345.602 123.538 345.306 121.728 345.306C119.011 345.405 116.396 346.59 114.585 348.566C113.981 349.159 115.993 349.554 116.295 349.554C116.999 349.653 118.81 350.048 119.414 349.357C119.917 348.863 120.42 348.468 120.923 348.072C121.325 347.776 121.828 347.48 122.331 347.183C122.633 346.986 122.935 346.887 123.237 346.788C123.337 346.788 123.438 346.788 123.538 346.689C123.337 346.788 121.526 346.096 121.728 346.492C121.929 346.887 122.331 347.084 122.432 347.282C122.734 347.875 123.035 348.369 123.237 349.06C123.74 350.641 124.041 352.123 124.343 353.704C125.047 357.261 125.651 361.114 127.462 364.276C129.071 367.042 132.592 367.931 135.711 367.437C142.25 366.449 143.055 358.15 143.357 353.012C143.86 345.405 143.457 337.896 142.25 330.387C141.445 325.645 139.232 320.408 135.208 317.543L135.51 317.938C135.61 317.346 135.912 316.753 136.214 316.358C136.918 315.271 137.622 314.184 138.327 313.097C140.64 309.639 143.155 306.28 145.57 302.921C151.103 295.511 156.636 288.2 162.269 280.79C163.678 279.011 165.086 277.233 166.394 275.454C166.897 274.466 167.098 273.478 167.199 272.392C168.607 265.179 169.311 257.868 169.211 250.557C169.211 246.802 168.507 243.048 167.199 239.59C165.992 236.527 163.175 234.255 159.855 233.761C151.706 232.279 144.363 237.416 138.729 242.653C131.586 249.371 125.953 257.473 120.722 265.673C114.987 274.862 109.756 284.248 105.028 293.93C100.903 302.328 96.98 310.726 93.3584 319.322C91.447 323.866 89.5356 328.51 87.7248 333.154L87.5236 333.746C87.2218 334.537 91.95 335.624 92.453 334.537Z" fill="#000005"/>
<path d="M96.6769 359.039C96.3751 360.027 96.1739 361.015 95.9727 362.003C95.9727 362.102 95.9727 362.201 95.8721 362.398C95.8721 362.596 95.7715 362.794 95.7715 363.09C95.7715 363.584 96.1739 363.979 96.5763 364.078C97.0793 364.276 97.6829 364.177 98.2865 363.979C98.8901 363.782 99.4937 363.386 99.8961 362.892C100.298 362.497 100.5 362.003 100.5 361.509V361.41V361.904C100.6 361.41 100.701 360.916 100.801 360.521C100.902 360.027 101.103 359.434 101.204 358.94L101.304 358.545C101.405 358.15 101.304 357.656 101.003 357.36C100.6 357.063 99.9967 356.964 99.4937 357.063C98.8901 357.162 98.1859 357.458 97.6829 357.854C97.1799 358.051 96.8781 358.545 96.6769 359.039Z" fill="#000005"/>
<path d="M271.923 388.58C344.595 388.58 403.507 330.722 403.507 259.35C403.507 187.978 344.595 130.12 271.923 130.12C199.25 130.12 140.338 187.978 140.338 259.35C140.338 330.722 199.25 388.58 271.923 388.58Z" fill="#68BA7F"/>
<path d="M309.043 135.455C310.049 140.296 310.251 145.236 309.546 150.176C308.037 161.736 303.007 172.702 295.16 181.397C292.545 184.262 289.728 186.93 287.213 189.894C285 192.364 282.887 194.932 280.976 197.699C278.159 201.651 275.544 206.097 274.638 210.839C273.833 214.791 274.336 218.842 276.046 222.399C278.058 226.746 281.68 230.204 285.302 233.267C288.722 236.033 292.042 238.306 294.557 241.862C296.368 244.53 297.977 247.296 299.285 250.162C300.492 252.73 302.001 255.2 303.913 257.374C306.528 259.943 309.748 261.721 313.269 262.61C317.997 263.796 323.127 263.5 327.956 263.006C333.69 262.413 339.324 261.03 344.756 259.054C354.213 255.398 362.563 249.371 369.906 242.554C379.966 233.069 388.417 222.102 394.956 210.049C395.056 209.851 395.157 209.654 395.258 209.456C395.962 208.172 391.435 205.998 390.731 207.282C389.222 210.246 387.411 213.112 385.6 215.977C381.274 222.596 376.445 228.821 371.114 234.65C364.675 241.862 357.03 247.988 348.479 252.829C344.052 255.299 339.324 257.176 334.395 258.461C328.962 259.844 323.329 260.634 317.594 260.634C315.683 260.634 313.772 260.437 311.961 260.042L311.357 259.844C311.86 259.943 311.256 259.844 311.156 259.745C311.055 259.646 309.848 259.251 310.552 259.548L309.546 259.054C309.043 258.757 310.049 259.35 309.546 259.054L308.943 258.658C308.44 258.362 309.345 258.955 308.842 258.658L308.44 258.362C308.239 258.164 308.037 257.967 307.836 257.868C308.239 258.263 307.534 257.572 307.434 257.473C307.233 257.176 306.931 256.88 306.729 256.584C306.025 255.596 305.321 254.608 304.818 253.521C303.41 250.853 302.202 248.087 300.593 245.518C298.581 242.258 296.167 239.294 293.249 236.725C291.338 235.045 289.225 233.662 287.314 232.081C285.604 230.599 283.994 229.018 282.585 227.24C280.171 224.276 278.763 220.522 278.662 216.668C278.662 212.321 280.272 208.27 282.384 204.516C285.704 199.082 289.627 194.043 294.054 189.498C296.569 186.831 299.285 184.262 301.599 181.397C303.711 178.828 305.522 176.16 307.132 173.295C309.949 168.454 311.961 163.218 313.168 157.784C314.677 151.362 314.878 144.742 313.771 138.221C313.671 137.925 313.671 137.53 313.57 137.233C313.369 136.245 312.061 135.554 311.156 135.257C310.955 134.862 308.943 134.467 309.043 135.455Z" fill="white"/>
<path d="M242.647 133.578C242.748 133.874 242.647 133.479 242.647 133.874C242.647 134.269 242.748 134.763 242.748 135.257C242.748 136.739 242.748 138.32 242.446 139.802C241.842 144.347 239.73 148.497 236.41 151.658C234.096 153.733 231.38 155.215 228.463 156.203C218.201 159.365 208.946 165.095 201.602 172.801C196.874 177.741 192.75 183.571 190.939 190.19C190.033 193.253 189.832 196.513 190.134 199.675C190.536 201.453 190.335 203.331 189.832 205.01C188.625 207.875 185.406 209.259 182.79 209.851C180.979 210.247 179.068 210.444 177.157 210.444C176.151 210.444 175.044 210.444 174.038 210.444L172.428 210.345H172.127C172.529 210.345 172.127 210.345 172.026 210.345L171.121 210.247C169.008 210.049 166.895 209.753 164.682 209.456L163.173 209.16L162.57 209.061H162.67L162.167 208.962C161.262 208.765 160.356 208.666 159.451 208.468C157.137 207.974 154.823 207.381 152.51 206.887L152.208 206.789C151.705 206.69 149.793 206.295 149.592 207.085C149.391 207.875 151.403 208.468 151.805 208.567C157.439 210.148 163.173 211.235 168.907 211.926C173.535 212.618 178.163 212.717 182.79 212.42C186.311 212.124 190.335 211.333 192.951 208.863C194.057 207.777 194.862 206.393 195.164 204.911C195.667 202.54 194.862 200.169 194.963 197.798C195.063 190.882 198.182 184.361 202.307 179.026C206.934 173.098 212.568 168.059 219.006 164.206C222.125 162.329 225.344 160.748 228.664 159.365C231.782 158.179 235.002 157.29 237.919 155.61C244.961 151.263 248.381 143.063 247.577 135.06C247.577 134.862 247.577 134.566 247.476 134.368C247.375 132.985 242.446 132.195 242.647 133.578Z" fill="white"/>
<path d="M139.231 241.961C143.959 244.036 148.989 245.617 154.221 246.506C165.287 248.877 176.654 249.075 187.72 247C196.875 245.222 205.828 241.862 215.285 242.455L216.19 242.554L216.894 242.653C216.995 242.653 217.699 242.752 217.096 242.653C217.8 242.752 216.693 242.554 217.196 242.653C217.397 242.653 217.599 242.752 217.699 242.85C218.806 243.246 219.812 243.74 220.717 244.53C222.729 246.21 223.936 248.581 224.138 251.15C224.54 254.805 223.534 258.658 222.427 262.116C220.516 267.748 217.8 273.083 215.184 278.517C212.87 283.358 210.456 288.2 208.343 293.14C206.633 296.993 205.325 301.044 204.521 305.094C203.917 308.552 204.118 312.109 205.124 315.567C206.13 318.926 208.142 321.693 209.752 324.756C211.764 328.51 213.273 333.154 212.166 337.402C211.06 341.65 207.136 344.022 202.81 344.911C194.762 346.393 186.312 344.022 178.767 341.453C175.648 340.465 172.63 339.279 169.612 338.094C168.506 337.698 167.299 337.402 166.091 337.402C165.287 337.402 165.085 337.501 165.991 337.896C176.554 342.046 187.922 345.8 199.39 346.393C204.621 346.689 211.16 346.393 214.983 342.243C217.8 339.082 217.8 334.636 216.794 330.782C216.09 328.312 215.084 326.04 213.675 323.866C211.563 320.705 210.154 317.148 209.45 313.394C208.243 305.094 212.066 296.795 215.486 289.385C218.001 283.852 220.717 278.517 223.333 272.984C225.546 268.143 227.86 263.302 228.866 258.164C229.469 255.102 229.671 251.742 228.463 248.877C227.457 246.605 225.546 244.728 223.132 243.74C215.788 240.38 206.935 240.973 199.189 242.356C193.756 243.344 188.525 244.925 183.093 246.012C176.956 247.198 170.618 247.593 164.381 247.198C160.055 246.901 155.73 246.308 151.504 245.123L149.392 244.53C148.688 244.332 148.285 244.135 147.48 243.937C146.877 243.74 146.374 243.542 145.77 243.344C145.167 243.147 145.368 243.147 144.865 242.949C144.563 242.85 144.161 242.653 143.859 242.554C142.752 242.159 141.646 241.862 140.539 241.764C139.935 241.665 138.326 241.467 139.231 241.961Z" fill="white"/>
<path d="M283.385 342.633C288.406 337.822 291.833 331.688 293.411 324.986C294.034 322.322 294.118 319.617 293.844 316.958C293.393 314.432 292.809 311.952 291.957 309.561C291.613 307.966 291.403 306.326 291.327 304.641C291.246 302.735 291.347 300.916 291.581 299.053C291.862 297.323 292.187 295.503 292.74 293.904C293.038 293.061 293.289 292.084 293.677 291.284C293.889 290.618 294.493 289.374 294.666 289.018C295.443 287.419 296.444 285.818 297.583 284.394C298.502 283.193 299.649 282.213 300.844 281.365C300.49 281.633 301.331 281.053 301.465 281.008C301.599 280.963 302.043 280.739 302.353 280.56L302.888 280.381C303.466 280.112 302.396 280.472 303.022 280.336C303.423 280.201 303.824 280.066 304.315 279.976L304.897 279.929C304.181 280.021 304.897 279.929 304.987 279.973C305.345 279.927 305.794 279.925 306.108 279.968L306.647 280.01C306.108 279.968 306.556 279.966 306.647 280.01C307.186 280.052 307.591 280.139 308.086 280.27L308.673 280.445C309.349 280.664 308.22 280.225 308.944 280.577C309.396 280.796 309.802 280.883 310.254 281.103C311.068 281.499 311.84 281.983 312.701 282.512C315.2 284.275 317.389 286.216 319.974 287.802C325.006 290.795 330.25 293.123 335.797 294.829C340.49 296.449 345.131 297.716 349.652 299.692C351.505 300.482 353.319 301.583 354.956 302.817C356.321 303.92 357.333 305.29 358.035 306.839C359.769 310.867 359.093 315.482 358.004 319.566C355.665 328.755 350.082 337.026 343.301 343.618C331.818 355.285 315.839 361.473 299.282 360.789C296.368 360.802 293.45 360.593 290.619 360.206C289.36 360.034 288.235 359.817 287.02 359.556C286.524 359.425 285.938 359.25 285.443 359.119L284.675 358.857L284.18 358.726C284.361 358.814 284.361 358.814 284.18 358.726C283.322 358.419 282.598 358.067 281.784 357.672L281.241 357.408C280.608 357.1 281.65 357.717 281.06 357.32C280.741 357.055 280.289 356.836 280.013 356.482L279.604 356.173C279.238 355.776 279.832 356.394 279.604 356.173C279.376 355.953 279.238 355.776 279.053 355.466C279.005 355.333 278.497 354.537 278.73 354.98C278.545 354.67 278.493 354.316 278.308 354.006C278.261 353.873 278.213 353.74 278.209 353.519C278.02 352.987 278.218 353.962 278.209 353.519C278.205 353.297 278.154 352.942 278.193 352.632C278.232 352.321 278.137 352.056 278.176 351.745C278.219 351.656 278.254 351.124 278.219 351.656C278.215 351.435 278.345 351.168 278.34 350.946C278.462 350.236 278.716 349.481 279.062 348.77C279.191 348.504 279.278 348.326 279.407 348.059C279.623 347.615 279.839 347.171 280.102 346.859C281.19 345.081 282.415 343.479 283.821 341.966C284.701 341.075 283.866 339.571 282.827 339.176C281.651 338.605 280.267 338.921 279.435 339.945C275 344.93 269.994 352.933 275.934 358.894C278.902 361.763 283.185 363.075 287.099 363.768C293.486 364.894 300.038 365.221 306.487 364.838C318.216 363.946 329.439 359.951 338.906 353.126C347.803 347.013 354.956 338.735 359.751 329.092C361.867 324.737 363.215 320.12 363.843 315.373C364.429 310.714 363.751 305.662 360.543 301.906C357.472 298.328 352.995 296.263 348.66 294.596C343.467 292.623 338.106 291.227 332.956 289.165C330.112 288.113 327.488 286.838 324.859 285.342C322.274 283.757 319.775 281.994 317.453 280.097C314.041 277.451 309.879 275.429 305.486 275.492C297.331 275.704 291.989 282.556 289.204 289.441C286.16 296.859 285.822 305.153 288.209 312.902C291.159 322.024 286.898 331.488 280.927 338.253C280.707 338.476 280.224 339.01 280.664 338.565C280.487 338.699 280.401 338.876 280.267 338.921C280.134 338.966 280.047 339.144 279.87 339.278C277.498 341.86 281.358 344.504 283.385 342.633Z" fill="white"/>
<path d="M239.027 185.349C233.192 187.424 228.866 194.34 232.89 199.873C234.802 202.441 238.021 203.726 241.24 203.133C244.459 202.54 247.678 200.169 248.584 197.007C249.489 193.747 247.98 190.19 244.962 188.609C243.252 187.621 239.228 190.487 241.542 191.771C242.347 192.265 242.95 192.957 243.353 193.747C243.856 194.636 244.057 195.624 243.956 196.612C243.856 197.501 243.554 198.292 242.95 198.983V199.082L242.648 199.379C242.246 199.675 242.548 199.477 242.648 199.379C242.548 199.477 242.447 199.477 242.347 199.576L241.944 199.774C241.743 199.971 242.045 199.675 242.045 199.675L241.642 199.873C241.039 200.07 241.944 199.873 241.542 199.873C241.441 199.873 240.838 199.971 241.24 199.971C241.139 199.971 240.335 199.971 240.737 199.971C240.536 199.971 240.234 199.873 240.033 199.873C239.731 199.774 240.234 199.971 239.932 199.873C239.731 199.873 239.63 199.774 239.429 199.675C238.524 199.28 237.719 198.687 237.115 197.897C235.908 196.415 235.506 194.439 236.109 192.561C236.21 192.265 236.311 191.969 236.411 191.672C236.512 191.475 236.612 191.376 236.713 191.178C236.914 190.882 237.015 190.684 237.216 190.388L237.518 190.091C237.417 190.289 237.518 190.091 237.618 189.993L238.323 189.301C238.021 189.499 238.624 189.103 238.323 189.301L238.725 189.005C238.926 188.906 239.53 188.609 239.027 188.807C239.329 188.708 239.63 188.511 240.033 188.412C240.938 188.115 242.145 187.029 241.743 186.041C241.341 185.053 239.932 185.053 239.027 185.349Z" fill="white"/>
<path d="M236.207 358.076C231.278 357.582 224.638 359.459 223.23 364.794C222.626 366.869 223.23 369.142 224.839 370.722C225.845 371.513 226.851 372.106 227.958 372.6C229.266 373.192 230.372 373.884 231.378 374.872C235.1 378.33 237.716 383.468 243.551 383.468C248.48 383.369 252.605 379.812 253.41 375.07C254.214 369.339 249.788 364.696 246.066 360.941C244.959 359.756 240.332 361.633 241.639 362.917C244.456 365.782 247.474 368.845 248.48 372.797C248.883 374.378 248.782 376.058 248.178 377.638C247.776 378.824 246.971 379.911 245.965 380.602C246.066 380.504 245.563 380.701 245.865 380.701C245.462 380.701 245.06 380.701 244.657 380.602C243.651 380.306 242.746 379.812 241.941 379.12C240.432 377.737 238.923 376.255 237.716 374.674C236.408 373.094 234.799 371.71 232.988 370.722C231.378 369.833 229.266 369.339 228.461 367.561C227.656 365.782 227.857 363.806 229.064 362.226C230.171 360.941 231.881 360.447 233.491 360.744C234.698 360.941 235.905 360.546 236.911 359.756C237.314 358.965 237.213 358.076 236.207 358.076Z" fill="white"/>
<path d="M372.42 129.23C372.018 132.293 371.817 135.455 371.817 138.616C371.616 141.482 372.521 144.248 374.231 146.619C374.734 147.212 376.042 148.496 376.947 148.2C377.853 147.904 376.847 146.52 376.545 146.125C376.746 146.422 376.444 145.829 376.344 145.829C376.243 145.631 376.143 145.532 376.143 145.335C375.941 144.841 375.841 144.248 375.74 143.655C375.64 142.568 375.539 141.482 375.64 140.494C375.74 137.727 375.941 134.961 376.243 132.194C376.344 131.206 375.237 130.12 374.533 129.626C374.231 129.329 372.521 128.242 372.42 129.23Z" fill="#000005"/>
<path d="M121.524 128.638C117.5 124.192 113.275 119.746 108.949 115.596C106.937 113.719 104.724 111.051 101.907 110.261C100.7 109.964 98.5872 109.668 98.0842 111.051C97.9836 111.446 97.883 111.842 97.883 112.237C97.0782 116.782 96.5752 121.326 96.0722 125.871C95.2674 133.479 94.5632 140.988 93.9596 148.595C93.356 156.499 92.853 164.304 92.6518 172.208C92.4506 177.939 92.35 183.768 93.2554 189.4C93.356 190.882 93.859 192.265 94.865 193.45C96.7764 195.328 99.7944 194.735 102.008 193.846C109.05 191.376 115.79 187.325 122.128 183.472C128.868 179.421 135.809 175.172 141.745 170.035C142.851 169.047 144.964 167.466 145.064 165.885C144.964 165.095 144.763 164.304 144.36 163.613C143.958 162.526 143.354 161.538 142.851 160.451C141.745 158.376 140.537 156.4 139.33 154.424C138.727 153.535 138.224 152.646 137.62 151.757L137.519 152.35C139.833 149.484 142.046 146.718 144.159 143.853C147.378 139.604 150.799 135.356 153.414 130.614C154.018 129.527 155.024 128.045 153.615 127.057C152.006 125.97 149.692 125.97 147.781 125.97C142.046 125.871 136.312 126.266 130.679 126.662C126.554 126.958 122.329 127.254 118.204 127.65C117.399 127.748 116.393 128.242 117.098 129.033C117.802 129.823 119.411 130.021 120.417 129.922C123.637 129.626 126.755 129.329 129.974 129.132C135.507 128.736 140.94 128.341 146.171 128.242C147.177 128.242 148.284 128.242 149.29 128.242L150.497 128.341C149.591 128.341 150.597 128.44 150.899 128.44C150.698 128.44 150.195 128.242 150.597 128.44C150.296 128.341 150.094 128.242 149.893 128.144C149.793 128.045 149.491 127.748 149.491 127.748C149.189 127.551 149.591 127.452 149.491 127.748C149.189 128.341 149.189 128.539 148.887 129.132C146.372 133.479 143.455 137.53 140.336 141.383C137.922 144.643 135.407 147.805 132.791 151.065C132.691 151.263 132.59 151.46 132.691 151.658C134.501 154.424 136.312 157.191 137.821 160.155C138.727 161.736 139.934 163.712 140.135 165.49C140.135 165.095 140.034 165.589 139.934 165.786C140.034 165.391 139.833 165.885 139.833 165.984C139.833 166.083 139.632 166.28 139.531 166.478C137.821 168.355 135.91 170.035 133.797 171.418C130.779 173.69 127.56 175.864 124.341 177.939C117.601 182.385 110.458 186.337 103.215 189.894C102.511 190.19 101.907 190.486 101.203 190.783L100.197 191.178L99.392 191.474C98.889 191.672 98.386 191.87 97.883 191.968L97.1788 192.166C96.877 192.265 96.374 192.166 96.9776 192.265C96.4746 192.265 96.7764 192.265 97.0782 192.265C97.5812 192.265 98.0842 192.364 98.5872 192.561C99.5932 192.956 98.386 192.462 99.1908 192.956C99.0902 192.858 98.9896 192.759 98.9896 192.66C98.9896 192.561 98.889 192.462 98.7884 192.364C98.6878 192.067 98.4866 191.672 98.4866 191.376C97.1788 187.028 97.4806 181.891 97.4806 177.148C97.4806 169.936 97.883 162.724 98.386 155.511C99.2914 142.371 100.398 129.23 102.209 116.189C102.41 114.806 102.611 113.521 102.812 112.237C102.812 112.138 102.913 111.94 102.913 111.842C102.913 111.743 102.812 112.039 102.812 112.039C102.812 112.039 103.818 111.15 102.611 112.237C102.008 112.83 100.197 112.434 99.6938 112.237C100.096 112.434 99.2914 111.94 99.7944 112.336C99.9956 112.434 100.197 112.632 100.398 112.731C100.8 113.027 101.203 113.324 101.605 113.719C106.635 118.264 111.363 123.105 115.89 128.144L116.896 129.23C117.802 130.021 119.009 130.317 120.216 130.12C121.021 129.922 122.228 129.428 121.524 128.638Z" fill="#000005"/>
<path d="M108.648 178.235C112.773 169.244 116.897 160.352 121.122 151.362C123.235 146.916 125.247 142.371 127.661 138.122C127.762 137.925 127.963 137.628 128.064 137.431C128.164 137.233 128.164 137.233 128.265 137.233C128.768 136.838 129.372 136.64 129.975 136.443C132.591 135.356 135.206 134.566 137.923 133.676C143.254 131.898 148.586 130.218 154.019 128.539C155.025 128.242 153.717 127.65 153.314 127.452C152.208 126.958 151.001 126.859 149.894 127.057C145.266 128.44 140.639 129.922 136.112 131.503C133.094 132.491 130.076 133.479 127.058 134.664C125.851 135.06 124.14 135.455 123.336 136.542C122.531 137.826 121.726 139.209 121.122 140.691C119.915 143.161 118.708 145.631 117.501 148.2C114.583 154.227 111.767 160.254 108.95 166.379C107.24 170.134 105.529 173.789 103.819 177.544C103.417 177.939 108.145 179.421 108.648 178.235Z" fill="#000005"/>
<path d="M141.04 161.834L128.867 139.703L127.157 136.542C126.755 135.85 125.849 134.269 124.843 134.368C123.837 134.467 124.34 136.048 124.642 136.542L136.815 158.673L138.525 161.834C138.927 162.526 139.833 164.107 140.839 164.008C141.845 163.909 141.342 162.328 141.04 161.834Z" fill="#000005"/>
<path d="M108.646 178.235L112.369 162.625L118.304 137.727L119.712 131.997C120.417 129.23 115.387 128.341 114.783 131.206L111.061 146.817L105.125 171.714L103.717 177.445C103.013 180.211 107.942 181.002 108.646 178.235Z" fill="#000005"/>
<path d="M257.736 109.273C248.179 102.159 237.716 95.5396 225.946 92.7732C220.111 91.39 213.975 91.0936 208.039 91.9828C202.707 92.7732 196.772 94.6504 192.949 98.5036C189.428 102.06 188.12 107.297 191.038 111.644C193.955 115.991 200.494 116.386 204.216 112.731C208.24 108.878 207.436 102.851 203.915 98.9976C199.891 94.4528 193.553 93.4648 187.718 93.9588C175.545 95.0456 165.284 102.851 158.041 112.039C156.23 114.312 160.757 116.386 162.467 114.312C167.699 107.593 174.841 101.665 183.191 99.1952C187.316 98.0096 192.144 97.318 196.269 98.8C199.79 100.084 203.11 103.839 201.701 107.692C200.796 110.36 197.074 112.434 195.263 109.767C193.15 106.704 194.861 102.851 197.476 100.677C200.897 97.812 205.725 96.5276 210.152 95.9348C214.981 95.342 219.809 95.6384 224.538 96.7252C235.604 99.1952 245.362 105.42 254.315 112.039C255.321 112.928 256.73 112.928 257.836 112.237C258.641 111.446 258.641 110.261 257.937 109.47C257.836 109.372 257.836 109.372 257.736 109.273Z" fill="#000005"/>
<path d="M156.03 121.722C156.835 121.82 157.539 121.228 157.639 120.437C157.639 120.24 157.639 120.042 157.539 119.844C157.036 118.659 155.527 118.362 154.42 118.362C153.615 118.264 152.911 118.856 152.811 119.647C152.811 119.844 152.811 120.042 152.911 120.24C153.414 121.425 154.923 121.722 156.03 121.722Z" fill="#000005"/>
<path d="M261.561 411.206C267.194 423.951 282.083 429.978 294.859 433.139C308.742 436.696 323.228 437.091 337.212 434.226C343.952 432.843 350.39 430.373 356.326 427.014C359.344 425.334 362.161 423.358 364.776 421.184C366.989 419.307 369.102 417.035 369.404 414.071C369.706 411.107 365.581 407.55 362.664 409.427C360.35 410.909 360.45 414.169 361.557 416.244C363.267 419.406 367.593 420.69 371.013 420.789C374.534 420.789 377.955 420.097 381.174 418.813C393.447 413.873 401.898 402.511 402.803 389.47C402.904 387.889 402.904 386.308 402.702 384.727C402.602 383.245 397.773 381.961 397.974 383.64C398.678 391.841 396.063 399.942 390.731 406.364C385.701 412.49 377.955 417.628 369.806 418.023C367.895 418.122 366.386 417.825 365.782 415.948C365.279 414.367 365.581 412.194 367.291 411.502L364.474 411.008C365.078 411.304 364.575 413.478 364.374 414.071C363.77 415.553 362.764 416.936 361.557 418.023C358.64 420.592 355.42 422.864 352.101 424.741C345.36 428.495 337.916 431.064 330.27 432.25C314.778 434.819 298.883 433.04 284.296 427.31C276.651 424.247 269.609 419.208 266.188 411.601C265.484 410.316 260.756 409.23 261.561 411.206Z" fill="#000005"/>
<g clip-path="url(#clip0_22_138)">
<path d="M275.482 270.485C263.769 276.442 259.088 290.82 265.047 302.538C273.926 319.996 301.723 327.314 302.902 327.617C303.44 327.755 303.987 327.683 304.451 327.447C304.916 327.211 305.297 326.811 305.502 326.295C305.951 325.164 316.409 298.39 307.53 280.932C301.571 269.215 287.194 264.528 275.482 270.485ZM302.08 322.784C295.767 320.837 275.698 313.744 268.981 300.537C264.125 290.989 267.939 279.272 277.482 274.419C287.026 269.565 298.741 273.384 303.597 282.932C310.313 296.139 304.225 316.535 302.08 322.784Z" fill="black"/>
<path d="M281.254 281.836C275.831 284.593 273.678 291.278 276.454 296.736C279.23 302.195 285.9 304.392 291.323 301.634C296.745 298.876 298.898 292.192 296.122 286.733C293.346 281.275 286.676 279.078 281.254 281.836ZM289.322 297.7C286.069 299.355 282.061 298.025 280.388 294.736C278.715 291.446 280.001 287.424 283.254 285.769C286.508 284.115 290.516 285.444 292.189 288.734C293.862 292.023 292.576 296.045 289.322 297.7Z" fill="black"/>
</g>
<g clip-path="url(#clip1_22_138)">
<path fill-rule="evenodd" clip-rule="evenodd" d="M402.827 354.487C402.184 354.326 401.503 354.427 400.935 354.768C400.366 355.109 399.956 355.662 399.795 356.305C399.634 356.948 399.735 357.629 400.076 358.197C400.417 358.766 400.969 359.176 401.613 359.337L416.163 362.982C416.806 363.143 417.487 363.042 418.056 362.701C418.624 362.36 419.034 361.808 419.195 361.164C419.357 360.521 419.256 359.84 418.915 359.272C418.574 358.703 418.021 358.293 417.378 358.132L402.827 354.487Z" fill="black"/>
<path fill-rule="evenodd" clip-rule="evenodd" d="M413.767 300.528C413.316 300.416 412.843 300.431 412.4 300.573C411.957 300.714 411.563 300.976 411.261 301.33L400.319 314.143C400.085 314.424 399.915 314.752 399.822 315.106C399.812 315.123 399.802 315.141 399.793 315.159L387.665 363.575C387.504 364.218 387.605 364.899 387.946 365.468C388.287 366.036 388.84 366.446 389.483 366.608L452.535 382.401C453.178 382.563 453.859 382.462 454.427 382.121C454.996 381.78 455.406 381.227 455.567 380.584L467.695 332.168L467.696 332.163C467.788 331.789 467.793 331.399 467.71 331.024L464.101 314.565C464.001 314.112 463.777 313.694 463.453 313.361C463.129 313.027 462.719 312.791 462.269 312.677L413.767 300.528ZM414.049 305.753L429.106 309.525L425.068 318.913L406.738 314.321L414.049 305.753ZM434.013 310.754L444.448 313.368L443.63 323.563L429.98 320.143L434.013 310.754ZM449.364 314.599L459.552 317.151L461.965 328.155L448.547 324.794L449.364 314.599ZM404.036 318.799L423.436 323.659L417.383 347.824C417.263 348.304 417.288 348.808 417.455 349.273C417.622 349.739 417.922 350.145 418.319 350.439C418.716 350.733 419.192 350.904 419.686 350.928C420.179 350.952 420.669 350.83 421.093 350.576L431.079 344.59L437.065 354.576C437.319 355 437.693 355.339 438.14 355.551C438.587 355.762 439.087 355.836 439.576 355.763C440.065 355.691 440.521 355.475 440.888 355.143C441.254 354.811 441.514 354.378 441.634 353.899L447.687 329.733L462.238 333.378L451.325 376.944L393.123 362.365L404.036 318.799ZM428.287 324.874L442.837 328.518L438.25 346.83L434.083 339.876C433.742 339.308 433.189 338.898 432.546 338.737C431.903 338.575 431.222 338.676 430.653 339.017L423.7 343.185L428.287 324.874Z" fill="black"/>
</g>
<defs>
<clipPath id="clip0_22_138">
<rect width="63.9053" height="63.9053" fill="white" transform="translate(247 284.97) rotate(-26.9569)"/>
</clipPath>
<clipPath id="clip1_22_138">
<rect width="80" height="80" fill="white" transform="translate(400.439 292) rotate(14.0627)"/>
</clipPath>
</defs>
</svg>
