<svg transform="scale(1)" version="1.1" id="yds2p2d6ee" xmlns="http://www.w3.org/2000/svg" xmlns:xlink="http://www.w3.org/1999/xlink" x="0px" y="0px" viewBox="0 0 500 500" xml:space="preserve" class="pbimage_pbimage__wrapper__image__0LEis false"><title>Authentication 1</title><style type="text/css"> .st0{fill:#FFFFFF;} .st1{fill:#000005;} .st2{fill:#59BE4C;}
 .st2{fill:#59BE4C;}
 .st1{fill:#000005;}
 .st0{fill:#FFFFFF;}</style><g id="device-2"><polygon class="st0" points="233,302.4 151.8,302.4 145.2,347.3 239.6,347.3 	" fill="#FFFFFF"></polygon><path class="st1" d="M233,300.2h-81.2c-1.1,0.1-2,0.8-2.4,1.8l-2.2,15.2l-3.6,24.2l-0.8,5.5c-0.2,1.6,0.8,2.6,2.4,2.6H228
		c3.8,0,7.7,0.2,11.5,0h0.2c1.1,0,2.6-1.2,2.5-2.4l-2.2-15.2l-3.6-24.2l-0.8-5.5C235.4,301,234.3,300.1,233,300.2
		C233.1,300.2,233.1,300.2,233,300.2c-1,0.1-2.6,1.1-2.4,2.4l2.2,15.2l3.6,24.2l0.8,5.5l2.5-2.4h-90.6c-1.2,0-2.5-0.1-3.7,0h-0.2
		l2.4,2.6l2.2-15.2l3.6-24.2l0.8-5.5l-2.4,1.8H233c1.3,0,2.4-1.1,2.5-2.4C235.5,300.9,234.2,300.2,233,300.2z" fill="#000005"></path><path class="st0" d="M45,70.9h294.2c7,0,12.6,5.6,12.6,12.6v207.1c0,7-5.6,12.6-12.6,12.6H45c-7,0-12.6-5.6-12.6-12.6V83.5
		C32.4,76.6,38,70.9,45,70.9z" fill="#FFFFFF"></path><path class="st1" d="M42.9,72.2h291.8c0.8,0,1.5,0,2.3,0c6.9,0,12.5,5.6,12.5,12.5c0,2.8,0,5.7,0,8.5v186.9c0,3.8,0,7.6,0,11.3
		c0,1.4-0.2,2.8-0.6,4.1c-0.6,2-1.8,3.8-3.5,5.2c-1.3,0.8-2.7,1.2-4.2,1.1H54.4c-2.4,0-4.9,0-7.3,0c-6.9-0.1-12.4-5.6-12.5-12.5
		c0-0.8,0-1.6,0-2.4V86.2c0-1.2,0-2.4,0-3.6c0-1.2,0.1-2.4,0.4-3.5c0.5-1.9,1.6-3.7,3-5.1C39.4,72.7,41.2,72.1,42.9,72.2
		c1.1-0.1,2.1-0.5,3-1.1c0.1-0.1,1.7-1.4,1.1-1.4c-8.2,0.1-16.7,6.5-16.8,15.1c0,0.8,0,1.6,0,2.4v201.7c0,1,0,2,0,3
		c0.1,7,5.7,12.6,12.7,12.7c2.2,0,4.3,0,6.5,0h286.2c0.7,0,1.5,0,2.2,0c8-0.3,16-6.8,16.1-15.1c0-3.1,0-6.2,0-9.3V92.1
		c0-3.2,0-6.5,0-9.7c-0.1-7-5.8-12.6-12.8-12.7H47c-1,0.1-2,0.5-2.9,1.1C44,70.9,42.4,72.2,42.9,72.2z" fill="#000005"></path><path class="st1" d="M45,68.3h294.2c6.9,0,12.6,5.6,12.6,12.6v173.5H32.4V80.9C32.4,73.9,38,68.3,45,68.3C45,68.3,45,68.3,45,68.3z
		" fill="#000005"></path><path class="st1" d="M46.6,69.2h291.9c0.7,0,1.5,0,2.2,0c5,0.1,8.5,5.8,8.7,10.4c0.1,3,0,5.9,0,8.9v165.2l0.8-0.3H43.8
		c-4.1,0-8.3-0.1-12.4,0h-0.5l4,1.5V84.2c0-4.4,0.5-8.6,4-11.8C40.9,70.4,43.7,69.3,46.6,69.2c0.9,0,0.9-0.5,0.2-1
		c-1-0.6-2.2-0.9-3.4-0.9c-6-0.1-11.3,3.8-13,9.5c-0.4,1.4-0.5,2.9-0.5,4.3v164.7c0,2.5-0.2,5.1,0,7.6c0,0.1,0,0.2,0,0.3
		c0,1.2,3.2,1.5,4,1.5h306.5c4.1,0,8.3,0.1,12.4,0h0.5c0.1,0,0.8,0,0.8-0.3V83c0.1-1.9-0.1-3.7-0.6-5.6c-2.1-6.7-9.4-10-16-10.1
		c-2,0-4.1,0-6.1,0H43.4c-1,0-0.9,0.5-0.2,1C44.2,68.9,45.4,69.3,46.6,69.2z" fill="#000005"></path><path class="st2" d="M192.9,275c0.6,0-0.5-0.1,0.1,0l0.4,0l0.5,0.1c0.2,0,0.3,0-0.1,0c0.3,0.1,0.6,0.2,0.8,0.3l0.1,0.1
		c0.2,0.1,0.2,0.1-0.1-0.1c0.1,0,0.3,0.2,0.4,0.3l0.3,0.3c0.4,0.3-0.1-0.1-0.1-0.1s0.5,0.6,0.6,0.6l0.2,0.3l-0.2-0.3
		c0.1,0.1,0.1,0.2,0.2,0.3l0.1,0.3c0,0.1,0.3,0.7,0.1,0.3s0,0.2,0,0.2l0.1,0.4c0,0.1,0,0.3,0.1,0.4c-0.1-0.5,0-0.1,0,0
		s0,0.6-0.1,0.9s0.1-0.5,0,0c0,0.2-0.1,0.3-0.1,0.5s-0.4,0.9-0.1,0.4c-0.1,0.3-0.3,0.5-0.4,0.7c-0.2,0.2-0.3,0.5-0.5,0.7
		c0.3-0.4,0.1-0.1,0,0l-0.4,0.4c-0.1,0.1-0.9,0.6-0.3,0.3c-0.2,0.1-0.5,0.3-0.8,0.4c-0.3,0.1-0.5,0.2-0.8,0.3c0.1,0,0.4-0.1,0,0
		c-0.2,0-0.4,0.1-0.6,0.1c-0.2,0-0.9,0-0.4,0c-0.3,0-0.6-0.1-0.9-0.1c-0.2,0-0.6,0-0.1,0c-0.1,0-0.2-0.1-0.3-0.1l-0.5-0.2l-0.1-0.1
		c-0.2-0.1-0.2-0.1,0.1,0.1c-0.2,0-0.6-0.4-0.7-0.5s-0.5-0.3-0.1-0.1s0,0-0.1-0.1c-0.2-0.2-0.4-0.4-0.5-0.7c0,0,0.3,0.5,0.1,0.1
		c-0.1-0.2-0.2-0.4-0.3-0.6s-0.1-0.3-0.1-0.3l0.1,0.3l-0.1-0.3c-0.1-0.3-0.1-0.5-0.1-0.8s0,0.5,0,0v-0.5c0-0.1,0-0.3,0-0.5
		c0-0.5-0.1,0.3,0-0.1s0.2-0.7,0.3-1c0.2-0.5-0.2,0.2,0,0s0.2-0.4,0.3-0.5c0.2-0.3,0.4-0.6,0.6-0.8c-0.1,0.1-0.3,0.3,0,0.1l0.4-0.3
		c0.1-0.1,0.3-0.2,0.4-0.3s0.6-0.3,0.1-0.1c0.3-0.2,0.6-0.3,0.9-0.4l0.4-0.1c0.5-0.2-0.2,0,0.2,0S192.5,275,192.9,275
		c1.1-0.1,1.9-1.1,1.7-2.3c0-0.1,0-0.2-0.1-0.3c-0.3-1.3-1.4-2.2-2.8-2.2c-3.5,0.1-6.7,2.4-7.8,5.7c-1.2,3.6,0,7.6,3,10
		c2.9,2.3,7,2.6,10.2,0.6c3-2,4.5-5.6,3.7-9.1c-0.4-2.1-1.6-4-3.2-5.3c-1.7-1.3-3.7-2-5.9-2c-1.1,0.1-1.9,1.2-1.8,2.3
		c0,0.1,0,0.2,0.1,0.3C190.4,274.2,191.6,275.1,192.9,275z" fill="#59BE4C"></path><rect class="st0" x="44.9" y="81.5" width="293.7" height="160.4" fill="#FFFFFF"></rect><path class="st1" d="M45.5,83.8h281.7c3.8,0,7.6,0.2,11.4,0c0.2,0,0.3,0,0.5,0l-2.6-3v153.8c-0.1,2.1-0.1,4.2,0,6.3
		c0,0.1,0,0.2,0,0.3l1.5-1.5H56.3c-3.8,0-7.6-0.2-11.4,0h-0.5l2.6,3V102c0-6.5,0.2-13,0-19.5c0-0.1,0-0.2,0-0.3
		c-0.1-1.3-0.9-2.4-2.1-2.9c-0.7-0.3-1.6,0-1.9,0.7c-0.1,0.2-0.1,0.5-0.1,0.7v140.6c0,6.5-0.2,13,0,19.5v0.3c0,1.2,1.2,3,2.6,3
		h281.8c3.8,0,7.6,0,11.4,0h0.5c0.8,0,1.4-0.6,1.5-1.4c0-0.1,0-0.1,0-0.2V102c0-6.5,0.2-13,0-19.5v-0.3c0-1.2-1.2-3-2.6-3H56.3
		c-3.8,0-7.6,0-11.4,0h-0.5C41.6,79.2,43.3,83.8,45.5,83.8z" fill="#000005"></path><circle class="st2" cx="67.1" cy="99.3" r="3.8" fill="#59BE4C"></circle><circle class="st2" cx="80.9" cy="99.1" r="3.8" fill="#59BE4C"></circle><circle class="st2" cx="94.8" cy="99.3" r="3.8" fill="#59BE4C"></circle><path class="st1" d="M175.2,130.5c1.1-6.5,4.6-13.3,10.8-16.2c1.8-0.8,3.7-1.2,5.7-1.2c0.4,0,0.8,0,1.2,0.1s1.6,0.1,1.8,0.4
		l-0.6-0.2c0.2,0.1,0.4,0.2,0.6,0.3c0.4,0.2,0.8,0.5,1.1,0.8c2.8,2.3,4.8,5.4,5.8,8.9c0.2,0.6,1.7,1,2.2,1.2
		c0.2,0.1,2.4,0.7,2.4,0.7c-0.9-3.1-2.7-5.9-5-8.2c-2.8-2.5-6.1-4.3-9.7-5.2c-6.6-1.9-12.9,0.7-16.9,6.3c-2.2,3.1-3.6,6.7-4.2,10.5
		C170.5,129.3,175.2,130.6,175.2,130.5L175.2,130.5z" fill="#000005"></path><path class="st2" d="M169.6,177c0,0-9.4-47.3-8.5-48s48.9-9.3,52.2-8.2s8.4,47.8,7,50.4S170,179.1,169.6,177z" fill="#59BE4C"></path><path class="st2" d="M172.2,178c-0.6,0-1.3,0-1.9-0.1c-0.4-0.1-1.1-0.2-1.2-0.7c-9.5-47.6-8.6-48.3-8.3-48.5
		c0.7-0.6,16.9-3.4,25.4-4.9c9.3-1.6,25.2-4.1,27.2-3.4c0.5,0.2,0.9,0.8,1.3,1.9c3.2,8.5,7.4,46.6,6,49.2
		C219.2,174.3,181.9,178,172.2,178z M170,176.8c3.3,1.4,48.1-3.8,49.8-5.8c1-1.9-2.5-37.7-5.8-47.6c-0.6-1.8-0.9-2-1-2
		c-2.8-1-47.7,6.7-51.6,8C161.4,132.2,166.5,159,170,176.8z" fill="#59BE4C"></path><path class="st1" d="M184.6,170.5l3.5-18.6c0,0-9.2-6.5-4.6-14.2s13.3-5.1,17.6,0s-2.5,14-2.5,14l7.7,16.3L184.6,170.5z" fill="#000005"></path><path class="st1" d="M184,171.1l3.6-19c-1.5-1.2-8.8-7.4-4.5-14.7c1.5-2.9,4.4-4.8,7.6-5.1c3.8-0.3,8,1.7,10.8,5
		c4.1,4.9-1.2,12.9-2.3,14.4l7.9,16.6L184,171.1z M191.5,133.3c-0.2,0-0.5,0-0.7,0c-2.9,0.3-5.5,2-6.8,4.6
		c-4.3,7.2,4.1,13.3,4.4,13.6l0.3,0.2l-3.4,18.3l20.3-2.4l-7.5-15.9l0.2-0.2c0.1-0.1,6.5-8.6,2.5-13.4
		C198.4,135.2,195.1,133.5,191.5,133.3L191.5,133.3z" fill="#000005"></path><path class="st1" d="M153.2,189.6H231c6.9,0,12.6,5.6,12.6,12.6l0,0c0,6.9-5.6,12.6-12.6,12.6h-77.8c-6.9,0-12.6-5.6-12.6-12.6l0,0
		C140.6,195.3,146.2,189.6,153.2,189.6z" fill="#000005"></path><path class="st1" d="M231,215.3h-77.8c-7.2,0-13.1-5.9-13.1-13.1s5.9-13.1,13.1-13.1H231c7.2,0,13.1,5.9,13.1,13.1
		S238.2,215.3,231,215.3z M153.2,190.1c-6.7,0-12.1,5.4-12.1,12.1s5.4,12.1,12.1,12.1H231c6.7,0,12.1-5.4,12.1-12.1
		s-5.4-12.1-12.1-12.1l0,0H153.2z" fill="#000005"></path><circle class="st0" cx="159.4" cy="202.4" r="3.8" fill="#FFFFFF"></circle><circle class="st0" cx="175.9" cy="202.5" r="3.8" fill="#FFFFFF"></circle><circle class="st0" cx="192.2" cy="202.5" r="3.8" fill="#FFFFFF"></circle><circle class="st0" cx="208.6" cy="202.5" r="3.8" fill="#FFFFFF"></circle><circle class="st0" cx="225" cy="202.5" r="3.8" fill="#FFFFFF"></circle><circle class="st1" cx="207.1" cy="202.7" r="1.6" fill="#000005"></circle><circle class="st1" cx="194.1" cy="202.5" r="1.6" fill="#000005"></circle><path class="st2" d="M144,131.3l0.8,0.3c-0.8-0.2-0.2-0.1,0,0l0.3,0.1c0.5,0.2,1.1,0.4,1.6,0.6l-0.3-0.1l0.2,0.1l0.4,0.2l0.7,0.4
		l0.7,0.4l-0.3-0.2l0.2,0.1l0.4,0.2c0.6,0.3,1.1,0.6,1.8,0.8c0.4,0.1,0.8,0.2,1.2,0.1c0.8-0.4-0.8-1.6-1.1-1.7
		c-2.6-1.5-5.3-2.8-8.2-3.7c-0.4-0.2-0.8-0.2-1.3-0.1c-0.3,0.2-0.2,0.5-0.1,0.7C141.8,130.4,142.9,131.1,144,131.3L144,131.3z" fill="#59BE4C"></path><path class="st2" d="M144.2,118.1l10.2,10.2c1,0.8,2.4,0.7,3.4-0.2c0.9-0.8,1.3-2.1,0.4-3L148,114.9c-1-0.8-2.4-0.7-3.4,0.2
		c-0.9,0.7-1.2,2-0.5,2.9C144.2,118,144.2,118,144.2,118.1L144.2,118.1z" fill="#59BE4C"></path></g><g id="device-1"><path class="st0" d="M389.1,431.7c0,0,28.6-13.2,31.2-44.4s19.5-32.3,25.4-45.2s-1.1-34.5-33.5-10.9l-24.3,10.1
		c0,0-25.1-120.8-46.4-128.3s-20.8,21.5-19,47.8c0,0-30.5-1.7-24.6,29.6c0,0-18,5.1-15.7,42.4s29.1,84.4,29.1,84.4"></path><path class="st1" d="M390.7,433.4c2.8-1.3,5.4-2.9,7.9-4.8c5.7-4.1,10.7-9,14.7-14.8c5.3-7.6,8.6-16.5,9.4-25.8
		c0.8-9.1,3-18.1,8.5-25.6c3.5-4.8,8.3-8.3,12.2-12.6c3.8-3.9,6.1-9,6.5-14.5c0.3-5.2-1.5-10.7-5.9-13.8c-6.3-4.4-14.3-2.6-20.8,0.3
		c-2.6,1.2-5.1,2.6-7.5,4.1c-1.8,1.1-3.5,2.5-5.2,3.5c-0.7,0.3-1.4,0.6-2.1,0.9l-3.7,1.5l-17.2,7.1l-1.2,0.5l3.8,2.1
		c-1.4-6.6-2.9-13.2-4.4-19.8c-3.5-14.6-7.2-29.2-11.4-43.7c-4.4-15-9.1-30-15.5-44.3c-2.2-5.2-5-10.2-8.3-14.9
		c-1.4-1.9-2.9-3.7-4.7-5.2c-2.2-1.7-4.8-2.9-7.6-3.4c-3.6-0.8-7.6-0.6-10.8,1.6c-2.9,2.1-4.6,5.5-5.7,8.8
		c-3.1,9.8-2.6,20.6-2.1,30.8c0.1,2.8,0.3,5.6,0.5,8.4l1.3-1c-3.6-0.1-7.2,0.3-10.6,1.4c-6.5,1.9-12.2,6.2-14.6,12.7
		c-2,5.4-1.7,11.3-0.7,16.9l0.7-1.3c-3.2,0.9-5.9,3.5-8,5.9c-6.2,7.3-8.1,17.5-8.6,26.8c-0.7,14.1,2.1,28.1,6.2,41.6
		c3.9,12.3,8.6,24.4,14.1,36.1c2.7,6.1,5.7,12,9.1,17.8l0.1,0.3c0.7,1.1,1.8,1.7,3.1,1.7c0.6,0,1.2-0.4,1.2-1.1
		c0-0.3-0.1-0.6-0.2-0.8c-2.6-4.6-5-9.4-7.3-14.1c-5.3-10.9-9.9-22.1-13.8-33.5c-4.3-12.9-7.7-26.3-8-40
		c-0.2-10.2,0.8-21.6,6.8-30.3c1.4-2.1,3.2-4,5.2-5.4c0.7-0.5,1.4-0.9,2.1-1.3c-0.5,0.3,0.1,0,0.4-0.2l0.5-0.2c0.1,0,0.1,0,0.2-0.1
		c0.5-0.1,0.9-0.7,0.8-1.2c0,0,0-0.1,0-0.1c-1.5-7.9-0.9-17,5.6-22.6c2.2-1.9,4.8-3.3,7.5-4.1c1.2-0.4,2.5-0.7,3.8-1l0.5-0.1
		l0.9-0.1c0.5-0.1,1-0.1,1.5-0.2c1.2-0.1,2.4-0.2,3.6-0.1c0.5,0,1.3-0.4,1.3-1c-0.7-10.6-1.5-21.6,0.1-32.2
		c0.6-3.9,1.4-7.8,3.5-11.2c1.5-2.6,4.1-4.3,7-4.6c1.8-0.1,3.5,0.1,5.2,0.7c0.4,0.1,0.8,0.3,1.1,0.4c0.5,0.2-0.6-0.3-0.1-0.1l1,0.6
		c-0.9-0.5,0.3,0.2,0.5,0.4s0.3,0.3,0.5,0.4c0.6,0.5-0.3-0.3,0.2,0.2c0.7,0.7,1.4,1.5,2.1,2.3c0.1,0.2,0.3,0.4,0.4,0.6l0.3,0.4
		c-0.4-0.5,0-0.1,0,0c0.4,0.5,0.7,1,1,1.5c0.7,1.1,1.4,2.1,2,3.3c1.5,2.5,2.8,5.2,4,7.8c6.2,13.3,10.9,27.9,15.1,42.2
		s8,29,11.5,43.6c1.2,5.1,2.4,10.2,3.5,15.3c0.5,2.5,1,5,1.6,7.5c0,0.1,0,0.2,0.1,0.3c0.3,1.3,2.5,2.6,3.8,2.1l13.3-5.5l8.4-3.5
		c0.7-0.3,1.5-0.6,2.2-0.9c1.4-0.7,2.7-1.6,3.9-2.5c4.2-3,8.8-5.3,13.7-7c1.6-0.5,3.3-0.9,5-1h1.1c0.1,0,1,0,0.7,0
		c0.3,0,0.6,0.1,1,0.1c0.2,0,1.3,0.3,0.7,0.1c0.3,0.1,0.6,0.2,0.9,0.3l0.3,0.1c0.6,0.2-0.5-0.3,0,0c0.2,0.1,0.5,0.3,0.7,0.4l0.3,0.2
		c-0.7-0.4,0,0,0.1,0.1l0.6,0.5c-0.5-0.5,0.1,0.1,0.2,0.3s0.4,0.4,0.5,0.6c-0.4-0.5,0.2,0.3,0.3,0.5s0.3,0.5,0.4,0.7
		s0.4,0.8,0.2,0.4c0.2,0.5,0.4,1.1,0.6,1.6c0.3,1,0.5,2.1,0.5,3.2c0.2,5.1-1.4,10.1-4.7,14c-3.4,4.2-8.1,7.7-11.7,11.8
		c-5.3,6.1-8.3,13.5-9.8,21.4c-1,5.2-1.1,10.5-2.3,15.7c-1,4.3-2.5,8.4-4.6,12.3c-5.6,9.9-14,18-24.2,23.2c-0.5,0.3,0.3-0.1-0.2,0.1
		C385.3,431.1,389,434.2,390.7,433.4L390.7,433.4z"></path><path class="st2" d="M288,378.1L349.6,228c2.9-7.2,11.1-10.6,18.3-7.6l65.3,26.8c7.2,2.9,10.6,11.1,7.6,18.3l-61.6,150.1
		c-2.9,7.2-11.1,10.6-18.3,7.6l-65.3-26.8C288.5,393.4,285.1,385.2,288,378.1z"></path><path class="st2" d="M362.4,421.4l-18.4-7.6l-32.8-13.5l-11.2-4.6c-3.1-1.3-6-2.5-8.1-5.4c-2.7-3.7-3.2-8.6-1.5-12.8l1.9-4.6
		l8.4-20.5l12.5-30.5l14-34l12.8-31.1l9-22c1.7-4.1,3.1-9.6,7-12c3.2-1.9,7.1-2.1,10.5-0.6l1.5,0.6l9.8,4l32.4,13.3
		c7.1,2.9,14.2,5.8,21.3,8.7c6.2,2.6,9.5,9.5,7.4,16c-0.3,1-0.8,1.9-1.1,2.9l-7,17.2L419,313.6l-13.9,33.8l-13.3,32.4l-10.2,24.8
		c-1.5,3.6-2.9,7.3-4.5,10.9c-0.8,2.2-2.3,4-4.3,5.3C369.7,422.7,365.8,422.9,362.4,421.4c-1.8-0.7-5.3,2.6-2.9,3.5
		c8.3,3.3,18.3-1.2,21.8-9.4c0.4-0.9,0.8-1.8,1.1-2.7l7.4-18.1l12.2-29.7l14.1-34.4l13.3-32.5l9.8-24l2.8-6.7c0.7-1.5,1.2-3,1.7-4.5
		c1.7-7.4-2.2-14.9-9.2-17.7c-2.3-1-4.7-1.9-7-2.9l-31.3-12.8l-25.6-10.5c-0.6-0.2-1.2-0.5-1.8-0.7c-4.2-1.5-8.8-1.2-12.8,0.8
		c-4,2-7.2,5.4-8.9,9.6l-5.9,14.4l-11.2,27.4l-13.9,33.8L302.4,338l-10.9,26.6l-5.4,13.1c-2.1,5-1.9,10.7,1.4,15.3
		c1.8,2.4,4.1,4.2,6.9,5.3l2.3,1l27.6,11.3l30,12.3l5.1,2.1C361.3,425.7,364.9,422.4,362.4,421.4z"></path><rect class="st0" x="297.1" y="274.7" transform="matrix(0.3796 -0.9251 0.9251 0.3796 -65.8004 534.8838)" width="137.7" height="83.7"></rect><path class="st1" d="M337.2,397.4c-0.4,1.1-1.2,2-2.2,2.7l-0.3,0.2c0,0-0.5,0.2-0.2,0.1c-0.2,0.1-0.5,0.1-0.1,0c-0.4,0,0,0,0.1,0
		c-0.5,0.1,0.6-0.1,0.5-0.1c0.9-0.1-0.3,0,0.3,0h-0.3c0.2,0-0.3,0-0.4,0c-2.3-0.4-4.2-2.2-4.8-4.5c-0.6-2.3,0.2-4.8,2.1-6.3
		c0.2-0.1,0.4-0.3,0.5-0.4c0,0,0.5-0.2,0.2-0.1c0.1-0.1,0.5-0.1,0.1-0.1c0.4,0-0.1,0-0.1,0c0.5-0.1-0.6,0.1-0.5,0.1
		c-0.9,0.1,0.3,0-0.3,0h0.2c1.2,0.1,2.3,0.6,3.3,1.4c2,1.8,2.7,4.6,1.7,7.1c-0.1,0.4,2.4,0.1,2.5,0c0.6-0.1,1.2-0.3,1.7-0.5
		c0.3-0.1,0.5-0.2,0.6-0.5c1-2.7,0.2-5.7-2.1-7.5c-1.3-0.9-2.8-1.4-4.4-1.4c-2.3,0-4.7,0.5-6.8,1.5c-3.3,1.5-4.7,5.4-3.2,8.6
		c1,2.2,3.1,3.7,5.5,3.8c2.6,0.2,5.1-0.2,7.4-1.4c1.5-0.7,2.8-2,3.4-3.5c0.2-0.6-1.6-0.3-1.8-0.3c-0.6,0.1-1.3,0.2-1.9,0.4
		C338,396.9,337.3,397.1,337.2,397.4z"></path><circle class="st1" cx="403.4" cy="246.9" r="2"></circle><path class="st1" d="M384,240.4l9.4,4l1.3,0.6c0.5,0.2-0.5-1.6-0.5-1.7c-0.3-0.6-0.7-1.1-1.1-1.6c-0.2-0.3-0.5-0.6-0.8-0.8l-9.4-4
		l-1.3-0.6c-0.5-0.2,0.5,1.6,0.5,1.7c0.3,0.6,0.7,1.1,1.1,1.6C383.4,239.8,383.7,240.2,384,240.4z"></path><path class="st0" d="M309.7,283.7c0,0,24.1,16.6,31,4.5c8.5-15-10.9-29.8-25.6-26.6"></path><path class="st1" d="M307.8,284.7c2.7,1.8,5.5,3.5,8.4,4.9c5.1,2.6,10.8,4.8,16.6,4.8c2.7,0.1,5.4-0.7,7.6-2.3
		c2.5-1.8,3.9-5,4.5-7.9c1.5-6.9-2.2-13.5-7.4-17.8c-6.4-5.3-15.3-8-23.6-6.2c-1,0.2-1.8,1.2-1.2,2.2s2.2,1.2,3.3,1
		c5.6-1.2,11.7,0.6,16.4,4s8.3,8.6,7.7,14.6c-0.3,2.6-1.3,5.6-3.2,7.3c-0.6,0.6-1.3,1-2.1,1.3c-0.8,0.3-1.7,0.4-2.5,0.4h-0.8
		c0.5,0-0.4,0-0.5,0c-0.6,0-1.2-0.1-1.8-0.2l-0.8-0.1c0.5,0.1-0.4-0.1-0.5-0.1c-0.6-0.1-1.2-0.3-1.8-0.5c-2.3-0.7-4.5-1.6-6.6-2.6
		c-2-1-4-2.1-6-3.3c-0.6-0.4-1.2-0.8-1.8-1.1c-0.3-0.2-1-0.7-0.2-0.1c-1-0.8-2.4-0.9-3.5-0.4c-0.7,0.3-1,1.1-0.7,1.8
		C307.5,284.3,307.6,284.5,307.8,284.7L307.8,284.7z"></path><path class="st0" d="M297.1,309.9c0,0,15.2,17.4,30,10.5s-6-33-29.3-30.1"></path><path class="st1" d="M295.5,309.9c3.1,3.5,6.8,6.5,10.8,9c6.4,3.9,14.3,6.4,21.6,3.5c2.5-0.8,4.5-2.6,5.6-5c0.8-2.3,0.9-4.7,0.1-7
		c-1.9-6.2-7-11.5-12.3-15.1c-7.3-5-16.1-7.9-25-6.9c-2.1,0.2,1.3,3.7,2.8,3.5c6.6-0.8,13.4,0.7,19.1,4.1c2.5,1.4,4.8,3.3,6.7,5.4
		c1.6,1.7,3,3.7,3.9,5.9c1.7,3.9,1.3,8.4-2.6,10.8c-5.6,3.4-12.6,2.3-18.1-0.7c-1.4-0.7-2.7-1.6-3.9-2.5c-0.6-0.5-1.3-1-1.9-1.5
		l-0.3-0.2c-0.6-0.5,0.4,0.3-0.2-0.2l-0.7-0.6c-0.7-0.7-1.5-1.4-2.2-2.1c-0.1-0.1-0.8-0.8-0.4-0.4s0.1,0.1,0,0
		c-0.7-0.8-1.9-1.8-3-1.7S295,309.4,295.5,309.9L295.5,309.9z"></path><path class="st1" d="M316.4,293.7c-4.3,2.7-5.9,8.3-4.7,13.1c1.4,5.7,7.9,8.9,13.4,8.8c2.6,0,5.8-0.8,7-3.4c0.9-1.8-2.8-2.7-3.6-1
		c0,0.1-0.1,0.2-0.1,0.3s0.2-0.3,0-0.1s-0.2,0.3-0.4,0.4c0.3-0.3-0.1,0.1-0.2,0.1l-0.2,0.1c-0.1,0.1-0.1,0,0.1-0.1l-0.2,0.1
		l-0.6,0.2l-0.3,0.1c0.4-0.1,0.1,0,0,0s-0.5,0.1-0.7,0.1s-0.9,0.1-0.5,0.1c-0.5,0-1.1,0-1.6,0l-0.8-0.1c0.4,0,0.1,0,0,0l-0.7-0.1
		c-1-0.2-2-0.6-2.9-1.1l-0.7-0.4h-0.1l-0.4-0.3c-0.4-0.3-0.9-0.7-1.2-1.1c-0.7-0.8-1.2-1.8-1.5-2.8c-0.8-2.7-0.4-5.5,1-7.9
		c0.3-0.4,0.5-0.8,0.8-1.1c0.3-0.4,0.6-0.7,1-1c-0.3,0.3,0,0,0.1-0.1l0.3-0.2l0.3-0.2c0.6-0.4,0.8-1.2,0.4-1.8
		c-0.1-0.1-0.2-0.2-0.3-0.3C318.2,293.3,317.2,293.2,316.4,293.7L316.4,293.7z"></path><path class="st1" d="M326.5,263c-3.1,2.5-5.4,6.8-4.9,10.9s3.1,7.4,6.3,9.7c2.5,2,5.7,2.8,8.8,2.4c2.8-0.5,5.1-2.3,6.3-4.8
		c0.3-0.9,0.1-1.8-0.6-2.4c-0.4-0.4-1.7-1-2.1-0.1c-1.8,4.1-6.8,5.1-10.5,2.9c-2.4-1.4-4.7-3.9-5.1-6.7c-0.2-2.1,0.4-4.1,1.6-5.8
		c0.3-0.5,0.6-0.9,1-1.3l0.5-0.5l0,0l0.2-0.2c0.3-0.3,0.6-0.6,0.9-0.8C330,264.9,327.8,261.9,326.5,263L326.5,263z"></path><path class="st2" d="M354.1,253.3l3.6,1.5c0.6,0.3,1.2,0.3,1.8,0.2c0.5-0.1,1-0.4,1.2-0.9c0.4-1.1-0.5-2.3-1.6-2.7l-3.6-1.5
		c-0.6-0.3-1.2-0.3-1.8-0.2c-0.5,0.1-1,0.4-1.2,0.9C352.1,251.8,353.1,252.9,354.1,253.3L354.1,253.3z"></path><path class="st2" d="M353.7,257.4l3.6,1.5c0.2,0.1,0.5,0.2,0.7,0.2c0.2,0,0.4,0,0.5,0c0.3-0.1,0.3-0.4,0.1-0.7
		c-0.3-0.4-0.6-0.8-1-1.1c-0.5-0.4-1.1-0.7-1.7-1l-3.6-1.5c-0.2-0.1-0.5-0.2-0.7-0.2c-0.2,0-0.4,0-0.5,0c-0.3,0.1-0.3,0.4-0.1,0.7
		c0.2,0.4,0.6,0.8,1,1.1C352.5,256.8,353.1,257.1,353.7,257.4L353.7,257.4z"></path><circle class="st1" cx="365.3" cy="317.2" r="25.9"></circle><path class="st1" d="M365.3,343.6c-14.6,0-26.4-11.8-26.4-26.4c0-3.4,0.7-6.8,2-10c5.8-13.4,21.3-19.5,34.6-13.8
		c13,5.6,19.3,20.5,14.1,33.8l0,0C385.6,337.1,376,343.5,365.3,343.6L365.3,343.6z M365.3,291.8c-14,0-25.4,11.4-25.4,25.4
		c0,14,11.4,25.4,25.4,25.4c10.3,0,19.6-6.2,23.5-15.7l0,0c5.3-13-0.9-27.8-13.9-33.1C371.8,292.5,368.6,291.8,365.3,291.8z"></path><path class="st0" d="M351.3,314.6c0.9,3.8,1.9,7.5,2.5,11.3c0.3,1.5,2.3,2.1,3.6,2.3c1.9,0.3,4,0,5.7-1c6.6-4.4,13.5-8.4,20.5-12.1
		c0.6-0.3,1.5-0.8,1.5-1.6s-0.8-1.4-1.4-1.7c-2.2-1-4.8-1.1-7.1-0.1c-7.6,3.9-15,8.3-22.1,13l9.3,1.3c-0.7-3.8-1.6-7.6-2.5-11.3
		c-0.5-2-3.2-2.4-5-2.4c-1.2,0-2.4,0.2-3.5,0.6C352.2,313.2,351.1,313.9,351.3,314.6L351.3,314.6z"></path><path class="st2" d="M449.4,243.1c4.6,7.7,5.1,17.3,1.1,25.4c-0.3,0.5,4.4,1.9,5,0.7c3.9-8.3,3.5-18-1.3-25.8
		c-0.5-0.8-2.2-0.9-3-0.9C451,242.5,449,242.4,449.4,243.1L449.4,243.1z"></path><path class="st2" d="M464.9,258.8c1.2,9-1,18.1-6.1,25.5c-0.1,0.2,2.1,0.9,2.3,1c0.4,0.1,2.2,0.8,2.5,0.3
		c5.2-7.4,7.4-16.5,6.1-25.5c-0.1-0.5-2-0.9-2.3-1C467.2,259.1,464.8,258.6,464.9,258.8z"></path><path class="st2" d="M433.4,203.5c0.1-15.8-8.3-30.5-21.9-38.6c-7-4-14.8-6.2-22.8-6.3c-3.9-0.1-8.4,0.1-11.6,2.5
		c-2.1,1.7-3.5,4.1-3.9,6.7c-1,6.4,3.6,12.7,10.5,11.7c3.7-0.5,5.8-3.9,6.5-7.4c0.5-3.2-0.1-6.4-1.5-9.2c-3.4-7-10.8-10.2-18-11.7
		c-4-0.8-8.1-1.2-12.2-1.4c-4.5-0.3-9.1-0.4-13.6-0.2c-15.1,0.8-32.2,6.4-39.1,21.1c-0.7,1.6-1.3,3.2-1.8,4.9
		c-0.2,0.8,4.6,1.3,5-0.1c3.5-13.1,16.1-21,28.8-23.3c7.4-1.4,15.1-1.1,22.5-0.5c6.7,0.6,14,1.6,19.2,6.2c4.2,3.7,7,9.9,5.4,15.5
		c-0.4,1.5-1.2,2.8-2.2,3.9c-0.4,0.4-1.2,0.6-0.3,0.6s0-0.2-0.4-0.4c-0.5-0.3-1-0.7-1.4-1.1c-1.6-1.7-2.5-4-2.6-6.4
		c-0.1-2.4,0.5-4.7,1.9-6.7c1.8-2.4,4.4-3.1,7.2-3.1c6.7,0,13.3,1.8,19.2,5.1c12.2,6.9,20.4,19.2,21.9,33.2c0.2,1.7,0.3,3.3,0.2,5
		C428.4,204.7,433.4,204.7,433.4,203.5L433.4,203.5z"></path><path class="st2" d="M297.6,192.9l3.2-3.2c0.2-0.2,0.3-0.4,0.4-0.6c0.1-0.2,0.2-0.4,0.2-0.6c0-0.4-0.3-0.6-0.7-0.6
		c-0.5,0-1.1,0.1-1.5,0.3c-0.6,0.3-1.1,0.7-1.6,1.1l-3.2,3.2c-0.2,0.2-0.3,0.4-0.4,0.6c-0.1,0.2-0.2,0.4-0.2,0.6
		c0,0.4,0.3,0.6,0.7,0.6c0.5,0,1.1-0.1,1.5-0.3C296.6,193.8,297.1,193.4,297.6,192.9L297.6,192.9z"></path></g></svg>