<svg width="200" height="200" viewBox="0 0 200 200" fill="none" xmlns="http://www.w3.org/2000/svg">
<path d="M71.1598 33.1997H60.8798C60.5598 33.1997 59.8398 33.2397 59.8398 33.7197V39.0397C59.8398 39.4797 60.4798 39.6797 60.7998 39.6797H71.0798C71.3998 39.6797 72.1198 39.6397 72.1198 39.1597V33.7997C72.1198 32.9997 70.1198 32.9197 70.1198 33.6797V39.0397L71.1598 38.5597H60.8798L61.8398 39.1997V33.7997L60.8398 34.2797H71.1198C71.4398 34.2797 72.1198 34.2397 72.1598 33.7997C72.1998 33.3597 71.4398 33.1997 71.1598 33.1997Z" fill="#68BA7F"/>
<path d="M60.8402 33.7598H43.1602V39.1198H60.8402V33.7598Z" fill="#68BA7F"/>
<path d="M42.1602 33.9198V39.2798C42.2002 39.6398 42.5202 39.9198 42.8802 39.9198H60.5602C61.0802 39.9198 61.8002 39.5998 61.8002 38.9998V33.5998C61.7602 33.2398 61.4402 32.9598 61.0802 32.9598H43.4002C42.8802 32.9198 42.4002 33.1998 42.2002 33.6798C42.1202 34.0398 42.3202 34.3998 42.6802 34.4798C42.7602 34.4798 42.8402 34.5198 42.8802 34.4798H60.5602L59.8402 33.8398V39.1998L61.0402 38.2798H43.4002L44.1202 38.9198V33.5998C44.1202 32.5198 42.1602 32.9598 42.1602 33.9198Z" fill="#68BA7F"/>
<path d="M43.6406 29.4V30.6C43.6406 30.68 43.6806 30.72 43.7206 30.8C43.7606 30.88 43.8006 30.96 43.8806 31.04C44.0406 31.24 44.2006 31.44 44.4006 31.6L44.5606 31.76C44.6406 31.84 44.7606 31.92 44.8806 31.96C44.9606 32 45.0806 32.04 45.0806 31.88V30.68C45.0806 30.6 45.0406 30.56 45.0406 30.48C45.0006 30.4 44.9606 30.32 44.8806 30.24C44.7206 30.04 44.5606 29.84 44.3606 29.68L44.2006 29.52C44.1206 29.44 44.0006 29.36 43.8806 29.32C43.8006 29.28 43.6406 29.24 43.6406 29.4Z" fill="#000005"/>
<path d="M56.5586 29.6793V30.9593C56.5586 31.0793 56.5586 31.1993 56.5986 31.3193C56.6386 31.4393 56.6786 31.5593 56.7586 31.6393C56.8386 31.7593 56.9586 31.8393 57.0786 31.8793C57.1986 31.9593 57.3186 31.9993 57.4386 31.9993C57.6786 32.0393 57.9186 31.9993 58.1586 31.8793C58.3586 31.7593 58.4786 31.5193 58.5186 31.2793V29.9993C58.5186 29.8793 58.5186 29.7593 58.4786 29.6393C58.4386 29.5193 58.3986 29.3993 58.3186 29.3193C58.2386 29.1993 58.1186 29.1193 57.9986 29.0793C57.8786 28.9993 57.7586 28.9593 57.6386 28.9593C57.3986 28.9193 57.1586 28.9593 56.9186 29.0793C56.7186 29.2393 56.5586 29.4393 56.5586 29.6793Z" fill="#000005"/>
<path d="M68.1211 29.9595V31.1595C68.1211 31.2395 68.1211 31.3595 68.1611 31.4395C68.2011 31.5595 68.2411 31.6395 68.3211 31.7195C68.5211 31.9195 68.7211 32.0395 68.9611 32.1595C69.1611 32.2395 69.4011 32.2395 69.6411 32.1995C69.8011 32.1595 69.9611 31.9995 69.9611 31.7995V30.5995C69.9611 30.5195 69.9611 30.3995 69.9211 30.3195C69.8811 30.1995 69.8411 30.1195 69.7611 30.0395C69.6811 29.9195 69.6011 29.8395 69.4811 29.7995C69.3611 29.7195 69.2411 29.6395 69.1211 29.6395C68.9211 29.5595 68.6811 29.5595 68.4411 29.5995C68.2811 29.5995 68.1611 29.7595 68.1211 29.9595Z" fill="#000005"/>
<path d="M141.119 33.6396C143.439 31.4396 146.239 29.7996 149.319 28.8396C153.959 27.3996 158.999 28.3196 162.839 31.3196C163.439 31.7996 163.999 32.2796 164.519 32.8396L164.599 32.9196C164.639 32.9596 164.679 32.9996 164.719 33.0396C164.759 33.0796 164.839 33.1596 164.919 33.2396C164.999 33.3196 164.999 33.3596 165.079 33.4396C165.279 33.7196 165.439 33.5996 165.399 33.2796C165.279 32.7996 165.079 32.3996 164.799 31.9996C163.039 29.7196 160.319 27.9596 157.639 27.0396C155.119 26.1996 152.399 26.0396 149.759 26.6396C147.479 27.1996 145.279 28.1596 143.319 29.4796C142.239 30.1596 141.239 30.9196 140.319 31.7996C139.879 32.1596 140.959 33.7596 141.119 33.6396Z" fill="#68BA7F"/>
<path d="M141.038 26.4401L141.278 26.9601C141.318 27.0401 141.398 27.1201 141.478 27.1601C141.558 27.2401 141.638 27.3201 141.758 27.3601C141.878 27.4401 141.998 27.4801 142.118 27.5201C142.238 27.5601 142.358 27.6001 142.478 27.6401L142.678 27.6801C142.798 27.6801 142.878 27.6801 142.998 27.6401L143.078 27.5601C143.118 27.4801 143.078 27.4001 143.038 27.3601L142.798 26.8401C142.758 26.7601 142.678 26.6801 142.598 26.6401C142.518 26.5601 142.438 26.4801 142.318 26.4401C142.198 26.3601 142.078 26.3201 141.958 26.2801C141.838 26.2401 141.718 26.2001 141.598 26.1601L141.398 26.1201C141.318 26.1201 141.198 26.1201 141.118 26.1601L141.038 26.2401C140.958 26.2801 140.998 26.3601 141.038 26.4401Z" fill="#000005"/>
<path d="M153.359 22.9196V23.8796C153.359 23.9996 153.399 24.1196 153.479 24.1996C153.519 24.3196 153.599 24.3996 153.719 24.4796C153.799 24.5596 153.919 24.6396 154.079 24.6796C154.199 24.7596 154.319 24.7996 154.439 24.7996C154.679 24.8396 154.879 24.7596 155.079 24.5996L155.199 24.4396C155.279 24.3196 155.279 24.1596 155.279 24.0396V23.0796C155.279 22.9596 155.239 22.8396 155.159 22.7596C155.119 22.6396 155.039 22.5596 154.919 22.4796C154.839 22.3996 154.719 22.3196 154.559 22.2796C154.439 22.2396 154.319 22.1996 154.199 22.1996C153.959 22.1596 153.759 22.2396 153.559 22.3996L153.439 22.5596C153.359 22.6396 153.319 22.7596 153.359 22.9196Z" fill="#000005"/>
<path d="M164.841 26.8394C164.761 26.9194 164.681 26.9994 164.641 27.0794C164.601 27.1194 164.561 27.1994 164.561 27.2394C164.481 27.3994 164.441 27.5594 164.441 27.7194C164.441 27.7594 164.481 27.7994 164.561 27.8394C164.641 27.8794 164.721 27.9194 164.801 27.9194C164.921 27.9194 165.001 27.9194 165.121 27.9194C165.241 27.9194 165.361 27.8794 165.521 27.8794L165.761 27.7994C165.881 27.7594 166.041 27.6794 166.161 27.5994L166.281 27.5194C166.361 27.4794 166.401 27.3994 166.361 27.3194C166.361 27.2794 166.361 27.2794 166.361 27.2394V27.3194C166.401 27.1194 166.481 26.9594 166.601 26.7994C166.641 26.7594 166.681 26.7194 166.681 26.6394C166.681 26.5994 166.681 26.5194 166.641 26.5194C166.561 26.4794 166.521 26.4394 166.441 26.4394C166.361 26.3994 166.241 26.3994 166.161 26.3994C165.921 26.3994 165.641 26.4394 165.401 26.5594L165.161 26.6394C165.041 26.6794 164.961 26.7594 164.841 26.8394Z" fill="#000005"/>
<path d="M156.32 31.2794C154.64 32.7194 153.24 34.5194 152.24 36.4794C152 36.9594 151.72 37.4794 151.92 37.9994C152.16 38.6794 153.08 38.7994 153.72 38.7194C154.32 38.6394 154.84 38.2794 155.12 37.7194C155.44 37.1994 155.72 36.6794 156 36.1594C156.64 34.9194 157.28 33.6394 157.8 32.3594C158.08 31.7194 156.12 31.5594 155.88 32.1194C155.44 33.1994 154.96 34.2394 154.44 35.2394C154.2 35.7194 153.92 36.2394 153.64 36.7194C153.48 36.9994 153.36 37.2394 153.2 37.4794C153.16 37.5594 153.08 37.6794 153.04 37.7594C153 37.7994 153 37.8394 152.96 37.8794C152.8 37.9994 152.88 37.9594 153.16 37.8394H153.68C153.76 37.8394 153.96 37.9594 153.96 37.8794C153.92 37.8394 153.92 37.7594 153.88 37.7194C153.88 37.5994 153.88 37.4394 153.92 37.3194C154.04 36.9994 154.2 36.6794 154.4 36.3994C154.72 35.7994 155.08 35.2394 155.44 34.6794C156.2 33.5994 157.08 32.5994 158.12 31.7194C158.48 31.4394 158.04 31.1594 157.76 31.0794C157.2 30.9594 156.72 30.9994 156.32 31.2794Z" fill="#000005"/>
<path d="M58.7617 161.2L59.0817 139.8L79.1617 130.12L83.9617 171.44" fill="white"/>
<path d="M59.6817 161.48L59.8017 154.24L59.9617 142.72L60.0017 140.04L59.8817 140.28L66.6817 137L77.4817 131.8L79.9617 130.6L78.2017 129.8L78.6817 133.92L79.8417 143.76L81.2417 155.72L82.4417 166C82.6417 167.68 82.7217 169.36 83.0417 171.04C83.0417 171.04 83.0417 171.08 83.0417 171.12C83.1217 171.76 84.9617 172.36 84.8817 171.68L84.4017 167.6L83.2417 157.76L81.8417 145.8L80.6417 135.52C80.4417 133.84 80.3617 132.16 80.0417 130.48C80.0417 130.44 80.0417 130.44 80.0417 130.4C79.9617 129.76 78.8017 129.36 78.2817 129.6L71.4817 132.88L60.6817 138.08L58.2017 139.28C58.1217 139.32 58.0817 139.4 58.0817 139.52L57.9617 146.76L57.8017 158.28L57.7617 160.96C57.8417 161.56 59.6817 162.24 59.6817 161.48Z" fill="#000005"/>
<path d="M34.4023 171.08L36.3623 130.88L63.0423 128.88L66.2823 169.48" fill="white"/>
<path d="M35.4029 171.12L35.6029 167.12L36.0829 157.52L36.6429 145.96L37.1229 135.92L37.2829 132.6C37.3629 132.08 37.3629 131.56 37.3629 131.04C37.3629 131 37.3629 131 37.3629 130.96L36.6029 131.28L45.6429 130.6L60.0029 129.52L63.2829 129.28L62.0429 128.88L62.3629 132.92L63.1229 142.6L64.0429 154.36L64.8429 164.48L65.1229 167.84C65.1229 168.36 65.1629 168.92 65.2429 169.44C65.2429 169.48 65.2429 169.48 65.2429 169.52C65.2829 170.08 67.2829 170.08 67.2429 169.6L66.9229 165.56L66.1629 155.88L65.2429 144.12L64.4429 134L64.1629 130.68C64.1629 130.16 64.1229 129.6 64.0429 129.08C64.0429 129.04 64.0429 129.04 64.0429 129C64.0029 128.6 63.0429 128.6 62.8029 128.6L53.7629 129.28L39.4029 130.36L36.1229 130.6C35.9629 130.6 35.4029 130.64 35.3629 130.92L35.1629 134.92L34.6829 144.52L34.1229 156.08L33.6429 166.12L33.4829 169.44C33.4029 169.96 33.4029 170.48 33.4029 171C33.4029 171.04 33.4029 171.04 33.4029 171.08C33.3629 171.52 35.3629 171.64 35.4029 171.12Z" fill="#000005"/>
<path d="M49.8414 152.919C46.5614 152.199 43.3214 151.24 40.1614 150.04C39.8814 149.92 39.6014 150.039 39.4814 150.319C39.4414 150.399 39.4414 150.52 39.4414 150.64C39.5214 151.12 39.8814 151.559 40.3614 151.719C43.5214 152.959 46.7614 153.919 50.0414 154.599C51.2414 154.839 50.6414 153.119 49.8414 152.919Z" fill="#000005"/>
<path d="M94.7632 47.4801C94.7632 47.4801 94.8832 45.0401 96.6432 44.6401C98.4032 44.2401 106.323 48.3201 105.523 49.1201C104.723 49.9201 101.723 50.9201 100.603 50.6801C99.4832 50.4401 98.0432 48.7201 98.0432 48.7201L98.6032 50.4401L88.6432 51.1201C88.6432 51.1201 87.9632 48.0801 86.5232 46.3601C85.2832 44.8401 85.8032 42.1601 88.6432 44.5201C89.4032 45.1601 90.0432 45.9201 90.5232 46.8001L91.2832 48.0801C91.3632 48.1201 92.5632 44.3601 94.7632 47.4801Z" fill="white"/>
<path d="M95.6428 47.9999C95.7228 46.8799 96.2828 45.3599 97.5628 45.1999C98.0428 45.1999 98.5228 45.2799 98.9628 45.4399C99.6428 45.6399 100.323 45.9199 100.963 46.1999C101.683 46.5199 102.363 46.8399 103.083 47.2799C102.963 47.1999 103.323 47.3999 103.363 47.4399C103.523 47.5199 103.683 47.6399 103.843 47.7199C104.083 47.8799 103.683 47.5999 103.923 47.7599L104.123 47.8799L104.243 47.9599C104.443 48.1199 104.243 47.9599 104.323 48.0399L104.483 48.1599C104.643 48.2799 104.363 48.0399 104.523 48.1599C104.563 48.1999 104.723 48.3999 104.643 48.2399C104.723 48.3199 104.763 48.3999 104.763 48.4799C104.683 48.6799 104.363 48.8399 104.163 48.9199C103.763 49.1599 103.323 49.3599 102.843 49.5199C102.323 49.7199 101.803 49.8399 101.283 49.9599C100.883 50.0799 100.443 50.1199 100.043 50.0799C100.043 50.0799 100.163 50.1999 99.9628 50.0399C99.7628 49.8799 99.6428 49.7599 99.4828 49.5999C99.2828 49.3999 99.0828 49.1999 98.9228 48.9999C98.6428 48.6799 98.2828 48.4399 97.8828 48.2799C97.8028 48.2399 97.1628 47.9599 97.2428 48.1999L97.6428 49.3999C97.6828 49.5599 97.7628 49.7599 97.8028 49.9199C97.7628 49.7999 97.9628 49.8799 97.8028 49.8399C97.5628 49.8399 97.3628 49.8399 97.1228 49.8799L95.9628 49.9599L89.5628 50.3999L87.8828 50.5199L89.5228 51.5199C89.3628 50.8399 89.1628 50.1999 88.9228 49.5599C88.7228 48.9999 88.4428 48.4399 88.1628 47.9199C87.8828 47.3999 87.5228 46.9599 87.2028 46.4799C86.8428 45.9199 86.5228 44.9199 87.0428 44.3599C87.7228 43.5999 88.6428 44.9199 89.0028 45.3599C89.5628 46.1199 90.0828 46.9199 90.5228 47.7199C90.6428 47.9199 92.0828 48.8799 92.1628 48.5599C92.2828 48.1199 92.5228 47.7199 92.8028 47.3599C93.0028 47.0799 93.2828 46.8799 93.6028 46.7599C93.6828 46.7599 93.7628 46.7599 93.8028 46.7199C94.1628 46.6399 93.5228 47.2799 93.4428 46.4799C93.6028 46.6799 93.7228 46.8799 93.9228 47.0799C94.2428 47.4399 94.6028 47.6799 95.0428 47.8399C95.1628 47.8799 95.7628 48.0799 95.5228 47.7599C94.9228 46.9199 94.1228 46.2799 93.2028 45.8399C92.7228 45.5599 92.1228 45.5599 91.6028 45.7999C91.0428 46.1999 90.6428 46.7999 90.4428 47.4799L92.0828 48.3199C91.6028 47.4799 91.0828 46.6799 90.5228 45.8799C89.9228 45.1599 89.2428 44.5199 88.4828 43.9999C87.8428 43.5199 87.0828 43.1599 86.3228 42.9599C85.3628 42.7999 84.9228 43.5199 85.0428 44.3999C85.1228 44.9199 85.3228 45.3999 85.6428 45.7999C86.0828 46.3599 86.4428 46.9199 86.7628 47.5599C87.2028 48.5199 87.5628 49.5199 87.8028 50.5599C87.8428 50.7999 88.3628 51.0799 88.5628 51.1999C88.8428 51.3999 89.1628 51.5199 89.4828 51.5599L98.2028 50.9599L99.4428 50.8799C99.5228 50.8799 99.5228 50.8399 99.5228 50.7599L98.9628 49.0399L97.3228 48.2399C97.9228 48.9599 98.6428 49.5999 99.4028 50.1599C100.403 50.8399 101.403 51.2799 102.603 51.0799C103.723 50.9199 104.763 50.5199 105.763 49.9999C106.243 49.7199 106.683 49.5199 106.283 48.9599C105.803 48.3999 105.243 47.9199 104.603 47.5599C103.763 46.9999 102.883 46.4799 101.963 46.0399C100.363 45.1999 98.5628 44.3599 96.7628 44.0399C95.0428 43.7599 94.0028 45.2799 93.9228 46.8799C93.8828 47.1599 94.4428 47.4799 94.6828 47.5999C94.7228 47.7199 95.6028 48.1999 95.6428 47.9999Z" fill="#000005"/>
<path d="M109.362 49.2793C109.362 49.2793 78.2421 51.3593 77.8421 51.6793C77.4421 51.9993 77.4421 53.6393 77.8821 53.9593C78.3221 54.2793 109.162 52.0793 109.482 51.9593C109.802 51.8393 112.842 50.2793 112.842 50.2793L109.362 49.2793Z" fill="#68BA7F"/>
<path d="M109.083 48.3599C105.003 48.6399 100.923 48.9199 96.8433 49.1999C91.0433 49.5999 85.2433 49.9999 79.4833 50.5199C78.9233 50.5599 78.3233 50.5999 77.7233 50.7199C77.4033 50.7599 77.0833 50.9999 77.0033 51.3199C76.6433 52.3599 76.7633 53.4799 77.3633 54.3999C77.8033 54.9999 78.3633 54.9599 79.0033 54.9599C79.8433 54.9599 80.7233 54.9199 81.5633 54.8799C87.7233 54.5599 93.8433 54.1599 99.9633 53.7199C102.523 53.5599 105.083 53.3599 107.603 53.1599C108.203 53.1199 108.843 53.0799 109.443 52.9999C109.603 52.9999 109.763 52.9599 109.923 52.8799C110.563 52.6399 111.203 52.2399 111.843 51.9199L113.243 51.1999C113.963 50.8399 113.243 49.5599 112.683 49.3999L109.203 48.3599C108.763 48.2399 108.563 48.6799 108.603 49.0799C108.643 49.5599 108.963 49.9999 109.403 50.1999L112.883 51.2399L112.323 49.4399L110.843 50.1999L109.843 50.7199C109.563 50.8399 109.283 50.9599 109.043 51.1199C108.883 51.2399 109.243 51.1199 109.083 51.1199C109.043 51.1199 108.963 51.1199 108.883 51.1199L108.163 51.1999C106.043 51.3599 103.963 51.5199 101.843 51.6799C95.6833 52.1199 89.4833 52.5599 83.3233 52.8799C81.5233 52.9599 79.7233 53.1199 77.9233 53.1199H77.6833C77.5233 53.1199 77.8833 53.1599 77.7233 53.1199C77.9233 53.1999 78.0833 53.3599 78.2033 53.5199C78.3233 53.6399 78.2433 53.4799 78.2433 53.5199C78.2433 53.3199 78.2033 53.1599 78.2033 52.9599C78.2033 52.8799 78.2433 52.5999 78.2833 52.5999C78.2833 52.4799 78.2433 52.5999 78.2433 52.5999C78.0833 52.6399 78.0833 52.6399 78.2433 52.5999L78.5233 52.5599C78.8033 52.5199 79.0833 52.4799 79.3633 52.4799C84.7633 51.9199 90.1633 51.5999 95.5633 51.2399C100.163 50.9199 104.723 50.5999 109.323 50.2799H109.563C110.563 50.1599 109.883 48.2799 109.083 48.3599Z" fill="#68BA7F"/>
<path d="M88.7623 55.2395C88.9223 55.2395 88.5223 54.3195 88.4823 54.2795C88.3623 54.0795 88.1223 53.5195 87.8423 53.5195C87.6823 53.5195 88.0823 54.4395 88.1223 54.4795C88.2023 54.6795 88.4423 55.2395 88.7623 55.2395Z" fill="#000005"/>
<path d="M98.6816 53.6392C98.6816 53.6392 99.4016 55.6792 100.522 55.4392C101.642 55.1992 102.802 52.6392 104.682 50.9592C106.562 49.2792 107.962 51.4792 107.282 53.9592C106.602 56.4392 106.562 58.3592 104.802 60.9192C103.042 63.4792 98.4416 66.9592 98.4416 66.9592C98.4416 66.9592 86.9216 63.9592 86.3216 62.7992C85.7216 61.6392 88.2816 54.4392 88.2816 54.4392" fill="white"/>
<path d="M98.28 53.2795C98.6 54.1595 99.04 54.9595 99.64 55.6395C100.24 56.3595 100.96 56.5595 101.68 55.8795C102.56 55.0795 103.2 53.9995 103.96 53.0795C104.56 52.3595 105.68 50.8395 106.8 51.3195C106.88 51.3595 106.96 51.4395 107.04 51.4795C107.04 51.5195 107.12 51.5195 107.04 51.4795C107.04 51.4395 106.84 50.9995 106.84 51.1195C106.84 51.2395 106.88 51.3595 106.92 51.4795C106.96 51.6395 106.96 51.8395 106.96 51.9995C106.92 52.7195 106.76 53.3995 106.56 54.0795C106.32 55.3595 105.96 56.6395 105.52 57.8795C104.56 60.2395 102.76 61.9995 100.92 63.6795C100.2 64.3195 99.44 64.9595 98.68 65.5595C98.48 65.7195 98.28 65.8395 98.12 65.9995C97.96 66.1595 98.08 66.0795 98.04 66.0795C97.68 66.0395 97.36 65.9195 97.04 65.7995C96.4 65.6395 95.72 65.4395 95.08 65.2395C93.36 64.7595 91.68 64.2395 90 63.6795C88.76 63.2795 87.4 62.8795 86.28 62.1595C86.4 62.4395 86.92 62.9995 86.88 63.3195C86.88 63.2795 86.88 63.1995 86.84 63.1595C86.84 62.8795 86.84 62.5995 86.88 62.3195C87 61.4795 87.2 60.6795 87.44 59.8795C87.84 58.3995 88.32 56.9595 88.8 55.5195L88.88 55.2795C89 54.9595 88.56 54.3595 88.44 54.1195C88.4 54.0395 87.96 53.3995 87.88 53.6395C87.48 54.7995 87.08 55.9995 86.72 57.1995C86.44 58.1195 86.2 59.0395 86 59.9595C85.84 60.5995 85.76 61.2795 85.84 61.9595C86 62.7995 86.48 63.5195 87.16 64.0395C87.68 64.3595 88.2 64.5995 88.76 64.7995C90.44 65.4795 92.2 65.9995 93.96 66.5195C95.4 66.9595 96.88 67.3595 98.36 67.7595C98.52 67.7995 98.88 67.9595 99.04 67.9195C99.2 67.8795 99.36 67.6795 99.44 67.5995C99.76 67.3595 100.04 67.1195 100.36 66.8795C102.12 65.4395 103.96 63.8795 105.32 61.9995C106.16 60.7995 106.8 59.4395 107.16 57.9995C107.32 57.3195 107.48 56.6395 107.64 55.9995C107.84 55.2795 108 54.5595 108.08 53.8395C108.12 52.3995 107.6 51.0395 106.56 50.0395C105.56 49.1195 104.52 49.9595 103.76 50.7595C102.84 51.7195 102.12 52.8795 101.24 53.8795C101 54.2395 100.64 54.5195 100.24 54.6795C100.04 54.7595 99.8 54.7195 99.64 54.6395C99.56 54.5995 99.48 54.5595 99.44 54.4795C99.4 54.4395 99.28 54.3195 99.36 54.4395C99.24 54.2795 99.32 54.4395 99.36 54.4395C99.36 54.4395 99.28 54.2795 99.32 54.3995C99.2 54.0795 99.36 54.5195 99.32 54.3995L99.24 54.1995C99.12 53.8795 98.84 53.1995 98.52 53.0395C98.2 52.8795 98.36 53.3195 98.44 53.4795L98.28 53.2795Z" fill="#000005"/>
<path d="M95.6029 47.9198C95.6429 47.5598 95.7229 47.1598 95.8429 46.7998L95.8029 46.9998C95.8029 46.9598 95.8029 46.9198 95.8429 46.9198L95.7229 47.1198C95.8029 47.0398 95.8429 46.9198 95.8829 46.7998C95.9229 46.7198 95.9229 46.5998 95.9229 46.5198C95.8829 46.3198 95.7229 46.1598 95.5629 46.1198C95.3229 46.0398 95.0829 46.0798 94.8829 46.1598L94.6429 46.2798C94.4829 46.3598 94.3629 46.4798 94.2429 46.6398C94.2029 46.7198 94.1229 46.7998 94.0829 46.8798C94.0429 46.9598 94.0429 47.0798 94.0029 47.1998C93.9629 47.3198 93.9629 47.3998 93.9229 47.4798C93.8829 47.6798 93.8429 47.8798 93.8029 48.1198C93.8029 48.1598 93.7629 48.1998 93.7629 48.2798C93.7229 48.5598 93.9229 48.8398 94.2029 48.9198H94.2429C94.3629 48.9598 94.4829 48.9598 94.5629 48.9198C94.8429 48.8798 95.0829 48.7598 95.2429 48.5998C95.4029 48.3598 95.5229 48.1598 95.6029 47.9198Z" fill="#000005"/>
<path d="M49.9219 93.6401C51.0019 93.4001 65.2019 89.2801 86.4019 61.1201C86.4019 61.1201 100.602 64.4001 100.922 68.1601C101.242 71.9201 84.1619 110.84 59.1619 104.28L49.9219 93.6401Z" fill="white"/>
<path d="M50.4 94.5592C51.96 94.2392 53.48 93.4392 54.84 92.6792C58.64 90.5992 62.2 88.1192 65.48 85.3192C71.28 80.4392 76.52 74.8792 81.32 69.0392C82.92 67.1192 84.48 65.1992 85.96 63.1992L86.48 62.4792C86.52 62.4392 86.8 61.9992 86.76 61.9992C86.72 61.9992 86.88 62.0392 86.92 62.0392C87.16 62.0792 87.44 62.1592 87.68 62.2392C89.92 62.7992 92.12 63.4792 94.24 64.2392C95.52 64.6792 96.76 65.2392 97.96 65.8392C98.88 66.2792 99.76 66.8792 100.48 67.5992C100.52 67.6392 100.56 67.7192 100.6 67.7592C100.48 67.6792 100.52 67.6392 100.48 67.5592C100.44 67.4792 100.44 67.3992 100.4 67.3992C100.36 67.3992 100.44 67.5592 100.44 67.4792C100.44 67.5592 100.44 67.5992 100.44 67.6792C100.44 67.7592 100.44 67.8392 100.44 67.7192C100.44 67.5992 100.44 67.7592 100.44 67.7992C100.36 68.2392 100.28 68.7192 100.12 69.1592C99.12 72.6392 97.44 75.9992 95.68 79.1992C93.16 83.8392 90.12 88.1992 86.64 92.1992C83 96.2392 78.76 99.9192 73.72 102.119C71.28 103.239 68.64 103.919 66 104.119C64.6 104.199 63.24 104.199 61.84 103.999C61.12 103.919 60.4 103.799 59.72 103.639L59.2 103.519C59.12 103.519 58.72 103.359 59.04 103.599C59 103.559 58.96 103.519 58.96 103.479C56.16 100.319 53.4 97.1192 50.64 93.9192L49.8 92.9592C49.56 92.6792 49.4 92.7992 49.48 93.1192C49.6 93.5992 49.8 94.0392 50.12 94.3592L55.08 100.079L58.28 103.759L59.2 104.799C59.24 104.879 59.32 104.919 59.36 104.999C59.64 105.279 60.16 105.319 60.56 105.399C64.28 106.199 68.16 106.039 71.84 104.919C75.4 103.759 78.72 101.919 81.6 99.5592C84.6 97.1192 87.32 94.3992 89.72 91.3592C92 88.4792 94.04 85.4392 95.88 82.2792C97.4 79.7192 98.72 77.0392 99.88 74.2792C100.52 72.7192 101.28 71.0392 101.44 69.3592C101.6 68.1192 100.84 66.8792 100 65.9992C98.88 64.8392 97.32 64.0792 95.88 63.3992C92.88 62.1192 89.76 61.0792 86.6 60.3592L86 60.1992H85.92C82.32 64.9992 78.48 69.6392 74.36 74.0392C71.32 77.3192 68.08 80.4392 64.64 83.3592C62.24 85.3992 59.76 87.2792 57.12 88.9592C55.48 89.9992 53.76 90.9592 51.96 91.7592C51.44 91.9992 50.92 92.1992 50.4 92.3992C50.12 92.4792 49.8 92.5592 49.52 92.6792C49.48 92.6792 49.44 92.6792 49.4 92.7192C49.24 92.8392 49.88 94.6392 50.4 94.5592Z" fill="#000005"/>
<path d="M39.1232 95.4393C39.1232 95.4393 32.5232 90.3193 26.7232 99.2793C20.9232 108.239 19.0832 137.039 28.3232 144.479C37.5632 151.919 61.0432 137.319 61.0432 137.319L60.2432 90.2793L39.1232 95.4393Z" fill="white"/>
<path d="M39.56 94.8794C38.2 93.8794 36.56 93.3194 34.88 93.1994C31.04 92.9194 27.96 95.5994 25.96 98.6394C24.56 100.759 23.72 103.239 23.04 105.679C22.2 108.799 21.64 111.999 21.32 115.239C20.64 121.959 20.72 128.999 22.44 135.559C23.16 138.279 24.24 140.959 25.96 143.199C27.56 145.279 29.88 146.679 32.48 147.159C35.36 147.719 38.36 147.399 41.2 146.799C44.24 146.119 47.24 145.159 50.12 143.919C54.04 142.319 57.84 140.399 61.48 138.199C61.76 138.039 61.92 137.759 61.92 137.479C61.92 137.159 61.92 136.879 61.92 136.559L61.84 132.239L61.6 117.359L61.32 100.879L61.16 90.9994V90.5194C61.08 89.8794 60.48 89.3994 59.8 89.4794H59.76L52.6 91.2394L41.24 94.0394L38.6 94.6794C38.24 94.7994 38.08 95.1594 38.2 95.5194C38.24 95.5994 38.24 95.6394 38.32 95.7194C38.56 96.1594 39.08 96.3994 39.6 96.3194L46.72 94.5594L58.08 91.7594L60.72 91.1194L59.32 90.0794L59.4 94.7594L59.6 105.999L59.84 119.559L60.04 131.279L60.12 135.159C60.08 135.759 60.12 136.399 60.16 136.999C60.16 137.039 60.16 137.039 60.16 137.079L60.4 136.559C56.56 138.919 52.52 140.919 48.36 142.559C45.04 143.959 41.6 144.919 38.04 145.479C36.48 145.679 34.92 145.719 33.4 145.599C32.64 145.519 31.92 145.359 31.2 145.119L31.12 145.079L30.88 144.999C30.72 144.919 30.56 144.879 30.4 144.799L29.92 144.559L29.68 144.439C29.6 144.399 29.6 144.399 29.68 144.439L29.52 144.359C29.24 144.199 29 143.999 28.76 143.799C28.68 143.759 28.36 143.439 28.52 143.639C28.4 143.519 28.24 143.399 28.12 143.239C27.88 142.999 27.68 142.759 27.48 142.519C27.28 142.279 27.08 142.039 26.92 141.759C26.08 140.519 25.4 139.159 24.92 137.719C23.68 134.239 23.16 130.559 22.92 126.919C22.68 122.959 22.76 118.959 23.24 115.039C23.6 111.439 24.36 107.879 25.48 104.439C26.6 101.159 28.28 97.7594 31.4 95.8794C32.16 95.3994 32.96 95.1194 33.84 94.9194C34.16 94.8794 34.48 94.8394 34.84 94.8394C35 94.8394 35.2 94.8394 35.36 94.8394L35.6 94.8794C35.72 94.8794 35.72 94.8794 35.6 94.8794L35.76 94.9194C36.08 94.9594 36.36 95.0394 36.68 95.1194C36.8 95.1594 36.96 95.1994 37.08 95.2394C36.84 95.1594 37.28 95.3194 37.36 95.3594C37.56 95.4394 37.8 95.5594 38 95.6394L38.28 95.7994L38.4 95.8794C38.56 95.9594 38.16 95.7194 38.36 95.8394C38.48 95.9194 38.64 95.9994 38.76 96.0794C39.08 96.3194 39.72 96.4794 40 96.0794C40.28 95.6794 39.88 95.1194 39.56 94.8794Z" fill="#000005"/>
<path d="M89.2428 131.839L53.8828 133.319L59.2428 87.7993L94.6028 86.2793L89.2428 131.839Z" fill="#68BA7F"/>
<path d="M53.6406 133.52L53.6806 133.28L59.0406 87.6001L94.8406 86.0801L89.4406 132H89.2806L53.6406 133.52ZM59.4006 88.0001L54.0806 133.12L89.0406 131.64L94.4006 86.5201L59.4006 88.0001Z" fill="#68BA7F"/>
<path d="M70.2432 89.8397C70.2432 89.8397 70.0832 85.9197 70.5232 85.9197C70.9632 85.9197 74.5232 85.5197 74.5232 85.5197C74.5232 85.5197 74.5232 81.5997 77.7232 81.7597C80.9232 81.9197 79.9232 85.5197 79.9232 85.5197C79.9232 85.5197 83.0432 85.2397 83.2832 85.4397C83.5232 85.6397 83.0432 90.0797 83.0432 90.0797C83.0432 90.0797 70.1632 90.8797 70.2432 89.8397Z" fill="#000005"/>
<path d="M52.6829 125.68C52.6829 125.68 57.6829 115.48 60.4029 116.08C63.1229 116.68 59.0829 121.76 62.8829 122.6C66.6829 123.44 69.6029 120 71.9629 118.52C74.3229 117.04 76.6429 119.32 73.0829 123.04C73.0829 123.04 76.6829 119.76 77.4829 122.04C78.2829 124.32 74.8829 127.92 74.8829 127.92C74.8829 127.92 78.7229 125.72 78.8029 127.8C78.8829 129.88 70.0429 138.68 60.3229 138.6C50.6029 138.52 52.6829 125.68 52.6829 125.68Z" fill="white"/>
<path d="M53.6035 125.919C54.4035 124.319 55.2435 122.799 56.2035 121.279C56.8835 120.119 57.6835 119.039 58.5635 118.039C58.8835 117.639 59.2835 117.279 59.6835 116.959C59.7635 116.879 59.8835 116.839 59.9635 116.759C60.0435 116.679 59.9635 116.759 60.1235 116.679C60.2035 116.639 60.2835 116.599 60.3635 116.599C60.1235 116.679 60.3235 116.599 60.3635 116.599C60.5235 116.559 60.1635 116.599 60.3235 116.599C60.4035 116.599 59.9635 116.519 60.1635 116.599C60.0835 116.559 60.0835 116.559 60.1635 116.599C60.2435 116.639 60.0435 116.479 60.2035 116.639C60.2435 116.679 60.2435 116.719 60.2835 116.719C60.2435 116.679 60.3635 116.919 60.3635 116.999C60.4435 117.479 60.4435 117.999 60.3235 118.479C60.1635 119.599 59.8835 120.919 60.6035 121.919C61.6035 123.359 64.0435 123.439 65.5635 123.119C67.4035 122.759 69.0035 121.679 70.4835 120.559C71.2035 119.999 71.9235 119.399 72.6835 118.919C72.9235 118.759 73.1635 118.639 73.4435 118.599C73.2435 118.639 73.4835 118.599 73.5235 118.599C73.2835 118.599 73.5635 118.599 73.5635 118.599C73.5235 118.679 73.3635 118.519 73.5235 118.599C73.4035 118.559 73.4035 118.559 73.4835 118.599H73.4435C73.6035 118.719 73.7235 118.879 73.8035 119.079C73.8835 119.359 73.8835 119.679 73.8035 119.959C73.6035 121.039 72.8035 121.999 72.0435 122.799C71.7635 123.079 72.3635 123.439 72.5635 123.479C72.9235 123.599 73.5235 123.679 73.8435 123.399C74.2035 123.079 74.5635 122.799 74.9635 122.519C75.2835 122.279 75.6035 122.119 75.9635 121.959L76.2035 121.879C76.2435 121.839 76.3235 121.839 76.3635 121.839C76.4035 121.839 76.6035 121.759 76.5235 121.799C76.4435 121.839 76.5235 121.799 76.5635 121.799C76.6035 121.799 76.2835 121.759 76.3635 121.799C76.4435 121.839 76.2435 121.759 76.2435 121.759C76.2835 121.799 76.3235 121.839 76.3635 121.879C76.4435 122.039 76.5235 122.199 76.5635 122.359C76.6435 122.799 76.6035 123.239 76.4835 123.679C76.2035 124.599 75.7235 125.479 75.1235 126.279C74.7635 126.799 74.3635 127.279 73.9235 127.719C73.6435 127.999 74.2435 128.359 74.4435 128.399C74.8435 128.559 75.3235 128.519 75.7235 128.319C75.7635 128.279 75.8835 128.239 75.6835 128.359L75.9235 128.239C76.2035 128.079 76.4835 127.959 76.7635 127.839C77.0035 127.719 77.2835 127.639 77.5635 127.559L77.8035 127.519C78.0835 127.479 77.6435 127.559 77.8835 127.519C78.0435 127.519 78.0835 127.599 77.9235 127.519H77.8835C77.8035 127.519 77.7635 127.479 77.6835 127.439C77.7235 127.439 77.7235 127.439 77.7235 127.519C77.7635 127.639 77.7635 127.719 77.7635 127.839C77.7635 127.919 77.7635 127.999 77.7235 128.039C77.7235 128.079 77.7235 128.079 77.6835 128.119C77.6435 128.279 77.6835 128.119 77.6435 128.199C77.4435 128.679 77.1635 129.119 76.8435 129.519C75.8835 130.759 74.7635 131.879 73.5235 132.839C71.9235 134.119 70.1635 135.239 68.3235 136.119C66.3235 137.119 64.1635 137.759 61.9635 138.039C61.0035 138.159 60.0035 138.159 59.0035 138.039C58.3235 137.959 57.6835 137.719 57.0835 137.439C56.5635 137.159 56.0835 136.759 55.6835 136.319C55.2435 135.839 54.8835 135.319 54.6035 134.759C54.0435 133.639 53.6835 132.399 53.5235 131.159C53.2835 129.399 53.2835 127.639 53.5635 125.919C53.6835 125.199 51.6835 124.959 51.5635 125.719C51.3235 127.399 51.2835 129.079 51.4835 130.719C51.8435 133.639 52.9635 136.599 55.6435 138.119C57.5235 139.159 59.6835 139.359 61.7635 139.239C64.3235 139.039 66.8435 138.439 69.1635 137.359C71.2835 136.399 73.2435 135.199 75.0435 133.759C76.4435 132.679 77.7235 131.439 78.8035 130.039C79.4035 129.239 80.2835 127.919 79.3235 127.079C78.0435 125.919 75.8435 126.799 74.4835 127.479C74.3235 127.559 74.1635 127.639 74.0035 127.759L75.7635 128.359C76.9635 127.119 78.1635 125.479 78.4835 123.719C78.6835 122.679 78.3635 121.519 77.2835 121.079C76.1635 120.599 74.9235 120.999 73.9235 121.559C73.2835 121.919 72.6835 122.359 72.1635 122.839L73.9235 123.439C74.9635 122.359 76.4835 120.399 75.5635 118.799C74.7635 117.439 72.7635 117.439 71.4835 118.039C69.8835 118.839 68.6035 120.239 67.0835 121.199C66.3235 121.719 65.4835 122.079 64.6035 122.239C64.2435 122.319 63.8435 122.319 63.4435 122.279C63.2435 122.279 63.0835 122.239 62.8835 122.159C62.7635 122.119 62.6835 122.079 62.6035 121.999C61.7235 121.359 62.1235 119.759 62.2435 118.799C62.4035 117.599 62.4035 116.399 61.0835 115.839C58.4435 114.719 56.3635 117.719 55.0835 119.599C53.8035 121.479 52.6435 123.479 51.6435 125.519C51.3635 126.159 53.3235 126.519 53.6035 125.919Z" fill="#000005"/>
<path d="M68.7203 127.52C70.5203 126.4 72.2403 125.12 73.8403 123.72C73.9603 123.6 73.8803 123.36 73.8403 123.28C73.7203 123.08 73.6003 122.88 73.4003 122.72C73.1603 122.52 72.6403 122.16 72.3203 122.44C70.8003 123.8 69.1603 125.04 67.4403 126.08C67.0803 126.28 67.4003 126.76 67.6003 127C67.7603 127.2 68.0003 127.36 68.2403 127.44C68.3203 127.48 68.6003 127.6 68.7203 127.52Z" fill="#000005"/>
<path d="M71.4435 131.2C71.9235 131 72.4035 130.76 72.8835 130.52C73.8035 130.04 74.6435 129.48 75.4035 128.8C75.4835 128.76 75.3635 128.52 75.3635 128.48C75.2835 128.24 75.1635 128.04 75.0435 127.84C75.0035 127.76 74.4835 126.96 74.3635 127.08C73.6035 127.76 72.7635 128.36 71.8435 128.8C71.3635 129.04 70.9235 129.28 70.4035 129.52C70.2435 129.6 70.7235 130.36 70.8035 130.48C70.9235 130.68 71.0435 130.88 71.2035 131.04C71.2035 131.08 71.3635 131.24 71.4435 131.2Z" fill="#000005"/>
<path d="M35.9608 127.52C39.0408 128.08 42.2408 127.84 45.2008 126.8C48.2008 125.8 50.6008 123.8 53.4008 122.44C53.7608 122.24 53.0408 122.28 53.0008 122.32C52.5608 122.4 52.1208 122.52 51.6808 122.72C49.3608 123.88 47.3608 125.56 44.9208 126.52C42.6408 127.36 40.1608 127.56 37.7608 127C37.3608 126.96 36.9208 127.04 36.5208 127.2C36.4808 127.2 35.7608 127.52 35.9608 127.52Z" fill="#000005"/>
<path d="M46.4009 97.6795C47.2809 99.5595 48.4009 101.319 49.4409 103.119C50.7609 105.279 51.9209 107.479 53.0009 109.759C53.4409 110.679 53.7609 111.639 53.9609 112.639C54.0009 112.799 54.8409 112.359 54.9209 112.319C55.0809 112.199 55.7209 111.919 55.6809 111.639C55.4009 109.639 54.2809 107.719 53.3609 105.999C52.1609 103.759 50.8409 101.599 49.6009 99.3995C49.0809 98.5195 48.5609 97.5995 48.1209 96.6395C48.0009 96.4395 46.2409 97.3595 46.4009 97.6795Z" fill="#000005"/>
<path d="M30.3607 87.3594C22.5607 71.5994 31.4407 63.4394 38.6407 60.2794C45.8407 57.1194 51.6807 58.2394 54.1207 60.8394C55.9607 62.7594 55.2007 78.1994 55.2007 78.1994L46.4807 94.0394C46.5207 94.0394 36.3207 99.3594 30.3607 87.3594Z" fill="#000005"/>
<path d="M64.72 82.6397C67.36 75.7997 54.68 63.7197 54.68 63.7197C51.88 64.3197 46.52 63.6797 46.52 63.6797C51.2 71.0797 42.76 77.1997 42.76 77.1997C39.04 73.6797 34.68 77.3597 36.72 81.4397C38.76 85.5197 43 84.2797 43 84.2797C43 84.2797 45.24 95.5197 46.36 97.0397C46.36 97.0397 55.16 98.9597 56.96 91.0797C56.96 91.1197 62.92 87.2797 64.72 82.6397Z" fill="white"/>
<path d="M65.6803 82.6795C66.4403 80.6395 65.9203 78.3995 65.1603 76.4395C64.2003 74.1595 62.9603 71.9995 61.4403 70.0795C60.1203 68.3195 58.7203 66.6395 57.2003 65.0395C56.7603 64.5595 56.3203 64.1195 55.8803 63.6795C55.7603 63.5595 55.6803 63.4795 55.5603 63.3595C55.2003 63.1195 54.7203 63.0395 54.2803 63.1595C51.8003 63.5595 49.1603 63.3595 46.6803 63.0395C46.2803 62.9995 45.1603 63.3195 45.5603 63.9195C47.0403 66.1595 47.2803 68.9595 46.2803 71.4395C45.8803 72.4395 45.3203 73.3595 44.6403 74.1995C44.1203 74.8395 43.5603 75.4795 42.9603 76.0395C42.6403 76.3195 42.3203 76.5995 42.0003 76.8395L43.6003 76.7995C42.2003 75.5195 40.2803 74.8395 38.4003 75.3595C36.8803 75.7595 35.6803 76.9595 35.3203 78.5195C34.9603 80.2795 35.7203 82.0795 36.9203 83.3195C37.9603 84.3195 39.3203 84.9595 40.7603 85.0795C41.6403 85.1595 42.5203 85.1195 43.3603 84.8795L42.0403 84.4395C42.8003 88.1595 43.5203 91.9195 44.6803 95.5195C44.8803 96.1595 45.1203 97.3995 45.8403 97.6795C46.2403 97.7995 46.6403 97.8395 47.0403 97.8795C48.8803 98.1195 50.7203 97.9195 52.4403 97.3595C55.2403 96.4795 57.3603 94.1595 57.9203 91.2795L57.6803 91.5995C58.8403 90.8395 59.9603 89.9595 60.9603 88.9995C62.9203 87.1595 64.7203 85.1595 65.6803 82.6795C66.0003 81.8795 64.0403 81.8395 63.7203 82.5595C62.8403 84.7995 61.1203 86.6795 59.3603 88.2795C58.6403 88.9195 57.9203 89.5195 57.1603 90.0795C56.8403 90.3195 56.4803 90.5195 56.2003 90.7595C56.0003 90.9995 55.8803 91.2795 55.8403 91.5595C55.7603 91.8395 55.6803 92.1195 55.5603 92.3995C55.4003 92.8795 55.1603 93.3195 54.8803 93.7595C54.4003 94.4795 53.7603 95.1195 53.0003 95.5995L52.8803 95.6795L52.6003 95.8395C52.4003 95.9195 52.2403 95.9995 52.0403 96.0795L51.9603 96.1195H51.9203L51.6403 96.1995C51.4403 96.2395 51.2403 96.3195 51.0803 96.3595L50.8003 96.4395C50.6003 96.4795 50.9203 96.3995 50.7203 96.4395C50.5203 96.4795 50.3203 96.5195 50.1203 96.5195C49.7603 96.5595 49.4003 96.5995 49.0403 96.5995H48.7203H48.2003C47.9203 96.5995 47.6403 96.5595 47.3603 96.5195C47.2403 96.5195 47.1603 96.4795 47.0403 96.4795C47.4003 96.5195 47.1203 96.4795 47.0003 96.4795L46.8003 96.4395L47.2803 96.7595C46.9603 96.2395 46.7203 95.6395 46.5603 94.9995C46.2403 93.9595 45.9603 92.9195 45.7203 91.8795C45.2003 89.7995 44.7203 87.6795 44.2803 85.5595C44.2003 85.0795 44.0803 84.5995 44.0003 84.1595C43.8803 83.5995 43.0803 83.5995 42.6803 83.7195L42.6003 83.7595C42.3203 83.8395 42.8403 83.7195 42.5203 83.7595C42.4003 83.7995 42.2403 83.7995 42.1203 83.7995H41.8803C41.6003 83.8395 42.0003 83.7995 41.7603 83.7995C40.8803 83.8395 40.0003 83.5595 39.2803 83.0795C37.4003 81.7595 36.0803 78.1595 38.5203 76.6795C38.9203 76.4395 39.3603 76.3195 39.8403 76.3995C40.6403 76.5595 41.4003 76.9595 41.9603 77.5595C42.3603 77.9195 43.1203 77.7995 43.5203 77.5195C44.5603 76.7595 45.4803 75.8395 46.2803 74.7995C47.8003 72.9195 48.9203 70.5995 48.9603 68.1195C48.9203 66.3995 48.4403 64.7595 47.4803 63.3195L46.3603 64.1995C49.2003 64.5595 52.2403 64.7595 55.0803 64.1595L53.9203 63.9995C55.3203 65.3595 56.6803 66.8395 57.9203 68.3595C60.2003 71.0795 62.4403 74.1195 63.5603 77.5195C64.0803 79.1195 64.3603 80.8795 63.7603 82.4795C63.4403 83.3995 65.4003 83.4395 65.6803 82.6795Z" fill="#000005"/>
<path d="M52.2029 84.84C52.0429 84.96 52.4029 84.72 52.2429 84.8L52.4029 84.72C52.6029 84.64 52.6429 84.6 52.5629 84.64C52.4029 84.72 52.7629 84.56 52.6429 84.6C52.5229 84.64 52.8429 84.56 52.6829 84.6H52.6429H52.7229C52.6829 84.6 52.6429 84.6 52.5629 84.64H52.4029H52.3229C51.9629 84.64 51.5629 84.52 51.2429 84.36L51.2829 84.4C50.9229 84.2 50.6429 83.92 50.4029 83.56C50.3629 83.48 50.1229 83.56 50.0829 83.56C49.6429 83.68 49.2029 83.92 48.8029 84.2C48.7629 84.24 48.5629 84.36 48.6029 84.44C48.9629 85.04 49.6029 85.48 50.3229 85.6C50.6829 85.64 51.0829 85.6 51.4429 85.52C52.0829 85.36 52.6829 85.08 53.2029 84.72C53.2829 84.68 53.5629 84.52 53.5629 84.4C53.5629 84.28 53.4829 84.32 53.4029 84.32C53.2029 84.36 53.0029 84.4 52.8429 84.52C52.6429 84.6 52.4029 84.72 52.2029 84.84Z" fill="#000005"/>
<path d="M51.4025 73.8797C51.4025 73.8797 52.4425 73.6397 52.6025 74.6397C52.7625 75.6397 51.4825 75.8797 51.0825 75.0397C50.8425 74.6797 50.9225 74.1597 51.2825 73.9197C51.3225 73.9197 51.3625 73.8797 51.4025 73.8797Z" fill="#000005"/>
<path d="M57.5627 70.6395C57.5627 70.6395 58.6027 70.3995 58.7627 71.3995C58.9227 72.3995 57.6427 72.6395 57.2427 71.7995C57.0027 71.4395 57.0827 70.9195 57.4427 70.6795C57.4827 70.6795 57.5227 70.6795 57.5627 70.6395Z" fill="#000005"/>
<path d="M25.4419 84.7598C25.4419 85.9598 25.3619 87.1598 25.1619 88.3198C24.8819 89.9598 24.4019 92.1998 22.8419 93.1198C22.4819 93.3198 22.0819 93.4398 21.6419 93.4398C21.5219 93.4398 21.0819 93.3598 21.3619 93.4398C21.4819 93.4798 21.5619 93.5198 21.6819 93.5598C21.6819 93.5598 21.6019 93.5198 21.5619 93.5198C21.4019 93.4398 21.2419 93.3598 21.1219 93.2798C20.0019 92.6398 18.8819 91.6398 18.5619 90.3198C18.3619 89.4398 18.6019 88.5198 19.2019 87.8398C19.7219 87.2398 20.5219 86.8798 21.3219 86.8398C21.3619 86.8398 21.4419 86.7998 21.4019 86.8398C21.1219 86.7598 20.8419 86.6798 20.5619 86.5598C20.5619 86.5198 20.6819 86.6398 20.7219 86.6798C20.9219 86.8398 21.0819 86.9998 21.2419 87.1998C21.6019 87.7198 21.8419 88.2798 21.9619 88.8798C22.2819 90.5598 22.2419 92.2398 21.8419 93.8798C21.4819 95.4398 20.8819 96.9598 20.0419 98.3598C19.3619 99.5598 18.4419 100.6 17.3619 101.36C16.9619 101.64 16.4819 101.84 15.9619 101.92C15.8819 101.92 15.7619 101.92 15.6819 101.92C15.2419 101.96 16.9219 102.52 16.5619 102.2C16.3619 102.04 16.2019 101.92 16.0419 101.72C15.4419 101 15.1619 100.12 15.2019 99.1998C15.3219 97.7198 16.3619 96.4398 17.5619 95.6398C18.1619 95.2398 18.8419 94.9598 19.5619 94.7998C19.8819 94.7598 20.2019 94.7198 20.4819 94.7598C20.5619 94.7598 20.6019 94.8398 20.5619 94.7598C20.6419 94.8398 20.4819 94.7598 20.4419 94.7198C20.2419 94.6798 20.0419 94.5998 19.8419 94.5198C19.7619 94.4798 19.7219 94.4398 19.8019 94.5198C19.8819 94.5998 19.8819 94.5998 19.9619 94.6398C21.4819 95.7998 21.0019 98.3998 20.5619 99.9598C20.3219 100.76 20.0819 101.56 19.7619 102.32C19.7219 102.44 21.6019 103.12 21.6819 102.96C22.3619 101.44 22.7619 99.7998 22.8819 98.1198C22.9619 97.1998 22.7219 96.2798 22.2019 95.5598C21.5219 94.7198 20.2419 94.3598 19.2419 94.1598C18.4419 93.9998 17.6419 94.0798 16.8819 94.3598C15.3619 94.9198 13.9219 96.1598 13.4419 97.7598C13.2019 98.5598 13.2819 99.4398 13.6419 100.24C14.3219 101.68 15.7219 102.32 17.2419 102.52C18.4419 102.68 19.4819 101.92 20.3219 101.12C21.4819 99.9198 22.4419 98.4398 23.0419 96.8798C23.8019 95.1198 24.1619 93.2398 24.1619 91.3198C24.1219 89.9198 23.9219 88.2398 22.8019 87.2798C22.1219 86.7598 21.3619 86.4398 20.5619 86.2798C20.0419 86.1198 19.5219 86.0798 19.0019 86.1598C18.0819 86.3598 17.2819 86.9998 16.9219 87.8798C15.6419 90.8798 19.5619 93.0398 21.8419 93.7198C22.9219 94.0398 24.0819 94.2398 25.0419 93.5598C25.8019 92.9598 26.3619 92.1198 26.6419 91.1598C27.2019 89.3998 27.5219 87.5198 27.4819 85.6398C27.4819 85.5198 27.4819 85.3998 27.4819 85.2798C27.4819 85.1598 26.6819 84.9198 26.5619 84.8798C26.1219 84.8798 25.8019 84.7998 25.4419 84.7598Z" fill="#000005"/>
<g opacity="0.5">
<path d="M52.3986 80.1662C55.0033 78.8067 55.9713 75.5138 54.5607 72.8112C53.1501 70.1086 49.8951 69.0198 47.2904 70.3793C44.6857 71.7387 43.7177 75.0317 45.1283 77.7343C46.5389 80.4369 49.7939 81.5257 52.3986 80.1662Z" fill="#68BA7F"/>
<path d="M50.0023 80.9594C47.8823 80.9594 45.9223 79.7594 44.9223 77.8394C44.2023 76.5194 44.0423 74.9594 44.4823 73.5194C44.8823 72.0794 45.8823 70.9194 47.1623 70.2394C49.9223 68.8394 53.3223 69.9594 54.7223 72.7594C55.4423 74.0794 55.6023 75.6394 55.1623 77.0794C54.5223 79.3594 52.4023 80.9594 50.0023 80.9594ZM45.2823 77.6394C46.5623 80.2394 49.7223 81.2794 52.2823 79.9994C53.4823 79.3594 54.4023 78.2794 54.7623 76.9594C55.1623 75.5994 55.0023 74.1594 54.3623 72.9194C53.0823 70.3594 49.9223 69.2794 47.3623 70.5594C46.1623 71.1994 45.2423 72.2794 44.8823 73.5994C44.4823 74.9594 44.6423 76.3994 45.2823 77.6394Z" fill="#68BA7F"/>
</g>
<g opacity="0.5">
<path d="M62.8791 73.091C65.4838 71.7315 66.4517 68.4386 65.0412 65.736C63.6306 63.0334 60.3755 61.9446 57.7709 63.3041C55.1662 64.6635 54.1982 67.9565 55.6088 70.6591C57.0194 73.3617 60.2744 74.4505 62.8791 73.091Z" fill="#68BA7F"/>
<path d="M60.4828 73.8799C59.8828 73.8799 59.2828 73.7999 58.7228 73.5999C57.2828 73.1199 56.1228 72.1199 55.4028 70.7599C54.6828 69.4399 54.5228 67.8799 54.9628 66.4399C55.8028 63.5599 58.8028 61.9199 61.6428 62.7599C61.7228 62.7999 61.8028 62.7999 61.8828 62.8399C64.8428 63.8399 66.4828 66.9999 65.6428 69.9999C65.0028 72.2799 62.8828 73.8799 60.4828 73.8799ZM60.1628 62.9199C59.3628 62.9199 58.5628 63.1199 57.8428 63.4799C56.6428 64.1199 55.7228 65.1999 55.3628 66.5199C54.9628 67.8799 55.1228 69.3199 55.7628 70.5599C56.4028 71.7999 57.5228 72.7599 58.8428 73.1999C61.4428 74.0799 64.2828 72.6799 65.2028 70.0799C65.2428 69.9999 65.2428 69.9199 65.2828 69.8399C66.0828 67.0399 64.5628 64.1199 61.8028 63.1599C61.2828 62.9999 60.7228 62.9199 60.1628 62.9199Z" fill="#68BA7F"/>
</g>
<path d="M55.4023 72.96C57.3623 73.48 59.4023 73.72 61.4423 73.68C68.3223 73.6 69.5223 75.76 67.6823 77.44C65.8423 79.12 56.6023 79.76 56.6023 79.76" fill="white"/>
<path d="M55.7602 73.3598C57.8002 73.9198 59.8802 74.1998 62.0002 74.1198C63.4802 74.0798 64.9202 74.1598 66.3602 74.4798C66.4402 74.5198 66.5602 74.5198 66.6402 74.5598C66.7202 74.5998 66.9602 74.6398 66.8402 74.5998C66.8802 74.5998 67.1602 74.7198 67.0402 74.6798C66.9202 74.6398 67.1602 74.7598 67.0402 74.6798C66.9202 74.5998 67.1202 74.7198 67.1202 74.7198C66.9602 74.6398 67.1202 74.7598 67.0402 74.6798C67.0802 74.7198 67.2002 74.7998 67.1602 74.7998C67.2402 74.8798 67.3202 74.9598 67.3602 75.0398C68.0002 76.1198 66.7202 77.1598 65.8402 77.5598C64.0402 78.3198 62.0002 78.5998 60.1202 78.8398C58.7202 79.0398 57.2802 79.1998 55.8402 79.2798C55.4402 79.3198 55.8802 79.6398 56.0402 79.7198C56.4002 79.9998 56.8402 80.1598 57.3202 80.1998C58.6402 80.1198 59.9602 79.9598 61.2402 79.7998C63.3202 79.5598 65.4802 79.2798 67.4402 78.4798C68.4402 78.0798 69.8402 77.0398 69.2402 75.7998C68.8402 74.9998 67.8802 74.5198 67.1202 74.1598C65.8802 73.6398 64.5602 73.3198 63.2402 73.2398C61.2802 73.0798 59.3202 73.1998 57.4002 72.9598C56.8002 72.8798 56.2002 72.7998 55.6002 72.6398L55.2802 72.5598C55.1602 72.5198 55.4002 72.5998 55.3202 72.5598L55.2002 72.5198L55.0402 72.4798C54.8002 72.3998 54.4002 72.3198 54.5602 72.6398C54.7202 72.9598 55.5202 73.2398 55.7602 73.3598Z" fill="#000005"/>
<path d="M44.2409 95.1201C42.7609 97.2801 41.4409 99.5201 40.3209 101.88C40.0809 102.32 40.5609 103.6 41.1609 103.6L46.4009 103.64H47.6809C47.7609 103.64 47.8409 103.64 47.9609 103.64H48.1209L47.7609 102.88C47.7209 103.04 47.6809 103.2 47.6809 103.32C47.4809 104.12 47.2409 104.92 46.9209 105.72C46.6409 106.48 46.2409 107.24 45.9209 107.96C45.5609 108.72 45.5609 109.6 45.9609 110.36C46.4009 111.12 46.9209 111.84 47.4809 112.48L49.0809 114.6L52.8009 119.52C52.9609 119.76 53.3609 120 53.4809 119.6C53.6009 119.2 53.2809 118.6 53.0409 118.32L49.6809 113.92L48.0009 111.72L47.2009 110.68C47.0809 110.48 46.9209 110.32 46.8009 110.12C46.7609 110.08 46.7209 110.04 46.7209 110C46.6409 109.92 46.6409 109.92 46.7209 110.04C46.8009 110.16 46.8009 110.16 46.8009 110.04C46.9209 109.84 47.0009 109.64 47.0809 109.44C47.1609 109.24 47.2809 109.04 47.3609 108.88C47.5209 108.48 47.7209 108.08 47.8809 107.72C48.2009 106.92 48.4409 106.12 48.6809 105.32C48.8809 104.52 49.0409 103.8 48.6809 103C48.5209 102.6 48.2409 102.24 47.8809 102C47.4809 101.84 47.0809 101.76 46.6409 101.8L40.5209 101.76L41.3609 103.52C42.5209 101.16 43.8409 98.9201 45.2809 96.7601C45.6409 96.2401 44.6009 94.6001 44.2409 95.1201Z" fill="#000005"/>
<path d="M106.56 104.8C106.44 98.3597 106.28 91.6397 108.68 85.5197C109.64 82.9597 111.08 80.6397 112.92 78.6397C114.8 76.6397 117.28 74.9197 120.04 74.5197C121.2 74.3597 122.2 74.3997 123.08 75.2797C123.76 75.9997 124.2 76.9197 124.28 77.9197C124.4 78.8397 124.2 79.7597 123.72 80.5597C123.48 80.9597 123.12 81.2797 122.72 81.4797C122.52 81.5997 122.28 81.6797 122.08 81.7197C121.92 81.7597 121.76 81.7597 121.6 81.7997C121.52 81.7997 121.48 81.7997 121.4 81.7997C121.24 81.8397 121.44 81.7997 121.48 81.8397C121.28 81.6797 121 81.5997 120.8 81.4397C120.52 81.2397 120.24 80.9597 120 80.6797C119.52 80.0797 119.16 79.3997 118.88 78.6797C118.44 77.1996 118.12 75.6797 118 74.1197C116.64 63.9197 116.88 53.5597 118.68 43.3997C118.84 42.5597 119 41.6797 119.16 40.8397L117.32 40.4397C118.44 41.1597 119.28 42.1997 119.76 43.4397C119.88 43.7597 119.96 44.0797 120.04 44.3597C120.16 44.6797 120.2 45.0397 120.2 45.3997C120.08 45.6797 119.52 45.7197 119.24 45.7997C118.88 45.8797 118.48 45.9597 118.12 46.0397C117.72 46.1197 117.32 46.1597 116.92 46.1597C116.76 46.1597 116.6 46.1597 116.44 46.1197C115.96 45.8397 115.56 45.4397 115.28 44.9597C114.72 44.0397 114.68 42.8797 115.44 42.0797C115.52 41.9997 114.6 41.6797 114.52 41.6397C114.32 41.5997 113.68 41.3597 113.52 41.5597C112.24 42.9197 113.32 45.0397 114.72 45.8397C117.04 47.1997 119.68 46.7997 122.12 46.1197L122.16 46.0797C122.04 43.8797 120.88 41.8797 119.04 40.7197C118.88 40.5997 117.28 40.0397 117.2 40.3197C114.96 51.3197 114.56 62.5997 116.04 73.6797C116.44 76.7197 116.84 80.2797 120 81.7197C121.28 82.3197 123.08 82.7997 124.44 82.0797C125.28 81.5997 125.88 80.7597 126.04 79.8397C126.24 78.8397 126.12 77.7597 125.68 76.8397C125.16 75.7597 124.24 74.9597 123.08 74.5597C120.12 73.3596 116.8 73.6797 114.12 75.3997C111.64 76.9997 109.6 79.1597 108.16 81.7197C104.68 87.6797 104.32 94.7597 104.4 101.52C104.4 102.44 104.44 103.36 104.44 104.28C104.44 104.68 106.36 104.88 106.36 104.8H106.56Z" fill="#68BA7F"/>
<path d="M135.76 129.881C135.76 129.881 123.08 132.521 121.84 144.681C120.6 156.841 128.72 173.361 128.72 173.361H131.72C131.72 173.361 129.08 147.441 138.76 143.521L135.76 129.881Z" fill="white"/>
<path d="M136.319 129.4C134.559 129.8 132.839 130.44 131.199 131.32C127.959 132.96 125.039 135.28 123.119 138.4C120.679 142.44 120.519 147.28 121.039 151.84C121.599 156.72 122.959 161.48 124.599 166.12C125.199 167.84 125.879 169.52 126.599 171.2C126.919 172.08 127.279 172.88 127.719 173.72C127.719 173.76 127.759 173.8 127.759 173.84C127.799 173.88 127.879 173.92 127.919 173.88H130.919C131.279 173.88 132.559 173.4 132.519 172.92C132.239 170 132.119 167.08 132.199 164.16C132.239 161.52 132.399 158.88 132.759 156.28C133.079 153.72 133.679 151.2 134.639 148.8C135.119 147.64 135.719 146.52 136.519 145.56C136.879 145.16 137.239 144.76 137.679 144.44C137.559 144.52 137.679 144.44 137.719 144.4L137.919 144.24L138.039 144.16C137.839 144.28 138.039 144.16 138.079 144.12C138.119 144.08 138.359 143.96 138.119 144.12L138.319 144C138.479 143.92 138.319 144 138.279 144L138.559 143.88C138.759 143.8 139.639 143.4 139.559 143.08L136.919 131.12L136.559 129.44C136.519 129.24 134.679 129.88 134.759 130.36L137.399 142.32L137.759 144L138.759 143.2C133.839 145.2 132.079 150.52 131.199 155.36C130.319 160.32 130.239 165.44 130.479 170.48C130.519 171.6 130.599 172.72 130.719 173.84L132.319 172.88H129.319L129.519 172.92C128.599 171 127.799 169.04 127.039 167.04C125.359 162.76 124.079 158.36 123.239 153.84C122.439 149.28 121.999 144.24 123.759 139.84C124.479 138.08 125.519 136.48 126.799 135.12C127.359 134.56 127.959 134 128.559 133.52C128.879 133.28 129.199 133.04 129.559 132.8C129.759 132.64 130.079 132.48 130.399 132.28L130.599 132.16L130.759 132.08L130.919 132L131.159 131.88L131.599 131.68L131.799 131.6C132.039 131.48 131.679 131.64 131.879 131.56C132.079 131.48 132.439 131.32 132.719 131.2C132.839 131.16 132.959 131.12 133.079 131.04C132.919 131.08 133.119 131 133.079 131.04L133.319 130.96C133.719 130.8 134.119 130.68 134.519 130.56C134.639 130.52 134.319 130.6 134.479 130.56L134.559 130.52L134.759 130.48L134.999 130.4H135.079C135.559 130.28 135.999 130.08 136.319 129.76C136.719 129.48 136.679 129.32 136.319 129.4Z" fill="#68BA7F"/>
<path d="M171.598 129.32C197.598 135.6 179.318 169.84 178.638 171.8H175.638C175.638 171.8 178.278 146.48 168.598 142.68L171.598 129.32Z" fill="white"/>
<path d="M171.718 129.801C173.798 130.281 175.798 131.081 177.638 132.201C179.158 133.161 180.518 134.441 181.558 135.921C183.638 138.841 184.438 142.401 184.558 145.921C184.678 149.601 184.078 153.321 183.158 156.881C182.318 160.081 181.278 163.201 179.998 166.241C179.318 167.921 178.478 169.561 177.798 171.241C177.758 171.321 177.758 171.361 177.718 171.441L178.118 171.241H175.118L176.638 172.121C176.918 169.121 177.038 166.121 176.958 163.121C176.918 160.441 176.718 157.761 176.318 155.121C175.958 152.561 175.278 150.081 174.198 147.721C173.038 145.321 171.318 143.281 168.798 142.281L169.598 143.001L172.238 131.281L172.598 129.641C172.758 129.041 170.838 128.401 170.718 128.961L168.078 140.681L167.718 142.321C167.638 142.681 168.278 142.961 168.518 143.081C168.758 143.201 168.438 143.041 168.678 143.161L168.998 143.321C169.038 143.321 169.158 143.401 168.998 143.321L169.118 143.401C169.238 143.481 169.358 143.561 169.478 143.641L169.598 143.721C169.798 143.881 169.518 143.681 169.638 143.761C169.758 143.841 169.838 143.921 169.918 144.001C170.118 144.161 170.318 144.361 170.478 144.561C171.198 145.361 171.758 146.241 172.238 147.201C173.278 149.441 173.998 151.841 174.318 154.321C175.038 159.001 175.238 163.721 174.918 168.441C174.878 169.481 174.798 170.481 174.718 171.521C174.638 172.121 175.798 172.401 176.238 172.401H179.198C179.318 172.401 179.518 172.361 179.598 172.201C179.798 171.721 180.038 171.201 180.278 170.721C180.718 169.721 181.158 168.721 181.598 167.721C182.878 164.721 183.958 161.641 184.838 158.481C185.918 154.841 186.478 151.041 186.518 147.241C186.478 143.561 185.758 139.841 183.758 136.721C181.438 133.081 177.598 130.721 173.558 129.441C172.878 129.241 172.238 129.041 171.558 128.881C171.318 128.841 170.718 128.721 170.718 129.121C170.718 129.521 171.438 129.721 171.718 129.801Z" fill="#68BA7F"/>
<path d="M142.76 172C149.6 174.6 157.2 174.32 163.84 171.2C163.84 171.2 177.28 121.88 175.68 90.8004C174.08 59.7204 153.32 43.4004 153.32 43.4004C153.32 43.4004 132 58.1604 132 95.8004C132 133.44 142.76 172 142.76 172Z" fill="#68BA7F"/>
<path d="M143.077 172.84C144.477 173.4 145.917 173.84 147.397 174.08C151.917 175 156.637 174.76 161.037 173.32C161.557 173.16 162.117 172.96 162.637 172.76C162.917 172.64 163.197 172.56 163.437 172.44C163.677 172.32 164.197 172.2 164.357 172.04C164.437 171.92 164.477 171.8 164.517 171.64C164.757 170.8 164.957 169.96 165.197 169.08C166.157 165.28 167.077 161.48 167.957 157.68C169.277 151.88 170.477 146.08 171.557 140.24C172.837 133.48 173.917 126.64 174.797 119.8C175.677 113 176.237 106.2 176.397 99.3604C176.557 92.2004 176.077 85.1204 174.397 78.1604C171.677 67.0404 166.277 56.7604 158.717 48.1604C157.117 46.3204 155.357 44.6004 153.517 43.0004L153.277 42.8004C153.157 42.7204 152.877 42.4804 152.717 42.6004C150.117 44.4004 147.877 46.9204 145.877 49.3604C140.677 55.7604 136.957 63.3204 134.597 71.2004C132.917 76.9204 131.917 82.8004 131.517 88.7204C131.037 96.0804 131.357 103.48 131.877 110.84C132.877 124.4 134.757 137.88 137.437 151.16C138.797 157.92 140.237 164.68 142.077 171.32C142.117 171.4 142.117 171.52 142.157 171.6C142.277 172.08 142.557 172.48 142.957 172.76C143.277 172.96 143.517 172.84 143.397 172.44C141.877 167.04 140.677 161.52 139.517 156C136.797 143.28 134.837 130.4 133.637 117.44C132.917 109.92 132.597 102.36 132.637 94.8004C132.717 88.6004 133.437 82.4404 134.877 76.4004C136.917 67.8804 140.477 59.6404 145.717 52.6004C147.277 50.4804 149.037 48.5204 150.917 46.6804C151.517 46.1204 152.117 45.5604 152.717 45.0404C153.077 44.8004 153.397 44.5204 153.717 44.2404C153.757 44.2004 153.797 44.1604 153.837 44.1604L153.277 43.9604C153.597 44.2404 153.917 44.5204 154.237 44.8004C154.597 45.1204 154.997 45.4804 155.357 45.8404C155.917 46.3604 156.277 46.7604 156.677 47.1604C159.557 50.1604 162.157 53.4404 164.397 56.9204C167.637 61.9204 170.157 67.3604 171.957 73.0404C174.037 79.8804 175.117 86.9604 175.117 94.0804C175.157 100.72 174.797 107.32 174.037 113.88C173.317 120.72 172.277 127.52 171.077 134.32C169.997 140.36 168.797 146.4 167.477 152.4C166.517 156.76 165.517 161.08 164.437 165.4C164.117 166.64 163.837 167.88 163.477 169.08C163.397 169.4 163.317 169.76 163.237 170.08C163.237 170.16 163.197 170.4 163.157 170.44C162.997 170.52 162.837 170.56 162.637 170.64C162.357 170.76 162.117 170.88 161.837 171C161.277 171.24 160.717 171.44 160.117 171.64C159.037 172 157.917 172.28 156.797 172.48C154.957 172.8 153.077 172.96 151.157 172.92C148.557 172.88 145.957 172.4 143.437 171.6C143.077 171.48 142.717 171.36 142.357 171.2C141.957 171 142.037 171.6 142.117 171.8C142.317 172.24 142.677 172.6 143.077 172.84Z" fill="#68BA7F"/>
<path d="M152.72 130.841C152.72 130.841 146.28 137.881 148.16 153.921C150.04 169.961 151.76 177.001 151.76 177.001H154.88C154.88 177.001 156.52 164.521 157.6 153.561C158.68 142.601 156.52 133.121 152.72 130.841Z" fill="white"/>
<path d="M151.879 130.4C151.039 131.36 150.359 132.44 149.839 133.6C148.399 136.68 147.479 139.96 147.119 143.32C146.519 148.88 147.279 154.4 147.999 159.92C148.559 164.04 149.159 168.12 149.879 172.2C150.159 173.72 150.439 175.28 150.799 176.8C150.919 177.36 151.839 177.56 152.279 177.56H155.399C155.479 177.56 155.759 177.52 155.799 177.36C156.479 172.24 157.079 167.12 157.639 162C158.519 154.04 159.679 145.8 157.559 137.92C156.879 135.28 155.719 132.2 153.279 130.68C152.919 130.48 152.359 130.2 151.959 130.36C151.559 130.52 151.799 130.88 152.079 131.08C152.879 131.6 153.519 132.32 153.959 133.16C154.639 134.32 155.159 135.6 155.519 136.92C156.479 140.44 156.919 144.08 156.879 147.72C156.879 151.92 156.359 156.12 155.879 160.32C155.479 163.96 155.039 167.56 154.599 171.2C154.359 173.04 154.119 174.88 153.879 176.72L154.279 176.52H151.159L152.639 177.28C151.479 172.44 150.799 167.44 150.119 162.52C149.359 157.04 148.439 151.48 148.759 145.92C148.919 142.24 149.759 138.64 151.199 135.24C151.639 134.2 152.199 133.2 152.839 132.24C152.919 132.08 153.039 131.96 153.119 131.84C153.159 131.76 153.239 131.68 153.319 131.6C153.399 131.52 153.439 131.44 153.519 131.36C154.039 130.8 152.279 129.96 151.879 130.4Z" fill="#68BA7F"/>
<path d="M153.24 94.4009C159.183 94.4009 164 89.5834 164 83.6409C164 77.6983 159.183 72.8809 153.24 72.8809C147.298 72.8809 142.48 77.6983 142.48 83.6409C142.48 89.5834 147.298 94.4009 153.24 94.4009Z" fill="#000005"/>
<path d="M162.999 83.6005C162.959 87.8005 160.359 91.5205 156.439 93.0005C152.559 94.4005 148.239 93.2005 145.679 90.0005C143.079 86.6805 142.799 82.1205 144.919 78.5205C147.039 75.0005 151.199 73.0005 155.239 73.8405C159.839 74.8005 162.959 78.9605 162.999 83.6005C162.999 84.5605 164.959 84.7605 164.959 83.6805C164.879 78.8405 161.839 74.5605 157.279 72.8805C152.599 71.1605 147.359 72.5205 144.119 76.2805C141.039 80.0005 140.639 85.2805 143.159 89.4405C145.799 93.6805 150.719 95.8405 155.639 94.9205C160.359 94.0005 164.039 90.2805 164.839 85.5205C164.919 84.9205 164.959 84.2805 164.999 83.6405C164.959 82.6805 162.999 82.4805 162.999 83.6005Z" fill="white"/>
<path d="M140.358 61.8401C147.238 62.8001 154.518 63.7201 161.198 61.2401C162.878 60.6001 164.478 59.7601 165.918 58.7201C166.398 58.3601 165.038 56.9201 164.438 57.3601C158.998 61.3201 151.958 61.6801 145.478 61.0801C143.438 60.8801 141.398 60.6001 139.358 60.3201C138.918 60.2401 139.038 60.8001 139.158 61.0401C139.478 61.4401 139.878 61.7201 140.358 61.8401Z" fill="#000005"/>
<path d="M151.438 102.2L151.478 103C151.438 103.32 151.598 103.6 151.878 103.76C152.038 103.84 152.197 103.84 152.317 103.84C152.477 103.84 152.677 103.8 152.797 103.68C152.877 103.64 152.957 103.6 153.038 103.52C153.118 103.48 153.197 103.4 153.238 103.36C153.317 103.28 153.398 103.16 153.478 103.04C153.558 102.92 153.598 102.84 153.678 102.72C153.678 102.68 153.717 102.64 153.717 102.56C153.757 102.44 153.797 102.32 153.797 102.2C153.797 102.08 153.797 101.96 153.797 101.84C153.797 101.8 153.797 101.72 153.757 101.68C153.757 101.56 153.677 101.44 153.597 101.36C153.517 101.28 153.437 101.2 153.357 101.16C153.237 101.12 153.117 101.08 152.997 101.08C152.877 101.04 152.758 101.08 152.638 101.12L152.397 101.24C152.237 101.32 152.117 101.44 151.997 101.6C151.877 101.8 151.798 102.04 151.838 102.28C151.838 102.32 151.878 102.4 151.878 102.44V102.2C151.878 102.28 151.878 102.36 151.878 102.44L151.917 102.2C151.917 102.28 151.877 102.36 151.838 102.4L151.957 102.2C151.917 102.28 151.877 102.32 151.838 102.36L151.997 102.16C151.957 102.2 151.918 102.24 151.838 102.28L152.038 102.12C151.998 102.16 151.957 102.16 151.917 102.2L153.317 102.88L153.278 102.08C153.278 101.96 153.278 101.84 153.238 101.76C153.197 101.64 153.158 101.56 153.038 101.48C152.957 101.4 152.837 101.32 152.717 101.32C152.597 101.28 152.477 101.24 152.357 101.28C152.077 101.28 151.838 101.4 151.638 101.6L151.478 101.8C151.518 101.92 151.438 102.08 151.438 102.2Z" fill="#000005"/>
<path d="M151.918 109.6L151.958 111.2C151.958 111.36 151.998 111.52 152.078 111.68C152.198 111.88 152.318 112.04 152.438 112.2C152.558 112.36 152.678 112.48 152.838 112.6L152.998 112.68C153.038 112.72 153.118 112.72 153.198 112.68C153.318 112.44 153.398 112.2 153.398 111.92C153.398 111.76 153.358 111.6 153.358 111.48C153.278 111.2 153.158 110.92 152.998 110.64C152.878 110.44 152.678 110.24 152.518 110.04C152.438 109.96 152.358 109.92 152.278 109.88C152.238 109.84 152.158 109.8 152.078 109.8H151.998C151.958 109.84 151.918 109.92 151.958 110C151.998 110.2 152.118 110.4 152.198 110.56L152.118 110.44C152.158 110.52 152.038 110.24 152.078 110.32C152.078 110.36 152.118 110.4 152.118 110.44L152.078 110.28C152.118 110.4 152.118 110.48 152.118 110.6V110.48C152.158 110.72 152.118 110.96 151.998 111.16L152.038 111.08V111.12L153.278 112.64L153.238 111.04C153.238 110.88 153.198 110.72 153.118 110.56C152.998 110.32 152.838 110.12 152.678 109.92C152.558 109.76 152.398 109.6 152.198 109.52C152.118 109.52 151.958 109.48 151.918 109.6Z" fill="#000005"/>
<path d="M151.919 116.32C151.919 116.36 151.959 116.44 151.959 116.48C151.999 116.52 151.999 116.6 152.039 116.64C152.119 116.76 152.199 116.92 152.279 117.04C152.479 117.32 152.679 117.56 152.919 117.8C152.999 117.88 153.079 117.96 153.159 118C153.239 118.04 153.359 118.04 153.479 118L153.519 117.96V117.92L153.559 117.88C153.599 117.84 153.599 117.8 153.639 117.76C153.639 117.68 153.639 117.64 153.639 117.56C153.559 117.36 153.479 117.2 153.359 117.04C153.159 116.76 152.959 116.48 152.719 116.2C152.639 116.08 152.519 116 152.399 115.88C152.319 115.84 152.239 115.76 152.159 115.76C152.039 115.72 151.879 115.76 151.759 115.88C151.679 115.96 151.599 116.12 151.559 116.24C151.559 116.32 151.559 116.4 151.559 116.48C151.559 116.56 151.599 116.6 151.599 116.68C151.679 116.8 151.719 116.96 151.799 117.08C151.879 117.24 151.999 117.36 152.119 117.52C152.279 117.72 152.439 117.88 152.599 118.08C152.679 118.16 152.759 118.24 152.879 118.28C152.959 118.32 153.039 118.32 153.079 118.24C153.119 118.2 153.159 118.12 153.119 118.04C153.119 117.96 153.079 117.92 153.039 117.84C152.919 117.6 152.759 117.4 152.599 117.2C152.439 117 152.279 116.84 152.119 116.64C152.039 116.56 151.959 116.52 151.879 116.44C151.759 116.4 151.839 116.56 151.879 116.6C151.919 116.68 151.959 116.76 151.999 116.84C152.039 116.92 152.119 117.04 152.199 117.12C152.359 117.32 152.519 117.52 152.679 117.72C152.759 117.84 152.879 117.96 153.039 118.04L152.959 118L152.839 117.92L152.519 117.6L152.039 117L151.839 116.68L151.799 116.6C151.799 116.68 151.719 116.76 151.639 116.76H151.679C151.639 116.76 151.639 116.76 151.599 116.72L151.679 116.76C151.239 116.44 152.399 117.52 152.639 117.96L152.679 118C152.679 118 152.679 118 152.679 117.96L152.719 118.04C152.679 117.96 152.679 117.88 152.679 117.8V117.84C152.719 117.6 152.879 117.32 153.159 117.36H153.119C153.159 117.36 153.199 117.4 153.239 117.4L153.159 117.36L153.199 117.4C153.239 117.4 153.039 117.28 153.119 117.32C152.919 117.12 152.719 116.88 152.559 116.64C152.479 116.56 152.439 116.48 152.359 116.36L152.319 116.28C152.359 116.32 152.239 116.12 152.279 116.16V116.2L152.239 116.12C152.239 116.16 152.279 116.24 152.239 116.28V116.24C152.239 116.28 152.239 116.32 152.199 116.36L152.159 116.4C152.159 116.4 152.159 116.44 152.119 116.44C152.079 116.48 151.999 116.52 151.919 116.52H151.959C151.919 116.52 151.879 116.52 151.839 116.48L151.919 116.52C152.079 116.64 152.199 116.76 152.319 116.92L152.639 117.32C152.719 117.44 152.839 117.56 152.919 117.72L152.959 117.76L152.999 117.84V117.8C152.999 117.76 152.959 117.68 152.919 117.64C152.879 117.56 152.839 117.48 152.759 117.4C152.599 117.2 152.479 116.96 152.279 116.8L152.119 116.6C152.039 116.52 151.959 116.44 151.879 116.36L151.799 116.32C151.919 116.24 151.919 116.24 151.919 116.32Z" fill="#000005"/>
<path d="M122.118 148.12C125.038 149.84 128.278 151.04 131.638 151.6C132.078 151.68 132.678 151.68 132.998 151.28C133.318 150.88 132.958 150.6 132.598 150.52C129.398 149.96 126.278 148.84 123.478 147.16C122.838 146.8 121.118 147.52 122.118 148.12Z" fill="#68BA7F"/>
<path d="M173.919 151.76C178.719 152.2 183.239 150.12 186.519 146.72C186.759 146.52 186.799 146.16 186.639 145.92C186.599 145.84 186.519 145.8 186.439 145.76C185.999 145.56 185.439 145.88 185.119 146.2C182.399 149 178.679 150.64 174.759 150.28C174.239 150.24 173.759 150.52 173.519 150.96C173.359 151.2 173.439 151.52 173.639 151.68C173.719 151.72 173.799 151.76 173.919 151.76Z" fill="#68BA7F"/>
</svg>
