<svg width="200" height="200" viewBox="0 0 200 200" fill="none" xmlns="http://www.w3.org/2000/svg">
<path d="M98.5978 57.04C98.5978 57.04 94.4778 55.88 93.2378 56.64C91.9978 57.4 87.7578 68.16 87.7578 68.16L95.0378 67.64L98.5978 57.04Z" fill="white"/>
<path d="M99.4779 56.6401C97.0779 55.9601 93.2779 55.0801 91.6779 57.6001C90.9579 58.8001 90.3179 60.0801 89.7579 61.4001C89.0779 62.8801 88.4779 64.3601 87.8379 65.8401C87.4779 66.6801 87.1179 67.5601 86.7979 68.4001C86.7179 68.6001 87.0379 68.5601 87.1179 68.5601L94.3979 68.0401C94.7579 68.0001 95.7979 67.8001 95.9579 67.4001L99.0779 58.1201L99.5179 56.8001C99.5979 56.5201 98.8379 56.7201 98.7579 56.7201C98.4779 56.8001 97.7579 56.9601 97.6379 57.2801L94.5179 66.5601L94.0779 67.8801L95.5979 67.2001L88.3179 67.7201L88.6379 67.8801C89.3979 65.9601 90.1979 64.0801 91.0379 62.1601C91.6379 60.8401 92.1979 59.5201 92.8779 58.2001C93.1179 57.7601 93.3579 57.3201 93.6379 56.8801C93.7579 56.7201 93.7979 56.7201 93.8779 56.5601C93.9579 56.4001 93.8379 56.5601 93.7579 56.6001C93.8379 56.5601 93.3579 56.8001 93.3179 56.7601C93.3979 56.7601 93.4779 56.7601 93.5579 56.7201C94.9179 56.7201 96.2779 56.9201 97.5979 57.3601C98.0379 57.4001 98.4379 57.3201 98.8379 57.1201C98.9979 57.1601 99.7579 56.7201 99.4779 56.6401Z" fill="#000005"/>
<path d="M104.757 41.7604L101.437 41.4004L91.2773 66.3604L94.2773 66.3204L104.757 41.7604Z" fill="#68BA7F"/>
<path d="M104.719 40.8804L101.399 40.5204C100.999 40.4804 100.599 40.7604 100.479 41.1604L97.0391 49.6004L91.5591 63.0404L90.3191 66.1204C90.0791 66.7204 90.8391 67.2404 91.3591 67.2404L94.3591 67.2004C94.6791 67.2404 94.9991 67.0804 95.1991 66.8004L98.7591 58.4404L104.399 45.2404L105.679 42.2004C105.879 41.7604 105.719 41.2404 105.279 41.0004C104.919 40.8004 104.159 40.8004 103.919 41.2804L100.359 49.6404L94.7191 62.8404L93.4391 65.8804L94.2791 65.4804L91.2791 65.5204L92.3191 66.6404L95.7591 58.2004L101.239 44.7604L102.479 41.6804L101.559 42.3204L104.879 42.6804C105.359 42.7204 105.759 42.3604 105.799 41.8804V41.8404C105.679 41.2804 105.239 40.8804 104.719 40.8804Z" fill="#68BA7F"/>
<path d="M88.5592 66.4402C87.9992 66.7202 81.1992 81.8802 81.1992 81.8802L89.0392 91.1202L96.2792 71.2802C97.2792 70.2402 99.4792 67.0002 101.279 63.2402C101.679 62.4402 103.599 53.5202 102.919 50.0402C102.239 46.5602 100.559 52.9602 100.559 52.9602C100.559 52.9602 99.1192 48.1602 97.8392 50.3202C97.5592 50.8002 97.7592 58.0002 97.7592 58.0002C97.7592 58.0002 94.3592 56.9602 93.7592 57.5602C93.1592 58.1602 96.6792 61.2002 96.6792 61.2002C96.6792 61.2002 94.7192 66.2002 94.3192 66.3602" fill="white"/>
<path d="M87.8799 65.8001C87.3199 66.1201 86.9999 67.0801 86.7199 67.6001C86.0799 68.8401 85.4799 70.0801 84.9199 71.3201C83.6399 74.0401 82.3599 76.8001 81.1199 79.5601L80.2799 81.4402C80.1999 81.6401 80.2399 81.8401 80.3599 81.9601L87.1999 90.0801L88.1599 91.2402C88.4799 91.6002 89.6399 92.2401 89.9199 91.4801L92.3599 84.8401L96.2399 74.1601C96.5599 73.3201 96.7999 72.4801 97.1599 71.6801V71.6402C97.0799 71.8001 97.1199 71.6801 97.1999 71.6402C97.2799 71.5602 97.3599 71.4401 97.4399 71.3601C97.7999 70.9201 98.1599 70.4401 98.4799 70.0001C99.3999 68.6801 100.24 67.2801 101.04 65.8401C101.6 64.9201 102.08 63.9601 102.4 62.9201C102.64 62.0401 102.8 61.1601 103 60.2801C103.52 57.8401 103.84 55.4001 104 52.9201C104.08 51.8801 104 50.8401 103.8 49.8401C103.6 48.9201 102.68 47.8401 101.6 48.3201C101 48.6001 100.68 49.4401 100.44 50.0001C100.16 50.6801 99.9199 51.3601 99.7199 52.0801C99.6799 52.2001 99.6399 52.3601 99.5999 52.4801L101.44 52.9201C101.2 52.1201 100.88 51.3601 100.48 50.6401C99.9199 49.6801 98.6399 48.4001 97.4399 49.2001C96.6399 49.7201 96.7199 50.6801 96.6799 51.4801C96.6399 52.7201 96.6399 53.9601 96.6799 55.2001C96.6799 56.0401 96.6799 56.8801 96.7199 57.7201L97.6799 57.2801C97.1199 57.1201 96.5599 56.9601 95.9999 56.8401C95.1599 56.6801 94.0799 56.4001 93.2399 56.7201C91.5599 57.3601 93.9999 59.6401 94.5999 60.2001C94.9999 60.6001 95.4399 61.0001 95.8799 61.4001L95.6399 60.6801C95.3199 61.4801 94.9999 62.3201 94.6399 63.1201C94.3999 63.6801 94.1599 64.2801 93.8799 64.8401C93.7599 65.0401 93.6799 65.2801 93.5599 65.4801C93.5599 65.5201 93.5199 65.5601 93.5199 65.5601C93.4399 65.6801 93.5199 65.5201 93.5199 65.5601C93.5199 65.6001 93.3199 65.6801 93.5599 65.5601C93.1199 65.7601 93.2799 66.2401 93.5599 66.5201C93.9199 66.8801 94.4399 67.0001 94.9199 66.8401C95.2799 66.6801 95.4799 66.1601 95.6799 65.8401C95.9599 65.2801 96.2399 64.6801 96.4799 64.0801C96.8399 63.2001 97.1999 62.3601 97.5599 61.4801C97.6399 61.2001 97.5199 60.9201 97.3199 60.7601C96.8799 60.4001 96.4799 60.0001 96.0399 59.6001C95.8799 59.4401 95.7199 59.2801 95.5599 59.1201L95.2799 58.8401L95.1999 58.8001C95.0799 58.6401 94.9599 58.4801 94.8399 58.3201C94.7999 58.2401 94.7199 58.1601 94.6799 58.0801C94.5999 57.9201 94.7199 58.2001 94.6399 58.0001C94.5599 57.8001 94.6799 57.9601 94.5999 57.9601C94.6399 57.9601 94.5599 58.0001 94.5199 58.0801C94.4799 58.1601 94.4399 58.0401 94.5599 58.0801C94.4799 58.1201 94.4799 58.1201 94.5599 58.0801L94.7199 58.0401C94.5199 58.0401 94.7999 58.0401 94.8399 58.0401C94.9599 58.0401 95.0799 58.0401 95.1999 58.0801C95.3999 58.0801 95.5999 58.1201 95.7599 58.1601C96.4399 58.2801 97.1199 58.4401 97.7599 58.6401C98.0799 58.7601 98.7199 58.6401 98.7199 58.2001C98.6799 56.5201 98.6399 54.8401 98.6399 53.1601C98.5999 52.3201 98.6399 51.4801 98.7199 50.6801C98.6799 50.8801 98.7199 50.6801 98.7999 50.6001C98.8799 50.5201 98.9599 50.4801 98.9999 50.4001C98.9199 50.4001 98.9599 50.4801 98.9999 50.4001C98.9199 50.4001 98.7999 50.4401 98.7199 50.4001C98.6399 50.3601 98.3599 50.2801 98.5599 50.3601L98.4799 50.3201C98.3199 50.2401 98.4399 50.2801 98.5199 50.4001C98.3999 50.2801 98.5599 50.4801 98.5999 50.5201C98.6399 50.5601 98.7199 50.7201 98.7999 50.8401C99.1599 51.4801 99.4399 52.2001 99.6399 52.8801C99.7999 53.2401 100.16 53.5201 100.56 53.6001C100.84 53.6401 101.4 53.6801 101.48 53.3201C101.76 52.1601 102.16 51.0001 102.72 49.9601C102.76 49.8801 102.8 49.8401 102.84 49.8001C102.76 49.9201 102.84 49.8001 102.88 49.7601C102.92 49.7201 102.96 49.6801 103 49.6401C103.04 49.5601 103 49.6801 102.96 49.6801C103.12 49.6801 102.6 49.6801 102.68 49.6801C102.36 49.6401 102.08 49.5201 101.84 49.2801C101.96 49.3601 101.84 49.2801 101.88 49.3201C101.96 49.5201 102 49.7201 102.04 49.9201C102.2 50.8801 102.24 51.8401 102.12 52.7601C101.96 55.1201 101.64 57.4401 101.16 59.7601C101 60.5601 100.84 61.4001 100.6 62.2001C100.28 63.2001 99.8399 64.1201 99.2799 65.0001C98.5599 66.3601 97.7199 67.7201 96.8399 69.0001C96.5199 69.4401 96.1999 69.8801 95.8799 70.3201C95.6799 70.5201 95.5199 70.7201 95.3999 70.9201C95.0799 71.6401 94.8399 72.3601 94.5999 73.0801L90.8799 83.2801L89.1199 88.1201C88.7999 88.9601 88.4399 89.8401 88.1599 90.7201C88.1599 90.7601 88.1199 90.8001 88.1199 90.8401L89.8799 91.0801L83.0399 82.9601L82.0799 81.8001L82.1599 82.3201C84.1599 77.8801 86.1599 73.4001 88.3199 69.0401C88.5599 68.5602 88.7999 68.0801 89.0799 67.6001C89.1599 67.4401 89.2399 67.2801 89.3599 67.1201C89.2399 67.2001 89.4799 66.9601 89.3599 67.1201C89.4799 67.0401 89.4799 67.0401 89.2799 67.1601C90.1199 66.5601 88.5599 65.4401 87.8799 65.8001Z" fill="#000005"/>
<path d="M99.0793 52.04C99.3593 53.04 99.5993 54.08 99.7993 55.08C100.159 56.76 100.479 58.52 100.359 60.24C100.359 60.44 102.359 60.56 102.359 60.36C102.479 58.64 102.119 56.88 101.799 55.2C101.599 54.16 101.359 53.16 101.079 52.16C101.039 51.96 100.239 51.96 100.079 51.96C99.9993 51.96 99.0393 51.96 99.0793 52.04Z" fill="#000005"/>
<path d="M98.1203 58.8801C98.2403 58.8801 98.3603 58.9201 98.4803 58.9201C98.6003 58.9601 98.7203 58.9601 98.8403 59.0001L98.9203 59.0401C99.0003 59.0801 99.0803 59.0801 99.1603 59.1201C99.3203 59.2001 99.4803 59.2801 99.6403 59.3601L99.7603 59.4401C99.8403 59.4801 99.6403 59.3601 99.7203 59.4001L99.8003 59.4401C99.8803 59.4801 99.9603 59.5601 100.04 59.6401C100.08 59.6801 100.12 59.7201 100.16 59.7201C99.9203 59.5601 100.12 59.6801 100.16 59.7201L100.28 59.8401C100.12 59.6801 100.44 60.0001 100.28 59.8401L100.36 59.9601C100.52 60.1601 100.24 59.7601 100.32 59.9201C100.36 59.9601 100.36 60.0001 100.4 60.0801C100.28 59.8401 100.52 60.2401 100.4 60.0801C100.4 60.1201 100.52 60.3601 100.44 60.2001C100.36 60.0401 100.48 60.2801 100.48 60.3601C100.48 60.4401 100.52 60.5201 100.56 60.6001C100.6 60.6801 100.52 60.4001 100.56 60.5601L100.6 60.6801C100.64 60.8801 100.64 61.0401 100.68 61.2401C100.68 61.3601 100.68 61.0801 100.68 61.2801C100.68 61.3201 100.68 61.4001 100.68 61.4401C100.68 61.5601 100.68 61.6801 100.68 61.8001C100.72 62.2801 100.92 62.7201 101.24 63.0401C101.4 63.2001 101.88 63.5201 101.88 63.0801C101.96 61.4001 101.36 59.7201 100.2 58.5201C99.5203 57.8401 98.6803 57.3601 97.7603 57.1601C97.6003 57.1201 97.4403 57.0801 97.2803 57.0801C96.8803 57.0801 97.1603 57.7601 97.2403 57.9201C97.3603 58.1601 97.4803 58.3601 97.6803 58.5601C97.8003 58.7601 97.9603 58.8401 98.1203 58.8801Z" fill="#000005"/>
<path d="M87.5195 159.68C87.5195 159.68 98.6795 184.72 100.24 184.72C101.8 184.72 117.36 170 117.16 167.68C116.96 165.36 110.6 169.12 109.4 169.12C108.2 169.12 102.32 166.96 102.32 166.96L100.52 155.36L87.5195 159.68Z" fill="#000005"/>
<path d="M49.56 183.76C49.92 184.32 68.52 183.76 68.52 182.8C68.52 181.84 64.08 176.76 64.08 176.76L69.28 161.44L55 156.4C55 156.36 48.16 181.52 49.56 183.76Z" fill="#000005"/>
<path d="M50.0391 166.48L69.1191 168.64L87.1191 90.2002L58.8791 91.4402L50.0391 166.48Z" fill="white"/>
<path d="M49.2389 167.041L55.6789 167.761L65.9189 168.921L68.2789 169.201C68.5589 169.241 68.9589 168.881 69.1589 168.721C69.3589 168.561 69.8789 168.321 69.9189 168.081L70.3989 166.001L71.7189 160.281L73.6789 151.841L76.0389 141.521L78.6389 130.281L81.2789 118.881L83.7189 108.241L85.7989 99.2807L87.2789 92.8407L87.7589 90.8407C87.8789 90.4807 87.9589 90.1607 87.9989 89.8007C87.9989 89.7607 87.9989 89.7207 88.0389 89.6807H87.9989L78.3989 90.1207L63.2389 90.8007L59.7589 90.9607C59.4789 90.9607 59.0389 91.3607 58.7989 91.5207C58.5589 91.6807 58.1589 91.8807 58.1589 92.0807L57.9189 94.0807L57.3189 99.5207L56.3589 107.561L55.1989 117.441L53.9189 128.201L52.6389 139.081L51.4389 149.281L50.4389 157.841L49.5989 164.001L49.3589 165.921C49.2789 166.241 49.2389 166.601 49.2389 166.921C49.2389 167.001 49.2389 167.041 49.2389 167.041C49.2789 167.041 50.0789 166.641 50.1589 166.561C50.3189 166.441 50.8789 166.161 50.9189 165.921L51.1589 163.921L51.7989 158.481L52.7189 150.401L53.8789 140.521L55.1589 129.761L56.4389 118.881L57.6389 108.681L58.6389 100.121L59.3589 93.9607C59.4789 93.0007 59.6389 92.0007 59.7189 91.0407C59.7189 91.0007 59.7189 90.9607 59.7189 90.9207L58.1189 92.0407L67.0789 91.6407L81.9989 91.0007L86.0389 90.8407C86.0789 90.8407 86.2789 90.8007 86.3189 90.8407C86.3589 90.8807 86.2789 90.8007 86.2789 90.8807C86.2789 91.0407 86.2389 91.1607 86.1989 91.3207L84.7989 97.3207L82.1989 108.641L78.8789 123.121L75.3189 138.561L72.0389 152.761L69.5589 163.641L68.3189 169.041L68.2789 169.281L69.9189 168.161L63.4789 167.441L53.2389 166.281L50.8789 166.001C50.5989 165.961 50.1989 166.321 49.9989 166.481C49.7989 166.601 49.5989 166.761 49.4389 166.921C49.4389 166.841 49.1989 167.041 49.2389 167.041Z" fill="#000005"/>
<path d="M56.4805 93.3603L88.4805 170.84L107.52 165.56L84.7605 89.2803L56.4805 93.3603Z" fill="white"/>
<path d="M55.5572 93.6803L56.3972 95.7603L58.7172 101.4L62.1572 109.72L66.3572 119.88L70.9572 131.04L75.5972 142.32L79.9172 152.8L83.5972 161.68L86.2372 168.04C86.6372 169.04 86.9972 170.08 87.4772 171.08C87.4772 171.12 87.5172 171.16 87.5172 171.2C87.5972 171.4 88.1572 171.24 88.3172 171.2L94.7572 169.4L104.997 166.56L107.357 165.92C107.517 165.88 108.557 165.56 108.437 165.2L107.837 163.16L106.157 157.6L103.717 149.4L100.717 139.4L97.4372 128.4L94.1172 117.36L91.0372 107.04L88.4372 98.3203L86.5572 92.0003C86.2772 91.0403 86.0372 89.9603 85.6772 89.0403C85.6772 89.0003 85.6372 88.9603 85.6372 88.9203C85.5972 88.7603 85.1972 88.8403 85.0772 88.8403L75.4772 90.2403L60.3172 92.4403L56.8372 92.9203C56.3572 92.9603 55.9172 93.1603 55.5972 93.5203C55.3572 93.8803 55.8772 93.8003 56.0772 93.7603L65.6772 92.3603L80.8372 90.1603L84.3172 89.6803L83.7572 89.6003L84.3572 91.6403L85.9972 97.2003L88.4372 105.4L91.4372 115.4L94.7172 126.4L98.0372 137.44L101.117 147.76L103.717 156.48L105.597 162.76C105.877 163.76 106.117 164.76 106.477 165.72C106.477 165.76 106.517 165.8 106.517 165.84L107.597 165.12L101.157 166.92L90.9172 169.76L88.5572 170.4H89.3572L88.4772 168.32L86.1572 162.68L82.7172 154.36L78.5172 144.2L73.9972 133.12L69.3572 121.84L65.0372 111.36L61.3572 102.48L58.7172 96.1203C58.3172 95.1203 57.9572 94.0803 57.4772 93.0803C57.4372 93.0403 57.4372 93.0003 57.4372 92.9603C57.2372 92.5603 55.3972 93.3203 55.5572 93.6803Z" fill="#000005"/>
<path d="M54.1186 96.4005C54.1186 96.4005 52.7586 57.6005 65.7986 53.8005C84.4786 48.3605 90.5186 93.0005 90.5186 93.0005L54.1186 96.4005Z" fill="#000005"/>
<path d="M55.1191 96.36C55.0791 94.84 55.0791 93.36 55.0791 91.84C55.1191 88.28 55.2791 84.68 55.5591 81.16C55.8791 76.92 56.5191 72.72 57.4791 68.56C57.9191 66.56 58.5191 64.64 59.2791 62.72C59.5991 61.88 59.9591 61.08 60.3591 60.32C60.7591 59.56 61.1991 58.8 61.6791 58.12C62.0791 57.52 62.5591 56.92 63.1191 56.44C63.3991 56.2 63.6791 55.96 63.9591 55.72C64.1591 55.56 63.9191 55.76 64.0391 55.68L64.2791 55.52C64.4391 55.4 64.5991 55.32 64.7591 55.24C64.9191 55.16 65.0391 55.08 65.1991 55L65.4391 54.88C65.5991 54.8 65.3991 54.88 65.3991 54.88L65.5591 54.8C65.9191 54.68 66.3191 54.56 66.6791 54.44L67.2391 54.32C67.4791 54.28 67.0791 54.32 67.3591 54.32L67.6791 54.28C68.0791 54.24 68.4391 54.2 68.8391 54.2H69.1191C69.1991 54.2 69.4391 54.2 69.1991 54.2C69.3991 54.2 69.5991 54.24 69.7991 54.24C70.1591 54.28 70.5191 54.36 70.8791 54.44L71.1591 54.52C71.3991 54.56 70.9991 54.48 71.2391 54.56C71.4791 54.64 71.5991 54.68 71.7991 54.72C72.1591 54.84 72.4791 55 72.7991 55.16C72.9591 55.24 73.1191 55.32 73.2791 55.4C73.0791 55.32 73.3191 55.44 73.3591 55.44L73.5991 55.6C73.9191 55.8 74.2391 56.04 74.5591 56.24C74.8791 56.44 75.1991 56.72 75.5191 57C75.8791 57.32 75.9191 57.36 76.2791 57.72C78.8791 60.36 80.5991 63.4 82.1191 66.72C83.7591 70.32 85.0791 74.04 86.1591 77.84C87.1191 81.2 87.8391 84.24 88.5191 87.56C88.8791 89.32 89.1991 91.08 89.4391 92.88L89.4791 93.12L90.4391 92.24L86.8391 92.56L78.1191 93.36L67.6391 94.32L58.5591 95.16C57.0791 95.32 55.5991 95.4 54.1191 95.56H54.0391C53.5991 95.6 53.0791 95.92 53.0791 96.44C53.1591 96.92 53.6391 97.28 54.1191 97.2L57.7191 96.84L66.4391 96.04L76.9191 95.04L85.9991 94.2C87.4791 94.08 88.9591 93.96 90.4391 93.8H90.5191C90.9591 93.76 91.5191 93.44 91.4791 92.92C91.3191 91.64 91.0791 90.36 90.8391 89.08C90.2391 85.92 89.5591 82.8 88.7591 79.68C87.7591 75.84 86.5191 72.04 85.0391 68.36C83.5591 64.8 81.7591 61.28 79.3191 58.28C77.1991 55.68 74.4791 53.48 71.1191 52.76C67.7991 52.04 64.3191 52.92 61.7591 55.2C59.0391 57.68 57.5191 61.36 56.4391 64.8C55.1991 68.96 54.3591 73.28 53.9191 77.6C53.4791 81.6 53.1991 85.6 53.1191 89.6C53.0791 91.8 53.0391 94 53.0791 96.2C53.0791 96.32 53.0791 96.4 53.0791 96.52C53.1591 97.56 55.1591 97.44 55.1191 96.36Z" fill="#000005"/>
<path d="M77.4771 41.9607C77.4771 41.9607 79.3571 32.3607 71.1571 30.0407C62.9571 27.7207 53.7571 35.2007 54.6771 45.4007C55.5971 55.6007 68.1571 55.0807 68.1571 55.0807L77.4771 41.9607Z" fill="white"/>
<path d="M78.4796 41.8403C79.3196 37.5603 77.8796 32.4803 73.7596 30.4003C70.3596 28.6803 66.1596 28.8403 62.7196 30.2803C59.2396 31.7603 56.4396 34.5203 54.8796 38.0003C53.3996 41.4003 53.0396 45.6803 54.6396 49.1203C55.8396 51.6803 58.1996 53.3603 60.7996 54.3603C62.7996 55.0803 64.9196 55.4803 67.0396 55.5203C67.6796 55.5603 68.6796 55.6403 69.1196 55.1203C69.3996 54.7603 69.6796 54.3603 69.9196 53.9603L78.1996 42.2803L78.3996 41.9603C78.6396 41.6403 77.7996 41.5203 77.6396 41.5203C77.1996 41.4803 76.7596 41.6403 76.4396 41.9603L68.2796 53.4803L67.1196 55.0803L68.3196 54.6403C68.1196 54.6403 67.9596 54.6403 67.7596 54.6403L67.1596 54.6003L66.7996 54.5603C66.9196 54.5603 66.9596 54.5603 66.7996 54.5603L66.5596 54.5203C65.0796 54.4003 63.6396 54.0803 62.2796 53.5603C60.5996 52.9603 59.0796 51.9603 57.8796 50.6403C56.3996 48.9203 55.7596 46.7203 55.6396 44.4803C55.3996 39.1603 58.1596 33.8403 62.9196 31.2803C63.9196 30.7203 64.9996 30.3603 66.1196 30.1203C67.1996 29.9203 68.2796 29.8803 69.3596 30.0403C71.5996 30.3203 73.6396 31.5203 74.9996 33.3603C75.9996 34.8803 76.5596 36.6003 76.6796 38.4003C76.7196 39.5203 76.6796 40.6403 76.5596 41.7603C76.5596 41.8003 76.5196 41.8803 76.5196 41.9203C76.3996 42.5203 78.3596 42.5203 78.4796 41.8403Z" fill="#000005"/>
<path d="M78.4381 50.2407C80.7981 46.3207 76.3181 34.0807 76.3181 34.0807C73.7981 31.1607 63.3981 34.7607 63.3981 34.7607C65.3581 37.7607 65.6781 43.1607 65.6781 43.1607C63.9981 40.4407 60.7981 42.2007 61.3981 45.0007C61.9981 47.8007 65.4381 48.1607 65.4381 48.1607C65.4381 48.1607 65.3981 54.3207 65.8381 55.4007C66.2781 56.4807 71.7981 57.3207 74.1181 53.7207C74.0781 53.7207 76.3981 53.6807 78.4381 50.2407Z" fill="white"/>
<path d="M79.3991 50.4005C80.5191 48.4805 80.1591 45.8005 79.8391 43.6805C79.4391 41.2005 78.8391 38.7205 78.0391 36.3205C77.8391 35.6405 77.5991 34.9605 77.3591 34.3205C77.1591 33.7205 76.5191 33.4005 75.9591 33.1605C73.5591 32.1605 70.5991 32.6005 68.1191 33.0805C66.2791 33.4405 64.4391 33.9205 62.6791 34.5205C62.5591 34.5605 62.2791 34.6805 62.3991 34.8805C63.3991 36.4805 63.9191 38.3205 64.2391 40.1605C64.4391 41.1605 64.5591 42.1605 64.6391 43.1605L66.5991 43.1205C65.9191 42.0005 64.6791 41.3605 63.3591 41.4405C62.2391 41.4805 61.1591 41.9205 60.5991 42.9205C60.0791 43.9605 60.1591 45.2005 60.7991 46.1605C61.3591 47.0005 62.1591 47.6405 63.1191 48.0005C63.7591 48.2805 64.4391 48.4405 65.1191 48.5205L64.3991 48.1205C64.3191 50.2805 64.3991 52.4805 64.6391 54.6405C64.6391 55.0005 64.7591 55.3205 64.9591 55.6405C65.3191 56.0005 65.7591 56.2405 66.2391 56.3605C67.6391 56.7605 69.1191 56.8405 70.5991 56.6005C72.3991 56.3605 74.0391 55.3605 75.0791 53.8805L74.3591 54.1205C76.5591 54.0805 78.3591 52.1605 79.3991 50.4005C79.6791 49.9605 77.7991 49.6405 77.4791 50.1205C76.9191 51.1605 76.1191 52.0405 75.1991 52.7205C74.9191 52.9205 74.6391 53.0805 74.3191 53.2005C74.1991 53.2405 74.1191 53.2805 73.9991 53.3205C73.7591 53.3605 73.8791 53.3605 73.9991 53.3205C73.9591 53.3205 73.8791 53.3605 73.8391 53.3605H73.8791C73.7991 53.3605 73.6791 53.3605 73.5991 53.4005C73.0391 53.5205 72.7991 54.1205 72.4391 54.4805C71.7991 55.1205 70.9991 55.5605 70.1591 55.8005C69.8391 55.8805 69.5591 55.9605 69.2391 55.9605H68.9191C68.5991 56.0005 69.1191 55.9605 68.7591 55.9605H68.4791H68.2791C68.3991 55.9605 68.3991 55.9605 68.2791 55.9605C68.1591 55.9605 67.9991 55.9205 67.8391 55.9205C67.5591 55.8805 67.9991 55.9605 67.7591 55.9205L67.5191 55.8805C67.5191 55.8805 67.2791 55.8005 67.4391 55.8405L67.2391 55.7605C67.0391 55.6805 67.1591 55.7205 67.0391 55.6405C66.9191 55.5605 66.8391 55.4805 66.7991 55.3605C66.7191 55.1205 66.6791 54.8805 66.6791 54.6005C66.5991 53.8405 66.5591 53.0405 66.5191 52.2405C66.4791 50.8805 66.4391 49.5605 66.4791 48.2005C66.4791 47.9205 65.9191 47.8405 65.7591 47.8005H65.6391H65.5191C65.3991 47.8005 65.7591 47.8805 65.5191 47.8005C65.1991 47.7205 64.9191 47.6405 64.6391 47.5205C63.7591 47.1605 63.0391 46.4805 62.6391 45.6005C62.2391 44.6005 62.3191 43.3205 63.1591 42.5605C63.3191 42.4405 63.4791 42.3205 63.6391 42.2405C63.6391 42.2405 63.8791 42.1605 63.7591 42.2005C63.6391 42.2405 63.5991 42.0805 63.7191 42.2005C63.6391 42.1205 63.8791 42.2805 63.8791 42.2805C63.9591 42.3205 64.0391 42.3605 64.1191 42.4405C64.3991 42.6805 64.6391 42.9205 64.7991 43.2405C65.0391 43.6005 66.7991 43.7605 66.7591 43.2005C66.6791 42.1605 66.5591 41.1205 66.3591 40.0805C65.9991 38.2405 65.4791 36.3205 64.4791 34.7205L64.1991 35.0805C65.4791 34.6405 66.8391 34.2805 68.1591 33.9605C69.2791 33.6805 70.4391 33.5205 71.5991 33.4005C72.1191 33.3605 72.6391 33.3205 73.1591 33.3605C73.5591 33.3605 73.9591 33.4405 74.3591 33.5605C74.4391 33.5605 74.5191 33.6005 74.5991 33.6405C74.6791 33.6805 74.7991 33.7205 74.8791 33.7605C75.0391 33.8405 75.1991 33.9605 75.3191 34.0805C75.3991 34.1605 75.4391 34.2805 75.4791 34.3605C75.7191 34.9205 75.8791 35.5205 76.0391 36.0805C76.7591 38.2805 77.3191 40.5605 77.7591 42.8405C77.9991 44.2005 78.1591 45.5605 78.1591 46.9205C78.1591 48.0005 78.0791 49.1605 77.5191 50.1205C77.1991 50.6005 79.1191 50.8805 79.3991 50.4005Z" fill="#000005"/>
<path d="M68.7601 46.2402C68.8401 46.5602 68.9601 46.8402 69.1201 47.1602C69.4401 47.8402 69.8801 48.4002 70.4401 48.8802C70.7201 49.1202 71.0801 49.2802 71.4001 49.3602C71.6401 49.4402 71.4001 48.8402 71.3601 48.8002C71.2801 48.6402 71.1601 48.4402 71.0401 48.3202C70.9601 48.2002 70.8801 48.1202 70.7601 48.0802C70.6401 48.0402 70.4801 48.0002 70.3601 47.9202L70.3201 47.8802L70.2401 47.8402L70.0801 47.7202L69.9201 47.6002C69.8401 47.5602 70.0001 47.6802 69.9201 47.6002L69.8401 47.5202C69.8001 47.4802 69.7601 47.4402 69.7201 47.4002C69.6801 47.3602 69.8401 47.5202 69.7601 47.4402C69.7201 47.4002 69.7201 47.4002 69.6801 47.3602L69.6401 47.2802L69.7201 47.3602L69.6801 47.3202L69.6001 47.2002C69.6001 47.2002 69.7201 47.4002 69.6801 47.3202V47.2802L69.6401 47.2002H69.6001C69.5201 47.0802 69.6801 47.3602 69.6401 47.2802C69.6001 47.2002 69.6001 47.2002 69.6001 47.1602L69.5601 47.1202C69.5201 47.0002 69.6401 47.2802 69.6001 47.2002C69.5601 47.1202 69.5601 47.0802 69.5201 47.0002V46.9602C69.5201 46.9202 69.5601 47.1602 69.5601 47.0802C69.5601 47.0802 69.5601 47.0402 69.5601 47.0002V46.9602C69.5201 46.8002 69.4401 46.6402 69.3601 46.4802C69.2801 46.3202 69.1601 46.1602 69.0401 46.0402C69.0001 46.0002 68.8801 45.8802 68.8001 45.9202C68.7201 45.9602 68.7601 46.1202 68.8001 46.2002L68.7601 46.2402Z" fill="#000005"/>
<path d="M73.3576 38.2802C73.0776 38.4002 72.9576 38.7602 73.0776 39.0402C73.0776 39.0802 73.1176 39.0802 73.1176 39.1202C73.4376 39.6402 74.1176 39.2402 73.9576 38.6802C73.9176 38.4002 73.6776 38.2402 73.3976 38.2402C73.3976 38.2802 73.3576 38.2802 73.3576 38.2802Z" fill="#000005"/>
<path d="M69.2404 39.2404C68.9604 39.3604 68.8404 39.7204 68.9604 40.0004C68.9604 40.0404 69.0004 40.0404 69.0004 40.0804C69.3204 40.6004 70.0004 40.2004 69.8404 39.6804C69.8404 39.4004 69.6004 39.2004 69.3204 39.2404C69.3204 39.2004 69.2804 39.2404 69.2404 39.2404Z" fill="#000005"/>
<path d="M74.3606 45.1607C74.3606 45.1607 81.2006 44.8407 81.7206 41.1607C82.2406 37.4807 75.8006 37.8407 72.6406 41.4407" fill="white"/>
<path d="M74.3595 45.8404C75.2795 45.8004 76.1595 45.6804 77.0795 45.4804C78.6395 45.1204 80.2395 44.6004 81.4795 43.4804C82.5995 42.4804 83.2395 40.6804 82.3595 39.3204C81.3995 37.8804 79.3195 37.7604 77.7995 37.9204C75.4795 38.2004 73.3595 39.3204 71.7995 41.0404C71.4795 41.4004 71.7995 41.8004 72.1595 41.9604C72.6395 42.1604 73.1595 42.0804 73.5195 41.7204C74.0795 41.0804 74.7595 40.5604 75.5195 40.1204C76.1595 39.7604 76.8795 39.4804 77.6395 39.3204C77.8395 39.2804 78.0395 39.2404 78.2395 39.2004C78.2395 39.2004 78.5595 39.1604 78.3595 39.2004H78.5595C78.7595 39.2004 78.9195 39.2004 79.1195 39.2004C79.1595 39.2004 79.4395 39.2404 79.1995 39.2004L79.4395 39.2404L79.6795 39.2804C79.9195 39.3204 79.5195 39.2004 79.7595 39.2804C79.8795 39.3204 79.9995 39.3604 80.1195 39.4404C79.9195 39.3604 80.1595 39.4404 80.1595 39.4804L80.3195 39.6004C80.4795 39.7204 80.2395 39.4804 80.3595 39.6404L80.4795 39.8004C80.4795 39.8004 80.5995 40.0004 80.5195 39.8804C80.5595 39.9604 80.5995 40.0004 80.5995 40.0804C80.6395 40.2004 80.6795 40.3204 80.7195 40.4004C80.7595 40.6804 80.7195 40.9204 80.6795 41.2004C80.5595 41.8004 80.2395 42.3204 79.7995 42.6804C79.5995 42.8404 79.3595 43.0004 79.1595 43.1604C78.9195 43.3204 78.6395 43.4404 78.3595 43.5604C77.7995 43.8004 77.2395 44.0004 76.6395 44.1204C76.0395 44.2404 75.4795 44.3604 74.8795 44.4404L74.5995 44.4804C74.5595 44.4804 74.5195 44.4804 74.4795 44.4804C74.2395 44.5204 74.7195 44.4804 74.5595 44.4804H74.3595C73.9595 44.4804 73.3595 44.6404 73.3595 45.1604C73.3595 45.6804 73.9995 45.8404 74.3595 45.8404Z" fill="#000005"/>
<path d="M86.2005 57.3199C86.2005 57.3199 89.8805 62.0799 82.6405 66.1599C82.6405 66.1599 82.9605 84.4399 74.2005 92.5999C74.2005 92.5999 66.3205 98.3199 56.4805 86.4799L67.9205 75.6799L75.5605 64.1199C75.5605 64.1199 77.0005 54.0799 81.2405 49.3599C85.4805 44.6399 89.2405 43.9599 89.6405 45.0799C90.0405 46.1999 84.6805 50.6399 84.6805 50.6399C84.6805 50.6399 87.4805 50.5599 88.7605 52.4399C90.0405 54.3199 88.8405 55.4799 88.8405 55.4799C88.8405 55.4799 90.0005 59.8399 87.4005 59.7199C87.4005 59.7199 87.4405 63.4799 83.3205 65.4399" fill="white"/>
<path d="M85.317 57.2008C85.357 57.2808 85.397 57.3208 85.477 57.4008C85.557 57.4808 85.437 57.3208 85.477 57.4408L85.557 57.6008C85.597 57.7208 85.677 57.8408 85.717 57.9608C85.997 58.6008 86.157 59.2808 86.157 59.9608C86.157 62.6808 83.877 64.5608 81.717 65.8008L81.637 65.8808C81.637 67.6008 81.557 69.2808 81.397 71.0008C81.077 74.7608 80.357 78.4808 79.197 82.0808C78.557 84.0408 77.757 85.9608 76.717 87.7608C76.197 88.6808 75.637 89.5208 74.957 90.3608C74.437 91.0408 73.877 91.6808 73.237 92.2408C72.077 93.1208 70.357 93.4808 68.917 93.5208C67.477 93.5608 65.997 93.2808 64.677 92.6808C62.517 91.6408 60.557 90.2008 58.917 88.4408C58.357 87.8408 57.797 87.2408 57.277 86.6008V86.8808L65.637 79.0008L67.797 76.9608C68.117 76.6808 68.437 76.4008 68.757 76.0808C68.997 75.7608 69.197 75.4408 69.397 75.1208L71.037 72.6408L75.077 66.5208L76.317 64.6408C76.437 64.4408 76.517 64.1608 76.557 63.9208C76.957 61.5208 77.597 59.1208 78.397 56.8008C78.917 55.2008 79.597 53.6808 80.397 52.2408C81.357 50.6008 82.557 49.1608 83.957 47.9208C85.197 46.8408 86.597 45.7608 88.197 45.2808C88.437 45.2008 88.677 45.1608 88.917 45.1208C88.997 45.1208 89.037 45.1208 89.157 45.0808H89.277C88.997 45.0808 89.437 45.1208 89.237 45.0808C89.037 45.0408 89.557 45.2008 89.077 45.0408C88.797 44.9608 88.877 44.9608 88.957 45.0008C88.877 44.9608 88.797 44.9208 88.717 44.8808C88.717 44.8808 88.717 44.8408 88.677 44.8408C88.717 44.9208 88.717 44.9608 88.717 45.0408C88.597 45.4408 88.397 45.8008 88.117 46.1208C87.717 46.6008 87.317 47.0808 86.877 47.4808C86.037 48.3208 85.197 49.0808 84.317 49.8408L83.837 50.2408C83.357 50.6408 85.117 51.0808 85.317 51.0808H85.437H85.757C85.797 51.0808 86.157 51.1208 86.037 51.1208C86.597 51.1608 87.077 51.4008 87.477 51.7608C88.317 52.5208 88.917 54.2008 88.037 55.0408C87.957 55.0808 87.957 55.1608 87.997 55.2408C88.277 56.3208 88.717 59.2808 86.917 59.2408C86.877 59.2408 86.557 59.2808 86.557 59.4008C86.557 61.8808 84.677 64.0008 82.557 65.0408C82.197 65.2008 82.997 65.6408 83.077 65.6808C83.437 65.8808 83.917 65.9608 84.317 65.8408C86.437 64.8008 88.437 62.5608 88.437 60.0408L88.077 60.2008C90.517 60.2408 90.277 57.3608 89.837 55.6808L89.797 55.8808C91.117 54.6008 89.957 52.5208 88.757 51.6008C87.397 50.6408 85.797 50.1208 84.117 50.1608L85.597 51.0008C87.237 49.7208 88.757 48.2408 90.037 46.6408C90.317 46.3208 90.517 45.9608 90.597 45.5608C90.597 45.1608 90.357 44.7608 89.957 44.6008C88.837 44.0008 87.517 43.9608 86.397 44.4408C84.717 45.1208 83.197 46.0808 81.917 47.3208C80.517 48.5608 79.317 50.0408 78.397 51.6808C76.837 54.4808 75.877 57.6408 75.157 60.7608C74.957 61.6408 74.757 62.5608 74.637 63.4408C74.597 63.6808 74.477 63.9208 74.317 64.1608L70.797 69.5208L67.237 74.9208C67.157 75.0408 67.077 75.2008 66.957 75.3208C67.077 75.1608 66.917 75.3608 66.837 75.4008L65.317 76.8008L55.757 85.8408L55.517 86.0408C55.437 86.1208 55.437 86.2408 55.517 86.3208C59.157 90.6808 64.357 94.7208 70.317 94.3608C71.677 94.2808 73.037 93.9608 74.237 93.3608C75.397 92.8008 76.157 91.7608 76.957 90.7608C80.157 86.6008 81.717 81.3208 82.637 76.2008C82.997 74.1208 83.237 72.0008 83.397 69.9208C83.437 69.2008 83.477 68.4808 83.517 67.7608C83.477 67.3608 83.477 66.9608 83.517 66.5608C83.517 66.5208 83.517 66.4808 83.517 66.4408C83.557 66.3208 83.397 66.6408 83.597 66.4008C83.797 66.2408 83.997 66.1208 84.237 66.0008C84.437 65.8808 84.597 65.7608 84.797 65.6008C85.157 65.3608 85.477 65.0808 85.797 64.7608C86.757 63.9608 87.437 62.8808 87.837 61.6808C88.197 60.2808 87.957 58.8008 87.157 57.5608C87.117 57.4808 87.077 57.4008 86.997 57.3208C86.637 57.0008 86.197 56.8008 85.717 56.7608C85.557 56.8408 85.037 56.8408 85.317 57.2008Z" fill="#000005"/>
<path d="M83.7589 66.3207C84.7189 66.3207 83.6789 64.6807 82.9989 64.6807C81.9989 64.6807 83.0389 66.3207 83.7589 66.3207Z" fill="#000005"/>
<path d="M84.0391 53.8008C84.0391 53.8008 87.1991 52.6808 88.8391 55.5208L84.0391 53.8008Z" fill="white"/>
<path d="M84.7175 54.56C85.2375 54.4 85.7575 54.32 86.3175 54.32C86.7975 54.32 87.3175 54.44 87.7575 54.64C87.9975 54.76 88.2375 54.88 88.4375 55.04C88.3175 54.96 88.5975 55.24 88.4375 55.04C88.5175 55.12 88.4775 55.08 88.3975 55L88.3575 54.96C88.3175 54.92 88.2775 54.84 88.1975 54.76C88.2375 54.84 88.2375 54.84 88.1975 54.76C88.2375 54.84 88.3175 54.92 88.3575 55C88.5975 55.4 88.9175 55.76 89.2775 56.08C89.3175 56.12 89.4775 56.28 89.5575 56.24C89.6375 56.2 89.4375 55.96 89.4375 55.96C88.9575 55.16 88.3175 54.4 87.5975 53.8C87.1575 53.44 86.6775 53.16 86.1575 52.96C85.4375 52.76 84.6375 52.72 83.9175 52.88C83.7575 52.92 83.5975 52.96 83.4375 53C83.3575 53.04 83.9175 53.8 83.9975 53.84C84.1575 54.04 84.3175 54.2 84.4775 54.36C84.4775 54.44 84.6375 54.6 84.7175 54.56Z" fill="#000005"/>
<path d="M119.48 67.04H157.96C159.4 67.04 160.6 68.2 160.6 69.68V85.2C160.6 86.64 159.44 87.84 157.96 87.84H119.48C118.04 87.84 116.84 86.68 116.84 85.2V69.68C116.88 68.24 118.04 67.04 119.48 67.04Z" fill="#68BA7F"/>
<path d="M157.561 87.3199H119.121C119.041 87.3199 119.081 87.2799 119.201 87.3199C118.881 87.2399 118.601 87.0799 118.401 86.8399C117.841 86.1999 117.841 85.4399 117.841 84.6799V70.8399C117.801 70.1999 117.841 69.5599 118.001 68.9599C118.321 68.1199 119.161 67.5199 120.041 67.5599H155.641C156.521 67.5599 157.441 67.5199 158.321 67.5599C158.121 67.5199 158.441 67.5599 158.321 67.5599C158.601 67.6399 158.841 67.7999 159.041 68.0399C159.401 68.4799 159.601 68.9999 159.601 69.5599C159.601 70.1599 159.601 70.7999 159.601 71.3999C159.601 75.8799 159.601 80.3599 159.601 84.8399C159.601 86.0399 158.881 87.2799 157.561 87.3199C157.241 87.3199 156.841 87.5199 157.081 87.8399C157.321 88.1599 158.001 88.2799 158.401 88.2799C160.081 88.2399 161.561 87.0799 161.601 85.2799C161.601 84.6399 161.601 83.9999 161.601 83.3599V75.4799C161.601 73.6399 161.601 71.7599 161.601 69.9199C161.601 68.1199 160.201 66.9199 158.481 66.5999C158.001 66.5199 157.521 66.5199 157.081 66.5199H129.161C125.881 66.5199 122.561 66.5199 119.281 66.5199C118.201 66.4799 117.161 66.9599 116.481 67.7999C115.961 68.5199 115.961 69.3199 115.961 70.1599V84.2399C115.961 85.0799 115.961 85.8799 116.441 86.5999C117.241 87.7999 118.721 88.2399 120.081 88.2399C123.321 88.2399 126.521 88.2399 129.761 88.2399H158.401C158.721 88.2399 159.121 88.0399 158.881 87.6799C158.641 87.3199 157.961 87.3199 157.561 87.3199Z" fill="#68BA7F"/>
<path d="M153.601 70.7196C154.601 71.7996 155.721 72.7196 156.961 73.4796C157.121 73.5996 157.321 73.6396 157.521 73.5996C157.681 73.5596 157.761 73.3996 157.761 73.2396C157.681 72.7596 157.401 72.3196 157.001 72.0796L156.601 71.8396L156.401 71.7196L156.321 71.6796C156.201 71.5996 156.321 71.6796 156.361 71.7196C156.121 71.5596 155.841 71.3596 155.601 71.1596C155.361 70.9596 155.121 70.7596 154.921 70.5596C154.881 70.5196 154.841 70.5196 154.841 70.4796C154.841 70.4796 155.041 70.6396 154.921 70.5596L154.761 70.3996L154.401 70.0396C154.241 69.8396 154.041 69.7196 153.801 69.5996C153.681 69.5596 153.441 69.5196 153.321 69.6396C153.041 69.9596 153.401 70.4796 153.601 70.7196Z" fill="#000005"/>
<path d="M153.92 73.9602C155.2 73.0402 156.4 72.0802 157.52 71.0002C157.8 70.6402 157.8 70.1202 157.48 69.7602C157.24 69.4802 156.68 69.0402 156.32 69.4002C155.2 70.4802 154 71.4402 152.72 72.3602C152.32 72.6402 152.52 73.2802 152.76 73.5602C153 73.8402 153.52 74.2402 153.92 73.9602Z" fill="#000005"/>
<path d="M129.881 73.6395C128.561 73.9995 127.321 74.6395 126.321 75.5595C125.761 76.0395 125.321 76.5995 124.961 77.2795C124.761 77.8795 124.801 78.5195 125.081 79.0795C125.321 79.7595 125.681 80.3595 126.201 80.8395C126.641 81.1595 127.121 81.3995 127.641 81.4795C129.041 81.6795 130.441 81.5195 131.761 81.0395C133.001 80.5995 134.481 79.8395 135.241 78.7595C135.561 78.2795 135.681 77.6795 135.481 77.1195C135.281 76.3595 134.921 75.6795 134.401 75.1195C133.241 74.0795 132.161 76.0795 132.041 76.9995C131.841 78.3595 132.601 79.9595 133.481 80.9595C135.521 83.3595 138.841 81.4795 140.481 79.5995C141.281 78.7195 141.921 77.5195 141.721 76.2795C141.561 75.5195 141.281 74.7995 140.841 74.1195C140.641 73.6795 140.241 73.3195 139.801 73.1595C139.201 73.0795 138.641 73.4395 138.441 73.9995C138.201 74.6395 138.161 75.3595 138.281 76.0395C138.441 77.6395 138.961 79.1595 139.841 80.4795C140.521 81.4795 141.601 82.3195 142.881 82.1995C144.161 82.0795 145.121 81.0395 145.681 79.9595C145.921 79.4795 146.081 78.9595 146.041 78.3995C145.921 77.6395 145.601 76.8795 145.161 76.2795C144.921 75.8395 144.361 75.6395 143.921 75.8795C143.921 75.8795 143.881 75.8795 143.881 75.9195C143.401 76.2395 143.201 76.8395 143.361 77.3995C144.041 80.3195 146.921 82.1595 149.881 81.4795C150.401 81.3595 150.881 81.1595 151.361 80.9195C151.561 80.7995 150.641 79.0395 150.521 79.1195C148.841 80.0795 146.761 80.0395 145.081 79.0795C144.921 78.9995 144.761 78.8795 144.601 78.7595C144.441 78.6395 144.161 78.2795 144.001 78.1995L144.121 78.4795C144.241 78.8395 144.281 78.8795 144.241 78.5995C144.241 78.4795 144.281 78.3595 144.321 78.2395C144.401 77.9995 144.601 77.7995 144.801 77.6795C144.961 77.5595 145.161 77.5195 145.361 77.5195C145.481 77.5195 145.561 77.5995 145.681 77.5995L145.761 77.6795C145.361 76.5595 145.201 76.2395 145.281 76.6795C145.281 77.1195 145.161 77.5195 145.041 77.9195C144.281 79.5995 142.401 80.9595 140.601 79.9195C140.441 79.8395 140.281 79.7195 140.121 79.5995C139.921 79.4395 139.801 79.1995 139.601 79.0395C139.401 78.8795 139.841 79.1995 139.641 79.1595C139.601 79.0395 139.561 78.9595 139.561 78.8395C139.481 78.5195 139.441 78.1995 139.401 77.8795C139.321 76.9595 139.161 75.6795 140.081 75.0795C140.401 74.8795 140.841 74.8395 141.161 75.0395C141.241 75.0795 141.281 75.1595 141.361 75.1995C141.681 75.3995 141.001 73.9995 141.041 74.5595C141.041 74.7595 141.041 74.9595 141.041 75.1995C140.881 76.1995 140.401 77.1195 139.681 77.7995C138.401 79.1595 136.201 80.7195 134.241 80.0395C133.841 79.8795 133.441 79.6395 133.121 79.3595C133.041 79.2795 132.961 79.1595 132.881 79.0795C132.961 78.9995 133.121 79.9595 133.081 79.4395C133.081 79.1995 133.081 78.9195 133.081 78.6795C133.161 77.8795 133.801 76.4395 134.841 76.5595C135.281 76.5995 135.521 77.1995 135.081 76.3195C134.681 75.4795 134.881 75.7595 134.841 76.0795C134.841 76.1995 134.801 76.3195 134.761 76.4395C134.521 76.9195 134.201 77.3195 133.761 77.6395C132.041 78.9995 129.881 79.7195 127.681 79.6795C127.201 79.6795 126.681 79.5995 126.241 79.3995C126.041 79.3195 125.841 79.2395 125.681 79.0795C125.601 79.0395 125.521 78.9195 125.441 78.8795C125.161 78.5995 125.281 78.8795 125.841 79.7595C125.841 79.6795 125.801 79.5995 125.841 79.5195C125.841 78.4395 127.041 77.3595 127.841 76.7595C128.721 76.0795 129.761 75.5595 130.841 75.2795C130.801 75.4395 130.161 73.5595 129.881 73.6395Z" fill="#000005"/>
<path d="M122.16 109.68C122.16 109.52 122.48 106.72 122.68 106.76C122.88 106.8 123.08 109.84 123.08 109.84L122.16 109.68Z" fill="white"/>
<path d="M123.121 109.44C123.121 109.12 123.161 108.8 123.241 108.48C123.321 108 123.361 107.48 123.481 107C123.481 106.92 123.521 106.8 123.561 106.72C123.601 106.6 123.561 106.68 123.561 106.68C123.561 106.68 123.481 106.84 123.521 106.76V106.72C123.401 106.88 123.241 107 123.081 107.12L122.601 107.32C121.881 107.12 121.641 107.12 121.841 107.28L121.761 107.16C121.801 107.24 121.841 107.36 121.841 107.44C121.881 107.64 121.881 107.84 121.921 108C121.961 108.48 122.001 108.92 122.041 109.4V109.28C122.041 109.56 122.081 109.84 122.081 110.08L123.761 109.32L122.841 109.12C122.361 109.04 121.881 109.16 121.481 109.44C121.361 109.52 121.161 109.68 121.161 109.88C121.161 110.04 121.241 110.16 121.361 110.2L122.281 110.4C122.641 110.48 122.961 110.4 123.281 110.24C123.441 110.16 123.561 110.08 123.681 110C123.761 109.92 123.921 109.76 123.921 109.64C123.881 108.72 123.801 107.76 123.641 106.84C123.641 106.64 123.561 106.48 123.441 106.36C123.361 106.28 123.241 106.24 123.121 106.24C122.801 106.24 122.441 106.32 122.161 106.48C121.921 106.6 121.761 106.76 121.601 106.96C121.401 107.44 121.321 107.96 121.281 108.52C121.241 108.84 121.201 109.12 121.161 109.44C121.161 109.6 121.121 109.76 121.121 109.92C121.121 110.32 121.721 110.28 121.961 110.2C122.201 110.16 122.441 110.04 122.681 109.88C122.921 109.8 123.121 109.64 123.121 109.44Z" fill="#68BA7F"/>
<path d="M121.48 117.16C121.48 117.16 121.12 119.16 122.72 118.96C124.32 118.76 124.28 116.88 124.28 116.88L121.48 117.16Z" fill="white"/>
<path d="M120.6 117.6C120.52 118.16 120.52 119 121.08 119.36C121.32 119.52 121.64 119.56 121.92 119.52C122.48 119.44 123 119.24 123.44 118.96C124.12 118.64 124.68 118.04 124.96 117.32C125.08 117 125.12 116.72 125.12 116.4C125.08 116.36 125 116.36 124.96 116.36L122.52 116.6L122.16 116.64C121.96 116.68 121.76 116.76 121.6 116.84C121.36 116.96 121.16 117.08 120.96 117.24C120.84 117.32 120.36 117.72 120.8 117.68L123.24 117.44L123.6 117.4L123.44 117.36V117.4V117.32C123.44 117.64 123.36 117.96 123.24 118.24C123.2 118.36 123.16 118.44 123.08 118.52L123.04 118.6C123.04 118.64 123.08 118.52 123.04 118.6C123 118.64 122.96 118.68 122.92 118.72C122.84 118.8 123.04 118.64 123 118.68L122.96 118.72L123.12 118.6C123.08 118.64 123.08 118.64 123.2 118.56L123.28 118.52C123.24 118.52 123.52 118.4 123.44 118.44C123.36 118.48 123.68 118.32 123.56 118.4C123.52 118.4 123.76 118.32 123.64 118.36H123.6C123.52 118.4 123.72 118.36 123.64 118.36C123.56 118.36 123.48 118.36 123.4 118.4H123.36H123.2C123.08 118.4 122.96 118.36 122.84 118.28L122.88 118.32C122.4 118.04 122.32 117.4 122.32 116.88V116.96C122.32 116.88 122.32 116.76 122.36 116.68C122.4 116.4 121.72 116.76 121.6 116.8C121.36 116.92 121.16 117.04 120.96 117.2L120.8 117.32C120.72 117.44 120.64 117.52 120.6 117.6Z" fill="#68BA7F"/>
<path d="M119.279 115.68L117.879 117.8H127.519C127.519 117.8 125.799 116.32 125.799 115.68C125.799 115.04 126.279 110.96 124.479 109.48C122.679 108 120.439 109.44 119.599 110.8C118.759 112.16 119.279 115.68 119.279 115.68Z" fill="white"/>
<path d="M118.518 115.08L117.118 117.2C116.958 117.44 117.238 117.92 117.358 118.08C117.558 118.36 117.878 118.6 118.238 118.64H127.878C128.758 118.64 128.038 117.52 127.758 117.24L127.438 116.96C127.238 116.76 127.598 117.12 127.398 116.92L127.278 116.8C127.118 116.64 126.998 116.48 126.838 116.36C126.838 116.36 126.638 116.08 126.758 116.24L126.638 116.08L126.598 116C126.638 116.08 126.638 116.08 126.598 116C126.598 116.04 126.638 116.12 126.638 116.16L126.678 115.64C126.798 114.2 126.678 112.72 126.318 111.32C125.718 109.48 124.118 107.84 122.038 108.08C121.078 108.24 120.238 108.68 119.558 109.4C118.998 109.96 118.638 110.64 118.518 111.4C118.318 112.76 118.358 114.12 118.558 115.44C118.678 115.92 119.038 116.32 119.518 116.48C119.918 116.6 120.158 116.36 120.118 115.96C119.958 114.96 119.918 113.96 119.998 112.96C119.998 112.36 120.198 111.76 120.558 111.24C121.078 110.56 121.758 110.08 122.558 109.8C122.958 109.68 123.358 109.64 123.758 109.76C123.918 109.8 124.078 109.88 124.198 109.96C124.118 109.92 124.478 110.2 124.398 110.12C124.318 110.04 124.598 110.36 124.478 110.24C124.638 110.44 124.718 110.68 124.798 110.92C124.918 111.24 124.958 111.56 125.038 111.88C125.158 112.96 125.158 114.08 125.078 115.16C125.078 116.48 126.438 117.6 127.358 118.4L127.238 117H117.598L118.718 118.44L120.118 116.32C120.398 115.72 118.998 114.32 118.518 115.08Z" fill="#68BA7F"/>
<path d="M154.598 134.04C154.678 133.84 156.998 130.4 157.238 130.6C157.478 130.8 155.638 134.92 155.638 134.92L154.598 134.04Z" fill="white"/>
<path d="M155.561 134.28C155.841 133.84 156.121 133.4 156.441 133C156.681 132.64 156.921 132.32 157.161 132C157.281 131.84 157.401 131.68 157.521 131.56L157.681 131.36C157.721 131.32 157.721 131.32 157.761 131.28C157.681 131.44 157.721 131.36 157.761 131.28C157.801 131.2 157.921 131.12 158.001 131.04C158.001 131.04 158.041 131.04 158.041 131C158.041 130.96 157.881 131.12 157.921 131.08C157.961 131.04 158.161 131.04 157.721 131.16L157.081 131C156.721 131.08 156.521 131 156.401 130.76C156.361 130.72 156.321 130.64 156.361 130.56C156.361 130.64 156.321 130.72 156.321 130.8L156.281 130.96L156.241 131.04C156.201 131.16 156.281 130.92 156.241 131.04C156.001 131.76 155.721 132.48 155.441 133.16C155.241 133.68 155.041 134.16 154.801 134.68L156.481 134.56L155.441 133.72C155.041 133.44 154.481 133.4 154.041 133.6C153.801 133.68 153.681 133.92 153.761 134.16C153.801 134.28 153.881 134.36 153.961 134.4L155.001 135.24C155.281 135.44 155.641 135.52 155.961 135.48C156.201 135.48 156.561 135.36 156.681 135.12C157.241 133.92 157.721 132.68 158.161 131.44C158.281 131.16 158.361 130.84 158.321 130.56C158.161 130.12 157.601 130 157.201 130C156.881 130 156.561 130.08 156.321 130.28C156.081 130.52 155.841 130.76 155.641 131.04C155.361 131.36 155.121 131.72 154.881 132.08C154.641 132.44 154.361 132.84 154.081 133.2C153.921 133.4 153.801 133.6 153.681 133.8C153.241 134.6 155.201 134.96 155.561 134.28Z" fill="#68BA7F"/>
<path d="M148.639 143.36C148.639 143.36 146.839 145.76 149.039 146.56C151.239 147.36 152.519 144.88 152.519 144.88L148.639 143.36Z" fill="white"/>
<path d="M147.798 143.521C147.238 144.241 146.678 145.481 147.278 146.321C147.798 147.041 148.838 147.281 149.678 147.201C150.758 147.081 151.758 146.561 152.558 145.801C152.918 145.481 153.198 145.121 153.398 144.681C153.438 144.601 153.518 144.441 153.398 144.401L149.998 143.081L149.518 142.881C149.078 142.801 148.638 142.881 148.278 143.121C148.198 143.161 147.478 143.641 147.798 143.801L151.198 145.121L151.678 145.321V145.041C151.518 145.321 151.358 145.561 151.158 145.801C151.158 145.801 151.078 145.841 151.078 145.881L151.118 145.841L150.958 146.001L150.798 146.161C150.758 146.201 150.718 146.201 150.718 146.241C150.758 146.201 150.878 146.121 150.758 146.201C150.638 146.281 150.438 146.401 150.758 146.241C150.398 146.401 150.678 146.281 150.758 146.241C150.678 146.281 150.438 146.361 150.798 146.241L150.678 146.281C150.518 146.321 150.918 146.241 150.718 146.281C150.638 146.281 150.518 146.281 150.758 146.281H150.638C150.598 146.281 150.558 146.281 150.518 146.281C150.438 146.281 150.678 146.281 150.518 146.281C150.438 146.281 150.318 146.281 150.238 146.241L150.078 146.201L149.998 146.161C150.038 146.161 150.038 146.161 149.958 146.161C149.798 146.081 149.598 146.001 149.478 145.921C149.398 145.881 149.358 145.841 149.278 145.761C149.238 145.721 149.198 145.681 149.158 145.641C149.078 145.521 148.998 145.401 148.958 145.241C148.958 145.201 148.918 145.121 148.918 145.081V144.961C148.918 144.961 148.918 144.921 148.918 144.881C148.918 144.601 148.998 144.321 149.078 144.081C149.118 143.961 149.198 143.841 149.238 143.681C149.238 143.641 149.318 143.561 149.238 143.681L149.278 143.601C149.318 143.561 149.318 143.481 149.358 143.441C149.398 143.401 149.478 143.241 149.558 143.161C149.838 142.801 149.238 142.801 149.038 142.841C148.558 142.921 148.118 143.161 147.798 143.521Z" fill="#68BA7F"/>
<path d="M146.76 139.96L143.52 141.8L156.12 148.28C156.12 148.28 154.88 145.2 155.32 144.36C155.76 143.52 159.16 138.52 157.76 135.36C156.36 132.2 152.52 132.6 150.48 133.76C148.44 134.92 146.76 139.96 146.76 139.96Z" fill="white"/>
<path d="M146.159 139.48L142.919 141.32C142.639 141.44 142.479 141.76 142.599 142.04C142.639 142.2 142.759 142.32 142.919 142.36L153.959 148.04L155.519 148.84C155.879 148.96 156.279 148.92 156.639 148.76C156.839 148.64 157.239 148.36 157.119 148.04C156.839 147.32 156.599 146.6 156.399 145.88C156.279 145.44 156.199 145 156.239 144.56C156.239 144.52 156.239 144.48 156.279 144.44C156.279 144.44 156.239 144.56 156.279 144.48C156.319 144.44 156.319 144.4 156.359 144.36L156.599 143.96C157.759 142 158.919 139.88 159.079 137.56C159.239 136.32 158.919 135.08 158.159 134.08C157.359 133.12 156.199 132.48 154.959 132.32C152.719 132 150.079 132.68 148.599 134.52C147.359 136.16 146.399 138.04 145.799 140C145.639 140.44 146.319 140.68 146.639 140.64C147.119 140.68 147.559 140.4 147.759 139.92L147.919 139.52C147.959 139.4 147.959 139.44 147.959 139.44C147.999 139.36 148.039 139.28 148.039 139.2C148.119 139 148.199 138.8 148.279 138.6C148.679 137.64 149.159 136.68 149.719 135.8C149.959 135.4 150.279 135 150.599 134.64C150.839 134.4 151.119 134.2 151.439 134.04C152.239 133.68 153.119 133.52 153.999 133.56C154.959 133.6 155.879 134.12 156.479 134.88C157.079 135.8 157.319 136.88 157.079 137.96C156.759 140 155.759 141.88 154.719 143.64C154.519 143.92 154.399 144.2 154.319 144.52C154.239 145.04 154.279 145.52 154.439 146.04C154.639 146.84 154.879 147.68 155.199 148.44L156.759 147.64L145.679 142L144.119 141.2V142.24L147.359 140.4C147.639 140.28 147.799 139.92 147.679 139.64C147.639 139.56 147.599 139.48 147.519 139.44C147.159 139.12 146.559 139.28 146.159 139.48Z" fill="#68BA7F"/>
<path d="M38.1591 19.5601C38.0791 19.4401 37.2791 16.7201 37.4391 16.6801C37.5991 16.6401 39.0391 19.3601 39.0391 19.3601L38.1591 19.5601Z" fill="white"/>
<path d="M39.1214 19.8803C39.0014 19.5603 38.8814 19.2003 38.8014 18.8803C38.6414 18.4003 38.5214 17.8803 38.4014 17.4003C38.4014 17.3603 38.3214 17.0803 38.4014 17.0403H38.3614L38.0814 17.0003L37.6814 16.8803L36.9614 16.6003C36.8014 16.5603 36.6814 16.4803 36.5614 16.4003C36.5614 16.4003 36.5614 16.4003 36.6014 16.4403L36.6814 16.5203C36.7214 16.6003 36.8014 16.6803 36.8414 16.7603C37.3214 17.5203 37.7614 18.2803 38.1614 19.0803H38.2014L37.2814 19.2003C37.2014 19.2003 37.3214 19.2803 37.3614 19.3203C37.5214 19.4003 37.7214 19.4803 37.9214 19.5603C38.1614 19.6403 38.4014 19.7203 38.6414 19.8003C38.8014 19.8803 38.9214 19.8803 39.0814 19.8803L40.0014 19.6803H40.0414C39.6414 18.8803 39.2014 18.0803 38.6814 17.2803C38.6014 17.1203 38.4814 17.0003 38.3214 16.8803C38.0014 16.6803 37.6414 16.5603 37.2414 16.4403C37.0414 16.3603 36.8414 16.3203 36.6414 16.2803C36.6014 16.2803 36.5614 16.2803 36.5214 16.2803C36.4414 16.2803 36.4414 16.3203 36.4414 16.4003C36.4414 16.6003 36.4814 16.8003 36.5214 16.9603C36.6014 17.2403 36.6414 17.5203 36.7614 17.8003C36.8814 18.0803 36.9214 18.4003 37.0414 18.6803C37.0814 18.8403 37.1214 19.0003 37.2014 19.1603C37.2414 19.2403 37.4014 19.2803 37.4414 19.3203C37.6414 19.4003 37.8814 19.5203 38.0814 19.6003C38.3214 19.6803 38.5214 19.7603 38.7614 19.8003C38.9214 19.8803 39.0014 19.8803 39.1214 19.8803Z" fill="#68BA7F"/>
<path d="M40.5586 26.6803C40.5586 26.6803 41.0786 28.6403 42.4386 27.8403C43.7986 27.0403 43.0386 25.2803 43.0386 25.2803L40.5586 26.6803Z" fill="white"/>
<path d="M39.6002 27.0001C39.6402 27.2001 39.7202 27.4401 39.8402 27.6001C40.0802 28.1201 40.5202 28.5201 41.0402 28.6801C42.0002 28.8401 43.0002 28.5201 43.6002 27.7601C44.0002 27.2801 44.2002 26.6801 44.1602 26.0801C44.1602 25.7201 44.0802 25.3601 43.9202 25.0001C43.6802 24.4801 42.9202 24.5601 42.5202 24.8001L40.4002 26.0001L40.0802 26.1601C39.8802 26.2801 39.7202 26.4401 39.6002 26.6401C39.5202 26.8001 39.5602 27.0001 39.6802 27.1601C40.0802 27.4401 40.6002 27.4801 41.0002 27.2401L43.1602 26.0001L43.4802 25.8401L42.0802 25.6401C42.2002 25.8801 42.2402 26.1601 42.2802 26.4401V26.2801C42.3202 26.5601 42.2802 26.8001 42.2402 27.0801L42.2802 26.9201C42.2402 27.0801 42.1602 27.2401 42.0802 27.3601L42.2002 27.2001C42.1602 27.2801 42.1202 27.3201 42.0802 27.3601L42.0002 27.4401C42.2002 27.2001 42.1202 27.3201 42.0402 27.4001L41.9602 27.4801C41.8002 27.6001 42.1602 27.3601 42.0402 27.4401C41.6802 27.6001 41.9202 27.5201 42.0402 27.4401L41.9602 27.4801C41.8802 27.5201 41.7602 27.4801 42.1202 27.4401H42.0402C41.9602 27.4401 41.8802 27.4001 42.2002 27.4401H42.0002C41.8802 27.4401 42.2402 27.4801 42.1202 27.4801C42.0802 27.4801 42.0002 27.4401 41.9602 27.4401L42.1602 27.5201C42.0802 27.4801 42.0002 27.4401 41.9202 27.3601L42.0802 27.4801C41.9202 27.3201 41.8002 27.1601 41.6802 27.0001L41.7602 27.1601C41.6402 26.9601 41.5602 26.7601 41.4802 26.5201C41.4002 26.3601 41.2802 26.2001 41.0802 26.1601C40.8402 26.1201 40.6002 26.1201 40.3602 26.2001C39.9602 26.2001 39.4802 26.5201 39.6002 27.0001Z" fill="#68BA7F"/>
<path d="M37.9578 26.24L37.5578 28.76L46.3578 24.84C46.3578 24.84 44.1978 24.2 43.9178 23.6C43.6378 23 42.4378 19.08 40.1978 18.48C37.9578 17.88 36.5178 20.08 36.2378 21.64C35.9578 23.2 37.9578 26.24 37.9578 26.24Z" fill="white"/>
<path d="M37.2395 25.5604L36.8395 28.0404C36.7595 28.6004 37.5995 29.7204 38.1995 29.4404L45.8795 26.0004L46.9595 25.5204C47.2395 25.4004 46.8795 24.8004 46.7995 24.6804C46.5995 24.3204 46.2795 24.0804 45.9195 23.9604C45.4395 23.8004 44.9195 23.6404 44.4795 23.4004C44.3595 23.3604 44.2395 23.2804 44.1595 23.2004C44.2795 23.3604 44.3995 23.4804 44.5195 23.6404C44.4395 23.5204 44.5995 23.8404 44.5595 23.7204C44.5195 23.6004 44.3995 23.2804 44.3195 23.0804C43.7195 21.5204 42.9595 20.0004 41.7595 18.8004C40.5595 17.6004 38.6795 16.9604 37.1995 18.0804C35.9195 19.0404 35.3195 20.6404 35.6395 22.2004C35.9995 23.6404 36.6395 25.0004 37.4795 26.2404C37.6395 26.5204 38.1195 27.0804 38.5195 26.9604C38.9195 26.8404 38.5995 26.2804 38.4795 26.0804L38.3595 25.9204L38.2395 25.7204C38.1595 25.5604 38.0795 25.4004 37.9995 25.2804C37.6395 24.6404 37.3595 24.0004 37.1595 23.3204C36.7995 22.0004 37.2795 20.5604 38.3995 19.7204C39.0395 19.2004 39.8795 19.0004 40.6395 19.2404C41.1195 19.4004 41.5195 19.7604 41.7595 20.2004C42.3595 21.1204 42.7995 22.1204 43.1595 23.1204C43.7195 24.6004 45.3195 25.1604 46.7195 25.6004L45.6795 24.0404L37.9995 27.4804L36.9195 27.9604L38.2795 29.3604L38.6795 26.8804C38.7595 26.4404 38.3995 26.0004 38.1195 25.7604C37.9595 25.6404 37.2795 25.1604 37.2395 25.5604Z" fill="#68BA7F"/>
<path d="M40.3594 95.8005C40.4394 95.6405 42.7194 92.4405 42.9194 92.6005C43.1194 92.7605 41.3194 96.6405 41.3194 96.6405L40.3594 95.8005Z" fill="white"/>
<path d="M41.0007 96.5205C41.2807 96.1205 41.5607 95.7205 41.8407 95.3205C42.2407 94.7205 42.6807 94.1605 43.1607 93.6005L43.2807 93.4805L43.3207 93.4405C43.2807 93.4805 43.1607 93.5605 43.2407 93.5205L43.3207 93.4805C43.3207 93.4805 43.1607 93.5205 43.2007 93.5205H43.0407L42.2007 92.7605C42.1607 92.5205 42.1207 92.4405 42.1207 92.5205C42.1207 92.4805 42.1207 92.2005 42.1207 92.3605C42.1207 92.5205 42.1607 92.2005 42.1607 92.2405C42.1607 92.2805 42.1607 92.2805 42.1607 92.3205C42.1207 92.4405 42.0807 92.5605 42.0407 92.6805C41.8007 93.3605 41.5207 94.0405 41.2007 94.6805C41.0007 95.1605 40.8007 95.6405 40.5607 96.0805L41.5607 95.8805L40.6007 95.0405C40.3607 94.8005 39.9607 94.8005 39.7207 95.0405C39.6807 95.0805 39.6007 95.1605 39.6007 95.2405C39.4807 95.7205 39.6807 96.2405 40.1207 96.5205L41.0807 97.3605C41.2407 97.4805 41.4807 97.5605 41.6807 97.5205C41.8807 97.4805 42.0007 97.3205 42.0807 97.1605C42.6407 96.0405 43.1207 94.8805 43.5607 93.6805C43.6807 93.3605 43.7607 93.0405 43.7207 92.7205C43.6007 92.1205 42.8807 91.2805 42.2407 91.8005C42.0007 92.0005 41.7607 92.2405 41.5607 92.5205C41.3207 92.8405 41.0807 93.1605 40.8407 93.4805C40.6007 93.8005 40.3207 94.1605 40.0807 94.5205C39.9607 94.6805 39.8007 94.8805 39.6807 95.0805C39.4807 95.5205 39.5607 96.0405 39.9207 96.4005C40.0807 96.5605 40.2807 96.6805 40.5207 96.7205C40.6807 96.7205 40.8807 96.6405 41.0007 96.5205Z" fill="#68BA7F"/>
<path d="M34.5196 104.44C34.5196 104.44 32.7596 106.64 34.8396 107.48C36.9196 108.32 38.1596 105.96 38.1596 105.96L34.5196 104.44Z" fill="white"/>
<path d="M33.8811 103.68C33.6811 103.96 33.5211 104.24 33.3611 104.56C33.2411 104.84 33.1611 105.16 33.1211 105.48C33.1211 106.04 33.2411 106.56 33.5211 107.04C34.0411 107.96 35.0011 108.52 36.0411 108.52C36.7211 108.48 37.3611 108.2 37.8811 107.72C38.2011 107.44 38.4811 107.08 38.6811 106.72C38.7611 106.4 38.7211 106.08 38.5611 105.84C38.4011 105.52 38.1611 105.24 37.8411 105.12L34.6811 103.8L34.2411 103.6C34.1211 103.52 33.9611 103.56 33.8811 103.68C33.8011 103.84 33.8011 104.04 33.8811 104.24C34.0011 104.72 34.3211 105.08 34.7211 105.32L37.8811 106.64L38.3211 106.84L37.4811 105.24C37.3211 105.48 37.1611 105.72 36.9611 105.92C36.8811 106 37.0411 105.84 36.9611 105.92L36.9211 105.96C36.8811 106 36.8411 106.04 36.8011 106.08C36.6811 106.16 36.6011 106.28 36.4811 106.36C36.3611 106.44 36.2411 106.52 36.1211 106.6L35.9611 106.68L35.8411 106.72C35.8011 106.72 35.6411 106.76 35.7611 106.72C35.6011 106.76 35.4811 106.76 35.3211 106.76C35.2411 106.76 35.1611 106.76 35.0811 106.76H34.9611C34.8811 106.76 34.8811 106.76 34.9611 106.76H34.8811L34.6411 106.68C34.5611 106.64 34.4411 106.6 34.3611 106.56L34.2411 106.48C34.1211 106.4 34.3611 106.6 34.2811 106.52C34.2011 106.44 34.1211 106.32 34.3211 106.56C34.2811 106.52 34.2811 106.52 34.2411 106.48C34.4011 106.64 34.3611 106.68 34.3211 106.6C34.2811 106.52 34.4411 106.84 34.4011 106.72C34.3611 106.6 34.4811 106.96 34.4411 106.84V106.8C34.4011 106.68 34.4811 107 34.4411 106.88C34.4411 106.84 34.4411 106.8 34.4411 106.8C34.4411 106.76 34.4411 106.76 34.4411 106.72V106.8C34.4811 106.68 34.4811 106.56 34.4811 106.44C34.4811 106.36 34.5211 106.32 34.5211 106.24C34.4411 106.36 34.4811 106.32 34.5211 106.28C34.5611 106.24 34.5611 106.2 34.5611 106.16C34.6811 105.84 34.8811 105.52 35.0811 105.24C35.1611 105.12 35.1211 104.84 35.0811 104.68C35.0011 104.44 34.8811 104.2 34.7211 104C34.5611 103.72 34.1611 103.32 33.8811 103.68Z" fill="#68BA7F"/>
<path d="M32.7997 101.16L29.6797 102.84L41.3997 109.24C41.3997 109.24 40.2797 106.32 40.7197 105.52C41.1597 104.72 44.4797 100.08 43.2397 97.08C41.9997 94.08 38.3597 94.36 36.3997 95.4C34.4397 96.44 32.7997 101.16 32.7997 101.16Z" fill="white"/>
<path d="M31.9595 100.921L28.8395 102.601C28.5195 102.761 28.7595 103.001 28.9595 103.081L39.2395 108.681L40.6795 109.481C40.9195 109.641 42.5995 109.801 42.3595 109.201C42.0795 108.521 41.8795 107.801 41.7195 107.081C41.3995 106.441 41.5195 105.681 41.9995 105.121C43.1195 103.321 44.2395 101.321 44.4795 99.1606C44.6395 98.0406 44.3195 96.8806 43.5995 96.0006C42.7995 95.1206 41.7195 94.5606 40.5595 94.4006C38.4795 94.0406 35.8795 94.4406 34.4395 96.1606C33.2395 97.5606 32.3995 99.4006 31.7595 101.121C31.5995 101.521 33.5195 101.841 33.7595 101.241C34.2795 99.8806 34.9195 98.5606 35.7195 97.3206C36.1595 96.5206 36.8395 95.8806 37.6395 95.4806C37.9995 95.3206 38.3995 95.2006 38.7595 95.1206C39.1195 95.0406 39.4795 95.0406 39.8395 95.0806C40.7195 95.2006 41.5195 95.7206 41.9595 96.4806C42.4795 97.4006 42.6795 98.4806 42.4395 99.5206C42.0795 101.481 41.0795 103.201 40.0395 104.881C39.8795 105.121 39.7195 105.361 39.6395 105.641C39.5995 106.081 39.5995 106.561 39.7595 107.001C39.9195 107.761 40.1595 108.521 40.4395 109.241L42.1195 108.961L31.8395 103.361L30.3995 102.561L30.5195 103.041L33.6395 101.361C34.0395 101.161 33.5195 100.881 33.3195 100.801C32.8795 100.721 32.3995 100.761 31.9595 100.921Z" fill="#68BA7F"/>
<path d="M162.119 100.72C162.079 100.6 161.239 97.8803 161.399 97.8403C161.559 97.8003 162.999 100.52 162.999 100.52L162.119 100.72Z" fill="white"/>
<path d="M162.72 100.64C162.72 100.6 162.68 100.56 162.68 100.56L162.72 100.72V100.64V100.56C162.64 100.36 162.6 100.16 162.52 99.92C162.36 99.44 162.24 98.96 162.12 98.48C162.12 98.44 162.08 98.36 162.08 98.32V98.28C162.08 98.16 162.12 98.52 162.08 98.4C162.08 98.36 162.08 98.32 162.08 98.32C162.08 98.32 162.08 98.2 162.08 98.36C162.08 98.52 162.08 98.44 162.08 98.4L162 98.56L161.88 98.68L161.72 98.72H161.56C161.6 98.72 161.36 98.64 161.4 98.68C161.44 98.72 161.16 98.52 161.24 98.56C161.32 98.6 161.04 98.32 161.08 98.44L161.12 98.48C161.24 98.64 160.96 98.24 161.04 98.36L161.12 98.48C161.28 98.68 161.4 98.92 161.52 99.12C161.8 99.56 162.04 100.04 162.28 100.52C162.28 100.56 162.32 100.6 162.36 100.64L162.4 100.68L162.32 100.52C162.32 100.56 162.36 100.56 162.36 100.6L162.6 99.64L161.68 99.84C161.24 99.92 161.28 100.48 161.44 100.8C161.56 101.04 161.72 101.24 161.92 101.44C162.08 101.56 162.28 101.64 162.48 101.64L163.4 101.44C163.84 101.36 163.8 100.76 163.64 100.48C163.2 99.6 162.72 98.72 162.2 97.92C162.04 97.64 161.8 97.36 161.52 97.16C161.28 97 160.96 96.92 160.76 97.2C160.68 97.36 160.64 97.52 160.68 97.68C160.72 98.24 160.84 98.8 161.04 99.32C161.12 99.64 161.2 99.92 161.32 100.2C161.4 100.44 161.44 100.64 161.52 100.88C161.64 101.12 161.8 101.32 162 101.52C162.16 101.64 162.36 101.72 162.56 101.72C162.96 101.52 162.88 100.96 162.72 100.64Z" fill="#68BA7F"/>
<path d="M164.48 107.84C164.48 107.84 165 109.8 166.36 109C167.72 108.2 166.96 106.44 166.96 106.44L164.48 107.84Z" fill="white"/>
<path d="M163.598 108.281C163.798 109.001 164.238 109.761 164.998 109.961C165.398 110.041 165.838 109.961 166.238 109.801C166.678 109.641 167.038 109.361 167.358 109.001C167.678 108.641 167.878 108.241 167.998 107.801C168.078 107.521 168.078 107.241 168.038 106.921C167.998 106.561 167.918 106.201 167.758 105.881L167.638 105.761C167.558 105.721 167.478 105.681 167.358 105.681C167.158 105.681 166.958 105.721 166.798 105.801L164.638 107.041L164.318 107.201C164.078 107.321 163.878 107.481 163.718 107.681C163.638 107.841 163.558 108.041 163.598 108.281C163.718 108.681 164.278 108.681 164.598 108.521L166.758 107.281L167.078 107.121L166.118 107.041L166.038 106.881C166.158 107.201 166.238 107.561 166.238 107.881V107.681C166.238 107.881 166.238 108.081 166.158 108.281L166.198 108.081C166.198 108.161 166.158 108.241 166.118 108.281C166.118 108.321 166.078 108.361 166.078 108.361C166.198 108.081 166.158 108.201 166.118 108.281L166.038 108.361C165.918 108.521 166.198 108.201 166.078 108.281C166.038 108.321 166.038 108.361 165.998 108.361C165.838 108.481 166.158 108.241 166.078 108.281L165.998 108.361L165.958 108.401L166.118 108.321L165.998 108.361C165.798 108.441 165.958 108.361 165.998 108.361C166.038 108.361 166.198 108.281 165.998 108.361C165.958 108.361 165.798 108.361 166.078 108.361C165.998 108.361 165.958 108.361 165.878 108.361H166.078C165.998 108.361 165.918 108.321 165.838 108.321L165.998 108.401C165.878 108.361 165.758 108.281 165.678 108.201L165.798 108.321C165.598 108.121 165.438 107.881 165.318 107.601L165.398 107.761C165.358 107.641 165.318 107.521 165.278 107.401C165.158 106.961 164.598 107.001 164.278 107.161C164.038 107.281 163.838 107.441 163.678 107.641C163.598 107.841 163.558 108.081 163.598 108.281Z" fill="#68BA7F"/>
<path d="M161.88 107.4L161.48 109.88L170.28 105.96C170.28 105.96 168.12 105.32 167.84 104.72C167.56 104.12 166.36 100.2 164.12 99.5604C161.88 98.9204 160.44 101.16 160.16 102.72C159.88 104.28 161.88 107.4 161.88 107.4Z" fill="white"/>
<path d="M161.081 106.841L160.681 109.361C160.601 109.961 161.401 111.001 162.081 110.681L169.761 107.281L170.841 106.801C171.641 106.441 170.401 105.361 170.041 105.241C169.561 105.121 169.081 104.921 168.641 104.681C168.561 104.641 168.361 104.561 168.321 104.481C168.321 104.641 168.561 104.681 168.601 104.841C168.561 104.641 168.481 104.441 168.361 104.241C167.761 102.721 167.081 101.241 165.921 100.081C164.681 98.8007 162.721 98.1607 161.121 99.2807C159.801 100.241 159.161 101.841 159.401 103.441C159.721 104.841 160.321 106.201 161.121 107.401C161.361 107.761 161.761 108.241 162.241 108.201C162.721 108.161 162.721 107.721 162.521 107.401C161.921 106.481 161.481 105.521 161.121 104.521C160.921 103.961 160.881 103.321 161.081 102.761C161.281 102.041 161.681 101.441 162.241 100.961C162.801 100.441 163.601 100.241 164.361 100.481C164.481 100.521 164.561 100.561 164.681 100.641C164.561 100.601 165.001 100.881 164.881 100.801C165.121 101.001 165.321 101.241 165.521 101.521C166.121 102.441 166.601 103.441 166.961 104.521C167.521 105.921 169.121 106.481 170.481 106.881L169.681 105.321L162.001 108.721L160.881 109.201L162.281 110.521L162.681 108.041C162.721 107.561 162.481 107.121 162.081 106.881C161.881 106.681 161.161 106.401 161.081 106.841Z" fill="#68BA7F"/>
<path d="M113.398 26.2002H138.238C139.678 26.2002 140.878 27.3602 140.878 28.8402V45.1202C140.878 46.5602 139.718 47.7602 138.238 47.7602H113.398C111.958 47.7602 110.758 46.6002 110.758 45.1202V28.8402C110.758 27.4002 111.958 26.2002 113.398 26.2002Z" fill="white"/>
<path d="M138.201 46.8394H114.441C113.481 46.8394 112.401 46.9594 111.881 45.9194C111.721 45.5194 111.681 45.0794 111.721 44.6394V29.3194C111.681 28.8394 111.801 28.3594 112.041 27.9594C112.641 27.0394 113.681 27.1594 114.641 27.1594H136.401C137.121 27.1194 137.841 27.1194 138.561 27.1594C139.441 27.2794 139.881 28.0394 139.881 28.8794C139.881 29.2794 139.881 29.6794 139.881 30.1194V35.5194C139.881 38.6794 139.961 41.8794 139.881 45.0394C139.881 45.9994 139.121 46.7994 138.201 46.8394C136.921 46.8794 137.081 48.7194 138.281 48.6793C140.001 48.6394 141.601 47.4794 141.801 45.6793C141.841 45.2794 141.841 44.8794 141.841 44.4394V39.4394C141.841 35.9594 141.881 32.4794 141.841 28.9994C141.801 26.9194 140.121 25.2794 138.041 25.3194H138.001H122.321C119.361 25.3194 116.441 25.3194 113.481 25.3194C111.521 25.2394 109.841 26.7994 109.801 28.7594C109.801 28.8394 109.801 28.9194 109.801 28.9994C109.801 30.3594 109.801 31.7194 109.801 33.0794V44.5194C109.801 44.9994 109.801 45.4794 109.921 45.9594C110.361 47.5594 111.801 48.6794 113.481 48.7194C114.241 48.7194 115.001 48.7194 115.761 48.7194H138.321C139.601 48.6794 139.401 46.8394 138.201 46.8394Z" fill="#68BA7F"/>
<path d="M125.199 32.5995C125.199 32.4395 125.599 28.9995 125.839 29.0795C126.079 29.1595 126.319 32.8395 126.319 32.8395L125.199 32.5995Z" fill="white"/>
<path d="M126.04 33.0796C126.08 32.6396 126.12 32.2396 126.2 31.8396C126.28 31.2396 126.36 30.5996 126.52 29.9996C126.56 29.8796 126.56 29.7996 126.6 29.6796C126.6 29.6396 126.64 29.5996 126.64 29.5996C126.64 29.5996 126.64 29.5996 126.68 29.5596C126.68 29.6396 126.32 29.5196 126.4 29.5196L125.76 29.2396L125.4 28.9996C125.24 28.9596 125.08 28.8396 125 28.6796V28.7196C125 28.7196 125.04 28.7996 125.04 28.8396C125.08 28.9596 125.08 29.0396 125.12 29.1596C125.16 29.4396 125.2 29.7596 125.24 30.0396C125.32 30.6796 125.36 31.3196 125.4 31.9596C125.4 32.1196 125.4 32.2396 125.44 32.3996L125.6 32.3196L124.48 32.0796C124.4 32.0796 124.28 32.0796 124.32 32.1596C124.36 32.2396 124.6 32.4396 124.64 32.4796C125 32.7596 125.44 32.9596 125.88 33.0796L127 33.3196C127.12 33.3596 127.2 33.3196 127.16 33.2396C127.12 32.1196 127 31.0396 126.84 29.9596C126.84 29.7596 126.76 29.5596 126.64 29.3996C126.44 29.1996 126.2 28.9996 125.92 28.8796C125.72 28.7596 125.48 28.6396 125.28 28.5996C125.2 28.5596 125.08 28.5596 125 28.5596C124.92 28.5596 124.88 28.6396 124.88 28.6796C124.8 28.9196 124.72 29.1196 124.72 29.3596C124.64 29.6796 124.6 30.0396 124.56 30.3996C124.52 30.7596 124.44 31.1596 124.4 31.5196C124.36 31.7196 124.36 31.9196 124.36 32.1196C124.36 32.2396 124.44 32.3196 124.52 32.3996C124.68 32.5596 124.88 32.6796 125.12 32.7996C125.32 32.9196 125.56 33.0396 125.76 33.0796C125.76 33.0796 126.04 33.1596 126.04 33.0796Z" fill="#68BA7F"/>
<path d="M124.32 41.6793C124.32 41.6793 123.92 44.1193 125.84 43.8793C127.76 43.6393 127.76 41.3193 127.76 41.3193L124.32 41.6793Z" fill="white"/>
<path d="M123.318 41.7202C123.198 42.5202 123.318 43.5202 124.038 44.0402C124.958 44.6802 126.318 44.5602 127.278 44.0402C127.878 43.7202 128.318 43.1602 128.558 42.4802C128.678 42.0802 128.758 41.6802 128.758 41.2802C128.758 41.1202 128.598 40.9602 128.438 40.9202C128.198 40.8002 127.958 40.7602 127.718 40.8002L124.718 41.1202L124.278 41.1602C124.038 41.1602 123.798 41.2402 123.558 41.3202C123.478 41.4002 123.278 41.5202 123.318 41.7202C123.358 42.1202 123.998 42.2402 124.318 42.2002L127.318 41.8802L127.758 41.8402L126.758 41.3202C126.758 41.5602 126.718 41.7602 126.678 41.9602L126.718 41.8002C126.678 42.0402 126.598 42.3202 126.478 42.5202L126.398 42.6802C126.398 42.7202 126.358 42.7202 126.358 42.7602L126.318 42.8002C126.278 42.8802 126.318 42.8002 126.358 42.7602C126.318 42.8002 126.278 42.8802 126.238 42.9202C126.198 42.9602 126.118 43.0402 126.078 43.0802C126.038 43.1202 125.918 43.1602 126.118 43.0802L126.038 43.1602L125.918 43.2402L125.878 43.2802C125.758 43.3202 125.958 43.2402 125.958 43.2402C125.958 43.2402 125.758 43.3202 125.718 43.3202C125.598 43.3602 125.958 43.2802 125.838 43.2802H125.798C125.758 43.2802 125.638 43.2802 125.638 43.3202C125.638 43.3602 125.878 43.3202 125.798 43.3202H125.758C125.518 43.3202 125.718 43.3202 125.758 43.3202C125.798 43.3202 125.998 43.3202 125.758 43.3202C125.598 43.3202 125.998 43.4002 125.838 43.3202L125.758 43.2802C125.718 43.2802 125.998 43.3602 125.838 43.3202L125.758 43.2802C125.678 43.2402 125.918 43.4002 125.798 43.3202C125.758 43.2802 125.718 43.2402 125.638 43.2002C125.558 43.1602 125.718 43.2802 125.718 43.2802L125.678 43.2402C125.678 43.2402 125.638 43.2002 125.638 43.1602C125.558 43.0402 125.518 42.8802 125.478 42.7602L125.518 42.8802C125.398 42.4402 125.398 42.0402 125.478 41.6002C125.518 41.4402 125.278 41.2802 125.158 41.2402C124.918 41.1202 124.678 41.0802 124.438 41.1202C123.918 41.1602 123.398 41.2802 123.318 41.7202Z" fill="#68BA7F"/>
<path d="M121.641 39.8798L119.961 42.4398H131.681C131.681 42.4398 129.601 40.6398 129.601 39.8798C129.601 39.1198 130.201 34.1198 128.001 32.3198C125.801 30.5198 123.081 32.2798 122.041 33.8798C121.001 35.4798 121.641 39.8798 121.641 39.8798Z" fill="white"/>
<path d="M120.76 39.9999L119.08 42.5999C118.92 42.8399 119.12 42.9599 119.4 42.9599H131.12C131.36 42.9599 133.08 42.4799 132.56 42.0399C132.08 41.6399 131.64 41.1999 131.24 40.7199C130.8 40.2399 130.56 39.8399 130.56 39.1999C130.64 37.5199 130.72 35.7999 130.24 34.1999C130.04 33.3599 129.6 32.5999 128.96 31.9599C127.96 31.1599 126.6 30.8799 125.36 31.1999C123.28 31.6799 121.08 33.1999 120.68 35.3999C120.44 36.9999 120.44 38.5999 120.72 40.1999C120.8 40.6399 122.68 40.1199 122.6 39.5199C122.4 38.3199 122.36 37.0799 122.44 35.8399C122.44 35.0399 122.64 34.2799 123.04 33.5999C123.52 32.9199 124.24 32.1999 125.08 32.0399C127.12 31.6799 128.2 33.8799 128.52 35.5199C128.76 36.9199 128.8 38.3599 128.68 39.7999C128.64 40.5199 128.96 40.9199 129.4 41.4799C129.84 41.9599 130.32 42.4399 130.8 42.8799L132.24 41.9599H120.52L120.84 42.3199L122.52 39.7599C122.76 39.3999 122.24 39.3599 122 39.3999C121.56 39.4399 121.08 39.6399 120.76 39.9999Z" fill="#68BA7F"/>
<path d="M140.919 35.0003C144.431 35.0003 147.279 32.1528 147.279 28.6403C147.279 25.1277 144.431 22.2803 140.919 22.2803C137.406 22.2803 134.559 25.1277 134.559 28.6403C134.559 32.1528 137.406 35.0003 140.919 35.0003Z" fill="#000005"/>
<path d="M146.279 29.3595C145.799 31.7595 143.959 33.6395 141.599 34.1995C139.359 34.7195 137.159 33.7995 136.119 31.7595C135.039 29.5195 135.359 26.8795 136.999 24.9995C138.519 23.2395 141.199 22.3595 143.439 23.2395C145.839 24.1595 146.759 27.1595 146.279 29.4795C146.199 29.9995 147.919 30.9195 148.039 30.3195C149.199 24.1995 141.279 19.1995 136.279 23.0395C133.999 24.7995 133.119 27.8395 134.119 30.5595C135.159 33.3995 138.119 35.3995 141.119 35.5995C144.359 35.7995 147.279 33.5995 147.959 30.4395C148.159 29.7995 146.359 28.9995 146.279 29.3595Z" fill="#000005"/>
<path d="M140.56 27.3202C140.92 27.0802 141.32 26.9202 141.72 26.8402L140.4 25.7202C140.44 27.4002 140.36 29.1202 140.16 30.8002C140.08 31.6802 141.8 32.5202 141.92 31.4002C142.12 29.7202 142.2 28.0002 142.16 26.3202C142.16 25.7202 141.48 25.0802 140.84 25.2002C140.28 25.3202 139.76 25.5202 139.28 25.8002C138.88 26.0402 139 26.6002 139.24 26.9202C139.48 27.2402 140.12 27.5602 140.56 27.3202Z" fill="white"/>
<path d="M119.119 22.1198C117.159 18.4798 113.639 15.8798 109.559 15.0398C105.799 14.2398 101.799 15.3998 99.5588 18.6398C98.5188 20.0798 97.9988 21.8398 98.1188 23.5998C98.1988 24.5198 98.7588 25.3198 99.5588 25.7198C100.279 26.1598 101.279 26.4798 101.999 25.8798C102.799 25.1998 101.999 24.3998 101.319 23.9998C100.479 23.4798 99.5588 23.1598 98.5988 23.0798C96.9188 22.9598 95.2788 23.7998 94.1188 24.9998C91.3988 27.7998 91.5588 32.7198 94.5188 35.2798C94.8788 35.5998 95.3188 35.7998 95.7988 35.9198C96.1188 35.9598 96.2788 35.8398 95.9588 35.5598C93.8388 33.7198 93.5588 30.4798 94.5588 27.9998C95.0788 26.6798 96.0388 25.5998 97.2388 24.8398C97.8388 24.4798 98.4788 24.2398 99.1588 24.1198C99.4788 24.0798 99.7588 24.0798 100.079 24.0798C100.199 24.0798 100.319 24.1198 100.439 24.1598C100.799 24.1998 100.439 24.2398 100.439 24.1198C100.399 24.1998 100.559 24.3998 100.519 24.5598C100.479 24.6798 100.399 24.7998 100.319 24.8798C100.239 24.9998 100.079 25.0798 99.9588 25.1198C99.9188 25.1198 99.8388 25.1598 99.7988 25.1598C99.7588 25.1598 99.6788 25.1998 99.6388 25.1998L100.319 25.5198C100.319 25.4798 100.119 25.1998 100.079 25.1198C100.039 24.9598 99.9588 24.7998 99.9188 24.6398C99.8388 24.2398 99.8388 23.8398 99.8388 23.4398C99.9588 22.0398 100.439 20.6798 101.239 19.5198C103.039 16.9198 106.079 15.5198 109.239 15.7598C112.759 15.9598 115.639 18.2398 117.279 21.3198C117.519 21.6798 117.879 21.9198 118.279 22.0398C118.399 22.1198 119.279 22.3598 119.119 22.1198Z" fill="#68BA7F"/>
</svg>
