<svg width="200" height="200" viewBox="0 0 200 200" fill="none" xmlns="http://www.w3.org/2000/svg">
<path d="M74.0796 177.44C74.0796 177.44 79.0396 143.92 65.2396 125.28C51.4396 106.64 18.6396 156.44 14.5996 179.16L74.0796 177.44Z" fill="#000005"/>
<path d="M74.7998 178.08C75.0798 176.08 75.2798 174.04 75.3998 172C75.7198 167.2 75.7598 162.36 75.5198 157.56C75.2398 151.52 74.2798 145.52 72.6398 139.68C71.7998 136.68 70.6798 133.76 69.2798 130.96C68.0398 128.48 66.5998 125.96 64.7198 123.88C62.4798 121.4 59.4398 120.04 56.0798 120.4C52.5198 120.8 49.2398 122.8 46.4398 124.96C42.6798 127.84 39.3598 131.36 36.3598 135C32.9198 139.2 29.7598 143.68 26.9198 148.32C24.0398 152.96 21.4798 157.76 19.2398 162.68C17.2798 166.88 15.6798 171.28 14.4798 175.76C14.2398 176.68 14.0398 177.6 13.8798 178.52C13.7598 179.16 14.5198 179.96 15.1598 179.96L21.1198 179.8L35.3198 179.4L52.4798 178.92L67.3198 178.48L72.2398 178.32C72.9998 178.36 73.7998 178.32 74.5598 178.24C74.5998 178.24 74.6398 178.24 74.6398 178.24C75.0798 178.24 74.7198 177.48 74.6398 177.32C74.3998 176.92 74.0398 176.68 73.5598 176.64L67.5998 176.8L53.3998 177.2L36.2398 177.68L21.3998 178.08L16.4798 178.24C15.7198 178.28 14.9198 178.24 14.1598 178.32H14.0798L15.3598 179.76C16.1198 175.56 17.5598 171.48 19.1598 167.52C21.1598 162.72 23.4798 158 26.0798 153.52C28.7598 148.8 31.7198 144.28 34.9598 139.96C37.8798 136 41.1998 132.28 44.7998 128.92C47.6398 126.36 50.7998 123.88 54.4798 122.64C55.8798 122.12 57.3198 121.88 58.7998 121.96C59.1598 122 59.5198 122.04 59.8798 122.12C60.0398 122.16 60.1998 122.2 60.3598 122.24C60.3998 122.24 60.5998 122.32 60.4798 122.28L60.7598 122.36C61.0798 122.48 61.4398 122.6 61.7598 122.76C61.7998 122.76 62.0798 122.92 61.8798 122.8L62.0798 122.92C62.2398 123 62.3998 123.12 62.5598 123.24L62.7598 123.4C62.9598 123.56 62.7198 123.36 62.8398 123.44C62.9598 123.52 63.1598 123.68 63.3198 123.84C63.4798 124 63.6398 124.12 63.7598 124.24C63.5998 124.08 63.7598 124.24 63.7998 124.32L64.0398 124.6L64.4398 125.04C64.4798 125.12 64.6398 125.32 64.5198 125.12C64.5998 125.24 64.6798 125.36 64.7598 125.48C65.1998 126.08 65.6398 126.68 66.0398 127.32C67.5998 129.8 68.9198 132.44 69.9198 135.2C71.9998 140.84 73.1598 146.8 73.7198 152.8C74.1998 157.92 74.3198 163.08 74.0798 168.24C73.9998 170.04 73.8798 171.8 73.7198 173.56C73.6798 174.16 73.5998 174.76 73.5198 175.36C73.4798 175.6 73.4798 175.8 73.4398 176.04C73.3998 176.28 73.4398 175.96 73.4398 176.16C73.4398 176.24 73.4398 176.32 73.3998 176.4C73.3598 176.48 73.3598 176.64 73.3598 176.8C73.3598 177.24 73.5598 177.68 73.9198 177.96C74.0398 178.08 74.7598 178.52 74.7998 178.08Z" fill="#000005"/>
<path d="M48.96 161.2C48.96 161.2 65.8 152.96 76.28 152.24C86.76 151.52 94.2 157.36 94.72 160.84C95.24 164.32 91.68 165.6 88.52 163.28C85.36 160.96 80.04 160.36 80.04 160.36C80.04 160.36 81.64 162.44 80.24 166.6C78.84 170.76 73.92 176.08 70.68 172.44C68.84 173.64 66.52 173.96 64.44 173.2C60.96 171.96 61 170.48 61 170.48L53.68 175.68L48.96 161.2Z" fill="white"/>
<path d="M48.8395 161.52L48.9595 161.44H48.9195L49.1595 161.32C49.6795 161.08 50.1595 160.84 50.6795 160.6C52.3995 159.8 54.1595 159.04 55.9595 158.32C60.7195 156.36 65.6395 154.56 70.6795 153.48C73.3195 152.88 75.9995 152.64 78.6795 152.76C81.5995 152.92 84.4795 153.64 87.1195 154.84C89.1595 155.72 90.9595 157.04 92.4395 158.68C93.5195 159.96 94.4395 161.88 93.4795 163.48C93.3995 163.6 93.3195 163.72 93.1995 163.84C93.2395 163.84 93.3995 163.68 93.4395 163.68C93.3995 163.68 93.1595 163.76 93.0795 163.76C92.4795 163.84 91.8795 163.84 91.3195 163.64C89.9595 163.28 88.9195 162.28 87.6795 161.64C85.6395 160.68 83.4795 160.04 81.2395 159.76L80.7995 159.72C80.5595 159.68 78.9195 160.48 79.1595 160.8C79.4395 161.24 79.6395 161.72 79.7595 162.2C80.0395 163.68 79.9595 165.2 79.4795 166.6C79.0395 168 78.3995 169.32 77.5195 170.48C77.0795 171.04 76.6395 171.6 76.1195 172.08C75.7995 172.4 75.4395 172.64 74.9995 172.84C73.7195 173.36 72.4395 172.84 71.5195 171.84C71.3195 171.6 70.4395 172.2 70.3195 172.32C70.1995 172.44 70.1595 172.32 70.3995 172.28C70.3595 172.32 70.2795 172.36 70.2395 172.4C70.0795 172.48 70.4395 172.28 70.2395 172.4C70.1595 172.44 70.0795 172.48 70.0395 172.52C70.1995 172.44 69.8795 172.6 69.8395 172.6C69.6395 172.68 69.3995 172.76 69.1995 172.8C67.8795 173.16 66.5195 173.08 65.2395 172.6C64.1995 172.24 63.0395 171.72 62.3195 170.84C62.1595 170.64 61.9995 170.44 61.9195 170.2C61.8795 170.12 61.8795 169.88 61.8795 170C61.8795 169.64 60.7995 170.32 60.6795 170.4L54.2795 174.96L53.3595 175.6L54.5595 175.12L50.3995 162.52L49.7995 160.68C49.7195 160.48 47.9595 161.28 48.0795 161.72L52.2395 174.44L52.8395 176.28C52.9195 176.52 53.9995 175.84 54.0395 175.8L60.4395 171.24L61.3595 170.6L60.1595 171C60.1995 171.44 60.3995 171.8 60.6795 172.12C61.5595 173.12 63.0395 173.72 64.3195 174.04C66.5995 174.6 69.1195 173.92 70.9995 172.56L69.7995 173.04C70.7195 174.12 72.1595 174.52 73.4795 174.12C75.1195 173.6 76.5995 172.68 77.7595 171.44C80.0795 169.08 81.8795 165.68 81.5595 162.32C81.5195 161.48 81.2795 160.64 80.7995 159.92L79.1595 161C80.9995 161.2 82.7995 161.64 84.5595 162.28C85.2395 162.52 85.9195 162.84 86.5595 163.2C87.1995 163.56 87.7595 164.04 88.3995 164.4C89.5195 165.04 90.8795 165.24 92.1195 164.92C93.3595 164.56 94.7195 163.68 95.2795 162.44C95.6395 161.52 95.6395 160.48 95.2395 159.56C94.5195 157.8 92.9595 156.44 91.4395 155.4C86.5595 152.08 80.3595 151.16 74.5995 152C69.1595 152.8 63.8395 154.68 58.7195 156.68C55.5195 157.96 52.2395 159.28 49.1195 160.88L48.9595 160.96C48.7595 161.04 47.9595 161.48 47.9995 161.72C48.0395 161.96 48.7195 161.56 48.8395 161.52Z" fill="#000005"/>
<path d="M75.0797 165.12C75.0797 165.12 75.0397 169.44 70.6797 172.48L75.0797 165.12Z" fill="white"/>
<path d="M74.2399 165.64C74.1999 166.48 74.0399 167.28 73.7199 168.04C73.0799 169.8 71.9199 171.36 70.3999 172.48C70.2799 172.56 69.7599 172.92 69.9199 173.04C70.0799 173.16 70.8799 172.52 70.9999 172.44C73.4399 170.72 75.3999 168.2 75.8399 165.16C75.8799 164.96 75.8799 164.72 75.8799 164.52C75.8799 164.44 75.0399 164.92 74.9599 164.92C74.7999 165.08 74.2799 165.36 74.2399 165.64Z" fill="#000005"/>
<path d="M61.04 170.52C61.04 170.52 57.4 165.68 62.28 163.88C65.68 162.64 66.32 168.12 66.32 168.12" fill="white"/>
<path d="M61.8002 170.079C61.7202 169.959 61.6002 169.799 61.5202 169.679C61.3602 169.439 61.6402 169.879 61.4802 169.639C61.4402 169.559 61.4002 169.479 61.3202 169.399C61.2002 169.199 61.1202 168.999 61.0402 168.799C61.0002 168.679 60.9602 168.559 60.9202 168.439L60.8802 168.239C60.8402 168.079 60.8402 168.119 60.8802 168.239C60.8002 167.999 60.7602 167.719 60.7202 167.479C60.7202 167.399 60.7202 167.359 60.7202 167.279C60.7202 167.199 60.7202 167.079 60.7202 167.239C60.7202 167.079 60.7202 166.959 60.7602 166.799C60.8002 166.639 60.8002 166.559 60.8402 166.439C60.8802 166.319 60.7602 166.599 60.8402 166.399C60.8802 166.319 60.8802 166.239 60.9202 166.199C60.9602 166.079 61.0402 165.959 61.1202 165.839C61.0402 165.999 61.1202 165.879 61.1602 165.799C61.2002 165.719 61.2802 165.679 61.3202 165.599C61.3602 165.519 61.4402 165.479 61.4802 165.439C61.5202 165.399 61.6402 165.319 61.5202 165.399C61.6802 165.279 61.8402 165.159 62.0402 165.079C62.3202 164.879 62.6402 164.759 63.0002 164.679L63.2402 164.639C63.0802 164.679 63.1202 164.639 63.2402 164.639H63.4402C63.6402 164.639 63.2802 164.599 63.4802 164.639L63.6802 164.679C63.8402 164.719 63.4802 164.599 63.6402 164.679C63.6802 164.719 63.7602 164.719 63.8002 164.759C63.8402 164.799 64.0402 164.919 63.8802 164.799C63.7202 164.679 63.9202 164.799 63.9202 164.839L64.0402 164.959C64.0802 164.959 64.2402 165.119 64.1202 164.999C64.0002 164.879 64.1602 165.039 64.2002 165.079C64.2802 165.159 64.3602 165.279 64.4402 165.399L64.5202 165.559C64.6402 165.759 64.4402 165.399 64.5202 165.599C64.6002 165.799 64.7602 166.039 64.8402 166.319C64.8802 166.439 64.9602 166.599 65.0002 166.719L65.0802 166.919C65.0802 166.959 65.0802 166.959 65.0802 166.999C65.1202 167.159 65.0402 166.839 65.0802 166.959C65.1202 167.159 65.2002 167.399 65.2402 167.599C65.2802 167.799 65.3202 168.039 65.3602 168.239C65.4802 169.319 67.4402 169.439 67.2802 168.199C67.0402 166.239 66.1602 163.799 64.1202 163.079C63.3602 162.839 62.5202 162.879 61.8002 163.159C60.9202 163.439 60.1602 163.959 59.5602 164.679C58.6402 165.879 58.6402 167.319 59.0802 168.719C59.3602 169.559 59.7602 170.359 60.2802 171.079C60.6002 171.479 61.1602 171.639 61.6402 171.399C62.0002 171.159 62.1202 170.679 61.9202 170.279C61.8402 170.119 61.8402 170.079 61.8002 170.079Z" fill="#000005"/>
<path d="M41.5598 102.72C45.9598 80.1997 61.5998 78.7997 71.5198 81.2397C81.4398 83.6797 86.6398 89.4397 87.1198 94.0797C87.4798 97.5197 74.5198 112.92 74.5198 112.92L52.9998 122.4C52.9998 122.4 38.1998 119.88 41.5598 102.72Z" fill="#000005"/>
<path d="M80.8794 125C88.9995 120 85.4795 97.48 85.4795 97.48C82.0795 95.88 77.0395 90.96 77.0395 90.96C76.0395 102.32 62.4395 102 62.4395 102C61.3595 95.44 53.9595 95.76 52.8395 101.6C51.7195 107.44 57.0795 109.52 57.0795 109.52C57.0795 109.52 50.5195 122.96 50.4395 125.4C50.4395 125.4 58.0395 134.36 66.1195 127.64C66.1195 127.68 75.3595 128.4 80.8794 125Z" fill="white"/>
<path d="M81.5596 125.719C83.9196 124.239 85.1596 121.599 85.9196 119.039C86.7996 115.959 87.0796 112.719 87.1196 109.519C87.1596 106.719 87.0396 103.919 86.7596 101.119C86.6796 100.279 86.5996 99.3995 86.4796 98.5595C86.3996 97.8395 86.3596 97.2795 85.5996 96.8795C82.7196 95.3595 79.9996 92.9995 77.5996 90.6795C77.3596 90.4395 76.1996 89.8795 76.1596 90.6395C76.0396 92.5195 75.3996 94.3195 74.3996 95.8795C73.5196 97.1595 72.3196 98.2395 70.9596 99.0395C69.7196 99.7595 68.3996 100.279 67.0396 100.639C66.3996 100.799 65.7996 100.959 65.1596 101.039L64.3596 101.159L63.9996 101.199L63.6796 101.239H63.5596H63.3996L63.0796 101.279L62.5596 101.319C62.3996 101.319 62.2396 101.319 62.1196 101.319L63.3596 102.319C62.9996 100.119 61.8396 98.1195 59.7996 97.0795C58.1996 96.2395 56.2796 96.2795 54.6796 97.1595C52.8796 98.1995 51.9596 100.279 51.8396 102.279C51.6796 104.439 52.4396 106.559 53.9196 108.159C54.7596 109.079 55.7996 109.799 56.9596 110.279L56.2796 109.039C54.3596 112.959 52.5196 116.919 50.8796 120.999C50.4396 121.999 50.0796 123.039 49.7596 124.079C49.6796 124.399 49.5996 124.719 49.5596 125.039C49.5596 125.399 49.7196 125.759 49.9996 126.039C51.5196 127.679 53.3596 129.039 55.3996 129.959C57.0796 130.759 58.8796 131.119 60.7196 130.999C62.9596 130.799 65.0796 129.879 66.7996 128.439L66.4396 128.519C67.5996 128.599 68.7996 128.599 69.9596 128.559C72.4796 128.519 74.9996 128.159 77.3996 127.519C78.8796 127.039 80.2796 126.479 81.5596 125.719C82.3596 125.239 80.8796 123.919 80.1596 124.319C77.7596 125.799 74.9196 126.399 72.1196 126.719C70.1596 126.959 68.1996 126.999 66.2396 126.919C66.0796 126.919 65.9196 126.879 65.7996 126.879C65.5596 126.879 65.3596 126.959 65.1996 127.119C64.8396 127.399 64.5196 127.639 64.1596 127.879C62.9596 128.679 61.5996 129.159 60.1596 129.319C58.9996 129.399 57.7996 129.279 56.7196 128.879C55.7596 128.559 54.8396 128.119 53.9996 127.559C53.5596 127.279 53.1196 126.959 52.7196 126.599C52.6796 126.599 52.5596 126.479 52.6796 126.559C52.7996 126.639 52.6396 126.519 52.5996 126.479L52.3596 126.239C52.1996 126.119 52.0796 125.999 51.9196 125.839C51.6396 125.559 51.3196 125.279 51.0796 124.959L51.3996 125.719C51.4796 124.839 51.7196 123.999 52.0796 123.199C52.5596 121.919 53.0796 120.639 53.6396 119.399C54.7596 116.799 55.9596 114.239 57.1596 111.679C57.4396 111.119 57.6796 110.559 57.9596 110.039C58.2396 109.519 57.7196 108.999 57.2796 108.799C57.0796 108.719 56.8796 108.599 56.6796 108.519C56.4796 108.439 56.9196 108.679 56.7196 108.559L56.5596 108.479C56.4396 108.399 56.3596 108.359 56.2396 108.279C56.1196 108.199 56.0396 108.159 55.9596 108.079L55.7996 107.959C55.6796 107.839 55.9196 108.079 55.7196 107.879C55.1596 107.439 54.7196 106.879 54.3596 106.279C53.9596 105.559 53.7596 104.759 53.6796 103.959C53.5196 102.199 54.0396 100.239 55.3196 98.9995C55.7996 98.5195 56.4396 98.1995 57.0796 97.9995C57.6796 97.8395 58.3196 97.8395 58.9596 97.9995C58.9996 97.9995 59.2396 98.0795 59.0396 98.0395C59.1596 98.0795 59.2796 98.1195 59.3596 98.1595L59.5996 98.2795C59.3996 98.1595 59.6396 98.3195 59.6796 98.3195L59.9196 98.4795L60.0796 98.5995C59.9996 98.5195 59.9996 98.5195 60.0796 98.5995L60.2796 98.7995C60.3196 98.8395 60.5196 99.0795 60.4396 98.9595C61.0396 99.7595 61.4396 100.719 61.5996 101.719C61.7596 102.279 62.2396 102.679 62.8396 102.719C64.4796 102.719 66.1596 102.519 67.7596 102.119C70.7996 101.399 73.7996 99.9195 75.7196 97.3995C77.0396 95.6395 77.8396 93.5195 77.9996 91.3195L76.5196 91.2795C77.4796 92.2395 78.5196 93.1195 79.5596 93.9995C81.3596 95.5195 83.2396 97.0395 85.3996 98.0795L84.6396 97.1995C85.0396 99.7995 85.2396 102.399 85.3596 105.039C85.5596 109.679 85.4396 114.599 83.9196 119.039C83.1996 121.079 82.0796 123.119 80.2396 124.279C79.3996 124.839 80.8796 126.159 81.5596 125.719Z" fill="#000005"/>
<path d="M66.4395 116.999L66.1195 116.959C65.9595 116.919 66.3195 116.999 66.1995 116.959L66.0395 116.919L65.7995 116.839C65.7195 116.799 65.5595 116.719 65.8795 116.879L65.7595 116.839L65.6795 116.799C65.5995 116.759 65.4795 116.639 65.7595 116.839C65.7195 116.799 65.6395 116.759 65.5995 116.679C65.8795 116.879 65.7595 116.839 65.6795 116.759C65.5995 116.679 65.6395 116.679 65.5995 116.679C65.6795 116.759 65.8395 116.919 65.5995 116.679C65.5195 116.599 65.7195 116.919 65.6395 116.719C65.6395 116.679 65.5995 116.679 65.5995 116.639C65.5995 116.599 65.5595 116.559 65.5595 116.519L65.5995 116.599C65.5995 116.559 65.5995 116.559 65.5995 116.519C65.5995 116.439 65.5595 116.359 65.5595 116.239C65.5595 116.159 65.5595 116.039 65.5595 115.959C65.5595 116.079 65.5595 116.079 65.5595 115.999C65.5595 115.919 65.5595 115.919 65.5595 115.919C65.5595 115.919 65.5595 115.799 65.5595 115.719C65.5595 115.599 65.5995 115.479 65.6395 115.359C65.7195 115.079 65.7995 114.799 65.8795 114.519C65.9195 114.319 65.8395 114.119 65.7195 113.959C65.5595 113.759 65.3595 113.559 65.1595 113.439C64.8395 113.279 64.3195 113.159 64.1595 113.599C63.7995 114.479 63.7195 115.399 63.9595 116.319C64.2395 117.159 64.8795 117.799 65.6795 118.159C66.1595 118.359 66.6395 118.479 67.1195 118.559C67.3595 118.639 67.5995 118.519 67.7195 118.279C67.7595 118.159 67.7595 117.999 67.6795 117.879C67.3995 117.399 66.9595 117.079 66.4395 116.999Z" fill="#000005"/>
<path d="M74.0395 105.4C74.0395 105.4 75.3195 105.96 74.6795 107.16C74.0395 108.36 72.5595 107.56 72.7995 106.36C72.8395 105.8 73.3195 105.36 73.8795 105.4C73.9195 105.4 73.9995 105.4 74.0395 105.4Z" fill="#000005"/>
<path d="M82.9594 106.96C82.9594 106.96 84.2394 107.52 83.5994 108.72C82.9594 109.92 81.4794 109.12 81.7194 107.92C81.7594 107.36 82.2394 106.92 82.7994 106.96C82.8394 106.92 82.8794 106.92 82.9594 106.96Z" fill="#000005"/>
<path d="M45.7202 109.439C44.6402 110.919 43.4002 112.239 42.0002 113.439C41.4802 113.879 40.9202 114.319 40.3602 114.679C39.8402 115.039 39.2802 115.319 38.6802 115.559C38.5202 115.599 38.4002 115.639 38.2402 115.679C38.0002 115.759 38.2402 115.679 38.0402 115.719C37.8802 115.719 37.7602 115.759 37.6002 115.759C37.5602 115.759 37.3202 115.759 37.5602 115.759H37.2802L37.0802 115.719C37.1202 115.719 37.3602 115.759 37.0802 115.719L36.8802 115.679C36.6402 115.599 37.0802 115.759 36.8802 115.679C36.8002 115.639 36.4402 115.439 36.6402 115.559C36.4802 115.479 36.3202 115.359 36.2002 115.239C36.3202 115.359 36.1202 115.159 36.1202 115.159L35.9602 114.959C35.8402 114.799 35.7202 114.679 35.6402 114.519C35.4402 114.199 35.2402 113.839 35.0802 113.479C34.7202 112.639 34.4402 111.759 34.3202 110.879C34.2402 110.239 34.2402 109.599 34.4002 108.959C34.5202 108.439 34.7602 107.959 35.1202 107.559C35.4002 107.199 35.7602 106.959 36.1602 106.759C35.9602 106.839 36.2802 106.719 36.3602 106.679C36.4402 106.639 36.6002 106.599 36.6802 106.559C36.7202 106.559 36.9202 106.519 36.6802 106.559C36.7202 106.559 36.8002 106.519 36.8402 106.519C36.9602 106.519 37.1202 106.479 37.2402 106.479C37.3202 106.479 37.5202 106.479 37.2402 106.479H37.4002C37.5202 106.479 37.6402 106.519 37.7202 106.519C37.9202 106.519 37.4802 106.439 37.6802 106.519L37.8402 106.559C37.9602 106.599 38.3202 106.759 38.0002 106.599C38.0802 106.639 38.1602 106.679 38.2402 106.719C38.3202 106.759 38.3202 106.759 38.4002 106.799C38.5602 106.879 38.2002 106.679 38.3602 106.799L38.6402 106.999C38.6802 107.039 38.8002 107.159 38.6402 106.999C38.6802 107.039 38.7602 107.119 38.8002 107.159C38.8802 107.239 38.9602 107.319 39.0002 107.439C38.8802 107.239 39.0802 107.559 39.0802 107.599C39.0802 107.639 39.1602 107.799 39.2002 107.919C39.2802 108.119 39.1602 107.759 39.2002 107.959C39.2402 108.039 39.2402 108.119 39.2402 108.199C39.3602 108.759 39.3202 109.319 39.1602 109.839C38.7602 111.519 37.6402 113.039 36.4802 114.279C34.0402 116.959 30.8402 118.839 27.3202 119.719C27.1202 119.759 26.6802 119.839 26.3602 119.879C26.2002 119.919 26.0002 119.919 25.8402 119.919H25.6002C25.5602 119.919 25.2002 119.919 25.4402 119.919C25.1202 119.919 24.8002 119.879 24.5202 119.839C24.2802 119.799 24.7202 119.879 24.4802 119.839L24.2802 119.799C24.1602 119.759 24.0002 119.719 23.8802 119.679C24.2002 119.799 23.8002 119.639 23.7202 119.599C23.4802 119.439 23.6402 119.559 23.7202 119.599C23.6802 119.559 23.6002 119.519 23.5602 119.479L23.4002 119.359C23.2402 119.239 23.5202 119.519 23.4002 119.359C23.3202 119.239 23.2002 119.159 23.1202 119.039C23.2402 119.199 23.0402 118.879 23.0402 118.839C23.0402 118.799 22.9202 118.479 22.9602 118.599C22.8802 118.319 22.8402 117.999 22.8402 117.719C22.8402 116.559 23.2802 115.439 24.1202 114.599C24.2802 114.439 24.0002 114.679 24.2002 114.559L24.2802 114.479C24.4002 114.399 24.4802 114.319 24.6002 114.239C24.7202 114.159 24.8402 114.079 24.9202 114.039C25.0002 113.999 25.3602 113.839 25.2002 113.879C25.4402 113.759 25.7202 113.679 25.9602 113.599L26.3602 113.479C26.4002 113.479 26.6402 113.439 26.4002 113.479L26.6802 113.439C26.9602 113.399 27.2002 113.359 27.4402 113.359C27.5602 113.359 27.7202 113.359 27.8402 113.359C27.6002 113.359 28.0802 113.359 28.1602 113.359C28.4402 113.359 28.7202 113.399 29.0002 113.439C28.7602 113.399 29.2802 113.479 29.0002 113.439L29.2002 113.479C29.3602 113.519 29.5202 113.559 29.6802 113.599L30.0402 113.719C29.8402 113.639 30.2802 113.799 30.0402 113.719L30.2002 113.759L30.5202 113.919C30.6002 113.959 31.0002 114.199 30.7602 114.039C30.9602 114.159 31.1602 114.319 31.3202 114.479C31.2002 114.319 31.4802 114.599 31.3202 114.479L31.4402 114.599C31.5202 114.679 31.6002 114.799 31.6802 114.919C31.7202 114.959 31.8002 115.119 31.6802 114.919C31.7202 114.959 31.7202 114.999 31.7602 115.079C31.8002 115.159 31.8802 115.279 31.9202 115.399C31.9602 115.519 32.0002 115.559 32.0002 115.639C31.9602 115.479 32.0402 115.839 32.0402 115.879C32.1202 116.359 32.0802 116.839 31.8802 117.319C31.4002 118.719 30.1602 119.959 28.9602 120.919C28.0002 121.679 26.9602 122.399 25.9202 123.039C25.5202 123.279 25.7202 123.799 26.0402 123.999C26.4402 124.319 26.9602 124.359 27.4402 124.119C29.4402 122.919 31.5202 121.479 32.9202 119.559C33.6802 118.519 34.2802 117.159 34.0002 115.839C33.4002 113.239 30.2802 112.079 27.8802 111.999C25.2002 111.879 22.2402 112.879 21.2002 115.559C20.6802 116.879 20.6402 118.479 21.4802 119.679C22.3202 120.879 23.9202 121.319 25.3202 121.399C29.1602 121.519 33.0402 119.599 35.9602 117.279C37.6402 115.999 39.0802 114.399 40.1602 112.559C40.9202 111.239 41.5202 109.639 41.1202 108.079C40.4402 105.519 37.2402 104.479 34.9202 105.439C33.7602 105.919 32.8402 106.879 32.4402 108.119C31.8802 109.799 32.3202 111.719 32.9602 113.279C33.6402 114.959 34.8002 116.479 36.6402 116.959C38.2002 117.359 39.7602 116.919 41.1202 116.119C43.4802 114.799 45.4402 112.719 47.0802 110.639C47.2002 110.479 47.3202 110.359 47.4002 110.199C48.0402 109.479 46.2002 108.759 45.7202 109.439Z" fill="#000005"/>
<path d="M78.8797 107.64C78.8797 107.64 80.7197 110.28 84.5597 113.16C91.7597 118.52 91.2397 121.72 88.0397 122C84.8397 122.28 74.7197 115.6 74.7197 115.6" fill="white"/>
<path d="M78.0394 108.2C79.6394 110.44 81.8394 112.36 84.0394 114C85.5594 115.08 86.9594 116.36 88.1594 117.8C88.5194 118.24 88.8394 118.76 89.1194 119.28C89.0794 119.16 89.1994 119.44 89.1994 119.48C89.2394 119.6 89.2794 119.68 89.2794 119.8C89.3194 119.88 89.3194 120 89.3594 120.08C89.3994 120.24 89.3994 120 89.3594 120.24C89.3594 120.32 89.3594 120.4 89.3594 120.48C89.3594 120.64 89.3594 120.44 89.3594 120.44C89.3594 120.48 89.3594 120.52 89.3194 120.56C89.2794 120.6 89.1594 120.84 89.3194 120.6C89.2794 120.68 89.2394 120.76 89.1994 120.8C89.3594 120.56 89.2394 120.76 89.1594 120.8C88.9994 120.92 89.3594 120.68 89.1594 120.8C89.0794 120.84 89.0394 120.88 88.9594 120.92C88.7994 121.04 89.1594 120.84 88.9994 120.88L88.8394 120.96L88.5594 121.04C88.7594 120.96 88.5994 121.04 88.4794 121.04C88.3594 121.04 88.2394 121.08 88.1194 121.08H87.9994C87.7994 121.08 88.1994 121.08 87.9994 121.08C87.7994 121.08 87.5994 121.04 87.4394 121.04C87.3594 121.04 87.2394 121 87.1594 121L86.9194 120.96C84.5194 120.28 82.2394 119 80.0794 117.76C78.4794 116.84 76.9194 115.88 75.3994 114.88C74.9594 114.6 74.3994 114.68 74.0394 115.08C73.7594 115.4 73.5594 116 73.9994 116.28C75.3994 117.2 76.7994 118.04 78.2394 118.88C80.5994 120.24 83.0794 121.68 85.6794 122.48C86.6394 122.8 87.6394 122.88 88.6394 122.68C89.6794 122.48 90.5594 121.8 90.9994 120.84C91.3994 119.88 91.0794 118.84 90.6394 117.96C89.9194 116.56 88.7194 115.36 87.5594 114.32C85.6394 112.6 83.5194 111.2 81.7194 109.4C80.9594 108.68 80.2794 107.88 79.6794 107.04C79.0394 106.16 77.3994 107.24 77.9994 108.12L78.0394 108.2Z" fill="#000005"/>
<path d="M122.52 176.44C122.52 176.44 150.52 138.76 148.84 138.24C147.16 137.72 116.92 134.48 115.56 135C114.2 135.52 90.0002 175.44 90.0002 175.44L51.7202 176.04C51.7202 176.04 49.5202 178.68 51.1602 179.44C52.8002 180.2 119.6 177.44 122.52 176.44Z" fill="#68BA7F"/>
<path d="M123.439 176.44C124.999 174.36 126.559 172.24 128.079 170.12C131.399 165.6 134.719 161.04 137.999 156.44C141.119 152.08 144.239 147.68 147.159 143.2C148.039 141.88 148.839 140.56 149.599 139.16C149.799 138.84 149.919 138.52 149.919 138.12C149.879 137.72 149.359 137.72 149.039 137.68C147.319 137.36 145.559 137.2 143.799 136.96C140.919 136.6 138.039 136.28 135.119 136C129.559 135.4 123.999 134.8 118.439 134.52C117.239 134.44 115.519 134.16 114.599 135.12C113.879 135.92 113.239 136.84 112.679 137.76C109.879 141.88 107.239 146.16 104.599 150.36C101.439 155.44 98.2795 160.52 95.1995 165.6C93.2795 168.72 91.3595 171.88 89.4395 175L89.1595 175.44L90.4395 174.96L83.1195 175.08L67.9195 175.32L54.8395 175.52C53.9595 175.52 53.0795 175.52 52.1995 175.56C51.0795 175.6 50.6395 176.24 50.1195 177.12C49.5995 178 49.1995 179.4 50.4395 179.88C51.0395 180.12 51.8395 180.04 52.4795 180.04C53.7195 180.08 54.9995 180.04 56.2395 180.04C60.3195 180 64.3995 179.88 68.4795 179.72C73.7195 179.56 78.9995 179.36 84.2395 179.12C89.6795 178.88 95.0795 178.64 100.519 178.4C105.039 178.16 109.599 177.92 114.119 177.64C116.639 177.48 119.239 177.4 121.759 177C122.119 176.96 122.479 176.88 122.839 176.76C123.079 176.68 123.639 176.4 123.399 176.08C123.159 175.76 122.399 176 122.119 176.08C122.199 176.04 122.439 176.04 122.199 176.04C122.159 176.04 122.159 176.04 122.119 176.04C121.919 176.08 122.439 176 122.239 176C122.039 176 121.839 176.04 121.639 176.08C121.039 176.16 120.399 176.24 119.799 176.28C117.799 176.44 115.839 176.6 113.839 176.72L112.879 176.76L112.439 176.8H112.399H112.119L110.079 176.92L105.679 177.16C102.439 177.32 99.1595 177.48 95.9195 177.64C92.4395 177.8 88.9595 177.96 85.4795 178.08C82.0395 178.24 78.5995 178.36 75.1595 178.48C72.0395 178.6 68.9195 178.72 65.7995 178.8C63.2395 178.88 60.7195 178.96 58.1595 179C56.4795 179.04 54.7995 179.04 53.1595 179.04L52.3995 179H52.1195C51.8795 179 52.3595 179.04 52.0795 179L51.9195 178.96C51.7595 178.96 51.9595 178.96 51.9595 178.96C51.9595 178.96 51.7595 178.84 51.7195 178.8C51.5995 178.68 51.5595 178.52 51.5195 178.36C51.5195 177.96 51.5995 177.6 51.7595 177.28C51.9595 176.8 52.2395 176.4 52.5595 176L51.2795 176.48L55.5195 176.4L65.4795 176.24L77.1595 176.04L86.5195 175.88L89.0395 175.84C89.6795 175.84 90.4795 175.88 90.8795 175.32C91.1595 174.96 91.3595 174.56 91.5595 174.16C92.0795 173.32 92.5995 172.48 93.0795 171.64C94.6795 169 96.3195 166.36 97.9195 163.68C99.9595 160.36 101.999 157.04 104.079 153.68C106.079 150.48 108.079 147.24 110.119 144.04C111.639 141.68 113.119 139.32 114.719 137C115.119 136.4 115.559 135.76 115.999 135.2C116.039 135.12 116.119 135.04 116.199 134.96C116.279 134.88 116.119 135.04 116.159 135C116.199 134.96 116.239 134.96 116.039 135.04C116.119 135 115.759 135.16 115.839 135.12C115.879 135.12 115.519 135.2 115.639 135.2C115.559 135.2 115.319 135.24 115.519 135.24C115.719 135.24 115.279 135.24 115.479 135.24H115.679C116.679 135.24 117.719 135.32 118.719 135.36C120.399 135.48 121.839 135.6 123.439 135.72C127.439 136.08 131.439 136.48 135.439 136.92C138.799 137.28 142.159 137.64 145.479 138.08C146.279 138.2 147.079 138.32 147.879 138.44C148.119 138.48 147.799 138.4 147.799 138.4C147.879 138.4 147.679 138.28 147.759 138.36C147.839 138.44 147.719 138.48 147.759 138.32C147.679 138.52 147.679 138.68 147.599 138.88C147.479 139.2 147.319 139.48 147.159 139.76C146.919 140.2 146.799 140.4 146.519 140.84C145.879 141.92 145.199 142.96 144.519 144C142.639 146.84 140.679 149.64 138.719 152.44C136.479 155.6 134.239 158.76 131.959 161.92C129.919 164.72 127.879 167.56 125.799 170.36C124.519 172.08 123.239 173.8 121.999 175.52C121.839 175.76 121.639 176 121.479 176.24C121.199 176.6 121.679 176.72 121.959 176.72C122.599 176.96 123.079 176.8 123.439 176.44Z" fill="#68BA7F"/>
<path d="M124 155.279C123.28 154.319 122.44 153.239 121.32 152.719C120.32 152.279 119.2 152.519 118.44 153.279C117.68 154.119 117.2 155.159 117.12 156.319C117 157.519 117.32 158.759 118.08 159.719C118.84 160.719 120.08 161.759 121.4 161.439C121.72 161.359 121.28 160.799 121.2 160.679C121.04 160.479 120.88 160.279 120.68 160.119C120.6 160.039 120.4 159.839 120.24 159.879C119.76 159.999 119.24 159.959 118.84 159.719C118.72 159.639 118.68 159.599 118.8 159.719C118.72 159.559 118.64 159.359 118.6 159.199C118.36 158.119 118.48 156.999 118.92 155.999C119.32 155.039 120.16 154.159 121.28 154.079C121.76 154.039 122.2 154.159 122.6 154.439C122.72 154.519 122.8 154.639 122.88 154.719C122.96 154.839 123.12 155.039 123.28 155.239C123.44 155.439 123.6 155.639 123.8 155.799C123.88 155.839 124.12 156.039 124.24 156.039C124.52 155.959 124.08 155.359 124 155.279Z" fill="white"/>
<path d="M179.24 33.5996H109.44V88.3596H179.24V33.5996Z" fill="#68BA7F"/>
<path d="M179.001 87.9602H112.041C111.121 87.9602 110.201 87.9202 109.321 87.9602H109.201L110.401 88.4802V35.9202C110.441 35.2002 110.441 34.4802 110.401 33.8002C110.401 33.7602 110.401 33.7202 110.401 33.7202L109.641 34.0002H176.601C177.521 34.0002 178.441 34.0402 179.321 34.0002H179.441L178.241 33.4802V86.0002C178.241 86.7202 178.201 87.4402 178.241 88.1602C178.241 88.2002 178.241 88.2402 178.241 88.2402C178.241 88.8402 180.241 89.0002 180.241 88.4802V35.9202C180.241 35.2002 180.281 34.4802 180.241 33.8002V33.7202C180.241 33.2802 179.281 33.2002 179.041 33.2002H112.041C111.121 33.2002 110.241 33.2002 109.321 33.2002H109.201C109.041 33.2002 108.441 33.2402 108.441 33.5202V86.0402C108.441 86.7602 108.401 87.4802 108.441 88.2002V88.2802C108.441 88.7202 109.401 88.8002 109.641 88.8002H176.601C177.521 88.8002 178.401 88.8002 179.321 88.8002H179.441C179.681 88.8002 180.321 88.7602 180.201 88.4002C180.081 88.0402 179.281 87.9602 179.001 87.9602Z" fill="#68BA7F"/>
<path d="M117.68 47.04C117.68 47.04 117.28 71.68 118.44 73.16C119.6 74.64 141.6 82.08 142.64 81.88C143.68 81.68 141.76 51.44 141.76 51.44L117.68 47.04Z" fill="white"/>
<path d="M116.721 46.8803C116.681 48.8003 116.681 50.7603 116.681 52.6803C116.681 56.5203 116.681 60.4003 116.761 64.2403C116.801 65.9603 116.841 67.6803 116.961 69.3603C117.001 70.4403 117.121 71.5203 117.321 72.6003C117.521 73.4003 117.961 73.8003 118.681 74.1603C119.881 74.7603 121.081 75.3203 122.321 75.8003C125.881 77.2403 129.521 78.5203 133.201 79.7603C136.041 80.7203 138.921 81.7603 141.841 82.4403C142.561 82.6003 143.521 82.7203 143.801 81.8403C143.961 81.0803 144.001 80.2803 143.961 79.5203C144.001 76.2803 143.881 73.0803 143.761 69.8403C143.601 66.1203 143.441 62.4003 143.201 58.6403C143.081 56.3603 142.961 54.0803 142.801 51.8003C142.801 51.6803 142.801 51.5603 142.801 51.4403C142.761 51.0803 142.241 50.8403 141.961 50.7603L133.841 49.2803L120.841 46.9203L117.841 46.4003C117.401 46.3203 116.801 46.4003 116.721 46.8803C116.641 47.4003 117.201 47.6803 117.561 47.7603L125.681 49.2403L138.681 51.6003L141.641 52.1603L140.801 51.4803C140.881 53.0403 141.001 54.6003 141.081 56.2003C141.281 59.6403 141.441 63.0803 141.601 66.5203C141.761 70.0003 141.921 73.4803 141.961 76.9603C141.961 77.9603 141.961 79.2003 141.921 80.3203C141.921 80.6403 141.881 81.0003 141.841 81.3203C141.841 81.3603 141.801 81.4403 141.801 81.4803C141.801 81.6403 141.761 81.5603 141.841 81.4403C141.841 81.4403 141.841 81.4803 141.801 81.5203C141.961 81.3203 142.201 81.2003 142.481 81.2003C142.281 81.2003 142.641 81.2403 142.601 81.2003C142.561 81.2003 142.481 81.1603 142.401 81.1603C142.241 81.1203 142.081 81.0803 141.921 81.0403C141.721 81.0003 141.481 80.9203 141.241 80.8803L141.001 80.8003C141.161 80.8403 140.921 80.8003 140.881 80.7603L140.641 80.6803C139.161 80.2403 137.721 79.8003 136.241 79.3203C132.561 78.1203 128.921 76.8403 125.321 75.4803C123.881 74.9203 122.401 74.3603 121.001 73.7203C120.721 73.6003 120.481 73.4803 120.201 73.3603L120.041 73.2803C119.841 73.2003 120.081 73.3203 120.041 73.2803L119.721 73.1203C119.561 73.0403 119.401 72.9603 119.281 72.8403C119.161 72.7203 119.201 72.7603 119.281 72.8403C119.241 72.8003 119.161 72.6803 119.241 72.8003C119.321 72.9203 119.281 72.8003 119.241 72.7603C119.201 72.7203 119.281 72.9603 119.241 72.7603C119.201 72.5603 119.161 72.4403 119.121 72.2803C119.041 71.8003 118.961 71.3203 118.921 70.8403C118.801 69.4003 118.721 67.9203 118.681 66.4403C118.561 62.6803 118.521 58.9603 118.561 55.2003C118.561 52.6403 118.561 50.0803 118.601 47.5203C118.601 47.4003 118.601 47.2803 118.601 47.1203C118.561 46.6803 118.201 46.3203 117.761 46.2803C117.521 46.3203 116.721 46.4003 116.721 46.8803Z" fill="#000005"/>
<path d="M169.32 45.5605L141.76 51.4405L142.64 81.8805C142.64 81.8805 171.24 74.1205 171.2 71.8405C171.16 69.5605 169.32 45.5605 169.32 45.5605Z" fill="white"/>
<path d="M169 45.4403L159.68 47.4403L144.84 50.6003L141.44 51.3203C141.32 51.3603 140.76 51.4403 140.76 51.6403L141.04 62.0003L141.52 78.3603L141.64 82.0803C141.64 82.3203 143.04 82.0003 143.16 81.9603C145.92 81.2003 148.72 80.4003 151.48 79.6003C156.4 78.1603 161.32 76.6803 166.16 74.8803C167.84 74.3203 169.48 73.6003 171.08 72.7603C171.48 72.5603 171.84 72.2803 172.12 71.9203C172.28 71.6003 172.2 71.2003 172.16 70.8403C171.92 66.3603 171.56 61.8403 171.2 57.3603C170.92 53.4403 170.6 49.5203 170.32 45.6003V45.4003C170.32 45.1603 168.32 45.4003 168.36 45.7603C168.6 49.0403 168.84 52.3203 169.08 55.5603C169.44 60.4003 169.8 65.2403 170.12 70.0803C170.16 70.6403 170.2 71.2403 170.24 71.8003C170.24 72.1603 170.2 72.2403 169.88 72.4803C169.44 72.8003 168.92 73.0803 168.44 73.3203C168.04 73.5203 167.8 73.6003 167.4 73.8003C167 74.0003 166.56 74.1603 166.12 74.3203C161.52 76.1203 156.8 77.5203 152.08 78.9603C148.84 79.9203 145.6 80.8003 142.36 81.7603L142.2 81.8003L143.72 81.6803L143.4 71.3203L142.92 54.9603L142.8 51.2403L142.12 51.5603L151.44 49.5603L166.28 46.4003L169.68 45.6803C169.8 45.6403 170.48 45.5203 170.32 45.3203C170.16 45.1203 169.16 45.4003 169 45.4403Z" fill="#000005"/>
<path d="M117.681 47.0396C117.681 47.0396 142.641 39.7596 143.241 39.9196C143.841 40.0796 169.281 45.5596 169.281 45.5596L141.721 51.4396L117.681 47.0396Z" fill="white"/>
<path d="M118.52 47.5603C121.32 46.7203 124.16 45.9203 127 45.1203C131.56 43.8003 136.12 42.4803 140.68 41.2803C141.4 41.0803 142.12 40.8803 142.84 40.7203C143.24 40.6403 143.6 40.5603 143.96 40.4803C143.96 40.4803 143.64 40.4403 143.88 40.4803C144.04 40.5203 144.16 40.5603 144.32 40.6003L146.08 41.0003C150.56 41.9603 155 42.9203 159.44 43.8803C162.84 44.6003 166.24 45.4003 169.68 46.0803L169.84 46.1203L168.48 45.1603L160.2 46.9203L145.96 49.9603L141.6 50.8803C141.44 50.9203 141.28 50.9603 141.12 50.9603C140.84 51.0403 141.04 50.8803 141.24 51.0003C141 50.9203 140.72 50.8803 140.44 50.8403L128.16 48.6003C124.56 47.9603 120.96 47.2803 117.36 46.6403L117.16 46.6003C116.8 46.5203 116.72 46.6803 117 46.9203C117.36 47.2403 117.8 47.4803 118.24 47.5603L127.48 49.2403L140.68 51.6403C141.28 51.7603 142.08 52.0403 142.72 51.9203C143.88 51.7203 145 51.4403 146.12 51.2003L160.04 48.2403L166.52 46.8803C167.68 46.6403 168.84 46.4403 169.96 46.1603L170.12 46.1203C170.36 46.0803 169.88 45.6803 169.84 45.6403C169.52 45.4003 169.16 45.2003 168.76 45.1203L160.08 43.2403C155.44 42.2403 150.76 41.2403 146.12 40.2003C145 39.9603 143.92 39.7203 142.8 39.4803C142 39.3203 141.04 39.7203 140.32 39.9203C135.92 41.0803 131.56 42.3203 127.2 43.6003C125 44.2403 122.8 44.8803 120.6 45.4803C119.4 45.8403 118.2 46.1203 117.04 46.5203C117 46.5203 116.92 46.5603 116.88 46.5603C116.6 46.6403 117.32 47.1203 117.36 47.1603C117.64 47.3203 118.16 47.6403 118.52 47.5603Z" fill="#000005"/>
<path d="M127.12 64.4001L126.92 48.7201L153.32 42.1201L160.64 43.7201L134 50.0401L133.64 65.8001L127.12 64.4001Z" fill="#000005"/>
<path d="M128.08 64.6403L127.88 50.9603L127.84 49.0003L127.68 49.0803L136.64 46.8403L150.8 43.2803L154.08 42.4803L153.48 42.4403L160.8 44.0403L159.8 43.4403L150.8 45.5603L136.44 48.9603L133.16 49.6803C133.08 49.6803 133.04 49.7203 133 49.7603L132.68 63.6003L132.64 65.5603L133.4 65.5203L126.88 64.1203C126.72 64.0803 126.08 63.9603 126.12 64.2003C126.16 64.4403 127.12 64.6403 127.28 64.6803L133.8 66.0803C133.88 66.0803 134.56 66.2403 134.56 66.0403L134.88 52.2003L134.92 50.2403L134.76 50.3203L143.76 48.2003L158.12 44.8003L161.4 44.0403C161.64 44.0003 161.56 43.8803 161.4 43.7603C161.08 43.6003 160.76 43.4803 160.4 43.4403C158 42.9203 155.64 42.4003 153.24 41.8803C152.76 41.7603 152.28 41.8003 151.84 41.9603L149.24 42.6003L140.48 44.8003L131.12 47.1203C129.44 47.5203 127.72 47.8403 126.12 48.3603L126.04 48.4003C125.96 48.4003 125.92 48.4403 125.88 48.4803L126.08 62.2003L126.12 64.1603C126.16 64.6003 128.08 64.8403 128.08 64.6403Z" fill="#000005"/>
<path d="M154.2 71.6802C154.16 71.3202 155.92 71.2002 155.92 71.2002C155.92 71.2002 156.16 73.3602 155.4 73.6002C154.64 73.8402 154.24 72.8402 154.2 71.6802Z" fill="#000005"/>
<path d="M155.12 71.4405V71.4005L155.08 71.5205C155.08 71.5205 155.08 71.5205 155.08 71.4805C155.12 71.4005 154.92 71.6405 155 71.5605C155.08 71.4805 154.8 71.7205 154.88 71.6405C154.96 71.5605 154.6 71.8005 154.72 71.7205C154.84 71.6405 154.4 71.8405 154.6 71.7605L154.64 71.7205C154.72 71.6805 154.32 71.8005 154.48 71.7605C154.64 71.7205 154.92 71.6805 154.52 71.7205L154.8 71.6805C154.96 71.6405 155.12 71.6405 155.28 71.6005H155.44C155.6 71.6005 155.2 71.6005 155.32 71.6005L154.96 71.4405C154.96 71.6005 155 71.7605 155 71.9205V71.8005C155.04 72.3205 155 72.8805 154.8 73.3605L154.84 73.2405C154.8 73.2805 154.76 73.3605 154.76 73.4005C154.68 73.5205 154.88 73.2805 154.8 73.3605C154.72 73.4405 155 73.2005 154.88 73.2805C154.84 73.3205 155.12 73.1205 155.04 73.2005C155.24 73.1205 155.32 73.0805 155.24 73.1205C155.16 73.1605 155.24 73.1205 155.44 73.0405C155.32 73.0805 155.64 73.0005 155.6 73.0005C155.56 73.0005 155.48 73.0005 155.64 73.0005C155.8 73.0005 155.72 73.0005 155.68 73.0005C155.6 73.0005 155.84 73.0405 155.76 73.0005C155.68 72.9605 155.68 72.9605 155.64 72.9605L155.76 73.0005C155.64 72.9605 155.56 72.8805 155.48 72.8005L155.56 72.8805C155.24 72.3605 155.08 71.8005 155.08 71.2005C155.08 71.0805 154.76 71.0405 154.72 71.0405C154.24 71.0805 153.76 71.2405 153.4 71.5605L153.28 71.6805C153.24 71.7605 153.2 71.8405 153.24 71.9205C153.24 72.4805 153.36 73.0005 153.64 73.4805C153.76 73.6805 153.96 73.8405 154.2 73.9205C154.64 74.0405 155.12 73.9605 155.52 73.7605C155.92 73.6405 156.24 73.3605 156.52 73.0405C156.64 72.8805 156.72 72.6805 156.76 72.5205C156.84 72.1605 156.88 71.8005 156.88 71.4005C156.88 71.1605 156.88 70.8805 156.84 70.6405C156.84 70.5205 156.52 70.4805 156.48 70.4805C156.08 70.5205 155.72 70.5605 155.32 70.6405C154.96 70.7205 154.6 70.8005 154.28 70.9205C154 71.0405 153.72 71.2005 153.52 71.3605C153.44 71.4405 153.28 71.6005 153.28 71.7205C153.24 71.7605 153.28 71.8405 153.32 71.8805C153.36 71.9205 153.4 71.9605 153.48 71.9605C153.68 72.0005 153.92 71.9605 154.08 71.9205C154.32 71.8405 154.56 71.7605 154.8 71.6005L154.96 71.4805C155 71.6405 155.08 71.5605 155.12 71.4405Z" fill="#000005"/>
<path d="M154.96 75.7601C155.04 75.7601 156.12 75.5201 156.04 75.4001C155.96 75.2801 155.48 75.3201 155.48 75.3201L155.4 73.1201H155.2L155.36 75.3201C155.36 75.2801 154.72 75.8001 154.96 75.7601Z" fill="#000005"/>
<path d="M154.8 76.5204C155.32 76.4404 155.8 76.2804 156.28 76.0804C156.56 75.9604 156.76 75.7604 156.92 75.5204C157.08 75.2404 157 74.8804 156.72 74.7204C156.68 74.6804 156.64 74.6804 156.6 74.6804C156.28 74.5604 155.96 74.5604 155.68 74.5604L156.44 75.0004L156.36 72.8004C156.36 72.6404 156.24 72.5204 156.12 72.4404C155.96 72.3604 155.8 72.3204 155.6 72.3604H155.4C154.92 72.3604 154.28 72.8804 154.32 73.4004L154.48 75.6004L154.88 74.8404C154.68 75.0004 154.52 75.1604 154.36 75.3204C154.2 75.4804 154.12 75.6404 154.04 75.8404C153.88 76.3204 154.4 76.5604 154.8 76.5204C155.04 76.4804 155.28 76.3604 155.52 76.2004C155.72 76.0804 155.84 75.8804 155.88 75.6404C155.92 75.4404 155.88 75.2404 155.72 75.1204C155.56 75.0004 155.32 74.9604 155.12 75.0004C155.04 75.0004 155.36 75.0004 155.32 75.0004L155.52 75.0404L155.68 75.1204L155.8 75.2804L155.84 75.4404V75.6404L155.76 75.8404C155.8 75.7204 155.6 76.0404 155.68 75.9604L155.72 75.9204C155.8 75.8404 155.52 76.1204 155.6 76.0404L155.68 75.9604L155.88 75.8004C156.12 75.6004 156.28 75.3204 156.28 75.0004V74.8004L156.2 73.2804L156.16 72.8404L155.08 73.8804H155.28L154.52 73.4404L154.6 75.6404C154.6 75.8004 154.72 75.9204 154.84 76.0004C155 76.0804 155.16 76.1204 155.36 76.0804C155.28 76.0804 155.08 76.0804 155.2 76.0804H155.32C155.4 76.0804 155.48 76.0804 155.56 76.1204L155.36 76.0804L155.44 76.1204L155.28 76.0404C155.28 76.0404 155.32 76.0404 155.32 76.0804L155.2 75.9204L155.16 75.7604V75.5604L155.24 75.3604C155.36 75.1604 155.52 75.0004 155.72 74.8804L155.68 74.9204C156 74.7604 155.96 74.8004 155.84 74.8404L155.76 74.8804C155.64 74.9204 155.56 74.9604 155.44 74.9604L155.12 75.0404L155.24 75.0004H155.2C154.96 75.0404 154.68 75.1604 154.48 75.3204C154.28 75.4804 154.16 75.6404 154.12 75.8804C154.08 76.0804 154.12 76.2804 154.28 76.4004C154.36 76.4804 154.6 76.5204 154.8 76.5204Z" fill="#000005"/>
<path d="M157.721 72.3598L162.041 71.1598C162.041 71.1598 160.761 70.0798 159.681 70.2398C158.601 70.3998 157.721 72.3598 157.721 72.3598Z" fill="#000005"/>
<path d="M157.881 73.0398L161.641 71.9998L162.201 71.8398C162.521 71.7998 162.801 71.5998 163.001 71.3198C163.121 71.0798 163.081 70.7998 162.841 70.6398C162.081 69.9598 161.121 69.5598 160.121 69.4798C158.801 69.4398 157.841 70.3598 157.201 71.4398C157.041 71.6798 156.921 71.9198 156.801 72.1598C156.361 73.1998 158.281 73.3198 158.641 72.5198C158.721 72.3598 158.801 72.1998 158.881 72.0398C158.961 71.8798 159.081 71.7198 159.161 71.5998C159.201 71.5598 159.201 71.5198 159.241 71.4798C159.281 71.4398 159.201 71.5598 159.201 71.5598L159.241 71.5198C159.321 71.4398 159.361 71.3598 159.441 71.2798C159.521 71.1998 159.561 71.1198 159.641 71.0798L159.681 71.0398C159.761 70.9598 159.601 71.1198 159.601 71.1198C159.641 71.0798 159.681 71.0398 159.721 71.0398C159.761 71.0398 159.761 70.9998 159.801 70.9998C159.881 70.9598 159.681 71.0798 159.681 71.0798L159.801 71.0398C159.961 70.9598 159.561 71.1198 159.721 71.0798C159.761 71.0798 159.761 71.0798 159.801 71.0798C159.881 71.0398 159.601 71.0798 159.681 71.0798H159.841C159.921 71.0798 159.721 71.0798 159.721 71.0798C159.761 71.0798 159.761 71.0798 159.801 71.0798L159.961 71.1198C160.161 71.1598 159.841 71.0798 160.001 71.1198C160.201 71.1998 160.441 71.2798 160.641 71.3998L160.721 71.4398C160.801 71.4798 160.681 71.4398 160.681 71.3998C160.721 71.4398 160.761 71.4798 160.801 71.4798L161.041 71.6398C161.121 71.6798 161.201 71.7598 161.241 71.7998L161.881 70.5998L158.121 71.6398L157.561 71.7998C157.321 71.8398 157.081 71.9598 156.921 72.1598C156.761 72.3198 156.721 72.5198 156.721 72.7198C156.881 72.9998 157.481 73.1598 157.881 73.0398Z" fill="#000005"/>
<path d="M159.88 71.2402C159.88 71.2402 160.24 73.4402 160.16 73.9602C160.08 74.4802 159.28 74.2002 159.16 73.7202L159.36 73.6402C159.36 73.6402 159.68 74.0002 159.84 73.8802C160 73.7602 159.6 71.5202 159.6 71.5202L159.88 71.2402Z" fill="#000005"/>
<path d="M158.96 71.0402C159.04 71.4002 159.08 71.8002 159.12 72.1602C159.16 72.4402 159.2 72.7602 159.2 73.0402C159.2 73.2802 159.2 73.4802 159.2 73.7202L159.24 73.5202C159.24 73.5602 159.2 73.6402 159.2 73.6802L159.28 73.5202C159.28 73.5602 159.24 73.6002 159.2 73.6002L159.36 73.4802C159.32 73.5202 159.28 73.5202 159.28 73.5202L159.48 73.4402C159.44 73.4402 159.4 73.4802 159.36 73.4802H159.56C159.44 73.4802 159.44 73.4402 159.68 73.5202H159.6C159.48 73.4802 159.88 73.6402 159.72 73.5602C159.56 73.4802 159.96 73.7202 159.84 73.6402C159.72 73.5602 159.92 73.7202 159.96 73.7602L159.92 73.7202C159.88 73.6402 159.88 73.6802 160 73.8402L159.96 73.7602C160.08 74.0002 160.04 73.9202 160 73.8402L159.6 74.6402L159.8 74.5602L158.72 74.1202C158.84 74.2402 158.96 74.4002 159.12 74.4802C159.48 74.7202 160 74.9602 160.44 74.7202C160.68 74.5202 160.8 74.2002 160.76 73.8802C160.72 73.3602 160.64 72.8002 160.56 72.2802L160.44 71.6402L160.36 72.2002L160.64 71.9602C160.76 71.8002 160.8 71.5602 160.72 71.4002C160.56 70.9202 160.12 70.5602 159.6 70.5202L159.4 70.5602C159.28 70.6002 159.16 70.6802 159.08 70.7602L158.88 70.9202L158.8 71.0002C158.68 71.1602 158.64 71.4002 158.72 71.6002C158.72 71.6802 158.76 71.7602 158.76 71.8402L158.72 71.6402C158.76 72.0002 158.84 72.3602 158.88 72.7202C158.92 73.0402 158.96 73.3602 158.96 73.6802L159 73.4802C159 73.5202 159 73.5202 159 73.5602L159.08 73.4002L159.24 73.2802H159.2L159.4 73.2002H159.36L159.56 73.1602C159.52 73.1602 159.52 73.1602 159.64 73.1602C159.72 73.1602 159.76 73.1602 159.84 73.2002C160 73.2802 159.92 73.2402 159.88 73.2002C159.84 73.1602 160.12 73.3602 160.04 73.2802L160 73.2402C159.84 73.1202 160.2 73.4402 160.12 73.3202L160.08 73.2802C159.92 73.1202 159.76 73.0002 159.56 72.9202C159.4 72.8402 159.2 72.8002 159 72.8802L158.8 72.9602C158.64 73.0002 158.52 73.1202 158.44 73.2402C158.36 73.4002 158.36 73.5602 158.4 73.7202C158.52 74.1202 158.76 74.4402 159.08 74.6802C159.4 74.9202 159.76 75.0802 160.16 75.1202C160.48 75.1602 160.8 75.0402 161 74.8002C161.12 74.6002 161.2 74.3602 161.2 74.1202C161.2 73.8002 161.2 73.4802 161.16 73.2002C161.12 72.8402 161.08 72.4802 161 72.1602C160.96 71.9602 160.96 71.7602 160.92 71.5602C160.88 71.3202 160.8 71.1202 160.64 70.9202C160.48 70.7202 160.24 70.6002 160 70.5202C159.8 70.4402 159.56 70.4802 159.36 70.5602C159.08 70.6402 158.96 70.8402 158.96 71.0402Z" fill="#000005"/>
<path d="M163.48 73.4002L163.44 72.4802L167.92 71.2402L167.96 72.0002L163.48 73.4002Z" fill="#000005"/>
<path d="M164.441 73.6004L164.401 72.6804L163.961 73.1204L167.881 72.0404L168.441 71.8804L166.961 71.0404L167.001 71.8404L167.241 71.4404L163.321 72.6404L162.801 72.8004C162.641 72.8804 162.521 73.0404 162.561 73.2004C162.601 73.4004 162.721 73.5604 162.881 73.6804C163.241 74.0004 163.761 74.1204 164.241 73.9604L168.161 72.7604L168.721 72.6004C168.881 72.5204 169.001 72.3604 168.961 72.2004L168.921 71.4004C168.881 70.8404 167.921 70.4404 167.441 70.5604L163.521 71.6804L162.961 71.8404C162.721 71.9204 162.521 72.0004 162.521 72.2804L162.561 73.2004C162.561 73.6404 163.161 73.9604 163.561 74.0404C163.961 74.1204 164.441 74.0404 164.441 73.6004Z" fill="#000005"/>
<path d="M164.081 72.0002L164.041 70.6002C164.041 70.6002 163.481 70.7602 163.561 70.6002C163.641 70.4402 163.961 69.6002 164.241 69.6802C164.521 69.7602 164.921 70.3602 164.921 70.3602H164.561L164.721 71.8402L164.081 72.0002Z" fill="#000005"/>
<path d="M165.001 72.0406L164.961 70.6406C164.881 70.0406 164.361 69.6406 163.761 69.7206C163.721 69.7206 163.681 69.7206 163.681 69.7206C163.561 69.7606 163.441 69.8005 163.321 69.8005L163.561 69.7605H163.481L163.721 69.8005H163.681L163.921 69.8805L164.121 70.0406L164.281 70.2406L164.401 70.4805L164.441 70.7206V70.9206L164.361 71.1605C164.441 70.9205 164.561 70.6805 164.681 70.4805L164.561 70.6805C164.601 70.6005 164.641 70.5605 164.721 70.4805L164.521 70.6406C164.561 70.6406 164.561 70.6005 164.601 70.6005L164.401 70.6805H164.441L164.201 70.7206H164.241L164.001 70.6805H164.041L163.801 70.6005C163.841 70.6005 163.881 70.6405 163.921 70.6805L163.721 70.5206C163.801 70.6006 163.881 70.6406 163.961 70.7206L163.801 70.5206C163.921 70.6406 164.001 70.7606 164.081 70.9206L164.761 69.5206H164.401C164.161 69.5206 163.921 69.6005 163.761 69.8005C163.601 70.0005 163.521 70.2405 163.561 70.4805L163.721 71.9605L164.321 71.0406L163.721 71.2005C163.281 71.3205 163.001 71.8006 163.121 72.2406C163.121 72.2806 163.121 72.3206 163.161 72.3206C163.361 72.8006 163.881 73.1205 164.401 73.0005L165.001 72.8406C165.401 72.7206 165.641 72.3606 165.601 71.9206L165.441 70.4406L164.601 71.3605H164.961C165.281 71.3605 165.601 71.2005 165.721 70.8805C165.841 70.5605 165.801 70.2405 165.601 69.9605C165.441 69.7205 165.281 69.5206 165.081 69.3206C164.921 69.1606 164.761 69.0405 164.601 68.9605C164.241 68.7605 163.841 68.7605 163.481 68.9605C163.161 69.2005 162.921 69.5205 162.761 69.8805C162.721 69.9605 162.681 70.0805 162.641 70.1605C162.561 70.3205 162.521 70.5205 162.561 70.6805C162.601 71.0405 162.841 71.3606 163.161 71.5206C163.521 71.6806 163.961 71.7205 164.361 71.5605L163.081 70.6406L163.121 72.0406C163.161 72.2806 163.281 72.5206 163.481 72.7206C163.681 72.8806 163.921 73.0005 164.201 73.0005C164.441 73.0005 164.681 72.9206 164.841 72.7206C165.001 72.5206 165.041 72.2806 165.001 72.0406Z" fill="#000005"/>
<path d="M166.52 71.2804L166.48 69.8804C166.48 69.8804 165.92 70.0404 166 69.8804C166.08 69.7204 166.36 68.8804 166.68 68.9604C167 69.0404 167.36 69.6404 167.36 69.6404H167L167.16 71.1204L166.52 71.2804Z" fill="#000005"/>
<path d="M167.521 71.0405L167.481 69.6405C167.481 69.5205 167.001 69.6005 166.961 69.6005C166.641 69.6405 166.281 69.7205 165.961 69.8405C165.841 69.8805 166.241 69.7605 166.121 69.8005H166.081C166.001 69.8405 165.881 69.8405 166.281 69.7605H166.241L166.441 69.7205C166.321 69.7205 166.721 69.6805 166.601 69.6805C166.681 69.6805 166.801 69.6805 166.881 69.6805C167.041 69.6805 166.961 69.7205 166.921 69.6805L166.961 69.7205C166.921 69.6805 167.001 69.6005 167.001 69.5605C167.041 69.4405 167.081 69.3605 167.121 69.2405L167.081 69.2805C167.121 69.1605 167.201 69.0805 167.241 69.0005C167.281 68.9605 167.281 68.9205 167.321 68.8805L167.361 68.8405C167.401 68.8005 167.361 68.8005 167.321 68.8805C167.361 68.8405 167.321 68.8805 167.241 68.9205L166.841 69.0805L166.601 69.1205L166.121 69.2005L165.761 69.2405C165.801 69.2405 165.681 69.2005 165.721 69.2405L165.761 69.2805C165.801 69.2805 165.841 69.3205 165.881 69.3605L165.841 69.3205C166.041 69.4805 166.201 69.6805 166.361 69.9205L168.001 69.4405H167.641C167.281 69.4805 166.921 69.5205 166.561 69.6405C166.441 69.6805 166.281 69.7205 166.161 69.8005C166.121 69.8005 165.961 69.8805 165.961 69.9605L166.121 71.4405L167.081 71.0405L166.481 71.1605C166.241 71.2005 166.041 71.2805 165.801 71.3605C165.801 71.3605 165.521 71.4405 165.561 71.5205C165.601 71.6005 165.841 71.5605 165.881 71.5605C166.121 71.5605 166.361 71.5205 166.601 71.4405L167.201 71.3205C167.441 71.2805 167.641 71.2005 167.881 71.1205C167.921 71.0805 168.161 71.0405 168.121 70.9605L167.961 69.4805L166.321 69.9605H166.681C167.041 69.9205 167.401 69.8805 167.761 69.7605C167.801 69.7605 168.401 69.5605 168.321 69.4805C168.201 69.3205 168.081 69.1605 167.961 69.0005C167.881 68.8805 167.761 68.8005 167.641 68.7605C167.481 68.7205 167.281 68.7205 167.081 68.7605C166.641 68.8005 166.241 68.9205 165.841 69.0805C165.681 69.1605 165.521 69.2405 165.401 69.4005C165.321 69.5205 165.241 69.6805 165.201 69.8005C165.161 69.9205 165.121 70.0005 165.041 70.1205C164.961 70.2405 165.001 70.2405 165.121 70.2805C165.321 70.3205 165.521 70.3205 165.681 70.2805C165.881 70.2405 166.121 70.2005 166.321 70.1605C166.521 70.1205 166.801 70.0405 167.041 69.9605L165.521 70.1605L165.561 71.5605C165.561 71.6405 165.881 71.6005 165.881 71.6005C166.121 71.6005 166.361 71.5605 166.601 71.4805C166.841 71.4405 167.041 71.3605 167.281 71.2805C167.321 71.2005 167.521 71.1605 167.521 71.0405Z" fill="#000005"/>
<path d="M118.08 47.7201C120.64 48.3201 123.28 48.6801 125.88 49.1201C129.88 49.8401 133.84 50.5601 137.84 51.2401L139.92 51.6001L140.52 51.7201L140.72 51.7601L140.56 51.7201C140.96 51.8001 141.6 51.8801 141.84 51.4401C142.08 51.0001 141.56 50.7201 141.24 50.6401C138.68 50.0401 136.04 49.6801 133.44 49.2401L121.48 47.1201L119.4 46.7601L118.8 46.6401L118.6 46.6001C118.4 46.5601 118.92 46.6801 118.76 46.6401C118.4 46.5601 117.72 46.5201 117.48 46.9201C117.24 47.3201 117.76 47.6401 118.08 47.7201Z" fill="#000005"/>
<path d="M146.76 60.64C147.56 60.36 148.32 59.88 148.96 59.28C149.48 58.8 150.16 57.96 149.6 57.28C149.24 56.88 148.8 56.56 148.32 56.32C148 56.12 147.6 56 147.24 56.08C146.4 56.24 146.2 57.16 146.12 57.88C146.04 58.56 146.16 59.24 146.52 59.84C147.08 60.6 147.92 61.12 148.8 61.32C150.52 61.68 151.88 59.92 152.24 58.48C152.44 57.6 152.48 56.64 152.32 55.72C152.16 54.84 151.28 54.24 150.52 53.92C150.24 53.76 149.88 53.8 149.6 54C149.28 54.32 149.36 54.88 149.4 55.28C149.44 56.12 149.68 56.96 150.08 57.68C150.64 58.44 151.36 59.04 152.2 59.44C152.88 59.8 153.72 60.04 154.44 59.68C155.64 59.08 156.24 56.92 155.24 55.92C154.84 55.52 153.2 54.16 153 55.32C152.88 56.12 153.2 56.96 153.8 57.48C154.52 58.24 155.48 58.8 156.52 59.08C157.48 59.24 158.44 59.04 159.24 58.52C159.36 58.44 158.56 57.88 158.48 57.84C158.32 57.72 157.76 57.28 157.56 57.44C157.12 57.72 156.6 57.92 156.08 58C155.84 58.04 155.6 58.04 155.4 58.04C155.28 58.04 155.12 58 155 58C154.96 58 154.88 57.96 154.84 57.96C154.6 57.88 154.72 57.96 155.2 58.24C155.2 58.12 154.96 57.92 154.88 57.8C154.8 57.64 154.72 57.44 154.68 57.24C154.64 57 154.64 56.76 154.68 56.48C154.72 56.36 154.84 56 154.92 56.04L154.08 55.56C153.92 55.44 153.92 55.36 153.96 55.52C154 55.6 154 55.68 154.04 55.76C154.08 55.96 154.08 56.16 154.08 56.36C154.04 56.72 153.96 57.08 153.84 57.4C153.56 58.12 152.96 58.8 152.12 58.8C152.04 58.8 151.92 58.8 151.84 58.76C151.68 58.72 151.44 58.6 151.8 58.84C152.16 59.08 151.92 58.88 151.84 58.76C151.76 58.68 151.72 58.56 151.68 58.48C151.48 58.12 151.32 57.68 151.24 57.28C151.12 56.84 151.08 56.36 151.08 55.88C151.08 55.68 151.12 55.44 151.2 55.24C151.24 55.16 151.32 55.08 151.36 55.04C151.44 54.96 151.72 54.96 151.52 54.84L150.52 54.16C150.72 54.32 150.72 54.76 150.72 54.96C150.76 55.4 150.76 55.88 150.76 56.32C150.72 57.12 150.52 57.88 150.12 58.56C149.64 59.52 148.64 60.16 147.56 60.24C147.12 60.2 147.28 60.36 148.16 60.8C148.12 60.76 148.08 60.72 148.04 60.64C148 60.52 147.92 60.4 147.88 60.24C147.72 59.6 147.72 58.92 147.88 58.28C147.96 57.96 148.12 57.64 148.4 57.4C148.52 57.32 148.64 57.24 148.8 57.24C148.88 57.24 148.96 57.24 149.04 57.24C148.2 56.4 147.88 56.2 148.08 56.72C148.12 57.48 147.48 58.08 146.92 58.52C146.36 59 145.72 59.36 145 59.6C144.92 59.64 145.68 60.24 145.76 60.28C146.04 60.4 146.52 60.76 146.76 60.64Z" fill="#000005"/>
<path d="M176.36 42.2803C181.331 42.2803 185.36 38.2508 185.36 33.2803C185.36 28.3097 181.331 24.2803 176.36 24.2803C171.39 24.2803 167.36 28.3097 167.36 33.2803C167.36 38.2508 171.39 42.2803 176.36 42.2803Z" fill="#000005"/>
<path d="M184.481 33.1602C184.441 36.6002 182.281 39.6402 179.081 40.8402C174.961 42.4002 170.361 40.3602 168.801 36.2402C167.921 33.9202 168.161 31.3202 169.481 29.2002C171.281 26.2402 174.681 24.7202 178.081 25.3602C181.801 26.0802 184.481 29.3602 184.481 33.1602C184.481 34.2802 186.321 34.6402 186.321 33.3602C186.281 29.1202 183.601 25.3602 179.641 23.9202C175.761 22.5202 171.361 23.6802 168.681 26.8402C166.041 30.0802 165.681 34.6402 167.841 38.2402C170.041 41.8802 174.241 43.8002 178.441 43.0002C183.001 42.0402 186.321 38.0402 186.321 33.3602C186.321 32.2802 184.481 31.8802 184.481 33.1602Z" fill="#000005"/>
<path d="M172.76 32.28C173.2 33.36 173.84 34.4 174.56 35.32C174.88 35.76 175.28 36.2 175.72 36.56C176 36.88 176.52 36.92 176.84 36.64C176.92 36.6 176.96 36.52 177 36.44C178.6 34.84 180.04 33.12 181.32 31.28C181.64 30.8 180.32 29.44 180.16 29.64C179.08 31.2 177.92 32.64 176.6 34C176.28 34.32 176 34.68 175.64 34.96C175.52 35.08 175.28 35.2 175.2 35.12C175.12 35.04 174.96 34.84 174.84 34.76C174.36 34.2 173.96 33.52 173.68 32.84C173.52 32.4 173.2 32.04 172.8 31.76C172.48 31.6 172.68 32.12 172.76 32.28Z" fill="white"/>
<path d="M66.0002 69.9601C65.0002 62.8801 65.6002 54.8001 69.8802 48.8401C72.1602 45.6401 75.5202 43.4401 79.3602 42.6001C83.3202 41.8001 87.4402 42.4801 90.6402 44.9201C92.1602 46.0801 93.4402 47.5601 94.4002 49.2001C94.9202 50.0401 95.3202 50.9601 95.6802 51.8801C96.0402 52.7601 96.2402 53.7201 96.2402 54.6401C96.2002 55.5201 95.8402 56.4801 94.9202 56.7601C94.1202 57.0401 93.6802 56.6801 93.2802 56.0401C92.8002 55.1201 92.5202 54.1201 92.4402 53.0801C92.3202 52.0801 92.2802 51.0401 92.2802 50.0401C92.3202 33.8801 105.44 20.8401 121.6 20.8801C122.84 20.8801 124.08 20.9601 125.32 21.1201C126.32 21.2401 127.32 21.4401 128.28 21.6801C128.52 21.7201 129 21.7601 128.8 21.4001C128.6 21.0401 127.96 20.8401 127.6 20.7601C118.8 18.6401 109.52 20.4801 102.24 25.8001C95.2002 31.0801 90.8002 39.6001 90.4402 48.4001C90.4002 49.4801 90.4002 50.5201 90.4802 51.6001C90.5202 52.7201 90.7202 53.8401 91.1202 54.9201C91.5602 55.9201 92.3202 56.7601 93.3202 57.2401C94.2402 57.7201 95.4002 58.0401 96.4402 57.7201C98.6002 57.0801 98.0402 54.3201 97.5202 52.7201C96.8802 50.7601 95.8402 48.9601 94.4802 47.3601C91.5202 43.8801 87.3202 41.7201 82.8002 41.2401C78.4002 40.8001 73.9602 42.1601 70.6002 45.0401C64.6402 50.2401 63.2002 58.8401 63.7202 66.3601C63.8002 67.3201 63.8802 68.3201 64.0402 69.2801C64.2002 69.8401 66.0402 70.3601 66.0002 69.9601Z" fill="#68BA7F"/>
</svg>
