<svg width="200" height="200" viewBox="0 0 200 200" fill="none" xmlns="http://www.w3.org/2000/svg">
<path d="M89.7617 39.4808C89.7617 39.4808 97.4017 31.3208 101.122 29.3608C104.842 27.4008 110.402 27.2808 110.282 29.0008C110.162 30.7208 106.682 30.3608 105.322 31.4808C105.322 31.4808 108.642 32.8408 106.922 34.6808C106.922 34.6808 109.402 35.9208 108.042 38.4008C106.682 40.8808 104.842 39.7608 104.842 39.7608C104.842 39.7608 100.522 44.6808 97.0417 44.6808C93.5617 44.6808 89.7617 39.4808 89.7617 39.4808Z" fill="white"/>
<path d="M90.5618 39.1604C92.8818 36.6804 95.2818 34.3204 97.8418 32.0804C98.6018 31.4004 99.4418 30.7204 100.242 30.1204C100.442 30.0004 100.642 29.8404 100.802 29.7204C100.842 29.6804 101.082 29.5604 100.922 29.6404L101.202 29.4804C101.242 29.4404 101.362 29.4004 101.162 29.4804L101.362 29.4004L101.722 29.2404C102.002 29.1204 102.322 29.0004 102.642 28.8804C103.922 28.4404 105.242 28.2404 106.602 28.2004C107.362 28.2004 108.562 28.2004 109.162 28.8004C109.402 29.0804 109.442 29.4804 109.242 29.8004C109.002 30.2404 109.322 29.6404 109.442 29.8004C109.162 29.8404 108.922 29.9204 108.642 30.0404C107.202 30.4004 105.802 30.7204 104.602 31.6404C104.562 31.6804 104.282 31.8804 104.442 31.9204C105.602 32.4004 107.242 33.6404 106.082 34.9604C106.002 35.0404 105.962 35.0804 106.082 35.1604C107.082 35.6404 107.642 36.7204 107.522 37.8004C107.442 38.3204 107.202 38.8004 106.922 39.2404C106.842 39.3604 106.722 39.4804 106.602 39.6004L106.522 39.6804C106.442 39.7604 106.442 39.7604 106.522 39.7204C106.522 39.6004 107.242 39.5204 106.922 39.5204H106.722C106.482 39.5204 106.242 39.4804 106.002 39.4004C105.922 39.3604 105.842 39.3204 105.722 39.2804C105.522 39.1604 105.162 39.3604 104.962 39.4404C104.602 39.5604 104.282 39.7604 104.002 40.0404C102.762 41.4804 101.082 43.0404 99.4418 43.8004C96.8418 45.0404 94.1218 42.8004 92.3618 41.0004C91.7218 40.3604 91.1618 39.7204 90.6418 39.0004C90.4018 38.6804 88.7218 39.7604 88.8818 39.9204C90.2818 41.8004 92.1618 43.7204 94.3218 44.6804C95.8818 45.3604 97.3618 45.1204 98.8818 44.4804C100.522 43.7604 102.042 42.8004 103.402 41.6004C104.202 40.9204 104.922 40.2004 105.642 39.4404L103.922 40.2004C104.362 40.4404 104.882 40.5204 105.402 40.4404C106.802 40.2004 108.042 39.4004 108.802 38.2004C109.362 37.2804 109.602 36.1604 108.962 35.2004C108.682 34.7604 108.242 34.4004 107.802 34.1604V34.3604C108.522 33.5604 108.562 32.6804 107.762 31.9204C107.322 31.5204 106.802 31.1604 106.202 30.9604L106.042 31.2404C105.962 31.3204 105.642 31.4004 105.882 31.3604C105.762 31.3604 106.082 31.2804 106.082 31.2804C106.362 31.2004 106.682 31.1204 106.962 31.0404C107.562 30.9204 108.162 30.7604 108.762 30.5604C109.602 30.2404 111.402 29.5204 111.202 28.3204C111.082 27.5204 109.842 27.3604 109.242 27.2804C107.882 27.1604 106.482 27.2804 105.162 27.6404C102.522 28.2804 100.042 29.5204 97.9618 31.2804C96.0018 32.8804 94.1218 34.5604 92.3218 36.3604C91.2018 37.4804 90.0818 38.5604 89.0018 39.7204C88.7218 40.0404 89.3618 39.8404 89.4418 39.8004C89.8418 39.7204 90.2418 39.4804 90.5618 39.1604Z" fill="#000005"/>
<path d="M98.8386 33.3206C99.0386 33.2806 99.1986 33.2006 99.3986 33.0806C99.7186 32.9206 99.9986 32.8006 100.279 32.6806C100.959 32.3206 101.759 32.1606 102.519 32.2006H102.559L102.679 32.2406L102.759 32.2806H102.799C102.719 32.2406 102.719 32.2406 102.759 32.2806L102.839 32.3206L102.759 32.2406C102.839 32.3206 102.799 32.2806 102.679 32.1606C102.719 32.2006 102.799 32.3206 102.599 32.0806C102.479 31.9206 102.479 31.8806 102.519 31.9606C102.439 31.8006 102.439 31.7606 102.439 31.8406C102.439 31.9206 102.359 31.6406 102.399 31.7606C102.359 31.5606 102.399 31.6806 102.399 31.7206C102.399 31.7606 102.399 31.8006 102.399 31.8406C102.399 31.7206 102.399 31.7606 102.399 31.8006C102.359 31.9606 102.319 32.0806 102.239 32.2006C102.279 32.1606 102.159 32.2806 102.159 32.3206C102.119 32.4006 102.039 32.4406 101.999 32.4806C101.879 32.6006 101.759 32.7206 101.639 32.8006C101.359 33.0406 101.039 33.2406 100.719 33.4006C100.279 33.6406 99.8386 33.8406 99.3986 34.0406C99.1586 34.1206 99.4786 34.7606 99.5586 34.8406C99.5586 34.8406 99.5586 34.8806 99.5986 34.8806C99.4386 34.5206 99.4786 34.6806 99.5186 34.7606C99.5586 34.8406 99.5586 34.8406 99.5586 34.8406C99.4786 34.7606 99.4786 34.6406 99.5186 34.7606L99.5586 34.8806C99.5586 34.7606 99.5986 35.0006 99.5586 34.8806C99.5586 34.9206 99.5586 35.0006 99.5586 35.0406C99.5586 35.6406 99.3186 36.2006 98.8786 36.6406C98.4786 37.1206 99.7986 38.5606 100.119 38.2406C100.679 37.6806 100.959 36.9206 100.919 36.1606C100.879 35.6806 100.719 35.2406 100.479 34.8806L100.639 35.6806C101.079 35.5206 101.519 35.3206 101.919 35.0806C102.639 34.7606 103.279 34.2406 103.719 33.6006C104.279 32.6006 103.199 31.3206 102.399 30.8406C101.599 30.3606 100.639 30.5606 99.7586 30.8406C99.3186 31.0006 98.8786 31.2006 98.4386 31.4006L97.9586 31.6406L97.7986 31.7206C97.7186 31.7606 97.8786 31.7206 97.7986 31.7206C97.3986 31.7606 97.7586 32.4406 97.8386 32.5606C98.0386 32.8006 98.4386 33.3606 98.8386 33.3206Z" fill="#000005"/>
<path d="M106.041 34.2403C105.921 34.5203 105.801 34.7603 105.641 35.0403C105.481 35.3203 105.361 35.5603 105.201 35.8003L105.081 35.9603C105.001 36.0803 105.081 36.0003 105.081 35.9603C105.081 36.0003 105.041 36.0003 105.041 36.0403C104.921 36.1603 104.841 36.3203 104.721 36.4403C104.521 36.6403 104.281 36.8403 104.081 37.0403C104.081 37.0403 104.241 36.9603 104.121 37.0003L104.041 37.0403L103.841 37.1203L103.761 37.1603C103.641 37.2403 103.921 37.1203 103.841 37.1603C103.761 37.1603 103.681 37.1603 103.641 37.2003C103.761 37.1203 103.841 37.2003 103.721 37.2003H103.601C103.441 37.2003 103.681 37.2003 103.681 37.2003C103.641 37.2003 103.601 37.1603 103.521 37.1603C103.401 37.1203 103.521 37.0803 103.641 37.2003C103.601 37.1603 103.561 37.1603 103.521 37.1603C103.481 37.1603 103.761 37.3203 103.641 37.2403C103.601 37.2003 103.561 37.2003 103.561 37.1603C103.721 37.2403 103.721 37.3203 103.641 37.2403L103.601 37.2003C103.721 37.2803 103.721 37.3603 103.641 37.2803L103.601 37.2003C103.601 37.1603 103.601 37.1603 103.561 37.1203C103.481 37.0003 103.641 37.3203 103.601 37.2003C103.601 37.1603 103.561 37.0803 103.561 37.0403C103.561 36.9603 103.521 36.9203 103.521 36.8403V36.7603C103.521 36.7203 103.521 36.9603 103.521 36.8003C103.521 36.6803 103.521 36.6003 103.521 36.4803C103.521 36.3603 103.521 36.2403 103.561 36.1603C103.561 35.9603 103.481 35.7603 103.321 35.6003C103.121 35.4003 102.921 35.2803 102.641 35.2003C102.201 35.1203 101.721 35.2003 101.641 35.6803C101.561 36.0803 101.601 36.4803 101.681 36.8803C101.881 37.8003 102.641 38.5203 103.561 38.7203C104.441 38.9203 105.321 38.6803 105.961 38.0403C106.521 37.5203 106.961 36.9203 107.321 36.2803C107.561 35.9203 107.761 35.5603 107.921 35.1603C108.121 34.7203 107.681 34.2803 107.321 34.1203C106.961 33.9603 106.241 33.8003 106.041 34.2403Z" fill="#000005"/>
<path d="M69.0791 79.1604L100.359 48.5204L89.7191 35.4404L58.0391 62.8004L69.0791 79.1604Z" fill="white"/>
<path d="M69.7996 79.6406L72.9196 76.6006L80.3596 69.2805L89.3996 60.4005L97.1596 52.7605C98.3996 51.5205 99.7596 50.3205 100.96 49.0405L101 49.0005C101.28 48.7205 101.32 48.2806 101.08 47.9606L91.7996 36.5206L90.4796 34.8805C90.0796 34.3605 89.3596 34.6005 88.9196 34.9605L85.7596 37.6805L78.1996 44.2005L69.0396 52.1206L61.1996 58.9605L58.5996 61.2006C58.1996 61.5605 57.7596 61.8805 57.3596 62.2805L57.3196 62.3206C57.0396 62.6006 56.9996 63.0405 57.2396 63.3605L60.9596 68.8806L66.9196 77.6805L68.2796 79.7206C68.8796 80.6006 70.5596 79.5606 69.9196 78.6006L66.1996 73.0805L60.2396 64.2805L58.8796 62.2805L58.7996 63.3206L61.9596 60.6005L69.5196 54.0805L78.6796 46.1606L86.5596 39.3206L89.1596 37.0805C89.5596 36.7205 89.9996 36.4005 90.3996 36.0005L90.4396 35.9605L88.8796 36.0405L98.1596 47.4805L99.4796 49.1206L99.5596 48.0805L96.4396 51.1606L89.0396 58.4005L79.9996 67.2805L72.1996 74.9206C70.9596 76.1606 69.5996 77.3606 68.3996 78.6406L68.3596 78.6805C68.0396 78.9605 68.0396 79.4405 68.3196 79.7605C68.3596 79.8005 68.3996 79.8406 68.4396 79.8406C68.8796 80.1206 69.4396 80.0006 69.7996 79.6406Z" fill="#000005"/>
<path d="M48.319 167.561C48.319 167.561 47.839 179.201 48.119 179.201C48.399 179.201 52.8789 179.041 52.8789 179.041V174.401L55.0789 179.521L69.9989 178.601C69.9989 178.601 70.479 176.921 67.1189 175.041C63.759 173.161 58.3589 170.561 58.3589 170.561L58.239 163.641L48.319 167.561Z" fill="white"/>
<path d="M47.32 167.601C47.24 169.841 47.16 172.121 47.08 174.361C47.04 175.721 47 177.041 47.04 178.401C47 178.681 47.04 178.961 47.12 179.241C47.28 179.481 47.92 179.361 48.16 179.361H48.72L52.92 179.201C53 179.201 53.92 179.201 53.92 179.041V174.361L51.92 174.401L54.12 179.521C54.2 179.721 55.28 179.601 55.4 179.601L68.48 178.801L70.32 178.681C70.4 178.681 71 178.681 71.04 178.561C71.32 177.481 70.16 176.361 69.44 175.801C68.44 175.081 67.4 174.481 66.32 173.961C65.24 173.401 64.16 172.841 63.12 172.281C62.24 171.841 61.36 171.401 60.48 170.961L59.76 170.601C59.68 170.561 59.44 170.481 59.4 170.441C59.44 170.521 59.44 170.241 59.44 170.201V169.441L59.4 167.321L59.32 163.521C59.32 163.281 57.56 163.481 57.36 163.561L48.68 167.041L47.44 167.521C47.32 167.561 48.08 167.641 48.16 167.641C48.56 167.681 49 167.641 49.4 167.521L58.08 164.041L59.28 163.521L57.32 163.561L57.44 170.481L57.48 170.521C59.04 171.281 60.56 172.041 62.08 172.841C63.32 173.481 64.56 174.121 65.76 174.801C66.88 175.401 68.08 176.121 68.76 177.241C69.04 177.641 69.12 178.081 69.08 178.561L69.8 178.401L56.72 179.201L54.88 179.321L56.16 179.401L53.96 174.281C53.88 174.041 51.96 174.201 51.96 174.321V178.961L52.96 178.801L49.4 178.921L48.56 178.961H48.28C47.84 179.001 49.16 179.361 49.16 179.001C49.16 178.761 49.12 178.441 49.08 178.201C49 175.441 49.16 172.721 49.28 169.961C49.32 169.121 49.36 168.241 49.36 167.401C49.32 167.401 47.32 167.361 47.32 167.601Z" fill="#000005"/>
<path d="M39.7994 167.92C39.7994 167.92 39.3194 179.56 39.5994 179.56C39.8794 179.56 44.3594 179.4 44.3594 179.4V174.76L46.5594 179.88L61.4794 178.96C61.4794 178.96 61.9594 177.28 58.5994 175.4C55.2394 173.52 49.8394 170.92 49.8394 170.92L49.7194 164L39.7994 167.92Z" fill="white"/>
<path d="M38.8786 167.561C38.7986 169.881 38.6786 172.201 38.6386 174.521C38.5986 175.881 38.5586 177.201 38.5986 178.561C38.5986 178.921 38.6386 179.241 38.7186 179.601C39.0386 180.401 39.8386 180.401 40.5186 180.361L44.7186 180.201C45.0786 180.201 45.3186 179.921 45.3186 179.561V179.521V174.881L43.5186 174.801L45.7186 179.921C45.9186 180.401 46.3986 180.681 46.9186 180.681L59.9986 179.881L61.8386 179.761C62.1186 179.761 62.3586 179.561 62.4386 179.281C62.5186 178.801 62.4386 178.321 62.2386 177.881C61.7186 176.641 60.5986 175.761 59.5186 175.081C57.1586 173.601 54.5586 172.441 52.0786 171.201C51.3986 170.841 50.7186 170.521 50.0386 170.201L50.8386 171.081L50.7186 164.161C50.7186 163.561 49.7986 163.041 49.2386 163.241L40.5586 166.721L39.3186 167.201C38.2386 167.601 39.5586 169.081 40.3986 168.761L49.0786 165.281L50.3186 164.801L48.8386 163.841L48.9586 170.761C48.9586 171.201 49.3986 171.481 49.7186 171.641L50.0786 171.801L50.4786 172.001L50.5586 172.041L50.8786 172.201C51.9186 172.721 52.9986 173.241 54.0386 173.801C55.2386 174.401 56.3986 175.001 57.5586 175.641C58.5986 176.201 59.7186 176.841 60.3586 177.761C60.4786 177.921 60.3986 177.761 60.4386 177.921C60.4786 178.001 60.5186 178.081 60.5586 178.161C60.6386 178.321 60.5586 178.081 60.5986 178.201C60.6386 178.321 60.5986 178.321 60.6386 178.401C60.6786 178.481 60.6386 178.521 60.6386 178.561C60.6386 178.601 60.6786 178.401 60.6386 178.521C60.6386 178.561 60.6386 178.601 60.6386 178.601L61.2386 178.121L48.1586 178.921L46.3186 179.041L47.5186 179.801L45.3186 174.681C45.0386 173.961 43.5186 173.481 43.5186 174.601V179.241L44.1186 178.561L41.8386 178.641L40.2386 178.681H39.5986C39.4386 178.681 39.1186 178.601 39.5186 178.681L39.9986 178.881L40.3586 179.241C40.4386 179.321 40.4786 179.681 40.4786 179.481C40.4786 179.401 40.4786 179.281 40.4386 179.161C40.4386 178.881 40.4386 178.561 40.4386 178.281C40.4386 177.361 40.4386 176.441 40.4786 175.521C40.5186 173.521 40.5986 171.561 40.6786 169.561C40.6786 169.121 40.7186 168.641 40.7186 168.201C40.7186 167.721 40.3986 167.281 39.9586 167.121C39.6386 167.041 38.8786 167.041 38.8786 167.561Z" fill="#000005"/>
<path d="M71.9208 101.96C71.9208 101.96 60.9608 166.2 59.6408 168.44C58.3208 170.68 51.5608 169.12 51.5608 169.12C51.5608 169.12 38.8408 169.48 38.5208 168.96C38.2008 168.44 36.8008 104.04 36.8008 104.04L71.9208 101.96Z" fill="#000005"/>
<path d="M71.0008 101.561C70.8808 102.281 70.7608 103.041 70.6408 103.761C70.2808 105.761 69.9608 107.721 69.6008 109.721L68.0808 118.361C67.4808 121.801 66.8808 125.201 66.2808 128.641C65.6408 132.281 65.0008 135.881 64.3608 139.521C63.7208 143.001 63.1208 146.481 62.4808 149.961C61.9208 152.921 61.3608 155.921 60.8008 158.881C60.4008 161.001 59.9608 163.121 59.4808 165.241C59.3208 165.881 59.2008 166.521 59.0408 167.161C58.9608 167.521 58.8408 167.881 58.6408 168.201C58.1608 168.761 57.3208 168.961 56.6408 169.041C55.7608 169.121 54.8408 169.121 53.9608 169.041C53.3208 169.001 52.5208 168.881 51.8408 168.721C51.5608 168.641 51.2808 168.601 51.0008 168.601C50.0008 168.601 48.9608 168.641 47.9208 168.681C46.1608 168.721 44.3608 168.721 42.6008 168.721C41.8008 168.721 40.9608 168.721 40.1608 168.681C39.8408 168.681 39.5208 168.641 39.2008 168.641L38.8408 168.601C38.5608 168.561 38.7608 168.601 38.8408 168.601H38.6808C38.6008 168.601 38.5208 168.561 38.4408 168.561C38.0408 168.521 37.6808 168.761 37.6408 169.161C37.6008 169.561 37.8408 169.921 38.2408 169.961C38.6408 170.001 39.0008 169.761 39.0408 169.361C39.0808 169.001 38.8808 168.681 38.5608 168.601C38.8808 168.721 39.1608 168.921 39.4008 169.161C39.5208 169.241 39.4408 169.321 39.4408 169.201C39.4408 169.081 39.4408 168.961 39.4008 168.841C39.3208 167.521 39.2808 166.161 39.2408 164.841C39.1608 162.401 39.0808 159.921 39.0008 157.481C38.9208 154.281 38.8408 151.081 38.7208 147.881C38.6408 144.321 38.5208 140.721 38.4408 137.161C38.3608 133.601 38.3208 130.001 38.2408 126.401C38.1608 123.161 38.0808 119.921 38.0008 116.721C37.9208 114.201 37.8808 111.681 37.8408 109.201C37.8008 107.801 37.7608 106.361 37.7608 104.961V104.401L37.3608 104.641L40.8408 104.441L49.2408 103.961L59.3608 103.361L68.1608 102.841L72.4408 102.601H72.4808C72.8408 102.561 72.9608 102.361 72.6808 102.081C72.3208 101.761 71.8808 101.561 71.3608 101.521L67.8808 101.721L59.4808 102.201L49.3608 102.801L40.5608 103.321C39.1208 103.401 37.7208 103.481 36.2808 103.561H36.2008C36.0008 103.561 35.8008 103.561 35.8008 103.801C35.8008 104.561 35.8408 105.361 35.8408 106.121C35.8808 108.161 35.9208 110.241 35.9608 112.281L36.1208 121.201C36.2008 124.721 36.2808 128.201 36.3608 131.721C36.4408 135.401 36.5208 139.041 36.6408 142.721C36.7208 146.161 36.8008 149.601 36.9208 153.041C37.0008 155.881 37.0808 158.721 37.1608 161.561C37.2408 163.401 37.2808 165.281 37.3608 167.121C37.3608 167.561 37.4008 168.001 37.4408 168.481C37.5208 169.241 38.4408 169.521 39.1208 169.641C40.4808 169.801 41.8408 169.881 43.2008 169.841C45.0008 169.841 46.8008 169.841 48.6008 169.801C49.7208 169.801 50.8408 169.841 51.9208 169.721C52.1608 169.681 51.7608 169.681 51.8408 169.721C52.0008 169.761 52.1608 169.801 52.3208 169.841C53.0808 170.001 53.8808 170.081 54.6408 170.161C55.6008 170.281 56.5608 170.281 57.5208 170.201C58.3608 170.161 59.1608 169.921 59.8808 169.481C60.2808 169.161 60.6008 168.721 60.6808 168.201C61.1208 166.721 61.4008 165.201 61.7208 163.681C62.2408 161.121 62.7608 158.561 63.2408 155.961C63.8408 152.681 64.4808 149.401 65.0408 146.121C65.7208 142.481 66.3608 138.841 67.0008 135.201C67.6408 131.561 68.2808 127.961 68.9208 124.361C69.4808 121.121 70.0408 117.881 70.6008 114.641L71.8808 107.121C72.1208 105.721 72.3608 104.281 72.6008 102.881L72.6808 102.321C72.9608 101.721 71.0808 101.121 71.0008 101.561Z" fill="#000005"/>
<path d="M58.798 119.601L57.998 124.521L56.078 136.281L53.718 150.521L51.718 162.801L51.038 166.841C50.918 167.481 50.798 168.121 50.718 168.761C50.718 168.801 50.718 168.801 50.718 168.841C50.558 169.841 52.198 170.641 52.398 169.441L53.198 164.521L55.118 152.761L57.478 138.521L59.478 126.241L60.158 122.201C60.278 121.561 60.398 120.921 60.478 120.281C60.478 120.241 60.478 120.241 60.478 120.201C60.638 119.201 58.998 118.361 58.798 119.601Z" fill="white"/>
<path d="M36.1196 106.48C36.1196 106.48 71.2796 108.2 73.2396 102.52C75.1996 96.8404 70.7996 58.6804 52.6796 60.6804C34.5596 62.6804 36.1196 106.48 36.1196 106.48Z" fill="white"/>
<path d="M35.4803 107.081C38.7603 107.241 42.0803 107.321 45.3603 107.321C51.4003 107.361 57.4803 107.281 63.4803 106.521C65.8403 106.201 68.2803 105.841 70.5203 104.961C72.0803 104.361 73.8003 103.361 74.2403 101.641C74.6403 100.081 74.6003 98.4008 74.5603 96.8008C74.4803 94.2808 74.2403 91.8008 73.8803 89.3208C73.0003 83.4408 71.5603 77.5208 69.0403 72.0808C66.8803 67.4408 63.6803 62.4408 58.6003 60.6408C53.6803 58.8808 48.4003 60.8008 44.9203 64.4808C41.1603 68.4408 39.2403 73.9208 37.9603 79.1608C36.6403 84.7208 35.8403 90.3608 35.5203 96.0408C35.2803 99.4808 35.2003 103.001 35.2403 106.441V106.961C35.2403 107.401 36.9603 106.561 36.9203 106.041C36.8403 103.641 36.8803 101.281 37.0003 98.8808C37.1603 93.6408 37.6803 88.4008 38.6003 83.2408C39.5603 77.8408 40.9603 72.2408 43.8003 67.4808C44.4003 66.4808 45.0803 65.5208 45.8403 64.6408C45.9603 64.4808 45.8803 64.5608 46.0803 64.4008C46.1603 64.3208 46.2403 64.2008 46.3603 64.1208C46.4803 64.0408 46.5603 63.9208 46.6403 63.8408C46.7203 63.7608 46.7203 63.7608 46.7603 63.7208C46.8003 63.6808 47.0403 63.4808 46.8403 63.6408C47.0403 63.4808 47.2403 63.2808 47.4803 63.1208C47.5203 63.0808 47.8403 62.8408 47.6003 63.0008C47.7203 62.9208 47.8403 62.8008 48.0003 62.7208L48.3203 62.5208C48.0803 62.6808 48.4003 62.4808 48.4803 62.4408L48.8803 62.2408C48.9203 62.2408 49.1203 62.1208 48.9203 62.2008L49.1203 62.1208C49.6003 61.8808 50.0803 61.7208 50.5603 61.6008C51.6803 61.3208 52.8403 61.2008 54.0003 61.2408C59.1603 61.5208 63.0003 65.4808 65.4803 69.6408C68.4803 74.6408 70.2403 80.4008 71.4003 86.1208C71.9603 88.8008 72.3603 91.4808 72.6003 94.2008C72.8003 96.2808 72.8803 98.3608 72.8003 100.441C72.7603 101.121 72.6803 101.801 72.5603 102.441C72.5203 102.561 72.5203 102.681 72.4803 102.801C72.4803 102.841 72.4003 103.001 72.4803 102.841C72.4403 102.921 72.4403 103.001 72.4003 103.041C72.3603 103.081 72.3603 103.161 72.3203 103.201C72.4403 103.001 72.2803 103.201 72.2803 103.241C72.2003 103.441 72.4003 103.201 72.2403 103.281C72.2003 103.321 72.2003 103.361 72.1603 103.361C72.0003 103.441 72.3603 103.201 72.2003 103.321C72.1203 103.361 71.8403 103.561 72.1603 103.361L71.9603 103.481C71.7603 103.641 72.2003 103.361 71.9203 103.521L71.6403 103.681C71.4003 103.801 71.8003 103.601 71.5603 103.721L71.2403 103.841L70.9603 103.961L70.8003 104.041C70.6803 104.081 70.9203 104.001 70.7203 104.081C69.7203 104.401 68.7203 104.681 67.7203 104.841C62.0403 105.921 56.1603 106.041 50.4003 106.121C46.0803 106.161 41.7603 106.081 37.4403 105.921L36.7603 105.881C36.3603 105.881 35.8403 106.281 35.5603 106.561C35.3603 106.681 35.0803 107.081 35.4803 107.081Z" fill="#000005"/>
<path d="M49.8809 61.3604C49.8809 61.3604 20.0409 69.9604 18.8009 82.2004C17.5609 94.4404 35.1609 109.6 35.1609 109.6L45.6009 100L38.4009 90.0004" fill="white"/>
<path d="M49.3599 60.6004C46.6399 61.3604 43.9999 62.3604 41.3599 63.3604C36.1599 65.4004 30.9599 67.7204 26.3599 70.9204C22.5199 73.5604 18.1999 77.2804 17.8799 82.2804C17.6799 85.4004 18.5599 88.4804 19.8399 91.3204C21.2799 94.3604 23.0399 97.2004 25.1199 99.8404C27.8799 103.44 30.9999 106.8 34.3999 109.84L34.5599 110C34.8399 110.24 35.4799 110.68 35.8399 110.36L44.9599 101.96L46.2399 100.76C46.4799 100.52 46.5199 100.16 46.3199 99.8804L40.0799 91.1204L39.1999 89.8804C38.9199 89.4404 38.4399 89.2404 37.9599 89.2804C37.5199 89.4004 37.4799 89.8804 37.7199 90.2404L43.9599 99.0004L44.8399 100.24L44.8799 99.3604L35.7599 107.76L34.4799 108.96L35.7599 109.32C32.9999 106.88 30.4399 104.24 28.0799 101.4C25.9999 98.9604 24.1599 96.3204 22.5999 93.5204C21.1599 90.8804 19.9999 88.0004 19.7199 85.0004C19.4799 82.7204 20.0399 80.4004 21.3199 78.5204C22.7199 76.5204 24.4399 74.7604 26.4399 73.3604C30.8399 70.0404 35.9599 67.6404 41.0399 65.5604C44.0799 64.3204 47.1599 63.2804 50.2799 62.2804L50.4399 62.2404C51.4399 61.8404 50.1599 60.3604 49.3599 60.6004Z" fill="#000005"/>
<path d="M61.5186 48.6808C61.5186 48.6808 63.5586 37.6808 54.1586 35.1208C44.7586 32.5608 34.3586 41.2008 35.5186 52.8808C36.6786 64.5608 51.0386 63.8008 51.0386 63.8008L61.5186 48.6808Z" fill="#000005"/>
<path d="M62.4392 49.0007C62.7192 47.2407 62.7192 45.4807 62.3992 43.7607C61.8392 40.3207 59.9992 37.2007 56.8792 35.5207C53.1192 33.4807 48.4792 33.4807 44.5992 35.1607C40.6392 36.9207 37.5192 40.1207 35.8392 44.0807C34.1992 48.0407 33.8392 52.9607 35.7192 56.9207C37.1592 60.0007 39.9592 62.0807 43.1192 63.2807C45.4392 64.1207 47.8792 64.5607 50.3192 64.6007C50.7992 64.6007 51.5592 64.7607 51.9192 64.3207C52.2792 63.8807 52.5592 63.4407 52.8392 63.0007L57.8792 55.7207L62.1192 49.5607L62.3592 49.2407C62.8792 48.4807 61.1592 47.4807 60.5992 48.2407L57.0792 53.3607L51.4392 61.5207L50.1192 63.4007L50.5992 63.1207C50.3992 63.1207 50.1992 63.1207 49.9592 63.1207H49.6792H49.4392C49.1192 63.1207 48.7992 63.0807 48.4792 63.0807C47.6792 63.0007 46.9192 62.9207 46.1592 62.7607C45.6392 62.6807 45.3592 62.6007 44.9592 62.4807C44.4792 62.3607 44.0392 62.2007 43.5592 62.0407C43.3592 61.9607 43.1192 61.8807 42.9192 61.8007L42.5992 61.6807L42.4392 61.6007C42.1992 61.5207 42.5592 61.6407 42.3592 61.5607C41.8792 61.3607 41.4392 61.0807 40.9992 60.8407C40.8792 60.7607 40.7992 60.7207 40.6792 60.6407L40.4792 60.5207C40.2392 60.3607 40.0392 60.2007 39.8392 60.0407C39.6392 59.8807 39.4792 59.7207 39.2792 59.5607C39.1192 59.4007 38.9592 59.2407 38.7992 59.0807C37.1592 57.2007 36.3992 54.8007 36.2792 52.2807C35.9592 46.2407 39.1592 40.2007 44.5192 37.2807C46.9192 35.9607 49.6792 35.4007 52.3992 35.6807C53.7592 35.8407 55.0392 36.2407 56.2392 36.8807C57.1992 37.4007 58.0392 38.1207 58.6792 39.0007C60.5992 41.5607 60.9192 45.1207 60.5192 48.2807C60.5192 48.3607 60.4792 48.4007 60.4792 48.4807C60.4392 49.2407 62.2792 50.0007 62.4392 49.0007Z" fill="#000005"/>
<path d="M62.7202 58.1599C65.3602 53.6399 60.0802 39.7199 60.0802 39.7199C57.1602 36.3999 45.3202 40.6399 45.3202 40.6399C47.6002 44.0799 48.0002 50.1999 48.0002 50.1999C46.0402 47.1199 42.4002 49.1599 43.1202 52.3599C43.8402 55.5599 47.8002 55.9199 47.8002 55.9199C47.8002 55.9199 47.8402 62.9599 48.3202 64.1999C48.8002 65.4399 55.1602 66.3199 57.7602 62.1599C57.8002 62.1999 60.4402 62.1199 62.7202 58.1599Z" fill="white"/>
<path d="M63.5196 58.7603C64.0396 57.7203 64.2796 56.5203 64.2396 55.3603C64.2396 53.8803 64.1196 52.4403 63.8396 51.0003C63.3196 48.2003 62.5996 45.4003 61.6796 42.6803C61.4396 41.9603 61.1996 41.2403 60.9196 40.5203C60.8396 40.3203 60.7196 40.1203 60.5596 40.0003C59.9596 39.4003 59.2796 38.9203 58.5196 38.5203C57.3596 38.0003 56.1196 37.8003 54.8796 37.8803C53.4396 37.9203 51.9996 38.1203 50.5996 38.4003C48.5196 38.8003 46.4796 39.3603 44.4796 40.0803V40.1203C45.6396 41.9203 46.2396 44.0403 46.6796 46.1203C46.9196 47.2803 47.0796 48.4403 47.1596 49.6403L48.7596 50.8003C48.2396 50.0803 47.5996 49.4403 46.8396 48.9203C46.3196 48.4803 45.6796 48.2403 44.9996 48.1203C43.8796 48.0403 42.7996 48.7603 42.3996 49.8003C41.2796 52.6003 44.1996 55.0403 46.4396 56.0003C47.0796 56.2803 47.7596 56.4803 48.4796 56.5603L46.9196 55.3603C46.9196 56.8003 46.9596 58.2803 47.0396 59.7203C47.0796 60.6803 47.1196 61.6803 47.2396 62.6403C47.3196 63.3603 47.4396 63.8003 47.9596 64.2803C48.6796 64.9603 49.5196 65.4403 50.4796 65.6803C51.3996 65.8803 52.3596 65.9203 53.2796 65.8403C54.3596 65.7203 55.4396 65.4003 56.3596 64.8403C56.8796 64.5603 57.3196 64.1603 57.7196 63.7603C57.9196 63.5603 58.1196 63.3203 58.2796 63.0803C58.3596 62.9603 58.3596 62.8803 58.4396 62.8003C58.6396 62.7203 58.8796 62.6803 59.0796 62.6803C59.4796 62.5603 59.8796 62.3603 60.2396 62.1603C61.7196 61.3203 62.7996 60.1603 63.5196 58.7603C63.6796 58.5603 61.9996 57.4803 61.9196 57.5603C60.9196 59.2403 59.4396 61.0403 57.3996 61.5203C57.2796 61.5203 57.1596 61.5603 57.0396 61.5603C56.9196 61.6003 56.8396 61.7603 56.7596 61.8803C56.5996 62.1203 56.3996 62.3203 56.1996 62.5603C55.4796 63.3203 54.5596 63.8803 53.5596 64.2003C51.9996 64.7603 49.9596 64.9203 48.3996 64.2403C48.3596 64.2003 48.2796 64.2003 48.2396 64.1603C48.5596 64.2803 49.2796 65.2803 49.1596 64.8803C49.1196 64.8003 49.1196 64.7603 49.0796 64.6803C48.9996 64.4003 48.9596 64.1203 48.9196 63.8403C48.7996 62.9603 48.7596 62.0403 48.7196 61.1603C48.6396 59.6403 48.5996 58.0803 48.5996 56.5603C48.5996 56.3603 48.1196 56.0403 47.9596 55.9203C47.7196 55.7603 47.3596 55.3603 47.0396 55.3203C46.6796 55.2803 46.3596 55.2003 46.0396 55.1203C45.7196 55.0403 45.3996 54.9203 45.0796 54.7603C44.9596 54.6803 44.7996 54.6003 44.6796 54.5603C44.5596 54.5203 44.7196 54.6003 44.7996 54.6403C44.9196 54.7603 44.9596 54.7603 44.7996 54.6403C43.5596 53.2403 43.3996 50.6803 45.1996 49.6003C45.5996 49.3603 46.0796 49.2403 46.5596 49.2803C46.7996 49.3203 47.0396 49.3603 47.2396 49.4403C47.2796 49.4803 47.3196 49.4803 47.3596 49.4803C47.3196 49.4803 46.6396 48.8403 46.8796 49.1203C46.9996 49.2803 47.1196 49.4403 47.2396 49.6003C47.4796 49.8803 47.7196 50.1203 48.0396 50.3203C48.1196 50.3603 48.7996 50.7603 48.7996 50.7603C48.7196 49.6403 48.5596 48.5203 48.3196 47.4003C48.1196 46.3603 47.8796 45.3603 47.5596 44.3603C47.2796 43.2803 46.7996 42.2803 46.1996 41.3603C46.0396 41.1603 46.0796 41.2403 46.1596 41.1603C46.2796 41.0803 46.4396 41.0403 46.5596 41.0403C47.0396 40.8803 47.4796 40.7203 47.9596 40.6003C49.4796 40.1603 50.9996 39.7603 52.5196 39.4803C54.1996 39.1203 55.9196 39.0003 57.6396 39.0803C58.3196 39.1203 58.9996 39.2803 59.5996 39.5203C59.7196 39.5603 59.8396 39.6803 59.6796 39.5203C59.8796 39.6803 59.2396 39.2003 59.2396 39.1203C59.2396 39.2003 59.2796 39.2403 59.3196 39.2803C60.1996 41.7203 60.9596 44.2403 61.5996 46.7603C62.1196 48.7203 62.4396 50.7203 62.5996 52.7603C62.6796 54.3203 62.6796 56.0803 61.8796 57.4803C61.7996 57.8003 63.4796 58.8803 63.5196 58.7603Z" fill="#000005"/>
<path d="M58.0005 52.4003C58.0005 52.4003 65.8005 51.9203 66.3605 47.7203C66.9205 43.5203 61.0805 42.7603 57.4805 46.9203" fill="white"/>
<path d="M58.4805 53.1999C59.3205 53.1599 60.1205 53.0399 60.9205 52.8399C62.4805 52.5599 63.9205 51.9999 65.2405 51.1199C66.6405 50.1999 67.3205 48.4799 66.9605 46.8399C66.5205 44.9599 64.9205 43.5199 63.0005 43.3199C60.6405 43.0399 58.3605 44.3999 56.8405 46.0799C56.4405 46.5199 57.7605 47.9999 58.0405 47.6799C59.3205 46.2399 61.0805 45.0799 63.0405 44.9599C63.7205 44.8799 64.4405 44.9999 65.0805 45.2799L65.3205 45.4399C65.4405 45.5199 65.2805 45.4399 65.4005 45.5199C65.4005 45.5199 65.5205 45.5999 65.4405 45.5199C65.3605 45.4399 65.4805 45.5199 65.4805 45.5599C65.4805 45.5999 65.6005 45.6399 65.4805 45.5599C65.3605 45.4799 65.5205 45.6399 65.4805 45.5199C65.4405 45.3999 65.6005 45.6799 65.5205 45.5599C65.4405 45.4399 65.6005 45.7199 65.5605 45.6399C65.6005 45.7599 65.6405 45.9199 65.6805 46.0399C66.2005 49.1599 62.4805 50.5999 60.0405 51.1599C59.2005 51.3599 58.3605 51.4799 57.4805 51.5599C56.9605 51.5999 57.8805 53.2399 58.4805 53.1999Z" fill="#000005"/>
<path d="M51.3594 54.3607C51.3994 54.7207 51.5194 55.0807 51.6794 55.4007C51.7994 55.6807 51.9594 55.9207 52.1994 56.1207C52.5194 56.3607 52.8794 56.4807 53.2794 56.4807C53.8794 56.4007 54.4394 56.1607 54.9194 55.7607C55.0394 55.6807 55.1594 55.5207 55.2394 55.3607C55.2794 55.2407 55.2394 55.0807 55.1594 55.0007C54.8394 54.8407 54.4394 54.8807 54.1994 55.1207C54.0794 55.2007 53.9994 55.2807 53.8794 55.3607C53.9594 55.3207 54.1194 55.2007 53.8794 55.3607L53.7194 55.4407C53.7594 55.4407 53.9194 55.3607 53.7994 55.4007L53.7194 55.4407C53.6794 55.4407 53.6794 55.4407 53.6394 55.4407C53.6394 55.4407 53.8394 55.4007 53.7594 55.4007H53.5994C53.4794 55.4007 53.7594 55.4007 53.6794 55.4007H53.6394H53.5594C53.7594 55.4407 53.6394 55.4407 53.5994 55.4007L53.5194 55.3607L53.4794 55.3207C53.6394 55.4007 53.5594 55.3607 53.5194 55.3607C53.3994 55.2807 53.3194 55.2007 53.1994 55.0807L53.2794 55.1607C53.0394 54.8407 52.8794 54.4807 52.7994 54.1207L52.8394 54.2407C52.7994 54.1207 52.7994 54.0407 52.7594 53.9207C52.7194 53.5607 52.3194 53.5607 52.0394 53.6407C51.8394 53.6807 51.6794 53.8007 51.5594 53.9607C51.3994 54.0407 51.3594 54.2007 51.3594 54.3607Z" fill="#000005"/>
<path d="M56.7187 44.5607C56.3987 44.7207 56.2387 45.0807 56.3987 45.4007C56.3987 45.4407 56.4387 45.4807 56.4387 45.4807C56.8387 46.0807 57.5587 45.6007 57.3987 45.0007C57.3587 44.6807 57.0787 44.4807 56.7987 44.5207C56.7987 44.5607 56.7587 44.5607 56.7187 44.5607Z" fill="#000005"/>
<path d="M52.0781 45.6801C51.7581 45.8401 51.5981 46.2001 51.7581 46.5201C51.7581 46.5601 51.7981 46.5601 51.7981 46.6001C52.1981 47.2001 52.9181 46.7201 52.7581 46.1201C52.7181 45.8401 52.4381 45.6001 52.1581 45.6401C52.1581 45.6801 52.1181 45.6801 52.0781 45.6801Z" fill="#000005"/>
<path d="M54.1181 88.9203C54.1181 88.9203 43.1581 112.56 43.3181 112.88C43.4781 113.2 60.1581 116.68 61.5981 115.8C63.0381 114.92 70.9581 91.2403 70.7181 90.8003C70.4781 90.3603 54.4381 88.6403 54.1181 88.9203Z" fill="white"/>
<path d="M53.1594 88.8807C52.2794 90.8007 51.3594 92.7207 50.4794 94.6807C48.7994 98.3607 47.0794 102.041 45.4394 105.721C44.7594 107.241 44.0394 108.801 43.3994 110.321C42.9994 111.081 42.6794 111.881 42.3994 112.721C42.1594 113.521 43.7594 113.641 44.2794 113.761C45.9994 114.161 47.7194 114.521 49.4394 114.881C51.5594 115.281 53.6394 115.681 55.7594 116.001C57.4394 116.321 59.1194 116.481 60.8394 116.481C61.3994 116.481 62.0794 116.401 62.5194 116.001C62.7594 115.761 62.9594 115.481 63.0794 115.201C63.6794 114.041 64.2394 112.801 64.6794 111.601C66.1994 107.801 67.5194 103.961 68.8394 100.081C69.7994 97.2407 70.8794 94.3607 71.5994 91.4007C71.6394 91.1607 71.7994 90.8807 71.6394 90.6407C71.4394 90.3207 70.7994 90.2407 70.4394 90.2007C68.8794 89.8807 67.2394 89.7207 65.6794 89.5207C63.5994 89.2407 61.5194 89.0007 59.4394 88.8007C57.9194 88.6407 56.4394 88.4807 54.9194 88.4407C54.3194 88.4407 53.7194 88.4007 53.2394 88.8007C52.8794 89.0807 53.3994 89.4007 53.6394 89.4407C54.1194 89.5607 54.5994 89.4407 54.9994 89.1607C54.8394 89.2407 54.6794 89.3607 54.4794 89.4007C54.4794 89.4007 54.1194 89.4407 54.3194 89.4407C54.5994 89.4007 54.0794 89.4407 54.2794 89.4407C54.4794 89.4407 54.7194 89.4407 54.9594 89.4807C55.6394 89.5207 56.3594 89.5607 57.0394 89.6407C58.9594 89.8007 60.8794 90.0007 62.7994 90.2407C64.7194 90.4807 66.2394 90.6407 68.0794 90.9207C68.6394 91.0007 69.1994 91.0807 69.7194 91.2007L69.9594 91.2407C69.7594 91.1607 70.1194 91.2807 69.9594 91.2407C69.8394 91.2007 69.8394 91.1207 69.7194 90.9607V91.0407V91.0807C69.6794 91.1207 69.7594 90.9207 69.7194 91.0407L69.6794 91.2407C69.6394 91.4007 69.5994 91.6007 69.5594 91.7607C69.3994 92.2807 69.2394 92.8007 69.1194 93.2807C68.6394 94.8407 68.1194 96.4007 67.5994 97.9607C66.3194 101.761 64.9994 105.561 63.5994 109.321C63.0394 110.801 62.4794 112.281 61.8394 113.761C61.6394 114.241 61.3994 114.721 61.1594 115.161C61.1194 115.241 61.0794 115.321 61.0394 115.361C60.9994 115.401 60.8394 115.601 60.9994 115.441C60.9594 115.481 60.9194 115.521 60.8794 115.561C60.8394 115.721 60.9594 115.521 60.9194 115.521C61.1194 115.401 61.0794 115.441 60.9994 115.481C61.0394 115.441 61.2794 115.401 61.1194 115.441C60.9594 115.481 61.3594 115.441 61.2394 115.441C61.1994 115.441 61.1194 115.441 61.0794 115.441H60.9194C60.7194 115.441 60.9994 115.441 60.9594 115.441C60.7994 115.441 60.6794 115.441 60.5194 115.441C59.7594 115.401 59.0394 115.321 58.3194 115.241C57.8794 115.201 57.6794 115.161 57.1594 115.081C56.6394 115.001 56.1994 114.921 55.7194 114.881C54.6794 114.721 53.6394 114.521 52.6394 114.361C50.7594 114.001 48.8394 113.641 46.9594 113.241C46.2794 113.081 45.6394 112.961 44.9594 112.761C44.7594 112.721 44.5594 112.641 44.3194 112.601C44.6794 112.681 44.1994 112.521 44.1594 112.521C44.2794 112.481 44.4394 112.761 44.4394 112.801C44.4394 112.841 44.3994 112.961 44.4394 112.841C44.4794 112.721 44.5194 112.641 44.5594 112.521C44.7194 112.121 44.8794 111.761 45.0394 111.361C45.5994 110.041 46.1594 108.761 46.7594 107.441C48.3594 103.881 49.9594 100.321 51.5994 96.8007C52.7594 94.3207 53.9194 91.8007 55.0394 89.3207L55.1994 88.9207C55.3994 88.3207 53.4394 88.2407 53.1594 88.8807Z" fill="#000005"/>
<path d="M55.7212 90.2402C55.7212 90.2402 44.0412 114.16 44.8012 114.6C45.5612 115.04 59.9212 117.48 61.0812 117.08C62.2412 116.68 71.8412 93.3202 71.5212 92.5602C71.2012 91.8002 55.7212 90.2402 55.7212 90.2402Z" fill="#68BA7F"/>
<path d="M54.72 90.1604C53.84 91.9604 53 93.7204 52.12 95.5204C50.44 99.0404 48.76 102.56 47.12 106.12C46.4 107.68 45.68 109.28 45 110.88C44.52 111.88 44.12 112.88 43.8 113.92C43.68 114.2 43.64 114.52 43.76 114.8C43.96 115.2 44.52 115.28 44.92 115.36C46.52 115.76 48.12 116 49.72 116.32C51.8 116.68 53.88 117 55.96 117.32C57.48 117.6 59.04 117.76 60.6 117.8C61.12 117.84 61.64 117.64 62 117.32C62.2 117.08 62.4 116.8 62.52 116.52C63.2 115.36 63.76 114.12 64.36 112.88C66 109.28 67.56 105.64 69.04 101.96C70.2 99.1604 71.4 96.3204 72.28 93.4004C72.4 93.1204 72.44 92.8404 72.44 92.5604C72.4 92.0804 71.8 91.9204 71.44 91.8004C70 91.4004 68.56 91.1604 67.08 91.0004C63.6 90.5204 60.08 90.1204 56.6 89.7204L55.88 89.6404C55.52 89.6004 54.84 89.7204 54.72 90.1604C54.56 90.6004 55.08 90.8404 55.44 90.8804C58.12 91.1604 60.76 91.4404 63.4 91.8004C65.2 92.0404 67 92.2404 68.8 92.5604L69.28 92.6404C69.32 92.6404 69.64 92.7204 69.36 92.6404L69.6 92.6804C69.84 92.7204 70.12 92.8004 70.36 92.8404C70.44 92.8804 70.52 92.8804 70.6 92.9204C70.4 92.8004 70.68 92.9604 70.6 92.9204C70.68 92.9604 70.48 92.8004 70.44 92.7604C70.4 92.7204 70.36 92.5204 70.4 92.6804C70.4 92.7604 70.44 92.4804 70.4 92.6404C70.4 92.7204 70.36 92.7604 70.36 92.8404C70.32 93.0004 70.28 93.1604 70.2 93.3204C70.04 93.8004 69.88 94.3204 69.68 94.8004C69.16 96.2404 68.6 97.7204 68.04 99.1604C66.64 102.84 65.12 106.48 63.52 110.08C62.88 111.56 62.2 113.04 61.48 114.48C61.24 115 60.96 115.48 60.68 116C60.6 116.12 60.76 115.88 60.68 116L60.6 116.12C60.56 116.2 60.52 116.28 60.44 116.36C60.36 116.44 60.28 116.56 60.2 116.68C60.12 116.8 60.36 116.56 60.24 116.64C60.12 116.72 60.48 116.52 60.4 116.56C60.96 116.32 60.32 116.6 60.64 116.48C60.84 116.4 60.64 116.48 60.56 116.48H60.44C60.28 116.48 60.72 116.48 60.48 116.48C59.84 116.44 59.2 116.4 58.56 116.32C56.64 116.12 54.76 115.8 52.88 115.52C51.88 115.36 50.84 115.2 49.84 115L48.44 114.76L47.84 114.64L47.64 114.6L47.4 114.56C46.84 114.44 46.24 114.32 45.68 114.16C45.52 114.12 45.4 114.04 45.24 114.04C45.36 114.04 45.56 114.2 45.64 114.32C45.72 114.44 45.72 114.52 45.68 114.4C45.64 114.28 45.64 114.56 45.68 114.44C45.72 114.36 45.72 114.32 45.72 114.24C45.76 114.08 45.8 113.92 45.88 113.76C46.04 113.28 46.24 112.84 46.4 112.36C46.96 110.96 47.6 109.56 48.2 108.2C49.76 104.68 51.4 101.24 53.08 97.7604C54.2 95.4004 55.32 93.0804 56.44 90.7204L56.6 90.3604C56.8 89.9204 56.16 89.6804 55.84 89.6404C55.48 89.5604 55 89.7604 54.72 90.1604Z" fill="#68BA7F"/>
<path d="M56.0789 87.5201C56.1189 87.4801 56.1589 87.4801 56.1589 87.4401L56.2789 87.3601L56.3189 87.3201C56.4389 87.2401 56.2789 87.3201 56.2789 87.3601C56.3189 87.2801 56.6389 87.2001 56.7189 87.1201C56.7989 87.0801 56.8789 87.0401 56.9589 87.0401L57.1189 87.0001C56.8789 87.0801 57.0789 87.0001 57.1589 87.0001C57.2789 86.9601 57.3989 86.9601 57.4789 86.9201H57.5989C57.3589 86.9601 57.5989 86.9201 57.6389 86.9201C57.7589 86.9201 57.8789 86.9201 57.9989 86.9201C57.7589 86.8801 58.1189 86.9201 57.9989 86.9201L58.2389 86.9601C58.4789 87.0001 58.1189 86.9201 58.2789 86.9601C58.3589 87.0001 58.4389 87.0001 58.4789 87.0401L58.6389 87.1201C58.8789 87.2401 58.5189 87.0401 58.7589 87.1601C58.8389 87.2401 58.9589 87.3201 59.0789 87.3601C59.1989 87.4001 58.9189 87.2001 59.0389 87.3201L59.1589 87.4401C59.2389 87.4801 59.2789 87.5601 59.3589 87.6401C59.4389 87.7201 59.3589 87.6001 59.3189 87.6001C59.2789 87.6001 59.3989 87.6801 59.3989 87.7201C59.3989 87.7601 59.4789 87.8401 59.5189 87.9201C59.5589 88.0001 59.6389 88.2401 59.5989 88.0401C59.6389 88.2001 59.6789 88.3601 59.7189 88.5201C59.7189 88.6001 59.7189 88.6801 59.7589 88.7601V88.9201C59.7589 88.8001 59.7589 88.8801 59.7589 88.9601C59.7589 89.3201 59.6789 89.6801 59.5589 90.0001C59.5989 89.8401 59.5189 90.0801 59.5189 90.1201C59.4789 90.2001 59.4389 90.2801 59.3989 90.3201C59.3189 90.4801 59.1989 90.6401 59.0789 90.8001C59.0389 90.8401 59.0389 90.8401 58.9989 90.8801C59.1189 90.7201 58.9989 90.8801 58.9589 90.9201C58.9189 90.9601 58.7989 91.0401 58.7189 91.1201C58.6389 91.2001 58.5589 91.2401 58.4789 91.2801C58.3989 91.3201 58.6389 91.2001 58.4789 91.2801L58.3189 91.3601C58.1989 91.4001 58.1189 91.4401 57.9989 91.4801C57.8789 91.5201 57.9989 91.5201 58.0389 91.4801C57.9989 91.5201 57.9189 91.5201 57.8789 91.5201C57.8389 91.5201 57.5589 91.6001 57.5189 91.5601C57.5189 91.5601 57.7189 91.5601 57.5589 91.5601H57.2789C56.9189 91.5601 56.3589 91.8001 56.4389 92.2401C56.5189 92.6801 57.1589 92.9201 57.5589 92.9201C58.6389 92.9601 59.7189 92.5601 60.5189 91.8401C61.1989 91.2001 61.6389 90.3601 61.7189 89.4401C61.7989 88.4801 61.4789 87.5601 60.8389 86.8401C59.7989 85.8001 58.3189 85.3201 56.8789 85.5201C55.9989 85.6001 55.1589 85.9601 54.4789 86.4801C54.1189 86.7601 54.3189 87.2401 54.6789 87.4401C55.1189 87.8401 55.6789 87.8401 56.0789 87.5201Z" fill="#000005"/>
<path d="M57.7211 91.8804C57.7211 91.8804 56.9611 91.6404 57.0411 92.4804C57.1211 93.3204 57.7211 93.0804 57.9611 92.7604C58.1611 92.4804 58.0811 92.0804 57.7211 91.8804C57.7611 91.9204 57.7611 91.8804 57.7211 91.8804Z" fill="white"/>
<path d="M57.7213 90.9606C57.6813 90.9606 57.6413 90.9206 57.6013 90.9206C57.4413 90.8806 57.2812 90.8806 57.1612 90.9206C57.0412 90.9206 56.9613 90.9606 56.8413 91.0406C56.7613 91.0806 56.6813 91.1206 56.6413 91.2006C56.5613 91.2806 56.5212 91.3606 56.4812 91.4406C56.4012 91.5606 56.3613 91.6806 56.3213 91.8006C56.3213 91.8406 56.3213 91.8806 56.3213 91.9206C56.3213 92.0406 56.2812 92.1606 56.2812 92.2806C56.2812 92.7206 56.4013 93.1206 56.6413 93.4806C56.7613 93.6406 56.9213 93.8006 57.1213 93.9206C57.2813 94.0006 57.4813 94.0406 57.6413 94.0406C57.7613 94.0406 57.8813 94.0006 58.0013 93.9606C58.0413 93.9606 58.1212 93.9206 58.1612 93.8806C58.2812 93.8006 58.3612 93.7606 58.4812 93.6406C58.5612 93.5606 58.6413 93.4406 58.7213 93.3606C58.8413 93.1606 58.8812 92.8806 58.8812 92.6406C58.8812 92.3606 58.8013 92.1206 58.7213 91.8806C58.6013 91.6406 58.4812 91.4406 58.2812 91.2406C58.2012 91.1606 58.1213 91.0806 58.0013 91.0406C57.9213 91.0406 57.8013 91.0006 57.7213 90.9606C57.6413 90.9206 57.5213 90.9206 57.4413 90.9606C57.3613 90.9606 57.2413 91.0406 57.2013 91.1206C57.1213 91.2006 57.0813 91.2806 57.0413 91.4006C57.0013 91.5206 56.9613 91.6006 57.0013 91.7206C57.0013 92.0006 57.0813 92.2406 57.2413 92.4406L57.4013 92.6406C57.5213 92.7606 57.6413 92.8006 57.8013 92.8406H57.8413L57.6413 92.7606L57.6812 92.8006L57.4812 92.6806C57.5212 92.6806 57.5212 92.7206 57.5612 92.7606L57.4013 92.5606C57.4413 92.6006 57.4412 92.6406 57.4812 92.6806L57.3612 92.4406C57.4012 92.4806 57.4013 92.5206 57.4413 92.6006L57.3612 92.3606C57.3612 92.4006 57.4013 92.4406 57.4013 92.4806L57.3612 92.2406C57.3612 92.2806 57.3612 92.3206 57.3612 92.3606V92.1206C57.3612 92.1606 57.3613 92.2006 57.3213 92.2406L57.4013 92.0406C57.4013 92.0806 57.3612 92.1206 57.3612 92.1606L57.4812 92.0006C57.4412 92.0806 57.3612 92.1606 57.2812 92.2006L57.4413 92.0806C57.3613 92.1206 57.2813 92.1606 57.2013 92.2006L57.4013 92.1606C57.3613 92.1606 57.2813 92.1606 57.2413 92.1606H57.4413H57.3612L57.5612 92.2406C57.5212 92.2406 57.5212 92.2006 57.4812 92.2006L57.6812 92.3206L57.6413 92.2806L57.8013 92.4806C57.8013 92.4406 57.7612 92.4406 57.7612 92.4006L57.8812 92.6406C57.8812 92.6006 57.8413 92.5606 57.8413 92.5206L57.9213 92.7606C57.9213 92.6806 57.8812 92.6406 57.8812 92.5606L57.9213 92.8006C57.9213 92.7206 57.9213 92.6406 57.9213 92.5206V92.7606C57.9213 92.6806 57.9212 92.6406 57.9612 92.6006L57.8812 92.8006C57.8812 92.7606 57.9213 92.7206 57.9213 92.6806L57.8013 92.8406C57.8413 92.8006 57.8412 92.7606 57.8812 92.7606L57.7213 92.8806C57.7613 92.8406 57.8013 92.8406 57.8413 92.8406L57.6413 92.8806C57.7213 92.8806 57.7613 92.8806 57.8413 92.8806H57.6413C57.6813 92.8806 57.7613 92.8806 57.8013 92.9206C57.8813 92.9606 58.0012 92.9606 58.0812 92.9206C58.1612 92.9206 58.2813 92.8406 58.3213 92.7606C58.4013 92.6806 58.4412 92.6006 58.4812 92.4806C58.5212 92.3606 58.5613 92.2806 58.5213 92.1606C58.5213 91.8806 58.4012 91.6406 58.2812 91.4406L58.1213 91.2406C58.0013 91.0806 57.8813 91.0006 57.7213 90.9606Z" fill="#000005"/>
<path d="M60.8394 87.48C60.7194 87.6 60.8394 87.48 60.8794 87.44C60.9594 87.36 61.0394 87.32 61.1194 87.28C61.3994 87.12 61.7194 87 62.0394 86.92C62.1994 86.88 62.3994 86.88 62.5594 86.88C62.4794 86.88 62.8794 86.92 62.7194 86.88C62.8394 86.92 62.8394 86.92 62.7194 86.88H62.7594C62.5994 86.84 62.9194 86.96 62.7594 86.88L62.8394 86.92C62.9194 86.96 62.9994 87.04 63.1194 87.08C63.2394 87.2 63.3594 87.28 63.4794 87.4C64.3994 88.52 64.1194 90.2 63.1994 91.2C62.5994 91.84 61.7594 92.2 60.9194 92.16C60.4794 92.16 61.0794 92.52 61.1594 92.6C61.5594 92.8 62.0394 92.92 62.4794 92.96C63.3994 93 64.2794 92.64 64.9594 92C65.5594 91.44 65.8794 90.68 65.9594 89.84C66.0394 89 65.7194 88.2 65.1594 87.6C64.6394 87.12 63.9994 86.72 63.3194 86.48C62.5594 86.16 61.7594 86 60.9194 86C60.1994 86.04 59.5194 86.28 58.9594 86.76C58.7994 86.88 59.7594 87.28 59.8394 87.32C60.0794 87.44 60.5994 87.68 60.8394 87.48Z" fill="#000005"/>
<path d="M61.9203 92.1606C61.9203 92.1606 61.1603 91.9206 61.2403 92.7606C61.3203 93.6006 61.9203 93.3606 62.1603 93.0406C62.3603 92.7606 62.2403 92.3606 61.9203 92.1606Z" fill="white"/>
<path d="M62.8792 92.04C62.7992 92 62.7192 92 62.6392 92C62.4792 91.96 62.3192 91.96 62.1592 91.96C61.7992 91.96 61.3992 92 61.0392 92.04C60.8392 92.08 60.6392 92.12 60.4792 92.2C60.4392 92.24 60.3992 92.24 60.3592 92.28C60.2392 92.4 60.1992 92.56 60.1992 92.72C60.1992 92.88 60.2392 93.08 60.3192 93.24C60.3592 93.28 60.3992 93.36 60.4792 93.4C60.5992 93.44 60.7592 93.48 60.8792 93.48C61.1192 93.48 61.3992 93.48 61.6392 93.48C61.8792 93.48 62.1592 93.44 62.3992 93.36C62.5192 93.32 62.6792 93.28 62.7992 93.2C62.9192 93.16 62.9992 93.08 63.0792 92.96C63.1592 92.88 63.1992 92.76 63.2392 92.64C63.2392 92.56 63.2392 92.44 63.1992 92.36C63.1592 92.28 63.1192 92.2 63.0392 92.12C62.9592 92.04 62.8792 91.96 62.7592 91.96C62.5592 91.96 62.3592 91.96 62.1592 91.96C61.9192 91.96 61.6392 92 61.3992 92.04L61.1992 92.08C61.1192 92.08 61.0392 92.12 60.9592 92.16L60.9192 92.2C60.9592 92.24 60.9992 92.28 61.0792 92.28L60.9992 92.24C61.0392 92.24 61.0792 92.28 61.1192 92.32L61.0792 92.28C61.3192 92.48 61.3592 92.8 61.1992 93.04L61.2392 93C61.1592 93.12 61.0392 93.2 60.9192 93.24L60.9992 93.2C60.9592 93.2 60.9192 93.24 60.9192 93.24L61.0792 93.2H61.0392L61.1992 93.16L61.3992 93.12C61.6392 93.08 61.8792 93.08 62.1192 93.08C62.0392 93.08 62.3992 93.08 62.2792 93.08L62.4392 93.12H62.3992L62.5192 93.16C62.4792 93.16 62.3992 93.12 62.3592 93.08L62.3992 93.12C62.2792 93 62.2392 92.8 62.2392 92.64C62.1992 92.48 62.2392 92.32 62.3192 92.16L62.2792 92.2C62.3192 92.16 62.3592 92.12 62.4392 92.08L62.3592 92.12L62.3992 92.08L62.2392 92.12C62.3592 92.08 61.9992 92.16 62.0792 92.16L61.8392 92.2C61.9192 92.2 61.5192 92.24 61.5992 92.24H61.3592H61.0392H60.8792H60.9992L60.8792 92.2H60.9192C61.0792 92.24 61.2392 92.24 61.3992 92.24C61.6392 92.24 61.9192 92.24 62.1592 92.2L62.3992 92.16C62.5192 92.16 62.6392 92.12 62.7592 92.08C62.8392 92.16 62.9992 92.08 62.8792 92.04Z" fill="#000005"/>
<path d="M64.6416 88.1204C64.7616 88.0404 64.9216 88.0004 65.0816 87.9604L65.3216 87.8804L65.4416 87.8404C65.3216 87.8804 65.4016 87.8404 65.4416 87.8404C65.6416 87.8004 65.8816 87.8004 66.0816 87.8004H66.2816C66.4016 87.8004 66.5216 87.8404 66.6016 87.8404L66.7615 87.8804C66.6415 87.8404 66.8016 87.8804 66.8016 87.8804L67.0016 87.9604C67.0416 88.0004 67.0416 88.0004 67.0016 87.9604L67.0816 88.0004C67.2016 88.0404 67.2816 88.1204 67.4016 88.2004C67.2816 88.0404 67.2815 88.0804 67.3615 88.1604L67.4416 88.2404C67.4816 88.2804 67.4816 88.2804 67.5216 88.3204C67.6016 88.4004 67.4016 88.1604 67.4816 88.2404C67.5616 88.3204 67.6016 88.4004 67.6416 88.4804C67.6816 88.5604 67.5616 88.3204 67.6016 88.4004C67.6016 88.4404 67.6416 88.4804 67.6416 88.4804C67.6416 88.4804 67.7215 88.6404 67.7615 88.7204C67.6815 88.5604 67.7615 88.6804 67.7615 88.7604C67.8015 88.8404 67.8016 88.9204 67.8416 89.0404C67.8416 89.1204 67.8416 89.3204 67.8416 89.1204C67.8416 89.2004 67.8416 89.2804 67.8416 89.3604C67.8416 89.5204 67.8416 89.6804 67.8016 89.8404C67.8016 89.8804 67.8015 89.9204 67.7615 89.9604C67.7615 90.0404 67.7216 90.1204 67.6816 90.2004C67.6416 90.3604 67.5616 90.5204 67.4816 90.6804L67.3615 90.8804C67.3215 90.9604 67.4015 90.8004 67.3615 90.8804L67.2816 91.0004C67.2016 91.1604 67.0815 91.2804 66.9615 91.4004C66.9215 91.4404 66.8415 91.5204 66.7615 91.5604L66.6816 91.6404C66.6816 91.6404 66.5216 91.7604 66.6016 91.7204L66.5615 91.7604L66.4416 91.8404C66.3616 91.8804 66.2815 91.9204 66.1615 91.9604C66.0815 92.0004 65.9616 92.0404 65.8816 92.0804L65.7615 92.1204C65.9215 92.0804 65.7216 92.1204 65.6816 92.1204C65.4416 92.1604 65.2416 92.1604 65.0016 92.1604C64.5216 92.1604 64.4816 92.7204 64.6416 93.0404C64.8416 93.4804 65.2816 93.8004 65.8016 93.8404C67.6416 93.8804 69.2016 92.5604 69.4416 90.7604C69.8016 88.6004 68.0815 86.5204 65.9615 86.1604C65.0815 86.0004 64.2016 86.1204 63.4016 86.5204C63.0016 86.7604 63.1215 87.2804 63.3615 87.5604C63.6015 87.8404 64.1615 88.3204 64.5615 88.0804L64.6416 88.1204Z" fill="#000005"/>
<path d="M65.7211 92.6401C65.7211 92.6401 64.9611 92.4001 65.0411 93.2401C65.1211 94.0801 65.7211 93.8401 65.9611 93.5201C66.1211 93.2001 66.0411 92.8001 65.7211 92.6401Z" fill="white"/>
<path d="M66.2791 92.0399C66.1591 91.9999 66.0791 91.9999 65.9591 91.9599C65.7191 91.9199 65.4391 91.9199 65.1991 91.9999C64.6391 92.1199 64.0391 92.5999 64.0391 93.2399C64.0391 93.3999 64.0391 93.5599 64.0791 93.6799C64.1191 93.7999 64.1591 93.9199 64.2391 94.0399C64.2391 94.0799 64.2791 94.0799 64.2791 94.1199C64.3591 94.1999 64.3991 94.2399 64.4791 94.2799C64.6391 94.3599 64.8391 94.4399 65.0391 94.4399C65.2791 94.4399 65.4791 94.4399 65.6791 94.3999C65.8791 94.3199 66.1191 94.2399 66.3191 94.1199C66.4391 94.0399 66.5191 93.9599 66.6391 93.8799C66.7191 93.7999 66.7991 93.7199 66.8791 93.5999C66.9191 93.5199 66.9991 93.3999 66.9991 93.3199C66.9991 93.2799 67.0391 93.2399 67.0391 93.1599C67.0391 92.9999 67.0391 92.8399 66.9591 92.7199C66.9191 92.5999 66.8391 92.4799 66.7591 92.3599C66.6791 92.2799 66.6391 92.2399 66.5591 92.1999C66.3991 92.1199 66.2391 92.0799 66.0791 92.0399C65.9591 92.0399 65.8391 92.0399 65.7191 92.0799C65.5991 92.0799 65.4391 92.1199 65.3191 92.1999C65.1991 92.2399 65.1191 92.3199 64.9991 92.3999C64.9191 92.4799 64.8391 92.5199 64.7991 92.6399L64.7191 92.7999C64.7191 92.9199 64.7191 93.0399 64.7991 93.1199L64.9191 93.2399C65.0391 93.3199 65.1591 93.3599 65.3191 93.3599L65.1191 93.3199H65.1591L64.9591 93.2399C64.9991 93.2399 64.9991 93.2799 65.0391 93.2799L64.9191 93.1599C64.9591 93.1999 65.0391 93.2799 65.0791 93.3599L64.9991 93.1999C65.0391 93.2799 65.0791 93.3999 65.0791 93.5199V93.3599C65.0791 93.4399 65.0791 93.4799 65.0391 93.5599L65.0791 93.3999C65.0791 93.4399 65.0391 93.4799 64.9991 93.5199L65.1191 93.3599C65.0791 93.3999 65.0391 93.4399 64.9991 93.4799L65.1591 93.3199C65.1191 93.3599 65.0791 93.3999 65.0391 93.3999L65.2391 93.2799C65.1991 93.2799 65.1591 93.3199 65.1191 93.3199L65.3591 93.2399L65.2791 93.2799L65.5591 93.2399H65.4791H65.7191H65.6391L65.8791 93.2799L65.7991 93.2399L65.9591 93.3199C65.9191 93.3199 65.9191 93.2799 65.8791 93.2799L65.9991 93.3999C65.9591 93.3599 65.9191 93.3199 65.9191 93.2799L65.9991 93.4399C65.9591 93.3199 65.9191 93.1599 65.9191 93.0399V93.1999C65.9191 93.0799 65.9191 92.9999 65.9591 92.8799L65.9191 93.0399C65.9191 92.9999 65.9591 92.9599 65.9991 92.9199L65.8791 93.0799C65.8791 93.0399 65.9191 93.0399 65.9191 93.0399L65.7591 93.1999L65.7991 93.1599L65.5991 93.2799L65.6391 93.2399L65.3991 93.3199L65.4791 93.2799L65.1991 93.3199H65.2791H65.0391C65.0791 93.3199 65.1191 93.3199 65.1991 93.3199L64.9591 93.2799L65.0391 93.3199C65.1591 93.3599 65.2791 93.3599 65.3991 93.3599C65.5191 93.3599 65.6791 93.3599 65.7991 93.3199C65.9191 93.2799 66.0391 93.2399 66.1591 93.1599C66.2791 93.1199 66.3591 93.0399 66.4391 92.9599C66.5591 92.8399 66.6391 92.6399 66.5991 92.4799L66.5191 92.3199C66.5191 92.1199 66.3991 92.0399 66.2791 92.0399Z" fill="#000005"/>
<path d="M68.8018 89.16C69.2818 88.84 69.8018 88.64 70.3618 88.6C70.8018 88.56 71.2018 88.68 71.5618 88.92L71.6818 89C71.6418 89 71.5618 88.88 71.6418 88.96C71.7218 89.04 71.7618 89.04 71.8018 89.12C71.7618 89.04 71.6818 88.96 71.7618 89.08C71.8018 89.12 71.8018 89.16 71.8418 89.2C71.9218 89.28 71.7218 89 71.7618 89.12C71.8018 89.16 71.8018 89.2 71.8418 89.24C71.9218 89.36 71.7618 89.04 71.8018 89.16C71.8018 89.2 71.8418 89.24 71.8418 89.28C71.8018 89.04 71.9218 89.4 71.8418 89.28C71.8818 89.36 71.8818 89.4 71.8818 89.48C71.8818 89.32 71.8818 89.36 71.8818 89.44V89.56C71.8818 89.6 71.8818 89.8 71.8818 89.72C71.8818 89.64 71.8818 89.88 71.8818 89.88C71.8818 90.04 71.8418 90.2 71.8018 90.36C71.7618 90.48 71.7618 90.6 71.6818 90.72C71.6018 90.88 71.5618 91.04 71.4418 91.2C71.2818 91.44 71.1218 91.68 70.8818 91.88C70.3218 92.4 69.5618 92.72 68.7618 92.68C68.3618 92.68 68.5218 93.36 68.6418 93.56C68.8018 93.88 69.1218 94.44 69.5618 94.44C71.2418 94.44 72.7218 93.28 73.0418 91.6C73.4818 89.68 72.2018 87.32 70.2018 86.92C69.3218 86.76 68.4018 86.96 67.6818 87.48C67.3618 87.72 67.6418 88.32 67.8018 88.56C67.9618 88.8 68.4818 89.4 68.8018 89.16Z" fill="#000005"/>
<path d="M69.4789 93.1606C69.4789 93.1606 68.7189 92.9206 68.7989 93.7606C68.8789 94.6006 69.4789 94.3606 69.7189 94.0406C69.8789 93.7206 69.7989 93.3206 69.4789 93.1606Z" fill="white"/>
<path d="M70.2808 92.7599C69.8808 92.6399 69.4408 92.6399 69.0408 92.7599C68.7608 92.7999 68.4808 92.9199 68.2408 93.0799C68.1608 93.1199 68.0408 93.1999 68.0008 93.2799C67.9208 93.3599 67.8808 93.4399 67.8408 93.5599C67.8008 93.6799 67.8008 93.7999 67.8008 93.9199C67.8008 94.0399 67.8008 94.1199 67.8408 94.2399C67.8808 94.3599 67.9208 94.4399 68.0008 94.5199C68.1208 94.6799 68.3208 94.7599 68.5608 94.7599C68.8408 94.7999 69.1208 94.7599 69.4008 94.6799C69.6008 94.6399 69.8408 94.5599 70.0408 94.4799C70.2008 94.3999 70.3608 94.2799 70.5208 94.1599C70.5608 94.1199 70.6008 94.0799 70.6408 94.0399C70.7208 93.9599 70.7608 93.8799 70.8008 93.7999C70.8408 93.7199 70.8408 93.6399 70.8408 93.5599C70.8408 93.4399 70.8408 93.3599 70.8008 93.2799C70.7608 93.1599 70.6808 93.0799 70.6008 92.9599C70.4808 92.8399 70.3208 92.7599 70.1608 92.7599C70.0408 92.7599 69.9608 92.7599 69.8408 92.7599C69.6008 92.7599 69.3208 92.8399 69.0808 92.9199C68.9608 92.9599 68.8808 92.9999 68.8008 93.0799L68.6808 93.1999C68.6008 93.2399 68.5608 93.3199 68.6008 93.3999L68.6408 93.4799C68.7208 93.5199 68.8408 93.5599 68.9208 93.5599L68.7608 93.5199H68.8008L68.6808 93.4399C68.7608 93.4799 68.8008 93.5599 68.8408 93.5999L68.8008 93.5199C68.8808 93.6399 68.9208 93.7999 68.9208 93.9599V93.8399C68.9208 93.9199 68.8808 93.9999 68.8408 94.0399L68.9208 93.9199C68.8808 93.9599 68.8408 94.0399 68.7608 94.0799L68.8808 93.9599C68.8408 93.9999 68.8008 93.9999 68.7608 94.0399L68.9608 93.9599C68.9208 93.9599 68.9208 93.9999 68.8808 93.9999L69.1208 93.9199L69.0408 93.9599L69.2808 93.8799H69.2408L69.5208 93.8399H69.4808H69.7208H69.6808H69.8808H69.8408L70.0008 93.8799L69.9208 93.8399L70.0408 93.9199C70.0008 93.8799 69.9608 93.8399 69.9208 93.7999L69.9608 93.8799C69.8408 93.6799 69.8408 93.4799 69.8408 93.2399V93.3599C69.8408 93.2799 69.8808 93.1999 69.9208 93.1199L69.8408 93.2399C69.8408 93.1999 69.8808 93.1999 69.9208 93.1599L69.8008 93.2799L69.8408 93.2399L69.6408 93.3199H69.6808L69.4408 93.3999H69.4808L69.2408 93.4799H69.2808L69.0008 93.5199H69.0408H68.8008H68.8808H68.6808C68.7208 93.5199 68.7608 93.5199 68.8408 93.5599L68.6808 93.5199H68.7208C68.9208 93.5599 69.1208 93.5999 69.3608 93.5599C69.4808 93.5599 69.6408 93.5199 69.7608 93.4799C69.8808 93.4399 70.0008 93.3999 70.1208 93.3599L70.3208 93.2799C70.4008 93.2399 70.4808 93.1599 70.5208 93.0799V92.9599C70.4008 92.8799 70.3608 92.7999 70.2808 92.7599Z" fill="#000005"/>
<path d="M36.8398 108C38.9198 110.56 47.6398 108.32 47.6398 108.32C49.1198 108.36 50.5998 108.64 52.0398 109.12C54.7598 109.96 55.2398 107.8 53.8398 107.04C52.4398 106.28 49.9598 104.44 49.9598 104.44C51.5598 104.8 53.1198 105.36 54.5998 106.04C56.1998 106.84 57.2798 105.32 55.7598 104.08C54.3998 102.96 50.7598 100.64 50.7598 100.64C53.6798 100.16 56.8798 103 57.9198 101.76C58.9598 100.52 53.5998 96.9603 50.3198 97.0003C47.0398 97.0403 43.7598 100.24 43.4798 100.36L36.8398 108Z" fill="white"/>
<path d="M36.4388 108.56C37.6788 110.04 39.9188 110.16 41.7188 110.12C43.5588 110.04 45.3588 109.84 47.1188 109.44L47.7988 109.28C47.8788 109.28 47.9188 109.24 47.9588 109.24C48.0788 109.16 47.8388 109.28 47.8388 109.24C48.0788 109.28 48.3188 109.28 48.5188 109.28C49.0788 109.32 49.6388 109.4 50.1988 109.52C50.9988 109.68 51.7188 109.92 52.5188 110.12C53.0788 110.28 53.6788 110.28 54.2388 110.12C55.1188 109.8 55.6388 108.88 55.3588 107.96C54.9988 106.6 53.7588 106.08 52.6788 105.4C51.8388 104.84 51.0388 104.28 50.1988 103.72L50.1188 105.4C51.0388 105.6 51.9188 105.88 52.7988 106.2C53.5188 106.48 54.2388 106.88 54.9588 107.08C55.5588 107.32 56.2388 107.2 56.7588 106.8C57.9988 105.72 56.7988 103.96 55.8388 103.2C54.9588 102.48 53.9988 101.88 53.0788 101.24C52.3988 100.76 51.6788 100.32 50.9988 99.8803L51.1188 101.56C52.7988 101.32 54.3988 102.2 55.9588 102.68C56.9988 103 58.8388 103.28 58.8388 101.68C58.8388 100.32 57.4788 99.2003 56.4788 98.4803C55.1588 97.5603 53.6788 96.8403 52.0788 96.4003C50.4388 95.9203 48.6388 96.0403 47.0788 96.7603C45.6788 97.4003 44.3988 98.2403 43.2388 99.2403C42.0788 100.2 41.1188 101.52 40.1188 102.64L36.0788 107.28C35.5188 107.96 36.7588 109.48 37.4388 108.72L40.4788 105.24C41.6788 103.88 42.9588 102.56 44.0388 101.16C44.1588 101.04 44.0388 101.2 43.9588 101.2C44.0788 101.12 44.1588 101.04 44.2788 100.96C44.7188 100.6 45.1588 100.24 45.5988 99.9203C46.9188 98.9603 48.4388 98.1203 50.0788 97.9603C51.4788 97.8003 52.9188 98.3603 54.1588 98.9603C55.2788 99.5203 56.3988 100.2 57.1188 101.12C56.9588 100.92 57.1588 101.2 57.1988 101.28C57.1988 101.24 57.1188 101.04 57.1588 101.2C57.1988 101.36 57.1188 101 57.1588 101.16C57.1588 101.24 57.1188 101.24 57.1588 101.08C57.1588 101.16 57.1588 101.16 57.1588 101.08C57.1588 101 57.1588 101 57.1588 101.08C57.1188 101.04 57.3188 100.96 57.1588 101.04C57.1588 101.04 56.9988 101.2 57.1188 101.08C56.9988 101.2 56.8388 101.2 56.5988 101.16C56.2788 101.12 55.9988 101.04 55.7188 100.92C53.9588 100.28 52.1988 99.4403 50.2788 99.7603C49.4388 99.8803 49.9588 101.16 50.3988 101.4C51.7188 102.24 52.9988 103.08 54.2388 104C54.5988 104.24 54.9588 104.48 55.2788 104.76C55.3988 104.88 55.5588 104.96 55.5588 105.12C55.5188 105 55.5188 105.16 55.4788 105.2C55.1988 105.52 54.6388 105.28 54.3588 105.12C53.7188 104.8 53.0788 104.56 52.3988 104.32C51.5188 104 50.5988 103.72 49.6788 103.52C49.3188 103.44 49.0788 103.8 49.0388 104.12C49.0388 104.56 49.2388 104.96 49.5988 105.2C50.1588 105.6 50.7588 106 51.3588 106.4C51.8388 106.72 52.3188 107.04 52.7988 107.36L53.3988 107.72L53.6388 107.88C53.6788 107.92 53.7988 107.96 53.6388 107.88C53.6788 107.92 53.7188 107.96 53.7588 108C53.6388 107.88 53.7588 108.04 53.6788 107.88C53.7588 108.04 53.6788 107.76 53.6788 107.92C53.6788 108.08 53.7188 107.8 53.6788 107.96C53.6388 108.12 53.6788 108 53.6788 107.96C53.6788 108 53.6788 108.04 53.6388 108.08C53.6788 108 53.5188 108.2 53.5188 108.2C53.3988 108.32 53.2388 108.36 53.0788 108.4C52.5188 108.44 51.9588 108.32 51.4388 108.12C50.7588 107.92 50.0788 107.76 49.3988 107.64C48.7188 107.52 48.0388 107.44 47.3588 107.4C47.0788 107.44 46.7988 107.48 46.5188 107.56C44.9988 107.92 43.4388 108.16 41.8788 108.28C40.8788 108.36 39.9188 108.36 38.9188 108.2C38.5188 108.16 38.1588 108.04 37.7988 107.88C37.7188 107.84 37.6388 107.8 37.5588 107.76C37.4788 107.72 37.5588 107.76 37.5988 107.76C37.5588 107.72 37.5188 107.72 37.4788 107.68C37.3988 107.64 37.2388 107.48 37.3588 107.6C37.2788 107.52 37.2388 107.48 37.1588 107.4C36.8788 107.08 36.3588 106.92 36.0788 107.28C35.7988 107.64 36.1588 108.24 36.4388 108.56Z" fill="#000005"/>
<path d="M146.402 74.5202C146.402 74.5202 163.482 55.9202 165.362 55.5202C167.242 55.1202 165.562 56.4802 165.282 57.3202C165.002 58.1602 154.162 73.2002 154.162 73.2002L146.402 74.5202Z" fill="#68BA7F"/>
<path d="M147.122 74.8003C148.762 73.0403 150.402 71.2803 152.042 69.5203C155.002 66.3603 158.122 63.0803 161.082 60.1603C162.242 59.0003 163.402 57.8803 164.642 56.8403C164.842 56.6803 165.042 56.5203 165.242 56.3603C165.282 56.3203 165.322 56.3203 165.362 56.2803C165.402 56.2403 165.122 56.4403 165.282 56.3203C165.362 56.2803 165.442 56.2403 165.482 56.2003C165.602 56.1203 165.362 56.2403 165.322 56.2803L165.402 56.2403C165.402 56.2403 165.402 56.2403 165.362 56.2403C165.442 56.2403 165.522 56.2403 165.602 56.2003C165.522 56.2403 165.602 56.1603 165.642 56.2003C165.522 56.2003 165.402 56.1203 165.362 56.0403C165.322 56.0003 165.282 55.9203 165.322 55.8403C165.282 55.7203 165.482 55.8403 165.322 55.8003L165.242 55.9203C165.322 55.7603 165.122 56.0803 165.122 56.0803C164.922 56.3203 164.762 56.6003 164.602 56.8403C164.442 57.0803 164.242 57.5203 164.042 57.8403C163.922 58.0003 164.162 57.6803 164.042 57.8403L163.922 58.0003L163.642 58.4003L163.002 59.3603C161.842 61.0403 160.682 62.7203 159.482 64.4003C157.522 67.2003 155.482 69.9203 153.562 72.7203L153.442 72.8803L154.322 72.4003L146.562 73.7203C146.042 73.7603 145.642 74.1203 145.482 74.6003C145.402 75.0403 145.842 75.3203 146.242 75.2403L152.122 74.2403L153.522 74.0003C153.922 73.9603 154.322 73.8403 154.682 73.6003C154.962 73.3203 155.242 72.9603 155.442 72.6003C158.242 68.7203 161.002 64.8403 163.722 60.8803C164.562 59.6803 165.522 58.4803 166.162 57.1603C166.362 56.7203 166.962 56.2003 167.122 55.5603C167.362 54.6403 166.282 54.5203 165.642 54.6403C164.962 54.8003 164.362 55.1203 163.842 55.5603C162.362 56.8003 160.922 58.1203 159.602 59.5603C157.682 61.4803 155.762 63.4403 153.882 65.4403C151.162 68.2803 148.442 71.1603 145.802 74.0803L145.682 74.2403C145.442 74.4403 145.402 74.8403 145.642 75.0803C145.682 75.1603 145.762 75.2003 145.842 75.2403C146.282 75.4403 146.802 75.1203 147.122 74.8003Z" fill="#68BA7F"/>
<path d="M179.08 89.6808L127.24 52.8008C127.24 52.8008 120.76 66.8408 125.64 81.6408C130.52 96.4408 153.64 106.321 179.08 89.6808Z" fill="white"/>
<path d="M179.721 89.1204L174.521 85.4404L162.161 76.6404L147.241 66.0004L134.241 56.7604C132.161 55.2804 130.081 53.8004 127.961 52.2804L127.881 52.2004C127.481 51.9204 126.681 51.7204 126.361 52.3204C125.881 53.4004 125.481 54.4804 125.161 55.6004C124.321 58.2404 123.681 60.9604 123.321 63.7204C122.801 67.4404 122.761 71.2404 123.201 74.9604C123.641 78.3204 124.441 81.7604 126.001 84.7604C128.441 89.4404 132.481 93.1604 137.121 95.5604C142.561 98.3604 148.761 99.4804 154.881 99.1604C162.641 98.7204 170.161 96.1204 176.841 92.2004C177.801 91.6404 178.721 91.0404 179.681 90.4404C180.681 89.7604 179.481 88.2804 178.561 88.8804C172.041 93.1204 164.801 96.2404 157.041 97.1604C151.201 97.8804 145.041 97.2404 139.681 94.9204C135.081 92.9204 131.121 89.8404 128.481 85.6004C127.001 83.2404 126.081 80.4004 125.521 77.6004C124.801 73.8804 124.601 70.0804 124.961 66.3204C125.241 63.4004 125.761 60.5204 126.601 57.6804C126.761 57.1604 126.921 56.6404 127.081 56.1204L127.281 55.4804C127.281 55.4404 127.321 55.4004 127.321 55.3204L127.441 55.0004C127.641 54.5204 127.801 54.0004 128.041 53.5204L128.121 53.3204L126.601 53.4404L131.801 57.1204L144.161 65.9204L159.121 76.5604L172.121 85.8004C174.201 87.2804 176.281 88.7604 178.401 90.2404L178.481 90.3204C178.881 90.6004 179.441 90.7604 179.841 90.4004C180.161 90.0404 180.121 89.5204 179.761 89.2004C179.761 89.1204 179.721 89.1204 179.721 89.1204Z" fill="#68BA7F"/>
<path d="M127.363 111.361C127.363 111.361 136.683 85.9607 141.843 86.7607C147.003 87.5607 146.843 111.361 146.843 111.361H127.363Z" fill="#68BA7F"/>
<path d="M127.92 112.12C128.4 110.76 128.96 109.44 129.48 108.08C130.68 105.12 131.96 102.16 133.32 99.28C134.68 96.4 136.2 93.4 138.12 90.8C138.76 89.84 139.56 88.96 140.48 88.24C141.08 87.8 141.8 87.44 142.56 87.68C142.72 87.72 142.84 87.8 143 87.92C143.16 88 143 87.92 143.16 88.04C143.24 88.12 143.24 88.12 143.16 88.04L143.28 88.16C143.16 88 143.36 88.32 143.24 88.12C143.28 88.16 143.28 88.24 143.32 88.28C143.32 88.28 143.2 88.12 143.32 88.32L143.4 88.48C143.32 88.32 143.44 88.52 143.4 88.48L143.6 88.88C143.64 88.92 143.68 89.08 143.64 88.96C143.68 89.04 143.68 89.08 143.72 89.16C143.8 89.32 143.84 89.48 143.92 89.64C144.04 89.92 144.12 90.24 144.2 90.52C144.4 91.24 144.6 91.92 144.72 92.64C145.36 95.88 145.76 99.2 145.92 102.48C146.08 104.92 146.16 107.4 146.16 109.84C146.12 110.08 146.12 110.32 146.16 110.56C146.16 110.6 146.16 110.64 146.16 110.68C146.16 110.72 146.32 110.6 146.24 110.6H146.16C145.92 110.56 145.64 110.56 145.4 110.6H126.8C126.52 110.6 126.88 111.24 126.96 111.36C127.08 111.56 127.48 112.28 127.8 112.28H147.28C147.36 112.28 147.36 112.28 147.4 112.2C147.4 109.2 147.28 106.16 147.08 103.16C146.92 100.64 146.64 98.12 146.24 95.6C145.88 93.48 145.4 91.32 144.48 89.36C144.04 88.4 143.44 87.52 142.68 86.8C142.24 86.32 141.68 86.04 141.04 86C139.64 86 138.52 87.36 137.72 88.32C136.32 90.12 135.12 92.04 134.08 94.04C132.88 96.28 131.76 98.6 130.72 100.92C129.8 103 128.92 105.08 128.08 107.16C127.64 108.28 127.12 109.36 126.8 110.52C126.8 110.56 126.76 110.64 126.76 110.68C126.64 111 127.16 111.56 127.32 111.8C127.36 111.8 127.84 112.4 127.92 112.12Z" fill="#68BA7F"/>
<path d="M141.482 93.9602C142.52 93.9602 143.362 93.1185 143.362 92.0802C143.362 91.0419 142.52 90.2002 141.482 90.2002C140.443 90.2002 139.602 91.0419 139.602 92.0802C139.602 93.1185 140.443 93.9602 141.482 93.9602Z" fill="#68BA7F"/>
<path d="M142.724 91.4007C142.724 92.0807 142.324 92.7207 141.684 93.0407C141.364 93.2007 141.044 93.2407 140.684 93.2007C140.564 93.2007 140.404 93.1607 140.284 93.0807L140.164 93.0407C140.084 93.0007 140.284 93.1207 140.164 93.0407C140.164 93.0407 140.004 92.9207 140.124 93.0007C140.164 93.0407 140.244 93.0807 140.124 93.0007L140.204 93.0807C140.084 92.9607 140.284 93.1607 140.284 93.1607C140.164 93.0007 140.444 93.3607 140.324 93.2007C140.484 93.4007 140.404 93.3207 140.364 93.2807C140.284 93.1207 140.444 93.4407 140.364 93.2807C140.364 93.2407 140.324 93.2007 140.324 93.2007C140.364 93.3607 140.324 93.2007 140.324 93.1607C140.324 93.1207 140.284 92.9607 140.284 92.9207C140.284 92.6007 140.324 92.2807 140.484 91.9607C140.804 91.3607 141.484 91.0007 142.164 91.0007C142.364 91.0007 142.524 91.0407 142.684 91.1207L142.764 91.1607L142.844 91.2007C142.764 91.1607 142.764 91.1607 142.844 91.2007C142.884 91.2407 142.884 91.2407 142.924 91.2407C142.844 91.1607 142.804 91.1607 142.884 91.2007L142.924 91.2407L142.844 91.1607L142.764 91.0807C142.884 91.2407 142.604 90.8807 142.724 91.0407L142.644 90.9207C142.644 90.9607 142.684 91.0007 142.684 91.0007C142.684 90.9207 142.764 91.1607 142.684 91.0007C142.684 91.0807 142.724 91.1207 142.724 91.1607C142.724 91.2007 142.724 91.2807 142.724 91.4007C142.844 91.8007 143.044 92.2007 143.364 92.4807C143.484 92.6407 143.644 92.7607 143.844 92.8807C143.924 92.9207 144.084 92.9607 144.084 92.8407C144.044 92.2407 143.844 91.6407 143.484 91.1607C143.084 90.5607 142.564 90.0807 141.924 89.7207C141.124 89.2807 140.084 89.4407 139.444 90.1207C138.724 90.9207 138.844 91.9607 139.324 92.8407C139.884 93.8407 140.964 94.9607 142.204 94.8407C143.204 94.7207 144.004 93.8807 144.004 92.8407C144.004 92.6807 143.924 92.5207 143.844 92.4007C143.724 92.1607 143.564 91.9607 143.364 91.8007C143.244 91.6407 143.084 91.5207 142.884 91.4007C142.884 91.2807 142.724 91.2407 142.724 91.4007Z" fill="white"/>
<path d="M166.003 58.6407C167.638 58.6407 168.963 57.3155 168.963 55.6807C168.963 54.0459 167.638 52.7207 166.003 52.7207C164.368 52.7207 163.043 54.0459 163.043 55.6807C163.043 57.3155 164.368 58.6407 166.003 58.6407Z" fill="white"/>
<path d="M168.201 55C168.201 56.12 167.561 57.12 166.561 57.64C165.841 58 164.961 58.04 164.201 57.72L164.001 57.6C163.841 57.52 164.001 57.6 164.041 57.64C164.161 57.72 164.281 57.84 164.361 57.96C164.361 57.96 164.041 57.48 164.041 57.4C163.441 55.92 164.201 54.2 165.681 53.64C166.041 53.48 166.481 53.44 166.881 53.44C167.201 53.44 167.521 53.52 167.801 53.64C167.881 53.68 168.001 53.76 168.081 53.8C168.161 53.84 168.001 53.76 168.001 53.72C167.881 53.64 167.761 53.52 167.681 53.4C167.721 53.48 167.841 53.6 167.881 53.72C167.961 53.84 168.001 54 168.041 54.12C168.161 54.44 168.201 54.76 168.201 55.08C168.201 55.16 168.441 55.4 168.481 55.44C168.641 55.64 168.841 55.8 169.041 55.96C169.121 56.04 169.681 56.48 169.681 56.28C169.681 55.6 169.441 54.96 169.041 54.44C168.441 53.6 167.641 52.92 166.761 52.4C165.321 51.6 163.481 52.12 162.681 53.56C162.121 54.52 162.161 55.76 162.801 56.68C163.361 57.52 164.041 58.2 164.921 58.72C165.521 59.12 166.201 59.32 166.921 59.28C168.441 59.16 169.641 57.88 169.681 56.36C169.681 56.08 169.241 55.72 169.041 55.56C168.881 55.4 168.681 55.24 168.481 55.12C168.481 55.12 168.201 54.96 168.201 55Z" fill="#68BA7F"/>
<path d="M164.762 47.9606C167.122 47.5206 169.562 48.1206 171.442 49.6806C173.162 51.1206 174.282 53.1606 174.562 55.3606C174.562 55.4406 175.442 55.0406 175.522 55.0006C175.642 54.9206 176.362 54.6006 176.362 54.4406C176.042 52.1606 174.882 50.1206 173.122 48.6806C171.242 47.2006 168.802 46.6006 166.482 47.0406C166.082 47.1606 165.722 47.3206 165.362 47.5606C165.162 47.6406 165.002 47.7606 164.882 47.8806C164.802 47.8006 164.642 47.9606 164.762 47.9606Z" fill="#68BA7F"/>
<path d="M166.404 41.1605C172.004 41.1605 177.044 44.4005 179.404 49.4805C180.044 50.9205 180.444 52.4405 180.644 53.9605C180.764 54.4405 181.044 54.8805 181.444 55.1205C181.804 55.3205 181.964 55.1605 181.924 54.8005C181.124 48.4805 176.804 42.6005 170.764 40.4005C169.084 39.7605 167.284 39.4805 165.484 39.4805C164.924 39.4805 165.804 41.1605 166.404 41.1605Z" fill="#68BA7F"/>
<path d="M156.602 106.761H115.242V177.281H156.602V106.761Z" fill="white"/>
<path d="M155.842 176.641H119.602C117.962 176.641 116.242 176.561 114.602 176.641H114.522L116.002 177.881V107.561C116.002 107.521 116.002 107.441 116.002 107.361C116.002 107.281 115.922 107.401 115.962 107.401C116.202 107.401 116.442 107.401 116.682 107.401H157.282L155.802 106.161V173.801C155.802 174.721 155.722 175.641 155.802 176.561V176.681C155.802 177.001 156.402 177.401 156.642 177.601C156.722 177.681 157.362 178.081 157.362 177.841V110.201C157.362 109.281 157.442 108.361 157.362 107.441C157.362 107.401 157.362 107.361 157.362 107.321C157.362 107.081 156.882 106.721 156.722 106.561C156.562 106.401 156.162 106.081 155.882 106.081H115.162C114.962 106.041 114.802 106.041 114.602 106.081H114.522C114.442 106.081 114.442 106.121 114.442 106.161V173.801C114.442 174.721 114.362 175.641 114.442 176.561C114.442 176.601 114.442 176.641 114.442 176.681C114.442 176.921 114.922 177.281 115.082 177.441C115.242 177.601 115.642 177.921 115.922 177.921H156.642C156.842 177.921 157.002 177.921 157.202 177.921H157.282C157.562 177.921 156.962 177.321 156.922 177.281C156.682 177.081 156.242 176.641 155.842 176.641Z" fill="#68BA7F"/>
<path d="M117.078 20.1201H136.398C137.038 20.1201 137.558 20.6401 137.558 21.2801V36.9601C137.558 37.6001 137.038 38.1201 136.398 38.1201H117.078C116.438 38.1201 115.918 37.6001 115.918 36.9601V21.2801C115.918 20.6401 116.438 20.1201 117.078 20.1201Z" fill="#000005"/>
<path d="M135.719 37.5598H116.799C116.719 37.5598 116.599 37.5598 116.479 37.5598C116.439 37.5598 116.439 37.5598 116.399 37.5598C115.879 37.6398 116.919 37.7198 116.879 37.9198C116.839 37.7598 116.799 37.5598 116.759 37.3998C116.759 37.3598 116.759 37.3598 116.759 37.3198V23.8398C116.759 23.1198 116.719 22.3998 116.759 21.7198C116.839 20.5598 117.919 20.6798 118.759 20.6798H136.199C136.439 20.6798 136.719 20.6798 136.999 20.6798H137.079C137.119 20.6798 136.319 20.9598 137.159 20.6798C137.359 20.6798 137.279 20.6398 136.919 20.4798C136.639 20.2398 136.519 20.1998 136.639 20.3598C136.639 20.4798 136.719 20.7198 136.719 20.8798C136.759 23.3998 136.719 25.9198 136.719 28.4398C136.719 31.0798 136.759 33.6798 136.719 36.3198C136.759 36.9998 136.279 37.5198 135.719 37.5598C135.679 37.5598 135.639 37.5598 135.639 37.5598C135.319 37.5598 136.039 38.1598 136.079 38.1998C136.399 38.4798 136.799 38.6398 137.239 38.6798C138.639 38.5998 138.479 37.2398 138.479 36.2798V22.4798C138.479 22.2398 138.479 21.9998 138.479 21.7598C138.439 20.5998 136.839 19.6398 135.799 19.5998C135.159 19.5598 134.559 19.5998 133.919 19.5998H123.959C121.479 19.5998 118.999 19.5998 116.559 19.5998C115.919 19.5998 115.239 19.8798 115.119 20.5998C115.079 20.8398 115.079 21.1198 115.079 21.3598V35.0398C115.079 36.0398 114.919 36.9998 115.719 37.7198C116.319 38.2798 117.079 38.6398 117.879 38.6798H137.079C137.479 38.6798 137.079 38.2798 136.959 38.1998C136.599 37.8398 136.159 37.6398 135.719 37.5598Z" fill="#000005"/>
<path d="M122.278 26.7202C122.678 26.0402 123.518 25.8002 124.238 25.6002C125.158 25.3602 126.078 25.2402 126.998 25.3202C128.558 25.4002 130.038 26.0402 131.118 27.2002C131.318 27.4402 131.878 27.8802 132.198 27.5602C132.518 27.2402 132.118 26.6802 131.918 26.4402C130.518 24.8402 128.558 23.8402 126.438 23.6402C125.318 23.5602 124.238 23.6402 123.158 23.9602C122.198 24.2402 121.318 24.6002 120.758 25.4802C120.398 26.0402 121.798 27.4002 122.278 26.7202Z" fill="white"/>
<path d="M124.399 30.3994C124.559 30.1994 124.719 30.0394 124.879 29.8794C124.959 29.7994 125.039 29.7594 125.119 29.6794C125.199 29.6394 125.279 29.5594 125.359 29.5194C125.479 29.4794 125.599 29.3994 125.679 29.3594C125.599 29.3994 125.639 29.3594 125.719 29.3594L125.919 29.3194C125.759 29.3194 126.079 29.2794 125.919 29.3194C125.959 29.3194 126.039 29.3194 126.119 29.2794C125.959 29.2794 126.279 29.2394 126.119 29.2794H126.359C126.279 29.2794 126.319 29.2794 126.399 29.2794L126.559 29.3194L126.719 29.3594C126.639 29.3594 126.719 29.3594 126.759 29.3594C126.959 29.4394 127.159 29.5194 127.359 29.6394C127.799 29.8794 128.159 30.2394 128.439 30.6394C128.839 31.1994 130.759 30.7594 130.319 30.1194C128.559 27.5594 124.359 27.6794 122.559 30.0794C122.279 30.4394 122.679 30.6794 122.999 30.7194C123.319 30.7594 124.119 30.7194 124.399 30.3994Z" fill="white"/>
<path d="M124.84 32.2397C124.64 32.5597 124.52 32.8797 124.48 33.2397C124.48 33.6397 124.68 33.9997 125.04 34.1997C125.4 34.4397 125.8 34.5597 126.24 34.5997C126.6 34.6797 126.96 34.5997 127.28 34.4397C127.56 34.2397 127.76 33.9197 127.76 33.5597C127.76 33.3597 127.72 33.1197 127.68 32.9197C127.64 32.7597 127.6 32.6397 127.52 32.5197C127.36 32.2797 127.16 32.1197 126.92 31.9997C126.72 31.9197 126.52 31.8397 126.32 31.7997C126.04 31.7197 125.76 31.7197 125.48 31.7597C125.28 31.7597 125.08 31.8397 124.96 31.9997C124.88 32.1197 124.8 32.2397 124.76 32.3997C124.68 32.6797 124.68 32.9997 124.8 33.2797C124.96 33.5597 125.24 33.7597 125.56 33.8397C125.88 33.9597 126.2 34.0397 126.56 34.0397C126.76 34.0397 126.92 33.9997 127.08 33.9597C127.28 33.8797 127.44 33.7197 127.44 33.5197C127.44 33.2397 127.28 33.0397 127.04 32.9197C126.84 32.7997 126.6 32.7197 126.36 32.6797C126.12 32.6397 125.88 32.5997 125.64 32.6397C125.56 32.6397 125.32 32.6797 125.28 32.7997C125.24 32.9197 125.4 33.0397 125.52 33.1197C125.36 32.9997 125.44 33.0397 125.48 33.1197L125.4 32.9997C125.44 33.0397 125.44 33.1197 125.48 33.1597V33.0797C125.48 33.1597 125.48 33.2397 125.44 33.3197L125.48 33.2397C125.44 33.2797 125.4 33.3197 125.36 33.3597L125.48 33.3197C125.44 33.3197 125.44 33.3197 125.4 33.3597H125.52C125.4 33.3597 125.52 33.3597 125.88 33.3597L126.68 33.5997C126.64 33.5597 126.64 33.5997 126.76 33.6797L126.68 33.5997L126.76 33.7197C126.68 33.6397 126.68 33.5197 126.64 33.4397V33.5197C126.6 33.1997 126.64 32.8797 126.8 32.5997L126.76 32.6797C126.8 32.5997 126.84 32.5597 126.92 32.5197L126.8 32.5597C126.88 32.5197 126.96 32.5597 126.76 32.5597C126.4 32.5997 126.08 32.5197 125.76 32.3997C125.68 32.3597 125.64 32.3197 125.56 32.2797C125.52 32.2397 125.48 32.2397 125.52 32.2397C125.56 32.2397 125.56 32.2797 125.6 32.3197L125.52 32.2397C125.68 32.4397 125.76 32.7197 125.8 32.9597V32.8797C125.88 33.1597 125.84 33.4797 125.68 33.7197L125.72 33.6397C125.64 33.7597 125.56 33.8397 125.44 33.8797L125.56 33.7997L125.48 33.8397C125.4 33.8797 125.52 33.8397 125.56 33.8397H125.52C125.6 33.8397 125.68 33.8397 125.76 33.8397C125.88 33.8397 125.96 33.8797 126.08 33.8797C126.2 33.8797 126.36 33.9197 126.48 33.9997C126.4 33.9597 126.6 34.0797 126.6 34.0797C126.52 34.0397 126.72 34.1597 126.64 34.1197C126.6 34.0797 126.56 34.0397 126.52 33.9997L126.6 34.1197C126.52 33.9997 126.44 33.8797 126.4 33.7197V33.7997C126.4 33.3997 126.52 32.9997 126.76 32.6397C126.8 32.5197 126.56 32.3597 126.52 32.3197C126.32 32.1997 126.08 32.1197 125.84 32.0797C125.6 31.9997 125.36 31.9997 125.12 32.0397C125.04 32.0797 124.92 32.1197 124.84 32.2397Z" fill="white"/>
</svg>
