<svg width="400" height="400" viewBox="0 0 400 400" fill="none" xmlns="http://www.w3.org/2000/svg">
<path d="M161.68 64.7204C161.68 64.7204 172.4 67.2804 178.72 62.4804C185.04 57.6804 195.76 46.5604 201.68 51.9204C207.6 57.2804 200.64 65.6804 194.4 68.5604C194.4 68.5604 207.84 84.4004 201.2 96.0004C194.56 107.6 187.92 108.16 192.16 115.52C192.16 115.52 181.36 129.44 170.88 117.44C169.28 115.6 153.52 100.8 163.12 81.9204C163.12 81.9204 168.96 71.7604 161.68 64.7204Z" fill="white"/>
<path d="M160.16 65.9202C163.04 66.5602 165.92 66.8002 168.88 66.6402C171.44 66.4802 173.92 65.9202 176.24 64.9602C178.4 63.9202 180.32 62.5602 182.08 61.0402C185.52 58.1602 189.12 54.8802 193.04 52.9602C194.48 52.0802 196.16 51.7602 197.84 52.0002C199.84 52.5602 201.36 54.0002 202 56.0002C203.6 60.8802 198.48 65.9202 194.48 67.7602C194.16 67.9202 192.16 69.1202 192.8 69.7602C196.32 73.9202 198.96 78.7202 200.56 84.0002C201.68 87.9202 201.84 92.2402 200.08 95.9202C198 100.24 194.56 103.68 191.6 107.28C190.48 108.48 189.68 110 189.28 111.6C188.96 113.36 189.76 115.12 190.56 116.72L190.72 115.92C190.64 116.08 190.4 116.32 190.8 115.84C190.64 116.08 190.48 116.24 190.24 116.48C190 116.72 189.76 117.04 189.52 117.28L189.04 117.76C188.72 118.08 189.2 117.6 188.96 117.76L188.56 118.08C188.16 118.4 187.68 118.8 187.28 119.12C187.28 119.12 186.96 119.36 186.8 119.44C186.64 119.52 186.24 119.76 186 119.92C185.76 120 185.6 120.08 185.36 120.24C185.12 120.32 184.88 120.48 184.64 120.56C184.08 120.8 183.44 120.96 182.8 121.04C177.52 121.92 173.76 117.84 170.64 114.24C167.12 110.4 164.48 105.84 162.88 100.88C160.96 94.3202 161.68 87.3602 164.88 81.3602C167.84 75.7602 168.08 68.4802 163.36 63.7602C162.4 62.8002 159.28 65.2002 160 65.9202C162.64 68.4802 163.92 72.1602 163.52 75.8402C163.28 78.0802 162.64 80.3202 161.6 82.3202C161.28 82.9602 161.84 81.8402 161.44 82.6402C160.88 83.6802 160.4 84.8002 160 86.0002C159.28 87.9202 158.8 89.9202 158.56 91.9202C158.08 95.4402 158.4 99.0402 159.36 102.48C160.88 107.68 163.6 112.56 167.28 116.56C168.48 118 169.84 119.36 171.2 120.64C173.76 122.96 177.2 124.08 180.72 123.68C185.84 122.96 190.64 119.44 193.76 115.44C194 115.2 194 114.88 193.92 114.64C193.04 113.36 192.64 111.84 192.72 110.24C192.96 108.96 193.6 107.84 194.48 106.96C197.52 103.28 200.72 99.6802 203.04 95.4402C206.96 88.1602 203.76 79.5202 199.84 72.9602C198.72 71.1202 197.52 69.3602 196.16 67.6802L194.4 69.6002C199.04 67.3602 204.16 63.1202 205.44 57.9202C206.56 53.4402 203.28 49.0402 198.56 49.3602C193.68 49.6002 189.2 53.0402 185.44 56.0002C183.52 57.5202 181.6 59.1202 179.68 60.7202C178.16 62.1602 176.32 63.1202 174.32 63.6802C171.84 64.2402 169.28 64.4002 166.72 64.0802C165.84 64.0002 164.88 63.9202 164 63.7602L163.2 63.6002C162.96 63.6002 162.72 63.5202 163.12 63.6002C162.24 63.5202 161.36 63.7602 160.72 64.4002C160.56 64.4802 159.36 65.6802 160.16 65.9202Z" fill="#05050A"/>
<path d="M162.4 114.8C162.4 114.8 157.28 124.8 151.76 122.16C146.24 119.52 151.92 115.28 151.92 115.28C151.92 115.28 137.68 113.28 143.44 103.6C143.44 103.6 130.56 104.4 129.12 93.3598C127.68 82.3198 141.28 75.2798 141.28 75.2798C141.28 75.2798 131.36 66.8798 140.08 59.5998C148.8 52.3198 152.8 59.5998 152.8 59.5998C152.8 59.5998 158.32 54.8798 161.76 57.7598C165.2 60.6398 162.96 65.8398 162.96 65.8398C162.96 65.8398 171.12 75.9198 163.2 81.9198L168.88 99.6798C168.88 99.6798 175.44 101.12 177.52 107.84C179.6 114.56 168.24 120.72 162.4 114.8Z" fill="#000005"/>
<path d="M166.08 82.4002C166.08 82.4002 158.56 77.6802 155.68 83.5202C152.8 89.3602 165.92 104.32 172.96 95.5202" fill="white"/>
<path d="M167.84 81.6007C165.92 80.4007 163.68 79.6807 161.36 79.6807C157.92 79.7607 153.52 81.7607 153.36 85.6807C153.2 88.4807 154.72 91.2007 156.4 93.2807C158.24 95.8407 160.88 97.7607 163.84 98.8007C167.84 99.9207 172.08 98.5607 174.64 95.3607C175.2 94.7207 174.08 94.5607 173.68 94.6407C172.72 94.7207 171.84 95.1207 171.2 95.7607C170.8 96.2407 170.4 96.6407 169.92 97.0407C170.16 96.8807 169.76 97.1207 169.76 97.2007L169.6 97.2807C169.76 97.2007 169.76 97.2007 169.6 97.2807L169.44 97.3607C169.68 97.2807 169.76 97.2807 169.52 97.3607L169.36 97.4407C169.6 97.3607 169.68 97.3607 169.44 97.4407H169.28C169.52 97.4407 169.52 97.4407 169.36 97.4407H168.8C169.12 97.4407 168.4 97.4407 168.32 97.4407C167.76 97.3607 167.28 97.2807 166.72 97.1207C164.32 96.1607 162.16 94.6407 160.48 92.5607C158.8 90.7207 157.68 88.4807 157.2 86.0807C157.04 85.2007 157.12 84.3207 157.44 83.5207C157.68 82.9607 158.08 82.4007 158.56 82.0007C158.56 82.0007 159.04 81.6807 158.8 81.8407C159.2 81.6007 158.56 81.8407 158.96 81.7607C158.88 81.7607 158.32 81.8407 158.8 81.8407C159.36 81.8407 158.48 81.8407 158.96 81.8407C160.24 81.8407 161.44 82.1607 162.64 82.6407C163.2 82.8807 163.84 83.2007 164.4 83.5207C165.12 83.9207 166.24 83.5207 166.88 83.2007C167.12 83.0407 168.56 82.3207 167.92 81.9207L167.84 81.6007Z" fill="#05050A"/>
<path d="M186.881 80.6398C188.481 81.6798 190.241 82.3198 192.081 82.6398C195.761 83.3598 199.521 81.9998 202.001 79.1998C202.641 78.4798 201.921 77.5998 201.201 77.3598C200.241 77.0398 199.201 77.2798 198.481 77.9998C198.241 78.3198 198.001 78.5598 197.681 78.7998C197.521 78.8798 197.361 79.0398 197.281 79.1198C197.201 79.1998 197.121 79.2798 196.961 79.2798C197.121 79.1998 197.121 79.1998 196.961 79.2798C196.641 79.4398 196.321 79.5998 196.001 79.7598C195.601 79.9198 196.321 79.6798 195.921 79.7598C195.761 79.8398 195.521 79.8398 195.361 79.9198C195.201 79.9998 195.041 79.9998 194.961 79.9998C195.521 79.9998 195.041 79.9998 194.881 79.9998H194.401H194.161C193.921 79.9998 194.001 79.9998 194.241 79.9998C194.001 79.9998 193.681 79.9998 193.441 79.9198C193.121 79.9198 192.801 79.8398 192.561 79.7598C192.801 79.8398 192.801 79.9198 192.561 79.7598L192.161 79.6798C191.921 79.5998 191.681 79.5198 191.441 79.4398L190.721 79.1998C190.401 79.1198 191.121 79.3598 190.801 79.1998L190.561 79.0398C190.161 78.8798 189.841 78.6398 189.441 78.3998C188.561 77.9198 187.441 77.9198 186.641 78.5598C186.161 78.8798 186.001 79.5998 186.321 80.1598C186.481 80.3998 186.641 80.4798 186.881 80.6398Z" fill="#05050A"/>
<path d="M174.88 72.4002C175.764 72.4002 176.48 71.6839 176.48 70.8002C176.48 69.9165 175.764 69.2002 174.88 69.2002C173.997 69.2002 173.28 69.9165 173.28 70.8002C173.28 71.6839 173.997 72.4002 174.88 72.4002Z" fill="#000005"/>
<path d="M324.72 325.36C323.92 325.52 308.4 300.4 308.4 300.4L324.96 276.88L335.2 291.36C335.2 291.36 351.04 288.72 361.28 287.6C371.52 286.48 372.88 290.8 372.88 290.8L340.8 315.44C340.8 315.44 329.36 324.56 324.72 325.36Z" fill="#000005"/>
<path d="M323.6 323.84C323.92 323.84 324.4 324.24 324.64 324.56C324.32 324.24 325.04 324.96 324.8 324.72C324.72 324.64 324.64 324.56 324.64 324.48C324.72 324.64 325.12 325.12 324.64 324.48C324.16 323.84 323.68 323.2 323.28 322.48C322.64 321.6 322.08 320.64 321.44 319.76L321.12 319.28L320.64 318.48L319.52 316.72C316.72 312.4 314 308.08 311.36 303.76C310.72 302.8 310.16 301.84 309.6 300.88L309.84 302L324.32 281.44L326.4 278.56L324.32 277.04L333.28 289.76L334.56 291.52C334.88 291.92 335.84 293.2 336.48 293.12C341.04 292.4 345.52 291.68 350.08 290.96C353.68 290.4 357.36 289.92 361.04 289.44C364.24 289.04 367.68 288.64 370.72 289.76C371.12 289.92 371.52 290.08 371.92 290.32C372.4 290.56 371.84 290.32 372.16 290.48C372.24 290.56 372.32 290.8 372 290.4C372.24 290.72 372 290.4 371.92 290.24C372.4 290.8 371.52 289.6 371.84 290.08C371.52 289.52 371.84 290.32 371.68 289.68L371.76 289.28L354.32 302.72C349.2 306.64 344 310.64 338.88 314.64C336.56 316.4 334.24 318.16 331.84 319.76C329.44 321.36 326.48 323.28 323.6 323.84C322.8 324 324.88 327.2 325.84 326.96C328.4 326.48 330.72 324.88 332.88 323.52C335.28 322 337.6 320.32 339.92 318.64C341.44 317.44 342.96 316.32 344.48 315.12L367.28 297.6L374.16 292.32C374.24 292.24 374.24 292.08 374.24 291.92C373.68 290.4 372.64 289.04 371.28 288.08C368.96 286.32 366 285.84 363.2 285.84C359.2 285.84 355.2 286.64 351.28 287.2C347.52 287.76 343.76 288.32 340 288.88C338 289.2 336.08 289.52 334.08 289.84L336 291.44L327.04 278.72L325.76 276.96C325.68 276.8 324.08 274.88 323.68 275.44L309.2 296L307.12 298.88C306.88 299.2 307.2 299.68 307.36 300C312.08 307.68 316.8 315.44 321.92 322.88C322.48 323.68 323.04 324.48 323.68 325.2C324.16 325.76 325.04 326.96 325.84 326.96C326.64 326.96 325.6 325.6 325.52 325.44C325.2 324.96 324.32 323.76 323.6 323.84Z" fill="#000005"/>
<path d="M170.32 347.2C169.6 346.8 181.52 318.08 181.52 318.08L200.32 309.12L199.44 326.88C199.44 326.88 213.6 334.48 222.4 339.92C231.2 345.36 229.6 349.52 229.6 349.52L189.12 349.2C189.12 349.2 174.48 349.36 170.32 347.2Z" fill="#000005"/>
<path d="M171.84 346C172.16 346.24 172.24 346.64 172.24 347.04C172.24 346.96 172.24 346.88 172.24 346.88C172.32 346.72 172.56 345.92 172.32 346.48C172.56 345.68 172.8 344.96 173.12 344.24C174 341.84 174.88 339.52 175.76 337.2C177.76 332.16 179.76 327.12 181.84 322.08L183.28 318.56L182.24 319.52L198.64 311.68L201.04 310.56L198.24 309.04L197.52 324.56L197.44 326.8C197.36 327.44 197.68 328 198.24 328.24C202.24 330.4 206.24 332.64 210.16 334.88C213.28 336.64 216.4 338.48 219.44 340.32C222.16 342 225.28 343.76 226.88 346.56C227.04 346.8 227.2 347.12 227.28 347.36C227.36 347.44 227.36 347.6 227.44 347.68C227.36 347.44 227.44 347.6 227.44 347.76C227.52 348.08 227.6 348.48 227.6 348.8C227.6 349.12 227.6 348.4 227.6 348.72C227.6 348.8 227.6 348.88 227.6 348.96C227.6 349.04 227.6 349.12 227.6 349.28C227.6 349.68 227.6 349.36 227.68 349.12L229.76 348L207.76 347.84C201.28 347.76 194.8 347.76 188.24 347.68C185.36 347.68 182.48 347.6 179.68 347.36C178.08 347.2 176.4 347.04 174.96 346.8C174.24 346.72 173.6 346.56 172.88 346.4C172.56 346.32 172.24 346.24 171.92 346.08C171.76 346 171.6 345.92 171.44 345.84C170.48 345.36 169.36 345.6 168.64 346.4C168.08 347.04 168.16 347.92 168.72 348.48C168.8 348.56 168.88 348.64 169.04 348.72C171.52 349.92 174.48 350.24 177.2 350.48C180.08 350.8 183.04 350.88 185.92 350.96C187.84 350.96 189.76 350.96 191.68 350.96L220.4 351.12L229.2 351.2C230.08 351.28 230.88 350.8 231.28 350.08C231.68 348.8 231.6 347.44 231.04 346.24C229.84 343.2 227.04 340.96 224.4 339.12C221.28 337.04 217.92 335.2 214.72 333.36C211.6 331.6 208.56 329.84 205.44 328.16C203.84 327.28 202.24 326.4 200.56 325.52L201.36 326.96L202.08 311.44L202.16 309.2C202.24 307.76 200.56 307.12 199.36 307.68L190.08 312.16C186.96 313.68 183.68 315.04 180.56 316.72C179.52 317.28 179.28 318.32 178.88 319.28C178.16 320.96 177.52 322.64 176.8 324.32C174.96 328.88 173.04 333.52 171.28 338.16C170.48 340.24 169.68 342.32 168.96 344.4C168.64 345.36 167.52 347.6 168.64 348.4C169.44 349.04 170.56 349.04 171.44 348.48C172.24 347.84 172.64 346.64 171.84 346Z" fill="#000005"/>
<path d="M266.801 194.641L343.761 282.481L308.001 311.761L216.881 209.841L266.801 194.641Z" fill="white"/>
<path d="M264.96 194.08L268.88 198.56L278.96 210.08L293.04 226.08L308.56 243.84L323.44 260.8L335.2 274.24L341.52 281.44C341.6 281.52 341.92 281.76 342 281.92C342.08 282.08 342 281.76 342 281.84C342 281.92 341.76 282 341.68 282.08L337.2 285.68L320.24 299.52L306.88 310.4L306.16 310.96L309.84 312.24L305.28 307.2L293.44 294L277.12 275.76L258.8 255.28L241.28 235.68L227.28 220.08L219.44 211.28C219.28 211.04 219.04 210.64 218.72 210.48C218.4 210.32 218.48 210.48 218.64 210.48C219.28 210.4 219.92 210.16 220.48 209.92L224.16 208.8L248 201.52L267.28 195.6L268.32 195.28C268.8 195.12 267.28 194.4 267.2 194.32C266.56 194.08 265.52 193.52 264.8 193.76L247.92 198.88L221.28 207.2L215.12 209.04C215.04 209.04 214.96 209.12 215.04 209.2L217.44 211.92L224.08 219.36L233.92 230.32L245.84 243.68L258.88 258.32L272.16 273.2L284.48 286.96L294.88 298.64L302.4 307.04C303.6 308.32 304.72 309.68 305.92 311.04L306.08 311.2C306.64 311.68 307.28 312.08 308.08 312.24C308.48 312.4 309.44 312.8 309.84 312.48L321.92 302.56L341.2 286.8L345.6 283.2V283.04L337.92 274.32L319.52 253.36L297.36 228L278.16 206.08C275.04 202.56 272 198.96 268.8 195.44L268.64 195.28C268 194.72 267.28 194.32 266.4 194.16C266.32 194.08 264.64 193.76 264.96 194.08Z" fill="#000005"/>
<path d="M182.24 201.2L187.12 217.04C193.12 236.4 192.8 257.12 186.4 276.24L169.28 326.96L214.8 331.28L235.68 276.16C241.84 259.84 243.04 242 238.96 224.96L234.32 205.52L182.24 201.2Z" fill="white"/>
<path d="M180.56 200.16C182.56 206.56 184.72 212.88 186.4 219.36C190.72 235.52 190.8 252.48 186.56 268.72C185.04 274.4 183.04 279.92 181.12 285.44L172.88 309.76L169.36 320.16L168.16 323.76C167.92 324.4 167.68 325.04 167.52 325.68C167.52 325.76 167.44 325.84 167.44 325.92C167.28 326.48 170.16 328.16 170.64 328.16L186 329.6L210.56 331.92L216.16 332.48H216.24L221.44 318.72L231.2 292.88C233.2 287.68 235.12 282.56 237.04 277.36C242.72 262.24 244.16 245.84 241.2 229.92C239.76 222.32 237.68 214.8 235.92 207.28L235.76 206.48C235.68 206.08 234.56 205.44 234.24 205.2C233.76 204.8 233.2 204.48 232.56 204.32L214.96 202.88L186.96 200.56L180.56 200C180.16 200 181.44 201.04 181.52 201.04C182.16 201.6 182.88 202 183.68 202.24L201.28 203.68L229.28 206L235.68 206.56L232.48 204.4L236.08 219.68C236.64 222 237.2 224.24 237.68 226.56C238.96 232.96 239.6 239.6 239.44 246.16C239.2 256.16 237.2 266.08 233.6 275.44L229.44 286.32L222.4 304.96L215.76 322.56L213.68 328.16L213.12 329.68C213.12 329.76 212.88 330.24 213.04 330.16C212.88 330.24 212.32 330.08 212.16 330.08L209.92 329.84L202.48 329.12L182.4 327.2L168.32 325.84L167.6 325.76L170.8 328L175.28 314.64L183.6 290C185.12 285.44 186.72 280.88 188.24 276.32C193.36 260.56 194.4 243.68 191.2 227.44C189.52 219.12 186.64 211.04 184.16 202.88L183.92 202.08C183.76 201.44 182.48 200.88 182 200.56C181.76 200.56 180.48 199.84 180.56 200.16Z" fill="#000005"/>
<path d="M238.32 205.92C238.32 205.92 211.6 120 188.24 113.28C164.88 106.56 164.64 162.48 164.08 174.64C163.52 186.8 209.44 232.88 238.32 205.92Z" fill="#000005"/>
<path d="M240.24 206.24C238.96 202.16 237.52 198 236.16 193.92C232.88 184.4 229.28 175.04 225.44 165.76C221.2 155.2 216.16 144.96 210.56 135.12C208.08 130.88 205.36 126.8 202.32 122.96C199.92 119.84 196.96 117.12 193.6 114.88C190 112.56 185.76 111.6 181.52 112C177.84 112.48 174.96 114.88 172.8 117.84C170.16 121.52 168.56 125.84 167.36 130.16C166 135.2 164.96 140.4 164.32 145.6C163.2 154.4 162.8 163.28 162.48 172.16C162.4 173.36 162.4 174.48 162.56 175.68C162.88 177.12 163.44 178.56 164.16 179.84C166.24 183.68 168.8 187.2 171.76 190.32C179.44 198.88 188.8 205.68 199.28 210.4C209.84 214.96 222.48 216.96 233.12 211.52C235.76 210.16 238.16 208.4 240.32 206.4C240.8 206 239.36 205.52 239.12 205.44C238.64 205.28 237.12 204.72 236.64 205.2C232.48 209.12 227.36 211.84 221.76 212.96C219.28 213.44 216.72 213.6 214.16 213.36C212.88 213.28 211.68 213.12 210.4 212.88C209.6 212.72 209.52 212.72 208.8 212.56L207.92 212.32L207.44 212.16C207.44 212.16 206.8 212 207.12 212.08C196.72 209.04 187.12 202.32 179.28 194.8C175.84 191.6 172.8 188 170.08 184.08C168.4 181.6 166.56 178.72 166.24 175.68C166.24 174.48 166.24 173.28 166.32 172.08C166.4 170.32 166.4 168.56 166.48 166.88C166.64 162.32 166.96 157.76 167.36 153.2C168.32 143.44 169.6 133.12 173.68 124.08C175.2 120.64 177.28 117.12 180.56 115.04C181.92 114.08 183.52 113.52 185.12 113.36C185.28 113.36 185.76 113.36 186.16 113.36C186.32 113.36 186.48 113.36 186.56 113.36H186.88C187.04 113.36 186.56 113.28 186.96 113.36C187.12 113.36 187.76 113.52 187.28 113.44L188 113.6C187.44 113.44 188 113.6 188.08 113.68C188.64 113.84 187.84 113.6 188.32 113.76L188.88 114C189.2 114.16 188.8 113.92 189.04 114.08C189.44 114.24 189.76 114.48 190.16 114.64C190.8 115.04 191.44 115.52 192.08 116C193.52 117.12 194.88 118.32 196.16 119.68C199.2 123.04 201.92 126.64 204.32 130.48C210.16 139.6 214.88 149.52 219.28 159.44C223.44 168.88 227.2 178.56 230.64 188.24C232.64 193.76 234.56 199.28 236.32 204.8C236.4 205.04 236.48 205.36 236.56 205.6C236.72 206.24 238.32 206.48 238.88 206.56C239.04 206.56 240.4 206.88 240.24 206.24Z" fill="#000005"/>
<path d="M169.761 113.12L216.241 75.8403C216.241 75.8403 259.761 61.0403 262.721 61.6803C265.681 62.3203 296.961 105.76 296.961 105.76L249.281 120.24C249.281 120.24 199.761 157.2 198.641 157.2C197.521 157.2 169.761 113.12 169.761 113.12Z" fill="#68BA7F"/>
<path d="M171.041 114.72L178.801 108.48L195.601 94.9601L211.681 82.0801L216.401 78.2401C216.721 78.0001 217.121 77.7601 217.441 77.4401C217.681 77.2001 217.281 77.6001 217.201 77.5201L217.521 77.4401C222.321 75.9201 227.121 74.2401 231.921 72.6401C239.121 70.2401 246.401 67.9201 253.681 65.7601C256.241 65.0401 258.801 64.2401 261.361 63.6801L262.001 63.5201L262.241 63.4401C261.841 63.5201 262.401 63.4401 262.241 63.4401C262.481 63.4401 262.801 63.4401 263.041 63.3601C263.281 63.2801 262.561 63.2801 262.881 63.3601C262.801 63.3601 262.321 63.1201 262.641 63.2801C262.721 63.3601 262.161 62.8801 262.481 63.2001L262.801 63.5201C263.041 63.7601 263.281 64.0001 263.521 64.2401C263.761 64.4801 263.121 63.8401 263.441 64.1601L263.601 64.3201L264.161 64.9601C264.961 65.8401 265.761 66.8001 266.561 67.7601C268.641 70.2401 270.641 72.8801 272.641 75.4401C277.361 81.5201 281.921 87.6801 286.481 93.8401C289.361 97.8401 292.321 101.92 295.201 105.92L295.681 106.56L296.081 103.84L284.561 107.36L262.481 114.08C257.841 115.52 253.121 116.72 248.561 118.32C247.921 118.64 247.281 119.04 246.721 119.52L241.681 123.28C236.001 127.52 230.241 131.76 224.561 136C218.561 140.48 212.481 144.88 206.401 149.28C204.321 150.8 202.241 152.32 200.081 153.76C199.441 154.24 198.801 154.64 198.161 155.04L197.601 155.44C197.281 155.6 197.921 155.28 197.761 155.36C197.521 155.44 197.761 155.36 198.081 155.36C198.481 155.36 198.881 155.52 199.281 155.76C198.961 155.52 199.681 156.24 199.441 155.92C199.281 155.68 199.121 155.52 198.961 155.28C198.401 154.56 197.921 153.84 197.441 153.12C195.761 150.72 194.161 148.32 192.561 145.84C188.321 139.36 184.161 132.88 180.001 126.32C177.121 121.84 174.241 117.28 171.441 112.8L171.041 112.08C170.481 111.28 169.441 110.96 168.561 111.44C167.681 112.08 168.081 113.2 168.561 114C170.641 117.36 172.721 120.64 174.881 124C179.041 130.56 183.201 137.12 187.441 143.6C190.401 148.24 193.281 153.04 196.721 157.36C197.121 158 197.681 158.48 198.401 158.8C199.121 159.04 199.921 158.88 200.481 158.4C202.001 157.52 203.361 156.48 204.801 155.44C210.401 151.44 215.841 147.44 221.361 143.36C227.601 138.8 233.761 134.16 240.001 129.6C243.441 127.04 247.041 124.64 250.321 121.92C249.841 122 250.801 121.52 250.321 121.92C250.881 121.76 251.361 121.6 251.921 121.44L259.041 119.28L280.961 112.64L296.961 107.76L297.761 107.52C299.041 107.12 298.721 105.6 298.161 104.8C296.001 101.84 293.841 98.8801 291.681 95.9201C287.201 89.7601 282.641 83.6801 278.081 77.6001C274.241 72.6401 270.481 67.5201 266.321 62.8801C265.281 61.7601 263.921 59.9201 262.241 59.8401C260.561 59.7601 258.641 60.4801 256.961 60.8801C250.001 62.7201 243.201 64.9601 236.321 67.1201C230.161 69.1201 224.001 71.1201 217.841 73.2001C216.881 73.4401 215.921 73.7601 215.041 74.2401C214.081 74.8801 213.201 75.7601 212.241 76.4801L197.921 88.0001L180.241 102.24L169.121 111.12L168.561 111.6C166.961 112.8 169.361 116 171.041 114.72Z" fill="#68BA7F"/>
<path d="M247.921 139.121L296.881 105.681L249.201 120.161L198.561 157.121L247.921 139.121Z" fill="white"/>
<path d="M249.841 139.04L266.481 127.76L292.801 109.84L298.881 105.68C299.281 105.44 297.921 105.36 297.921 105.36C297.121 105.36 296.321 105.44 295.521 105.6L275.681 111.6L249.601 119.52C249.041 119.68 248.401 119.84 247.841 120.08C247.361 120.32 246.881 120.56 246.401 120.96L239.121 126.24L214.081 144.48L202.801 152.72C200.801 154.16 198.801 155.52 196.881 157.04L196.641 157.2C196.321 157.44 197.841 157.52 197.841 157.52C198.721 157.52 199.521 157.44 200.321 157.2L216.961 151.12L243.521 141.36L249.681 139.12C250.481 138.8 249.041 138.72 248.961 138.64C248.001 138.56 247.121 138.72 246.241 138.96L229.601 145.04L203.041 154.8L196.881 157.04H200.561L214.881 146.56L240.321 128L249.041 121.6C249.681 121.12 250.401 120.72 251.041 120.16C251.441 119.84 251.121 120.24 250.801 120.16C250.961 120.16 251.201 120.08 251.361 120L275.041 112.8L298.161 105.76L298.561 105.68L295.201 105.6L278.401 117.12L252.161 135.04L246.081 139.2C245.681 139.44 247.441 139.52 247.521 139.52C248.321 139.52 249.121 139.36 249.841 139.04Z" fill="#68BA7F"/>
<path d="M233.36 70.0802C233.36 70.0802 240.96 80.6402 241.76 80.8002C242.56 80.9602 256.16 74.0802 256.16 74.0802L248.8 65.2002L233.36 70.0802Z" fill="white"/>
<path d="M232 70.1602C234.56 73.6802 237.04 77.4402 240.08 80.6402C240.8 81.3602 241.84 82.3202 242.96 82.2402C243.68 82.0802 244.4 81.8402 244.96 81.5202C247.44 80.4802 249.84 79.2802 252.24 78.0802C254 77.2002 255.76 76.3202 257.52 75.5202C258.08 75.2002 257.76 74.4802 257.44 74.0802L250.16 65.2002C249.6 64.4802 248.48 63.6002 247.44 63.9202L232 68.7202C231.2 68.9602 232.08 70.2402 232.4 70.4802C232.96 71.0402 233.92 71.6802 234.8 71.4402L250.32 66.4802L247.6 65.2002L254.88 74.0802L254.8 72.6402C251.2 74.4802 247.52 76.2402 243.84 78.0002C242.96 78.4002 242.16 78.8002 241.2 79.1202L240.8 79.2802C240.64 79.3602 240.56 79.4402 240.64 79.3602C240.72 79.2802 241.76 79.6002 242.16 79.9202C242.32 80.0802 242.48 80.2402 242.16 79.9202C242.08 79.8402 241.68 79.3602 242 79.7602L241.6 79.2802C241.2 78.8002 240.88 78.3202 240.48 77.9202C239.68 76.8802 238.88 75.8402 238.08 74.7202C236.96 73.2002 235.76 71.6002 234.64 70.0802C234.16 69.4402 233.12 68.6402 232.24 68.7202C231.36 68.8002 231.68 69.6802 232 70.1602Z" fill="#68BA7F"/>
<path d="M214.24 77.7599C215.28 79.4399 216.4 81.0399 217.68 82.5599C220.08 85.7599 222.48 88.9599 224.88 92.0799C230.32 99.2799 235.84 106.48 241.28 113.76C242.24 115.04 243.2 116.32 244.16 117.6L245.04 118.8C245.2 119.04 245.52 119.68 245.2 119.04C245.68 119.84 246.72 120.16 247.6 119.76C248.32 119.44 249.36 118.48 248.88 117.52C247.84 115.84 246.72 114.24 245.44 112.72C243.04 109.52 240.64 106.32 238.24 103.2C232.8 95.9999 227.28 88.7999 221.84 81.5199C220.88 80.2399 219.92 78.9599 218.96 77.6799C218.64 77.2799 218.4 76.8799 218.08 76.4799C217.92 76.2399 217.6 75.5999 217.92 76.2399C217.44 75.4399 216.4 75.1199 215.52 75.5199C214.8 75.8399 213.76 76.8799 214.24 77.7599Z" fill="white"/>
<path d="M255.601 112.321C256.801 112.001 257.521 110.721 257.201 109.521C256.881 108.241 255.681 106.801 254.161 106.881C252.641 106.961 252.641 108.561 253.281 109.601C254.401 111.281 256.801 112.721 258.721 111.921C260.641 111.121 261.521 108.961 260.721 107.121C260.721 107.041 260.641 106.961 260.641 106.881L258.641 108.881C260.081 109.921 262.001 109.921 263.441 108.881C264.801 107.681 265.281 105.681 264.561 104.001C264.241 103.201 263.201 102.321 262.241 102.641C261.361 102.961 261.201 104.001 261.521 104.881C261.441 104.641 261.441 104.561 261.441 104.721C261.441 104.801 261.441 104.801 261.441 104.881C261.361 104.801 261.441 104.481 261.441 104.801C261.441 104.881 261.441 105.041 261.441 105.121C261.441 104.881 261.521 104.881 261.441 104.961L261.361 105.121C261.361 105.201 261.361 105.201 261.281 105.281C261.281 105.361 261.281 105.361 261.361 105.201C261.361 105.281 261.281 105.361 261.201 105.441C261.121 105.521 261.121 105.681 261.041 105.681C261.201 105.521 261.201 105.521 261.121 105.601L260.961 105.681C260.881 105.761 260.801 105.761 260.721 105.841C260.641 105.921 260.961 105.761 260.721 105.841L260.321 105.921H260.081C260.321 105.921 260.001 105.921 259.921 105.841C259.601 105.761 260.241 106.001 259.921 105.841C259.841 105.761 259.681 105.681 259.601 105.601C259.041 105.201 258.321 105.281 257.841 105.681C257.361 106.241 257.281 106.961 257.681 107.601C257.681 107.681 257.761 107.761 257.761 107.761C257.681 107.441 257.681 107.361 257.681 107.521C257.681 107.681 257.681 107.601 257.681 107.281V107.521C257.681 107.841 257.761 107.201 257.681 107.521C257.681 107.601 257.681 107.681 257.601 107.681L257.681 107.521C257.681 107.601 257.521 107.841 257.441 107.921L257.361 108.001C257.281 108.161 257.281 108.081 257.441 107.921L257.201 108.081L257.041 108.161C257.201 108.081 257.281 108.081 257.121 108.081C257.041 108.081 256.881 108.161 256.721 108.161H256.881H256.801C256.801 108.161 256.241 108.081 256.561 108.081L256.321 107.921C256.001 107.761 256.641 108.241 256.321 107.921C256.241 107.841 256.161 107.681 256.081 107.681C256.321 107.921 256.321 108.001 256.161 107.761C256.001 107.521 256.001 108.001 256.001 108.001L255.121 110.721C255.441 110.721 254.881 110.641 254.801 110.561C254.321 110.241 254.001 109.681 254.081 109.121C254.081 109.041 254.161 108.961 254.161 108.881C254.081 108.961 254.081 109.041 254.161 108.881C254.241 108.721 254.241 108.801 254.161 108.881C254.321 108.801 254.401 108.801 254.241 108.801C253.281 108.961 253.201 110.321 253.521 111.041C253.841 112.001 254.801 112.561 255.841 112.401L255.601 112.321Z" fill="white"/>
<path d="M183.12 169.92L244.16 120.88C244.16 120.88 301.36 101.44 305.2 102.32C309.04 103.2 350.16 160.24 350.16 160.24L287.44 179.28C287.44 179.28 222.32 227.84 220.88 227.84C219.44 227.84 183.12 169.92 183.12 169.92Z" fill="#68BA7F"/>
<path d="M184 171.68L194.24 163.44L216.4 145.68L237.52 128.72L243.6 123.84C244.16 123.28 244.8 122.88 245.44 122.56C251.76 120.4 258.08 118.32 264.4 116.24C273.92 113.12 283.44 110 293.12 107.2C296.4 106.24 299.76 105.2 303.2 104.48C304 104.24 304.88 104.16 305.76 104.08C305.92 104.08 306.08 104.16 306.24 104.24C306.32 104.24 306.32 104.32 306.4 104.32C306.24 104.16 306.48 104.4 306.4 104.32C306.56 104.48 306.64 104.56 306.8 104.64C307.12 104.96 307.44 105.28 307.76 105.6C307.84 105.68 307.92 105.76 308.08 105.92C308.24 106.08 308.24 106.08 308.16 106.08L308.8 106.8C309.84 108 310.88 109.2 311.92 110.4C314.64 113.68 317.2 117.04 319.84 120.4C326 128.32 332 136.4 337.92 144.48C341.84 149.84 345.76 155.2 349.68 160.56L350.24 161.36L349.2 158.48L334 163.12L305.04 171.92L293.04 175.6C290.96 176.24 288.8 176.8 286.72 177.52C286 177.84 285.36 178.32 284.72 178.88L278 183.92C270.48 189.52 262.96 195.12 255.44 200.64C247.52 206.48 239.6 212.32 231.68 218.08C228.96 220.08 226.16 222.08 223.44 224C222.64 224.56 221.84 225.12 220.96 225.68C220.72 225.84 220 226.08 219.84 226.32C219.84 226.24 219.92 226.4 220 226.4C219.6 226 219.92 226.4 220 226.4L219.36 225.6C219.28 225.52 219.28 225.44 219.2 225.36C219.04 225.12 218.88 224.96 218.72 224.72C218.32 224.16 217.92 223.68 217.6 223.12C215.44 220 213.36 216.88 211.28 213.68C205.68 205.2 200.4 196.88 194.96 188.24C191.2 182.32 187.44 176.32 183.68 170.4L183.12 169.52C182.96 169.28 182.32 168.08 182 168.56C181.68 169.04 182.72 170.64 182.88 170.88C185.6 175.28 188.4 179.68 191.2 184.08C196.72 192.8 202.24 201.44 207.84 210.08C210.32 213.92 212.8 217.68 215.28 221.44C216.88 223.84 218.48 226.24 220.24 228.56C220.56 228.96 221.04 229.84 221.52 229.92C221.92 230 222.32 229.6 222.56 229.44C224.56 228.16 226.48 226.8 228.4 225.44C235.76 220.16 243.04 214.8 250.32 209.44C258.48 203.44 266.56 197.44 274.64 191.44L283.52 184.8C285.04 183.68 286.4 182.48 288 181.52C288.8 181.12 289.68 180.8 290.64 180.64L300.08 177.76L328.88 169.04L349.84 162.72L350.96 162.4C351.52 162.24 350.08 159.76 349.92 159.52C347.12 155.6 344.24 151.68 341.36 147.76C335.44 139.68 329.44 131.68 323.44 123.68C318.4 117.04 313.44 110.32 307.84 104.16C307.12 103.28 306.32 102.48 305.44 101.76C305.04 101.28 304.48 101.04 303.92 100.88C303.12 100.88 302.32 100.96 301.52 101.2C300.08 101.52 298.72 101.84 297.28 102.24C288.16 104.64 279.2 107.6 270.24 110.48C262.16 113.12 254.16 115.76 246.08 118.48C244.96 118.72 243.92 119.12 242.88 119.6C241.6 120.56 240.32 121.52 239.12 122.64L220.32 137.76L197.12 156.4L182.64 168L181.92 168.56C181.52 168.72 183.68 172 184 171.68Z" fill="#68BA7F"/>
<path d="M285.761 204.08L350.161 160.24L287.441 179.28L220.881 227.84L285.761 204.08Z" fill="white"/>
<path d="M286.961 205.12L293.361 200.8L308.801 190.32L327.361 177.68L343.441 166.72C346.081 164.96 348.641 163.2 351.281 161.36L351.361 161.28C352.001 160.88 352.481 160.16 351.921 159.44C351.281 158.8 350.321 158.64 349.521 158.96L341.681 161.36L323.601 166.88L303.441 172.96L289.201 177.28C288.401 177.52 287.601 177.68 286.801 178C286.081 178.32 285.361 178.8 284.801 179.36L275.201 186.4L259.601 197.76L242.241 210.4L227.441 221.2L219.681 226.88L219.361 227.12C218.881 227.52 218.801 228.16 219.121 228.64C219.201 228.72 219.201 228.72 219.281 228.8C219.921 229.28 220.801 229.44 221.601 229.12L228.081 226.72L243.521 221.04L262.321 214.16L278.481 208.24C281.121 207.28 283.761 206.32 286.401 205.36H286.481C287.201 205.12 288.081 204.4 287.681 203.52C287.281 202.64 285.841 202.64 285.121 202.88L278.641 205.28L263.201 210.88L244.401 217.76L228.241 223.68L222.881 225.6C222.081 225.92 221.121 226.16 220.321 226.56H220.241L222.481 228.56L229.121 223.68L244.961 212.08L264.241 198L280.801 185.92C283.521 183.92 286.321 182.08 288.881 180L288.961 179.92L288.161 180.4L309.361 174L343.121 163.76L350.881 161.44L348.961 159.2L342.561 163.52L327.201 174L308.641 186.64L292.561 197.6C289.921 199.36 287.361 201.12 284.721 202.96L284.641 203.04C283.921 203.52 283.441 204.32 284.161 205.04C284.961 205.6 286.081 205.68 286.961 205.12Z" fill="#68BA7F"/>
<path d="M266.641 113.44C266.641 113.44 276.641 127.36 277.681 127.52C278.721 127.68 296.561 118.72 296.561 118.72L286.961 107.04L266.641 113.44Z" fill="white"/>
<path d="M265.2 114.401C266.56 116.241 267.84 118.081 269.2 119.921C271.12 122.641 273.12 125.201 275.28 127.681C276.16 128.641 277.12 129.601 278.56 129.281C279.52 128.961 280.56 128.641 281.44 128.161C284.64 126.721 287.76 125.201 290.96 123.681C293.2 122.561 295.52 121.441 297.76 120.321C298.64 119.841 298.56 118.481 298 117.841L288.4 106.161C287.92 105.441 287.04 105.121 286.16 105.281L268.32 110.961L265.76 111.761C263.44 112.481 265.28 115.921 267.28 115.281L285.12 109.601L287.68 108.801L285.44 107.921L295.04 119.601L295.36 117.121C290.56 119.521 285.68 121.921 280.8 124.241C280.16 124.561 279.52 124.801 278.88 125.121L278.48 125.281L277.76 125.521L277.28 125.681C276.96 125.841 277.04 125.681 277.36 125.681C277.6 125.681 277.92 125.761 278.16 125.841C278.16 125.841 278.64 126.241 278.4 126.001C278.32 125.841 278.16 125.761 278 125.681C277.68 125.361 278.32 126.001 278.08 125.761C278 125.681 277.92 125.601 277.84 125.521L277.2 124.801C276.72 124.241 276.24 123.601 275.76 123.041C274.64 121.681 273.6 120.241 272.56 118.881C271.04 116.801 269.52 114.721 268 112.641C267.44 111.761 266.32 111.521 265.36 111.921C264.64 112.481 264.48 113.601 265.04 114.321C265.12 114.321 265.12 114.321 265.2 114.401Z" fill="#68BA7F"/>
<path d="M241.92 122.64C242.32 123.36 242.8 124 243.28 124.64C244.24 126 245.28 127.36 246.24 128.64C249.36 132.88 252.56 137.12 255.76 141.28C262.96 150.72 270.16 160.16 277.28 169.68C278.48 171.36 279.76 173.04 280.96 174.64C281.36 175.12 281.68 175.68 282.08 176.16L282.4 176.64C282.48 176.72 282.64 177.04 282.48 176.8C282.8 177.36 284 177.28 284.48 177.28C284.64 177.28 286.64 177.04 286.48 176.64C286.08 175.92 285.6 175.28 285.12 174.64C284.16 173.28 283.12 171.92 282.16 170.64C278.96 166.4 275.84 162.16 272.64 158C265.44 148.56 258.24 139.12 251.12 129.6C249.84 127.92 248.64 126.24 247.44 124.64C247.04 124.16 246.72 123.6 246.32 123.12L246 122.64C245.92 122.56 245.76 122.24 245.92 122.48C245.6 121.92 244.4 122 243.92 122.08C243.76 122 241.76 122.24 241.92 122.64Z" fill="white"/>
<path d="M293.92 167.2C295.12 166.96 297.36 166.56 297.68 165.12C297.92 164 296.64 163.6 295.76 163.68C295.44 163.68 292.32 164.48 292.56 164.96C293.12 165.84 293.92 166.48 294.96 166.88C296.48 167.28 298 167.12 299.44 166.48C300.56 166.16 301.6 165.44 302.32 164.48C302.8 163.68 302.88 162.72 302.56 161.84L298.8 163.04C299.6 163.6 300.56 163.84 301.52 163.76C303.04 163.68 304.48 163.28 305.76 162.48C307.36 161.68 308.16 159.76 307.6 158C307.36 157.36 303.6 158.64 303.76 159.12C304.16 160.16 303.92 161.36 303.28 162.24C303.2 162.32 302.88 162.72 302.72 162.72L302.96 162.64C303.36 162.48 303.76 162.32 304.16 162.32C304.24 162.4 304.08 162.32 304 162.32C303.44 162.24 302.88 162 302.4 161.68C301.92 161.36 298.48 162.48 298.64 162.88C298.88 163.44 298.96 164.08 298.8 164.64C298.56 165.2 298.24 165.68 297.76 166.08C297.76 166.08 299.44 165.52 299.52 165.52C299.36 165.52 299.2 165.52 299.12 165.52C298.72 165.44 298.4 165.36 298.08 165.12C297.44 164.8 296.88 164.24 296.48 163.68L293.28 164.96C293.04 164.96 293.52 165.04 293.6 165.12C293.76 165.28 293.84 165.44 293.92 165.6C294 165.76 294 166 293.92 166.24C293.76 166.72 293.28 166.64 294.4 166.24L295.92 165.84H295.76C294.88 165.92 293.92 166.24 293.2 166.72C292.48 167.36 293.76 167.28 293.92 167.2Z" fill="white"/>
<path d="M298.241 195.76C298.241 195.76 309.441 204.16 304.801 207.2C301.841 209.04 298.321 209.6 294.961 208.96C294.961 208.96 295.121 220.8 288.801 223.84C282.481 226.88 271.201 221.68 271.201 221.68C271.201 221.68 269.921 225.04 264.881 222.08C264.881 222.08 264.161 224.8 258.241 221.28C252.321 217.76 251.601 210.4 255.041 209.36C258.481 208.32 262.321 213.76 262.321 213.76C262.321 213.76 264.721 207.76 268.961 213.6C269.201 211.76 270.881 210.48 272.641 210.72C272.881 210.72 273.121 210.8 273.281 210.88C277.041 211.84 277.681 214.48 280.961 215.12C284.241 215.76 291.521 214.64 291.521 214.64" fill="white"/>
<path d="M296.72 196.961C298.64 198.401 300.48 200.081 302 201.921C302.48 202.481 302.96 203.121 303.28 203.761C303.44 204.081 303.6 204.401 303.76 204.721C303.92 204.961 304 205.281 304 205.521C304 205.681 304 205.761 304 205.921C304 205.921 304 205.841 303.92 206.081C303.84 206.321 304.08 205.921 303.92 206.161C303.76 206.401 304 206.161 303.92 206.081C303.84 206.001 303.76 206.161 304 206.001C302.96 206.641 301.84 207.121 300.64 207.441C298.96 207.841 297.28 207.841 295.68 207.441C294.4 207.281 293.2 208.161 292.96 209.521C292.96 210.641 292.88 211.841 292.72 212.961C292.48 215.361 291.84 217.601 290.72 219.761C290.24 220.721 289.52 221.601 288.64 222.241C288.64 222.241 288.32 222.401 288.56 222.321L288.16 222.481C287.92 222.561 287.76 222.721 287.52 222.721C286.88 222.961 286.24 223.041 285.6 223.121C282.8 223.281 280 222.961 277.28 222.001C275.52 221.521 273.84 220.881 272.16 220.161C271.04 219.841 269.84 220.321 269.28 221.361L269.2 221.441C269.04 221.761 269.28 221.601 269.28 221.441C269.28 221.521 268.88 221.921 269.12 221.601C269.36 221.281 269.12 221.601 269.04 221.681C268.8 221.921 269.36 221.521 269.12 221.601C268.88 221.681 269.52 221.521 269.12 221.601C268.96 221.601 268.96 221.601 269.12 221.601C268.88 221.681 268.64 221.681 268.4 221.601C267.44 221.441 266.56 221.041 265.76 220.561C264.64 219.921 263.04 221.121 262.72 222.161C262.72 222.241 262.96 221.681 262.8 221.921C262.88 221.841 262.96 221.681 263.04 221.601L263.36 221.441C263.68 221.281 263.52 221.361 263.44 221.441C263.2 221.521 263.52 221.361 263.6 221.441C263.52 221.361 263.2 221.441 263.44 221.441C263.2 221.441 262.96 221.441 262.72 221.361C260.16 220.721 257.92 219.281 256.32 217.201C255.2 215.681 254.32 213.601 254.56 211.681C254.56 211.441 254.64 211.201 254.72 211.041C254.8 210.801 254.72 211.121 254.8 210.881C254.88 210.801 254.88 210.721 254.96 210.641C254.72 210.881 254.96 210.721 254.96 210.641C255.04 210.561 255.12 210.561 254.96 210.641C254.8 210.721 255.04 210.561 254.8 210.721C254.88 210.641 254.96 210.561 254.8 210.721C254.8 210.721 254.96 210.721 255.12 210.721C255.6 210.801 256.08 210.961 256.48 211.201C257.52 211.761 258.4 212.481 259.12 213.361C259.44 213.681 259.68 214.001 260 214.321C259.84 214.081 260.08 214.481 260.16 214.561C260.96 215.681 263.12 215.041 263.6 213.841C263.68 213.601 263.76 213.441 263.92 213.201C264 213.121 264 213.041 264.08 212.881C263.92 213.041 264.24 212.561 264.08 212.881L264.32 212.561L264.48 212.401L264.4 212.481C264.56 212.321 264.8 212.321 264.4 212.401C264.72 212.321 264.16 212.321 264.48 212.401C264.08 212.321 264.64 212.481 264.48 212.401C265.44 212.801 266.24 213.521 266.8 214.401C267.76 215.601 270.16 214.721 270.4 213.281C270.4 213.121 270.48 213.041 270.48 212.881C270.48 212.801 270.64 212.401 270.48 212.801C270.56 212.641 270.64 212.481 270.72 212.321C270.8 212.161 270.8 212.161 270.72 212.321C270.8 212.241 270.88 212.161 270.88 212.081C270.72 212.081 270.8 212.241 270.88 212.081C270.8 212.241 270.72 212.081 271.04 212.081C271.2 212.081 271.36 212.081 271.52 212.081C274.24 212.481 275.76 214.961 278.16 216.001C280.56 217.041 283.36 216.721 285.84 216.561C287.44 216.401 289.12 216.241 290.72 216.001C291.76 215.921 292.56 215.281 292.88 214.321C293.04 213.441 292.24 212.881 291.36 213.041C290.16 213.201 288.88 213.361 287.68 213.521C285.68 213.841 283.6 213.841 281.52 213.601C279.52 213.201 278.16 211.521 276.48 210.481C274.32 209.201 271.6 208.561 269.28 209.921C267.84 210.721 266.88 212.161 266.56 213.761L270.16 212.641C268.4 210.321 265.92 208.561 262.96 210.161C261.6 210.961 260.56 212.081 260 213.521L263.52 212.721C262.24 210.881 260.56 209.361 258.56 208.321C255.84 206.961 252.24 207.921 251.04 210.801C249.92 213.361 250.8 216.481 252.24 218.721C254.24 221.761 257.44 223.841 260.96 224.481C262.96 224.801 265.52 224.001 266.16 221.841L263.12 223.441C265.2 224.641 267.68 225.281 270 224.161C271.04 223.681 271.92 222.881 272.4 221.841L269.52 223.041C274 225.121 279.44 226.641 284.4 226.161C287.68 226.001 290.72 224.401 292.72 221.761C294.4 219.361 295.52 216.561 295.92 213.681C296.24 211.921 296.4 210.081 296.4 208.241L293.68 210.321C295.52 210.721 297.44 210.721 299.36 210.401C301.12 210.161 302.8 209.521 304.32 208.721C305.44 208.161 306.32 207.281 306.96 206.241C308.56 202.721 304.32 198.961 302.08 196.881C301.2 196.081 300.24 195.281 299.28 194.561C298.4 193.521 295.12 195.841 296.72 196.961Z" fill="#000005"/>
<path d="M267.36 214.96C267.36 215.76 267.44 216.56 267.68 217.28C268.08 219.12 268.96 220.8 270.32 222.08C271.52 223.12 272.88 223.92 274.4 224.4C274.88 224.56 275.36 224.56 275.84 224.4C276.16 224.32 276.56 224 276.64 223.68C276.8 222.72 275.76 222.16 275.04 221.92C274.96 221.92 274.56 221.76 274.88 221.92C275.2 222.08 274.8 221.92 274.72 221.84C274.48 221.76 274.24 221.6 274 221.44C274 221.44 274.4 221.68 274.16 221.52L274.08 221.44L273.84 221.28L273.6 221.12C273.2 220.72 273.44 221.04 273.6 221.12C273.28 220.8 273.04 220.48 272.72 220.16L272.64 220.08C272.56 219.92 272.8 220.4 272.72 220.24L272.56 220C272.48 219.84 272.4 219.68 272.24 219.52C272.08 219.2 271.92 218.88 271.76 218.48C271.76 218.4 271.68 218.32 271.68 218.24C271.68 218.24 271.76 218.64 271.76 218.4V218.32C271.68 218.16 271.68 218 271.6 217.84C271.44 217.28 271.36 216.8 271.36 216.24C271.36 216 271.36 215.76 271.36 215.44C271.36 215.12 270.96 214.64 270.64 214.48C270.24 214.16 269.68 214 269.2 213.92C268.32 213.76 267.44 214 267.36 214.96Z" fill="#000005"/>
<path d="M260.24 213.44C260.24 214.32 260.24 215.2 260.32 216C260.48 217.68 261.04 219.28 261.92 220.64C262.56 221.52 263.44 222.24 264.48 222.72C265.36 223.12 266.32 223.28 267.28 223.12C267.44 223.12 267.92 223.04 267.92 222.8C267.92 222.56 267.52 222.4 267.44 222.32L267.2 222.16C266.96 222.08 267.36 222.24 267.12 222.08C266.96 222 266.8 221.84 266.64 221.68C266.48 221.6 266.4 221.52 266.32 221.36C266.16 221.2 266 221.04 265.92 220.88C265.44 220.24 265.12 219.52 264.8 218.72C264.4 217.44 264.16 216.08 264.16 214.72C264.16 214.4 264.16 214.16 264.16 213.84C264.16 213.52 263.76 213.44 263.68 213.36C263.28 213.2 262.8 213.04 262.32 212.96C261.84 212.88 261.36 212.88 260.88 212.88C260.64 213.12 260.24 213.2 260.24 213.44Z" fill="#000005"/>
<path d="M163.681 162.8C163.681 162.8 156.641 187.6 168.241 203.6C179.841 219.6 232.401 218 232.401 218L222.321 211.6C222.321 211.6 245.441 226.8 244.401 221.36C243.361 215.92 227.841 202.4 227.841 202.4C227.841 202.4 241.841 198.56 237.441 194.4C234.561 191.68 220.241 194 220.241 194C220.241 194 212.001 185.52 202.001 191.92L187.681 184.32C187.601 184.32 167.521 164.72 163.681 162.8Z" fill="white"/>
<path d="M161.761 162.72C160.081 168.96 159.361 175.44 159.601 181.92C159.681 187.44 160.801 192.88 162.881 198C164.561 201.92 166.881 205.6 170.401 208.16C176.881 212.88 185.121 214.96 192.881 216.4C201.281 217.92 209.681 218.8 218.161 219.04C222.721 219.2 227.281 219.36 231.761 219.2H232.481C233.201 219.2 235.281 218 234.001 217.12L223.921 210.72C223.121 210.16 222.001 210.16 221.121 210.56C220.561 210.88 219.761 211.76 220.641 212.32C222.881 213.76 225.041 215.2 227.361 216.48C230.961 218.8 234.801 220.8 238.801 222.56C240.321 223.28 242.001 223.68 243.681 223.68C245.201 223.52 246.721 222.56 246.321 220.88C245.841 218.96 244.561 217.28 243.441 215.76C241.761 213.68 240.001 211.68 238.081 209.76C235.281 206.88 232.401 204.08 229.441 201.52L228.481 203.44C230.241 202.96 231.921 202.32 233.601 201.68C235.841 200.72 238.881 199.44 240.001 197.12C241.201 194.64 238.561 192.8 236.401 192.24C233.281 191.44 229.921 191.68 226.721 191.92C224.481 192.08 222.241 192.32 220.001 192.72L221.761 193.12C220.001 191.44 217.921 190.16 215.681 189.28C210.721 187.44 205.201 188 200.801 190.88L203.201 190.8L195.361 186.64L190.401 184C189.921 183.76 189.521 183.52 189.041 183.28C188.561 183.04 189.361 183.6 189.121 183.28C188.481 182.64 187.841 182 187.201 181.36L183.441 177.76C180.161 174.64 176.881 171.52 173.521 168.48C171.921 167.04 170.241 165.52 168.561 164.16C167.441 163.2 166.321 162.32 165.041 161.6C164.081 161.2 163.041 161.28 162.241 161.92C161.761 162.24 161.681 162.8 161.921 163.28C162.001 163.44 162.241 163.6 162.401 163.68C162.641 163.76 162.881 163.92 162.561 163.76C162.801 163.92 163.041 164.08 163.281 164.24C163.841 164.64 164.321 165.04 164.881 165.44C166.321 166.56 167.681 167.84 169.041 169.04C172.321 172 175.521 174.96 178.721 178C180.961 180.16 183.201 182.24 185.441 184.4C186.721 185.68 188.481 186.32 190.081 187.12L199.761 192.24C200.081 192.4 200.401 192.56 200.641 192.72C202.401 193.52 203.921 192 205.521 191.36C207.761 190.4 210.321 190.32 212.641 191.04C214.401 191.6 216.001 192.4 217.441 193.52C218.481 194.32 219.041 195.12 220.481 194.96C221.681 194.8 222.961 194.64 224.161 194.48C226.241 194.24 228.321 194.08 230.401 194.08C231.441 194.08 232.481 194.08 233.521 194.24H233.761C233.601 194.24 233.841 194.24 233.841 194.24L234.481 194.4L235.121 194.56C234.801 194.48 235.201 194.64 235.361 194.64C236.081 194.88 236.481 195.68 236.161 196.4C236.081 196.56 236.001 196.72 235.921 196.8C235.841 196.88 235.841 196.96 235.761 196.96C235.601 197.12 235.921 196.8 235.761 196.96C235.601 197.12 235.521 197.2 235.361 197.28C235.201 197.36 235.041 197.52 234.881 197.68C234.721 197.84 234.321 198 234.561 197.92C233.761 198.4 232.881 198.88 232.001 199.2C231.601 199.36 231.201 199.52 230.801 199.68C230.481 199.76 231.041 199.6 230.801 199.68L230.481 199.76L229.761 200C229.121 200.24 228.561 200.4 227.921 200.64L227.201 200.88C226.401 201.12 225.281 202 226.241 202.8C228.481 204.72 230.641 206.8 232.721 208.88C236.001 212.08 239.521 215.44 241.761 219.44C242.081 220 242.401 220.64 242.481 221.28C242.481 221.36 242.481 221.44 242.481 221.6C242.481 221.76 242.561 221.28 242.481 221.6C242.641 221.28 242.961 221.04 243.281 220.96C242.881 221.04 243.841 220.88 243.441 220.96C244.001 220.88 243.761 221.04 243.601 220.96C243.601 220.96 243.041 220.88 243.441 220.96C243.841 221.04 243.281 220.96 243.201 220.88C242.881 220.8 242.641 220.72 242.321 220.64C242.001 220.56 242.561 220.72 242.081 220.56L241.521 220.32C237.841 218.72 234.321 216.88 230.881 214.72C230.001 214.16 229.041 213.6 228.081 213.04L226.881 212.32L226.321 211.92L226.081 211.76L223.921 210.4L220.641 212L230.721 218.4L232.241 216.32C233.361 216.32 232.241 216.32 231.921 216.32H229.601C226.961 216.32 224.241 216.32 221.601 216.24C213.761 216.08 205.921 215.36 198.161 214.24C190.321 213.04 182.401 211.36 175.601 207.36C174.321 206.56 173.041 205.68 171.921 204.64C170.561 203.36 169.361 201.84 168.481 200.16C165.841 195.36 164.241 190.08 163.841 184.64C163.201 177.36 163.841 170 165.601 162.96C165.601 162.8 165.681 162.72 165.681 162.56C166.161 161.12 162.241 161.12 161.761 162.72Z" fill="#000005"/>
<path d="M197.281 160.241L212.401 146.961L235.921 126.321L239.281 123.361C239.681 122.961 240.081 122.561 240.561 122.241C240.161 122.481 240.641 122.241 240.801 122.241C241.121 122.161 241.521 122.081 241.841 121.921L245.841 120.881L275.521 112.961L290.081 109.121C292.721 108.401 295.361 107.841 298.001 107.041L298.401 106.961C299.121 106.801 297.921 105.601 297.761 105.441C297.281 104.961 296.241 104.241 295.441 104.401L276.321 109.521L245.441 117.681C242.881 118.401 240.241 118.961 237.761 119.761C237.441 119.841 237.201 120.001 236.961 120.241L234.561 122.321L212.241 141.841L200.641 152.081C198.561 153.921 196.241 155.681 194.321 157.681C194.241 157.761 194.161 157.841 194.001 157.921C193.441 158.481 196.401 161.041 197.281 160.241Z" fill="#000005"/>
<path d="M27.1191 138.88L36.3191 111.28L78.8791 123.36L69.1991 152.88L27.1191 138.88Z" fill="white"/>
<path d="M28.9596 138.4L37.0396 114.24L38.1596 110.8L34.4796 112.08L48.8796 116.16L71.8396 122.64L77.1196 124.16L77.0396 123.84L68.5596 149.76L67.3596 153.36L71.0396 152.08L56.7996 147.36L34.1596 139.84L28.9596 138.08C28.0796 137.92 27.2796 138.08 26.4796 138.48C26.3196 138.56 24.7996 139.36 25.3596 139.6L39.5996 144.32L62.2396 151.84L67.4396 153.6C68.0796 153.76 68.7996 153.68 69.3596 153.36C69.8396 153.2 70.8796 152.88 71.0396 152.32L79.5196 126.48L80.7196 122.88C80.7996 122.8 80.7196 122.64 80.6396 122.64C80.6396 122.64 80.6396 122.64 80.5596 122.64L66.1596 118.56L43.3596 112L38.0796 110.48C37.4396 110.4 36.7196 110.48 36.0796 110.72C35.5996 110.88 34.5596 111.2 34.3996 111.76L26.3996 135.92L25.2796 139.36C25.0396 140 26.6396 139.6 26.7996 139.6C27.3596 139.44 28.7996 139.04 28.9596 138.4Z" fill="#68BA7F"/>
<path d="M35.9996 114.08L48.3996 130C49.2796 131.2 50.1596 132.72 51.4396 133.52C52.7196 134.4 54.2396 133.76 55.5196 133.36C58.4796 132.4 61.2796 131.2 64.0796 129.84L74.4796 124.88C75.6796 124.32 73.9196 120.72 72.7196 121.28L61.8396 126.4C60.1596 127.2 58.4796 128 56.7196 128.72C55.8396 129.04 54.9596 129.36 54.0796 129.68C53.1996 130.08 52.3196 130.24 51.4396 130.32C51.0396 130.32 51.0396 130.32 50.7996 130C50.5596 129.68 50.3196 129.36 50.0796 129.04L48.0796 126.56L44.3996 121.84L37.0396 112.4C36.7196 112 35.9196 111.04 35.3596 111.68C34.7996 112.32 35.5996 113.6 35.9996 114.08Z" fill="#68BA7F"/>
<path d="M36.2396 138L46.3996 130.08C47.0396 129.44 47.1196 128.32 46.5596 127.6C46.1596 127.04 45.0396 126.08 44.3196 126.64L34.2396 134.56C33.5996 135.2 33.5196 136.32 34.0796 137.04C34.3996 137.68 35.5196 138.64 36.2396 138Z" fill="#68BA7F"/>
<path d="M59.1993 131.36C59.6793 135.6 60.7993 139.76 62.3193 143.76C62.7193 144.72 63.5193 145.36 64.5593 145.44C65.2793 145.52 66.3993 144.96 65.9993 144.08C64.3993 140.08 63.3593 135.92 62.8793 131.68C62.7993 130.72 61.4393 130.08 60.6393 130C59.8393 129.92 59.0393 130.4 59.1993 131.36Z" fill="#68BA7F"/>
<path d="M86.6398 118.401C87.6798 116.801 89.2798 115.601 91.1198 115.041C91.2798 114.961 90.7998 114.401 90.8798 114.481C90.5598 114.081 90.2398 113.761 89.8398 113.521C89.5198 113.201 89.1198 112.961 88.7198 112.721C88.5598 112.561 88.3198 112.481 88.0798 112.561C86.2398 113.121 84.6398 114.321 83.5998 115.921C83.5198 116.081 83.8398 116.401 83.8398 116.481C84.1598 116.881 84.4798 117.201 84.8798 117.441C85.1998 117.761 85.5998 118.001 85.9998 118.241C86.1598 118.241 86.5598 118.561 86.6398 118.401Z" fill="#68BA7F"/>
<path d="M88.2392 123.68H93.2792C93.7592 123.76 94.2392 123.6 94.6392 123.36C94.9592 123.12 95.1192 122.8 95.1192 122.4C94.7992 121.44 93.9192 120.88 92.9592 120.88H87.9192C87.4392 120.8 87.0392 120.96 86.6392 121.2C86.3192 121.44 86.1592 121.76 86.1592 122.16C86.3992 123.04 87.1992 123.68 88.2392 123.68Z" fill="#68BA7F"/>
<path d="M49.5995 162.64C44.9595 177.12 42.4795 192.24 42.3195 207.44C42.0795 220.24 42.7995 233.36 46.8795 245.6C50.4795 256.64 57.3595 267.28 68.1595 272.32C79.9195 277.84 94.3995 275.76 103.759 266.72C108.079 262.56 111.199 257.28 112.719 251.52C114.159 245.84 114.079 239.36 110.239 234.56C109.279 233.44 108.159 232.48 106.879 231.76C106.719 231.68 106.559 231.68 106.399 231.76C101.199 237.12 99.4395 244.88 100.639 252.16C101.919 260.08 106.559 267.28 112.319 272.64C123.439 282.96 140.959 288.48 154.879 280.24C161.599 276.24 166.559 269.6 167.679 261.76C167.759 260.96 167.039 259.84 166.479 259.28C166.079 258.88 165.359 258.4 165.199 259.2C164.319 265.6 160.399 271.28 155.279 275.12C149.759 279.2 142.879 281.12 135.999 280.64C128.559 280.08 121.439 277.36 115.519 272.8C110.079 268.72 105.519 263.28 103.679 256.64C101.599 249.28 103.199 240.72 108.559 235.12H108.079C109.999 236.24 110.639 238.16 110.959 240.32C111.279 242.96 111.119 245.6 110.399 248.16C109.039 253.6 106.319 258.64 102.399 262.72C93.7595 271.52 80.7995 274.4 69.2795 270.08C64.3195 268.16 59.9195 265.04 56.5595 260.88C53.4395 256.96 51.0395 252.48 49.5195 247.68C45.5995 236.56 44.8795 224.56 44.8795 212.88C44.7995 198.64 46.6395 184.48 50.4795 170.8C50.9595 169.12 51.5195 167.44 51.9995 165.76C52.2395 164.96 51.5995 164 51.1195 163.36C50.9595 163.04 49.8395 161.84 49.5995 162.64Z" fill="#68BA7F"/>
</svg>
