<svg width="200" height="200" viewBox="0 0 200 200" fill="none" xmlns="http://www.w3.org/2000/svg">
<path d="M160.08 135.04L159.28 104.6C159.28 104.6 126.32 77.28 100.52 80C96.32 80.44 89.96 85.24 87.2 89.04L57.2 103.92L47 152.28L76.12 134.68C75.52 144.48 75.4 154.32 75.8 164.16L148.64 163.36L135.32 132.92L160.08 135.04Z" fill="#000005"/>
<path d="M161.082 135.08L160.962 129.88L160.642 118.68L160.362 108.16L160.282 105.2C160.282 104.72 160.282 104.32 159.882 104C158.562 102.84 157.082 101.8 155.682 100.76C152.642 98.52 149.522 96.4 146.322 94.36C142.202 91.72 137.922 89.32 133.522 87.16C128.762 84.8 123.842 82.84 118.762 81.32C113.842 79.88 108.682 78.96 103.522 79.04C102.282 79.04 101.042 79.12 99.8017 79.32C98.5217 79.56 97.3217 80 96.1617 80.56C93.4817 81.88 91.0417 83.64 88.9217 85.72C87.9617 86.64 87.0817 87.6 86.2817 88.68L86.6417 88.4L82.2017 90.6L72.4017 95.44L62.1617 100.52C60.3617 101.4 58.5617 102.28 56.7617 103.2C56.3617 103.36 56.1217 103.72 56.1217 104.16L55.6817 106.24L54.0017 114.32L51.6417 125.52L49.1617 137.16L47.1217 146.8L46.0817 151.8L46.0417 152.04C45.8417 153 47.0417 153.24 47.6817 152.84L57.6017 146.84L73.2417 137.4L76.8017 135.24L75.1217 134.64C74.5617 143.84 74.4017 153.08 74.7217 162.28C74.7617 162.88 74.7617 163.52 74.8017 164.12C74.8817 164.6 75.2817 164.96 75.8017 164.96L83.0417 164.88L100.482 164.68L121.522 164.44L139.682 164.24C142.642 164.2 145.602 164.24 148.522 164.16H148.642C149.082 164.16 149.882 163.76 149.642 163.16L145.122 152.8L137.962 136.4L136.322 132.64L135.322 133.64L143.722 134.36L157.002 135.6L160.042 135.88C160.562 135.92 161.042 135.56 161.082 135.08C161.122 134.56 160.562 134.32 160.122 134.28L151.722 133.56L138.442 132.4L135.402 132.12C134.922 132.08 134.162 132.52 134.402 133.12L138.882 143.4L146.042 159.8L147.682 163.56L148.682 162.56L141.402 162.64L124.002 162.8L103.002 163.04L84.8417 163.24L78.8417 163.32C77.9217 163.32 76.9217 163.28 76.0017 163.36C75.9617 163.36 75.9217 163.36 75.8817 163.36L76.8417 164.16C76.5217 157.72 76.5217 151.24 76.7217 144.8C76.8017 141.44 76.9617 138.04 77.1617 134.68C77.2017 133.8 76.0017 133.76 75.4817 134.08L65.5617 140.08L49.9217 149.52L46.3217 151.68L47.9617 152.48L48.9617 147.68L51.4017 136.12L54.3617 122.16L56.9217 110.08L57.7617 106.08C57.9217 105.44 58.0817 104.84 58.1617 104.16C58.1617 104.12 58.1617 104.12 58.1617 104.08L57.6817 104.56L62.2017 102.32L72.1617 97.36L82.4417 92.32C84.2017 91.44 85.9617 90.64 87.6817 89.72C87.8817 89.6 88.0817 89.44 88.2017 89.24C88.6017 88.72 89.0017 88.2 89.4417 87.72C90.4417 86.64 91.5617 85.64 92.7217 84.72C94.8417 83.08 97.3217 81.4 100.002 80.8C101.162 80.6 102.362 80.48 103.562 80.52C104.842 80.48 106.082 80.52 107.362 80.64C109.922 80.84 112.482 81.28 115.002 81.88C120.202 83.16 125.282 84.96 130.122 87.24C134.762 89.4 139.282 91.84 143.642 94.56C147.002 96.64 150.322 98.84 153.522 101.2C155.162 102.4 156.802 103.64 158.402 104.92L158.602 105.08L158.322 104.52L158.602 114.84L159.042 131.16L159.162 134.96C159.122 136.08 161.122 136.12 161.082 135.08Z" fill="#000005"/>
<path d="M72.2813 79.0001C75.9213 71.9601 81.9613 71.8401 79.1213 67.0001C76.2813 62.1601 67.2413 66.6401 66.4813 69.4401C66.4813 69.4401 66.9213 47.1601 61.0013 45.5601C56.3213 44.2801 59.3213 64.3201 59.0013 63.4001C58.6813 62.4801 54.6013 41.9601 49.9213 42.7601C45.2413 43.5601 49.8013 54.6801 50.2813 63.5601C50.2813 63.5601 44.0013 47.0801 41.6813 53.3601C40.4413 56.7201 44.0813 68.2401 43.7613 71.8401C43.4413 75.4401 44.3613 84.1601 49.6413 87.2801C49.6413 87.2801 6.56131 154.52 35.0813 155.48C35.0813 155.48 54.4413 159.08 60.6413 123.64C66.8413 88.2001 66.1213 88.0001 66.1213 88.0001C66.1213 88.0001 70.0813 83.2401 72.2813 79.0001Z" fill="white"/>
<path d="M73.2401 78.8C74.5201 76.36 76.3201 74.48 78.3601 72.64C79.5201 71.6 81.0401 70.32 80.8401 68.6C80.5601 66.6 79.0801 65 77.1201 64.6C74.8401 64.12 72.2801 64.84 70.2001 65.76C69.1201 66.24 68.0801 66.84 67.1601 67.6C66.5201 68.12 65.8001 68.8 65.5601 69.64L67.4801 69.2C67.5201 66.84 67.4401 64.52 67.3201 62.16C67.0801 58.08 66.7201 53.8 65.4401 49.88C64.9601 48.44 64.3201 46.92 63.2001 45.92C62.0401 44.92 60.3201 44.88 59.1201 45.8C58.1201 46.52 57.8801 47.96 57.7201 49.08C57.4801 50.92 57.4001 52.76 57.4801 54.64C57.5601 57.6 57.8001 60.52 58.1201 63.48C58.1201 63.6 58.0801 63.64 58.1201 63.6L59.2401 63.08H59.9601C60.0401 63.12 60.0001 63.12 59.9601 63.04C59.9601 62.92 59.9201 62.84 59.8801 62.72C59.8001 62.36 59.7201 62 59.6401 61.64C59.3601 60.44 59.0801 59.2 58.7601 58C57.9601 54.76 57.0001 51.6 55.8001 48.52C55.2801 47.16 54.6401 45.84 53.8401 44.56C53.3201 43.76 52.6401 42.88 51.7601 42.52C50.5201 42.04 48.7201 42.56 47.8401 43.48C46.8001 44.52 46.8401 46.28 46.9201 47.6C47.0801 50.16 47.6401 52.68 48.1201 55.16C48.7201 58 49.1201 60.88 49.3601 63.8L51.2801 63.28C50.2001 60.36 48.8801 57.56 47.3201 54.88C46.8801 54.12 46.3201 53.36 45.7601 52.68C45.3601 52.16 44.8001 51.76 44.1601 51.56C43.2001 51.4 42.2401 51.68 41.4801 52.32C40.9601 52.88 40.6401 53.6 40.5601 54.36C40.4401 55.48 40.4801 56.56 40.6401 57.68C40.8001 59.12 41.0401 60.56 41.3201 61.96C41.8401 64.68 42.4801 67.4 42.8001 70.2C42.8801 71.12 42.8801 72 42.8001 72.92C42.7601 74.16 42.8401 75.36 43.0001 76.6C43.4001 79.48 44.2001 82.44 45.9201 84.84C46.3201 85.4 46.8001 85.96 47.2801 86.44C47.5601 86.68 47.8001 86.92 48.1201 87.12C48.2001 87.16 48.8001 87.56 48.7601 87.44C48.7601 87.48 48.6401 87.64 48.6401 87.64C48.3201 88.12 48.0401 88.6 47.7201 89.08C46.4401 91.16 45.1601 93.28 43.9201 95.44C42.0401 98.64 40.2401 101.88 38.5201 105.16C36.4801 109 34.5201 112.92 32.6801 116.88C30.8401 120.84 29.2001 124.96 27.7601 129.12C26.4401 132.8 25.4401 136.6 24.8401 140.48C24.4001 143.44 24.2401 146.64 25.1601 149.52C25.8801 151.96 27.6401 153.92 29.9601 154.92C30.6401 155.2 31.3601 155.4 32.0801 155.52C32.4801 155.6 32.8401 155.64 33.2401 155.68C33.4401 155.68 33.6401 155.72 33.8001 155.72L34.2001 155.76C34.2801 155.76 34.6401 155.8 34.4401 155.76C34.7601 155.8 35.0801 155.84 35.3601 155.84C37.3201 155.92 39.2401 155.68 41.1201 155.12C44.2401 154.2 47.0801 152.6 49.4801 150.44C53.0001 147.24 55.5201 143.08 57.4001 138.72C60.4401 131.6 61.6401 124 62.9201 116.48C63.9601 110.36 65.0001 104.24 65.9201 98.12C66.3601 95.4 66.7601 92.64 67.0801 89.88C67.1201 89.36 67.2001 88.84 67.2401 88.32C67.2801 88.12 67.2801 87.92 67.2401 87.76C67.2001 87.64 67.2001 87.64 67.0401 87.6L67.2001 87.76C69.4401 85 71.5201 82 73.2401 78.8C73.4001 78.52 72.5601 78.64 72.4801 78.64C72.1601 78.68 71.5201 78.84 71.3601 79.16C69.6401 82.36 67.5601 85.32 65.2001 88.08C65.1201 88.2 65.3201 88.24 65.3601 88.24C65.2001 88.2 65.2401 88.12 65.2001 88.2C65.2001 88.32 65.2001 88.4 65.2001 88.52C65.2001 89.32 65.0801 90.12 65.0001 90.92C64.7601 93.08 64.4401 95.2 64.1201 97.32C63.4801 101.44 62.8401 105.56 62.1601 109.68C61.6401 112.68 61.1601 115.72 60.6401 118.72C60.0801 122.12 59.5201 125.48 58.7201 128.84C57.5601 133.72 55.9601 138.56 53.5601 142.96C51.9601 146 49.8001 148.72 47.2401 151C46.2801 151.84 45.2401 152.56 44.1201 153.2L43.7601 153.4L43.5601 153.48L43.4801 153.52C43.2401 153.64 43.0001 153.76 42.7201 153.88L42.3601 154.04L42.2001 154.12C42.2001 154.12 42.3201 154.08 42.1601 154.12C41.9201 154.2 41.6801 154.32 41.4401 154.4L41.1201 154.52C41.4001 154.44 41.0801 154.52 40.9601 154.56L40.3201 154.72C40.0001 154.8 40.4401 154.68 40.2401 154.76L39.9201 154.84L39.2801 154.96C39.0401 155 39.4401 154.96 39.2001 154.96L38.9201 155C38.7601 155 38.5601 155.04 38.4001 155.04H38.1601C37.9201 155.04 38.2401 155.04 38.0801 155.04H37.6401C37.4001 155.04 37.1201 155.04 36.8801 155.04H36.5601C36.4001 155.04 36.7201 155.04 36.5601 155.04H36.4401C36.2001 155 35.9601 155 35.7201 154.96C33.6001 154.84 31.4001 154.32 29.6801 152.92C28.2001 151.64 27.2001 149.88 26.8001 147.96C26.3201 145.6 26.2401 143.2 26.6001 140.84C27.0001 137.92 27.6401 135.04 28.5201 132.24C29.4801 129.04 30.6401 125.88 31.9201 122.76C33.2401 119.52 34.6801 116.36 36.2001 113.2C37.6801 110.16 39.2001 107.16 40.8001 104.16C42.2001 101.56 43.6401 98.96 45.1201 96.4C46.2401 94.44 47.4001 92.52 48.5601 90.6C49.2001 89.52 49.8801 88.44 50.5601 87.36C50.6401 87.2 50.7201 87.08 50.8401 86.96C50.8801 86.92 50.8801 86.88 50.8401 86.84C50.8401 86.84 50.8401 86.84 50.8001 86.84C46.8001 84.44 45.4001 79.24 45.0001 74.88C44.9201 73.96 44.8801 73.04 44.9201 72.12C44.9601 71.44 44.9601 70.76 44.9201 70.08C44.6801 68 44.3601 65.96 43.8801 63.92C43.4401 61.68 42.9601 59.4 42.7201 57.12C42.5601 55.6 42.3201 53.84 43.0801 52.44C43.2001 52.24 43.3201 52.08 43.4801 51.92C43.4001 51.92 43.5201 51.84 43.4801 51.92C43.2801 51.96 43.0801 52.08 42.8401 52.16C42.7601 52.16 42.5201 52.24 42.6001 52.2C42.5201 52.24 42.5201 52.16 42.6401 52.2C43.0401 52.36 43.4401 52.6 43.7201 52.92C44.7601 53.92 45.5201 55.28 46.2001 56.56C46.9601 57.96 47.6401 59.4 48.2801 60.88C48.6801 61.76 48.9601 62.72 49.4001 63.6C49.4001 63.64 49.4401 63.68 49.4401 63.72C49.6001 64.12 51.4001 63.6 51.3601 63.2C51.1601 60.32 50.7601 57.48 50.1601 54.64C49.6801 52.16 49.1601 49.68 48.9601 47.16C48.8801 46.24 48.9201 45.28 49.0801 44.4C49.1601 44.08 49.2801 43.76 49.4801 43.48C49.6401 43.28 49.8001 43.08 50.0001 42.92C49.9201 43 50.1201 42.92 49.9601 42.96C49.8801 42.96 49.7601 43 49.6801 43.04C49.5601 43 49.8001 43 49.6801 43.04C49.6801 43.04 49.8801 43.08 49.7201 43.04C49.9201 43.08 50.1201 43.12 50.2801 43.24C50.7601 43.52 51.1601 43.88 51.4801 44.28C52.4001 45.48 53.1201 46.8 53.6401 48.2C54.3601 49.92 54.9601 51.64 55.4801 53.4C56.4001 56.4 57.1601 59.4 57.8801 62.44C57.9601 62.76 58.0001 63.12 58.1201 63.44C58.3201 64.04 59.2801 63.64 59.6801 63.44C60.0801 63.24 60.1201 63.12 60.0801 62.72C60.0401 62.32 60.0001 61.92 59.9601 61.56C59.6801 58.6 59.4001 55.6 59.4001 52.6C59.3601 51.04 59.4801 49.52 59.7601 48C59.8401 47.44 60.0001 46.92 60.2401 46.4C60.3201 46.2 60.4401 46 60.6001 45.84C60.6401 45.8 60.6801 45.72 60.7601 45.68C60.9201 45.52 60.7601 45.68 60.7601 45.64C60.6001 45.72 60.4401 45.76 60.2801 45.8C60.1201 45.84 60.1601 45.76 60.0401 45.84C60.0801 45.8 60.2001 45.88 60.0801 45.84C60.1201 45.84 60.1601 45.84 60.2401 45.88C60.4801 45.92 60.6801 46.04 60.8801 46.16C61.3201 46.44 61.7201 46.8 62.0401 47.24C62.8801 48.44 63.4801 49.76 63.8001 51.16C64.8001 54.6 65.1601 58.24 65.4001 61.8C65.5601 64.32 65.6401 66.84 65.6401 69.36C65.6401 69.48 65.6401 69.6 65.6401 69.76C65.6401 70.04 67.4401 69.68 67.5601 69.32C67.9601 67.92 69.6001 66.92 70.8401 66.28C72.3601 65.52 74.0401 65 75.7601 65.44C77.5601 65.92 78.8401 67.48 79.0001 69.36C79.1201 70.92 77.7601 72 76.7201 72.96C74.6401 74.84 72.7601 76.76 71.4401 79.28C71.2801 79.56 72.1201 79.44 72.2001 79.44C72.4001 79.24 73.0801 79.12 73.2401 78.8Z" fill="#000005"/>
<path d="M55.3997 77.4004C55.1997 75.7604 56.4797 74.3204 57.7197 73.2404C59.2397 71.8804 60.9597 70.6004 62.9997 70.4004" fill="white"/>
<path d="M56.3606 77.4801C56.2006 75.7201 57.7206 74.3201 58.8806 73.2801C60.1206 72.2001 61.6406 71.0401 63.3606 70.8401C63.6406 70.8001 64.1206 70.6801 63.8406 70.3601C63.4806 70.0401 63.0006 69.8801 62.5206 69.9201C60.4406 70.1601 58.6806 71.2401 57.1206 72.6001C55.7206 73.8001 54.2006 75.3201 54.4006 77.3201C54.4006 77.4801 54.7206 77.6001 54.8006 77.6801C55.0406 77.8001 55.2806 77.8401 55.5606 77.8801C55.8806 77.8801 56.4006 77.8801 56.3606 77.4801Z" fill="#000005"/>
<path d="M74.6786 72.2398C74.6786 72.2398 62.5586 53.1198 78.2786 41.2398C93.9986 29.3598 120.079 37.7198 126.679 60.5598C133.279 83.3998 105.759 92.7598 105.759 92.7598L74.6786 72.2398Z" fill="white"/>
<path d="M75.5196 72.6001C74.2796 70.5601 73.2796 68.3601 72.5596 66.0801C71.0396 61.4801 70.4796 56.4401 71.9196 51.7601C73.6396 46.0801 78.1596 41.7601 83.3596 39.2001C87.9596 37.0001 93.1196 36.0801 98.1996 36.5601C103.32 37.0401 108.28 38.7601 112.56 41.6001C117.12 44.6801 120.84 48.9201 123.32 53.8401C125.88 58.8001 127.44 64.6001 126.56 70.1601C125.84 74.6401 123.64 78.6801 120.6 82.0001C117.92 84.8401 114.84 87.2801 111.4 89.1601C109.44 90.2801 107.4 91.2801 105.28 92.0801L104.96 92.2001L105.88 92.5601L102.8 90.5201L95.3996 85.6001L86.4396 79.6801L78.6396 74.5201C77.3996 73.6801 76.1596 72.8401 74.8796 72.0401L74.8396 72.0001C74.7196 71.9201 73.9996 71.4801 73.8396 71.6801C73.6796 71.8801 74.4396 72.3601 74.5596 72.4401L83.3196 78.2401L98.9596 88.5601L104.32 92.1201C104.88 92.4801 106 93.4801 106.72 93.2801C107.88 92.8801 109 92.4001 110.12 91.8401C112.24 90.8401 114.28 89.6401 116.2 88.3201C121.16 84.9201 125.56 80.3201 127.48 74.5601C130 67.0001 127.68 58.7601 123.64 52.2001C119.32 45.3201 112.84 40.0801 105.2 37.3201C98.3196 34.8401 90.5596 34.5601 83.7196 37.2401C79.9196 38.6801 76.5596 41.0401 73.8796 44.0801C71.2796 47.1201 69.7596 50.8801 69.4396 54.8401C68.9596 60.4401 70.6796 66.2001 73.3596 71.0801C73.5196 71.4001 73.6796 71.6801 73.8796 71.9601C74.1596 72.3201 74.5596 72.6001 74.9996 72.7601C75.1596 72.7601 75.7196 72.9601 75.5196 72.6001Z" fill="#000005"/>
<path d="M79.6006 90.96C71.2406 84.44 70.6406 54.36 70.6406 54.36C73.6006 45.96 99.0406 44.96 99.0406 44.96C97.3206 53.12 101.201 64.96 101.201 64.96C102.561 57.68 110.921 58.8 112.001 65.32C113.081 71.84 105.921 75.52 105.921 75.52C105.921 75.52 111.161 88.76 111.161 91.48C111.161 94.2 99.9206 100.64 91.9206 94.8C91.9206 94.8 86.8806 96.68 79.6006 90.96Z" fill="white"/>
<path d="M79.1583 90.1201C78.7983 89.8401 78.4383 89.4801 78.1183 89.1201C77.9583 88.9601 77.7983 88.7601 77.6783 88.6001C77.5583 88.4401 77.3183 88.1201 77.2383 88.0001C77.0383 87.7201 77.0783 87.7601 76.8783 87.4401C76.7183 87.2001 76.9583 87.6401 76.8383 87.3601L76.7583 87.2001C76.7583 87.1601 76.5983 86.9201 76.7183 87.1201L76.5983 86.8801C76.4783 86.6401 76.4383 86.5201 76.2783 86.2001C76.1183 85.8801 76.0383 85.6801 75.9183 85.3601C74.8783 82.6801 74.0783 79.9201 73.5183 77.0801C72.3983 71.5601 71.7183 66.0001 71.3983 60.4001C71.2783 58.8401 71.1983 57.3201 71.1583 55.7601C71.1183 55.4801 71.1583 55.2001 71.2383 54.9601C71.6383 54.0401 72.2383 53.2401 72.9583 52.6001C74.7583 50.9601 77.1183 49.9601 79.4383 49.1601C82.1183 48.2801 84.8783 47.6001 87.6783 47.1201C91.5183 46.4401 95.3983 46.0001 99.3183 45.8001H99.5183L98.5583 44.0801C97.8383 47.4801 98.0783 51.0401 98.5583 54.4801C98.9583 57.2401 99.5183 59.9601 100.278 62.6401C100.438 63.1601 100.598 63.6801 100.758 64.2001C100.918 64.6001 101.078 64.9601 101.318 65.3201C101.358 65.4001 101.678 65.8801 101.718 65.7601C102.118 63.7601 103.198 61.8401 105.158 61.0801C106.838 60.5201 108.678 60.8401 110.038 61.9201C110.398 62.2001 110.718 62.5201 110.998 62.8801L111.118 63.0401C111.078 63.0001 111.158 63.1601 111.118 63.0001V63.0401C111.158 63.1601 111.198 63.2801 111.238 63.4001C111.598 64.5601 111.678 65.8001 111.478 67.0001C111.118 69.1201 109.878 70.9601 108.358 72.4001C107.478 73.2401 106.478 74.0001 105.398 74.5601C105.358 74.6001 105.478 74.8801 105.478 74.8401C106.358 77.0801 107.238 79.3601 108.038 81.6401C108.678 83.4001 109.278 85.1601 109.838 86.9601C110.078 87.6801 110.278 88.4001 110.438 89.1601C110.558 89.6001 110.638 90.0801 110.638 90.5601C110.598 91.7201 109.198 92.7201 108.318 93.2801C106.638 94.4001 104.798 95.2001 102.798 95.6801C100.518 96.2801 98.1583 96.3201 95.8383 95.8401C94.5983 95.5601 93.3983 95.0801 92.2783 94.4001C92.0383 94.2401 91.5983 93.8401 91.3183 93.8001C91.2383 93.8001 91.1583 93.8401 91.0783 93.8801C87.6783 94.7601 83.8783 93.1601 81.0383 91.4001C80.4783 91.0801 79.7983 90.6001 79.1583 90.1201C79.0383 90.0401 79.3583 90.7601 79.3583 90.8001C79.5183 91.2001 79.7183 91.5201 80.0383 91.8401C83.1983 94.2801 87.4783 96.5601 91.6383 95.8801C91.8783 95.8001 92.1183 95.7201 92.3983 95.7201C92.4783 95.7201 92.5583 95.8001 92.6383 95.8801C92.9183 96.0801 93.1983 96.2801 93.5183 96.4401C94.0783 96.7601 94.6783 97.0401 95.2783 97.2801C97.5583 98.0801 99.9983 98.3201 102.358 97.9201C104.518 97.6001 106.558 96.8801 108.438 95.8001C109.598 95.1601 111.038 94.2401 111.558 92.9601C111.718 92.5601 111.718 92.1201 111.638 91.7201C111.518 91.0801 111.398 90.4401 111.198 89.8001C110.718 88.0401 110.118 86.3201 109.518 84.6401C108.558 81.8801 107.558 79.0401 106.438 76.3601L106.398 76.2001L106.478 76.4801C109.398 74.9601 112.078 72.0801 112.598 68.7601C112.998 66.0801 111.958 63.2801 110.198 61.2401C108.998 59.7201 107.078 58.9601 105.198 59.2001C102.678 59.6001 101.238 61.8401 100.798 64.2001L101.758 65.7601C101.278 64.3201 100.918 62.8001 100.558 61.3201C99.7983 58.1201 99.3183 54.8801 99.1983 51.6001C99.1183 49.6801 99.2383 47.7601 99.5983 45.8801C99.6383 45.6401 99.2383 45.0801 99.1583 44.8801C99.0783 44.6801 98.8383 44.1601 98.6383 44.1601C95.1983 44.3201 91.7583 44.6801 88.3983 45.2001C85.5183 45.6401 82.6383 46.2401 79.8383 47.0801C77.3583 47.8401 74.8383 48.8001 72.7583 50.3601C71.9183 51.0001 71.1983 51.7601 70.6383 52.6801C70.3983 53.0401 70.2383 53.4401 70.2383 53.8801C70.2783 55.2801 70.3583 56.7201 70.4383 58.1201C70.7183 63.7601 71.4383 69.4001 72.5183 74.9601C73.0783 77.9201 73.8783 80.8401 74.9183 83.6401C75.8783 86.1601 77.1583 88.8001 78.9983 90.8401C79.3183 91.2001 79.7183 91.5601 80.1183 91.8801C80.2383 91.9601 79.9583 91.2401 79.9183 91.2001C79.6383 90.7601 79.4383 90.4001 79.1583 90.1201Z" fill="#000005"/>
<path d="M78.921 61.2002C78.921 61.2002 80.401 61.3602 80.161 62.7602C79.921 64.1602 78.121 63.8802 77.961 62.5602C77.801 61.2402 78.921 61.2002 78.921 61.2002Z" fill="#000005"/>
<path d="M84.1198 76.5197C84.1198 76.5197 69.0798 81.5597 64.8798 74.0397C60.6798 66.5197 74.8398 61.8797 84.7198 66.9997" fill="white"/>
<path d="M84.2399 76.0401C83.7999 76.2001 83.3199 76.3201 82.8399 76.4401C81.7599 76.7201 80.6399 76.9601 79.5599 77.1601C76.5599 77.6801 73.3999 77.9201 70.4399 77.0401C68.9999 76.6401 67.6799 75.8401 66.6399 74.7601C65.7199 73.7201 65.0399 72.2801 65.1199 70.8401C65.2399 69.6001 65.8399 68.4801 66.7999 67.6801C67.9599 66.7601 69.3199 66.1601 70.7599 65.8401C75.1999 64.8001 79.8799 65.3601 83.9599 67.4401C84.3199 67.6401 84.8799 67.4401 85.1999 67.2401C85.3199 67.1601 85.9999 66.6801 85.6399 66.4801C81.5999 64.4401 77.0399 63.7601 72.5599 64.5201C70.5999 64.8001 68.7199 65.4801 66.9999 66.4401C65.6399 67.2401 64.2799 68.3201 63.6399 69.8001C62.3199 72.8401 64.5599 76.0401 67.2399 77.3601C70.3199 78.8801 73.9999 78.8001 77.3199 78.4001C79.6399 78.1201 81.8799 77.6401 84.0799 76.9201C84.3999 76.8001 85.0799 76.5601 85.1199 76.1601C85.1599 75.7601 84.4399 75.9601 84.2399 76.0401Z" fill="#000005"/>
<path d="M99.0811 73.7998C99.0811 73.7998 99.4411 77.3998 96.1211 78.3598L99.0811 73.7998Z" fill="white"/>
<path d="M98.1207 73.6802C98.1207 73.8002 98.1207 73.9202 98.1207 74.0402V74.1202C98.1207 74.2402 98.1207 74.0002 98.1207 74.0802C98.1207 74.1602 98.1207 74.2402 98.1207 74.2802C98.1207 74.4402 98.0807 74.6002 98.0407 74.7602C97.9607 75.1602 97.8407 75.5602 97.6807 75.9202C97.6407 76.0002 97.6007 76.1202 97.5207 76.2002C97.4407 76.2802 97.5607 76.1202 97.4807 76.2402C97.4407 76.2802 97.4007 76.3602 97.3607 76.4002C97.2407 76.6002 97.0807 76.7602 96.9207 76.9602C96.8007 77.0402 96.7207 77.1602 96.6007 77.2402C96.6007 77.2402 96.4807 77.3202 96.5607 77.2802C96.6407 77.2402 96.5207 77.3202 96.5207 77.3202L96.3207 77.4402C96.1607 77.5202 96.0407 77.6002 95.8807 77.6802L95.6407 77.7602C95.5207 77.8002 95.6007 77.7602 95.6407 77.7602L95.4807 77.8002C95.3207 77.8402 95.1207 77.9202 95.0807 78.0802C95.0407 78.2402 95.1207 78.4402 95.2407 78.5202C95.6007 78.8402 96.1207 79.0002 96.6007 78.9202C97.8007 78.6002 98.8007 77.8002 99.4007 76.7202C99.7607 76.0002 99.9607 75.2002 99.9607 74.4002C99.9607 74.2402 99.9607 74.0802 99.9607 73.9202C99.9207 73.7202 99.7607 73.6002 99.6007 73.4802C99.4007 73.3202 99.1207 73.2402 98.8807 73.2002C98.6407 73.2002 98.0407 73.2402 98.1207 73.6802Z" fill="#000005"/>
<path d="M96.8008 77.84C96.8008 77.84 99.4008 87.52 106.281 85.4C113.161 83.28 107.241 75.44 99.7208 74.96C99.7608 74.96 98.2808 77.04 96.8008 77.84Z" fill="white"/>
<path d="M95.9197 78.2802C96.7997 81.6002 99.1597 85.7202 102.92 86.1602C104.52 86.3202 106.12 85.8402 107.52 85.1202C108.68 84.5202 109.92 83.6802 110.2 82.3202C110.72 79.6802 108 77.3202 105.96 76.1602C105.16 75.6802 104.28 75.3202 103.4 75.0402C102.92 74.8802 102.44 74.7602 101.96 74.6802C101.48 74.5602 101 74.4802 100.48 74.5202C99.8797 74.6402 99.3197 74.9602 98.8797 75.4002C98.7197 75.5602 98.5997 75.7602 98.4797 75.9602C97.9597 76.6802 97.2797 77.3202 96.5197 77.8402C96.3997 77.9202 95.7997 78.2002 95.9997 78.3602C96.1997 78.5202 97.0397 77.9602 97.1597 77.9202C98.5597 77.0802 99.7597 75.9602 100.68 74.6402L98.9597 75.5202C101.76 75.7202 104.36 76.8402 106.4 78.7602C107.72 80.0402 109.16 82.2002 108.12 84.0402C107.92 84.4002 107.64 84.6802 107.32 84.9202C107.4 84.8802 107.44 84.8402 107.32 84.9202L107.04 85.0402C106.72 85.1202 106.44 85.2002 106.12 85.2802C105.08 85.4402 104.04 85.3202 103.08 84.8802C101.32 84.1202 100.08 82.4802 99.1597 80.8402C98.5597 79.8002 98.0797 78.6802 97.7597 77.5202C97.6397 77.2402 95.7997 77.9202 95.9197 78.2802Z" fill="#000005"/>
<path d="M86.7202 62.2001L86.8002 62.0801L86.8402 62.0401C86.8002 62.0801 86.8002 62.0801 86.8402 62.0401L87.0002 61.8401C87.0402 61.7601 87.1202 61.6801 87.2002 61.6401C87.1202 61.7201 87.1602 61.6801 87.2002 61.6401L87.2802 61.5601L87.4002 61.4401C87.4802 61.3601 87.2402 61.5601 87.3602 61.4801L87.4402 61.4001C87.4802 61.3601 87.6002 61.2801 87.4802 61.4001C87.3602 61.5201 87.5202 61.4001 87.5202 61.3601L87.4002 61.4401L87.4402 61.4001L87.4802 61.3601L87.4002 61.4001C87.4002 61.4001 87.6002 61.3201 87.4802 61.3601C87.3602 61.4001 87.5202 61.3601 87.5202 61.3601C87.5202 61.3601 87.6402 61.3201 87.6002 61.3601C87.5602 61.4001 87.6802 61.3601 87.6802 61.3601H87.8402C87.8002 61.3601 87.8802 61.3601 87.8802 61.3601C87.9202 61.3601 87.9602 61.3601 88.0002 61.3601C88.0802 61.3601 88.1602 61.4001 88.2402 61.4001C88.5202 61.4801 88.7602 61.6801 88.8802 61.9601C88.9202 62.0801 89.2002 62.0001 89.2402 61.9601C89.4802 61.8801 89.6802 61.8001 89.8802 61.6401C90.0802 61.5201 90.2802 61.3601 90.4402 61.1601C90.5202 61.0801 90.6402 60.9601 90.5602 60.8401C90.1202 59.8801 88.8402 60.0401 88.0802 60.3601C86.8802 60.8801 85.8802 61.7601 85.2002 62.8401C85.1602 62.9201 85.1202 63.0401 85.2402 63.0801C85.4002 63.0801 85.5602 63.0801 85.7202 63.0001C86.1202 62.8801 86.4802 62.5601 86.7202 62.2001Z" fill="#000005"/>
<path d="M144.639 84.4404C146.239 80.4404 145.519 75.9204 145.199 72.3204C144.879 68.7204 148.559 57.2004 147.279 53.8404C144.919 47.5604 138.679 64.0404 138.679 64.0404C139.159 55.1604 143.719 44.0004 139.039 43.2404C134.359 42.4804 130.279 62.9604 129.959 63.8804C129.639 64.8004 132.639 44.8004 127.959 46.0804C122.039 47.6804 122.839 68.4004 122.839 68.4004C119.239 65.0404 111.159 63.8004 109.839 67.5204C108.599 71.0404 113.119 72.8004 119.239 79.0404C124.799 84.7204 125.439 87.4804 125.439 87.4804C125.439 87.4804 135.279 142.48 165.199 140.4C195.119 138.32 144.639 84.4404 144.639 84.4404Z" fill="white"/>
<path d="M145.518 84.9201C146.638 82.0801 146.718 79.0401 146.478 76.0401C146.398 74.7602 146.198 73.5201 146.118 72.2401C146.118 72.0801 146.118 72.3201 146.118 72.2001C146.118 72.1201 146.118 72.0401 146.118 72.0001C146.118 71.8001 146.118 71.6402 146.158 71.4401C146.198 71.0401 146.238 70.6801 146.278 70.2801C146.798 66.2401 147.918 62.3201 148.358 58.2801C148.518 56.7601 148.678 55.0802 148.118 53.6402C147.678 52.5202 146.638 51.4401 145.318 51.6801C144.198 51.8801 143.398 52.8801 142.758 53.7201C141.918 54.8801 141.198 56.0801 140.558 57.3601C139.918 58.6401 139.318 59.9202 138.758 61.2402C138.438 62.0002 138.078 62.7601 137.838 63.5201C137.838 63.5602 137.798 63.6002 137.798 63.6402L139.638 64.4001C139.918 59.4401 141.318 54.6401 141.918 49.7601C142.118 48.0801 142.318 46.2001 141.638 44.6001C141.078 43.2401 139.678 42.4001 138.198 42.5201C137.118 42.6801 136.318 43.4801 135.678 44.2801C134.878 45.4001 134.198 46.6001 133.678 47.8801C132.398 50.9601 131.358 54.1602 130.558 57.4402C129.998 59.4802 129.518 61.5201 129.038 63.6001C129.038 63.6401 129.038 63.6401 128.998 63.6801C129.038 63.4801 129.158 63.3601 129.318 63.2801L129.998 63.2402L130.638 63.6801C130.398 63.3601 130.838 64.2402 130.838 64.0402C130.838 64.0402 130.838 64.2801 130.838 64.2001C130.838 64.1601 130.838 64.1202 130.838 64.0402C130.838 63.8801 130.878 63.7201 130.878 63.5601C130.918 63.0001 130.998 62.4801 131.038 61.9601C131.198 60.3201 131.318 58.6401 131.438 57.0001C131.558 55.1201 131.558 53.2001 131.438 51.3201C131.358 49.8801 131.198 48.2801 130.558 47.0001C129.918 45.7201 128.598 45.0001 127.198 45.4801C125.798 45.9601 124.918 47.2401 124.318 48.5201C123.558 50.2401 123.038 52.0401 122.758 53.9201C122.398 55.9601 122.158 58.0002 122.038 60.0402C121.918 61.8001 121.878 63.5601 121.838 65.2801C121.838 66.2801 121.798 67.2801 121.878 68.2801C121.878 68.3201 121.878 68.3601 121.878 68.4401L123.398 68.0001C121.558 66.3201 119.078 65.2801 116.638 64.8001C114.518 64.4001 111.878 64.2802 110.038 65.6402C108.638 66.8001 108.238 68.7601 109.118 70.3601C110.158 72.3601 112.198 73.8001 113.838 75.2001C116.478 77.4001 118.918 79.8001 121.158 82.4001C121.958 83.3201 122.678 84.2801 123.318 85.2801C123.678 85.8001 123.998 86.3601 124.238 86.9601C124.318 87.1201 124.398 87.2802 124.438 87.4402C124.558 87.6801 124.438 87.2801 124.438 87.4801L124.478 87.6001C124.558 87.9601 124.638 88.3601 124.718 88.7201C125.078 90.5201 125.518 92.3201 125.958 94.1201C126.678 96.9601 127.518 99.8001 128.398 102.6C129.518 106 130.758 109.36 132.158 112.64C133.678 116.12 135.398 119.52 137.358 122.76C139.278 126.04 141.558 129.08 144.158 131.88C146.638 134.6 149.558 136.84 152.798 138.56C156.038 140.24 159.638 141.16 163.318 141.24C166.158 141.28 169.318 140.96 171.838 139.44C173.678 138.36 174.958 136.52 175.398 134.4C175.878 132.12 175.478 129.64 174.878 127.44C174.038 124.52 172.878 121.72 171.438 119.04C169.798 115.96 168.038 112.96 166.078 110.04C164.118 107.08 162.038 104.2 159.918 101.4C157.918 98.8001 155.878 96.2402 153.798 93.7201C152.158 91.7201 150.478 89.7601 148.758 87.8001C147.798 86.6801 146.798 85.6001 145.798 84.4801L145.398 84.0401C145.078 83.6401 144.558 83.4801 144.078 83.6401C143.758 83.8001 143.638 84.2001 143.798 84.5201C143.838 84.6001 143.878 84.6401 143.918 84.6801C144.438 85.2401 144.958 85.8001 145.478 86.4001C146.838 87.9201 148.198 89.4401 149.518 91.0001C151.398 93.2001 153.238 95.4401 155.078 97.7201C157.198 100.36 159.238 103.04 161.238 105.8C162.278 107.24 163.278 108.68 164.238 110.12C165.238 111.6 166.118 112.96 166.958 114.36C168.638 117.08 170.158 119.96 171.438 122.88C171.718 123.56 171.998 124.24 172.238 124.92C172.358 125.24 172.478 125.56 172.598 125.88C172.638 125.96 172.638 126.04 172.678 126.12C172.758 126.32 172.678 126.08 172.718 126.2C172.758 126.32 172.838 126.56 172.878 126.72C173.238 127.88 173.518 129.08 173.678 130.32C173.718 130.6 173.718 130.88 173.758 131.2C173.758 131.32 173.758 131.48 173.758 131.6V131.64C173.758 131.72 173.758 131.8 173.758 131.84C173.758 132.36 173.718 132.88 173.638 133.4C173.598 133.64 173.558 133.88 173.478 134.12C173.438 134.24 173.438 134.36 173.398 134.44C173.398 134.48 173.318 134.72 173.398 134.48L173.358 134.68C173.198 135.12 172.998 135.52 172.758 135.92C172.638 136.12 172.518 136.32 172.358 136.52C172.278 136.64 172.478 136.4 172.358 136.52L172.238 136.64L171.998 136.92C171.638 137.28 171.278 137.6 170.838 137.88C170.798 137.88 170.638 138 170.758 137.92C170.878 137.84 170.678 137.96 170.678 137.96C170.558 138.04 170.438 138.12 170.278 138.16C170.038 138.28 169.798 138.4 169.518 138.52C169.238 138.64 168.958 138.72 168.718 138.84L168.278 138.96C168.478 138.92 168.198 138.96 168.158 139L167.918 139.08C166.438 139.44 164.918 139.6 163.398 139.6C162.518 139.6 161.638 139.56 160.758 139.44C159.958 139.36 159.158 139.2 158.358 139C157.518 138.8 156.718 138.56 155.918 138.24L155.358 138.04L155.238 138L154.918 137.88C154.518 137.72 154.118 137.52 153.758 137.32C152.998 136.92 152.238 136.52 151.518 136.04L151.278 135.88C151.238 135.84 150.998 135.68 151.158 135.8C150.958 135.68 150.798 135.56 150.598 135.44C150.238 135.2 149.918 134.96 149.558 134.68C148.878 134.16 148.198 133.6 147.558 133C147.238 132.68 146.918 132.4 146.558 132.08L146.158 131.68L145.998 131.52L145.758 131.24C144.518 129.92 143.318 128.52 142.238 127.04C140.038 124.08 138.118 120.92 136.478 117.6C134.838 114.32 133.398 110.96 132.118 107.56C130.958 104.44 130.038 101.6 129.118 98.4402C128.438 96.1202 127.838 93.7601 127.278 91.4001C126.998 90.2001 126.758 89.0401 126.518 87.8401C126.478 87.5602 126.398 87.3201 126.278 87.0801C125.678 85.7201 124.878 84.4401 123.918 83.2801C121.878 80.6801 119.638 78.2402 117.158 76.0401C116.078 75.0401 114.958 74.1201 113.838 73.1601C113.038 72.5201 112.278 71.8001 111.598 71.0001C111.478 70.8401 111.358 70.6801 111.198 70.5201C111.158 70.4401 111.078 70.3601 111.038 70.2801C111.118 70.4401 110.998 70.2001 110.958 70.1201C110.878 69.9601 110.798 69.8001 110.758 69.6402C110.798 69.8001 110.758 69.5601 110.718 69.5201C110.678 69.4001 110.678 69.3201 110.678 69.2001C110.638 68.5601 110.798 67.9201 111.198 67.3601C111.758 66.7601 112.518 66.3602 113.358 66.2402C114.438 66.0802 115.518 66.0801 116.558 66.2801C118.718 66.6001 120.718 67.5201 122.358 68.9601C122.878 69.4401 123.918 69.3601 123.878 68.5201C123.878 68.4801 123.878 68.4401 123.878 68.4001C123.878 68.2801 123.878 67.9601 123.878 68.2401C123.878 67.8401 123.878 67.4801 123.878 67.0801C123.878 65.7601 123.878 64.4001 123.918 63.0801C124.038 59.5601 124.318 55.9601 125.118 52.5601C125.398 51.1201 125.958 49.7601 126.678 48.4801C126.758 48.3601 126.838 48.2401 126.918 48.1201L126.998 48.0001C126.958 48.0401 127.078 47.8801 127.118 47.8401C127.318 47.6401 127.518 47.4401 127.718 47.2801L127.878 47.1601C127.918 47.1201 127.758 47.2401 127.918 47.1601C128.038 47.0801 128.158 47.0401 128.318 46.9601L128.478 46.8801C128.318 46.9201 128.638 46.8401 128.478 46.8801L128.598 46.8401C128.638 46.8401 128.678 46.8401 128.718 46.8401C128.878 46.9201 128.518 46.8001 128.638 46.8401C128.678 46.8401 128.718 46.8401 128.758 46.8801C128.878 46.9201 128.518 46.7601 128.678 46.8401C128.478 46.6801 128.838 46.9201 128.678 46.8401C128.838 46.9601 128.558 46.6801 128.718 46.9201C128.758 46.9601 128.798 47.0001 128.798 47.0401C128.878 47.1601 128.718 46.8801 128.758 47.0001C128.798 47.1201 128.878 47.2401 128.918 47.3201C128.958 47.4001 128.998 47.5601 129.078 47.6401C129.078 47.6801 129.118 47.7601 129.118 47.8001C129.078 47.6401 129.118 47.8001 129.158 47.8801C129.478 49.2401 129.678 50.6402 129.678 52.0402C129.718 55.0802 129.558 58.1601 129.238 61.2001C129.158 61.9601 129.038 62.7601 129.038 63.5201C128.998 63.7601 129.078 64.0402 129.238 64.2402C129.598 64.6802 130.518 65.0001 130.878 64.3601C130.958 64.1201 131.038 63.8801 131.078 63.6402C131.718 61.0002 132.318 58.3201 133.078 55.7201C133.998 52.4401 135.038 49.0401 136.798 46.1201C136.958 45.8401 137.158 45.5601 137.358 45.2801C137.398 45.2401 137.518 45.0801 137.398 45.2001L137.518 45.0401C137.638 44.9201 137.718 44.8001 137.838 44.6801C137.998 44.5201 138.198 44.3201 138.398 44.2001C138.278 44.2801 138.518 44.1201 138.398 44.2001L138.558 44.1201C138.638 44.0801 138.758 44.0401 138.878 44.0001L138.998 43.9601C139.158 43.9201 138.958 43.9601 138.958 43.9601C138.958 43.9601 139.078 43.9601 139.118 43.9601C139.318 43.9601 139.078 43.9201 139.158 43.9601C139.238 44.0001 139.318 44.0001 139.398 44.0401C139.238 43.9601 139.598 44.0801 139.398 44.0401C139.558 44.1201 139.598 44.2001 139.478 44.0801C139.518 44.1201 139.598 44.1601 139.638 44.2001C139.758 44.3201 139.558 44.0801 139.678 44.2401C139.718 44.2801 139.758 44.3601 139.798 44.4001C139.718 44.2801 139.838 44.4401 139.798 44.4001C139.838 44.4401 139.838 44.4801 139.878 44.5201C139.918 44.6001 139.958 44.6801 139.998 44.7601C140.038 44.8401 140.078 44.9601 140.038 44.8401C140.078 45.0401 140.118 45.2001 140.158 45.4001C140.518 47.4001 140.078 49.6402 139.718 51.6402C139.238 54.3602 138.678 57.0401 138.278 59.7601C138.078 61.0801 137.918 62.4001 137.878 63.7601C137.878 64.2001 138.158 64.6001 138.598 64.7601C138.918 64.8801 139.558 64.9601 139.718 64.5201C140.358 62.8401 141.078 61.2001 141.838 59.6001C142.438 58.3201 143.118 57.0801 143.838 55.8801C143.998 55.6001 144.198 55.3601 144.358 55.0801C144.438 54.9601 144.518 54.8401 144.638 54.7201L144.758 54.5601C144.798 54.4801 144.798 54.4801 144.758 54.5601L144.838 54.4402C145.158 54.0402 145.518 53.7201 145.878 53.4001C145.718 53.4801 146.038 53.2801 145.878 53.4001L145.958 53.3601C146.038 53.3201 146.118 53.2802 146.198 53.2402C146.278 53.2002 145.998 53.2802 146.158 53.2402C146.198 53.2402 146.238 53.2402 146.278 53.2402C146.398 53.2402 146.398 53.2802 146.198 53.2402C146.278 53.2402 146.438 53.2801 146.158 53.2001C146.118 53.1601 146.438 53.2801 146.158 53.2001C146.358 53.2801 145.958 53.0002 146.158 53.2402C146.278 53.3602 146.038 53.0401 146.118 53.2001C146.158 53.2401 146.198 53.2801 146.198 53.3201L146.278 53.4402C146.118 53.2002 146.278 53.4401 146.318 53.4801C146.358 53.6001 146.438 53.7202 146.478 53.8402C146.518 53.9202 146.518 53.9602 146.558 54.0402C146.478 53.8402 146.558 54.0401 146.558 54.0801C146.638 54.4001 146.678 54.6801 146.718 55.0001C146.758 55.7201 146.718 56.4801 146.638 57.2001C146.278 61.1201 145.238 64.9201 144.638 68.8001C144.478 69.6001 144.398 70.4002 144.358 71.2401C144.358 72.3601 144.438 73.4801 144.598 74.5601C144.878 77.6801 145.038 80.9601 143.878 83.9601C143.758 84.4001 143.958 84.9201 144.398 85.0801C144.638 85.2801 145.358 85.3601 145.518 84.9201Z" fill="#000005"/>
<path d="M133.6 77.96C133.8 76.32 132.52 74.88 131.28 73.8C129.76 72.44 128.04 71.16 126 70.96" fill="white"/>
<path d="M134.561 78.1603C134.761 76.1203 133.121 74.5603 131.721 73.3603C130.041 71.9203 128.121 70.7603 125.881 70.5203C125.641 70.4803 125.001 70.5203 125.081 70.8803C125.161 71.2403 125.921 71.4003 126.241 71.4403C126.921 71.5603 127.601 71.8003 128.201 72.1603C128.921 72.6003 129.641 73.1203 130.281 73.7203C131.481 74.7603 132.841 76.0803 132.681 77.8003C132.561 78.4003 134.521 78.7203 134.561 78.1603Z" fill="#000005"/>
</svg>
