<svg width="300" height="300" viewBox="0 0 300 300" fill="none" xmlns="http://www.w3.org/2000/svg">
<path d="M73.5 63.6001V70.6801C73.5 70.8601 73.74 70.9801 73.86 71.0401C74.16 71.2201 74.52 71.3401 74.88 71.4601C75 71.5201 76.38 71.8801 76.38 71.5801V64.5001C76.38 64.3201 76.14 64.2001 76.02 64.1401C75.72 63.9601 75.36 63.8401 75.06 63.7201C74.94 63.7201 73.5 63.3601 73.5 63.6001Z" fill="#68BA7F"/>
<path d="M73.2578 90.9602V97.9202C73.3178 98.2202 73.4378 98.5202 73.5578 98.7602C73.7378 99.1202 73.9778 99.4202 74.2178 99.7202C74.4578 99.9602 74.9978 100.5 74.9978 99.8402V92.8802C74.9378 92.5802 74.8178 92.2802 74.6378 92.0402C74.4578 91.6802 74.2178 91.3802 73.9778 91.0802C73.7978 90.9002 73.2578 90.3602 73.2578 90.9602Z" fill="#68BA7F"/>
<path d="M81.6004 90.3001C82.6204 90.9001 83.5204 91.6201 84.3004 92.4601C84.5404 92.6401 84.9004 92.7001 85.2004 92.6401C85.6204 92.5801 85.9804 92.4001 86.2204 92.1001C86.4604 91.8601 86.6404 91.5601 86.7004 91.2001V90.9001C86.6404 90.7201 86.5804 90.5401 86.4004 90.4201C85.5604 89.5801 84.6604 88.8601 83.7004 88.2601C83.4004 88.0801 83.1004 88.0201 82.8004 88.0801C82.3804 88.1401 82.0204 88.3201 81.7804 88.6201C81.5404 88.8601 81.3604 89.1601 81.3004 89.5201C81.2404 89.8201 81.3604 90.1201 81.6004 90.3001Z" fill="#68BA7F"/>
<path d="M65.0374 92.16C65.7574 91.08 66.6574 90.12 67.6774 89.28C67.8574 89.1 67.9174 88.8 67.7974 88.56C67.6774 88.26 67.4374 88.02 67.1374 87.84C66.7774 87.66 66.4174 87.54 65.9974 87.54H65.6374C65.4574 87.6 65.2774 87.66 65.1574 87.78C64.1374 88.56 63.2374 89.52 62.5174 90.66C62.3974 90.72 62.3374 90.9 62.3374 91.02C62.2774 91.14 62.3374 91.32 62.3974 91.44C62.5174 91.74 62.7574 91.98 63.0574 92.16C63.4174 92.34 63.7774 92.46 64.1974 92.52L64.5574 92.46C64.6774 92.34 64.8574 92.28 65.0374 92.16Z" fill="#68BA7F"/>
<path d="M84.9573 82.2605H93.0573C93.7773 82.2605 94.6773 81.9005 94.7973 81.0605C94.9173 80.4005 94.4973 79.6805 93.7773 79.5605C93.7173 79.5605 93.6573 79.5605 93.6573 79.5605H85.5573C84.8373 79.5605 83.9373 79.9205 83.8173 80.7605C83.6973 81.4205 84.1173 82.0805 84.7773 82.2605C84.8373 82.2605 84.8973 82.2605 84.9573 82.2605Z" fill="#68BA7F"/>
<path d="M54.8992 82.3797H63.5392C64.1392 82.3797 65.0992 82.1996 65.2792 81.5396C65.4592 80.8796 64.5592 80.6396 64.0792 80.6396H55.4392C54.8392 80.6396 53.8792 80.8197 53.6992 81.4797C53.5192 82.1397 54.4192 82.3797 54.8992 82.3797Z" fill="#68BA7F"/>
<path d="M68.8783 75.3C68.4583 74.4 67.9183 73.56 67.1983 72.78C67.0183 72.6 66.7783 72.48 66.4783 72.42C66.1183 72.36 65.6983 72.36 65.3383 72.42C65.0383 72.48 64.7383 72.6 64.4383 72.78C64.3183 72.9 64.1383 73.14 64.3183 73.32C64.9783 74.04 65.5783 74.94 65.9983 75.84C66.0583 75.96 66.1783 76.02 66.2983 76.02C66.4183 76.08 66.5983 76.14 66.7183 76.14C67.0783 76.2 67.4983 76.2 67.8583 76.14C68.1583 76.08 68.4583 75.96 68.7583 75.78L68.8783 75.6C68.9983 75.54 68.9983 75.42 68.8783 75.3Z" fill="#68BA7F"/>
<path d="M82.4991 76.2605C83.2191 75.3005 83.9991 74.4005 84.8991 73.6205L84.6591 73.8005L85.0191 73.5005C85.1391 73.4405 85.2591 73.3205 85.3191 73.1405C85.3791 73.0205 85.4391 72.9005 85.4391 72.7205C85.3791 72.4205 85.1991 72.1205 84.9591 71.9405C84.6591 71.7005 84.2991 71.5205 83.8791 71.5205C83.5191 71.4605 83.1591 71.5205 82.8591 71.7005C81.7791 72.6605 80.7591 73.7406 79.8591 74.8805C79.4391 75.4806 79.9191 76.2005 80.4591 76.4405C80.8191 76.6205 81.1791 76.6806 81.5991 76.6806C81.8991 76.6205 82.1991 76.5005 82.4991 76.2605Z" fill="#68BA7F"/>
<path d="M230.758 103.68V110.76C230.878 111.54 231.538 112.14 232.258 112.2C232.858 112.32 233.458 111.9 233.518 111.36C233.518 111.3 233.518 111.18 233.518 111.12V104.04C233.398 103.26 232.738 102.66 232.018 102.6C231.418 102.48 230.818 102.9 230.758 103.44C230.758 103.5 230.758 103.62 230.758 103.68Z" fill="#68BA7F"/>
<path d="M230.578 130.5V137.46C230.638 138.06 230.938 138.66 231.298 139.14C231.478 139.38 231.658 139.62 231.898 139.86C231.958 139.92 232.198 140.04 232.198 139.86V132.9C232.138 132.3 231.838 131.7 231.478 131.22C231.298 130.98 231.118 130.74 230.878 130.5C230.818 130.5 230.578 130.32 230.578 130.5Z" fill="#68BA7F"/>
<path d="M240.059 129.54L240.419 129.78L240.599 129.9C240.719 129.96 240.839 130.08 240.419 129.78L240.479 129.84L240.779 130.08C240.839 130.14 241.079 130.26 240.779 130.08L241.079 130.32L241.139 130.38L240.959 130.26L241.079 130.38L241.379 130.68L241.559 130.8L241.439 130.68L241.499 130.74C241.739 130.98 242.039 131.22 242.339 131.4C242.639 131.64 242.939 131.82 243.239 131.94C243.359 132 243.659 132.12 243.719 132C243.659 131.88 243.599 131.76 243.479 131.64C242.339 130.44 241.019 129.42 239.639 128.58C239.399 128.4 239.099 128.28 238.799 128.16C238.679 128.16 238.499 128.1 238.559 128.28C238.679 128.52 238.799 128.7 239.039 128.82C239.399 129.12 239.699 129.36 240.059 129.54Z" fill="#68BA7F"/>
<path d="M222.238 132C222.358 131.82 222.478 131.64 222.658 131.46L222.477 131.7C223.137 130.86 223.918 130.08 224.758 129.42C224.998 129.18 225.118 128.88 225.058 128.52C224.998 128.16 224.817 127.8 224.577 127.5C224.337 127.2 223.978 127.02 223.618 126.96H223.198C222.958 126.96 222.778 127.08 222.658 127.2C221.518 128.04 220.557 129.12 219.777 130.32C219.658 130.62 219.658 130.98 219.777 131.28C219.897 131.64 220.138 132 220.498 132.18C220.798 132.42 221.158 132.48 221.518 132.48L221.818 132.42C221.938 132.36 222.118 132.18 222.238 132Z" fill="#68BA7F"/>
<path d="M243.3 121.981H251.4C251.94 121.981 251.34 120.961 251.22 120.841C251.04 120.541 250.8 120.181 250.5 119.941C250.32 119.821 250.08 119.521 249.9 119.521H241.8C241.26 119.521 241.86 120.541 241.98 120.661C242.16 120.961 242.4 121.321 242.7 121.561C242.82 121.681 243.06 121.981 243.3 121.981Z" fill="#68BA7F"/>
<path d="M213.238 122.46H221.878C222.418 122.46 221.818 121.38 221.698 121.26C221.398 120.84 220.798 120.12 220.198 120.12H211.558C211.018 120.12 211.618 121.2 211.738 121.32C212.038 121.68 212.638 122.46 213.238 122.46Z" fill="#68BA7F"/>
<path d="M225.418 115.8C224.758 114.42 223.918 113.16 222.958 112.02C222.838 111.9 222.778 111.78 222.658 111.72C222.598 111.66 222.478 111.6 222.418 111.54C222.238 111.54 222.238 111.66 222.238 111.84C222.298 112.14 222.418 112.44 222.538 112.68C222.718 113.04 222.958 113.34 223.198 113.64C223.258 113.7 223.378 113.82 223.438 113.88L223.558 114L223.438 113.82L223.498 113.88L223.738 114.18L223.858 114.3L223.678 114.06L223.738 114.12L223.918 114.42L223.978 114.54L223.858 114.3C223.858 114.3 223.858 114.36 223.918 114.36C223.978 114.36 224.038 114.54 224.098 114.66C224.158 114.78 224.158 114.78 224.158 114.84C224.218 114.96 223.978 114.48 224.038 114.66C224.038 114.72 224.038 114.72 224.098 114.78C224.278 115.14 224.458 115.44 224.698 115.8C224.818 115.92 224.878 116.04 224.998 116.16C225.058 116.28 225.178 116.34 225.298 116.4C225.418 116.46 225.598 116.58 225.658 116.34C225.598 116.28 225.538 116.04 225.418 115.8Z" fill="#68BA7F"/>
<path d="M239.878 115.501C240.178 115.081 240.538 114.66 240.898 114.24L240.778 114.421C241.318 113.821 241.918 113.221 242.518 112.681C242.698 112.561 242.758 112.32 242.698 112.14C242.518 111.9 242.278 111.781 242.038 111.721C241.678 111.601 241.258 111.601 240.898 111.661C240.598 111.661 240.238 111.781 239.998 111.961C238.918 112.921 237.958 114 237.058 115.14C236.938 115.32 237.058 115.561 237.178 115.681C237.418 115.861 237.778 115.98 238.078 116.04C238.438 116.1 238.858 116.101 239.218 115.981C239.458 115.861 239.698 115.741 239.878 115.501Z" fill="#68BA7F"/>
<path d="M243.121 233.28V237.84C243.121 238.38 243.961 238.68 244.441 238.8C244.801 238.92 245.161 238.92 245.521 238.86C245.641 238.86 246.061 238.8 246.061 238.56V234C246.061 233.46 245.161 233.16 244.741 233.04C244.381 232.92 244.021 232.92 243.661 232.98C243.481 232.98 243.121 233.1 243.121 233.28Z" fill="#68BA7F"/>
<path d="M242.879 250.92V255.36C242.939 256.08 243.419 256.74 244.079 257.04C244.319 257.22 244.619 257.28 244.919 257.22C245.159 257.16 245.279 256.92 245.279 256.68V252.24C245.159 251.52 244.739 250.86 244.079 250.56C243.839 250.38 243.539 250.32 243.239 250.38C242.999 250.5 242.819 250.68 242.879 250.92Z" fill="#68BA7F"/>
<path d="M249.12 251.161C249.24 251.221 249.36 251.281 249.48 251.401L249.12 251.161C249.66 251.521 250.14 251.881 250.56 252.301C250.68 252.421 250.86 252.541 251.04 252.601C251.22 252.661 251.4 252.721 251.58 252.721C251.76 252.721 251.94 252.661 252.06 252.601C252.24 252.541 252.36 252.421 252.42 252.301C252.6 252.001 252.66 251.641 252.6 251.281L252.48 250.921C252.36 250.681 252.18 250.441 252 250.261C251.4 249.661 250.68 249.121 249.96 248.701C249.78 248.641 249.6 248.581 249.42 248.581C249.24 248.521 249.06 248.581 248.94 248.641C248.76 248.701 248.64 248.761 248.52 248.941C248.4 249.061 248.28 249.181 248.28 249.361C248.16 249.721 248.22 250.081 248.34 250.441L248.52 250.801C248.7 250.861 248.88 251.041 249.12 251.161Z" fill="#68BA7F"/>
<path d="M238.861 251.52C239.041 251.22 239.281 250.98 239.461 250.68L239.401 250.74C239.701 250.38 240.121 250.02 240.481 249.72C240.541 249.72 240.541 249.66 240.541 249.6C240.541 249.54 240.481 249.48 240.361 249.42C240.241 249.36 240.121 249.3 240.001 249.24C239.821 249.18 239.701 249.12 239.521 249.12C239.161 249 238.741 249 238.381 248.94H238.081C237.961 248.94 237.781 248.94 237.661 249C236.941 249.54 236.341 250.2 235.861 250.92C235.801 251.04 236.281 251.22 236.221 251.22C236.581 251.34 236.881 251.46 237.241 251.52C237.601 251.58 237.961 251.64 238.321 251.58C238.501 251.64 238.741 251.64 238.861 251.52Z" fill="#68BA7F"/>
<path d="M251.761 245.34H256.981C257.281 245.34 257.521 245.28 257.761 245.16C257.941 244.98 257.941 244.74 257.761 244.56C257.281 244.02 256.621 243.72 255.901 243.72H250.681C250.381 243.72 250.141 243.78 249.901 243.9C249.721 244.08 249.721 244.32 249.901 244.5C250.321 245.04 251.041 245.34 251.761 245.34Z" fill="#68BA7F"/>
<path d="M231.9 245.94H237.48C237.84 245.94 238.2 245.82 238.5 245.58C238.74 245.4 238.92 245.1 238.86 244.8C238.74 244.08 237.96 243.84 237.3 243.84H231.72C231.36 243.84 231 243.96 230.7 244.2C230.46 244.38 230.28 244.68 230.34 244.98C230.4 245.7 231.24 245.94 231.9 245.94Z" fill="#68BA7F"/>
<path d="M241.198 240.72C241.018 240.36 240.838 240 240.598 239.64C240.418 239.34 240.238 239.1 239.998 238.86C239.758 238.62 239.458 238.44 239.098 238.38C238.918 238.32 238.678 238.32 238.498 238.38C238.318 238.38 238.138 238.44 237.958 238.5C237.658 238.62 237.418 238.86 237.298 239.16L237.238 239.46C237.238 239.64 237.298 239.88 237.478 240C237.718 240.3 237.958 240.6 238.198 240.9L238.018 240.66C238.138 240.9 238.258 241.14 238.378 241.38C238.558 241.68 238.798 241.86 239.098 241.98C239.278 242.04 239.458 242.1 239.638 242.1C239.818 242.1 240.058 242.1 240.238 242.04C240.598 241.98 240.898 241.8 241.138 241.5C241.318 241.32 241.318 241.02 241.198 240.72Z" fill="#68BA7F"/>
<path d="M249.601 241.92C250.141 241.2 250.741 240.6 251.401 240C251.521 239.88 251.641 239.7 251.701 239.52C251.761 239.34 251.821 239.16 251.821 238.98C251.821 238.8 251.761 238.62 251.701 238.44C251.641 238.26 251.521 238.14 251.401 238.02C251.101 237.78 250.741 237.72 250.381 237.72L250.021 237.78C249.781 237.9 249.541 238.02 249.361 238.2C248.701 238.8 248.101 239.4 247.561 240.12C247.441 240.24 247.321 240.42 247.261 240.6C247.201 240.78 247.141 240.96 247.141 241.14C247.141 241.32 247.201 241.5 247.261 241.68C247.321 241.86 247.441 241.98 247.561 242.1C247.861 242.34 248.221 242.4 248.581 242.4C248.941 242.4 249.361 242.22 249.601 241.92Z" fill="#68BA7F"/>
<path d="M148.499 144.059C146.639 150.659 145.439 149.999 148.739 153.239C148.739 153.239 147.359 155.519 139.319 156.899C138.059 157.139 127.739 152.519 128.039 140.579C128.039 140.579 130.019 134.939 125.699 132.059C125.699 132.059 131.339 132.359 134.099 129.359C136.859 126.359 141.179 119.759 144.659 121.919C148.139 124.079 145.439 128.939 142.559 130.979L146.399 135.479C144.419 138.839 140.459 137.099 140.459 137.099C140.459 137.099 141.299 141.479 143.039 142.079C144.779 142.679 147.839 140.279 147.839 140.279C148.679 141.299 148.919 142.739 148.499 144.059Z" fill="white"/>
<path d="M146.999 144.12C146.639 145.44 146.219 146.7 145.739 147.96C145.439 148.62 145.259 149.28 145.139 150C145.079 150.54 145.199 151.02 145.499 151.44C145.679 151.68 145.859 151.98 146.099 152.16C146.279 152.34 146.399 152.52 146.579 152.7C146.759 152.88 147.179 153.18 147.179 153.3C147.179 153.66 146.099 154.26 145.919 154.38C144.119 155.34 142.199 156.06 140.219 156.48C139.859 156.54 139.439 156.66 139.079 156.72L138.539 156.84C137.339 157.08 140.099 157.02 140.219 156.84C140.219 156.78 140.339 156.9 140.219 156.84C140.159 156.84 140.039 156.78 139.979 156.78C139.499 156.66 139.079 156.48 138.659 156.24C137.339 155.58 136.139 154.8 135.059 153.78C131.939 150.96 129.959 147 129.599 142.8C129.419 141.96 129.419 141.12 129.599 140.28C129.779 139.56 129.899 138.84 129.959 138.12C130.199 135.72 129.059 133.38 127.079 132L124.859 132.24C126.659 132.3 128.459 132.18 130.259 131.88C131.459 131.7 132.599 131.28 133.679 130.74C134.639 130.2 135.539 129.42 136.199 128.52C137.819 126.6 139.319 124.56 141.299 123C141.719 122.64 142.199 122.28 142.739 122.04C142.979 121.92 143.219 121.8 143.459 121.74C143.519 121.74 143.639 121.68 143.699 121.68C144.119 121.62 143.879 121.62 143.039 121.68C142.199 121.62 141.959 121.68 142.319 121.74C143.399 122.22 144.299 122.82 144.599 124.08C145.259 126.72 143.039 129.6 140.999 131.04L140.939 131.1L144.539 135.36C144.899 135.72 144.719 135.78 144.359 136.2C143.879 136.8 143.219 137.22 142.499 137.46C142.199 137.52 142.139 137.52 142.499 137.52C143.699 137.46 143.399 137.58 143.039 137.52C142.799 137.46 142.619 137.46 142.379 137.4C142.199 137.34 141.959 137.28 141.779 137.16C141.539 137.04 138.779 137.1 138.839 137.28C139.019 138.06 139.199 138.84 139.499 139.62C139.859 140.58 140.399 141.96 141.539 142.32C142.439 142.56 143.399 142.56 144.359 142.44C145.139 142.38 145.859 142.2 146.579 141.96C147.479 141.6 148.319 141.06 149.099 140.46L146.159 140.52C147.119 141.36 147.359 142.8 146.999 144.12C147.479 144.24 148.019 144.3 148.499 144.24C148.679 144.24 149.939 144.3 149.999 144.06C150.359 142.74 150.119 141.3 149.279 140.22C149.099 139.98 148.199 140.1 147.959 140.1C147.539 140.1 146.639 139.98 146.339 140.28C145.799 140.7 145.199 141.06 144.599 141.42C144.119 141.66 143.579 141.9 143.039 142.08C142.619 142.14 142.799 142.14 143.699 142.08C144.539 142.14 144.779 142.14 144.479 142.02C144.419 141.96 144.299 141.96 144.239 141.9C144.059 141.78 143.879 141.6 143.699 141.42C142.679 140.28 142.199 138.54 141.899 137.04L138.959 137.16C140.159 137.58 141.479 137.76 142.799 137.7C143.879 137.76 144.959 137.58 145.919 137.22C146.279 137.1 146.639 136.86 146.879 136.62C147.059 136.44 147.839 135.78 147.839 135.48C147.839 135.18 147.239 134.76 147.119 134.58L145.679 132.84L144.359 131.28C144.299 131.22 144.059 131.04 144.059 130.92C144.059 130.8 144.659 130.38 144.779 130.26C146.219 128.94 147.539 127.02 147.719 125.04C147.839 123.24 146.579 121.68 144.839 121.38C142.739 120.96 140.579 121.44 138.779 122.64C137.159 123.96 135.719 125.46 134.459 127.08C133.799 127.92 133.139 128.76 132.419 129.48C131.579 130.32 130.559 130.92 129.479 131.28C128.579 131.58 127.619 131.82 126.659 131.88C126.599 131.88 126.179 131.94 126.599 131.88C126.179 131.94 126.779 131.88 126.479 131.88C126.059 131.88 126.779 131.88 126.419 131.88C125.879 131.88 125.279 131.88 124.739 131.94C124.679 131.94 124.079 132 124.199 132.12C126.059 133.44 127.139 135.72 126.959 138C126.959 138.72 126.839 139.44 126.659 140.16C126.539 140.82 126.479 141.48 126.539 142.14C126.779 146.64 128.819 150.9 132.239 153.9C133.379 154.92 134.579 155.7 135.959 156.36C137.099 156.9 138.419 157.14 139.679 157.02C142.319 156.72 144.959 156.06 147.419 155.04C148.259 154.68 149.579 154.14 150.119 153.3C150.119 153.24 150.239 153.18 150.239 153.12C150.239 152.94 149.459 152.34 149.339 152.16C148.799 151.68 148.379 151.02 148.199 150.3C148.199 149.58 148.319 148.8 148.619 148.14C149.099 146.7 149.579 145.32 149.999 143.88C149.519 143.76 148.979 143.76 148.499 143.76C148.319 143.94 147.059 143.88 146.999 144.12Z" fill="#000005"/>
<path d="M130.739 157.2C130.739 157.2 129.119 162.66 126.119 161.88C123.119 161.1 125.519 158.4 125.519 158.4C125.519 158.4 118.139 158.7 120.119 153.36C120.119 153.36 113.759 154.98 111.959 149.52C110.159 144.06 116.399 139.32 116.399 139.32C116.399 139.32 110.639 136.02 114.299 131.52C117.959 127.02 120.719 130.32 120.719 130.32C120.719 130.32 123.059 127.44 125.039 128.52C127.019 129.6 126.419 132.48 126.419 132.48C126.419 132.48 131.459 136.8 128.039 140.58L132.539 148.98C134.699 149.16 136.619 150.36 137.639 152.28C139.319 155.46 134.219 159.6 130.739 157.2Z" fill="#000005"/>
<path d="M129.36 157.38C129.18 157.92 129 158.46 128.76 158.94C128.58 159.36 128.34 159.78 128.04 160.2C127.8 160.5 127.56 160.8 127.26 161.04C127.44 160.86 127.2 161.04 127.32 161.04C127.2 161.04 127.38 161.04 127.2 161.04C127.08 161.04 126.96 160.98 126.84 160.98C126.42 160.86 126 160.62 125.94 160.14C125.94 159.96 125.94 159.78 126.06 159.6C126.12 159.48 126.18 159.36 126.24 159.24C126.36 159.06 126.48 158.94 126.54 158.76C126.6 158.58 126.84 158.4 126.48 158.82C126.9 158.4 127.14 157.5 126.18 157.56C125.82 157.56 125.52 157.56 125.16 157.56C124.5 157.56 123.84 157.38 123.18 157.2C122.52 157.02 121.92 156.6 121.5 156C121.08 155.16 121.02 154.14 121.44 153.3C121.74 152.4 120.6 152.52 120.12 152.64C120.78 152.46 120.06 152.64 119.82 152.7C119.58 152.76 119.4 152.76 119.16 152.76C118.92 152.76 119.34 152.76 119.04 152.76H118.56C115.62 152.94 113.1 150.72 112.92 147.78C112.92 147.36 112.92 147 112.98 146.58C113.22 144.9 113.94 143.28 115.08 142.02C115.5 141.48 116.04 140.94 116.52 140.46C116.7 140.28 116.88 140.16 117.06 139.98C117.36 139.74 117.12 139.92 117 140.04C117.24 139.8 118.14 139.02 117.48 138.66C115.74 137.64 113.82 135.6 114.48 133.44C114.84 132.42 115.44 131.52 116.28 130.92C116.4 130.8 116.52 130.74 116.64 130.62C116.7 130.62 117.12 130.38 116.88 130.5C117 130.44 117.06 130.44 117.18 130.44C117.06 130.44 117.12 130.44 117.24 130.44C117.36 130.38 117.48 130.38 117.6 130.44C118.02 130.5 118.44 130.68 118.74 130.92C118.86 131.04 118.98 131.1 119.1 131.22C119.22 131.34 119.4 131.58 119.16 131.22C119.82 132 121.2 131.22 121.68 130.62L121.74 130.56C121.44 130.92 121.74 130.56 121.8 130.5C121.98 130.26 122.22 130.08 122.46 129.9C122.52 129.84 122.94 129.6 122.82 129.66C122.88 129.6 123.24 129.48 123.06 129.54C123.3 129.54 123.6 129.6 123.78 129.72C124.44 130.14 124.86 130.92 124.86 131.7C124.86 132.06 124.86 132.36 124.86 132.72C124.86 132.84 124.74 133.38 124.86 132.96C124.8 133.2 124.8 133.38 124.98 133.56C127.02 135.3 128.7 138.42 126.6 140.76C126.42 140.94 126.36 141.24 126.48 141.48L130.5 149.1C130.62 149.46 130.8 149.76 131.04 150.06C131.28 150.24 131.52 150.36 131.82 150.3H131.94C131.76 150.24 132.18 150.36 131.94 150.3C132.12 150.36 132.36 150.36 132.54 150.42C134.34 150.9 136.68 152.7 136.32 154.8C136.08 155.7 135.48 156.48 134.64 156.96C134.22 157.14 133.8 157.26 133.38 157.26C132.78 157.26 132.18 157.02 131.7 156.66C130.8 156.06 128.34 157.68 129.3 158.34C132.72 160.62 138.42 158.1 139.14 154.02C139.68 150.84 135.84 148.44 133.02 148.32L133.68 148.62L129.18 140.22L129.06 140.94C130.56 139.26 130.8 136.86 129.72 134.94C129.12 133.8 128.34 132.84 127.38 132L127.5 132.6C127.92 130.74 127.44 128.34 125.28 127.74C123 127.14 120.6 128.94 119.22 130.62L121.74 130.02C120 127.92 116.94 128.34 114.9 129.78C113.22 130.92 111.66 132.78 111.36 134.82C111.24 136.26 111.78 137.64 112.8 138.66C113.4 139.32 114.06 139.92 114.84 140.4L115.38 139.08C112.92 141 110.7 143.76 110.1 146.88C109.68 149.04 110.28 151.26 111.78 152.88C113.04 154.08 114.66 154.74 116.4 154.8C117.54 154.86 118.74 154.8 119.88 154.5L118.56 153.84C118.08 154.92 118.08 156.18 118.5 157.26C118.98 158.1 119.76 158.76 120.72 159.06C121.98 159.54 123.3 159.72 124.56 159.66L124.26 158.4C123.6 159.18 122.82 160.2 122.94 161.34C123.12 163.14 125.64 163.44 127.02 163.08C129.54 162.3 131.1 159.72 131.82 157.32C132.48 155.58 129.66 156.36 129.36 157.38Z" fill="#000005"/>
<path d="M129.539 140.52C129.539 140.52 125.279 138.84 124.379 142.08C123.479 145.32 131.459 151.56 134.219 146.52" fill="white"/>
<path d="M130.8 140.04C129.54 139.56 128.16 139.38 126.78 139.5C124.98 139.68 122.82 140.7 122.82 142.8C122.82 144.24 123.96 145.62 124.98 146.52C126.3 147.78 127.98 148.62 129.78 148.92C132.06 149.28 134.58 148.56 135.72 146.46C136.02 145.92 134.88 145.86 134.58 145.86C134.04 145.86 133.08 145.92 132.78 146.46C132.66 146.76 132.42 147 132.24 147.24C132.12 147.36 132 147.42 131.88 147.54C131.76 147.66 131.64 147.66 131.82 147.6L131.58 147.72H131.52C131.7 147.66 131.7 147.66 131.58 147.72C131.58 147.72 131.22 147.84 131.52 147.78C131.82 147.72 131.52 147.78 131.46 147.78C131.16 147.84 131.82 147.72 131.52 147.78C131.34 147.78 131.46 147.84 131.64 147.78C131.58 147.78 131.46 147.78 131.4 147.78C131.28 147.78 131.22 147.72 131.52 147.78C131.4 147.78 131.28 147.78 131.22 147.72C130.92 147.66 131.16 147.66 131.22 147.72L130.98 147.66C130.86 147.6 130.68 147.6 130.5 147.54L130.26 147.42C130.08 147.36 129.9 147.24 129.72 147.18C129.12 146.88 128.58 146.52 128.1 146.04C127.14 145.26 126.42 144.24 126 143.1C125.82 142.62 125.82 142.08 126.06 141.6C126.18 141.3 126.36 141.06 126.54 140.88C126.6 140.82 126.66 140.76 126.78 140.7H126.84C126.9 140.64 127.2 140.58 126.84 140.7C127.08 140.64 126.96 140.58 126.78 140.7C126.84 140.7 126.96 140.64 127.02 140.64C126.9 140.58 126.66 140.64 126.96 140.64H127.2C126.78 140.64 127.32 140.64 127.44 140.7C127.56 140.76 127.56 140.7 127.62 140.7C127.38 140.64 127.68 140.7 127.62 140.7C127.86 140.76 128.1 140.82 128.28 140.88C128.4 140.94 128.76 141.06 128.34 140.88C129 141.12 129.72 141.12 130.38 140.88C130.62 140.76 131.46 140.28 130.8 140.04Z" fill="#000005"/>
<path d="M132.539 134.04C132.839 133.74 133.319 133.8 133.619 134.1L133.679 134.16C134.159 134.82 133.319 135.42 132.719 134.94C132.419 134.76 132.299 134.4 132.479 134.16C132.479 134.1 132.479 134.04 132.539 134.04Z" fill="#000005"/>
<path d="M174.301 131.1C174.301 131.1 178.081 168.48 178.081 169.2C178.081 169.92 161.101 167.94 161.101 167.16C161.101 166.38 161.581 137.7 161.581 137.7C159.121 136.38 157.381 134.34 156.241 129.78C154.801 124.14 161.521 120 161.641 127.32C161.701 131.4 165.001 131.64 165.001 131.64" fill="white"/>
<path d="M172.981 131.82C173.641 138.66 174.361 145.56 175.081 152.4C175.501 156.78 175.981 161.22 176.401 165.6C176.521 166.8 176.641 168.06 176.761 169.26C176.761 169.5 176.761 169.68 176.821 169.92C177.541 169.32 178.321 168.9 179.221 168.66C179.161 168.66 179.041 168.66 178.921 168.66C178.621 168.66 178.321 168.66 178.021 168.66C173.641 168.48 169.201 168 164.881 167.16C164.341 167.1 162.601 166.98 162.481 166.32C162.421 165.9 162.421 165.54 162.481 165.12C162.481 164.4 162.481 163.68 162.481 162.96C162.601 154.56 162.721 146.16 162.901 137.76C162.961 137.52 162.961 137.22 162.901 136.98C162.781 136.74 162.061 136.44 161.821 136.32C161.221 135.9 160.741 135.42 160.261 134.94C159.241 133.68 158.461 132.18 157.981 130.56C157.501 129.12 157.141 127.62 157.561 126.12C157.681 125.58 157.921 125.04 158.221 124.56C158.521 124.14 158.881 123.78 159.241 123.42C158.881 123.9 157.081 124.2 158.041 124.14C158.221 124.14 158.401 124.14 158.581 124.2C159.001 124.32 159.361 124.62 159.541 124.98C160.381 126.24 160.141 127.74 160.381 129.12C160.561 130.32 161.281 131.34 162.301 131.94C162.721 132.18 163.201 132.3 163.741 132.36C164.281 132.42 165.001 131.82 165.421 131.64C165.541 131.58 166.381 130.98 166.261 130.98C164.041 130.86 163.021 128.64 162.961 126.66C162.901 125.46 162.841 123.9 161.821 123.12C160.981 122.46 160.021 122.82 159.181 123.18C157.921 123.78 156.541 124.44 155.701 125.64C155.041 126.66 154.681 127.86 154.741 129.12C154.861 130.92 155.401 132.72 156.301 134.34C156.961 135.66 157.921 136.86 159.121 137.76C159.601 138.12 160.261 138.18 160.261 138.78C160.261 139.26 160.261 139.74 160.261 140.22L160.201 145.86C160.141 150.84 160.021 155.88 159.961 160.92C159.961 162.72 159.901 164.58 159.901 166.38C159.901 166.8 159.901 167.28 159.901 167.7C159.901 168 159.961 168 160.261 168.12C161.881 168.72 163.801 168.84 165.541 169.08C168.001 169.44 170.521 169.74 172.981 169.92C173.881 169.98 174.841 170.04 175.741 170.1C176.521 170.1 177.301 169.92 178.021 169.56C178.561 169.32 179.521 169.02 179.521 168.36C179.521 168 179.461 167.58 179.401 167.22C179.041 163.44 178.681 159.66 178.261 155.94C177.781 150.84 177.241 145.8 176.761 140.7C176.461 137.46 176.101 134.22 175.801 130.98L175.741 130.5C175.261 130.62 174.781 130.8 174.301 131.04C174.061 131.04 172.921 131.52 172.981 131.82Z" fill="#000005"/>
<path d="M186.901 73.8002C172.201 76.5002 157.861 81.9002 149.101 99.9002L121.98 53.2802C131.22 36.1802 147.121 32.9402 162.601 31.2002L186.901 73.8002Z" fill="#07306B"/>
<path d="M226.2 50.3998C220.5 67.1998 204.72 71.6398 186.9 73.7998L162.539 31.1999C180.419 29.1599 197.939 29.1599 204.719 12.4199L226.2 50.3998Z" fill="#E81B16"/>
<path d="M209.429 68.4658C198.329 74.7658 187.05 71.1658 169.95 78.9658L149.129 33.3658C166.529 29.7658 182.698 29.3996 190.229 26.4658L209.429 68.4658Z" fill="#F0F0F0"/>
<path d="M213.539 213C213.539 213 122.339 50.94 120.299 51C118.259 51.06 120.359 53.52 123.959 60.9C127.559 68.28 211.799 213.84 211.799 213.84L213.539 213Z" fill="#000005"/>
<path d="M153.18 272.22C153.18 272.22 150 287.04 150.36 287.04C150.72 287.04 156.18 286.86 156.18 286.86V281.4L158.82 287.4L176.94 286.32C176.94 286.32 177.54 284.34 173.46 282.18C169.38 280.02 162.84 276.9 162.84 276.9L167.34 268.56L153.18 272.22Z" fill="#000005"/>
<path d="M128.039 260.28C128.039 260.28 114.599 267.3 114.839 267.6C115.079 267.9 118.679 271.92 118.679 271.92L122.879 268.44L119.939 274.32L132.359 287.58C132.359 287.58 134.219 286.8 133.319 282.24C132.419 277.68 130.559 270.72 130.559 270.72L139.859 268.86L128.039 260.28Z" fill="#000005"/>
<path d="M151.319 203.16C151.319 203.16 155.819 237.96 122.699 259.14L137.219 274.86C137.219 274.86 159.599 262.56 166.259 240.36C172.919 218.16 160.199 203.22 160.199 203.22L151.319 203.16Z" fill="white"/>
<path d="M149.998 202.62C150.538 206.76 150.178 211.38 149.518 215.58C148.078 225.54 144.178 234.96 138.178 243C133.558 249.12 127.858 254.34 121.378 258.42C121.258 258.54 121.318 258.6 121.378 258.72L134.158 272.52L135.958 274.44C136.318 274.8 136.798 275.04 137.218 275.22C137.458 275.34 138.178 275.64 138.478 275.52C141.598 273.72 144.598 271.68 147.358 269.34C153.598 264.36 158.938 258.3 163.018 251.46C167.998 242.94 170.398 232.98 169.258 223.2C168.538 216.78 166.318 210.66 162.718 205.26C161.758 203.82 160.858 202.56 158.878 202.5C156.238 202.44 153.538 202.5 150.898 202.44H150.178C149.518 202.44 150.298 203.04 150.478 203.1C151.018 203.52 151.738 203.76 152.398 203.82L161.338 203.88L158.938 202.86C160.798 205.2 162.358 207.84 163.438 210.66C166.258 217.32 167.338 224.58 166.498 231.78C165.478 240 162.358 247.8 157.498 254.52C153.658 259.8 149.158 264.54 144.058 268.56C142.318 269.94 140.578 271.26 138.718 272.46C137.818 273.06 136.858 273.54 136.018 274.14L135.898 274.2L138.418 275.22L125.638 261.42L123.838 259.5V259.8C134.518 252.96 143.158 243.3 148.018 231.54C151.078 224.16 152.698 216.24 152.758 208.2C152.758 206.64 152.698 205.14 152.518 203.64C152.458 203.16 151.318 202.8 150.958 202.62C150.958 202.56 149.938 202.2 149.998 202.62Z" fill="#000005"/>
<path d="M178.979 187.02C178.979 187.02 186.899 209.4 185.219 232.44C183.539 255.48 168.839 274.92 168.839 274.92L147.059 274.62C147.059 274.62 172.739 221.28 151.319 203.16L178.979 187.02Z" fill="white"/>
<path d="M177.661 187.619C178.741 190.859 179.701 194.159 180.481 197.519C182.401 205.259 183.541 213.179 184.021 221.159C184.441 229.919 183.781 238.559 181.321 247.019C179.341 253.679 176.641 260.159 173.221 266.219C171.541 269.279 169.741 271.919 167.821 274.799C167.821 274.859 167.761 274.859 167.761 274.919L169.681 274.019L150.541 273.719L147.841 273.659L148.441 274.319C149.281 272.519 150.121 270.659 150.841 268.859C152.701 264.359 154.381 259.739 155.881 255.119C157.801 249.179 159.301 243.119 160.321 236.939C161.281 230.879 161.701 224.639 160.801 218.579C159.961 213.119 157.981 207.779 154.081 203.759C153.601 203.279 153.121 202.799 152.581 202.379L152.041 203.639L161.341 198.179L176.281 189.479L179.701 187.499C180.061 187.259 180.721 186.659 180.301 186.239C179.881 185.819 178.801 186.359 178.441 186.539L169.141 191.999L154.201 200.699L150.781 202.679C150.421 202.859 149.701 203.519 150.241 203.939C154.381 207.479 156.721 212.519 157.801 217.799C159.001 223.679 158.701 229.859 157.921 235.739C157.081 241.859 155.701 247.859 153.841 253.739C152.341 258.599 150.661 263.339 148.741 268.019C147.841 270.239 146.761 272.399 145.861 274.619L145.801 274.739C145.561 275.219 145.981 275.399 146.401 275.399L162.541 275.639C164.401 275.639 166.321 275.759 168.181 275.699C169.381 275.639 169.981 274.979 170.581 274.139C171.181 273.299 171.721 272.519 172.261 271.679C177.241 264.119 181.081 255.899 183.721 247.259C185.521 241.439 186.541 235.439 186.781 229.379C187.021 222.839 186.661 216.299 185.761 209.879C184.741 202.019 182.941 194.219 180.481 186.659C180.421 186.539 180.421 186.419 180.361 186.299C180.061 185.459 177.301 186.659 177.661 187.619Z" fill="#000005"/>
<path d="M149.038 206.1C149.038 206.1 181.678 192.9 180.598 186.66C179.518 180.42 155.398 148.44 142.198 154.62C129.058 160.86 149.038 206.1 149.038 206.1Z" fill="#000005"/>
<path d="M150.12 206.64C153.18 205.38 156.24 204.06 159.24 202.62C164.76 200.1 170.22 197.4 175.32 194.1C177.3 192.84 179.28 191.46 180.84 189.66C181.38 189.12 181.8 188.4 182.04 187.68C182.22 187.02 182.16 186.36 181.92 185.76C181.26 183.96 180.36 182.28 179.28 180.72C177.72 178.26 176.04 175.92 174.24 173.64C170.1 168.36 165.42 163.32 160.08 159.18C155.64 155.76 150 152.46 144.18 153.3C141.96 153.54 139.86 154.68 138.42 156.42C137.28 158.1 136.56 160.08 136.38 162.06C135.66 167.52 136.8 173.28 138.06 178.56C139.5 184.38 141.3 190.14 143.4 195.78C144.66 199.14 145.98 202.5 147.36 205.86L147.6 206.34C147.96 207.18 150.96 206.88 150.48 205.86C149.46 203.64 148.56 201.36 147.66 199.02C145.68 193.92 143.88 188.7 142.38 183.42C140.82 177.9 139.44 172.14 139.2 166.38C139.02 164.1 139.2 161.82 139.8 159.66C140.04 158.76 140.46 157.92 140.94 157.14C141.36 156.48 141.9 155.94 142.56 155.46C142.56 155.46 142.92 155.28 143.04 155.16L143.34 155.04C143.58 154.92 143.28 155.04 143.52 154.98C143.76 154.92 144.06 154.8 144.3 154.74C144.54 154.68 144.06 154.74 144.42 154.74L144.84 154.68L145.2 154.62C144.78 154.68 145.26 154.62 145.32 154.62H145.68C145.74 154.62 146.16 154.62 145.98 154.62H146.22L146.7 154.68L147.12 154.74C147.42 154.8 147 154.74 147.36 154.8C149.88 155.4 152.28 156.48 154.44 157.92C159.84 161.4 164.52 166.14 168.72 171C172.2 175.08 175.62 179.46 178.02 184.26C178.38 184.92 178.62 185.58 178.86 186.3C178.92 186.54 178.98 186.78 178.98 187.02C178.98 187.26 178.98 187.5 178.86 187.74C178.26 189.36 176.7 190.5 175.26 191.58C170.76 195 165.48 197.58 160.38 200.04C156.48 201.96 152.46 203.7 148.44 205.38L147.78 205.68C147.18 205.92 147.3 206.46 147.78 206.7C148.68 206.94 149.46 206.94 150.12 206.64Z" fill="#000005"/>
<path d="M162.658 126.24C162.178 123.9 161.818 121.56 161.638 119.22C161.158 114.36 163.858 113.46 165.298 118.32C166.138 121.02 166.678 123.72 166.858 126.54L162.658 126.24Z" fill="white"/>
<path d="M164.039 125.88C164.099 126 164.159 126.3 164.099 126.06C164.099 125.88 164.039 125.76 163.979 125.58C163.859 124.98 163.739 124.32 163.679 123.72C163.499 122.64 163.379 121.62 163.259 120.54C163.199 119.88 163.139 119.28 163.079 118.62C163.079 118.38 163.079 118.08 163.079 117.78C163.079 117.48 163.079 117.9 163.079 117.66C163.079 117.54 163.079 117.42 163.139 117.3C163.199 117.12 163.199 116.88 163.259 116.7C163.259 116.64 163.319 116.46 163.319 116.46C163.319 116.46 163.139 116.76 163.259 116.58C163.259 116.52 163.319 116.52 163.319 116.46C163.319 116.4 163.379 116.34 163.439 116.28C163.559 116.04 163.439 116.34 163.379 116.34C163.439 116.28 163.499 116.28 163.499 116.22C163.499 116.22 163.199 116.4 163.439 116.28C163.679 116.16 163.079 116.4 163.319 116.34C163.379 116.34 162.899 116.4 163.139 116.4C163.199 116.4 162.719 116.34 162.959 116.4C162.959 116.4 162.539 116.22 162.839 116.4C162.899 116.46 162.539 116.16 162.719 116.34L162.899 116.46C162.719 116.22 163.139 116.64 162.899 116.46C162.959 116.52 163.019 116.64 163.079 116.7L163.259 116.94C163.259 117 163.319 117 163.319 117.06C163.139 116.82 163.259 117 163.319 117.06C163.439 117.3 163.559 117.54 163.619 117.78C163.859 118.38 164.039 119.04 164.219 119.7C164.279 120 164.399 120.3 164.459 120.6C164.519 120.9 164.579 121.08 164.639 121.38C164.759 121.92 164.879 122.52 164.999 123.06C165.239 124.26 165.359 125.46 165.479 126.72L166.859 125.4L162.659 125.1C161.939 125.04 161.339 125.58 161.279 126.3C161.279 126.36 161.279 126.36 161.279 126.42C161.399 127.2 162.119 127.74 162.899 127.68L167.099 127.98C167.819 128.04 168.419 127.5 168.479 126.78V126.72C168.419 125.58 168.299 124.38 168.059 123.24C167.819 121.92 167.519 120.54 167.159 119.22C166.859 117.9 166.379 116.7 165.659 115.56C165.059 114.66 164.099 114.06 163.019 114C162.059 114 161.159 114.6 160.739 115.5C160.319 116.58 160.139 117.72 160.199 118.86C160.259 120.18 160.439 121.5 160.619 122.82C160.799 124.14 160.979 125.46 161.279 126.78C161.459 127.5 162.539 127.86 163.199 127.68C163.859 127.56 164.279 126.96 164.159 126.3C164.099 126.06 164.099 126 164.039 125.88Z" fill="#000005"/>
<path d="M171.12 128.88C171.12 128.88 170.1 125.64 167.34 125.4C164.58 125.16 162.24 129.06 163.32 130.56C164.4 132.06 167.82 128.82 167.82 128.82" fill="white"/>
<path d="M172.559 128.46C172.199 127.44 171.599 126.54 170.819 125.76C169.079 124.26 166.499 124.08 164.519 125.28C163.019 126.12 161.639 127.86 161.519 129.6C161.399 130.38 161.759 131.1 162.359 131.52C163.259 132.06 164.459 131.76 165.419 131.4C166.739 130.86 167.879 130.02 168.899 129.06C169.199 128.82 169.259 128.46 169.019 128.16C168.899 128.04 168.779 127.92 168.599 127.92C167.879 127.8 167.099 127.98 166.559 128.46C166.379 128.64 166.139 128.82 165.959 129C166.259 128.7 165.959 129 165.839 129.06L165.479 129.3C165.239 129.48 164.939 129.66 164.699 129.78C164.459 129.9 164.999 129.66 164.759 129.72L164.579 129.84C164.459 129.9 164.339 129.9 164.219 129.96C164.459 129.78 164.519 129.84 164.339 129.9C164.159 129.96 164.159 129.84 164.459 129.9C164.399 129.9 164.339 129.9 164.279 129.9C164.579 129.9 164.639 129.9 164.459 129.9C164.279 129.9 164.399 129.9 164.639 129.9C164.399 129.84 164.819 130.02 164.639 129.9C164.459 129.78 164.759 130.08 164.639 129.9C164.639 129.84 164.579 129.78 164.519 129.78C164.399 129.66 164.579 129.96 164.519 129.78C164.519 129.72 164.459 129.66 164.459 129.6C164.399 129.48 164.399 129.36 164.399 129.24C164.399 129.48 164.399 129.24 164.399 129.18C164.399 129.12 164.399 129.06 164.399 128.94C164.399 128.76 164.459 128.64 164.459 128.46C164.459 128.4 164.519 128.34 164.519 128.22C164.519 128.1 164.579 127.98 164.579 128.1C164.579 128.22 164.639 127.98 164.639 127.98C164.699 127.86 164.759 127.8 164.819 127.68C164.879 127.5 164.999 127.38 165.119 127.2C165.179 127.14 165.239 127.08 165.299 126.96C165.179 127.08 165.479 126.72 165.299 126.96C165.419 126.84 165.539 126.72 165.659 126.6C165.779 126.48 165.779 126.48 165.839 126.42L165.959 126.3C165.839 126.42 165.779 126.42 165.899 126.36L166.139 126.18C166.259 126.24 166.379 126 166.139 126.18C166.259 126.12 166.439 126.06 166.559 126C166.259 126.18 166.379 126.06 166.499 126C166.799 125.94 166.139 126.06 166.439 126H166.499C166.619 126 166.619 126 166.379 126C166.499 126 166.619 126 166.739 126C166.499 126 166.619 126 166.679 126L166.979 126.06C167.039 126.06 167.339 126.18 167.039 126.06C167.099 126.12 167.219 126.12 167.279 126.18C167.459 126.24 167.579 126.36 167.759 126.42C167.759 126.42 167.999 126.6 167.819 126.48L167.999 126.66C168.299 126.9 168.539 127.2 168.719 127.5C168.779 127.62 168.899 127.74 168.959 127.86L169.079 128.04C169.199 128.28 169.079 127.98 169.139 128.1C169.259 128.34 169.379 128.64 169.499 128.94C169.679 129.54 170.699 129.48 171.179 129.36C171.659 129.24 172.799 129.06 172.559 128.46Z" fill="#000005"/>
<path d="M174.299 131.1C174.299 131.1 173.28 127.86 170.52 127.62C167.76 127.38 165.419 131.28 166.499 132.78C167.579 134.28 170.999 131.04 170.999 131.04" fill="white"/>
<path d="M175.679 131.04C174.659 127.8 170.699 125.52 167.579 127.32C165.959 128.22 164.939 129.84 164.759 131.64C164.699 133.8 167.159 134.7 168.899 134.04C170.159 133.5 171.299 132.72 172.259 131.76C172.439 131.52 172.439 131.22 172.319 131.04C172.139 130.74 171.899 130.5 171.599 130.38C170.999 130.02 170.219 130.08 169.619 130.5L169.439 130.62C169.139 130.8 169.379 130.68 169.439 130.62C169.319 130.68 169.259 130.74 169.199 130.86C168.779 131.22 168.299 131.58 167.759 131.88C167.639 131.94 167.519 132 167.339 132.12C167.279 132.12 167.219 132.18 167.219 132.18C167.339 132.12 167.519 132.12 167.219 132.18L166.859 132.3C166.619 132.36 167.159 132.24 166.919 132.3C166.559 132.36 167.219 132.36 166.979 132.3C166.739 132.24 167.339 132.36 167.159 132.36C166.979 132.36 167.579 132.54 167.339 132.42L167.579 132.54C167.459 132.48 167.519 132.48 167.699 132.66C167.519 132.48 167.759 132.72 167.699 132.72C167.639 132.72 167.579 132.12 167.639 132.6C167.639 132.48 167.579 132.36 167.579 132.24C167.579 132.12 167.579 132.12 167.579 132C167.579 132.24 167.579 132.06 167.579 131.94C167.579 131.82 167.639 131.64 167.699 131.46C167.759 131.28 167.759 131.16 167.819 131.04L167.879 130.86C167.879 130.8 168.059 130.5 167.939 130.68C168.119 130.38 168.299 130.08 168.539 129.84C168.659 129.72 168.779 129.6 168.899 129.48L169.079 129.3C168.899 129.48 169.199 129.24 169.199 129.18C169.319 129.06 169.499 129 169.679 128.88L169.859 128.82C170.099 128.7 169.619 128.88 169.919 128.82C170.039 128.76 170.279 128.64 170.459 128.7L170.279 128.76C170.339 128.76 170.399 128.76 170.459 128.76C170.819 128.7 170.279 128.7 170.519 128.76H170.699C170.399 128.64 171.059 128.76 170.699 128.76C170.759 128.82 170.879 128.82 170.999 128.82C170.819 128.88 170.699 128.7 170.939 128.82C170.999 128.88 171.119 128.88 171.179 128.94C170.939 128.76 171.479 129.06 171.179 128.94L171.599 129.24L171.839 129.48C171.959 129.6 172.079 129.78 172.199 129.9C172.319 130.02 172.199 129.84 172.139 129.84C172.199 129.9 172.259 130.02 172.259 130.08C172.259 130.14 172.439 130.32 172.499 130.44C172.619 130.68 172.739 130.98 172.859 131.28C173.039 131.58 173.279 131.82 173.579 131.94C173.939 132.12 174.299 132.18 174.719 132.18C175.499 132.06 175.919 131.7 175.679 131.04Z" fill="#000005"/>
<path d="M169.978 140.1C168.958 143.76 168.658 148.08 172.438 151.2C172.438 151.2 175.618 162.54 173.638 165C171.658 167.46 160.738 162.6 160.738 162.6L154.738 179.1C154.738 179.1 172.258 189.96 183.718 177.66C190.378 170.52 184.978 151.86 184.978 151.86C184.138 146.88 190.438 141.96 189.358 139.98C188.278 138 184.738 140.64 184.138 142.32C184.138 142.32 184.498 138.54 180.238 138.66C180.238 138.66 180.058 137.4 178.198 135.12C176.338 132.84 174.598 133.44 174.598 133.44C172.978 134.16 173.098 135.42 174.418 137.82C176.578 141.78 173.938 146.76 173.938 146.76" fill="white"/>
<path d="M168.541 139.62C167.521 143.4 167.521 147.42 170.461 150.36C170.761 150.66 170.941 150.72 171.061 151.08C171.181 151.44 171.241 151.8 171.361 152.16C171.661 153.42 171.961 154.68 172.201 155.94C172.501 157.44 172.681 158.94 172.801 160.44C172.921 161.64 172.861 162.78 172.501 163.92C171.661 165.96 168.361 164.82 167.041 164.46C166.561 164.34 166.561 164.34 166.081 164.16L165.001 163.8L163.921 163.44C164.221 163.56 163.741 163.38 163.681 163.32L163.201 163.2C162.541 162.96 161.881 162.66 161.281 162.36C161.101 162.3 159.541 161.64 159.361 162.06L154.081 176.46L153.301 178.56C153.241 178.68 153.541 178.92 153.661 178.92C157.201 181.02 161.101 182.52 165.121 183.36C168.301 184.14 171.601 184.2 174.841 183.72C178.441 183.06 181.741 181.38 184.381 178.86C188.881 174.48 188.821 167.46 188.161 161.64C187.861 159.18 187.441 156.72 186.901 154.26C186.781 153.66 186.601 153.06 186.421 152.4C186.241 151.44 186.241 150.48 186.541 149.52C187.081 147.9 187.861 146.34 188.881 144.9C189.601 143.82 190.561 142.62 190.861 141.36C191.221 139.8 189.421 139.08 188.161 138.78C186.481 138.36 185.101 139.02 183.841 140.16C183.361 140.58 182.941 141.12 182.641 141.72L185.461 142.68C185.761 139.26 181.741 137.94 178.981 137.94L181.561 138.9C181.321 137.52 180.241 136.14 179.341 135.12C178.081 133.62 175.741 132.42 173.701 132.6C173.221 132.66 172.741 132.9 172.381 133.26C171.901 133.86 171.841 134.64 172.081 135.3C172.381 136.44 173.161 137.4 173.461 138.54C173.761 139.62 173.821 140.76 173.701 141.84C173.521 143.34 173.101 144.78 172.441 146.1C172.261 146.46 174.961 147.66 175.261 147.06C176.461 144.66 177.061 141.6 176.161 139.02C175.741 137.76 173.941 135.72 175.021 134.34C175.261 134.1 175.501 133.86 175.861 133.74C175.981 133.68 175.801 133.74 175.981 133.74C176.041 133.74 176.281 133.68 176.161 133.74C176.221 133.74 176.401 133.8 176.161 133.74C176.041 133.68 175.861 133.62 175.681 133.62C175.441 133.56 175.801 133.68 175.861 133.8C176.161 134.04 176.401 134.28 176.641 134.58C177.421 135.54 178.441 136.86 178.681 138.12C178.741 138.42 179.581 138.72 179.761 138.78C180.241 138.96 180.721 139.08 181.261 139.08C181.441 139.08 181.681 139.08 181.861 139.08C181.921 139.02 181.861 139.08 181.801 139.08C181.201 138.66 181.681 139.08 181.801 139.2C182.101 139.5 182.281 139.86 182.401 140.28C182.581 140.7 182.581 141.18 182.581 141.66C182.521 142.26 185.221 143.1 185.401 142.62C186.001 141.36 187.021 140.4 188.341 139.92C188.881 139.68 189.541 139.86 188.401 139.5C187.261 139.14 187.801 139.2 187.921 139.74C187.981 140.16 187.861 140.58 187.681 140.94C187.081 142.14 186.361 143.34 185.581 144.42C184.681 145.74 183.961 147.24 183.541 148.74C183.181 150.3 183.541 151.5 183.901 153C184.441 155.16 184.801 157.32 185.101 159.48C185.521 162.3 185.581 165.24 185.401 168.06C185.161 170.76 184.621 173.58 183.061 175.86C181.261 178.56 178.141 180.66 175.081 181.74C172.201 182.7 169.081 183 166.081 182.58C164.821 182.4 163.501 182.16 162.301 181.8C161.341 181.5 160.321 181.2 159.361 180.78L158.641 180.48L158.341 180.36L158.101 180.24L157.621 180C157.441 179.94 157.261 179.82 157.081 179.7C156.781 179.58 156.541 179.4 156.241 179.28L155.941 179.1C156.121 179.16 156.241 179.28 155.941 179.1C155.881 179.1 155.821 179.04 155.761 178.98L156.061 179.34L161.341 164.94L162.121 162.84L160.201 162.54C162.061 163.38 164.041 164.1 165.961 164.7C167.521 165.24 169.141 165.66 170.821 165.9C171.961 166.08 173.341 166.26 174.421 165.72C175.321 165.24 175.561 164.1 175.621 163.2C175.681 161.76 175.621 160.32 175.381 158.88C175.141 157.38 174.841 155.82 174.541 154.32C174.301 153.42 174.181 152.46 173.881 151.56C173.701 150.96 173.041 150.66 172.621 150.18C171.841 149.28 171.301 148.26 171.001 147.12C170.401 144.9 170.761 142.56 171.361 140.4C171.601 140.1 168.721 139.2 168.541 139.62Z" fill="#000005"/>
<path d="M185.098 144.54L185.458 142.56L185.518 142.26C185.578 142.14 185.578 142.02 185.518 141.84C185.518 141.72 185.458 141.6 185.338 141.48C185.098 141.3 184.798 141.18 184.498 141.24C184.078 141.24 183.718 141.42 183.418 141.6L183.118 141.84C182.938 141.96 182.818 142.2 182.758 142.38L182.398 144.36L182.338 144.66C182.278 144.78 182.278 144.9 182.338 145.08C182.338 145.2 182.398 145.32 182.518 145.44C182.758 145.62 183.058 145.74 183.358 145.68C183.778 145.68 184.138 145.5 184.438 145.32L184.738 145.08C184.858 144.9 184.978 144.72 185.098 144.54Z" fill="#000005"/>
<path d="M181.858 144.06C182.218 142.32 182.158 140.52 181.678 138.84C181.618 138.66 181.258 138.42 181.078 138.36C180.718 138.18 180.358 138.12 179.938 138.06C179.638 138.06 178.618 138 178.798 138.54C178.918 138.96 179.038 139.44 179.098 139.86V139.68C179.278 140.94 179.218 142.2 178.978 143.4C178.918 143.58 179.218 143.82 179.338 143.88C179.638 144.06 179.998 144.18 180.358 144.24C180.718 144.3 181.078 144.36 181.438 144.3C181.558 144.36 181.798 144.3 181.858 144.06Z" fill="#000005"/>
</svg>
