<svg width="400" height="400" viewBox="0 0 400 400" fill="none" xmlns="http://www.w3.org/2000/svg">
<path d="M41.5998 203.359C41.5998 203.359 68.3998 161.199 104.24 165.839C140.08 170.479 176.64 257.039 174 272.879C171.36 288.719 46.5598 270.559 38.4798 263.359C30.3998 256.159 41.5998 203.359 41.5998 203.359Z" fill="white"/>
<path d="M42.8797 204.96C44.7997 202.08 46.8797 199.28 49.1197 196.64C54.1597 190.48 59.8397 184.96 66.0797 180.08C73.5197 174.4 82.0797 169.76 91.3597 168C99.4397 166.4 107.76 166.88 115.12 170.64C121.84 174.08 127.52 179.28 132.56 184.88C135.28 187.92 137.84 191.12 140.24 194.48C142.88 198.08 145.36 201.84 147.68 205.76C152.48 213.68 156.8 221.84 160.56 230.16C163.92 237.52 166.88 245.04 169.36 252.64C171.04 257.84 172.64 263.28 172.88 268.72C172.96 270 173.04 271.52 172.24 272.64C171.44 273.68 170.4 274.48 169.12 274.88C165.12 276.64 160.4 277.04 156.08 277.36C149.44 277.76 142.88 277.84 136.24 277.52C128.4 277.2 120.56 276.64 112.72 275.92C104.48 275.12 96.3197 274.16 88.0797 273.04C80.5597 272 72.9597 270.8 65.4397 269.44C59.5197 268.4 53.5997 267.2 47.8397 265.76C44.5597 264.96 40.8797 264.16 37.9997 262.48L37.7597 262.32C37.5197 262.16 37.8397 262.4 37.5997 262.24C37.3597 262.08 37.5197 262.16 37.5197 262.16C37.5197 262.16 37.9197 262.64 38.0797 262.8C38.2397 262.96 38.3197 263.12 38.3997 263.28C38.2397 263.04 38.5597 263.52 38.3997 263.28C38.3197 263.2 38.3197 263.04 38.2397 262.96C38.1597 262.88 38.0797 262.56 37.9997 262.32C37.7597 261.76 37.5997 261.2 37.5197 260.64C36.8797 257.6 36.6397 254.48 36.7197 251.36C36.8797 243.2 37.5997 235.12 38.8797 227.04C39.7597 220.64 40.8797 214.24 42.1597 207.92C42.4797 206.96 42.6397 206 42.8797 204.96C42.9597 204.56 42.1597 203.6 41.8397 203.28C41.7597 203.12 40.3997 201.84 40.3997 201.84C39.5997 205.68 38.8797 209.6 38.2397 213.52C36.8797 221.52 35.6797 229.6 34.9597 237.68C34.5597 241.6 34.3997 245.52 34.3997 249.52C34.3197 252.56 34.7197 255.6 35.4397 258.56C36.1597 261.28 37.7597 263.6 39.9997 265.28C41.0397 265.92 42.1597 266.48 43.3597 266.8C47.8397 268.32 52.4797 269.52 57.1197 270.48C63.9197 271.92 70.7997 273.2 77.6797 274.24C85.7597 275.52 93.7597 276.64 101.84 277.6C110.08 278.56 118.4 279.44 126.72 280C134.24 280.56 141.76 280.88 149.28 280.88C155.04 280.96 160.72 280.56 166.4 279.6C169.12 279.12 173.36 278.32 174.96 275.6C175.68 274.4 175.52 272.72 175.44 271.36C175.28 268.88 174.88 266.48 174.24 264.16C172.56 257.12 170.32 250.24 167.52 243.6C164.16 235.2 160.4 226.96 156.08 219.04C151.52 210.48 146.48 202.32 140.8 194.48C135.52 187.2 129.6 180.16 122.72 174.32C117.44 169.84 111.2 165.84 104.24 164.56C94.7197 162.88 84.7997 164.96 76.1597 169.12C67.9197 173.04 60.5597 178.72 54.0797 185.2C49.6797 189.6 45.5997 194.4 41.9997 199.52C41.4397 200.24 40.9597 201.04 40.3997 201.84C40.1597 202.16 41.1997 203.36 41.4397 203.6C41.6797 203.84 42.7997 205.12 42.8797 204.96Z" fill="#000005"/>
<path d="M69.4402 146.72C69.4402 146.72 51.1202 152.08 47.3602 144.8C43.6002 137.52 55.8402 138.24 55.8402 138.24C55.8402 138.24 40.5602 123.92 59.3602 119.44C59.3602 119.44 42.4002 109.12 53.9202 96.9595C65.4402 84.7995 90.9602 89.7595 90.9602 89.7595C90.9602 89.7595 88.8002 72.7995 108.4 73.2795C128 73.7595 124.24 84.3195 124.24 84.3195C124.24 84.3195 136.8 84.4795 137.68 90.2395C138.56 95.9995 129.44 99.1995 129.44 99.1995C129.44 99.1995 127.44 116.16 110.24 115.2L95.7602 137.52C95.7602 137.52 102.24 144.64 96.6402 153.04C91.0402 161.44 69.5202 157.6 69.4402 146.72Z" fill="#000005"/>
<path d="M68.2397 145.28C63.8397 146.64 59.1997 147.28 54.5597 147.04C53.9197 147.04 53.2797 146.96 52.6397 146.8C52.2397 146.72 51.9197 146.64 51.5197 146.56C51.5197 146.56 50.9597 146.4 51.2797 146.48C51.0397 146.4 50.7997 146.32 50.6397 146.24L50.2397 146.08C49.9197 145.92 50.6397 146.32 50.1597 146.08L49.7597 145.84C49.2797 145.52 50.0797 146.16 49.6797 145.76C49.3597 145.52 49.0397 145.12 48.8797 144.72C48.3197 143.6 48.0797 142.56 48.7197 141.6C49.3597 140.88 50.1597 140.32 51.1197 140.08C52.8797 139.6 54.6397 139.44 56.4797 139.6C57.9997 139.68 57.5197 138.08 56.7997 137.36L56.3997 136.96C55.9997 136.56 56.6397 137.28 56.3197 136.88L55.7597 136.24C55.3597 135.76 54.9597 135.28 54.4797 134.72C54.2397 134.4 54.0797 134.16 53.8397 133.84C53.7597 133.76 53.5197 133.28 53.6797 133.6C53.5197 133.44 53.4397 133.2 53.2797 132.96C51.6797 130.32 50.7197 127.2 52.7997 124.48C54.5597 122.24 57.6797 121.28 60.3197 120.64C61.7597 120.32 60.4797 118.56 59.8397 118.16L59.2797 117.76L58.7197 117.36C59.3597 117.76 58.3997 117.12 58.2397 116.96C57.5197 116.4 56.8797 115.84 56.1597 115.2C55.5197 114.56 54.8797 113.84 54.3197 113.12C52.9597 111.52 52.0797 109.52 51.6797 107.44C51.3597 104.88 51.9997 102.32 53.4397 100.24C59.5197 90.9595 72.6397 89.5995 82.7997 89.9995C83.9997 90.0795 85.1197 90.1595 86.3197 90.2395L87.7597 90.3995H87.9197C87.6797 90.3995 88.0797 90.3995 88.1597 90.3995L88.7197 90.4795C89.5197 90.5595 90.3997 90.7195 91.1997 90.8795C91.9997 91.0395 92.7997 90.7995 92.7197 89.8395C92.7197 89.6795 92.7197 89.5995 92.7197 89.4395C92.7197 89.2795 92.7197 89.2795 92.7197 89.2795C92.7197 88.9595 92.7197 89.5995 92.7197 89.3595C92.7197 89.1195 92.7197 88.9595 92.7197 88.7995C92.7197 87.6795 92.7997 86.5595 93.0397 85.4395C93.5997 82.2395 95.2797 79.4395 97.8397 77.4395C102.24 74.2395 108.32 74.1595 113.44 74.7995C114.88 74.9595 116.24 75.2795 117.6 75.6795C117.76 75.7595 118.56 75.9995 118.96 76.1595C119.2 76.2395 119.44 76.3195 119.6 76.4795C119.28 76.3195 119.76 76.6395 119.6 76.4795L120 76.7195L120.64 77.1195C121.04 77.3595 120.48 76.9595 120.8 77.2795L121.2 77.6795C121.28 77.7595 121.36 77.8395 121.36 77.8395C121.6 78.1595 121.84 78.3995 122 78.6395C122.16 78.8795 121.84 78.3195 121.92 78.5595C122 78.6395 122 78.7195 122 78.7195C122.08 78.8795 122.16 79.0395 122.24 79.1195C122.32 79.2795 122.4 79.4395 122.48 79.5995C122.32 79.1995 122.48 79.6795 122.56 79.7595C122.64 80.0795 122.72 80.3195 122.72 80.6395L122.8 81.0395C122.88 81.4395 122.8 80.7995 122.8 81.1995C122.8 81.7595 122.72 82.3995 122.64 82.9595C122.64 83.1195 122.4 83.7595 122.64 83.1195C122.16 84.4795 123.92 85.6795 125.12 85.6795C128.16 85.5995 131.12 86.2395 133.92 87.3595L134.24 87.5195C133.92 87.3595 134.24 87.5195 134.32 87.5995L134.96 87.9995C134.72 87.8395 135.2 88.1595 134.96 87.9995L135.2 88.2395L135.44 88.4795C135.6 88.6395 135.28 88.2395 135.52 88.5595C135.68 88.7995 135.84 89.0395 135.92 89.2795C136.08 89.7595 136.08 90.2395 136.08 90.7195C135.92 92.9595 134.08 94.5595 132.32 95.7595C131.44 96.3195 130.48 96.8795 129.52 97.2795C129.36 97.3595 129.2 97.4395 128.8 97.5995C128.72 97.6795 128.56 97.6795 128.4 97.7595C128.08 97.8395 127.76 98.0795 127.76 98.4795C127.52 100.56 126.88 102.56 125.92 104.4C124.08 108.4 120.72 111.52 116.56 112.96C115.28 113.36 113.92 113.68 112.56 113.76C111.76 113.84 110.96 113.84 110.16 113.84C109.52 113.84 109.04 113.76 108.64 114.32C108.08 115.12 107.52 115.92 107.04 116.8L99.7597 128.08L94.2397 136.56C93.9997 137.04 94.1597 137.6 94.5597 138C94.7197 138.16 94.7997 138.32 94.9597 138.48L95.3597 139.04C95.5997 139.44 95.1997 138.72 95.4397 139.12C95.5197 139.28 95.5997 139.36 95.6797 139.52C96.4797 140.96 97.0397 142.48 97.2797 144.16C97.7597 147.84 96.1597 152.24 92.9597 154.32C90.3997 155.76 87.5197 156.48 84.5597 156.24C82.9597 156.16 81.4397 156 79.9197 155.52C79.2797 155.36 78.6397 155.2 78.0797 154.96C77.3597 154.72 76.7197 154.4 76.0797 154.08C75.6797 153.84 75.2797 153.6 74.9597 153.36L74.6397 153.12C74.9597 153.36 74.3997 152.96 74.3197 152.88C73.6797 152.48 73.1197 151.92 72.7197 151.36C72.5597 151.2 72.3997 150.96 72.3197 150.72C71.7597 149.76 71.4397 148.72 71.4397 147.6C71.3597 146.64 70.7197 145.92 69.8397 145.6C69.3597 145.44 67.8397 145.2 67.8397 146.16C67.9997 154.08 76.7997 158.24 83.6797 159.04C87.3597 159.6 91.1197 159.12 94.4797 157.6C98.3197 155.76 100.72 151.6 100.88 147.36C101.04 143.68 99.7597 140.08 97.3597 137.28L97.6797 138.72L110.32 119.12L112.08 116.32L111.12 116.72C116.56 116.96 121.92 115.52 125.84 111.52C128.32 108.88 130.08 105.6 130.96 102.08C131.12 101.36 131.28 100.64 131.44 99.9195L130.8 100.64C134.4 99.3595 139.04 96.7995 139.76 92.6395C140.8 86.7195 133.44 84.0795 128.88 83.3595C127.2 83.0395 125.52 82.8795 123.76 82.8795L126.24 85.4395C126.8 83.8395 126.8 82.1595 126.32 80.5595C124.96 76.3195 120.72 73.9995 116.64 72.9595C113.2 72.0795 109.6 71.7595 106 71.9195C103.04 71.9995 100.16 72.6395 97.4397 73.8395C93.8397 75.5995 91.1997 78.7995 90.1597 82.6395C89.5197 84.7995 89.2797 87.1195 89.5197 89.4395L91.0397 88.3995C88.3997 87.9195 85.7597 87.5995 83.1197 87.5195C77.6797 87.1195 72.1597 87.4395 66.7997 88.5595C60.9597 89.8395 55.1997 92.5595 51.4397 97.3595C49.5197 99.5995 48.4797 102.48 48.4797 105.52C48.6397 108.16 49.5197 110.64 51.0397 112.8C53.1197 115.92 55.9197 118.56 59.1197 120.56L58.6397 118.08C54.1597 119.2 48.4797 121.6 48.5597 127.04C48.6397 130.72 50.7997 134.08 53.0397 136.8C53.6797 137.6 54.3997 138.32 55.1197 139.04L55.4397 136.8C51.5997 136.56 43.8397 137.52 45.3597 143.12C47.5997 151.04 57.9197 150.64 64.3997 149.68C66.6397 149.36 68.7997 148.88 70.9597 148.24C72.5597 147.6 69.7597 144.88 68.2397 145.28Z" fill="#000005"/>
<path d="M138.08 154.24C146.96 138.56 128.24 102.16 128.24 102.16C115.2 106.48 92.0801 95.6797 92.0801 95.6797C100.08 107.36 91.2001 131.76 91.2001 131.76C84.3201 121.2 72.3201 123.2 74.8801 134.24C77.4401 145.28 88.3201 144.72 88.3201 144.72C88.3201 144.72 87.8401 180.72 89.6001 184.96C91.3601 189.2 117.52 190.88 121.28 168.32C121.2 168.32 130.32 168 138.08 154.24Z" fill="white"/>
<path d="M140 154C141.92 150.64 142.4 146.64 142.4 142.8C142.32 138.32 141.68 133.84 140.56 129.52C138.56 121.6 135.84 113.84 132.32 106.4C131.6 104.8 130.88 103.28 130.08 101.68C129.68 100.88 128 101.36 127.44 101.52C126.32 101.84 125.2 102.08 124 102.16C122.64 102.24 121.36 102.32 120 102.24C116.96 102.08 114 101.6 111.04 100.88C106 99.6797 101.12 98.0797 96.3998 96.0797C95.4398 95.6797 94.4798 95.2797 93.5198 94.8797C92.8798 94.5597 89.3598 95.1997 90.0798 96.2397C93.3598 101.12 93.5998 107.68 93.1198 113.36C92.6398 118.64 91.6798 123.84 90.0798 128.88C89.7598 129.92 89.4398 130.96 89.1198 132L92.8798 131.12C90.6398 127.68 87.2798 124.8 83.1198 124.08C79.7598 123.52 75.5998 124.48 73.5998 127.44C71.4398 130.56 72.4798 135.2 74.1598 138.32C75.6798 141.2 78.3198 143.44 81.4398 144.48C83.2798 145.2 85.2798 145.52 87.2798 145.44L86.1598 145.04C86.0798 149.2 86.0798 153.36 86.0798 157.52C86.0798 164.56 86.0798 171.6 86.5598 178.64C86.5598 180.8 86.7998 182.88 87.2798 184.96C87.6798 186.4 89.1998 187.04 90.5598 187.44C95.9998 189.12 102.4 188.32 107.6 186.4C114.64 183.76 120.08 178.48 122.24 171.2C122.56 170.16 122.8 169.04 122.96 168L120.16 169.04C125.6 168.8 130.72 165.36 134.32 161.52C136.56 159.28 138.4 156.72 140 154C140.32 153.28 138.64 153.36 138.4 153.36C137.68 153.44 136.48 153.68 136.08 154.4C133.44 158.96 130.08 163.36 125.44 166C124.8 166.32 124.16 166.64 123.52 166.88C124 166.72 123.12 167.04 122.96 167.04C122.8 167.04 122.64 167.12 122.48 167.2C122.08 167.36 122.96 167.12 122.56 167.2C122.32 167.28 122.16 167.28 121.92 167.36C121.52 167.44 122.48 167.28 121.92 167.36C121.6 167.36 121.28 167.36 122 167.36C121.44 167.36 119.36 167.6 119.2 168.4C118.64 172.24 117.12 175.84 114.8 178.88C112.88 181.36 110.4 183.28 107.6 184.64L106.64 185.04L106.4 185.12L105.84 185.36L104.88 185.68L104.48 185.76L104.08 185.84L103.12 186.08L102.64 186.16C102.32 186.24 102.88 186.16 102.4 186.16C101.76 186.24 101.04 186.32 100.4 186.4C100.08 186.4 100.64 186.4 100.24 186.4H99.6798C99.3598 186.4 99.0398 186.4 98.7198 186.4H97.8398C97.7598 186.4 97.4398 186.4 97.6798 186.4H97.1998C96.6398 186.32 96.0798 186.32 95.5998 186.24C95.3598 186.16 95.0398 186.16 94.7998 186.08H94.7198L94.3198 186C93.9198 185.92 93.5198 185.76 93.1198 185.6C92.7998 185.52 92.5598 185.36 92.3198 185.2C92.0798 185.04 91.8398 184.88 91.6798 184.64C91.5998 184.48 91.5198 184.32 91.4398 184.16C90.7998 182.4 90.7998 180.24 90.7198 178.4C90.2398 171.68 90.2398 164.96 90.2398 158.24C90.2398 155.2 90.2398 152.24 90.2398 149.2C90.3198 147.6 90.3198 146 90.2398 144.4C90.2398 144.32 90.2398 144.24 90.2398 144.16C90.2398 143.76 89.3598 143.76 89.1198 143.76H88.5598C88.2398 143.76 88.9598 143.84 88.3998 143.76C87.5998 143.68 86.7198 143.52 85.9198 143.36C83.3598 142.72 81.0398 141.28 79.3598 139.2C77.2798 136.64 75.9198 132.56 76.5598 129.28C76.7998 128 77.4398 126.88 78.3998 126.08L78.7198 125.84C78.7198 125.84 79.2798 125.52 78.8798 125.76C78.9598 125.68 79.1198 125.68 79.1998 125.68C78.7198 125.76 79.2798 125.68 79.3598 125.68C78.8798 125.76 79.4398 125.68 79.5198 125.68C79.2798 125.68 79.9998 125.68 80.0798 125.68C83.9998 126 87.2798 129.28 89.2798 132.4C89.5998 132.88 90.8798 132.56 91.2798 132.48C91.8398 132.4 92.7998 132.08 93.0398 131.52C94.0798 128.56 94.9598 125.52 95.5998 122.4C96.8798 116.48 97.7598 110.32 97.0398 104.32C96.7198 101.04 95.5998 97.8397 93.8398 95.0397L90.3998 96.3997C93.3598 97.7597 96.3998 98.8797 99.5198 99.8397C105.52 102 111.68 103.36 118.08 103.84C121.76 104.08 125.44 103.68 128.96 102.64L126.32 102.48C128.48 106.8 130.4 111.2 132.08 115.68C135.28 124 138.08 132.72 138.48 141.68C138.72 146 138.32 150.56 136.16 154.4C135.76 155.04 137.44 155.04 137.76 154.96C138.4 154.96 139.6 154.72 140 154Z" fill="#000005"/>
<path d="M123.52 143.599C123.52 143.599 149.84 149.519 155.68 136.079C161.52 122.639 142.96 114.559 127.04 124.879" fill="white"/>
<path d="M124.16 145.039C126.88 145.599 129.6 145.999 132.4 146.239C137.52 146.639 142.96 146.559 147.92 144.959C153.04 143.359 157.28 139.679 158.24 134.159C159.36 127.999 154.8 122.639 149.36 120.399C141.6 117.119 132.64 119.039 125.76 123.519C124.48 124.319 127.36 127.039 128.4 126.399C134.08 122.719 141.36 120.559 148.08 122.319C149.28 122.639 150.4 123.039 151.44 123.679C151.92 123.919 152.32 124.239 152.72 124.559C152.8 124.639 152.88 124.719 153.04 124.799C153.52 125.199 152.88 124.639 153.12 124.879C153.2 124.959 153.36 125.119 153.44 125.199C153.52 125.279 153.84 125.679 153.6 125.439C154.96 127.279 155.52 129.599 155.04 131.919C153.28 142.719 140.24 143.919 131.52 143.359C129.44 143.199 127.28 142.959 125.2 142.639L124.64 142.559H124.48C124.16 142.479 124.72 142.639 124.48 142.559L123.68 142.399L123.04 142.239C122.24 142.079 121.92 142.479 122.16 143.199C122.48 144.079 123.28 144.719 124.16 145.039Z" fill="#000005"/>
<path d="M110.4 148.719C110.4 148.719 102.48 146.959 101.76 139.199L110.4 148.719Z" fill="white"/>
<path d="M112.16 147.92C109.2 147.2 106.64 145.36 105.04 142.8C104.24 141.52 103.84 140 103.68 138.56C103.6 138.08 101.84 138.72 101.6 138.8C101.12 138.96 100.72 139.2 100.32 139.44C100.16 139.52 99.8399 139.76 99.9199 140C100.16 142.56 101.36 144.88 103.2 146.64C104.48 147.84 106 148.72 107.68 149.28C108 149.44 108.32 149.52 108.72 149.6C109.52 149.68 110.4 149.52 111.12 149.04C111.52 148.88 111.84 148.64 112.16 148.4C112.16 148.24 112.4 148 112.16 147.92Z" fill="#000005"/>
<path d="M113.28 117.919C113.28 117.919 113.12 120.079 115.2 120.079C117.28 120.079 117.36 117.439 115.52 116.879C114.72 116.479 113.76 116.799 113.36 117.599C113.36 117.759 113.28 117.839 113.28 117.919Z" fill="#000005"/>
<path d="M122 117.36C122 117.36 121.84 119.52 123.92 119.52C126 119.52 126.08 116.88 124.24 116.32C123.44 115.92 122.48 116.24 122.08 117.04C122.08 117.2 122 117.28 122 117.36Z" fill="#000005"/>
<path d="M94.7201 190.64C96.8801 191.12 99.1201 191.44 101.36 191.84L116.16 194.48L149.6 200.48C152.32 200.96 155.04 201.36 157.68 201.92C158.4 202.16 159.12 201.76 159.36 201.04C159.44 200.88 159.44 200.8 159.44 200.64C159.28 199.6 158.48 198.8 157.44 198.64C155.28 198.16 153.04 197.84 150.8 197.44L136 194.8L102.56 188.8C99.8401 188.32 97.1201 187.92 94.4001 187.28C93.6801 187.04 92.9601 187.44 92.7201 188.16C92.6401 188.32 92.6401 188.4 92.6401 188.56C92.8801 189.68 93.6801 190.48 94.7201 190.64Z" fill="#000005"/>
<path d="M90.3998 183.119C90.3998 183.119 89.3598 252.159 92.4798 256.239C95.5998 260.319 157.36 281.199 160.24 280.639C163.12 280.079 157.76 195.359 157.76 195.359L90.3998 183.119Z" fill="#68BA7F"/>
<path d="M88.6401 182.879C88.5601 188.239 88.4801 193.599 88.4801 198.959C88.4001 209.599 88.4801 220.319 88.6401 230.959C88.7201 235.759 88.8801 240.559 89.2001 245.279C89.2801 248.479 89.6001 251.679 90.1601 254.879C90.3201 255.839 90.7201 256.799 91.2801 257.599C92.0801 258.399 93.0401 259.039 94.0001 259.519C97.1201 261.119 100.32 262.559 103.6 263.759C113.6 267.759 123.76 271.359 133.92 274.799C141.92 277.519 149.92 280.399 158.16 282.319C158.96 282.559 159.76 282.639 160.56 282.639C161.52 282.399 162.24 281.599 162.32 280.639C162.72 278.319 162.88 275.999 162.8 273.679C162.96 264.799 162.56 255.839 162.16 246.959C161.76 236.559 161.2 226.079 160.64 215.679C160.32 209.279 159.92 202.959 159.52 196.639C159.52 196.319 159.52 195.999 159.44 195.759C159.44 194.719 158.72 193.759 157.68 193.599L151.04 192.399L134.96 189.519L115.44 185.999L98.6401 182.959C95.9201 182.479 93.2001 181.759 90.4001 181.439H90.2401C87.8401 180.959 87.9201 184.959 90.1601 185.359L96.8801 186.559L112.96 189.439L132.48 192.959L149.28 195.999L154.88 197.039C155.76 197.199 156.64 197.439 157.52 197.519H157.6L155.76 195.359C156.08 199.839 156.32 204.239 156.56 208.719C157.12 218.399 157.6 228.159 158.08 237.839C158.56 247.599 158.96 257.359 159.04 267.119C159.04 270.319 159.12 273.599 158.96 276.799C158.96 277.359 158.88 277.839 158.88 278.399L158.8 279.039C158.72 279.439 158.96 278.479 158.8 279.119C158.72 279.439 158.4 280.079 158.8 279.439C158.64 279.759 159.12 279.119 158.96 279.279C159.04 279.199 160.08 278.799 160.08 278.879C159.36 278.799 158.64 278.719 157.92 278.479C157.68 278.399 157.44 278.399 157.12 278.319L156.64 278.239L156.4 278.159C155.68 277.999 154.88 277.759 154.16 277.519C150 276.319 145.92 275.039 141.84 273.679C131.52 270.319 121.28 266.719 111.12 262.879C107.04 261.359 103.04 259.759 99.0401 257.999C97.6801 257.439 96.3201 256.799 95.0401 256.079C94.4001 255.679 94.8801 255.999 95.0401 256.079C94.9601 255.999 94.8001 255.999 94.7201 255.919C94.6401 255.839 94.3201 255.679 94.1601 255.519C94.0001 255.359 93.8401 255.279 93.7601 255.199C93.3601 254.959 94.0801 255.599 93.8401 255.279C93.6001 254.959 94.1601 255.919 93.9201 255.359C93.6801 254.799 94.0001 255.839 93.9201 255.359C93.8401 254.879 93.6801 254.479 93.6001 254.079C93.5201 253.439 93.4401 252.879 93.3601 252.319L93.2001 251.359C93.2001 251.199 93.2001 250.959 93.1201 250.799C93.0401 250.639 93.1201 250.639 93.1201 250.479C93.0401 249.999 93.1201 250.879 93.1201 250.479C92.7201 246.399 92.5601 242.239 92.4001 238.079C92.0801 227.519 92.0001 216.879 92.0001 206.319C92.0001 199.119 92.0801 191.919 92.1601 184.719C92.1601 184.319 92.1601 183.999 92.1601 183.599C92.1601 182.559 91.4401 181.599 90.4001 181.439C89.4401 181.359 88.6401 181.999 88.4801 182.959C88.6401 182.719 88.6401 182.799 88.6401 182.879Z" fill="#68BA7F"/>
<path d="M235.04 178.96L157.84 195.44L160.32 280.72C160.32 280.72 240.56 258.96 240.32 252.64C240.08 246.32 235.04 178.96 235.04 178.96Z" fill="#68BA7F"/>
<path d="M235.84 177.52L228.16 179.12L209.76 183.04L187.44 187.76L168.16 191.84C165.04 192.48 161.92 193.12 158.72 193.84H158.56C157.6 194.08 156.08 194.96 156.08 196.08L156.32 204.56L156.88 224.96L157.6 249.6L158.24 270.8L158.4 277.84C158.4 278.96 158.32 280.08 158.48 281.2C158.48 281.28 158.48 281.28 158.48 281.36C158.48 282.08 159.52 281.84 159.84 281.76C162.08 281.12 164.32 280.56 166.56 279.92C172.08 278.4 177.6 276.8 183.04 275.2C190 273.12 196.96 271.04 203.92 268.88C210.56 266.8 217.2 264.56 223.76 262.16C228.4 260.48 233.2 258.72 237.52 256.16C238.96 255.28 240.72 254.32 241.52 252.8C242.08 251.76 241.84 250.56 241.76 249.44C241.44 244.24 241.12 239.12 240.72 234C240.16 226.56 239.68 219.04 239.12 211.6C238.56 204.56 238.08 197.44 237.52 190.4C237.2 186.48 236.96 182.48 236.64 178.56V178C236.56 176.56 233.04 178.4 233.2 179.76C233.44 182.48 233.6 185.2 233.84 187.92C234.32 194.4 234.8 200.8 235.28 207.28C235.84 214.8 236.4 222.32 236.96 229.84C237.36 235.84 237.84 241.84 238.24 247.84C238.32 249.44 238.48 251.12 238.56 252.72V253.36C238.56 253.36 238.64 253.04 238.56 253.28C238.48 253.52 238.72 252.88 238.56 253.2C238.4 253.52 238.8 252.8 238.64 253.12C238.48 253.44 238.88 252.96 238.72 253.04C238.64 253.12 238.56 253.2 238.48 253.28C238.08 253.68 238.8 253.04 238.48 253.28C238.16 253.52 237.92 253.68 237.6 253.84L237.44 254C237.12 254.24 237.6 253.92 237.6 253.92C237.6 253.92 237.2 254.16 237.04 254.24C236.16 254.72 235.36 255.12 234.48 255.52C234 255.76 233.52 256 232.96 256.24L232.16 256.56L231.92 256.64L231.6 256.8C230.32 257.36 229.12 257.84 227.84 258.32C221.68 260.72 215.36 262.8 209.12 264.88C202.24 267.12 195.2 269.28 188.24 271.36C182.32 273.12 176.4 274.8 170.56 276.48C167.44 277.36 164.32 278.24 161.12 279.12L160.72 279.2L162.08 279.6L161.84 271.12L161.28 250.72L160.56 226.08L159.92 204.88L159.76 197.84C159.76 196.72 159.76 195.6 159.68 194.48C159.68 194.4 159.68 194.4 159.68 194.32L157.2 196.56L164.88 194.96L183.2 191.2L205.52 186.48L224.8 182.4C227.92 181.76 231.04 181.12 234.24 180.4H234.4C235.36 180.24 236.24 179.68 236.72 178.8C236.96 178 236.64 177.36 235.84 177.52Z" fill="#68BA7F"/>
<path d="M90.3999 183.12C90.3999 183.12 160.32 162.64 162 163.2C163.68 163.76 234.96 179.04 234.96 179.04L157.76 195.52L90.3999 183.12Z" fill="#68BA7F"/>
<path d="M92.16 183.36L99.04 181.36C104.56 179.76 110.16 178.16 115.76 176.56C122.56 174.56 129.28 172.64 136.08 170.72C142.08 169.04 148.08 167.36 154.08 165.76C156.16 165.2 158.16 164.64 160.24 164.16C160.96 164 161.6 163.84 162.32 163.68L163.04 163.52L163.28 163.44C163.52 163.36 162.96 163.44 163.2 163.44C163.44 163.44 162.8 163.44 162.72 163.44C162.08 163.44 161.36 163.36 160.72 163.28L161.04 163.36L162.32 163.68L167.28 164.8C172.88 166 178.48 167.28 184.08 168.48L204.72 172.96L223.2 176.96L233.2 179.12L233.68 179.2L233.36 178.72L225.68 180.32L207.28 184.24L184.96 188.96L165.68 193.04C162.56 193.68 159.36 194.32 156.24 195.04H156.08L158.8 195.12L152.08 193.92L136 190.96L116.48 187.44L99.68 184.4C96.96 183.92 94.24 183.36 91.44 182.88H91.28C90.56 182.72 89.2 182.48 88.56 182.8C87.92 183.12 88.88 183.28 89.28 183.28L97.04 184.72L115.2 188L136.16 191.84L152.32 194.8C154.64 195.2 157.44 196.08 159.76 195.6C162.88 194.96 166 194.24 169.12 193.6L187.2 189.76L208.16 185.28L226.4 181.36L236.16 179.28L236.64 179.2C237.2 179.04 236.64 178.8 236.32 178.72L229.12 177.2L211.84 173.52L190.8 168.96C184.72 167.68 178.64 166.32 172.56 165.04C169.52 164.4 166.48 163.76 163.44 163.04C160.4 162.32 157.28 163.36 154.32 164.16C148.88 165.6 143.44 167.12 138 168.64C131.2 170.56 124.32 172.56 117.44 174.48C111.28 176.24 105.12 178 98.96 179.84L88.88 182.8L88.4 182.96C87.6 183.2 88.88 183.44 89.12 183.44C90.32 183.52 91.2 183.52 92.16 183.36Z" fill="#68BA7F"/>
<path d="M169.68 220.08C172.08 219.2 174.32 218 176.32 216.4C177.84 215.2 179.68 213.52 179.92 211.44C180.16 208.88 177.36 208.8 175.6 209.28C173.28 209.92 171.44 211.2 170.88 213.6C170.08 216.88 170.4 222.24 174.8 222.4C177.36 222.32 179.92 221.44 182 219.92C183.68 218.72 185.04 217.2 185.92 215.28C186.96 212.96 187.44 210.48 187.28 207.92C187.28 206.4 187.36 203.2 185.36 202.72C184.08 202.4 182.48 203.2 181.44 203.76C180.48 204.24 179.76 205.28 179.68 206.4C179.52 208.72 179.92 211.12 180.8 213.28C181.6 215.36 183.12 217.04 185.2 217.84C187.36 218.64 189.68 218.24 191.68 217.28C193.68 216.4 195.2 214.72 196 212.72C196.64 211.04 197.04 208.88 196.24 207.2C195.84 206.24 194.88 205.68 193.84 205.76C192.64 205.92 190.64 206.56 190.08 207.76C189.28 209.76 190.16 212.24 191.52 213.76C195.28 218 201.92 216.16 206.08 213.52C206.72 213.12 206.48 212.8 205.84 212.88C204.88 213.04 204 213.36 203.2 213.92C201.04 215.28 197.92 214.64 196.08 213.12C195.12 212.32 194.32 211.2 193.92 210C193.68 209.36 193.6 208.8 193.6 208.16C193.6 207.6 193.68 207.04 193.84 206.48L191.6 207.44C191.12 207.52 191.76 207.68 191.92 207.84C192.08 208 192.24 208.24 192.4 208.4C192.64 208.88 192.8 209.36 192.88 209.84C193.04 212.16 192.4 214.48 190.88 216.24C190.72 216.4 190.48 216.56 190.32 216.72L190.24 216.8C191.04 216.56 191.2 216.48 190.72 216.56C190.08 216.48 189.52 216.4 188.88 216.24C186.4 215.28 184.88 213.04 184.16 210.56C183.84 209.36 183.6 208.16 183.52 206.96C183.44 206.32 183.44 205.6 183.44 204.96C183.52 204.56 183.6 204.24 183.76 203.84C184.48 203.04 183.92 203.28 182.08 204.4C182.24 204.48 182.4 204.56 182.56 204.72C183.28 205.44 183.36 206.64 183.44 207.52C183.6 209.04 183.6 210.64 183.44 212.24C183.2 214.88 182.08 217.44 180.24 219.36C179.76 219.92 179.2 220.32 178.48 220.64C177.2 220.88 176 220.32 175.28 219.28C174.08 217.52 174.08 215.12 174.48 213.12C174.56 212.48 174.72 211.92 174.96 211.36C175.04 211.12 175.28 210.88 175.44 210.56C176 210 175.68 210.08 174.56 210.72C174.72 210.72 174.88 210.72 175.04 210.8C176.56 211.28 176.4 213.04 175.76 214.16C174.48 216.48 171.84 218.4 169.36 219.28C169.12 219.36 167.52 220 167.68 220.48C167.84 220.96 169.52 220.32 169.76 220.24L169.68 220.08Z" fill="white"/>
<path d="M88.6401 183.839L96.1601 185.279L114.08 188.639L135.12 192.559L152 195.759L156.72 196.639C157.44 196.799 158.16 196.879 158.88 196.799C161.68 196.239 164.4 195.519 167.2 194.879L184.72 190.879L205.6 186.159L223.92 181.999L233.76 179.759L234.24 179.679C234.96 179.519 236.32 179.279 236.72 178.559C237.12 177.839 236.24 178.079 235.84 178.239L228.32 179.919L210.24 183.999L188.56 188.959L169.68 193.279L163.44 194.719C162.48 194.959 161.44 195.119 160.48 195.439H160.32L161.28 195.359L154.4 194.079L137.92 190.959L117.92 187.199L100.64 183.919C97.8401 183.359 95.0401 182.799 92.2401 182.319H92.0801C91.2801 182.239 90.4001 182.479 89.6801 182.799C89.6801 182.879 88.1601 183.679 88.6401 183.839Z" fill="white"/>
<path d="M161.44 281.679L161.36 273.279L161.2 253.119L161.04 228.719L160.88 207.599C160.88 204.239 160.96 200.719 160.8 197.359V197.199C160.72 196.239 160.24 195.359 159.52 194.639C158.88 194.159 158.56 194.399 158.56 195.119L158.64 203.519L158.8 223.759L158.96 248.159L159.12 269.279C159.12 272.639 159.04 276.079 159.2 279.519V279.679C159.28 280.639 159.76 281.519 160.48 282.239C161.04 282.639 161.44 282.399 161.44 281.679Z" fill="white"/>
<path d="M116.88 231.679L116.24 187.759L190.24 169.279L210.8 173.679L136.16 191.439L135.12 235.599L116.88 231.679Z" fill="#000005"/>
<path d="M118.72 232L118.48 217.12L118.16 193.6L118.08 188.16L117.28 189.36L124.64 187.52L142.24 183.12L163.68 177.76L182.08 173.12L188.16 171.6C189.12 171.36 190.16 171.2 191.04 170.88H191.2H190.32L208.32 174.72L210.88 175.28L209.68 172.16L202.24 173.92L184.4 178.16L162.88 183.28L144.24 187.68C141.2 188.4 138.08 188.96 135.12 189.84H134.96C134.4 190 134.08 190.48 134.16 191.04L133.84 206L133.28 229.84L133.12 235.28L134.8 234.08L118.8 230.64L116.56 230.16C115.76 230 114.8 230.4 114.88 231.36C115.12 232.32 115.92 233.12 116.88 233.28L132.88 236.72L135.12 237.2C135.76 237.44 136.48 237.12 136.72 236.48C136.8 236.32 136.8 236.16 136.8 236L137.12 221.04L137.68 197.2L137.84 191.76L137.04 192.96L144.48 191.2L162.32 186.96L183.84 181.84L202.48 177.44C205.52 176.72 208.64 176.16 211.6 175.28H211.76C212.4 175.12 212.72 174.48 212.48 173.84C212.48 173.76 212.48 173.76 212.4 173.68C212.08 172.88 211.36 172.32 210.48 172.16L190.48 167.84C189.36 167.68 188.24 167.84 187.2 168.24L180.08 170L155.6 176.08L129.44 182.64L120 185.04C118.48 185.44 116.88 185.76 115.44 186.16L115.2 186.24C114.64 186.4 114.32 186.88 114.4 187.44L114.64 202.32L114.96 225.92L115.04 231.36C115.04 233.04 118.72 234.24 118.72 232Z" fill="#000005"/>
<path d="M241.52 238.079C241.52 238.079 259.04 232.719 256.08 247.039C254.88 253.039 243.52 253.359 243.52 253.359C243.52 253.359 244.8 270.559 235.84 276.959C226.88 283.359 208.08 278.319 208.08 278.319C208.08 278.319 207.04 283.839 198.4 280.639C198.4 280.639 197.92 285.039 187.92 281.119C177.92 277.199 174.72 266.079 179.76 263.599C184.8 261.119 192.16 268.399 192.16 268.399C192.16 268.399 194.24 258.559 202.48 266.399C202.48 266.399 202.4 260.559 208.48 261.039C214.56 261.519 216.08 262.399 221.28 261.599C228.32 260.639 241.6 252.959 241.6 252.959" fill="white"/>
<path d="M242.24 239.439C242.56 239.359 242.96 239.279 243.28 239.199L243.76 239.119C244.24 239.039 243.28 239.199 243.92 239.119C244.4 239.039 244.88 238.959 245.44 238.879C246 238.799 246.48 238.799 247.04 238.719H247.84C247.92 238.719 248.48 238.719 247.84 238.719H248.4C248.96 238.719 249.44 238.799 250 238.879L250.4 238.959C249.92 238.879 250.4 238.959 250.48 238.959C250.8 239.039 251.12 239.119 251.44 239.199L251.84 239.359C251.44 239.199 251.84 239.359 251.92 239.359C252.16 239.519 252.4 239.599 252.64 239.759C252.72 239.759 253.04 240.079 252.72 239.839L253.04 240.079C253.28 240.319 253.52 240.559 253.68 240.799C253.52 240.559 253.92 241.199 254 241.359C254.16 241.599 254.24 241.919 254.32 242.239C254.48 242.879 254.56 243.599 254.56 244.319C254.64 245.839 254.32 247.359 253.52 248.719C252.64 249.679 251.52 250.399 250.32 250.879C249.44 251.199 248.64 251.439 247.76 251.679H247.6L246.88 251.839L245.76 251.999C244.96 252.079 244.24 252.159 243.44 252.239C242.56 252.239 241.52 252.959 241.6 253.919C241.68 255.839 241.68 257.759 241.52 259.679C241.2 263.599 240.4 267.679 238.64 271.199C237.76 273.039 236.48 274.639 234.96 275.919C233.36 277.119 231.52 277.919 229.6 278.319C225.52 279.279 220.96 279.119 216.72 278.639C215.68 278.479 214.64 278.319 213.6 278.159L212.16 277.919H211.92L211.36 277.839C210.56 277.679 209.84 277.519 209.04 277.279C208.08 277.039 206.48 277.279 206.24 278.479C206.24 278.559 206.24 278.559 206.16 278.639C206.16 278.719 206.08 278.799 206.08 278.879C206 279.199 206.24 278.559 206.08 278.879L205.68 279.519C205.44 279.839 205.84 279.439 205.6 279.679C205.44 279.759 205.36 279.919 205.2 280.079C205.04 280.239 205.2 280.079 205.28 279.999C205.2 280.079 205.12 280.079 205.04 280.159L204.72 280.319C204.48 280.399 205.04 280.239 204.72 280.319C204.56 280.319 203.92 280.559 204.32 280.479C204.08 280.559 203.84 280.559 203.6 280.559C203.36 280.559 203.6 280.559 203.36 280.559H202.88C202.48 280.559 202.16 280.479 201.76 280.399C200.88 280.239 200.08 279.999 199.28 279.679C198.48 279.359 196.56 279.759 196.48 280.879C196.48 280.959 196.48 281.039 196.4 281.119C196.32 281.519 196.48 280.959 196.4 281.039C196.32 281.119 196.24 281.279 196.16 281.439C196.4 280.959 196.24 281.359 196.08 281.519C195.92 281.679 196.48 281.279 196.16 281.439C196.08 281.519 196 281.519 195.92 281.599C195.52 281.759 196.4 281.439 196 281.599L195.68 281.679C195.28 281.839 196.16 281.679 195.68 281.679C195.44 281.679 195.28 281.759 195.04 281.759C194.48 281.759 195.44 281.759 194.88 281.759H194.32C193.84 281.759 193.36 281.679 192.96 281.599C191.84 281.359 190.72 281.039 189.6 280.639C187.52 279.919 185.6 278.799 184 277.359C181.6 275.119 179.6 272.079 179.52 268.719C179.52 268.159 179.6 267.599 179.76 267.039C179.76 266.879 179.84 266.719 179.92 266.639C179.84 266.959 180 266.559 180 266.479L180.24 266.079C180.32 265.999 180.32 265.919 180.4 265.839C180.24 265.999 180.24 265.999 180.4 265.839L180.72 265.519C180.4 265.839 180.72 265.519 180.8 265.439C181.04 265.279 181.28 265.199 181.6 265.119C181.2 265.199 182.4 265.119 182 265.119C182.4 265.119 182.8 265.199 183.2 265.279C186.08 265.999 188.64 267.919 190.64 269.919C191.52 270.799 193.92 270.639 194.24 269.199C194.32 268.799 194.48 268.399 194.64 267.999C194.72 267.759 194.88 267.519 194.72 267.679C194.8 267.519 194.88 267.279 195.04 267.119C195.12 266.879 195.28 266.719 195.44 266.559L195.6 266.319C195.84 265.999 195.36 266.559 195.68 266.239C195.84 266.079 196 265.919 196.16 265.759C196.48 265.519 195.92 265.919 196.24 265.759L196.56 265.599C196.08 265.839 197.12 265.519 196.48 265.599L196.96 265.519C196.64 265.519 196.8 265.519 197.04 265.519C197.36 265.519 196.88 265.439 197.12 265.519L197.6 265.679C197.92 265.759 198.16 265.919 198.48 266.079C199.36 266.639 200.24 267.279 201.04 267.999C202.08 269.039 204.72 268.559 204.64 266.879C204.64 266.399 204.56 267.039 204.64 266.719C204.72 266.319 204.8 265.919 204.88 265.519C205.04 264.719 205.6 263.919 206.32 263.519C206.4 263.439 206.56 263.439 206.64 263.359C206.32 263.519 206.96 263.279 206.96 263.279C207.2 263.199 207.52 263.199 207.76 263.199C208.88 263.199 210.08 263.359 211.2 263.519C212.96 263.759 214.72 263.999 216.48 264.079C223.92 264.399 230.8 261.119 237.28 257.839C239.2 256.879 241.12 255.839 242.96 254.799C243.6 254.479 243.92 253.759 243.68 253.039C243.6 252.879 243.52 252.799 243.44 252.719C242.64 252.079 241.52 251.999 240.64 252.479C235.92 255.279 231.04 257.599 225.92 259.519C225.12 259.839 224.32 260.079 223.52 260.319L222.4 260.639L221.92 260.719C222.32 260.639 221.52 260.799 221.52 260.799C219.76 261.119 217.92 261.199 216.16 261.039C214.08 260.879 211.92 260.479 209.84 260.319C207.76 260.159 205.68 260.159 203.92 261.279C201.84 262.559 200.64 264.879 200.72 267.279L204.48 266.079C201.52 263.279 197.04 260.879 193.36 263.919C191.92 265.199 190.96 266.879 190.64 268.799L194.24 268.079C191.84 265.679 188.96 263.839 185.76 262.719C181.84 261.519 176.8 262.639 176 267.199C175.28 271.199 177.44 275.359 180.08 278.239C181.92 280.159 184.08 281.679 186.48 282.639C188.96 283.839 191.68 284.559 194.48 284.719C196.32 284.799 198.32 284.479 199.68 283.199C200.24 282.719 200.64 282.079 200.8 281.359L198 282.559C201.12 283.679 205.12 284.399 208.08 282.479C209.28 281.679 210.16 280.479 210.56 279.119L207.76 280.319C210.16 280.959 212.64 281.439 215.12 281.759C219.84 282.559 224.72 282.559 229.44 281.839C234.32 280.959 238.72 278.799 241.6 274.639C244.08 270.959 245.28 266.479 245.76 262.079C246.16 259.359 246.24 256.559 246.08 253.839L244.24 255.519C246.72 255.439 249.2 254.959 251.52 254.239C253.36 253.679 255.12 252.719 256.56 251.439C257.92 250.079 258.72 248.239 258.88 246.239C259.2 242.879 258.4 239.519 255.36 237.759C252.88 236.319 249.76 236.159 246.88 236.399C245.04 236.559 243.2 236.879 241.44 237.439C240.64 237.679 239.84 238.479 240.24 239.359C240.64 240.239 241.36 239.679 242.24 239.439Z" fill="#000005"/>
<path d="M201.84 267.6C202.64 272.16 205.2 276.16 209.04 278.64C210.8 279.84 212.8 280.64 214.96 280.96C215.76 281.04 215.12 280.24 214.88 279.92C214.56 279.52 214.16 279.2 213.76 278.88C213.44 278.64 213.04 278.4 212.64 278.32C211.84 278.24 211.04 278.08 210.32 277.84L210.08 277.76C210.24 277.84 210.08 277.76 210 277.76L209.52 277.52C209.44 277.52 209.04 277.28 209.2 277.36C209.36 277.44 209.2 277.36 209.12 277.28L208.88 277.12C208.48 276.88 209.04 277.2 208.8 277.04C208.72 276.96 208.24 276.64 208.56 276.88C208.88 277.12 208.4 276.8 208.4 276.72C208.08 276.48 208.72 277.04 208.32 276.64C208.24 276.56 208.16 276.4 208 276.32C208.4 276.64 208 276.32 207.92 276.24C207.84 276.16 207.76 276 207.6 275.92C207.44 275.84 207.76 276.16 207.68 276L207.52 275.76C207.36 275.52 207.2 275.28 207.04 275.04C207.04 275.04 206.8 274.64 206.88 274.8C206.96 274.96 206.88 274.8 206.88 274.72L206.8 274.48C206.56 274 206.32 273.52 206.08 273.04C205.84 272.56 205.76 272.16 205.6 271.76C205.52 271.52 205.6 271.84 205.6 271.68C205.6 271.6 205.52 271.52 205.52 271.44C205.44 271.28 205.44 271.12 205.36 270.88C205.28 270.48 205.2 270.16 205.12 269.76C205.04 269.04 204.08 268.32 203.44 267.92C203.28 267.92 201.76 267.04 201.84 267.6Z" fill="#000005"/>
<path d="M190.16 268.16C190.32 269.52 190.64 270.88 191.04 272.16C191.76 274.64 193.04 276.96 194.8 278.88C196.16 280.16 197.92 280.96 199.68 281.36C200.16 281.52 200.72 281.6 201.2 281.6C201.28 281.6 202 281.68 202.16 281.6C202.48 281.36 200.96 280.96 200.88 280.96C201.2 281.04 200.96 280.96 200.96 280.96C200.96 280.96 201.2 281.04 201.04 280.96L200.8 280.88C200.56 280.72 200.24 280.64 200 280.48C199.44 280.16 198.96 279.76 198.56 279.28C197.68 278.4 196.88 277.36 196.32 276.16C195.36 274.24 194.72 272.24 194.32 270.16C194.24 269.76 194.16 269.28 194.08 268.88C194 268.48 192.48 268.24 192.16 268.24C192 268.16 190.08 267.84 190.16 268.16Z" fill="#000005"/>
<path d="M41.6001 203.359C41.6001 203.359 12.5601 245.599 34.8001 267.279C57.0401 288.959 143.76 278.399 143.76 278.399L126.56 271.199C126.56 271.199 166.32 288.479 163.2 280.479C160.08 272.479 132.48 255.599 132.48 255.599C132.48 255.599 153.12 245.999 145.2 240.719C140 237.199 118.48 244.719 118.48 244.719C118.48 244.719 103.52 233.759 89.7601 246.399L65.6801 238.399C65.6801 238.399 53.2001 203.359 41.6001 203.359Z" fill="white"/>
<path d="M40.0799 202.079C38.3199 204.719 36.6399 207.439 35.1999 210.319C31.8399 216.319 29.1999 222.719 27.1999 229.359C25.0399 236.799 23.8399 244.799 25.2799 252.479C26.6399 259.759 30.6399 266.319 36.6399 270.719C41.5999 274.319 47.5199 276.479 53.4399 278.079C60.4799 279.839 67.6799 281.039 74.8799 281.599C82.5599 282.319 90.1599 282.639 97.8399 282.639C104.96 282.639 112.08 282.479 119.28 282.079C124.88 281.759 130.48 281.359 136.08 280.879C138.8 280.639 141.6 280.479 144.32 280.079L144.72 279.999C146.48 279.759 145.36 277.279 144.32 276.879L129.28 270.639L127.12 269.759C126.32 269.439 125.2 269.279 124.88 270.319C124.72 271.279 125.2 272.239 126.16 272.719C129.84 274.319 133.68 275.839 137.44 277.359C143.6 279.759 149.92 282.159 156.4 283.679C158.48 284.159 161.04 284.799 163.12 284.239C165.44 283.679 165.52 281.519 164.56 279.679C163.12 276.719 160.48 274.319 158.16 272.159C155.12 269.439 151.92 266.879 148.56 264.559C145.36 262.239 142.08 259.999 138.8 257.839C136.96 256.639 135.2 255.359 133.28 254.319L133.04 254.159L133.76 257.119C136.08 255.999 138.4 254.719 140.64 253.359C142.48 252.239 144.16 250.959 145.76 249.519C147.12 248.399 148.16 246.959 148.72 245.279C149.2 243.359 148.48 241.359 146.96 240.079C145.44 238.799 143.52 238.079 141.6 238.079C136.88 237.759 132 238.959 127.52 240.079C124.24 240.879 120.96 241.839 117.76 242.959L119.52 243.439C113.52 239.039 105.12 237.199 97.9999 239.359C94.3999 240.479 91.0399 242.399 88.3199 245.039L89.9199 244.639L68.7999 237.759L65.8399 236.799L67.5999 238.479C66.0799 234.239 64.3199 230.079 62.3999 225.999C60.7999 222.399 58.9599 218.959 56.9599 215.599C55.1199 212.319 52.8799 209.279 50.3199 206.559C47.9199 204.079 44.8799 201.679 41.2799 201.679C38.7999 201.679 40.2399 205.039 42.1599 205.119L42.8799 205.199C42.4799 205.119 43.2799 205.199 42.8799 205.199L43.1199 205.279L43.8399 205.519C43.4399 205.359 44.2399 205.679 43.8399 205.519L44.2399 205.679C44.4799 205.839 44.7199 205.919 44.9599 206.079L45.2799 206.239C44.8799 205.919 45.5199 206.399 45.2799 206.239C45.7599 206.639 46.3199 206.959 46.7199 207.439C47.6799 208.239 48.4799 209.199 49.2799 210.159C50.2399 211.359 51.1199 212.559 51.9999 213.839C55.2799 219.039 58.1599 224.479 60.4799 230.159C61.3599 232.239 62.2399 234.319 63.0399 236.479C63.1199 236.799 63.1999 236.959 63.1199 236.639C63.1999 236.799 63.2799 236.959 63.2799 237.119C63.2799 237.279 63.4399 237.599 63.5999 237.919C63.7599 238.399 63.9199 238.879 64.2399 239.359C65.1199 240.399 67.2799 240.799 68.4799 241.199L76.1599 243.679L89.6799 248.079C90.2399 248.239 90.8799 248.159 91.2799 247.679C95.9999 243.039 102.8 241.039 109.36 242.479C110.16 242.639 110.88 242.879 111.68 243.119C112.08 243.279 112.48 243.359 112.8 243.519L113.28 243.679C113.36 243.759 113.44 243.759 113.28 243.679L113.6 243.839C114.64 244.319 115.68 244.799 116.64 245.359C116.96 245.519 117.28 245.679 117.52 245.919C117.2 245.599 117.12 245.679 117.44 245.919C118.16 246.479 119.12 246.559 119.92 246.239C120.72 245.919 121.6 245.679 122.4 245.439C128.16 243.679 134.48 241.759 140.4 241.599C141.04 241.599 141.68 241.599 142.32 241.599C142.64 241.599 142.88 241.679 143.2 241.679C143.52 241.679 142.8 241.599 143.28 241.679L143.84 241.839L144.24 241.919C143.84 241.679 144.64 242.079 144.24 241.919C144.4 241.999 144.88 242.319 144.4 241.999C144.56 242.079 145.2 242.719 144.8 242.319L145.04 242.559L145.12 242.719C144.96 242.479 144.96 242.399 145.04 242.639L145.12 242.959C145.2 243.359 145.12 242.639 145.12 242.879C145.12 242.959 145.12 243.039 145.12 243.199C145.12 243.359 145.12 243.439 145.12 243.519C145.12 243.119 145.12 243.519 145.12 243.599C145.04 243.839 144.96 244.079 144.88 244.319C144.8 244.559 144.8 244.559 144.72 244.639C144.88 244.319 144.64 244.719 144.64 244.719C144.48 244.959 144.32 245.119 144.16 245.359C143.76 245.839 143.28 246.319 142.88 246.799C139.76 249.839 135.36 252.319 131.2 254.159C129.76 254.799 131.2 256.639 131.92 257.119C133.12 257.839 134.32 258.639 135.52 259.359L137.28 260.479L138.24 261.119L138.16 261.039L138.48 261.199L139.04 261.599C140.56 262.639 142.08 263.679 143.6 264.719C146.88 267.039 150.16 269.439 153.28 271.919C154.72 273.119 156.08 274.319 157.44 275.519C158.16 276.159 158.24 276.239 158.96 277.039C159.44 277.599 159.92 278.159 160.4 278.719C160.56 278.959 160.8 279.199 160.96 279.439C160.8 279.119 161.12 279.679 160.96 279.439C161.04 279.599 161.12 279.759 161.2 279.839C161.28 279.919 161.44 280.319 161.52 280.559C161.52 280.319 161.6 280.799 161.52 280.559C161.52 280.639 161.52 280.719 161.6 280.799C161.76 280.959 161.6 280.959 161.6 280.639C161.6 280.719 161.6 280.719 161.6 280.799C161.6 281.039 161.76 280.399 161.6 280.799C161.6 280.719 161.84 280.479 161.6 280.799C161.36 281.119 161.76 280.559 161.76 280.719C161.68 280.799 161.6 280.799 161.6 280.799C161.28 280.799 162 280.719 161.52 280.799L161.04 280.879C160.64 280.959 161.36 280.879 160.88 280.879H160.24C159.76 280.879 159.28 280.799 158.8 280.719L158.4 280.639C158.08 280.559 158.72 280.719 158.32 280.639L157.44 280.479C151.28 279.199 145.2 276.879 139.36 274.639C137.92 274.079 136.48 273.519 135.04 272.959C135.36 273.119 135.04 272.959 134.88 272.879L134.4 272.639L133.44 272.239L131.76 271.519C130.32 270.959 128.96 270.239 127.52 269.759L127.36 269.679L126.4 272.559L141.44 278.799L143.6 279.679L143.2 276.559C141.36 276.799 139.52 276.959 137.68 277.119C136.72 277.199 135.76 277.279 134.8 277.359L133.12 277.519L132.32 277.599L131.68 277.679C128.96 277.919 126.32 278.079 123.6 278.239C116.88 278.639 110.24 278.959 103.52 279.039C96.0799 279.119 88.5599 279.039 81.1199 278.559C73.9199 278.159 66.7999 277.279 59.6799 275.999C56.4799 275.359 53.2799 274.559 50.1599 273.599C49.4399 273.359 48.7199 273.119 47.9199 272.879L46.9599 272.479L46.4799 272.319L46.2399 272.239C46.3999 272.319 46.3999 272.319 46.2399 272.239C44.9599 271.679 43.6799 271.119 42.3999 270.479C41.7599 270.159 41.1999 269.839 40.6399 269.519C40.3999 269.359 40.0799 269.199 39.8399 269.039L39.5999 268.879L39.3599 268.719C38.3199 267.999 37.3599 267.279 36.4799 266.399C33.9199 263.919 31.8399 260.959 30.5599 257.599C27.9199 250.879 28.2399 243.039 29.7599 235.999C31.2799 229.039 33.6799 222.319 36.8799 215.919C38.7199 212.159 40.7199 208.559 43.0399 205.119L43.3599 204.639C44.3199 202.959 41.1999 200.479 40.0799 202.079Z" fill="#000005"/>
<path d="M316.4 224.4L292.96 183.44C292.96 183.44 287.44 149.36 291.28 144.8C296.4 138.64 309.84 135.12 327.36 140.72C344.16 146.08 359.76 152.32 359.12 187.84C359.04 193.2 365.76 222.48 362.48 226.8C356.8 234 336.32 239.6 316.4 224.4Z" fill="#000005"/>
<path d="M287.12 231.04C287.12 231.04 288.64 228.64 290.32 225.44C292 222.24 291.76 220.16 282.64 213.68C264.72 200.88 273.04 182.96 273.04 182.96C273.04 182.96 270.16 182.48 266 179.44C262.4 176.8 260.08 168.56 272.72 168.4C275.68 168.32 279.04 167.92 281.68 164.08C285.04 159.28 286.8 154.72 292.88 146.16L293.52 150.8C295.2 163.04 302.16 174 312.64 180.64L313.76 180.56C308.24 200.24 317.44 213.92 317.44 213.92C317.44 213.92 316.24 220.96 316.4 224.4C316.4 224.4 298.24 240.64 287.12 231.04Z" fill="white"/>
<path d="M288.56 232.4C289.84 230.4 290.96 228.4 292.08 226.32C292.72 225.12 293.04 223.76 292.88 222.48C292.56 220.72 291.68 219.12 290.4 217.84C288.4 215.84 286.16 214 283.84 212.4C279.44 209.2 275.76 205.2 274.08 200.08C272.96 196.64 272.64 192.96 273.28 189.36C273.44 188.56 273.6 187.76 273.76 186.96C273.84 186.64 273.68 187.28 273.76 186.8C273.84 186.64 273.84 186.48 273.92 186.32C274 186 274.08 185.76 274.16 185.52C274.32 184.96 274.48 184.48 274.72 184C275.36 182.64 274.08 181.28 272.8 181.12C273.12 181.2 273.36 181.28 272.96 181.12C272.72 181.04 272.48 180.96 272.16 180.88C271.36 180.64 270.64 180.32 269.92 179.92C268.8 179.36 267.76 178.72 266.8 177.92C266.64 177.76 266.4 177.6 266.24 177.44L266 177.2C265.84 176.96 265.68 176.8 265.6 176.56C265.6 176.48 265.28 176 265.44 176.32C265.6 176.64 265.36 176.16 265.36 176.08C265.28 175.84 265.2 175.6 265.12 175.36C265.04 175.04 265.04 175.12 265.12 175.36C265.12 175.2 265.04 175.04 265.04 174.88C265.04 174.72 265.04 174.64 265.04 174.48C264.96 174.08 265.04 174.64 265.04 174.4C265.04 174.16 265.12 173.6 265.12 173.76C265.2 173.6 265.28 173.36 265.36 173.2C265.52 172.88 265.36 173.2 265.36 173.12C265.36 173.04 265.52 172.88 265.68 172.72C265.76 172.64 265.84 172.48 266 172.4C266.16 172.16 265.84 172.48 266.16 172.24C266.48 172 266.8 171.84 267.12 171.6C267.84 171.2 268.64 170.96 269.36 170.8C271.6 170.32 273.84 170.56 276.08 170.16C278.56 169.76 280.8 168.48 282.4 166.64C283.68 165.04 284.8 163.36 285.76 161.6C288.56 156.88 291.28 152.08 294.4 147.6L291.2 146.16C291.84 150.96 292.48 155.68 294.24 160.32C296.64 166.8 300.56 172.72 305.68 177.44C307.12 178.72 308.64 180 310.16 181.12C310.96 181.68 311.92 182.64 312.96 182.64C313.36 182.64 313.76 182.56 314.08 182.56L312.16 179.68C309.12 190.64 309.68 202.64 314.88 212.88C315.2 213.6 315.6 214.24 316 214.88L315.68 213.44C314.96 217.04 314.56 220.72 314.64 224.4L315.36 222.8C313.36 224.56 311.2 226.16 308.88 227.52C304.88 230 300.16 232.24 295.44 232.24C292.8 232.32 290.24 231.44 288.24 229.84C287.6 229.12 286.48 229.12 285.76 229.76L285.68 229.84C285.12 230.72 285.28 231.84 286 232.56C295.28 240.4 308.08 233.76 316.16 227.28L317.28 226.32C318.24 225.44 318.08 224.4 318.08 223.36C318.24 220.56 318.56 217.76 319.04 214.96C319.2 213.68 318.56 212.88 317.92 211.84L317.68 211.36C317.44 210.88 317.84 211.68 317.6 211.28C317.36 210.88 317.2 210.4 316.96 209.92C316.48 208.8 316.08 207.68 315.68 206.56C313.12 198.56 312.96 189.92 315.28 181.84C315.6 180.64 314.88 178.88 313.36 178.96C312.96 179.04 312.56 179.04 312.24 179.04L313.12 179.28C303.28 172.96 296.72 162.64 295.12 151.04C294.88 149.52 294.72 148 294.48 146.4C294.32 145.12 292.32 143.52 291.28 144.96C288.24 149.36 285.52 153.92 282.88 158.56C281.92 160.4 280.8 162.08 279.52 163.68C278.08 165.36 276 166.4 273.76 166.56C269.84 166.88 264.72 166.64 262.24 170.4C260.56 173.04 261.12 176.4 262.8 178.88C264.16 180.72 266 182.16 268 183.2C269.52 184.16 271.28 184.8 273.04 185.12L271.12 182.24C268.96 187.2 268.4 192.64 269.52 197.92C270.56 202.96 273.12 207.68 276.72 211.36C279.04 213.76 281.76 215.52 284.32 217.52C285.36 218.32 286.32 219.2 287.28 220.08C287.6 220.4 287.92 220.72 288.24 221.12C288 220.8 288.32 221.2 288.4 221.28C288.48 221.36 288.64 221.6 288.72 221.76L288.88 222C289.04 222.24 288.72 221.6 288.8 221.84C288.88 222.08 288.96 222.16 288.96 222.32C288.96 222.48 288.96 221.92 288.96 222.4C288.96 222.56 288.96 222.72 288.96 222.8C288.96 222.24 288.88 223.04 288.88 223.28C288.96 222.72 288.72 223.6 288.64 223.84C287.68 225.92 286.56 227.84 285.36 229.76C284.8 230.64 284.96 231.76 285.68 232.48C286.64 232.96 288 233.28 288.56 232.4Z" fill="#000005"/>
<path d="M204.4 228.241C204.4 228.241 199.36 188.561 194.32 186.081C189.28 183.601 190.72 200.001 190.72 200.001C190.72 200.001 165.92 188.641 159.28 191.041C152.64 193.441 165.44 201.201 165.44 201.201C165.44 201.201 151.52 201.201 150.08 206.081C148.64 210.961 163.52 209.761 167.04 210.481C167.04 210.481 151.84 213.681 155.04 217.681C158.24 221.681 165.44 218.801 168.32 219.681C171.2 220.561 168 231.441 174.16 237.841C180.32 244.241 184.32 244.241 184.32 244.241" fill="white"/>
<path d="M205.76 229.04C204.72 220.72 203.36 212.4 201.68 204.16C200.64 199.12 199.6 193.92 197.6 189.2C196.88 187.52 196 185.6 194.4 184.56C193.2 183.68 191.52 183.84 190.64 185.04C190.48 185.28 190.32 185.6 190.24 185.84C189.12 188.32 189.12 191.28 189.12 193.92C189.12 195.6 189.2 197.36 189.28 199.04L190.64 198.24C184.48 195.36 178.24 192.96 171.76 190.96C168.08 189.84 164 188.56 160.08 188.8C158.72 188.88 156.96 189.36 156.24 190.72C155.28 192.56 156.56 194.72 157.6 196.24C159.6 198.88 162.64 200.96 165.44 202.72L164.64 199.28C162.8 199.28 160.96 199.44 159.12 199.6C156.32 199.92 153.04 200.48 150.64 202.08C148 203.84 147.84 207.12 150.24 209.28C152.32 211.12 155.6 211.36 158.24 211.52C160 211.68 161.76 211.68 163.52 211.76C164.8 211.76 166.08 211.84 167.36 212L166.16 208.4C163.04 209.04 160.08 210 157.2 211.2C155.68 211.84 153.76 212.88 153.28 214.56C152.56 216.96 154.96 219.52 156.88 220.48C159.52 221.76 162.56 221.44 165.36 221.2C166.4 221.04 167.44 221.04 168.48 221.12C168.88 221.2 168.56 221.12 168.32 220.96C168.56 221.12 167.84 220.32 168 220.64C167.76 220.24 167.84 220.32 167.92 220.48C168.08 220.88 167.84 220.16 167.92 220.4C168 220.64 168 220.8 168.08 221.04C168.24 221.68 168.32 223.04 168.4 224C168.48 225.44 168.64 226.88 168.88 228.24C169.28 231.36 170.4 234.24 172.08 236.88C174.4 240.08 177.44 242.72 180.96 244.48C182.16 245.2 183.52 245.6 184.96 245.76C186.56 245.76 184.96 242.16 183.44 242.16H183.28C183.76 242.24 183.2 242.16 183.04 242.08C182.4 241.92 181.84 241.76 181.28 241.52C178.64 240.24 176.32 238.48 174.4 236.24C171.12 232.56 171.52 227.28 170.88 222.64C170.64 220.72 169.92 218.24 167.76 217.6C165.6 216.96 163.12 217.68 160.96 217.76C159.68 217.84 158.4 217.76 157.2 217.36C156.72 217.2 156.24 216.96 155.92 216.64C155.76 216.48 155.52 216 155.76 216.56C155.68 216.4 155.84 216.8 155.92 216.88C156.08 217.28 156 217.12 155.92 217.04C155.84 216.8 156 217.04 155.92 217.12C155.92 217.12 155.92 216.96 156 216.96C155.92 217.2 156 217.04 156 216.96C156.16 216.72 156.32 216.48 156.48 216.24C157.04 215.76 157.68 215.28 158.4 214.96C161.36 213.52 164.48 212.48 167.68 211.92C169.36 211.52 167.6 208.56 166.56 208.32C164.16 208 161.76 207.92 159.36 207.92C156.8 207.84 153.84 207.76 151.44 206.8C151.6 206.88 151.12 206.64 151.04 206.56C150.64 206.32 151.12 206.72 150.8 206.4C151.36 206.96 150.72 206.24 150.96 206.64C151.2 207.04 150.88 206.24 151.12 206.96C151.04 206.64 151.2 207.12 151.2 207.28C151.28 207.6 151.28 206.88 151.2 207.36C151.44 206.48 152 205.76 152.8 205.36C154.96 203.92 157.76 203.52 160.32 203.12C162.16 202.88 164.08 202.72 166 202.72C166.72 202.72 166.72 201.76 166.64 201.28C166.48 200.48 165.92 199.76 165.2 199.28C164.48 198.8 163.76 198.4 163.12 197.92L162.88 197.76C162.88 197.76 163.04 197.92 162.96 197.76L162.48 197.44C162.16 197.2 161.76 196.88 161.44 196.64C161.12 196.4 160.8 196.16 160.48 195.84L160 195.44L159.68 195.12C159.44 194.88 159.2 194.56 158.96 194.24C158.88 194.16 158.88 194.16 158.8 194.08C158.64 193.84 158.96 194.4 158.88 194.16C158.8 194.08 158.56 193.6 158.72 193.84C158.88 194.08 158.64 193.68 158.64 193.6C158.88 194.4 158.48 193.12 158.72 193.84C158.64 193.6 158.72 193.68 158.72 193.76C158.72 193.68 158.72 193.68 158.72 193.6C158.88 193.28 158.64 193.76 158.72 193.52C159.04 193.04 159.6 192.64 160.16 192.48C160.72 192.32 161.28 192.24 161.84 192.24C165.44 192.08 169.12 193.28 172.48 194.32C176.48 195.52 180.4 197.04 184.32 198.64C186.64 199.6 188.4 200.32 190.64 201.36C191.36 201.68 192.08 201.44 192 200.56C191.6 197.04 191.68 193.44 192.32 190C192.4 189.2 192.72 188.4 193.2 187.76C193.44 187.52 193.2 187.76 193.44 187.6C193.52 187.52 193.92 187.44 193.68 187.44C193.84 187.44 193.92 187.36 194.08 187.36C193.92 187.36 194.24 187.44 194.4 187.44C194.16 187.36 194.4 187.44 194.48 187.52C194 187.2 194.32 187.36 194.4 187.52C193.92 187.04 194.24 187.36 194.4 187.52C194.24 187.2 194.72 187.92 194.4 187.52C194.56 187.84 194.72 188.08 194.88 188.32C194.56 187.68 194.88 188.32 194.96 188.48C195.04 188.64 195.2 188.96 195.28 189.12C195.44 189.52 195.6 190 195.76 190.4L196 191.04L196.08 191.36C196.24 191.84 196 190.96 196.08 191.44C196.4 192.56 196.72 193.68 197.04 194.8C197.76 197.36 198.32 199.92 198.8 202.48C199.92 207.76 200.8 213.12 201.6 218.48C201.76 219.68 201.92 220.88 202.16 222C202.24 222.56 202.32 223.12 202.4 223.6C202.4 223.68 202.4 223.76 202.4 223.84C202.32 223.44 202.4 223.76 202.4 223.84C202.4 223.92 202.48 224.24 202.48 224.48C202.56 225.28 202.72 226.16 202.8 226.96C202.88 227.92 203.44 228.8 204.24 229.36C204.88 229.76 205.68 229.44 205.6 228.56L205.76 229.04Z" fill="#000005"/>
<path d="M164.24 201.92C164.72 201.92 165.12 201.92 165.52 201.92H166.88H167.68C167.84 201.92 168 201.92 168.16 201.92H168.4C168 201.92 168.56 201.92 168.64 201.92L169.12 202L170 202.08L170.88 202.16C171.04 202.16 171.2 202.16 171.36 202.24C171.6 202.24 171.92 202.32 172.16 202.4C172.24 202.4 172.72 202.56 172.32 202.4L172.64 202.48L173.28 202.72C172.96 202.56 173.28 202.72 173.36 202.8L173.6 202.96C174.48 203.36 175.44 203.44 176.32 203.2C176.72 203.12 177.76 202.88 177.04 202.48C176 201.92 174.8 201.6 173.68 201.44C172.32 201.2 170.96 201.04 169.6 200.96C167.84 200.88 166.08 200.8 164.32 200.8C163.92 200.8 162.4 200.72 162.32 201.28C162.24 201.84 164.08 201.92 164.32 201.92H164.24Z" fill="#000005"/>
<path d="M167.52 207.761L163.36 208.081L162.72 208.161C162 208.241 162.88 209.521 163.04 209.761C163.36 210.161 163.68 210.561 164.08 210.881C164.32 211.041 164.64 211.361 164.96 211.361L169.12 211.041L169.76 210.961C170.48 210.881 169.6 209.601 169.44 209.361C169.12 208.961 168.8 208.561 168.4 208.241C168.16 208.001 167.84 207.761 167.52 207.761Z" fill="#000005"/>
<path d="M213.84 324C174.72 296.16 171.28 252.64 171.28 252.64L203.6 220.24L230.64 257.52C230.64 257.52 291.52 208.56 333.12 217.84C333.12 217.84 358.88 221.44 373.52 326.8" fill="white"/>
<path d="M214.56 322.48C201.68 313.2 191.12 301.04 183.76 286.96C178.96 277.92 175.6 268.16 173.68 258.08C173.52 257.28 173.36 256.48 173.28 255.68C173.2 255.36 173.36 256.08 173.28 255.84L173.2 255.52C173.2 255.36 173.2 255.2 173.12 255.04C173.04 254.88 173.04 254.56 173.04 254.24C172.96 253.76 172.88 253.28 172.88 252.72L172.48 253.92L183.44 242.88L200.8 225.52L204.8 221.52L202.48 221.12L211.6 233.76L226.16 253.84L229.52 258.4C230 259.12 230.96 259.36 231.76 258.88C231.84 258.88 231.84 258.8 231.92 258.8C232.72 258.16 233.44 257.6 234.24 257.04L235.52 256.08L235.6 256L235.92 255.76L236.8 255.12C238 254.24 239.28 253.28 240.56 252.4C247.84 247.28 255.36 242.4 263.12 238C272.72 232.48 282.72 227.76 293.12 224C303.12 220.48 313.84 217.92 324.48 218.4C327.44 218.48 330.4 218.88 333.28 219.52L333.6 219.6C333.92 219.68 333.04 219.36 333.44 219.52L333.76 219.68C334.4 219.92 335.04 220.24 335.68 220.64C335.84 220.72 335.2 220.32 335.6 220.56L335.92 220.72L336.56 221.2C337.04 221.52 337.52 221.92 337.92 222.32C338.16 222.56 338.4 222.8 338.72 223.04L339.12 223.36L339.28 223.52C339.6 223.84 338.96 223.2 339.2 223.44C339.76 224.08 340.32 224.64 340.88 225.28C342.24 226.88 343.52 228.56 344.64 230.24L344.88 230.56L344.96 230.72L345.12 230.88C345.2 231.04 345.28 231.2 345.36 231.28C345.68 231.84 346.08 232.4 346.4 232.96C347.12 234.16 347.84 235.44 348.48 236.72C350.08 239.76 351.52 242.88 352.88 246.08C353.28 246.96 353.6 247.92 354 248.88C354.4 249.92 354.56 250.24 354.96 251.44C355.76 253.6 356.48 255.76 357.28 257.92C358.96 262.88 360.4 268 361.76 273.04C365.28 286.48 367.92 300.08 370.16 313.84C370.8 317.92 371.44 322.08 372 326.16C372.08 327.2 372.72 328.08 373.76 328.32C374.56 328.4 375.28 327.92 375.36 327.12C375.36 326.96 375.36 326.88 375.36 326.72C373.28 311.52 370.64 296.32 367.12 281.28C364.8 270.88 361.76 260.64 358.08 250.56C355.68 243.84 352.64 237.36 349.12 231.2C346.96 227.44 344.4 223.92 341.36 220.8C339.68 218.96 337.68 217.44 335.44 216.32C334.32 215.84 333.2 215.44 332 215.28C321.52 213.2 310.56 214.72 300.32 217.52C289.28 220.64 278.64 224.96 268.56 230.4C259.84 234.96 251.44 240.08 243.28 245.6C238.8 248.64 234.4 251.76 230.16 255.12L229.6 255.6L231.92 256L222.72 243.36L208.16 223.28L204.8 218.72C204.32 218 203.36 217.76 202.56 218.24C202.48 218.24 202.48 218.32 202.4 218.32L188.64 232.08L170.96 249.76C170.32 250.4 169.6 250.88 169.6 251.92C169.6 252.24 169.68 252.56 169.68 252.96C170 255.44 170.4 257.92 170.96 260.32C173.04 270 176.4 279.36 181.04 288.08C187.68 300.88 196.88 312.24 208.16 321.36C209.76 322.64 211.44 323.92 213.12 325.12C215.2 327.04 216.32 323.76 214.56 322.48Z" fill="#000005"/>
<path d="M289.28 168.96C289.28 168.96 287.12 170.88 289.2 172.8C291.28 174.72 293.6 172.16 292.4 170C291.2 167.84 289.28 168.96 289.28 168.96Z" fill="#000005"/>
<path d="M290.32 162.96C288.24 162 286.64 160.08 286.16 157.84C285.44 155.04 285.92 152 287.6 149.6C289.36 146.88 291.92 144.32 295.12 143.36C298.16 142.56 301.44 142.8 304.32 144.08C307.84 145.52 310.8 148.08 313.76 150.56C314.24 150.96 315.44 151.68 315.92 151.04C316.4 150.4 315.36 149.36 314.96 148.96C309.04 143.92 301.6 138.4 293.36 140.24C289.6 141.12 286.56 143.92 284.48 147.04C282.48 149.92 281.92 153.52 282.88 156.8C284.08 160.72 286.96 164 290.8 165.6C291.44 165.84 292.32 165.84 292.24 164.96C292.16 164.08 291.12 163.28 290.32 162.96Z" fill="#000005"/>
<path d="M275.28 156C275.84 149.92 279.92 144.72 285.68 142.8C288.56 142 291.6 141.76 294.56 142.08C297.6 142.24 300.56 142.8 303.44 143.6C306.56 144.48 309.36 146.32 311.36 148.88C312 149.76 315.76 148.64 315.04 147.68C310.96 142.16 303.12 140.88 296.72 140.4C289.44 139.84 281.12 141.12 275.92 146.72C273.28 149.52 271.68 153.12 271.36 156.96C271.36 157.68 275.2 157.28 275.28 156Z" fill="#000005"/>
<path d="M307.6 188.4C307.6 188.4 312.08 176.32 319.6 183.28C327.12 190.24 317.04 201.76 308.8 202" fill="white"/>
<path d="M308.72 190C309.84 187.12 312.32 182.88 315.84 182.96C317.2 183.04 318.4 183.6 319.36 184.56C319.84 184.96 320.24 185.44 320.56 186C320.64 186.16 320.72 186.24 320.72 186.4C320.8 186.72 320.88 187.04 320.96 187.36C321.28 190.32 319.44 193.36 317.52 195.52C315.12 198.08 311.68 200.24 308.08 200.4C306.88 200.48 308.4 204 309.6 204C313.28 203.68 316.64 202.08 319.2 199.36C321.76 196.8 323.68 193.44 323.44 189.68C323.04 185.52 320.48 181.84 316.72 180C314 178.72 311.44 179.84 309.52 182C308.24 183.44 307.2 185.12 306.56 186.96C306.24 187.76 306.8 188.72 307.28 189.36C307.36 189.52 308.48 190.8 308.72 190Z" fill="#000005"/>
<path d="M285.84 195.2C287.44 195.76 289.12 195.68 290.64 194.96C292.48 194.16 293.92 192.64 294.64 190.8C294.96 189.84 295.04 188.88 294.96 187.84C294.88 187.52 294.64 187.28 294.32 187.2C293.92 187.12 293.44 187.2 293.04 187.44C292.56 187.68 292.16 188 291.84 188.4C291.6 188.72 291.44 189.04 291.44 189.44C291.44 189.84 291.44 190.24 291.44 190.64V190.32C291.44 190.72 291.36 191.12 291.2 191.52L291.12 191.68C290.96 192 291.2 191.44 291.12 191.68C291.04 191.84 290.96 192 290.88 192.16L290.8 192.32C290.72 192.4 291.12 191.92 290.88 192.16C290.8 192.32 290.64 192.4 290.56 192.56C290.72 192.4 291.04 192 290.56 192.56C290.4 192.72 290.08 192.88 290.72 192.4L290.56 192.56L290.4 192.64C291.04 192.24 290.8 192.48 290.56 192.56C289.84 192.8 290.32 192.64 290.56 192.56L290.08 192.72H289.92C290.48 192.56 290.24 192.64 290.08 192.72C289.92 192.72 289.76 192.72 289.6 192.72C289.44 192.72 289.2 192.64 289.68 192.72C289.6 192.72 289.6 192.72 289.52 192.72C289.2 192.72 288.96 192.64 288.64 192.56L288.96 192.64L288.8 192.56C287.92 192.32 286.96 192.56 286.32 193.28C286 193.6 285.76 193.92 285.6 194.4C285.52 194.72 285.6 195.12 285.84 195.2Z" fill="#000005"/>
<path d="M312.16 203.681C312.16 203.681 312.56 235.521 332.24 244.161C351.92 252.801 369.28 240.241 360.56 212.321C351.84 184.401 312.16 203.681 312.16 203.681Z" fill="#000005"/>
<path d="M309.84 201.52C308.64 209.28 308.24 217.04 308.72 224.88C309.2 231.76 311.52 238.96 317.92 242.48C318.64 242.8 319.52 242.56 319.84 241.84C319.92 241.76 319.92 241.6 320 241.52C320.16 240.48 319.68 239.44 318.72 238.96C313.44 236.08 312.24 229.44 312 224C311.76 217.04 312.16 210 313.12 203.04C313.28 202 312.8 200.96 311.84 200.48C311.12 200.16 310.24 200.4 309.92 201.12C309.84 201.2 309.84 201.36 309.84 201.52Z" fill="#000005"/>
</svg>
