<svg width="200" height="200" viewBox="0 0 200 200" fill="none" xmlns="http://www.w3.org/2000/svg">
<path d="M36.6406 118.2C36.6406 118.2 50.5206 136.36 57.2406 135.64C63.9606 134.92 67.2806 102.28 67.2806 102.28L70.4006 90.7996C70.4006 90.7996 69.9606 81.2796 66.5606 88.2796C63.1606 95.2796 57.0406 143.36 48.6806 113.56L36.6406 118.2Z" fill="#000005"/>
<path d="M66.0389 116.96C66.0389 116.96 60.9189 116.32 58.0789 117.88C55.2389 119.44 52.4789 130.84 53.7189 133.44C54.9589 136.04 59.3589 134.4 61.5189 130.28C63.6789 126.16 66.0389 116.96 66.0389 116.96Z" fill="white"/>
<path d="M65.6386 116.08C64.2786 115.92 62.8786 115.92 61.5186 116.04C59.8786 116.16 57.8386 116.44 56.6786 117.76C55.6786 118.92 55.0386 120.44 54.5186 121.88C53.8786 123.72 53.3586 125.6 53.0386 127.52C52.7986 129.04 52.5586 130.64 52.7986 132.16C53.0386 133.76 54.1186 135.36 55.8386 135.56C57.7586 135.76 59.5986 134.36 60.7586 133C62.1186 131.44 62.8786 129.48 63.5986 127.56C64.7986 124.28 65.7986 120.96 66.6386 117.56C66.7586 117 65.5586 115.52 65.3586 116.32C64.7186 118.92 63.9186 121.52 63.0786 124.08C61.9186 127.6 60.5186 132.04 56.7186 133.52C56.0786 133.8 55.3586 133.88 54.6786 133.72C54.5586 133.68 54.4386 133.64 54.3186 133.56C54.3186 133.56 54.1186 133.4 54.1986 133.48L54.1586 133.4C54.2386 133.48 54.2386 133.48 54.1586 133.4C54.0786 133.24 54.2386 133.52 54.1586 133.36C54.2786 133.64 54.1586 133.32 54.1186 133.2C54.0786 133 54.1586 133.36 54.1186 133.16C54.1186 133.08 54.0786 133.04 54.0786 132.96C54.0786 132.84 54.0386 132.68 54.0386 132.56C53.9986 132.24 53.9986 131.92 54.0386 131.6C54.0786 130.84 54.1586 130.04 54.2786 129.28C54.5586 127.52 54.9586 125.8 55.5186 124.12C55.9586 122.6 56.6386 121.12 57.4786 119.8C57.7986 119.28 58.2786 118.88 58.7986 118.6C59.8386 118.16 60.9186 117.88 62.0386 117.8C63.4786 117.64 64.9586 117.68 66.3986 117.84C66.8386 117.88 66.5586 117.12 66.4786 116.96C66.3986 116.6 66.0786 116.12 65.6386 116.08Z" fill="#000005"/>
<path d="M116.52 99.9196C116.52 99.9196 142.8 124.4 157.4 83.6396H164.16C164.16 83.6396 163.72 126.48 120.32 115.88L116.52 99.9196Z" fill="#000005"/>
<path d="M128.801 119.12C128.801 119.12 130.081 111.76 133.161 108.12C136.241 104.48 151.481 102.96 154.201 105.28C156.921 107.6 153.121 113.4 147.161 115.6C141.201 117.8 128.801 119.12 128.801 119.12Z" fill="white"/>
<path d="M129.758 119.16L129.838 118.8C129.838 118.72 129.878 118.68 129.878 118.6C129.918 118.4 129.878 118.68 129.878 118.52C129.878 118.36 129.958 118.12 129.998 117.92C130.238 116.8 130.558 115.72 130.918 114.64C131.358 113.32 131.878 112.04 132.478 110.76C132.758 110.2 133.078 109.68 133.438 109.16C133.598 108.92 133.758 108.72 133.958 108.48C133.998 108.44 134.158 108.28 133.998 108.44C134.078 108.36 134.158 108.28 134.198 108.24C134.318 108.12 134.478 108 134.638 107.92C134.718 107.88 134.798 107.8 134.878 107.76L134.998 107.68C134.878 107.76 134.958 107.72 135.038 107.68C135.438 107.44 135.878 107.24 136.278 107.08C137.198 106.68 138.198 106.36 139.158 106.12C141.478 105.56 143.838 105.2 146.238 105.04C147.358 104.96 148.478 104.96 149.638 105.04C150.118 105.08 150.638 105.12 151.118 105.16L151.398 105.2L151.558 105.24C151.718 105.28 151.398 105.2 151.518 105.24C151.638 105.28 151.918 105.32 152.118 105.36C152.318 105.4 152.478 105.44 152.638 105.52L152.838 105.6C153.078 105.68 152.718 105.52 152.918 105.64C153.038 105.72 153.158 105.76 153.278 105.84C153.398 105.92 153.398 105.96 153.278 105.84C153.358 105.92 153.438 106 153.518 106.08C153.678 106.24 153.518 106.04 153.638 106.2C153.678 106.28 153.718 106.36 153.798 106.44C153.838 106.48 153.878 106.6 153.798 106.44C153.798 106.48 153.838 106.52 153.838 106.6C153.878 106.72 153.918 106.84 153.918 106.96C153.958 107.16 153.918 106.96 153.918 107.08C153.918 107.2 153.918 107.32 153.918 107.4C153.918 107.6 153.918 107.8 153.878 107.96C153.278 110.36 151.078 112.32 149.038 113.56C146.718 114.96 144.198 115.56 141.598 116.12C137.358 117.04 133.038 117.72 128.718 118.2L128.478 118.24C127.998 118.28 127.638 118.72 127.718 119.2C127.718 119.24 127.718 119.24 127.718 119.28C127.878 119.76 128.398 120.08 128.918 119.96C132.918 119.52 136.918 118.92 140.878 118.12C143.638 117.56 146.478 116.96 148.998 115.68C151.638 114.36 154.198 112.28 155.438 109.52C156.278 107.64 156.158 105.2 154.118 104.16C152.358 103.28 150.238 103.24 148.318 103.2C145.718 103.2 143.118 103.44 140.558 103.92C138.358 104.36 135.998 104.92 134.038 106.04C133.158 106.52 132.438 107.16 131.838 107.96C130.998 109.16 130.278 110.48 129.758 111.88C128.878 114.04 128.238 116.28 127.798 118.56C127.758 118.68 127.758 118.8 127.718 118.96C127.638 119.48 128.238 119.84 128.678 119.88C129.238 120 129.678 119.68 129.758 119.16Z" fill="#000005"/>
<path d="M64.1172 131.959C64.1172 131.959 67.5572 166.239 95.0772 163.959C122.597 161.679 121.357 132.959 121.357 132.959C121.357 132.959 96.8372 121.839 64.1172 131.959Z" fill="white"/>
<path d="M63.1587 132.2C63.2787 133.24 63.4387 134.32 63.6387 135.36C64.1587 138 64.8387 140.56 65.7187 143.08C66.7987 146.32 68.2787 149.4 70.1187 152.28C72.1187 155.48 74.7187 158.28 77.7987 160.48C81.2787 162.88 85.3187 164.36 89.5187 164.72C94.6387 165.2 99.7987 164.44 104.599 162.56C108.519 161 112.039 158.52 114.759 155.32C117.039 152.56 118.839 149.44 119.999 146.08C120.959 143.36 121.639 140.52 121.999 137.64C122.199 136.08 122.279 134.48 122.279 132.92C122.279 132.84 122.279 132.76 122.279 132.72C122.239 132.52 122.119 132.32 121.919 132.2C120.999 131.76 119.999 131.44 119.039 131.08C116.559 130.24 114.039 129.52 111.479 128.96C107.559 128.08 103.559 127.48 99.5587 127.16C94.4787 126.72 89.3987 126.72 84.3187 127.16C78.2387 127.68 72.1987 128.76 66.2787 130.44C65.4787 130.64 64.7187 130.88 63.9187 131.12C63.5987 131.32 63.1187 131.64 63.1587 132.2C63.2387 132.64 63.6787 132.92 64.1187 132.8C64.1587 132.8 64.1987 132.8 64.1987 132.76C70.0387 130.96 75.9987 129.72 82.0787 129.04C87.1987 128.48 92.3987 128.4 97.5187 128.72C101.519 128.96 105.519 129.52 109.479 130.32C112.199 130.88 114.879 131.6 117.519 132.48C117.959 132.64 118.399 132.8 118.839 132.92L119.359 133.12L119.599 133.2H119.639C119.959 133.36 120.319 133.48 120.639 133.6H120.679L120.319 133.08C120.319 133.36 120.319 133.64 120.319 133.92C120.319 134.2 120.319 134.56 120.279 134.88V135.16C120.279 135.36 120.279 135 120.279 135.12V135.32C120.279 135.56 120.239 135.76 120.239 136C120.039 138.52 119.599 141.04 118.919 143.48C118.799 143.84 118.719 144.24 118.599 144.6C118.559 144.76 118.479 144.96 118.439 145.12L118.359 145.36C118.359 145.4 118.319 145.44 118.319 145.52C118.239 145.76 118.359 145.44 118.319 145.56C118.039 146.32 117.759 147.08 117.399 147.84C117.039 148.6 116.679 149.36 116.279 150.08C116.079 150.48 115.839 150.84 115.599 151.24C115.479 151.44 115.359 151.6 115.239 151.8C115.079 152.04 115.079 152.04 114.959 152.24C114.439 153 113.879 153.72 113.319 154.4C113.039 154.76 112.719 155.08 112.399 155.4C112.239 155.56 112.079 155.72 111.919 155.88L111.679 156.12C111.479 156.28 111.639 156.16 111.479 156.32C110.759 157 109.999 157.6 109.199 158.2C108.439 158.76 107.599 159.28 106.759 159.72C102.559 162 97.7987 163.04 92.9587 163.12C88.7987 163.24 84.6787 162.28 81.0387 160.32C77.8387 158.48 75.1187 156 72.9587 153.04C71.9587 151.64 71.0387 150.2 70.2787 148.68C69.5187 147.2 68.7987 145.68 68.1987 144.16C67.6387 142.72 67.1587 141.28 66.7187 139.84C66.6387 139.52 66.5187 139.2 66.4387 138.84L66.3987 138.72C66.3987 138.76 66.4387 138.88 66.3987 138.72L66.3587 138.48L66.2387 138C66.0787 137.4 65.9587 136.84 65.7987 136.24C65.4787 134.8 65.1987 133.36 65.0387 131.92C65.0387 131.84 65.0387 131.8 64.9987 131.72C64.9987 130.64 63.0787 131.16 63.1587 132.2Z" fill="#000005"/>
<path d="M64.8781 133.16C65.3181 133.96 66.3181 134.56 67.0781 134.96C70.2381 136.8 73.9181 137.76 77.4781 138.52C80.7181 139.2 83.9581 139.72 87.2381 140.04C90.7981 140.44 94.3581 140.56 97.9181 140.44C103.118 140.28 108.318 139.4 113.278 137.84C114.758 137.36 116.198 136.8 117.638 136.2C118.278 135.92 118.918 135.6 119.518 135.24L119.598 135.2C119.958 135 119.478 134.76 119.278 134.68C118.838 134.52 118.358 134.56 117.918 134.72C116.438 135.56 114.878 136.24 113.278 136.76C108.958 138.28 104.478 139.2 99.9181 139.56C93.3181 140.08 86.6781 139.44 80.1981 138.24C76.4381 137.56 72.6781 136.68 69.3581 134.96L69.1981 134.88L69.1181 134.84L68.7981 134.64C68.5981 134.52 68.4381 134.4 68.2381 134.28C67.9581 134.08 67.6781 133.88 67.4381 133.68L67.3181 133.56C67.1981 133.44 67.3181 133.56 67.2781 133.52L67.0781 133.32C66.9981 133.24 66.9581 133.16 66.8781 133.08C66.8781 133.08 66.8781 133.08 66.8781 133.04C66.5581 132.6 64.6781 132.72 64.8781 133.16Z" fill="#000005"/>
<path d="M99.5983 162.679L98.2383 161.799L98.9183 162.239L98.2383 161.839C98.4783 161.319 98.6783 160.759 98.7583 160.199L100.318 160.559C100.198 161.279 99.9583 161.999 99.5983 162.679ZM100.718 158.519L99.1583 158.279C99.2383 157.679 99.3183 157.039 99.3983 156.319L100.998 156.479C100.918 157.199 100.838 157.879 100.718 158.519ZM101.198 154.479L99.5983 154.359C99.6383 153.759 99.6783 153.079 99.7183 152.399L101.318 152.479C101.278 153.199 101.238 153.839 101.198 154.479ZM101.398 150.439L99.7983 150.399C99.7983 149.759 99.8383 149.119 99.8383 148.399L101.438 148.439C101.438 149.159 101.438 149.799 101.398 150.439ZM101.478 146.439H99.8783V146.279C99.8783 145.679 99.8783 145.079 99.8783 144.439H101.478C101.478 145.079 101.478 145.719 101.478 146.319V146.439ZM99.8383 142.439C99.8383 142.079 99.8383 141.759 99.7983 141.399L101.398 141.359C101.398 141.719 101.398 142.079 101.438 142.399L99.8383 142.439Z" fill="#000005"/>
<path d="M72.5173 115.519C72.5173 115.519 66.5173 118.599 67.5973 119.919C68.6773 121.239 71.1973 122.999 71.1973 122.999C71.1973 122.999 65.3173 124.879 67.3173 125.919C69.3173 126.959 72.2373 128.719 72.2373 128.719C72.2373 128.719 67.4373 131.399 68.3573 132.719C69.2773 134.039 97.9973 140.199 116.917 132.319C116.917 132.319 116.917 130.439 114.797 128.319C114.797 128.319 118.117 127.639 117.717 126.719C117.317 125.799 114.917 122.719 114.917 122.719C114.917 122.719 119.437 122.439 118.637 120.439C117.837 118.439 115.437 115.359 115.437 115.359L72.5173 115.519Z" fill="#000005"/>
<path d="M71.7189 115.12C70.4389 115.76 69.2389 116.52 68.1189 117.36C67.5189 117.8 66.7989 118.36 66.5589 119.08C66.2389 119.96 67.4389 120.76 67.9989 121.24C68.7989 121.92 69.5989 122.56 70.4789 123.16L70.4389 122.6C69.1989 122.96 67.9589 123.48 66.8789 124.16C66.4389 124.44 65.7589 124.92 66.0789 125.56C66.2789 126 66.8789 126.24 67.2789 126.48C67.8789 126.8 68.5189 127.16 69.1189 127.52C69.9989 128 70.8789 128.52 71.7589 129.04L71.5589 128.36C70.4389 129 65.5989 131.8 68.1189 133.2C68.9189 133.6 69.7189 133.88 70.5589 134.08C71.8389 134.44 73.1189 134.72 74.4389 134.96C78.3989 135.72 82.3989 136.24 86.4389 136.52C91.3589 136.88 96.3189 136.88 101.239 136.48C106.319 136.04 111.359 135.16 116.159 133.4C116.719 133.2 117.279 133 117.839 132.76C117.919 132.72 117.999 132.64 118.039 132.56C118.039 130.96 116.879 129.4 115.839 128.32L115.559 128.8C116.359 128.64 119.399 128.04 118.799 126.72C118.359 125.88 117.799 125.08 117.199 124.32C116.799 123.76 116.399 123.24 115.999 122.72L115.519 123.24C116.799 123.16 120.359 122.76 119.879 120.76C119.639 120 119.279 119.32 118.839 118.68C118.399 117.96 117.959 117.28 117.479 116.64C116.879 115.76 116.439 114.96 115.239 114.92C112.959 114.88 110.679 114.92 108.399 114.96L94.3189 115L79.9189 115.04C77.4389 115.04 74.9189 115 72.3989 115.08H72.2789C71.9589 115.08 71.5589 115.24 71.7989 115.6C72.0389 115.96 72.7189 116.04 73.0789 116.04L77.1989 116L87.4789 115.96L99.9189 115.92L110.599 115.88C112.319 115.88 114.079 115.96 115.799 115.88H115.879L114.599 115.44C115.119 116.12 115.599 116.8 116.079 117.48C116.479 118.08 116.879 118.68 117.199 119.28C117.439 119.68 117.839 120.28 117.799 120.76C117.759 121.52 116.679 121.84 116.119 122C115.719 122.08 115.319 122.16 114.919 122.2C114.879 122.2 114.599 122.24 114.839 122.2H114.679H114.519C114.239 122.2 113.759 122.36 114.039 122.72C114.999 123.84 115.839 125.04 116.639 126.32C116.759 126.56 116.879 126.68 116.679 126.88C116.439 127.12 116.119 127.28 115.799 127.36C115.279 127.56 114.719 127.72 114.159 127.84C113.919 127.88 113.639 128.08 113.879 128.32C114.679 129.08 115.279 130 115.679 131C115.799 131.28 115.879 131.56 115.919 131.84C115.919 131.92 115.919 132 115.959 132.08C115.959 132 115.999 132.16 115.959 132.08L116.159 131.88C111.759 133.72 107.039 134.72 102.279 135.24C97.5989 135.76 92.8789 135.88 88.1989 135.6C86.0389 135.48 83.9189 135.32 81.7589 135.08C80.7989 134.96 79.7989 134.84 78.8389 134.72C78.3989 134.64 77.9589 134.6 77.4789 134.52C76.9989 134.44 76.8389 134.44 76.3589 134.36C74.9189 134.12 73.4789 133.84 72.0389 133.48C71.5189 133.36 70.9989 133.2 70.4789 133.08C70.7589 133.16 70.4789 133.08 70.3589 133.04L70.0389 132.96C69.8789 132.92 69.6789 132.84 69.5189 132.76L69.3189 132.68C69.1989 132.64 69.5589 132.8 69.3189 132.68C69.2789 132.64 69.2389 132.64 69.1589 132.6C68.9989 132.52 69.3189 132.72 69.1989 132.64C69.0789 132.56 69.2389 132.68 69.2389 132.68C69.2389 132.68 69.1989 132.68 69.1989 132.56C69.1989 132.32 69.2789 132.12 69.3589 131.92C69.7989 131.28 70.3589 130.76 70.9989 130.36C71.5189 129.96 72.0789 129.6 72.6789 129.24L72.9589 129.08C73.3589 128.88 72.9989 128.56 72.7589 128.4C72.1589 128.04 71.5589 127.68 70.9189 127.32C70.3589 127 69.7989 126.68 69.2389 126.36L68.4389 125.92L67.9989 125.68L67.8389 125.6C67.8789 125.64 67.9189 125.64 67.8389 125.6C67.8389 125.68 67.7989 125.56 67.7989 125.52C67.7989 125.56 67.8389 125.4 67.8389 125.36C67.9989 125.16 68.1589 125 68.3589 124.88C68.9989 124.48 69.7189 124.12 70.4389 123.88C70.9189 123.68 71.3989 123.52 71.8789 123.36C72.1989 123.28 72.0389 122.92 71.8389 122.8C71.1989 122.36 70.5989 121.88 69.9989 121.4C69.5189 121.04 69.0789 120.64 68.6789 120.2C68.5989 120.12 68.4789 120 68.3989 119.88C68.3189 119.76 68.3589 119.88 68.3589 119.8C68.3189 119.72 68.3189 119.64 68.3589 119.56C68.5189 118.96 69.1989 118.44 69.6789 118.08C70.3589 117.56 71.0789 117.08 71.8389 116.64C72.2789 116.36 72.7589 116.12 73.1989 115.88C73.5989 115.68 73.2389 115.32 72.9989 115.2C72.6789 115.04 72.1589 114.96 71.7189 115.12Z" fill="#000005"/>
<path d="M74.6381 123.96C78.3981 124.12 82.1981 124.24 85.9581 124.32C92.9181 124.44 99.9181 124.48 106.838 124.04C109.838 123.84 112.958 123.6 115.878 122.76C115.998 122.72 116.678 122.56 116.518 122.36C116.358 122.16 115.438 122.4 115.278 122.44L114.918 122.52C114.838 122.52 114.518 122.6 114.798 122.56C114.518 122.6 114.278 122.68 113.998 122.72L113.558 122.8L113.358 122.84C113.038 122.88 112.718 122.92 112.398 123C110.998 123.2 109.798 123.32 108.318 123.4C104.998 123.64 101.678 123.72 98.3581 123.76C92.1981 123.84 85.9981 123.72 79.7981 123.52C78.4781 123.48 77.1981 123.44 75.8781 123.36C75.3981 123.36 74.9181 123.44 74.4781 123.64C74.2781 123.8 74.2781 123.96 74.6381 123.96Z" fill="white"/>
<path d="M77.237 130.48C80.357 130.84 83.477 131.04 86.597 131.24C92.917 131.56 99.277 131.64 105.557 131.04C108.877 130.72 112.237 130.2 115.397 129.16C116.157 128.92 114.877 127.4 114.197 127.64C111.437 128.52 108.557 129.08 105.677 129.4C102.437 129.76 99.197 129.92 95.917 129.96C90.477 130 84.997 129.76 79.557 129.32C78.477 129.24 77.397 129.12 76.317 129C75.837 128.96 75.917 129.52 76.077 129.8C76.317 130.08 76.757 130.4 77.237 130.48Z" fill="white"/>
<path d="M66.1598 116.999C66.1598 116.999 111.04 121.359 121.84 115.879C121.84 115.879 123.56 49.8394 100.04 45.5594C58.4398 37.9994 63.3598 91.3594 66.1598 116.999Z" fill="white"/>
<path d="M66.9982 117.44C68.5582 117.6 70.1182 117.72 71.7182 117.84C75.5582 118.16 79.4382 118.4 83.2782 118.6C88.1982 118.84 93.1182 119.04 98.0382 119.08C102.798 119.16 107.598 119 112.358 118.56C114.278 118.4 116.238 118.12 118.118 117.76C119.598 117.48 121.038 117.04 122.398 116.44C122.638 116.32 122.678 116.36 122.718 116.16C122.718 116 122.718 115.8 122.718 115.64C122.718 114.96 122.718 114.28 122.718 113.56C122.718 111 122.678 108.44 122.598 105.88C122.478 102.2 122.278 98.5198 121.998 94.8798C121.638 90.6398 121.198 86.3598 120.558 82.1198C119.918 77.7598 119.038 73.4398 117.918 69.1998C116.918 65.2798 115.518 61.4398 113.798 57.7598C112.278 54.6798 110.398 51.7198 107.798 49.3998C105.078 46.9998 101.758 45.4398 98.1582 44.9198C93.5582 44.1998 88.7582 44.0798 84.1982 45.2798C80.5582 46.2398 77.1982 48.1198 74.4782 50.7198C71.7982 53.3598 69.6782 56.5598 68.2382 60.0398C66.5982 63.8798 65.4782 67.9198 64.7982 72.0398C64.0382 76.4398 63.6382 80.9198 63.5182 85.3998C63.3582 89.8798 63.4782 94.3998 63.7182 98.9198C63.9582 103.08 64.2782 107.24 64.6782 111.4C64.8382 113.16 65.0382 114.88 65.2382 116.64C65.2782 116.88 65.9182 117.08 66.0782 117.2C66.3982 117.28 66.7182 117.36 66.9982 117.44C66.6382 113.64 66.2382 109.88 65.9182 106.08C65.5582 101.76 65.3182 97.3998 65.2782 93.0398C65.1982 88.5598 65.3182 84.0398 65.7182 79.5598C66.0782 75.2798 66.8382 70.9998 67.9582 66.8398C68.9582 63.0398 70.5182 59.4398 72.5982 56.1198C74.5582 53.0398 77.1982 50.4398 80.3582 48.5198C83.8782 46.4398 87.8782 45.4798 91.9182 45.3198C94.3982 45.2398 96.8782 45.3598 99.3582 45.7598C100.278 45.8798 101.198 46.0798 102.118 46.3198L102.358 46.3998C102.398 46.3998 102.638 46.4798 102.478 46.4398L102.718 46.5198L102.838 46.5598C103.038 46.6398 102.638 46.4798 102.878 46.5598L103.118 46.6798C103.278 46.7598 102.918 46.5998 103.158 46.7198C103.238 46.7598 103.478 46.8798 103.198 46.7598L103.478 46.8798C103.678 46.9998 103.358 46.7998 103.558 46.9198L103.798 47.0398L103.918 47.1198C103.798 47.0398 104.038 47.1998 103.918 47.1198L104.158 47.2798C104.478 47.4798 104.718 47.6398 105.038 47.8798C105.638 48.3198 106.198 48.8398 106.758 49.3598C107.918 50.5598 108.958 51.8398 109.878 53.2398C111.918 56.4398 113.518 59.9198 114.678 63.5198C115.998 67.5998 117.078 71.7598 117.838 75.9598C118.638 80.1998 119.238 84.5198 119.718 88.7998C120.158 92.7598 120.438 96.6798 120.638 100.64C120.798 103.72 120.878 106.8 120.918 109.88C120.958 111.56 120.958 113.24 120.918 114.92C120.958 115.08 120.958 115.2 120.918 115.36C120.838 115.56 120.478 115.64 120.278 115.72C118.838 116.28 117.318 116.72 115.798 116.96C111.598 117.76 107.318 117.96 103.078 118.08C98.1182 118.24 93.1582 118.16 88.1982 117.96C83.7182 117.8 79.2382 117.56 74.7982 117.24C71.9982 117.04 69.2382 116.84 66.4382 116.6L65.2782 116.48C65.1182 116.48 65.7982 116.88 65.8382 116.92C66.1982 117.24 66.5982 117.4 66.9982 117.44Z" fill="#000005"/>
<path d="M66.1995 106.039C67.4795 106.239 68.7995 106.399 70.0795 106.559C73.3595 106.959 76.6795 107.279 79.9995 107.479C84.4395 107.799 88.8795 107.959 93.3595 107.959C98.1195 107.959 102.879 107.679 107.559 107.079C111.919 106.479 116.279 105.599 120.359 103.919C120.799 103.719 121.239 103.519 121.679 103.319C121.999 103.159 122.599 102.799 122.559 102.359C122.519 101.919 121.879 102.079 121.639 102.199C117.959 103.959 113.919 104.879 109.839 105.519C105.199 106.199 100.479 106.559 95.7995 106.599C91.3595 106.679 86.9195 106.519 82.4795 106.239C79.0395 105.999 75.5995 105.719 72.1595 105.319C70.5995 105.159 69.0395 104.879 67.5195 104.719H67.4395C66.9595 104.679 66.4795 104.879 66.1595 105.279C65.9195 105.519 65.7195 105.999 66.1995 106.039Z" fill="#000005"/>
<path d="M77.9175 112.92C78.7349 112.92 79.3975 112.257 79.3975 111.44C79.3975 110.623 78.7349 109.96 77.9175 109.96C77.1001 109.96 76.4375 110.623 76.4375 111.44C76.4375 112.257 77.1001 112.92 77.9175 112.92Z" fill="#000005"/>
<path d="M78.8773 111.4C78.8773 111.52 78.8373 111.68 78.8373 111.8C78.8773 111.72 78.8373 111.84 78.8373 111.84L78.7973 111.92C78.7973 111.96 78.7573 112 78.7573 112.04C78.7573 112.08 78.6773 112.16 78.7573 112.08L78.6373 112.24L78.5973 112.28L78.5573 112.32C78.5173 112.36 78.4373 112.4 78.3973 112.44C78.3573 112.48 78.4373 112.44 78.3973 112.44C78.3573 112.44 78.3173 112.48 78.2773 112.48L78.1973 112.52C78.3173 112.48 78.1973 112.52 78.1573 112.52C78.0773 112.52 78.0373 112.56 77.9573 112.56H77.8373H77.7573C77.8773 112.56 77.7173 112.56 77.7173 112.56L77.6373 112.52H77.5973L77.5573 112.48L77.4773 112.44L77.3973 112.4C77.3573 112.36 77.2773 112.28 77.2373 112.24L77.1573 112.16C77.1173 112.12 77.0773 112.04 77.0773 112C77.0773 111.96 77.0373 111.92 77.0373 111.88C77.0373 111.84 77.0773 111.96 77.0373 111.88C77.0373 111.8 76.9973 111.72 76.9973 111.64C76.9973 111.64 76.9973 111.52 76.9973 111.56C76.9973 111.6 76.9973 111.48 76.9973 111.48C76.9973 111.4 76.9973 111.36 77.0373 111.28C77.0373 111.24 77.0373 111.24 77.0773 111.2C77.0373 111.28 77.0773 111.16 77.0773 111.16C77.1173 111.08 77.1573 111 77.1973 110.96L77.2773 110.88L77.3173 110.84C77.3173 110.84 77.4373 110.76 77.3573 110.8C77.3973 110.76 77.4373 110.72 77.4773 110.68C77.5173 110.68 77.5173 110.64 77.5573 110.64C77.6373 110.6 77.4773 110.68 77.5973 110.64L77.7973 110.56C77.6773 110.6 77.8773 110.56 77.9173 110.56H78.0373C77.9173 110.56 77.9973 110.56 78.0373 110.56H78.1573C78.1573 110.56 78.3173 110.6 78.1973 110.56C78.2773 110.56 78.3573 110.6 78.4373 110.64L78.5573 110.72L78.6373 110.76L78.7173 110.8C78.6773 110.76 78.6773 110.76 78.7173 110.8C78.7573 110.84 78.7973 110.88 78.8773 110.96L78.9573 111.04C78.9173 110.96 78.9573 111.08 78.9573 111.08C78.9973 111.16 79.0373 111.2 79.0373 111.28C78.8773 111.28 78.8773 111.32 78.8773 111.4C78.8773 111.44 78.9173 111.52 78.9173 111.6C78.9173 111.84 79.2773 112 79.4773 111.96C79.7173 111.92 79.9173 111.72 79.9173 111.44C79.8773 110.64 79.3573 109.96 78.6373 109.72C77.8373 109.44 76.9573 109.68 76.4373 110.32C75.9173 110.92 75.8373 111.8 76.2373 112.48C76.6773 113.2 77.4773 113.56 78.3173 113.4C79.2373 113.24 79.8773 112.48 79.9573 111.56C79.9573 111.32 79.7973 111.12 79.5573 111.08C79.2373 111 78.9173 111.16 78.8773 111.4Z" fill="#000005"/>
<path d="M71.9603 113.04C72.8661 113.04 73.6003 112.306 73.6003 111.4C73.6003 110.494 72.8661 109.76 71.9603 109.76C71.0546 109.76 70.3203 110.494 70.3203 111.4C70.3203 112.306 71.0546 113.04 71.9603 113.04Z" fill="white"/>
<path d="M73.1206 111.32C73.1206 111.88 72.7606 112.4 72.2406 112.64C72.2006 112.68 72.1206 112.68 72.0806 112.68H71.9606C71.8406 112.72 72.0006 112.68 71.9206 112.68H71.8006C71.6406 112.68 71.8406 112.68 71.7606 112.68H71.6406C71.5206 112.68 71.7206 112.72 71.6006 112.68L71.4806 112.64C71.5206 112.64 71.5606 112.68 71.4806 112.64L71.3606 112.6C71.4006 112.6 71.4406 112.64 71.3606 112.6L71.2806 112.56C71.2806 112.56 71.2006 112.48 71.2406 112.52C71.1606 112.48 71.1206 112.4 71.0806 112.32C70.9206 112.08 70.8406 111.84 70.8006 111.56C70.8006 111.28 70.8406 110.96 71.0006 110.72C71.1606 110.48 71.3606 110.28 71.6006 110.16C71.7206 110.12 71.8406 110.08 71.9606 110.04C72.0806 110.04 72.1606 110.04 72.2806 110.04C72.4006 110.04 72.2006 110 72.3206 110.04L72.4406 110.08C72.3206 110.04 72.6006 110.2 72.5206 110.12L72.6006 110.16C72.6006 110.16 72.7206 110.28 72.6806 110.24C72.7206 110.28 72.7606 110.32 72.8406 110.4C73.0006 110.72 73.0806 111 73.1206 111.32C73.1206 111.52 73.4806 111.68 73.6406 111.68C73.8006 111.68 74.0806 111.68 74.0806 111.44C74.0406 109.64 71.4406 108.72 70.2806 110.08C69.7606 110.68 69.7206 111.56 70.1206 112.24C70.6406 113 71.5606 113.4 72.4806 113.28C73.4006 113.16 74.0806 112.36 74.0806 111.44C74.0806 111.36 73.9606 111.24 73.9206 111.2C73.8006 111.12 73.6806 111.08 73.5606 111.04C73.3606 111.08 73.1206 111.12 73.1206 111.32Z" fill="#000005"/>
<path d="M83.5205 67.7594C81.7605 67.2394 80.5605 65.4394 80.6405 63.3994C80.7605 60.3994 83.0005 56.0394 84.7205 55.3594C87.2005 54.3994 105.68 52.3994 108.92 55.6794C111.72 58.5994 113.2 62.4794 113.08 66.5194C112.92 69.1594 91.4005 69.9994 83.5205 67.7594Z" fill="#000005"/>
<path d="M82.7981 67.1602C82.6781 67.1202 82.5581 67.0802 82.4381 67.0402C82.3981 67.0002 82.2781 66.8802 82.3181 67.0002C82.3181 67.0002 82.5581 67.2802 82.4781 67.0802C82.4381 67.0002 82.3581 66.9202 82.2781 66.8402C81.9981 66.4802 81.7981 66.0802 81.6781 65.6802C81.3981 64.8402 81.3581 63.9202 81.5581 63.0402C81.8781 61.2402 82.5581 59.5602 83.5581 58.0402C84.1181 57.1602 84.8381 56.2402 85.8781 55.9202C86.6381 55.7202 87.3981 55.5602 88.1581 55.4802C90.6381 55.0802 93.1181 54.8402 95.6381 54.7202C98.4381 54.5202 101.198 54.5202 103.998 54.7202C105.118 54.8002 106.238 55.0002 107.358 55.2402C107.798 55.3602 108.198 55.4802 108.598 55.6802C108.678 55.7202 108.718 55.7202 108.798 55.7602C108.638 55.6802 108.918 55.8802 108.718 55.7202C108.718 55.7202 108.318 55.4802 108.318 55.4002C108.318 55.5202 108.718 55.8402 108.798 55.9202C110.078 57.4402 111.078 59.2002 111.678 61.1202C111.958 62.0002 112.158 62.8802 112.278 63.7602C112.438 64.5202 112.438 65.2802 112.358 66.0402C112.278 66.4802 111.798 66.7202 111.438 66.8802C110.678 67.2002 109.878 67.4402 109.078 67.5602C106.558 68.0002 104.038 68.2802 101.478 68.4002C98.4381 68.5602 95.3981 68.5602 92.3581 68.4402C89.6781 68.3602 86.9981 68.0802 84.3581 67.6002C83.7981 67.4002 83.2781 67.2802 82.7981 67.1602C82.5981 67.0802 83.1981 67.6802 83.2381 67.7202C83.5181 68.0002 83.8781 68.2402 84.2781 68.3602C86.8381 69.0802 89.5181 69.3202 92.1181 69.4802C95.3581 69.6802 98.5981 69.7202 101.798 69.5602C104.598 69.4802 107.358 69.2402 110.118 68.7602C110.998 68.6402 111.878 68.4002 112.718 68.0802C113.118 67.9202 113.718 67.6802 113.838 67.2002C113.878 66.9202 113.878 66.6402 113.878 66.3602C113.878 65.9602 113.838 65.5202 113.798 65.1202C113.718 64.2002 113.518 63.3202 113.238 62.4002C112.638 60.3602 111.638 58.4802 110.278 56.8802C109.398 55.7602 108.278 54.8802 106.998 54.3202C105.998 53.9202 104.918 53.6802 103.838 53.5602C100.958 53.2402 98.0781 53.1602 95.1581 53.3202C92.4381 53.4402 89.7181 53.6802 86.9981 54.0802C86.1181 54.2002 85.2781 54.3602 84.4381 54.5602C83.3981 54.8402 82.7181 55.6002 82.1181 56.4802C81.0381 58.0802 80.2781 59.8402 79.9581 61.7602C79.5981 63.5602 80.1981 65.4402 81.5581 66.6802C82.3181 67.4402 83.2381 68.0002 84.2781 68.3202C84.4381 68.3602 83.8781 67.8002 83.8381 67.7602C83.5181 67.5202 83.1581 67.3202 82.7981 67.1602Z" fill="#000005"/>
<path d="M101.558 104.8H99.9578C99.9578 104.8 99.9578 104.04 99.9978 102.8H101.598C101.558 104.04 101.558 104.8 101.558 104.8ZM101.598 100.8H99.9978V98.7997H101.598V100.8ZM101.638 96.7997H100.038C100.038 96.1597 100.038 95.4797 100.038 94.7997H101.638C101.638 95.4397 101.638 96.1197 101.638 96.7997ZM101.638 92.7997H100.038V90.7997H101.638V92.7997ZM100.038 88.7997C100.038 88.1197 100.038 87.4797 100.038 86.7997H101.638C101.638 87.4797 101.638 88.1197 101.638 88.7997H100.038ZM99.9978 84.7997C99.9978 84.1197 99.9978 83.4397 99.9578 82.7997L101.558 82.7597C101.558 83.4397 101.558 84.0797 101.598 84.7597L99.9978 84.7997ZM99.9578 80.7997C99.9578 80.1197 99.9178 79.4397 99.9178 78.7997L101.518 78.7597C101.518 79.3997 101.558 80.0797 101.558 80.7597L99.9578 80.7997ZM99.8378 76.7997C99.7978 76.0797 99.7978 75.4397 99.7578 74.7997L101.358 74.7197C101.398 75.3597 101.438 76.0397 101.438 76.7197L99.8378 76.7997Z" fill="#000005"/>
<path d="M92.3581 59.5598C92.3581 59.5598 93.9981 60.1598 93.2781 61.6798C92.5581 63.1998 90.6781 62.3198 90.8781 60.8398C91.0781 59.3598 92.3581 59.5598 92.3581 59.5598Z" fill="white"/>
<path d="M105.717 59.5598C105.717 59.5598 107.357 60.1598 106.637 61.6798C105.917 63.1998 104.037 62.3198 104.237 60.8398C104.437 59.3598 105.717 59.5598 105.717 59.5598Z" fill="white"/>
<path d="M157.197 100.6C152.717 99.3995 148.997 96.2395 147.117 91.9995C145.237 87.6395 144.197 82.9995 143.997 78.2795C143.277 64.6795 144.197 53.5595 151.757 52.7995C156.877 52.2795 157.797 61.1995 156.477 67.7995C156.477 67.7995 159.837 59.2395 165.877 53.5195C174.637 45.2795 178.837 48.2795 180.197 50.0395C183.757 54.5995 178.597 59.7595 174.357 60.3995C174.357 60.3995 182.877 55.4795 187.757 59.1995C192.997 63.1995 188.877 67.2795 181.717 68.1595L178.837 70.2795C178.837 70.2795 182.357 70.4395 185.277 72.1595C188.797 74.1995 189.557 76.9995 188.637 78.9595C186.837 82.8395 181.957 80.6395 181.557 80.4395C181.157 80.2395 179.077 82.5195 177.157 84.2795C176.877 86.8795 176.197 89.3995 175.197 91.7995C172.237 98.7995 164.557 102.56 157.197 100.6Z" fill="white"/>
<path d="M157.879 100.24C155.279 99.5599 152.959 98.1599 151.079 96.2399C149.279 94.3599 148.119 92.1199 147.239 89.6799C145.199 83.9599 144.839 77.9199 144.799 71.8799C144.759 69.1599 144.879 66.4799 145.199 63.7999C145.439 61.6799 145.959 59.5599 146.799 57.5999C147.439 56.1199 148.439 54.6799 149.839 53.8799C150.159 53.6799 150.479 53.5599 150.799 53.4399C150.919 53.3999 151.079 53.3599 151.239 53.3199C151.359 53.2799 151.439 53.2799 151.559 53.2799C151.559 53.2799 151.719 53.2399 151.599 53.2799C151.479 53.3199 151.679 53.2799 151.719 53.2799C151.839 53.2799 151.959 53.2399 152.079 53.2399C151.919 53.2399 152.119 53.2399 152.199 53.2399C152.279 53.2399 152.359 53.2799 152.239 53.2399L152.359 53.2799C152.399 53.2799 152.479 53.3199 152.519 53.3199C152.879 53.4399 153.199 53.5999 153.479 53.8399C154.919 54.9999 155.479 57.1199 155.719 58.8799C156.079 61.2799 156.079 63.7199 155.719 66.1599C155.639 66.7599 155.559 67.3199 155.439 67.9199C155.319 68.5199 157.199 68.3599 157.399 67.8799C158.199 65.9199 159.119 64.0399 160.199 62.2399C162.319 58.4399 165.079 55.0799 168.359 52.2399C169.799 50.9599 171.439 49.9199 173.199 49.1199C173.799 48.8799 174.399 48.6799 175.039 48.5599H175.079L175.279 48.5199C175.439 48.5199 175.559 48.4799 175.719 48.4799C175.479 48.4799 175.799 48.4799 175.919 48.4799H176.079H176.239H176.159L176.519 48.5199C176.559 48.5199 176.879 48.5999 176.679 48.5599C176.879 48.5999 177.119 48.6799 177.319 48.7599L177.479 48.8399L177.719 48.9599C177.879 49.0399 178.039 49.1599 178.199 49.2799C178.439 49.4399 178.679 49.6399 178.879 49.8799C179.279 50.3199 179.639 50.8399 179.879 51.3599C181.719 55.1999 177.639 59.3999 173.999 59.9599L175.039 60.5999C176.159 59.9599 177.319 59.4399 178.519 59.0399C180.599 58.3199 182.879 57.7999 185.039 58.4799C186.959 59.0799 189.519 61.1599 188.999 63.4799C188.479 65.7999 185.439 66.8799 183.399 67.3599C182.959 67.4399 182.479 67.5599 182.039 67.5999C181.599 67.6399 181.159 67.7599 180.799 67.9599C180.519 68.1599 180.239 68.3599 179.999 68.5599L177.919 70.0799C177.439 70.4399 178.359 70.6799 178.559 70.6799L178.959 70.7199C178.719 70.6799 179.119 70.7599 179.159 70.7599L179.879 70.8799C180.959 71.0799 181.999 71.3599 183.039 71.7599C185.039 72.5599 187.199 74.0799 187.799 76.2799C188.239 77.8399 187.679 79.7199 186.199 80.5199C185.959 80.6399 185.679 80.7599 185.399 80.7599C185.639 80.7199 184.919 80.7999 185.159 80.7999C184.959 80.7999 184.759 80.7999 184.599 80.7599C184.759 80.7599 184.479 80.7599 184.479 80.7199L184.199 80.6799L183.759 80.5999C183.639 80.5599 183.199 80.4399 182.959 80.3599C182.799 80.2799 182.599 80.2399 182.439 80.1599C182.399 80.1599 182.359 80.1199 182.279 80.1199C182.679 80.2799 182.159 80.0799 182.239 80.0799C182.079 80.0399 181.919 79.9999 181.719 79.9999C180.759 79.9599 180.079 80.5599 179.399 81.1599C178.439 81.9999 177.559 82.9199 176.639 83.7999C176.399 83.9999 176.199 84.1599 176.159 84.4399C176.119 84.6399 176.119 84.8399 176.079 85.0399C175.519 89.3999 173.919 93.9199 170.639 96.9599C167.239 100.12 162.439 101.4 157.879 100.24C157.439 100.12 156.919 100.16 156.479 100.36C156.159 100.52 156.119 100.88 156.519 101C160.839 102.16 165.479 101.6 169.399 99.4399C171.279 98.3999 172.879 96.9999 174.199 95.2799C175.599 93.3599 176.599 91.1999 177.199 88.8799C177.679 87.3599 177.999 85.7599 178.159 84.1599L178.039 84.3999C179.079 83.3999 180.079 82.3999 181.159 81.3999C181.359 81.2399 181.519 81.0799 181.719 80.9199C181.799 80.8799 181.879 80.7999 181.919 80.7599L181.999 80.7199C182.239 80.5999 181.999 80.5999 181.359 80.7199C180.239 80.7199 180.839 80.7999 181.239 80.9599C182.839 81.6399 184.599 81.7999 186.319 81.4799C188.319 80.9999 189.959 79.3599 189.959 77.1999C189.919 74.7599 187.919 72.8799 185.919 71.7599C183.799 70.5999 181.439 69.9599 178.999 69.8399L179.639 70.4399L182.519 68.3199L181.679 68.5999C184.359 68.2799 187.319 67.5999 189.439 65.7999C190.959 64.5199 191.559 62.6399 190.439 60.8799C189.119 58.7599 186.719 57.6399 184.319 57.4399C181.999 57.2399 179.599 57.7199 177.399 58.4799C176.079 58.9199 174.799 59.4799 173.559 60.1599C173.319 60.3199 173.199 60.5199 173.439 60.7199C173.799 60.8799 174.199 60.9199 174.599 60.8399C178.199 60.2799 182.519 57.0799 182.319 53.0399C182.199 50.6799 180.399 48.5999 178.199 47.9599C175.159 47.0399 171.959 48.2399 169.399 49.8799C165.319 52.4799 162.039 56.1599 159.439 60.1999C157.839 62.5999 156.519 65.1599 155.399 67.8399L157.359 67.7999C157.879 65.2799 158.039 62.6799 157.839 60.0799C157.639 58.0399 157.199 55.6799 155.879 54.0399C154.559 52.3999 152.439 52.1199 150.479 52.5999C148.679 52.9999 147.079 54.0399 145.999 55.5199C144.759 57.1599 144.119 59.1599 143.679 61.1599C143.159 63.7199 142.839 66.3599 142.799 68.9599C142.679 72.1199 142.799 75.2799 142.959 78.4399C143.119 81.6799 143.639 84.8799 144.559 87.9599C145.319 90.5199 146.279 93.1199 147.879 95.2399C149.599 97.5199 151.879 99.2799 154.479 100.36C155.119 100.64 155.799 100.84 156.439 101.04C156.919 101.2 157.399 101.16 157.839 100.92C158.239 100.68 158.279 100.36 157.879 100.24Z" fill="#000005"/>
<path d="M144.319 66.6002C146.279 67.2802 148.319 67.7602 150.359 67.9602C152.799 68.1602 155.239 67.3602 157.119 65.7602C158.039 64.9202 156.519 63.9602 155.759 64.6002C154.919 65.3602 153.919 65.9202 152.799 66.2002C152.519 66.2802 152.279 66.3202 151.999 66.3602L151.599 66.4002C151.639 66.4002 151.199 66.4402 151.399 66.4002C150.999 66.4002 150.599 66.4002 150.199 66.3602C148.399 66.1602 146.639 65.7202 144.919 65.1202C144.439 64.9602 143.919 65.1602 143.679 65.6002C143.479 66.0802 143.919 66.4402 144.319 66.6002Z" fill="#000005"/>
<path d="M167.878 54.1194C168.358 54.8394 168.838 55.5994 169.318 56.3594C169.798 57.1994 170.398 57.9194 171.118 58.5594C171.758 59.0394 172.438 59.4794 173.118 59.8394L175.478 61.2394C175.838 61.4394 175.598 60.8794 175.518 60.7594C175.318 60.3194 175.038 59.9594 174.678 59.6794C173.398 58.9194 172.038 58.1994 170.798 57.3594C170.398 57.0794 170.078 56.7194 169.838 56.2794L168.558 54.2794C168.438 54.0794 168.278 53.8394 168.118 53.6794C168.078 53.6394 167.838 53.3594 167.718 53.3994C167.438 53.3994 167.798 54.0394 167.878 54.1194Z" fill="#000005"/>
<path d="M174.199 60.7602C174.999 64.0402 177.159 66.8803 180.119 68.5203C180.599 68.7203 181.159 68.6003 181.479 68.2003C181.759 67.9203 181.759 67.4402 181.479 67.1602C181.439 67.1202 181.399 67.0803 181.359 67.0403C178.759 65.6003 176.879 63.1603 176.159 60.3203C176.039 59.8803 175.599 59.6003 175.159 59.7203H175.119C174.679 59.8003 174.079 60.2402 174.199 60.7602Z" fill="#000005"/>
<path d="M181.4 71.3997C180.48 72.4797 180.36 74.1197 180.24 75.4397C180.12 76.9597 180.12 78.4397 180.2 79.9597C180.2 80.0397 181.04 79.5597 181.08 79.5197C181.24 79.3997 181.84 79.0797 181.84 78.8397C181.76 77.3997 181.76 75.9597 181.88 74.5597C181.92 73.7597 182.04 72.9997 182.2 72.1997C182.32 71.5997 182.56 71.0397 182.92 70.5597C183.16 70.2397 182.56 70.5597 182.52 70.5997C182.08 70.7997 181.72 71.0797 181.4 71.3997Z" fill="#000005"/>
<path d="M166.918 72.1997C168.638 70.5197 170.158 68.6397 171.478 66.6397C172.838 64.6397 174.078 62.5597 175.238 60.4397C175.438 60.0797 175.238 59.7997 174.838 59.8397C174.358 59.9197 173.918 60.1997 173.678 60.6397C172.598 62.6797 171.438 64.6397 170.158 66.5597C168.958 68.4397 167.558 70.1597 165.998 71.7197C165.798 71.9197 165.398 72.3997 165.758 72.6397C166.118 72.8797 166.678 72.3997 166.918 72.1997Z" fill="#000005"/>
<path d="M172.878 77.1599C175.998 74.7999 178.398 71.7599 181.198 69.0399C181.438 68.7999 180.758 68.5599 180.598 68.5199C180.358 68.4399 179.598 68.1599 179.358 68.3999C176.598 71.1199 174.158 74.1599 171.038 76.5199C170.758 76.7199 171.518 76.9999 171.638 77.0399C171.918 77.1599 172.598 77.3599 172.878 77.1599Z" fill="#000005"/>
<path d="M156.758 68.5197C156.838 68.5597 156.918 68.5997 156.958 68.6797C156.998 68.7597 157.118 68.7997 157.198 68.8397L157.358 68.9597C157.518 69.1197 157.318 68.9197 157.398 68.9997C157.678 69.2397 157.998 69.5197 158.238 69.7597L158.478 69.9997L158.438 69.9597L158.598 70.1197C158.798 70.3197 158.958 70.5197 159.118 70.7197L159.358 70.9997C159.518 71.1997 159.238 70.8397 159.398 71.0397L159.518 71.1597C159.718 71.3997 159.918 71.6797 160.078 71.9597L160.118 71.9997L160.238 72.1997L160.478 72.5997C160.678 72.9197 160.798 73.1597 160.918 73.3997C161.598 74.7597 162.078 76.1997 162.358 77.7197C162.758 79.9197 162.758 82.1997 162.358 84.3997C162.278 84.7997 162.638 85.2397 162.878 85.5197C162.958 85.5997 163.558 86.1997 163.638 85.8397C164.878 79.2397 162.558 72.4797 157.518 67.9997C157.118 67.6397 156.718 67.3197 156.318 67.0397C155.998 66.8397 155.838 66.9597 155.958 67.3197C156.118 67.8397 156.398 68.2397 156.758 68.5197Z" fill="#000005"/>
<path d="M49.0779 79.4802C54.7179 79.0002 56.0379 90.9202 56.3579 98.9601C56.4379 101.32 58.5579 112.12 53.1979 116C51.1579 117.48 49.0379 118.8 46.8379 120C42.5979 122.32 37.3979 122.08 33.3979 119.36L32.9579 119.04C28.3979 115.56 26.2379 107.56 26.2379 107.56C26.2379 107.56 22.5979 108.2 22.1979 103.8C22.1979 103.8 18.3579 108.36 15.4779 105.2C11.3579 100.68 19.3979 91.4802 23.5579 91.0802C23.5579 91.0802 24.4779 86.9202 29.4779 87.9602L28.5579 84.9601C26.7979 84.2001 17.3179 83.3602 19.1979 76.6402C20.3179 72.6002 28.9979 72.2002 35.9979 78.0802C42.5179 83.5602 43.6779 94.9601 43.6779 94.9601C43.6779 94.9601 44.8379 92.7602 45.3579 91.9202C45.3579 91.9202 42.9179 80.0002 49.0779 79.4802Z" fill="white"/>
<path d="M49.2789 80.4002C49.3189 80.4002 49.6389 80.4002 49.4389 80.4002C49.5189 80.4002 49.6389 80.4002 49.7189 80.4402C49.7989 80.4802 49.9189 80.4802 50.0389 80.4802C50.2389 80.5202 49.9589 80.4402 50.1589 80.5202C50.3589 80.6002 50.5189 80.6802 50.6789 80.7602C50.4389 80.6402 50.7589 80.8002 50.7989 80.8402C50.8789 80.8802 50.9589 80.9602 51.0789 81.0402C51.1189 81.0802 51.3589 81.2802 51.1989 81.1202L51.4389 81.3602C51.5989 81.5202 51.7589 81.7202 51.8789 81.9202C51.9989 82.0402 52.0789 82.1602 52.1589 82.3202C52.3189 82.5602 52.4389 82.8002 52.5589 83.0802C53.6789 85.2402 54.1589 87.7602 54.5589 90.2002C54.9589 92.9202 55.2389 95.6402 55.3189 98.4002C55.3589 99.1602 55.4389 99.8802 55.5189 100.6C55.5589 101.12 55.5989 101.2 55.6389 101.72C55.6789 102.24 55.7189 102.72 55.7589 103.2C55.9589 105.52 55.8789 107.84 55.4389 110.12C55.2389 111.2 54.8389 112.28 54.2789 113.24C53.6389 114.28 52.7989 115.12 51.7589 115.76C50.3189 116.76 48.8389 117.72 47.2789 118.6C45.9989 119.4 44.5589 120 43.0789 120.36C39.9589 121.08 36.6389 120.48 33.9589 118.72C31.7989 117.24 30.3189 115 29.1189 112.64C28.6389 111.68 28.1589 110.52 27.7989 109.6C27.5989 109.08 27.3589 108.36 27.1589 107.72L27.0789 107.44C26.9589 106.92 26.4389 106.6 25.9189 106.64H25.7989C25.6789 106.64 25.2789 106.64 25.6389 106.64C25.4789 106.64 25.2789 106.64 25.1189 106.6C25.0789 106.6 24.7589 106.52 24.9189 106.56C25.0789 106.6 24.7189 106.52 24.6789 106.48C24.6389 106.44 24.4789 106.4 24.3589 106.36C24.1589 106.28 24.4789 106.44 24.3589 106.36C24.3189 106.32 24.2389 106.28 24.1989 106.24C24.1589 106.2 23.8789 105.96 23.9989 106.12C23.8789 106 23.7989 105.92 23.6789 105.8C23.5589 105.68 23.6789 105.84 23.6389 105.72L23.5189 105.52C23.4389 105.4 23.3589 105.2 23.3189 105.12C23.1589 104.72 23.0789 104.32 23.0389 103.92C22.9589 103.04 21.9189 102.44 21.2389 103.2C21.1989 103.24 20.9989 103.48 21.0789 103.36C21.1589 103.24 20.9589 103.48 20.8789 103.56C20.7589 103.68 20.6389 103.76 20.5189 103.88C19.9589 104.4 19.3189 104.84 18.5989 105.16C18.2389 105.32 17.8789 105.4 17.4789 105.4C17.1989 105.4 16.8789 105.32 16.6389 105.2C16.2789 104.96 15.9589 104.68 15.7189 104.32C15.6789 104.24 15.6389 104.2 15.5989 104.16C15.5589 104.08 15.5189 104 15.4789 103.92C15.4389 103.84 15.3989 103.76 15.3589 103.68C15.3189 103.64 15.3189 103.56 15.3189 103.52C15.1189 102.8 15.0789 102.04 15.1989 101.32C15.2789 100.92 15.3989 100.56 15.5189 100.16C15.6789 99.7202 15.8389 99.3202 16.0389 98.9202C16.8789 97.2802 17.9989 95.8002 19.3589 94.5602C20.0789 93.8802 20.8389 93.3202 21.6789 92.8002C21.7589 92.7602 21.9589 92.6402 22.1589 92.5602C22.3589 92.4802 22.5189 92.4002 22.7189 92.3202L22.9989 92.2402C23.0389 92.2402 23.2789 92.1602 23.1989 92.2002L23.3589 92.1602L23.6389 92.1202C23.9589 92.0802 24.2389 91.8802 24.3589 91.5602C24.3989 91.3602 24.4789 91.1602 24.5589 91.0002C24.5989 90.9202 24.7589 90.6402 24.5989 90.8802C24.6789 90.7602 24.7189 90.6802 24.7989 90.5602C24.9589 90.3202 25.1189 90.1202 25.2789 89.9202C25.3589 89.8402 25.1589 90.0402 25.2789 89.8802L25.4389 89.7202C25.5589 89.6002 25.7189 89.5202 25.8389 89.4002C25.9589 89.3202 26.0389 89.2402 26.1589 89.2002C26.3189 89.1202 26.4789 89.0802 26.6389 89.0002C27.5189 88.7602 28.3989 88.7602 29.2789 88.9602C29.7589 89.0402 30.1589 88.7202 30.2389 88.2402C30.2389 88.1202 30.2389 88.0402 30.2389 87.9202L29.6789 86.0802C29.4389 85.3602 29.3589 84.4402 28.5589 84.1202C28.0389 83.9202 27.4789 83.7602 26.9189 83.6802L26.4789 83.5602L26.3589 83.5202L26.1589 83.4802C25.7989 83.4002 25.3989 83.2802 25.0389 83.1602C24.2389 82.9202 23.4789 82.6402 22.7589 82.2802L22.5189 82.1602L22.3189 82.0402L22.1189 81.9202L21.8389 81.7602C21.6789 81.6402 21.5189 81.5602 21.3589 81.4402L21.1189 81.2402L21.0389 81.1602C20.8389 81.0002 21.1189 81.2402 20.9989 81.1602C20.8789 81.0802 20.7189 80.9202 20.5989 80.7602C20.5189 80.6802 20.4789 80.6002 20.3989 80.5202C20.3189 80.4402 20.1989 80.2802 20.3189 80.4402C20.1989 80.2802 20.1189 80.1202 20.0389 79.9202C19.9989 79.8402 19.9589 79.7602 19.9189 79.6802C19.8389 79.5202 19.8789 79.6002 19.9189 79.6802C19.9189 79.6402 19.8789 79.5602 19.8789 79.5202C19.6789 78.7202 19.6789 77.8802 19.9189 77.0802C19.9589 76.9202 20.0389 76.7602 20.1189 76.6002C20.1989 76.4402 20.0389 76.6802 20.1589 76.5202C20.1989 76.4402 20.2789 76.3602 20.3189 76.2402C20.3589 76.1202 20.3989 76.1202 20.4789 76.0402C20.5989 75.8802 20.4389 76.0802 20.5589 75.9602C20.7189 75.8402 20.8389 75.7202 20.9989 75.6002L21.2389 75.4402L21.3589 75.3602C21.5589 75.2402 21.7589 75.1602 21.9989 75.0802C22.3589 74.9202 22.7589 74.8002 23.1589 74.7602C25.3989 74.3602 27.7189 74.8002 29.8389 75.6002C32.3989 76.5202 34.7189 78.0802 36.5589 80.0402C38.0789 81.7602 39.2789 83.7602 40.1589 85.8802C41.3589 88.7602 42.1589 91.8002 42.5589 94.9202C42.5589 95.0402 42.5989 95.3602 42.5589 94.8802C42.5589 95.3202 42.8389 95.7202 43.2389 95.8802C43.6389 96.0402 44.0789 95.9202 44.3189 95.6002C44.5989 95.0402 44.8789 94.5202 45.1989 93.9602C45.5189 93.4002 46.2389 92.5202 46.1189 91.8402C45.9989 91.1602 45.9189 90.6002 45.8389 89.9602C45.8389 89.8802 45.7989 89.4802 45.7989 89.7202C45.7989 89.6002 45.7589 89.4802 45.7589 89.3602C45.7189 89.0402 45.7189 88.7202 45.6789 88.4002C45.6389 87.7202 45.6389 87.0402 45.6789 86.3602C45.6789 85.0402 45.9189 83.7602 46.4389 82.5602C46.4789 82.4802 46.5189 82.4002 46.5589 82.3202C46.4789 82.4802 46.5989 82.2402 46.6389 82.2002C46.7189 82.0402 46.7989 81.9202 46.9189 81.7602C47.0389 81.6002 47.1189 81.5202 47.1989 81.4002C47.3589 81.2002 47.0789 81.5202 47.2389 81.3602C47.3189 81.2802 47.3989 81.2002 47.4789 81.1602C47.5989 81.0802 47.7189 80.9602 47.8789 80.8802C48.0789 80.7602 47.7189 80.9602 47.9589 80.8402C48.0389 80.8002 48.1589 80.7602 48.2389 80.7202C48.6389 80.5202 48.9589 80.4402 49.2789 80.4002C50.5589 80.3202 49.9989 78.4802 48.8389 78.6002C43.3589 79.1202 43.6389 86.4802 44.1589 90.4402C44.2389 90.9602 44.3189 91.5202 44.3989 92.0402L44.5189 91.3602C43.8789 92.3202 43.3589 93.4002 42.8389 94.4002L44.5989 95.1202C44.3189 92.6002 43.7589 90.0802 42.9189 87.6802C42.2389 85.5602 41.2789 83.5202 40.0789 81.6002C38.7189 79.4002 36.8789 77.5202 34.7589 76.0802C32.5189 74.5202 29.9589 73.4402 27.2389 72.9202C25.2389 72.5602 22.9989 72.5602 21.0789 73.3202C20.2789 73.6402 19.5189 74.1602 18.9589 74.8002C18.4389 75.4802 18.1189 76.3202 17.9989 77.1602C17.6789 78.9602 18.2389 80.7602 19.5189 82.0402C20.7589 83.2002 22.2789 84.0802 23.8789 84.5602C24.5589 84.8002 25.2789 85.0002 25.9989 85.1602L27.1189 85.4402L27.3189 85.4802C27.1189 85.4402 27.3589 85.4802 27.3189 85.4802L27.6389 85.5602C27.8389 85.6002 27.9989 85.6802 28.1589 85.7602L27.5189 85.0402L28.4389 88.0402L29.3989 87.0002C27.4789 86.6002 25.3589 86.8402 23.9189 88.3202C23.2389 88.9602 22.7589 89.8002 22.5189 90.6802L23.2389 90.1202C21.4389 90.3202 19.7989 91.4802 18.5189 92.6002C16.8389 94.0402 15.4789 95.7602 14.4789 97.7202C13.5989 99.4802 12.9589 101.56 13.5189 103.52C14.1589 105.72 16.2389 107.56 18.5989 107.08C20.3189 106.76 21.8389 105.6 22.9589 104.28L21.1589 103.56C21.3589 105.44 22.0789 107.2 23.9189 108.04C24.6789 108.4 25.5589 108.48 26.3589 108.36L25.1989 107.56C25.5989 109 26.1189 110.4 26.7189 111.76C27.7989 114.28 29.2389 116.8 31.2389 118.72C33.8389 121.16 37.3189 122.48 40.8789 122.4C42.6389 122.36 44.3589 122 45.9989 121.32C47.5189 120.64 48.9989 119.8 50.3989 118.88C51.2389 118.36 52.0389 117.8 52.8789 117.24C53.5189 116.84 54.1189 116.36 54.6389 115.84C55.5189 114.92 56.1989 113.8 56.6389 112.6C57.5589 110.2 57.7189 107.56 57.6789 105.04C57.6389 103.92 57.5589 102.84 57.4789 101.72C57.4389 101.2 57.3589 100.72 57.3189 100.2C57.3189 100.12 57.2789 100 57.2789 99.9202V99.8002C57.2789 99.8402 57.3189 100 57.2789 99.8402L57.2389 99.3602C56.9989 96.6802 56.9589 94.0002 56.5989 91.3602C56.2389 88.5602 55.7189 85.7602 54.6389 83.1202C53.7989 81.1202 52.4389 79.0802 50.1989 78.5202C49.7189 78.4002 49.2389 78.3602 48.7589 78.4002C48.2789 78.4402 47.9589 78.8802 48.0389 79.3202C48.0389 79.3602 48.0389 79.4002 48.0389 79.4402C48.2789 80.1202 48.7589 80.4402 49.2789 80.4002Z" fill="#000005"/>
<path d="M28.4775 86.8401L30.2775 93.0001L30.5575 93.8801C30.6775 94.3201 31.2775 94.5201 31.7175 94.5201C32.0775 94.5201 32.6375 94.2801 32.5175 93.8001L30.7175 87.6401L30.4375 86.7601C30.3175 86.3201 29.7175 86.1201 29.2775 86.1201C28.9175 86.1601 28.3575 86.4001 28.4775 86.8401Z" fill="#000005"/>
<path d="M29.6779 99.0402C29.6779 99.0402 32.3179 107.24 26.0379 108.12C21.4379 108.76 20.1979 102.64 23.0379 92.2402" fill="white"/>
<path d="M28.6778 99.2393C28.9578 100.159 29.1578 101.159 29.1978 102.119C29.3178 103.679 29.0778 105.479 27.9978 106.519C27.7178 106.799 27.3978 106.999 27.0378 107.119C26.8378 107.199 26.6778 107.239 26.4778 107.319C26.3178 107.359 26.1578 107.399 25.9978 107.399C25.9178 107.399 25.5978 107.439 25.8378 107.439C25.6378 107.439 25.4778 107.439 25.2778 107.439C25.0778 107.439 25.3578 107.479 25.1978 107.439L24.8778 107.359C24.7978 107.359 24.6378 107.279 24.7978 107.359L24.5578 107.279L24.3578 107.159L24.2778 107.119C24.4378 107.199 24.2778 107.119 24.2378 107.079C24.1178 106.999 23.9978 106.879 23.8778 106.759C23.8378 106.759 23.6778 106.559 23.7578 106.639C23.6778 106.559 23.6378 106.479 23.5978 106.399C23.3578 106.079 23.1978 105.759 23.0378 105.399C22.7178 104.479 22.5178 103.479 22.5178 102.519C22.3178 99.0793 23.1178 95.5593 23.9978 92.2393C24.2778 91.2793 22.2778 91.3193 22.0378 92.1993C21.1578 95.4793 20.4378 98.9193 20.5178 102.319C20.5578 104.239 20.9178 106.599 22.5178 107.919C24.1978 109.319 26.7578 108.999 28.5578 107.999C30.3578 106.999 31.1578 104.919 31.1978 102.919C31.2378 101.559 31.0378 100.159 30.6378 98.8393C30.4378 98.3993 29.9978 98.1593 29.5178 98.3193C29.1978 98.3993 28.5578 98.7193 28.6778 99.2393Z" fill="#000005"/>
<path d="M46.6784 107.759C46.0784 106.839 45.5984 105.839 45.1984 104.799C44.3184 102.519 44.0384 99.9995 44.3584 97.5595C44.6384 95.7995 45.2784 94.1195 46.2384 92.5995C46.3584 92.4395 44.5984 91.5995 44.3184 91.9995C42.7184 94.5195 42.0384 97.5195 42.3584 100.479C42.5984 102.479 43.1984 104.439 44.1184 106.239C44.3184 106.599 44.5184 106.959 44.7184 107.279C44.9184 107.599 45.4784 107.719 45.8384 107.839C45.9584 107.799 46.7984 107.959 46.6784 107.759Z" fill="#000005"/>
<path d="M29.4384 85.3602C30.4384 85.2002 31.0784 84.6002 31.6384 83.8002C32.1584 83.1202 32.6384 82.3602 33.0784 81.6002C33.9184 80.0402 34.4384 78.3602 34.1984 76.6002C34.0784 75.6802 32.0784 75.9202 32.1984 76.8402C32.3584 78.2402 32.0784 79.6402 31.3984 80.8802C31.0784 81.5202 30.6784 82.1602 30.2384 82.7602C30.0384 83.0402 29.8384 83.3602 29.5984 83.6002C29.5184 83.7202 29.3984 83.8002 29.3184 83.9202C29.2384 84.0402 29.1584 84.0002 29.2384 84.0002C28.8384 84.0802 28.2784 84.2802 28.3184 84.8002C28.3584 85.3202 29.0384 85.4402 29.4384 85.3602Z" fill="#000005"/>
<path d="M46.0373 92.7595C46.8773 93.1595 47.7973 93.4395 48.7573 93.5595C49.6773 93.5995 50.5973 93.4395 51.4373 93.0795C52.9973 92.4795 54.3973 91.5195 55.5173 90.3195C55.8373 89.9995 55.5573 89.5595 55.2773 89.3595C54.9973 89.1595 54.3173 88.7995 53.9973 89.1195C53.0373 90.1995 51.8373 91.0395 50.4773 91.6395C49.8373 91.9595 49.1173 92.1595 48.3973 92.1595C47.5973 92.0795 46.8373 91.8395 46.1573 91.4795C45.8373 91.3595 45.2373 91.3595 45.1973 91.7995C45.1573 92.2395 45.7173 92.5995 46.0373 92.7595Z" fill="#000005"/>
<path d="M23.4385 91.4393C26.5985 91.7193 28.4385 94.5593 29.8785 97.0393C30.0385 97.3593 31.7985 96.3593 31.5985 96.0393C30.1585 93.4793 28.2385 90.6393 25.0385 90.3193C24.5985 90.3593 24.1985 90.5193 23.8785 90.7993C23.8385 90.8393 23.1585 91.3993 23.4385 91.4393Z" fill="#000005"/>
<path d="M25.402 68.0802C25.402 68.0802 12.722 73.3601 7.92204 88.8801V57.8002C7.92204 57.8002 7.68204 42.7202 25.402 33.1602V68.0802Z" fill="#000005"/>
<g opacity="0.62">
<path d="M30.5195 130.641V93.7607C30.5195 93.7607 51.1195 107.401 81.9595 104.361V140.321C81.9595 140.361 61.7595 146.441 30.5195 130.641Z" fill="#68BA7F"/>
<path d="M71.2003 141.64C62.2003 141.64 48.0003 139.72 30.4403 130.8L30.3203 130.76V93.4004L30.6403 93.6004C30.8403 93.7204 51.5603 107.16 81.9203 104.16L82.1603 104.12V140.44L82.0003 140.48C81.9203 140.56 78.0403 141.64 71.2003 141.64ZM30.7203 130.52C60.1203 145.32 79.8803 140.64 81.7603 140.16V104.6C53.3603 107.32 33.4403 95.8004 30.7203 94.1604V130.52Z" fill="#68BA7F"/>
</g>
<g opacity="0.63">
<path d="M126.48 109.321V56.6411C126.48 56.6411 172.88 54.8811 192.08 36.0811V90.4811C192.08 90.4411 172.88 105.801 126.48 109.321Z" fill="#68BA7F"/>
<path d="M126.281 109.521V56.4406H126.481C126.961 56.4006 173.001 54.4806 191.921 35.9206L192.281 35.6006V90.6006L192.201 90.6406C192.041 90.8006 172.441 106.081 126.521 109.521H126.281ZM126.681 56.8406V109.121C170.881 105.761 190.521 91.4406 191.881 90.4006V36.5206C173.241 54.2806 129.921 56.6806 126.681 56.8406Z" fill="#68BA7F"/>
</g>
<g opacity="0.63">
<path d="M103.84 166.8V133.52C103.84 133.52 135.8 133.28 158.64 116.16V150.4C158.64 150.4 137.76 167.76 103.84 166.8Z" fill="#68BA7F"/>
<path d="M106.481 167.04C105.601 167.04 104.721 167.04 103.841 167H103.641V133.32H103.841C104.161 133.32 136.001 132.88 158.521 116L158.841 115.76V150.52L158.761 150.56C158.601 150.72 138.561 167.04 106.481 167.04ZM104.041 166.6C136.361 167.44 157.081 151.4 158.441 150.28V116.52C136.801 132.56 106.801 133.6 104.041 133.68V166.6Z" fill="#68BA7F"/>
</g>
<g opacity="0.76">
<path d="M7.96094 57.7998C7.96094 57.7998 11.0809 71.3198 23.0409 75.7998V112.2C23.0409 112.2 9.40094 102.8 7.96094 88.9198V57.7998Z" fill="#68BA7F"/>
<path d="M23.2417 112.6L22.9217 112.4C22.8017 112.32 9.20172 102.76 7.76172 88.9601V56.0801L8.16172 57.8001C8.20172 57.9201 11.4017 71.2801 23.1217 75.6801L23.2417 75.7201V112.6ZM8.16172 59.2001V88.9201C9.44172 101.36 20.8017 110.32 22.8417 111.8V75.9601C13.2417 72.2801 9.32172 62.7601 8.16172 59.2001Z" fill="#68BA7F"/>
</g>
<path d="M136.723 99.4801C138.123 99.8401 139.643 99.5601 140.803 98.6801C141.963 97.8001 142.523 96.4401 142.843 95.0801C143.003 94.5201 143.243 93.7201 142.843 93.2001C142.443 92.6801 141.643 92.6401 141.083 92.7201C140.403 92.7601 139.763 93.0801 139.363 93.6001C139.043 94.1601 138.963 94.7601 139.083 95.4001C139.243 96.5601 139.923 97.6001 140.963 98.2001C142.283 98.8401 143.963 98.5601 145.163 97.7201C147.363 96.2001 148.603 93.3601 148.803 90.7601C148.883 89.6801 149.043 87.8801 147.883 87.2801C146.603 86.7201 145.123 87.0801 144.203 88.1601C143.403 89.2801 143.323 90.9601 143.323 92.2801C143.283 93.7201 143.563 95.1601 144.123 96.5201C144.523 97.6001 145.323 98.5201 146.323 99.1201C147.723 99.7601 149.323 99.6801 150.683 98.9601C151.883 98.3201 152.883 97.3201 153.443 96.0801C153.963 95.0001 154.323 93.5201 153.963 92.3201C153.563 90.8801 151.723 90.7201 150.603 91.5601C149.403 92.4801 150.083 94.2001 150.643 95.3201C151.163 96.4801 152.163 97.3201 153.363 97.7201C154.643 98.0801 155.963 97.8801 157.083 97.1601C157.563 96.8801 157.923 96.4401 158.083 95.9201C158.283 95.2801 156.363 95.3601 156.123 95.9201C155.523 97.5601 154.003 96.8801 153.123 95.8401C152.523 95.0801 152.123 94.2401 151.883 93.2801C151.843 93.0401 151.803 92.8001 151.803 92.5601C151.843 92.3201 151.963 92.0801 152.083 91.8801L152.123 91.8401C151.443 91.7601 151.203 91.8001 151.483 91.9601C151.523 92.0401 151.563 92.0801 151.643 92.1201C151.763 92.2801 151.843 92.4801 151.883 92.7201C152.243 94.4801 151.403 96.5201 150.123 97.7201C149.563 98.2401 148.803 98.8001 148.043 98.5201C147.323 98.2001 146.723 97.6401 146.323 96.9601C145.283 95.2801 145.043 93.1201 145.163 91.2001C145.203 90.2801 145.323 89.1601 145.883 88.3601C145.963 88.2801 146.243 88.0401 146.283 87.9601C146.323 87.8801 146.043 88.0001 146.083 87.9601C146.123 87.9201 146.403 88.2001 146.403 88.2401C146.523 88.4401 146.603 88.7201 146.603 88.9601C146.843 90.8801 146.523 92.8001 145.683 94.5201C145.283 95.4001 144.723 96.1601 144.043 96.8801C143.763 97.2001 143.403 97.4801 142.963 97.6401C142.723 97.7201 142.483 97.6401 142.283 97.4801C141.523 96.9601 141.003 96.1201 140.883 95.2001C140.763 94.7201 140.803 94.2001 141.043 93.7601C141.043 93.7201 141.163 93.5601 141.203 93.5601C141.243 93.5601 140.723 93.6401 140.683 93.6001C140.683 93.6001 140.843 93.7601 140.843 93.8001C140.883 93.9201 140.923 94.0401 140.883 94.1601C140.723 95.3201 140.363 96.4001 139.803 97.4401C139.443 98.0401 138.643 98.9601 137.843 98.7201C137.363 98.6001 136.883 98.6401 136.443 98.8801C136.363 99.0401 136.323 99.3601 136.723 99.4801Z" fill="white"/>
<path d="M177.92 57.4402C178.92 57.2402 179.84 56.7602 180.56 56.0402C181.04 55.5202 182.08 54.1602 181.2 53.5602C180.52 53.1602 179.68 53.2402 179.04 53.6802C178.76 54.0402 178.68 54.4802 178.8 54.9202C178.96 55.8802 179.8 56.6002 180.76 56.5602C181.52 56.5202 182.28 56.3202 182.96 56.0002L184.92 55.2802C185.16 55.2002 185.6 54.9202 185.24 54.6402C184.8 54.4402 184.32 54.4402 183.88 54.6002L182.28 55.2002L181.44 55.5202C181.32 55.5602 181.2 55.6002 181.08 55.6402C180.72 55.8002 181.36 55.5602 181.32 55.6802C181.32 55.6402 181.4 55.7602 181.28 55.6402C181.24 55.6002 181.16 55.5202 181.12 55.4802C181 55.3602 180.92 55.2002 180.88 55.0402C180.84 54.8402 180.8 54.6802 180.76 54.4802C180.76 54.4002 180.76 54.3202 180.76 54.2402C180.76 54.2002 180.76 54.1602 180.76 54.0802C180.8 54.0002 180.8 53.9602 180.72 54.0402L180.28 54.2002L179.92 54.2402L179.48 54.1602C179.4 54.1202 179.48 54.2002 179.48 54.2802C179.48 54.3602 179.48 54.4002 179.48 54.4802C179.44 54.6402 179.36 54.8402 179.28 55.0002C179.12 55.2802 178.96 55.5602 178.72 55.8002C178.52 56.0402 178.28 56.2002 178 56.3602C177.76 56.5202 177.52 56.6002 177.24 56.6802C177 56.7202 176.36 56.9202 176.6 57.2802C176.84 57.6402 177.56 57.5202 177.84 57.4802L177.92 57.4402Z" fill="white"/>
<path d="M180.12 69.0402C181.16 68.5602 182.64 68.1202 183.12 67.0002C183.64 65.7602 182.4 64.4802 181.16 64.5602C179.8 64.6402 179.44 66.2002 180 67.2802C180.68 68.5602 182.08 69.2002 183.48 69.1602C185.04 69.1202 186.36 68.2802 187.56 67.4002C188.48 66.7602 186.84 65.6802 186.12 66.2002C185.28 66.8002 184.4 67.5202 183.32 67.6802C183.12 67.7202 182.88 67.7202 182.68 67.6802C182.48 67.6802 182.32 67.6002 182.16 67.5202C182.28 67.6002 182 67.4002 182 67.4002C181.84 67.2802 182 67.4002 181.88 67.2402C181.76 67.0802 181.68 66.9202 181.64 66.7602C181.6 66.6002 181.6 66.4002 181.68 66.2402C181.72 66.2002 181.76 66.1202 181.8 66.0802H181.72C181.72 66.0802 181.04 65.9202 181.16 65.8802C181.16 65.8802 181.24 65.9602 181.24 66.0402C181.28 66.1602 181.24 66.2802 181.2 66.4002C181 66.7602 180.64 67.0002 180.28 67.1602C179.76 67.4402 179.2 67.6802 178.64 67.9202C178.2 68.1202 178.4 68.7202 178.68 68.9602C179.12 69.1602 179.64 69.2402 180.12 69.0402Z" fill="white"/>
<path d="M181.481 78.7204C182.521 78.3204 183.281 77.3204 183.401 76.2004C183.441 75.5204 183.241 74.8804 182.801 74.3604C182.321 73.8404 181.521 73.5204 180.881 74.0004C180.441 74.4004 180.201 75.0004 180.281 75.6004C180.321 76.1604 180.521 76.7204 180.881 77.1604C181.601 78.2004 182.841 78.8404 184.121 78.8004C185.401 78.6804 186.561 78.0404 187.361 77.0004C187.601 76.6004 187.521 76.0804 187.161 75.8004C186.921 75.5604 186.281 75.2004 185.961 75.5604C185.481 76.1604 184.881 76.6004 184.201 76.8804C183.881 77.0004 183.521 77.0804 183.201 77.0404C183.081 77.0404 183.201 77.0404 183.081 77.0404C182.961 77.0404 182.881 77.0004 182.801 76.9604C182.721 76.9204 182.801 76.9604 182.841 76.9604L182.721 76.9204C182.681 76.8804 182.441 76.7604 182.601 76.8804C182.521 76.8404 182.441 76.7604 182.361 76.7204L182.281 76.6404C182.281 76.6404 182.401 76.7604 182.321 76.6804C182.241 76.6004 182.201 76.5604 182.161 76.5204C182.121 76.4804 182.201 76.5604 182.201 76.5604L182.121 76.4404C182.041 76.2804 182.081 76.4004 182.121 76.4404L182.081 76.3204C182.081 76.2804 182.001 76.0804 182.041 76.1604C182.081 76.2404 182.041 76.0404 182.041 76.0004C182.041 75.9604 182.041 75.8804 182.041 75.8404C182.041 75.8004 182.041 75.7204 182.081 75.6804L182.121 75.5604C182.121 75.5604 182.161 75.4404 182.161 75.5204C182.161 75.6004 182.281 75.4004 182.241 75.4404C182.201 75.4804 182.281 75.4404 182.281 75.4404C182.201 75.4804 182.081 75.4404 182.001 75.4004C181.921 75.3604 181.841 75.3204 181.761 75.2404C181.801 75.2804 181.841 75.3604 181.761 75.2404C181.761 75.2404 181.641 75.1204 181.681 75.0804C181.721 75.0404 181.721 75.1604 181.721 75.1604V75.2004V75.1204C181.721 75.1604 181.721 75.2004 181.721 75.2404C181.721 75.2804 181.721 75.3204 181.721 75.3604C181.721 75.2404 181.721 75.3604 181.721 75.4004C181.641 76.1204 181.161 76.7204 180.481 76.9604C180.041 77.1204 180.121 77.7604 180.321 78.0804C180.521 78.4004 181.001 78.8804 181.481 78.7204Z" fill="white"/>
<path d="M172.08 56.2403C171.88 56.3203 171.72 56.4403 171.64 56.6003C171.48 56.8003 171.4 57.0803 171.4 57.3203C171.44 58.4003 172.32 59.2403 173.4 59.2003C173.6 59.2003 173.8 59.1203 174 59.0003C174.24 58.8803 174.4 58.6803 174.52 58.4403C174.6 58.2003 174.64 57.9203 174.56 57.6403C174.48 57.3203 174.36 57.0403 174.16 56.8003C173.92 56.4803 173.6 56.2403 173.2 56.0803C172.92 55.9603 172.6 55.9203 172.32 55.9603C172.04 56.0003 171.76 56.1203 171.56 56.3203C171.2 56.6403 171 57.0803 171.04 57.5603C171.04 57.6803 171.08 57.8403 171.12 57.9603C171.2 58.1603 171.28 58.3203 171.36 58.5203C171.56 58.8403 171.84 59.1203 172.16 59.3203C172.56 59.6003 173.04 59.7203 173.52 59.5603C173.8 59.4003 174 59.1603 174.08 58.8803C174.32 58.1603 174.08 57.4003 173.52 56.9203C173.32 56.7603 173.12 56.6403 172.88 56.6003C172.68 56.5603 172.48 56.6003 172.36 56.7603C172.08 57.1203 172.36 57.6403 172.64 57.9203L172.68 57.9603L172.48 57.7603C172.52 57.8003 172.52 57.8403 172.56 57.8403L172.44 57.6403C172.48 57.6803 172.48 57.7203 172.52 57.7603L172.44 57.5603C172.48 57.6003 172.48 57.6803 172.48 57.7203L172.44 57.5203C172.44 57.6403 172.44 57.7203 172.44 57.8403L172.48 57.6403C172.44 57.7603 172.4 57.8803 172.36 58.0003L172.44 57.8403C172.4 57.9203 172.32 58.0003 172.24 58.0403L172.4 57.9203C172.36 57.9603 172.32 57.9603 172.28 57.9603L172.48 57.9203C172.44 57.9203 172.4 57.9203 172.36 57.9203H172.56L172.44 57.8803L172.64 57.9203C172.6 57.9203 172.52 57.8803 172.48 57.8803L172.68 58.0003C172.64 57.9603 172.56 57.9203 172.52 57.8803L172.72 58.0403C172.68 58.0003 172.64 57.9603 172.56 57.9203L172.76 58.1203C172.72 58.0803 172.68 58.0003 172.64 57.9603L172.76 58.1603C172.72 58.0803 172.68 58.0403 172.68 57.9603L172.76 58.1603C172.72 58.0803 172.72 58.0003 172.68 57.9203L172.72 58.1203C172.72 58.0403 172.72 57.9203 172.72 57.8403L172.68 58.0403C172.68 57.9203 172.72 57.8403 172.8 57.7203L172.72 57.8803C172.8 57.7603 172.88 57.6803 173 57.6003L172.84 57.7203C172.96 57.6403 173.04 57.6003 173.16 57.5603L172.96 57.6003C173.04 57.5603 173.12 57.5603 173.24 57.5603H173.04C173.12 57.5603 173.16 57.5603 173.24 57.6003L173.04 57.5603L173.2 57.6003L173 57.4803C173.04 57.5203 173.08 57.5203 173.12 57.5603L172.92 57.4003C172.96 57.4403 173 57.4803 173.04 57.5203L172.84 57.3203C172.88 57.3603 172.92 57.4003 172.92 57.4403L172.8 57.2403C172.84 57.2803 172.88 57.3603 172.88 57.4403L172.8 57.2403C172.84 57.3203 172.84 57.3603 172.84 57.4403L172.8 57.2403C172.8 57.3203 172.8 57.4003 172.8 57.4803L172.84 57.2803C172.84 57.3603 172.8 57.4403 172.76 57.5203L172.84 57.3603C172.8 57.4403 172.72 57.5203 172.64 57.5603L172.8 57.4403C172.72 57.5203 172.6 57.5603 172.52 57.6003L172.72 57.5603C172.64 57.6003 172.56 57.6003 172.48 57.6003H172.68C172.6 57.6003 172.56 57.6003 172.48 57.5603L172.68 57.6003L172.56 57.5603L172.76 57.6803L172.68 57.6403L172.88 57.8003L172.8 57.7203L173 57.9203L172.92 57.8403L173.04 58.0403C173 58.0003 173 57.9603 173 57.9203L173.08 58.1203C173.08 58.0803 173.04 58.0003 173.04 57.9603L173.08 58.1603C173.08 58.0803 173.08 58.0003 173.08 57.9203L173.04 58.1203C173.04 58.0403 173.08 57.9203 173.12 57.8403L173.04 58.0003C173.08 57.9203 173.16 57.8803 173.2 57.8003L173.04 57.9203C173.08 57.8803 173.12 57.8803 173.16 57.8403C173.32 57.7603 173.44 57.6003 173.44 57.4003C173.44 57.1603 173.36 56.9603 173.2 56.7603C173.04 56.3603 172.56 56.0403 172.08 56.2403Z" fill="white"/>
<path d="M173.242 68.4802C172.882 69.1602 172.802 69.9202 172.922 70.6802C173.082 71.0802 173.402 71.3602 173.762 71.4402C174.362 71.6802 175.042 71.6802 175.682 71.4402C176.282 71.1602 176.522 70.4402 176.242 69.8402C176.122 69.5202 175.882 69.2802 175.642 69.0802C175.162 68.7202 174.602 68.4802 173.962 68.4402C173.602 68.4002 173.202 68.4802 172.882 68.6802C172.722 68.8002 172.602 68.9602 172.522 69.1602C172.442 69.5602 172.522 69.9602 172.762 70.3202C172.882 70.4802 173.002 70.5602 173.202 70.6002C173.442 70.6802 173.722 70.7202 173.962 70.7202C174.162 70.7202 174.402 70.6802 174.562 70.6002C174.682 70.5202 174.762 70.4402 174.682 70.2802C174.562 70.0802 174.522 69.9202 174.442 69.7202L174.482 69.8402C174.442 69.6802 174.442 69.4802 174.522 69.3202L174.482 69.4402C174.522 69.3602 174.602 69.2802 174.682 69.2002L174.562 69.2802C174.602 69.2402 174.722 69.2002 174.602 69.2402C174.482 69.2802 174.522 69.2802 174.562 69.2402L174.402 69.2802H174.002L173.802 69.2402C173.522 69.2002 173.602 69.2002 173.682 69.2002C173.762 69.2002 173.482 69.1202 173.602 69.1602L173.722 69.2402C173.762 69.2802 173.922 69.4002 173.722 69.2402L173.842 69.3202C173.922 69.4002 174.002 69.4802 174.082 69.5602L174.002 69.4402C174.122 69.6002 174.242 69.8002 174.282 70.0002L174.242 69.8802C174.282 70.1202 174.282 70.3202 174.162 70.5602L174.202 70.4402C174.162 70.5602 174.042 70.6802 173.962 70.7602L174.082 70.6802C174.042 70.7202 174.002 70.7202 174.002 70.7202C173.842 70.8002 174.162 70.6802 174.042 70.7202C173.882 70.7602 174.242 70.6802 174.122 70.7202C174.002 70.7602 174.082 70.7202 174.282 70.7202C174.202 70.7202 174.242 70.7202 174.482 70.7202C174.282 70.6802 174.762 70.7602 174.602 70.7602C174.802 70.8002 174.842 70.8402 174.762 70.8002L174.882 70.8402C174.762 70.7602 175.002 70.9202 174.922 70.8802L174.842 70.8002L174.922 70.9202C174.842 70.8402 174.802 70.7202 174.802 70.6002L174.842 70.7202C174.762 70.0802 174.842 69.4002 175.122 68.8402L175.082 68.9602V68.9202C175.122 68.8802 175.162 68.8002 175.122 68.7602C175.122 68.6802 175.082 68.6402 175.042 68.6002C174.882 68.4802 174.682 68.4002 174.482 68.3602C174.242 68.2802 173.962 68.2802 173.722 68.3202L173.522 68.3602C173.402 68.4002 173.322 68.4402 173.242 68.5202V68.4802Z" fill="white"/>
<path d="M175.883 77.8801C175.563 77.7601 175.243 77.8001 174.923 77.9201C174.683 78.0401 174.483 78.2401 174.363 78.4801C174.163 78.8801 174.043 79.3601 174.043 79.8001C174.003 80.2801 174.123 80.7601 174.363 81.1601C174.683 81.6801 175.203 82.0001 175.803 82.0801C176.243 82.1201 176.683 81.9601 176.963 81.6001C177.243 81.2401 177.403 80.8001 177.403 80.3601C177.403 80.0801 177.323 79.8401 177.203 79.6001C177.123 79.4001 177.003 79.2401 176.843 79.1201C176.483 78.8001 176.043 78.5601 175.523 78.4801C175.003 78.4001 174.483 78.5201 174.043 78.8401C173.763 79.0801 173.603 79.4401 173.643 79.8001C173.683 80.3201 174.043 80.8001 174.523 80.9601C174.963 81.1201 175.443 80.9201 175.603 80.4801C175.603 80.4401 175.643 80.4001 175.643 80.4001C175.723 79.8801 175.443 79.3601 174.923 79.2001H174.883L175.123 79.3201C175.123 79.3201 175.083 79.3201 175.083 79.2801L175.283 79.4401L175.243 79.4001L175.403 79.6001L175.363 79.5601L175.443 79.8001V79.7601L175.483 80.0001C175.483 79.9601 175.483 79.9601 175.483 79.9201V80.1601C175.483 80.1201 175.483 80.1201 175.483 80.0801L175.403 80.2801C175.403 80.2401 175.443 80.2401 175.443 80.2001L175.283 80.4001C175.323 80.3601 175.323 80.3601 175.363 80.3201L175.163 80.4401C175.203 80.4001 175.283 80.3601 175.363 80.3601L175.123 80.4401C175.243 80.4001 175.363 80.4001 175.483 80.3601H175.243C175.363 80.3601 175.523 80.3601 175.643 80.4001L175.403 80.3601C175.483 80.4001 175.603 80.4001 175.683 80.4401L175.443 80.3201C175.523 80.3601 175.603 80.4001 175.643 80.4401L175.443 80.2801C175.523 80.3201 175.563 80.4001 175.603 80.4401L175.443 80.2401C175.483 80.2801 175.523 80.3601 175.523 80.4001L175.443 80.1601C175.483 80.2401 175.483 80.2801 175.483 80.3601L175.443 80.1201C175.443 80.2001 175.443 80.2401 175.443 80.3201V80.0801C175.443 80.1601 175.403 80.2401 175.403 80.3201L175.483 80.0801C175.443 80.1601 175.403 80.2401 175.363 80.3201L175.523 80.1201C175.483 80.2001 175.403 80.2401 175.363 80.2801L175.563 80.1601C175.523 80.2001 175.443 80.2001 175.403 80.2401L175.603 80.1601L175.483 80.2001H175.723C175.683 80.2001 175.603 80.2001 175.563 80.2001L175.803 80.2401C175.763 80.2401 175.683 80.2001 175.643 80.2001L175.883 80.3201C175.843 80.2801 175.763 80.2401 175.723 80.2001L175.923 80.3601C175.883 80.3201 175.803 80.2401 175.763 80.2001L175.923 80.4001C175.883 80.3201 175.843 80.2801 175.803 80.2001L175.883 80.4401C175.843 80.3601 175.843 80.2801 175.803 80.2001L175.843 80.4401C175.803 80.2801 175.803 80.1201 175.843 79.9601V80.2001C175.843 79.9601 175.923 79.7601 175.963 79.5201L175.883 79.7201C175.923 79.6001 175.963 79.5201 176.043 79.4401L175.883 79.6401C175.923 79.6001 175.963 79.5601 176.003 79.5201L175.803 79.6401C175.843 79.6401 175.883 79.6001 175.883 79.6001L175.643 79.6801H175.723H175.483C175.523 79.6801 175.523 79.6801 175.563 79.6801L175.323 79.6401H175.363C175.603 79.7201 175.843 79.7201 176.043 79.6001C176.243 79.4801 176.403 79.2801 176.483 79.0401C176.723 78.6001 176.443 78.0801 175.883 77.8801Z" fill="white"/>
<path d="M166.363 55.1601C166.363 56.6801 166.443 58.2001 166.523 59.7201L166.843 69.6001L167.243 81.4401C167.363 84.8801 167.483 88.3201 167.603 91.7601C167.643 92.9201 167.683 94.1201 167.723 95.2801C167.723 95.9201 167.723 96.5201 167.763 97.1601C167.763 97.2001 167.763 97.2801 167.763 97.3201C167.763 97.7201 169.763 97.6001 169.763 97.0801C169.763 95.5601 169.683 94.0401 169.603 92.5201C169.483 89.2401 169.363 85.9201 169.283 82.6401L168.883 70.8001C168.763 67.3601 168.643 63.9201 168.523 60.4801C168.483 59.3201 168.443 58.1201 168.403 56.9601C168.403 56.3201 168.403 55.7201 168.363 55.0801C168.363 55.0401 168.363 54.9601 168.363 54.9201C168.363 54.5601 166.363 54.6401 166.363 55.1601Z" fill="white"/>
<path d="M132.961 63.7997C132.961 68.4797 133.241 73.1197 133.761 77.7597C133.881 78.7997 135.801 78.3197 135.681 77.3997C135.161 72.7597 134.881 68.1197 134.881 63.4397C134.881 62.4397 132.961 62.9197 132.961 63.7997Z" fill="white"/>
<path d="M133.401 77.1198C140.401 77.1598 147.401 76.7598 154.361 75.8798C154.601 75.8398 154.001 74.0398 153.401 74.1198C146.521 74.9998 139.561 75.3998 132.601 75.3198C132.201 75.3198 132.881 77.1198 133.401 77.1198Z" fill="white"/>
<path d="M138.48 73.0401C138.24 71.7601 138.96 70.4801 140.16 70.0001C141.6 69.3201 143.28 69.3201 144.8 69.1201C147.76 68.8001 150.44 67.2001 152.16 64.7601C153.04 63.4801 153.56 62.0001 153.68 60.4801C153.72 60.0001 152.96 60.0801 152.72 60.1601C152.28 60.2801 151.92 60.6401 151.84 61.1201C151.56 63.6801 150.04 65.9201 147.72 67.0401C146.32 67.7201 144.72 67.7201 143.2 67.9201C141.6 68.1201 140 68.5201 138.64 69.4801C137.28 70.4401 136.32 72.0401 136.64 73.6801C136.8 74.6001 138.64 73.8001 138.48 73.0401Z" fill="white"/>
<path d="M144.123 67.7602C143.923 68.1602 143.843 68.6402 143.923 69.0802C144.083 69.7202 144.803 69.9602 145.403 70.0802C146.003 70.2002 146.803 70.1602 147.163 69.6402C147.403 69.2802 147.483 68.8402 147.403 68.4002C147.363 68.0002 147.163 67.6402 146.883 67.3602C146.643 67.1602 146.323 67.0002 146.003 66.9202C145.523 66.7602 145.003 66.8002 144.523 66.9602C143.763 67.2802 143.483 68.5202 144.163 69.0402C144.643 69.3602 145.243 69.5202 145.843 69.4802C146.163 69.5202 146.483 69.3602 146.683 69.0802C146.763 68.9202 146.723 68.7202 146.643 68.6002C146.563 68.4802 146.443 68.3602 146.283 68.2802C145.963 68.1202 145.603 68.0002 145.203 68.0002C145.003 67.9602 144.803 68.0002 144.603 68.0802C144.523 68.1202 144.403 68.2002 144.443 68.3202C144.563 68.4402 144.683 68.5602 144.843 68.6002C145.083 68.6802 145.323 68.7602 145.603 68.7602C145.283 68.7602 144.923 68.6802 144.683 68.4802L144.723 68.5202L144.643 68.4402C144.683 68.4802 144.723 68.5602 144.723 68.6002L144.683 68.5202C144.683 68.6002 144.683 68.7202 144.643 68.8002L144.683 68.7202C144.643 68.7602 144.643 68.8002 144.603 68.8002L144.723 68.7202C144.683 68.7602 144.563 68.7602 144.763 68.7202C145.043 68.6802 145.323 68.6802 145.603 68.8002C145.683 68.8402 145.763 68.8402 145.803 68.8802C145.763 68.8402 145.763 68.8402 145.843 68.9202C145.803 68.8802 145.763 68.8802 145.763 68.8402L145.843 68.9202C145.763 68.8402 145.723 68.7202 145.683 68.6002V68.6802C145.643 68.3602 145.683 68.0402 145.843 67.7202L145.803 67.8002C145.883 67.6802 145.963 67.5602 146.083 67.4802L145.963 67.5602L146.043 67.5202C146.123 67.4802 145.923 67.5602 146.003 67.5202C146.083 67.4802 145.803 67.5202 145.923 67.5202C145.643 67.5202 145.363 67.4802 145.123 67.4002C145.243 67.4402 144.963 67.3202 145.043 67.3602C145.123 67.4002 144.923 67.2402 145.003 67.3202C145.043 67.3602 145.083 67.4002 145.163 67.4402L145.083 67.3602C145.243 67.5602 145.363 67.8002 145.403 68.0402L145.363 67.9602C145.443 68.3202 145.443 68.7202 145.243 69.0802L145.283 69.0002C145.203 69.1202 145.083 69.2402 144.963 69.3202L145.083 69.2402C145.043 69.2802 144.963 69.2802 144.923 69.3202L145.003 69.2802H144.963H145.123C145.203 69.2802 145.323 69.2802 145.403 69.2802C145.563 69.2802 145.723 69.3202 145.843 69.3602L145.963 69.4002C145.923 69.3602 145.923 69.3602 145.963 69.4002C145.923 69.3602 145.923 69.3602 145.883 69.3202L145.963 69.4002C145.843 69.2802 145.803 69.1202 145.763 68.9602V69.0402C145.723 68.6402 145.803 68.2402 146.003 67.8802C146.043 67.7602 145.803 67.6002 145.763 67.6002C145.563 67.4802 145.323 67.4002 145.083 67.4002C144.843 67.3602 144.603 67.3602 144.363 67.4002C144.323 67.5602 144.163 67.5602 144.123 67.7602Z" fill="white"/>
<path d="M121.483 142.681C120.323 142.401 118.883 143.081 118.043 143.881C117.203 144.681 116.963 145.801 116.683 146.841C116.163 148.921 115.963 151.441 117.643 153.081C120.843 156.281 126.323 153.761 128.403 150.481C129.323 149.001 130.603 146.001 128.483 144.921C127.443 144.401 125.923 145.041 125.203 145.801C124.523 146.481 124.363 147.561 124.483 148.481C124.763 150.441 126.363 151.961 128.323 152.161C130.483 152.321 132.923 151.121 134.323 149.521C136.003 147.641 136.563 144.921 136.563 142.481C136.563 140.601 136.003 138.161 133.963 137.601C133.643 137.601 133.283 137.681 133.003 137.841C132.763 137.961 132.283 138.121 132.203 138.401C130.843 141.481 130.843 145.281 132.523 148.241C133.203 149.481 134.283 150.601 135.723 150.961C137.363 151.361 139.163 150.641 140.483 149.721C141.763 148.801 142.643 147.401 142.883 145.841C143.083 144.761 143.323 142.321 141.563 142.601C140.003 142.841 138.483 143.961 138.603 145.641C138.723 147.041 139.683 148.241 141.003 148.761C142.603 149.361 144.563 148.521 145.763 147.481C146.883 146.521 147.323 145.001 146.923 143.561C146.843 143.281 144.963 144.001 145.083 144.361C145.483 145.561 145.163 146.921 144.243 147.801C144.163 147.881 144.083 147.961 144.003 148.041C143.963 148.121 143.843 148.001 144.083 148.001C142.443 148.161 140.923 147.081 140.563 145.441C140.403 144.921 140.403 144.361 140.603 143.841C140.723 143.641 140.843 143.441 141.003 143.241L141.083 143.161C140.243 143.361 140.043 143.481 140.443 143.481C140.603 143.521 140.803 143.641 140.923 143.801C141.203 144.241 141.323 144.761 141.243 145.281C141.243 145.961 141.163 146.641 140.963 147.281C140.683 148.281 139.923 149.681 139.003 150.041C138.523 150.161 138.043 150.161 137.563 150.041C137.003 149.921 136.443 149.641 136.003 149.281C135.123 148.561 134.483 147.641 134.043 146.601C132.843 143.761 132.883 140.521 134.123 137.721L132.363 138.481C133.803 138.881 134.483 140.321 134.723 141.681C134.963 143.321 134.883 145.041 134.443 146.641C134.043 148.281 133.163 150.121 131.643 150.961C130.403 151.641 128.683 151.081 127.723 150.161C126.643 149.081 126.003 147.281 126.683 145.801C126.723 145.681 127.003 145.401 127.003 145.281L126.643 145.441C126.243 145.561 126.163 145.601 126.403 145.601C126.483 145.641 126.563 145.641 126.643 145.641C127.043 145.761 127.363 146.041 127.563 146.361C128.083 147.161 127.923 148.241 127.643 149.121C127.163 150.721 126.163 152.081 124.843 153.081C123.723 153.841 122.043 153.601 120.883 153.081C119.083 152.241 118.283 150.441 118.323 148.481C118.363 147.401 118.563 146.321 118.883 145.281C119.003 144.801 119.163 144.361 119.403 143.961C119.523 143.721 119.723 143.521 119.883 143.321C120.123 143.041 119.923 143.681 119.483 143.441C119.563 143.481 119.843 143.441 119.923 143.481C120.283 143.561 120.803 143.281 121.123 143.121C121.043 143.161 121.723 142.721 121.483 142.681Z" fill="white"/>
<path d="M147.123 141.32V140.72C147.123 140.64 147.123 140.56 147.083 140.52C147.043 140.44 147.003 140.36 146.923 140.32C146.843 140.24 146.723 140.2 146.643 140.16C146.523 140.12 146.403 140.08 146.283 140.04L146.003 140C145.843 140 145.683 140 145.563 140.04L145.403 140.12C145.323 140.16 145.243 140.24 145.203 140.32V140.92C145.203 141 145.203 141.08 145.243 141.12C145.283 141.2 145.323 141.28 145.403 141.32C145.483 141.4 145.603 141.44 145.683 141.48C145.803 141.52 145.923 141.6 146.043 141.6L146.323 141.64C146.483 141.64 146.643 141.64 146.763 141.6L146.923 141.52C147.003 141.52 147.083 141.44 147.123 141.32Z" fill="white"/>
<path d="M42.0402 109.68C38.6402 109.36 36.4402 112.48 36.0002 115.52C35.7602 117.12 35.8402 118.8 36.8402 120.12C37.8402 121.44 39.2402 122.36 40.6402 123.12C42.1602 123.92 43.8002 124.4 45.4802 124.56C47.0802 124.72 48.8002 124.64 50.2002 123.8C52.4802 122.44 53.3202 119.4 52.6402 116.92C51.7202 113.64 48.5202 111.24 45.5602 109.92C45.2002 109.76 45.7202 110.2 45.7602 110.24C46.1202 110.52 46.4802 110.8 46.9202 111C47.9202 111.44 48.8402 112.12 49.5202 112.96C50.3202 113.92 50.8802 115.08 51.1202 116.32C51.5202 118.44 50.8402 120.88 49.0802 122.28C46.8802 124.04 43.4002 123.64 40.8802 122.76C40.2802 122.56 39.7202 122.32 39.2002 122C38.8002 121.64 38.4402 121.24 38.1602 120.76C37.4402 119.52 37.4402 118 37.6402 116.6C38.1202 113.68 40.2402 110.56 43.5602 110.88C43.6802 110.88 43.1202 110.4 43.0802 110.36C42.8402 110.12 42.4002 109.72 42.0402 109.68Z" fill="white"/>
<path d="M44.0036 109.92L43.9236 113.84L43.8836 115.8C43.8836 116.32 43.7236 117.04 43.8836 117.52C44.0436 118 44.8436 118.48 45.2836 118.76C45.7636 119 46.2836 119.24 46.8036 119.4C47.7636 119.8 48.6436 120.32 49.4436 121C49.7236 121.24 50.2036 121.72 50.5636 121.76C50.9236 121.8 50.5236 121.48 50.4036 121.36C49.4836 120.56 48.4836 119.84 47.4036 119.2C46.9236 118.92 46.4436 118.68 45.9636 118.44C45.7236 118.32 45.4436 118.2 45.2036 118.12L44.8036 117.96C44.2836 117.76 44.4036 117.6 45.2836 118.4L45.6036 118.76C45.4836 118.52 45.4436 118.24 45.4836 117.96V116.96L45.5236 115L45.6036 111.08C45.6036 110.84 45.0836 110.48 44.8836 110.36C44.5636 110.16 44.2836 110 44.0036 109.92Z" fill="white"/>
<path d="M45.8801 118.48C47.4401 117 48.9201 115.4 50.2801 113.68C50.3201 113.64 50.2401 113.4 50.2401 113.36C50.1601 113.12 50.0801 112.92 49.9601 112.72C49.8401 112.52 49.7601 112.32 49.6001 112.12C49.6001 112.08 49.4401 111.88 49.4001 111.88C48.0401 113.6 46.5601 115.2 44.9601 116.68C44.9201 116.72 45.0001 116.96 45.0401 116.96C45.1201 117.2 45.2001 117.4 45.3201 117.6C45.3601 117.72 45.8001 118.56 45.8801 118.48Z" fill="white"/>
<path d="M46.4823 113.681C46.9223 113.041 47.4823 112.441 48.0823 111.921L48.0023 112.001L48.1623 111.881C48.2423 111.841 48.3223 111.761 48.2423 111.681C48.1623 111.601 47.8823 111.601 47.7623 111.641C47.5223 111.641 47.2423 111.681 47.0023 111.761L46.7623 111.841C46.6423 111.881 46.5223 111.921 46.4423 112.001C45.7223 112.561 45.1223 113.241 44.6023 113.961C44.4423 114.201 45.2823 114.121 45.3223 114.121C45.5623 114.081 45.8423 114.041 46.0823 113.961C46.2023 113.881 46.3623 113.801 46.4823 113.681Z" fill="white"/>
<path d="M48.8418 120.96C49.8418 120 50.6418 118.8 51.2018 117.52C51.3218 117.08 51.2018 116.6 50.8418 116.28C50.7218 116.12 50.5218 115.96 50.3218 115.92C50.2018 115.88 50.0018 115.88 49.9218 116.04C49.4418 117.16 48.7618 118.2 47.9218 119.12L48.0018 119C47.9218 119.08 47.8418 119.16 47.7618 119.24C47.4418 119.56 47.6418 120.04 47.8418 120.36C47.9618 120.56 48.1218 120.76 48.3618 120.88C48.5218 120.96 48.7618 121.08 48.8418 120.96Z" fill="white"/>
<path d="M43.9602 122.161C44.7202 123.481 45.4802 124.841 46.2802 126.161C46.6402 126.801 47.0402 127.441 47.4402 128.041C47.7602 128.641 48.1202 129.201 48.5602 129.761C49.0802 130.241 49.7602 130.481 50.4802 130.441C51.2402 130.441 52.0002 130.441 52.8002 130.481L57.5202 130.521C57.8402 130.521 58.4002 130.361 58.2802 129.921C58.1602 129.481 57.4402 129.441 57.0802 129.441L52.9602 129.401L51.0002 129.361C50.7202 129.361 50.4802 129.361 50.2002 129.361C50.4402 129.361 50.3602 129.401 50.2402 129.241C50.1602 129.161 50.1202 129.041 50.0402 128.961C48.6002 126.721 47.2802 124.401 45.9602 122.081C45.6802 121.721 45.2002 121.521 44.7602 121.601C44.4802 121.601 43.7202 121.761 43.9602 122.161Z" fill="white"/>
<path d="M61.8801 128.8C62.0401 130.12 61.6401 131.48 60.7601 132.48C60.6801 132.6 60.5601 132.72 60.4401 132.8C60.4001 132.84 60.2801 132.88 60.2801 132.92C60.0801 133.2 60.7201 133.28 60.6801 133.56C60.6801 133.48 60.6001 133.28 60.5601 133.16C60.5201 132.96 60.4801 132.76 60.4801 132.56C60.4801 131.84 61.2001 131.52 61.7601 131.24C62.4401 130.92 63.1601 130.68 63.8801 130.56C64.2401 130.48 64.6401 130.44 65.0001 130.4C65.1601 130.4 65.3601 130.36 65.5201 130.36C65.6801 130.4 65.8401 130.4 66.0001 130.4C66.1601 130.28 65.7201 130.28 65.8001 130.12C65.8001 130.12 65.8801 130.44 65.8401 130.32C65.8801 130.48 65.8801 130.64 65.9201 130.76C66.0001 131.08 65.9201 131.44 65.7201 131.68C65.6401 131.76 65.4801 131.76 65.4001 131.84H65.3601L65.9601 132.6C65.9601 132.6 66.0401 132.4 66.0401 132.36C66.2801 132.08 66.5601 131.88 66.9201 131.72C67.4801 131.4 68.3201 130.96 68.9201 131.28C68.8801 131.28 68.8001 131.08 68.8801 131.28L68.9601 131.48C69.0001 131.64 69.0401 131.76 69.0801 131.92C69.2001 132.28 69.1601 132.72 68.9201 133.04L70.2401 133.88C70.1601 133.6 70.6801 133.12 71.0001 133.16C71.9201 133.28 71.0001 131.56 70.3601 131.48C69.1201 131.32 68.5201 132.52 68.9201 133.56C69.0401 133.92 69.8401 134.96 70.2401 134.4C70.9201 133.44 70.3201 131.84 69.8001 130.96C69.0801 129.8 67.8801 129.24 66.6001 129.72C65.6001 130.08 64.2001 130.76 64.4801 132C64.7201 133.04 66.2801 134.36 67.0801 133.04C67.4001 132.56 67.3201 131.88 67.2401 131.36C67.1601 130.64 66.8801 129.96 66.4001 129.44C65.4801 128.48 64.1601 128.68 62.9601 128.92C62.3201 129.04 61.7201 129.24 61.1201 129.48C60.5601 129.68 60.0401 129.92 59.6001 130.28C58.6401 131.12 59.0001 132.72 59.5601 133.68C59.8801 134.28 60.5601 134.92 61.2801 134.64C61.8401 134.44 62.2401 133.8 62.5601 133.32C63.2401 132.16 63.5201 130.84 63.3201 129.52C63.2401 129.04 62.9201 128.6 62.4801 128.4C62.0401 128.2 61.8001 128.4 61.8801 128.8Z" fill="white"/>
<path d="M53.0418 115.04C55.1218 115 57.2018 115 59.2818 115.08C59.4418 115.04 59.5618 114.96 59.6818 114.88C59.9218 114.76 60.1218 114.6 60.3218 114.48C60.4818 114.36 60.6418 114.24 60.8018 114.12C60.8418 114.08 60.9618 114 60.8418 114C58.7618 113.92 56.6818 113.92 54.6018 113.96C54.4418 114 54.3218 114.08 54.1618 114.16C53.9218 114.28 53.7218 114.44 53.5218 114.56C53.3618 114.68 53.2018 114.8 53.0418 114.92C53.0018 114.96 52.8818 115.04 53.0418 115.04Z" fill="white"/>
<path d="M63.2802 117.68C65.0002 117.2 65.7602 115.6 66.2402 114.04C66.4002 113.68 66.4802 113.32 66.4402 112.92C66.2802 112.44 65.7202 112.24 65.2402 112.2C64.4002 112.08 63.6002 112.48 63.2002 113.2C62.8802 113.88 62.7602 114.6 62.8002 115.32C62.8002 116.2 63.0002 117.04 63.4402 117.8C64.3602 119.32 66.2002 119.96 67.8802 119.4C68.6402 119.2 69.2002 118.56 69.3202 117.76C69.4002 117 69.0002 116.28 68.3202 115.92C67.8802 115.68 66.8002 115.48 66.6002 116.08C66.1202 117.36 67.0002 118.68 68.0402 119.4C68.7202 119.88 69.6002 120.16 70.4402 120.12C71.1202 120.08 71.9602 119.8 72.2002 119.12C72.3602 118.72 71.8802 118.52 71.5602 118.48C71.2402 118.44 70.4402 118.32 70.3202 118.68C70.2802 118.76 70.2402 118.84 70.2002 118.92C70.1602 119 70.0402 119.04 70.0002 119.08C69.9602 119.12 69.9602 119.12 69.9202 119.12C69.8802 119.12 70.0802 119.16 70.0002 119.12C69.6402 118.96 69.3602 118.72 69.0802 118.44C68.5202 117.84 68.3202 117 68.6002 116.24L66.8802 116.4C67.5202 116.72 67.5202 117.68 67.0802 118.2C66.6002 118.76 66.1602 118.6 65.7202 118.08C65.0402 117.36 64.8802 116.28 64.8402 115.32C64.8402 114.88 64.8802 114.48 64.9602 114.04C65.0002 113.84 65.1202 113.6 65.2002 113.44C65.2402 113.36 65.3202 113.28 65.4002 113.2C65.7202 112.84 65.6002 113.4 64.7602 113.04L64.4002 112.84C64.6002 113 64.2802 113.68 64.2402 113.88C64.0802 114.36 63.9202 114.84 63.6802 115.28C63.3202 116 62.7202 116.6 61.9202 116.84C61.5202 116.96 61.5602 117.32 61.8402 117.52C62.2802 117.8 62.8002 117.84 63.2802 117.68Z" fill="white"/>
<path d="M9.32194 82.1598C10.9219 82.5198 12.6019 82.0398 13.7619 80.8798C14.8019 79.7998 15.2419 78.2398 14.8819 76.7998C14.6819 75.9598 14.0419 75.3598 13.2019 75.1998C12.3219 75.1198 11.5219 75.5598 11.1219 76.3198C10.7619 77.0798 10.7219 77.9998 10.6819 78.7998C10.6019 79.7198 10.6019 80.6398 10.6419 81.5598C10.6819 83.1598 10.6019 85.2798 11.9619 86.3998C12.6419 86.9598 13.5619 87.1198 14.4019 86.7998C15.0819 86.4398 15.6819 85.9198 16.1219 85.2798C16.6019 84.6398 17.0019 83.9198 17.2419 83.1198C17.4419 82.4398 17.7219 81.6398 17.5619 80.9198C17.3619 79.9998 16.3219 79.5998 15.4819 79.8798C14.6419 80.1598 14.3219 80.9998 14.0819 81.7598C13.8019 82.6798 13.6419 83.5998 13.6019 84.5598C13.4819 85.4798 13.4819 86.4398 13.6819 87.3598C14.1619 89.0398 16.1219 90.3198 17.7619 89.2798C18.8419 88.5998 17.5219 87.2398 16.5619 87.8398C16.0819 88.1598 15.6419 87.3198 15.5619 86.8398C15.4419 85.7598 15.4819 84.6798 15.6819 83.6398C15.7219 83.1598 15.8419 82.6798 16.0019 82.1998C16.0819 81.9598 16.2019 81.7598 16.2819 81.5598C16.2819 81.5198 16.3219 81.5198 16.3219 81.4798C15.8419 80.9998 15.5619 80.9198 15.6019 81.1998C15.6019 81.2398 15.6019 81.3198 15.6019 81.3598C15.4819 82.3198 15.1619 83.1998 14.6419 83.9998C14.4019 84.3598 14.1619 84.6798 13.8419 84.9598C13.7619 85.0398 13.4819 85.1998 13.5219 85.1998C13.6019 85.1998 13.4419 85.1598 13.4019 85.1598C13.3219 85.1198 13.2819 85.0398 13.2019 84.9598C13.0019 84.5998 12.8819 84.1998 12.8419 83.7998C12.7619 83.1998 12.7219 82.5998 12.6819 81.9998C12.6419 80.8398 12.6419 79.6798 12.7619 78.5198C12.7619 78.0398 12.8419 77.5198 13.0019 77.0798C13.0019 77.0398 13.1219 76.9198 13.1219 76.9198C13.1219 76.8398 13.1619 76.9598 13.0419 76.8798C12.7619 76.7198 12.9619 76.8798 13.0019 77.0798C13.2019 77.9998 12.9619 78.9598 12.3219 79.6398C11.6419 80.3598 10.6419 80.6798 9.68194 80.4398C9.20194 80.3198 8.68194 80.6398 8.56194 81.1198C8.48194 81.6398 8.84194 82.0798 9.32194 82.1598Z" fill="white"/>
</svg>
