<svg width="200" height="200" viewBox="0 0 200 200" fill="none" xmlns="http://www.w3.org/2000/svg">
<path d="M23.5978 108.28H98.8778C102.118 108.28 104.718 110.88 104.718 114.12V173.88C104.718 177.12 102.118 179.72 98.8778 179.72H23.5978C20.3578 179.72 17.7578 177.12 17.7578 173.88V114.12C17.7578 110.88 20.3578 108.28 23.5978 108.28Z" fill="#68BA7F"/>
<path d="M98.4387 178.96H24.2387C22.7587 178.96 21.3587 178.92 20.1187 177.96C19.0787 177.04 18.4787 175.68 18.5587 174.28V116.28C18.5587 115.04 18.4787 113.84 18.9187 112.64C19.7587 110.52 21.7587 109.12 24.0387 109.04H99.1987C100.399 109 101.599 109.4 102.519 110.16C103.479 111.08 103.999 112.4 103.959 113.72C103.959 114.76 103.959 115.76 103.959 116.8V173.16C103.959 173.88 103.879 174.6 103.639 175.28C102.799 177.44 100.759 178.88 98.4387 178.96C97.5187 178.96 98.6387 180.56 99.2787 180.56C101.679 180.56 103.879 179.16 104.919 177C105.319 176.08 105.519 175.12 105.479 174.12V117.44C105.479 116.48 105.479 115.52 105.479 114.6C105.439 110.84 102.159 107.52 98.3987 107.48C97.5987 107.48 96.7987 107.48 95.9987 107.48H23.5987C23.3587 107.48 23.1187 107.48 22.8787 107.48C20.4787 107.56 18.3587 109.04 17.3987 111.28C16.8787 112.56 16.9187 113.96 16.9187 115.32V172.6C16.9187 172.88 16.9187 173.16 16.9187 173.44C16.9587 175.48 17.8787 177.36 19.3987 178.72C20.6787 179.88 22.3187 180.52 24.0387 180.56C24.3187 180.56 24.5587 180.56 24.8387 180.56H99.2787C100.199 180.52 99.1187 178.96 98.4387 178.96Z" fill="#68BA7F"/>
<path d="M99.5194 173.601H97.3594V172.721H99.5194V173.601ZM95.1594 173.601H92.9994V172.721H95.1994L95.1594 173.601ZM90.8394 173.601H88.6794V172.721H90.8394V173.601ZM86.4794 173.601H84.3194V172.721H86.4794V173.601ZM82.1194 173.601H79.9594V172.721H82.1194V173.601ZM77.7594 173.601H75.5994V172.721H77.7594V173.601ZM73.3994 173.601H71.2394V172.721H73.3994V173.601ZM69.0794 173.601H66.9194V172.721H69.0794V173.601ZM64.7194 173.601H62.5594V172.721H64.7194V173.601ZM60.3594 173.601H58.1994V172.721H60.3594V173.601ZM55.9994 173.601H53.8394V172.721H55.9994V173.601ZM51.6394 173.601H49.4794V172.721H51.6394V173.601ZM47.2794 173.601H45.1194V172.721H47.2794V173.601ZM42.9594 173.601H40.7994V172.721H42.9594V173.601ZM38.5994 173.601H36.4394V172.721H38.5994V173.601ZM34.2394 173.601H32.0794V172.721H34.2394V173.601ZM29.8794 173.601H28.5994C28.2794 173.601 27.9594 173.561 27.6394 173.521L27.7994 172.681C28.0794 172.721 28.3194 172.761 28.5994 172.761H29.8794V173.601ZM25.4794 172.601C24.8394 172.121 24.3194 171.521 23.9594 170.801L24.7194 170.401C25.0394 171.001 25.4794 171.481 25.9994 171.881L25.4794 172.601ZM23.3594 168.521V166.321H24.2394V168.481L23.3594 168.521ZM24.2394 164.161H23.3594V162.001H24.2394V164.161ZM24.2394 159.801H23.3594V157.641H24.2394V159.801ZM24.2394 155.441H23.3594V153.281H24.2394V155.441ZM24.2394 151.121H23.3594V148.961H24.2394V151.121ZM24.2394 146.761H23.3594V144.601H24.2394V146.761ZM24.2394 142.401H23.3594V140.241H24.2394V142.401ZM24.2394 138.041H23.3594V135.841H24.2394V138.041ZM24.2394 133.681H23.3594V131.521H24.2394V133.681ZM24.2394 129.321H23.3594V127.161H24.2394V129.321ZM24.2394 125.001H23.3594V122.801H24.2394V125.001ZM24.2394 120.641H23.3594V119.881C23.3594 119.361 23.4394 118.841 23.5994 118.361L24.4394 118.601C24.3194 119.001 24.2394 119.441 24.2394 119.881V120.641ZM25.3994 116.921L24.7594 116.321C25.3194 115.721 25.9594 115.281 26.7194 115.001L27.0394 115.801C26.3994 116.041 25.8394 116.401 25.3994 116.921ZM99.5194 115.521H98.6394V114.641H99.5194V115.521ZM96.4794 115.521H94.2794V114.641H96.4394L96.4794 115.521ZM92.1194 115.521H89.9594V114.641H92.1194V115.521ZM87.7594 115.521H85.5994V114.641H87.7594V115.521ZM83.3994 115.521H81.2394V114.641H83.3994V115.521ZM79.0394 115.521H76.8794V114.641H79.0394V115.521ZM74.6794 115.521H72.5194V114.641H74.6794V115.521ZM70.3594 115.521H68.1994V114.641H70.3594V115.521ZM65.9994 115.521H63.8394V114.641H66.0394L65.9994 115.521ZM61.6394 115.521H59.4794V114.641H61.6394V115.521ZM57.2794 115.521H55.1194V114.641H57.2794V115.521ZM52.9194 115.521H50.7594V114.641H52.9194V115.521ZM48.5994 115.521H46.3994V114.641H48.5594L48.5994 115.521ZM44.2394 115.521H42.0794V114.641H44.2394V115.521ZM39.8794 115.521H37.6794V114.641H39.8394L39.8794 115.521ZM35.5194 115.521H33.3194V114.641H35.5194V115.521ZM31.1594 115.521H28.9594V114.641H31.1194L31.1594 115.521Z" fill="white"/>
<path d="M99.4372 173.361H97.2772L97.5572 173.641V172.801L97.3972 173.001H99.5572L99.2772 172.721V173.601C99.2772 173.721 99.3972 173.841 99.5172 173.881C99.6372 173.921 99.7172 173.801 99.7172 173.681V172.801C99.7172 172.641 99.5972 172.521 99.4372 172.521H97.2772C97.1572 172.521 97.1172 172.641 97.1172 172.721V173.601C97.1172 173.761 97.2372 173.881 97.3972 173.881H99.5572C99.6772 173.881 99.7172 173.681 99.6772 173.601C99.7172 173.481 99.5972 173.361 99.4372 173.361Z" fill="white"/>
<path d="M95.1169 173.361H92.9569L93.2369 173.641V172.801L93.0769 173.001H95.2369L94.9569 172.721V173.601C94.9569 173.721 95.0769 173.841 95.1969 173.881C95.3169 173.921 95.3969 173.801 95.3969 173.681V172.801C95.3969 172.641 95.2769 172.521 95.1169 172.521H92.9569C92.8369 172.521 92.7969 172.641 92.7969 172.721V173.601C92.7969 173.761 92.9169 173.881 93.0769 173.881H95.2369C95.3569 173.881 95.3969 173.681 95.3569 173.601C95.3569 173.481 95.2369 173.361 95.1169 173.361Z" fill="white"/>
<path d="M90.7575 173.361H88.5975L88.8775 173.641V172.801L88.7175 173.001H90.8775L90.5975 172.721V173.601C90.5975 173.721 90.7175 173.841 90.8375 173.881C90.9575 173.921 91.0375 173.801 91.0375 173.681V172.801C91.0375 172.641 90.9175 172.521 90.7575 172.521H88.5975C88.4775 172.521 88.4375 172.641 88.4375 172.721V173.601C88.4375 173.761 88.5575 173.881 88.7175 173.881H90.8775C90.9975 173.881 91.0375 173.681 90.9975 173.601C90.9975 173.481 90.8775 173.361 90.7575 173.361Z" fill="white"/>
<path d="M86.3981 173.361H84.2381L84.5181 173.641V172.801L84.3581 173.001H86.5181L86.2381 172.721V173.601C86.2381 173.721 86.3581 173.841 86.4781 173.881C86.6381 173.921 86.6781 173.801 86.6781 173.681V172.801C86.6781 172.641 86.5581 172.521 86.3981 172.521H84.2381C84.1181 172.521 84.0781 172.641 84.0781 172.721V173.601C84.0781 173.761 84.1981 173.881 84.3581 173.881H86.5181C86.6381 173.881 86.6781 173.681 86.6381 173.601C86.6381 173.481 86.5581 173.361 86.3981 173.361Z" fill="white"/>
<path d="M82.0388 173.361H79.8787L80.1587 173.641V172.801L79.9987 173.001H82.1587L81.8787 172.721V173.601C81.8787 173.721 81.9987 173.841 82.1187 173.881C82.2787 173.921 82.3187 173.801 82.3187 173.681V172.801C82.3187 172.641 82.1988 172.521 82.0388 172.521H79.8787C79.7587 172.521 79.7188 172.641 79.7188 172.721V173.601C79.7188 173.761 79.8387 173.881 79.9987 173.881H82.1587C82.2787 173.881 82.3187 173.681 82.2787 173.601C82.2787 173.481 82.1988 173.361 82.0388 173.361Z" fill="white"/>
<path d="M77.6794 173.361H75.5194L75.7994 173.641V172.801L75.6394 173.001H77.7994L77.5194 172.721V173.601C77.5194 173.721 77.6394 173.841 77.7594 173.881C77.9194 173.921 77.9594 173.801 77.9594 173.681V172.801C77.9594 172.641 77.8394 172.521 77.6794 172.521H75.5194C75.3994 172.521 75.3594 172.641 75.3594 172.721V173.601C75.3594 173.761 75.4794 173.881 75.6394 173.881H77.7994C77.9194 173.881 77.9594 173.681 77.9194 173.601C77.9594 173.481 77.8394 173.361 77.6794 173.361Z" fill="white"/>
<path d="M73.3591 173.361H71.1991L71.4791 173.641V172.801L71.3191 173.001H73.4791L73.1991 172.721V173.601C73.1991 173.721 73.3191 173.841 73.4391 173.881C73.5991 173.921 73.6391 173.801 73.6391 173.681V172.801C73.6391 172.641 73.5191 172.521 73.3591 172.521H71.1991C71.0791 172.521 71.0391 172.641 71.0391 172.721V173.601C71.0391 173.761 71.1591 173.881 71.3191 173.881H73.4791C73.5991 173.881 73.6391 173.681 73.5991 173.601C73.5991 173.481 73.4791 173.361 73.3591 173.361Z" fill="white"/>
<path d="M69.0006 173.361H66.8006L67.0806 173.641V172.801L66.9206 173.001H69.0806L68.8006 172.721V173.601C68.8006 173.721 68.9206 173.841 69.0406 173.881C69.1606 173.921 69.2406 173.801 69.2406 173.681V172.801C69.2406 172.641 69.1206 172.521 68.9606 172.521H66.8006C66.6806 172.521 66.6406 172.641 66.6406 172.721V173.601C66.6406 173.761 66.7606 173.881 66.9206 173.881H69.0806C69.2006 173.881 69.2406 173.681 69.2006 173.601C69.2406 173.481 69.1206 173.361 69.0006 173.361Z" fill="white"/>
<path d="M64.6394 173.361H62.4794L62.7594 173.641V172.801L62.5994 173.001H64.7994L64.5194 172.721V173.601C64.5194 173.721 64.6394 173.841 64.7594 173.881C64.8794 173.921 64.9594 173.801 64.9594 173.681V172.801C64.9594 172.641 64.8394 172.521 64.6794 172.521H62.5194C62.3994 172.521 62.3594 172.641 62.3594 172.721V173.601C62.3594 173.761 62.4794 173.881 62.6394 173.881H64.7994C64.9194 173.881 64.9594 173.681 64.9194 173.601C64.9194 173.481 64.7994 173.361 64.6394 173.361Z" fill="white"/>
<path d="M60.277 173.361H58.117L58.397 173.641V172.801L58.237 173.001H60.397L60.117 172.721V173.601C60.117 173.721 60.237 173.841 60.357 173.881C60.517 173.921 60.557 173.801 60.557 173.681V172.801C60.557 172.641 60.437 172.521 60.277 172.521H58.117C57.997 172.521 57.957 172.641 57.957 172.721V173.601C57.957 173.761 58.077 173.881 58.237 173.881H60.397C60.517 173.881 60.557 173.681 60.517 173.601C60.517 173.481 60.437 173.361 60.277 173.361Z" fill="white"/>
<path d="M55.9177 173.361H53.7577L54.0377 173.641V172.801L53.8777 173.001H56.0377L55.7577 172.721V173.601C55.7577 173.721 55.8777 173.841 55.9977 173.881C56.1577 173.921 56.1977 173.801 56.1977 173.681V172.801C56.1977 172.641 56.0777 172.521 55.9177 172.521H53.7577C53.6377 172.521 53.5977 172.641 53.5977 172.721V173.601C53.5977 173.761 53.7177 173.881 53.8777 173.881H56.0377C56.1577 173.881 56.1977 173.681 56.1577 173.601C56.1977 173.481 56.0777 173.361 55.9177 173.361Z" fill="white"/>
<path d="M51.5603 173.361H49.4003L49.6803 173.641V172.801L49.5603 173.001H51.7203L51.4403 172.721V173.601C51.4403 173.721 51.5603 173.841 51.6803 173.881C51.8403 173.921 51.8803 173.801 51.8803 173.681V172.801C51.8803 172.641 51.7603 172.521 51.6003 172.521H49.4403C49.3203 172.521 49.3203 172.641 49.3203 172.721V173.601C49.3203 173.761 49.4403 173.881 49.6003 173.881H51.7603C51.8803 173.881 51.9203 173.681 51.8803 173.601C51.8403 173.481 51.7203 173.361 51.5603 173.361Z" fill="white"/>
<path d="M47.24 173.361H45.08L45.36 173.641V172.801L45.24 173.001H47.4L47.12 172.721V173.601C47.12 173.721 47.24 173.841 47.36 173.881C47.48 173.921 47.56 173.801 47.56 173.681V172.801C47.56 172.641 47.44 172.521 47.28 172.521H45.12C45 172.521 45 172.641 45 172.721V173.601C45 173.761 45.12 173.881 45.28 173.881H47.44C47.56 173.881 47.6 173.681 47.56 173.601C47.48 173.481 47.36 173.361 47.24 173.361Z" fill="white"/>
<path d="M42.8777 173.361H40.7177L40.9977 173.641V172.801L40.8777 173.001H43.0377L42.7577 172.721V173.601C42.7577 173.721 42.8777 173.841 42.9977 173.881C43.1177 173.921 43.1977 173.801 43.1977 173.681V172.801C43.1977 172.641 43.0777 172.521 42.9177 172.521H40.7577C40.6377 172.521 40.5977 172.641 40.5977 172.721V173.601C40.5977 173.761 40.7177 173.881 40.8777 173.881H43.0377C43.1577 173.881 43.1977 173.681 43.1577 173.601C43.1177 173.481 42.9977 173.361 42.8777 173.361Z" fill="white"/>
<path d="M38.5192 173.361H36.3592L36.6392 173.641V172.801L36.4792 173.001H38.6392L38.3592 172.721V173.601C38.3592 173.721 38.4792 173.841 38.5992 173.881C38.7192 173.921 38.7992 173.801 38.7992 173.681V172.801C38.7992 172.641 38.6792 172.521 38.5192 172.521H36.3592C36.2392 172.521 36.1992 172.641 36.1992 172.721V173.601C36.1992 173.761 36.3192 173.881 36.4792 173.881H38.6392C38.7592 173.881 38.7992 173.681 38.7592 173.601C38.7592 173.481 38.6392 173.361 38.5192 173.361Z" fill="white"/>
<path d="M34.1589 173.361H31.9989L32.2789 173.641V172.801L32.1189 173.001H34.2789L33.9989 172.721V173.601C33.9989 173.721 34.1189 173.841 34.2389 173.881C34.3589 173.921 34.4389 173.801 34.4389 173.681V172.801C34.4389 172.641 34.3189 172.521 34.1589 172.521H31.9989C31.8789 172.521 31.8789 172.641 31.8789 172.721V173.601C31.8789 173.761 31.9989 173.881 32.1589 173.881H34.3189C34.4389 173.881 34.4789 173.681 34.4389 173.601C34.4389 173.481 34.3189 173.361 34.1589 173.361Z" fill="white"/>
<path d="M29.7974 173.36C29.0774 173.4 28.3174 173.36 27.5974 173.28L27.8374 173.64L27.9974 172.8L27.7974 172.96C28.5174 173.04 29.2374 173.08 29.9574 173.04L29.6774 172.76V173.64C29.6774 173.76 29.7974 173.88 29.9174 173.92C30.0374 173.96 30.1174 173.84 30.1174 173.72V172.8C30.1174 172.64 29.9974 172.52 29.8374 172.52C29.1574 172.56 28.4774 172.52 27.7974 172.44C27.7174 172.44 27.6374 172.48 27.5974 172.56L27.4374 173.4C27.3974 173.56 27.5174 173.72 27.6774 173.76C28.4374 173.88 29.1974 173.88 29.9974 173.84C30.1174 173.84 30.1574 173.64 30.1174 173.56C30.0374 173.48 29.9574 173.36 29.7974 173.36Z" fill="white"/>
<path d="M25.5588 172.4C24.9588 171.96 24.4787 171.4 24.1187 170.72L24.0787 171.04L24.8387 170.64L24.5187 170.48C24.8387 171.12 25.3187 171.64 25.8787 172.08L25.7987 171.68L25.2788 172.36C25.1988 172.48 25.2387 172.64 25.3187 172.72C25.3987 172.8 25.5587 172.88 25.6387 172.76L26.1588 172.04C26.2388 171.92 26.1987 171.72 26.0787 171.64C25.5987 171.28 25.1588 170.8 24.8788 170.24C24.8388 170.16 24.6788 170.04 24.5588 170.08L23.7987 170.48C23.6787 170.52 23.7188 170.72 23.7588 170.8C24.1588 171.56 24.6788 172.2 25.3588 172.68C25.4388 172.76 25.5987 172.76 25.6387 172.64C25.7187 172.64 25.6788 172.48 25.5588 172.4Z" fill="white"/>
<path d="M23.5595 168.56C23.5595 167.92 23.5595 167.28 23.5595 166.68V166.4L23.4395 166.6H24.3195L24.0395 166.28V168.44L24.1595 168.24L23.2795 168.28C23.1595 168.28 23.1195 168.48 23.1595 168.56C23.1995 168.68 23.3195 168.8 23.4395 168.8L24.3195 168.76C24.4395 168.76 24.4795 168.64 24.4395 168.56V166.4C24.4395 166.24 24.3195 166.12 24.1595 166.08H23.2795C23.1595 166.08 23.1595 166.2 23.1595 166.28V168.48C23.1595 168.64 23.2795 168.72 23.3995 168.76C23.5195 168.8 23.5595 168.68 23.5595 168.56Z" fill="white"/>
<path d="M24.1592 163.921H23.2792L23.5592 164.241V162.081L23.4392 162.281H24.3192L24.0392 161.961V164.121C24.0392 164.281 24.1592 164.401 24.2792 164.401C24.3992 164.441 24.4792 164.321 24.4792 164.201V162.041C24.4792 161.881 24.3592 161.761 24.1992 161.721H23.3192C23.1992 161.721 23.1992 161.841 23.1992 161.921V164.081C23.1992 164.241 23.3192 164.361 23.4792 164.401H24.3592C24.4792 164.401 24.5192 164.201 24.4792 164.121C24.3992 164.001 24.2792 163.921 24.1592 163.921Z" fill="white"/>
<path d="M24.1602 159.56H23.2802L23.5602 159.84V157.68L23.4402 157.88H24.3202L24.0002 157.6V159.76C24.0002 159.88 24.1202 160 24.2402 160.04C24.3602 160.08 24.4402 159.96 24.4402 159.84V157.68C24.4402 157.52 24.3202 157.4 24.1602 157.4H23.2802C23.1602 157.4 23.1602 157.52 23.1602 157.6V159.76C23.1602 159.92 23.2802 160.04 23.4402 160.04H24.3202C24.4402 160.04 24.4802 159.84 24.4402 159.76C24.4002 159.64 24.2802 159.56 24.1602 159.56Z" fill="white"/>
<path d="M24.1602 155.2H23.2802L23.5602 155.48V153.32L23.4402 153.52H24.3202L24.0002 153.24V155.4C24.0002 155.52 24.1202 155.64 24.2402 155.68C24.3602 155.72 24.4402 155.6 24.4402 155.48V153.32C24.4402 153.16 24.3202 153.04 24.1602 153.04H23.2802C23.1602 153.04 23.1602 153.16 23.1602 153.24V155.4C23.1602 155.56 23.2802 155.68 23.4402 155.68H24.3202C24.4402 155.68 24.4802 155.48 24.4402 155.4C24.4002 155.32 24.2802 155.2 24.1602 155.2Z" fill="white"/>
<path d="M24.1592 150.841H23.2792L23.5592 151.121V148.961L23.4392 149.161H24.3192L24.0392 148.881V151.041C24.0392 151.161 24.1592 151.281 24.2792 151.321C24.3992 151.361 24.4792 151.241 24.4792 151.121V148.961C24.4792 148.801 24.3592 148.681 24.1992 148.681H23.3192C23.1992 148.681 23.1992 148.801 23.1992 148.881V151.041C23.1992 151.201 23.3192 151.321 23.4792 151.321H24.3592C24.4792 151.321 24.5192 151.121 24.4792 151.041C24.3992 150.961 24.2792 150.841 24.1592 150.841Z" fill="white"/>
<path d="M24.1592 146.48H23.2792L23.5592 146.76V144.6L23.4392 144.8H24.3192L24.0392 144.52V146.68C24.0392 146.8 24.1592 146.92 24.2792 146.96C24.3992 147 24.4792 146.88 24.4792 146.76V144.6C24.4792 144.44 24.3592 144.32 24.1992 144.32H23.3192C23.1992 144.32 23.1992 144.44 23.1992 144.52V146.68C23.1992 146.84 23.3192 146.96 23.4792 146.96H24.3592C24.4792 146.96 24.5192 146.76 24.4792 146.68C24.3992 146.6 24.2792 146.52 24.1592 146.48Z" fill="white"/>
<path d="M24.1592 142.161H23.2792L23.5592 142.441V140.281L23.4392 140.481H24.3192L24.0392 140.161V142.361C24.0392 142.481 24.1592 142.601 24.2792 142.641C24.3992 142.681 24.4792 142.561 24.4792 142.441V140.281C24.4792 140.121 24.3592 140.001 24.1992 139.961H23.3192C23.1992 139.961 23.1992 140.081 23.1992 140.161V142.361C23.1992 142.521 23.3192 142.641 23.4792 142.641H24.3592C24.4792 142.641 24.5192 142.441 24.4792 142.361C24.3992 142.241 24.2792 142.161 24.1592 142.161Z" fill="white"/>
<path d="M24.1592 137.801H23.2792L23.5592 138.121V135.961L23.4392 136.161H24.3192L24.0392 135.841V138.001C24.0392 138.161 24.1592 138.281 24.2792 138.281C24.3992 138.321 24.4792 138.201 24.4792 138.081V135.921C24.4792 135.761 24.3592 135.641 24.1992 135.601H23.3192C23.1992 135.601 23.1992 135.721 23.1992 135.801V137.961C23.1992 138.121 23.3192 138.241 23.4792 138.281H24.3592C24.4792 138.281 24.5192 138.081 24.4792 138.001C24.3992 137.881 24.2792 137.801 24.1592 137.801Z" fill="white"/>
<path d="M24.1592 133.44H23.2792L23.5592 133.76V131.6L23.4392 131.8H24.3192L24.0392 131.48V133.64C24.0392 133.8 24.1592 133.92 24.2792 133.92C24.3992 133.96 24.4792 133.84 24.4792 133.72V131.56C24.4792 131.4 24.3592 131.28 24.1992 131.24H23.3192C23.1992 131.24 23.1992 131.36 23.1992 131.44V133.6C23.1992 133.76 23.3192 133.88 23.4792 133.92H24.3592C24.4792 133.92 24.5192 133.72 24.4792 133.64C24.3992 133.52 24.2792 133.44 24.1592 133.44Z" fill="white"/>
<path d="M24.1592 129.081H23.2792L23.5592 129.361V127.201L23.4392 127.401H24.3192L24.0392 127.121V129.281C24.0392 129.401 24.1592 129.521 24.2792 129.561C24.3992 129.601 24.4792 129.481 24.4792 129.361V127.201C24.4792 127.041 24.3592 126.921 24.1992 126.921H23.3192C23.1992 126.921 23.1992 127.041 23.1992 127.121V129.281C23.1992 129.441 23.3192 129.561 23.4792 129.561H24.3592C24.4792 129.561 24.5192 129.361 24.4792 129.281C24.3992 129.201 24.2792 129.081 24.1592 129.081Z" fill="white"/>
<path d="M24.1592 124.721H23.2792L23.5592 125.001V122.841L23.4392 123.041H24.3192L24.0392 122.761V124.921C24.0392 125.041 24.1592 125.161 24.2792 125.201C24.3992 125.241 24.4792 125.121 24.4792 125.001V122.841C24.4792 122.681 24.3592 122.561 24.1992 122.561H23.3192C23.1992 122.561 23.1992 122.681 23.1992 122.761V124.921C23.1992 125.081 23.3192 125.201 23.4792 125.201H24.3592C24.4792 125.201 24.5192 125.001 24.4792 124.921C24.3992 124.841 24.2792 124.721 24.1592 124.721Z" fill="white"/>
<path d="M24.1572 120.4H23.2772L23.5572 120.68V120C23.5572 119.52 23.6372 119 23.7572 118.56L23.5572 118.64L24.3972 118.88L24.1972 118.48C24.0772 118.96 23.9972 119.44 23.9972 119.92V120.6C23.9972 120.72 24.1172 120.84 24.2372 120.88C24.3572 120.92 24.4372 120.8 24.4372 120.68C24.3972 120.04 24.4772 119.4 24.5972 118.76C24.6372 118.6 24.5572 118.4 24.3972 118.36L23.5572 118.12C23.4772 118.12 23.3972 118.16 23.3572 118.2C23.1972 118.76 23.1172 119.32 23.1172 119.88V120.6C23.1172 120.76 23.2372 120.88 23.3972 120.88H24.2772C24.3972 120.88 24.4372 120.68 24.3972 120.6C24.3972 120.52 24.2772 120.4 24.1572 120.4Z" fill="white"/>
<path d="M25.4786 116.721L24.8386 116.121L24.9186 116.521C25.4386 115.961 26.0786 115.521 26.7986 115.241L26.4786 115.041L26.7986 115.841L26.8786 115.561C26.2386 115.801 25.6786 116.201 25.1986 116.721C25.0386 116.921 25.3586 117.361 25.5186 117.121C25.9586 116.641 26.5186 116.281 27.1186 116.041C27.1986 116.001 27.2386 115.841 27.1986 115.761L26.8786 114.961C26.8386 114.841 26.7186 114.681 26.5586 114.761C25.7986 115.041 25.1186 115.521 24.5586 116.121C24.4386 116.241 24.5586 116.441 24.6386 116.521L25.2786 117.121C25.3586 117.201 25.4786 117.201 25.5186 117.121L25.5586 117.081C25.5986 116.921 25.5586 116.801 25.4786 116.721Z" fill="white"/>
<path d="M99.4394 115.24H98.5594L98.8394 115.56V114.68L98.6794 114.88H99.5594L99.2794 114.6V115.48C99.2794 115.56 99.3194 115.64 99.3594 115.68C99.3994 115.72 99.4394 115.76 99.5194 115.76C99.5594 115.76 99.6394 115.76 99.6794 115.72C99.7194 115.68 99.7194 115.6 99.7194 115.56V114.68C99.7194 114.6 99.6794 114.52 99.5994 114.48C99.5594 114.44 99.4794 114.4 99.3994 114.4H98.5194C98.4794 114.4 98.4394 114.44 98.3994 114.48C98.3594 114.52 98.3594 114.56 98.3594 114.64V115.52C98.3594 115.6 98.3994 115.68 98.4794 115.72C98.5194 115.76 98.5994 115.8 98.6794 115.8H99.5994C99.6394 115.8 99.6794 115.76 99.7194 115.72C99.7594 115.64 99.7594 115.6 99.7194 115.52C99.6794 115.36 99.5994 115.24 99.4394 115.24Z" fill="white"/>
<path d="M96.3981 115.24H94.2381L94.5181 115.56V114.68L94.3581 114.88H96.5181L96.2381 114.6V115.48C96.2381 115.64 96.3581 115.76 96.4781 115.76C96.5981 115.8 96.6781 115.68 96.6781 115.56V114.68C96.6781 114.52 96.5581 114.4 96.3981 114.4H94.2381C94.1181 114.4 94.0781 114.52 94.0781 114.6V115.48C94.0781 115.64 94.1981 115.76 94.3581 115.8H96.5181C96.6381 115.8 96.6781 115.6 96.6381 115.52C96.6381 115.36 96.5181 115.24 96.3981 115.24Z" fill="white"/>
<path d="M92.0388 115.24H89.8787L90.1587 115.56V114.68L89.9987 114.88H92.1587L91.8787 114.6V115.48C91.8787 115.64 91.9987 115.76 92.1187 115.76C92.2387 115.8 92.3187 115.68 92.3187 115.56V114.68C92.3187 114.52 92.1988 114.4 92.0388 114.4H89.8787C89.7587 114.4 89.7188 114.52 89.7188 114.6V115.48C89.7188 115.64 89.8387 115.76 89.9987 115.8H92.1587C92.2787 115.8 92.3187 115.6 92.2787 115.52C92.2787 115.36 92.1588 115.24 92.0388 115.24Z" fill="white"/>
<path d="M87.6794 115.24H85.5194L85.7994 115.56V114.68L85.6394 114.88H87.7994L87.5194 114.6V115.48C87.5194 115.6 87.6394 115.72 87.7594 115.76C87.9194 115.8 87.9594 115.68 87.9594 115.56V114.68C87.9594 114.52 87.8394 114.4 87.6794 114.4H85.5194C85.3994 114.4 85.3594 114.52 85.3594 114.6V115.48C85.3594 115.64 85.4794 115.76 85.6394 115.8H87.7994C87.9194 115.8 87.9594 115.6 87.9194 115.52C87.9194 115.36 87.7994 115.24 87.6794 115.24Z" fill="white"/>
<path d="M83.32 115.24H81.16L81.44 115.56V114.68L81.28 114.88H83.44L83.16 114.6V115.48C83.16 115.6 83.28 115.72 83.4 115.76C83.56 115.8 83.6 115.68 83.6 115.56V114.68C83.6 114.52 83.48 114.4 83.32 114.4H81.16C81.04 114.4 81 114.52 81 114.6V115.48C81 115.64 81.12 115.76 81.28 115.8H83.44C83.56 115.8 83.6 115.6 83.56 115.52C83.56 115.36 83.44 115.24 83.32 115.24Z" fill="white"/>
<path d="M78.9606 115.24H76.8006L77.0806 115.56V114.68L76.9206 114.88H79.0806L78.8006 114.6V115.48C78.8006 115.6 78.9206 115.72 79.0406 115.76C79.2006 115.8 79.2406 115.68 79.2406 115.56V114.68C79.2406 114.52 79.1206 114.4 78.9606 114.4H76.8006C76.6806 114.4 76.6406 114.52 76.6406 114.6V115.48C76.6406 115.64 76.7606 115.76 76.9206 115.8H79.0806C79.2006 115.8 79.2406 115.6 79.2006 115.52C79.2406 115.36 79.1206 115.24 78.9606 115.24Z" fill="white"/>
<path d="M74.5973 115.24H72.4373L72.7173 115.56V114.68L72.5573 114.88H74.7173L74.4373 114.6V115.48C74.4373 115.6 74.5573 115.72 74.6773 115.76C74.8373 115.8 74.8773 115.68 74.8773 115.56V114.68C74.8773 114.52 74.7573 114.4 74.5973 114.4H72.4373C72.3173 114.4 72.2773 114.52 72.2773 114.6V115.48C72.2773 115.64 72.3973 115.76 72.5573 115.8H74.7173C74.8373 115.8 74.8773 115.6 74.8373 115.52C74.8773 115.36 74.7573 115.24 74.5973 115.24Z" fill="white"/>
<path d="M70.277 115.24H68.117L68.397 115.56V114.68L68.237 114.88H70.397L70.117 114.6V115.48C70.117 115.64 70.237 115.76 70.357 115.76C70.477 115.8 70.557 115.68 70.557 115.56V114.68C70.557 114.52 70.437 114.4 70.277 114.4H68.117C67.997 114.4 67.957 114.52 67.957 114.6V115.48C67.957 115.64 68.077 115.76 68.237 115.8H70.397C70.517 115.8 70.557 115.6 70.517 115.52C70.477 115.36 70.397 115.24 70.277 115.24Z" fill="white"/>
<path d="M65.9177 115.24H63.7577L64.0377 115.56V114.68L63.8777 114.88H66.0377L65.7577 114.6V115.48C65.7577 115.64 65.8777 115.76 65.9977 115.76C66.1177 115.8 66.1977 115.68 66.1977 115.56V114.68C66.1977 114.52 66.0777 114.4 65.9177 114.4H63.7577C63.6377 114.4 63.5977 114.52 63.5977 114.6V115.48C63.5977 115.64 63.7177 115.76 63.8777 115.8H66.0377C66.1577 115.8 66.1977 115.6 66.1577 115.52C66.1577 115.36 66.0377 115.24 65.9177 115.24Z" fill="white"/>
<path d="M61.5583 115.24H59.3983L59.6783 115.56V114.68L59.5183 114.88H61.6783L61.3983 114.6V115.48C61.3983 115.64 61.5183 115.76 61.6383 115.76C61.7583 115.8 61.8383 115.68 61.8383 115.56V114.68C61.8383 114.52 61.7183 114.4 61.5583 114.4H59.3983C59.2783 114.4 59.2383 114.52 59.2383 114.6V115.48C59.2383 115.64 59.3583 115.76 59.5183 115.8H61.6783C61.7983 115.8 61.8383 115.6 61.7983 115.52C61.7983 115.36 61.6783 115.24 61.5583 115.24Z" fill="white"/>
<path d="M57.1989 115.24H55.0389L55.3189 115.56V114.68L55.1589 114.88H57.3189L57.0389 114.6V115.48C57.0389 115.6 57.1589 115.72 57.2789 115.76C57.4389 115.8 57.4789 115.68 57.4789 115.56V114.68C57.4789 114.52 57.3589 114.4 57.1989 114.4H55.0389C54.9189 114.4 54.8789 114.52 54.8789 114.6V115.48C54.8789 115.64 54.9989 115.76 55.1589 115.8H57.3189C57.4389 115.8 57.4789 115.6 57.4389 115.52C57.4389 115.36 57.3189 115.24 57.1989 115.24Z" fill="white"/>
<path d="M52.8377 115.24H50.6777L50.9577 115.56V114.68L50.8377 114.88H52.9977L52.7177 114.6V115.48C52.7177 115.6 52.8377 115.72 52.9577 115.76C53.1177 115.8 53.1577 115.68 53.1577 115.56V114.68C53.1577 114.52 53.0377 114.4 52.8777 114.4H50.7177C50.5977 114.4 50.5977 114.52 50.5977 114.6V115.48C50.5977 115.64 50.7177 115.76 50.8777 115.8H53.0377C53.1577 115.8 53.1977 115.6 53.1577 115.52C53.1177 115.36 52.9977 115.24 52.8377 115.24Z" fill="white"/>
<path d="M48.4783 115.24H46.3183L46.5983 115.56V114.68L46.4783 114.88H48.6383L48.3583 114.6V115.48C48.3583 115.6 48.4783 115.72 48.5983 115.76C48.7183 115.8 48.7983 115.68 48.7983 115.56V114.68C48.7983 114.52 48.6783 114.4 48.5183 114.4H46.3583C46.2383 114.4 46.2383 114.52 46.2383 114.6V115.48C46.2383 115.64 46.3583 115.76 46.5183 115.8H48.6783C48.7983 115.8 48.8383 115.6 48.7983 115.52C48.7583 115.36 48.6383 115.24 48.4783 115.24Z" fill="white"/>
<path d="M44.158 115.24H41.998L42.278 115.56V114.68L42.158 114.88H44.318L44.038 114.6V115.48C44.038 115.6 44.158 115.72 44.278 115.76C44.398 115.8 44.478 115.68 44.478 115.56V114.68C44.478 114.52 44.358 114.4 44.198 114.4H42.038C41.918 114.4 41.918 114.52 41.918 114.6V115.48C41.918 115.64 42.038 115.76 42.198 115.8H44.358C44.478 115.8 44.518 115.6 44.478 115.52C44.398 115.36 44.278 115.24 44.158 115.24Z" fill="white"/>
<path d="M39.7995 115.24H37.6395L37.9195 115.56V114.68L37.7995 114.88H39.9595L39.6795 114.6V115.48C39.6795 115.64 39.7995 115.76 39.9195 115.76C40.0395 115.8 40.1195 115.68 40.1195 115.56V114.68C40.1195 114.52 39.9995 114.4 39.8395 114.4H37.6795C37.5595 114.4 37.5195 114.52 37.5195 114.6V115.48C37.5195 115.64 37.6395 115.76 37.7995 115.8H39.9595C40.0795 115.8 40.1195 115.6 40.0795 115.52C40.0395 115.36 39.9195 115.24 39.7995 115.24Z" fill="white"/>
<path d="M35.4372 115.24H33.2772L33.5572 115.56V114.68L33.3972 114.88H35.5972L35.3172 114.6V115.48C35.3172 115.64 35.4372 115.76 35.5572 115.76C35.6772 115.8 35.7572 115.68 35.7572 115.56V114.68C35.7572 114.52 35.6372 114.4 35.4772 114.4H33.2772C33.1572 114.4 33.1172 114.52 33.1172 114.6V115.48C33.1172 115.64 33.2372 115.76 33.3972 115.8H35.5972C35.7172 115.8 35.7572 115.6 35.7172 115.52C35.6772 115.36 35.5972 115.24 35.4372 115.24Z" fill="white"/>
<path d="M31.0778 115.24H28.8778L29.1578 115.56V114.68L28.9978 114.88H31.1578L30.8778 114.6V115.48C30.8778 115.64 30.9978 115.76 31.1178 115.76C31.2378 115.8 31.3178 115.68 31.3178 115.56V114.68C31.3178 114.52 31.1978 114.4 31.0378 114.4H28.8778C28.7578 114.4 28.7578 114.52 28.7578 114.6V115.48C28.7578 115.64 28.8778 115.76 29.0378 115.8H31.1978C31.3178 115.8 31.3578 115.6 31.3178 115.52C31.3178 115.36 31.2378 115.24 31.0778 115.24Z" fill="white"/>
<path d="M78.4384 133.44H105.758C107.998 133.44 109.798 135.24 109.798 137.48V150.88C109.798 153.12 107.998 154.92 105.758 154.92H78.4384C76.1984 154.92 74.3984 153.12 74.3984 150.88V137.48C74.3984 135.24 76.1984 133.44 78.4384 133.44Z" fill="white"/>
<path d="M105.84 154.081H85.7596C83.3596 154.081 80.9596 154.161 78.5596 154.081C77.2396 154.001 76.0797 153.201 75.5997 151.961C75.3997 151.361 75.3196 150.721 75.3596 150.121V138.801C75.3596 138.281 75.3596 137.801 75.3596 137.281C75.3596 137.241 75.3596 137.241 75.3596 137.201C75.3596 137.401 75.3997 136.881 75.3997 136.841C75.4397 136.641 75.4797 136.481 75.5197 136.281C75.7197 135.641 76.0797 135.121 76.6397 134.721C77.4797 134.121 78.5197 134.201 79.5197 134.201H105.48C107.36 134.241 108.88 135.761 108.88 137.681V137.721C108.88 139.081 108.88 140.401 108.88 141.761V150.481C108.92 151.001 108.88 151.521 108.72 152.001C108.28 153.241 107.12 154.081 105.84 154.081C104.76 154.081 104.24 155.761 105.56 155.721C108.4 155.721 110.68 153.401 110.68 150.601C110.68 150.521 110.68 150.481 110.68 150.401V139.001C110.68 138.441 110.68 137.881 110.68 137.361C110.68 136.201 110.24 135.081 109.48 134.241C108.52 133.241 107.2 132.641 105.8 132.681H87.5197C84.5597 132.681 81.5996 132.681 78.6796 132.681C76.0396 132.681 73.5597 134.721 73.4397 137.441C73.3997 138.761 73.4397 140.081 73.4397 141.361V150.481C73.3997 151.041 73.4396 151.561 73.5596 152.121C73.9196 153.721 75.1197 155.001 76.6397 155.481C77.2797 155.681 77.9196 155.761 78.5596 155.721H105.6C106.64 155.681 107.16 154.081 105.84 154.081Z" fill="#68BA7F"/>
<path d="M82.9978 147.081C84.7872 147.081 86.2378 145.666 86.2378 143.921C86.2378 142.176 84.7872 140.761 82.9978 140.761C81.2084 140.761 79.7578 142.176 79.7578 143.921C79.7578 145.666 81.2084 147.081 82.9978 147.081Z" fill="white"/>
<path d="M85.439 143.561C85.439 144.081 85.279 144.601 84.959 145.001C84.639 145.441 84.239 145.761 83.759 145.961C83.239 146.161 82.639 146.201 82.079 146.081C81.959 146.081 81.879 146.041 81.759 146.001L81.599 145.921C81.599 145.921 81.359 145.801 81.479 145.881C81.359 145.801 81.279 145.721 81.159 145.681C81.119 145.641 80.999 145.521 81.119 145.641C81.039 145.601 80.999 145.521 80.959 145.441C80.919 145.401 80.759 145.201 80.919 145.401L80.839 145.281C80.799 145.241 80.759 145.161 80.719 145.081C80.639 144.961 80.799 145.281 80.719 145.041L80.639 144.881C80.519 144.641 80.679 145.041 80.599 144.801C80.599 144.761 80.559 144.681 80.559 144.641C80.559 144.601 80.519 144.361 80.519 144.401C80.479 143.881 80.639 143.401 80.879 142.961C81.439 142.041 82.519 141.521 83.599 141.681C83.879 141.721 84.199 141.801 84.439 141.961C84.639 142.081 84.799 142.201 84.959 142.361L85.079 142.481C84.919 142.281 85.119 142.521 85.119 142.561C85.119 142.601 85.199 142.681 85.239 142.761C85.119 142.561 85.239 142.801 85.279 142.841C85.319 142.881 85.399 143.121 85.319 142.921C85.359 143.001 85.359 143.081 85.359 143.161C85.359 143.201 85.399 143.281 85.399 143.321C85.399 143.361 85.399 143.441 85.399 143.361C85.439 143.441 85.439 143.481 85.439 143.561C85.439 144.081 85.759 144.521 86.199 144.761C86.439 144.921 86.799 144.801 86.919 144.561C86.959 144.481 86.999 144.361 86.999 144.241C86.959 142.441 85.879 140.841 84.239 140.121C82.719 139.481 80.959 139.921 79.879 141.121C78.719 142.441 78.799 144.361 79.639 145.841C80.519 147.361 82.199 148.161 83.919 147.921C85.719 147.601 86.999 146.041 86.999 144.241C86.999 143.721 86.679 143.281 86.239 143.041C85.999 142.881 85.639 142.961 85.519 143.241C85.439 143.321 85.439 143.441 85.439 143.561Z" fill="#68BA7F"/>
<path d="M154.958 178.44C167.771 178.44 178.158 168.053 178.158 155.24C178.158 142.427 167.771 132.04 154.958 132.04C142.145 132.04 131.758 142.427 131.758 155.24C131.758 168.053 142.145 178.44 154.958 178.44Z" fill="white"/>
<path d="M152.397 177.8C147.877 177.32 143.597 175.4 140.237 172.36C136.837 169.32 134.437 165.28 133.357 160.88C132.237 156.24 132.557 151.32 134.357 146.88C136.077 142.6 139.037 138.96 142.837 136.4C146.637 133.84 151.157 132.48 155.717 132.6C160.317 132.72 164.757 134.28 168.437 137.08C172.037 139.88 174.717 143.68 176.117 148.04C179.077 157.2 176.037 167.2 168.477 173.16C164.877 176 160.477 177.64 155.917 177.92C154.717 177.92 153.557 177.92 152.397 177.8C152.117 177.76 151.517 177.84 151.597 178.28C151.677 178.72 152.397 178.88 152.717 178.92C157.677 179.44 162.677 178.4 167.077 176C178.437 169.68 182.517 155.36 176.197 144C175.117 142.04 173.757 140.28 172.157 138.68C164.797 131.44 153.757 129.48 144.357 133.8C132.557 139.28 127.437 153.28 132.917 165.08C133.837 167.08 135.077 168.96 136.517 170.64C139.797 174.36 144.117 177.04 148.917 178.28C150.157 178.6 151.397 178.84 152.677 178.96C152.997 179 153.557 178.92 153.517 178.48C153.477 178.04 152.757 177.8 152.397 177.8Z" fill="#68BA7F"/>
<path d="M158.997 179.639C171.81 179.639 182.197 169.252 182.197 156.439C182.197 143.626 171.81 133.239 158.997 133.239C146.184 133.239 135.797 143.626 135.797 156.439C135.797 169.252 146.184 179.639 158.997 179.639Z" fill="white"/>
<path d="M156.317 178.68C151.717 178.2 147.397 176.32 143.917 173.24C140.597 170.28 138.277 166.4 137.197 162.08C136.077 157.44 136.477 152.6 138.277 148.2C140.037 143.96 142.997 140.32 146.837 137.8C150.717 135.24 155.277 133.96 159.917 134.08C164.557 134.2 169.077 135.76 172.757 138.6C176.277 141.32 178.917 145.04 180.317 149.28C181.757 153.76 181.757 158.56 180.317 163.04C178.877 167.44 176.157 171.28 172.517 174.08C168.877 176.88 164.477 178.52 159.877 178.8C158.677 178.8 157.517 178.8 156.317 178.68C155.837 178.64 155.757 179.2 155.877 179.52C156.037 180 156.437 180.32 156.957 180.4C169.997 181.72 181.637 172.24 182.957 159.2C183.197 156.92 183.077 154.64 182.677 152.4C180.797 142.4 172.957 134.6 162.997 132.76C150.117 130.4 137.757 138.92 135.397 151.8C134.997 154.08 134.877 156.4 135.157 158.72C136.277 168.8 143.477 177.16 153.277 179.8C154.477 180.12 155.717 180.32 156.997 180.48C157.477 180.52 157.557 179.96 157.437 179.64C157.237 179.08 156.797 178.76 156.317 178.68Z" fill="#68BA7F"/>
<path d="M144.199 134.76C144.719 135.48 145.319 136.12 145.999 136.68L144.199 134.76Z" fill="white"/>
<path d="M143.477 134.279C144.117 135.159 144.877 135.919 145.717 136.639C145.917 136.799 146.117 136.959 146.317 137.079C146.397 137.119 146.477 137.199 146.557 137.239C146.597 137.279 146.677 137.279 146.717 137.319C146.837 137.319 146.717 137.199 146.717 137.159C146.597 136.999 146.437 136.879 146.277 136.759L146.157 136.679C146.077 136.599 146.357 136.839 146.237 136.759L146.197 136.719L145.957 136.479L145.837 136.359L145.597 136.119L145.557 136.079C145.477 135.999 145.637 136.159 145.597 136.119L145.477 135.999L145.277 135.759C145.117 135.599 144.997 135.399 144.877 135.239C144.757 135.079 144.597 134.959 144.437 134.839C144.237 134.679 144.037 134.519 143.837 134.399L143.677 134.279C143.597 134.239 143.517 134.199 143.437 134.159C143.397 134.159 143.477 134.239 143.477 134.279Z" fill="#68BA7F"/>
<path d="M139.559 138.52C140.399 138.96 141.119 139.56 141.679 140.32L139.559 138.52Z" fill="white"/>
<path d="M138.756 139.08C139.316 139.36 139.836 139.76 140.276 140.2L140.196 140.12C140.436 140.36 140.636 140.56 140.796 140.84C140.916 140.96 141.036 141 141.196 140.96C141.436 140.92 141.676 140.84 141.876 140.72C142.076 140.6 142.276 140.48 142.436 140.28C142.516 140.2 142.636 140 142.556 139.88C141.956 139.12 141.196 138.48 140.356 138C140.196 137.96 139.996 137.96 139.836 138C139.596 138.08 139.356 138.16 139.116 138.32C138.916 138.44 138.796 138.6 138.676 138.76C138.636 138.88 138.636 139.04 138.756 139.08Z" fill="#68BA7F"/>
<path d="M138.518 144.319C137.358 144.039 136.198 143.679 135.078 143.279L138.518 144.319Z" fill="white"/>
<path d="M139.236 144.039C138.676 143.879 138.076 143.759 137.556 143.559L137.156 143.439L136.956 143.399L136.836 143.359L135.996 143.079C135.556 142.959 135.076 142.919 134.636 143.039C134.476 143.079 134.276 143.119 134.196 143.239C134.116 143.359 134.196 143.439 134.316 143.479C135.516 143.879 136.716 144.239 137.916 144.559C138.156 144.599 138.396 144.639 138.636 144.599C138.876 144.599 139.116 144.559 139.356 144.479C139.436 144.439 139.636 144.359 139.636 144.239C139.636 144.119 139.316 144.079 139.236 144.039Z" fill="#68BA7F"/>
<path d="M136.318 150.56C135.078 150.48 133.838 150.32 132.598 150.04L136.318 150.56Z" fill="white"/>
<path d="M136.039 149.679C134.799 149.599 133.559 149.399 132.319 149.159C132.159 149.119 131.959 149.239 131.879 149.359C131.799 149.559 131.799 149.759 131.839 149.959C131.959 150.439 132.359 150.799 132.839 150.919C134.079 151.159 135.319 151.319 136.559 151.439C136.999 151.479 137.159 150.999 137.039 150.639C136.919 150.159 136.559 149.799 136.039 149.679Z" fill="#68BA7F"/>
<path d="M135.518 156.399C134.358 156.319 133.238 156.279 132.078 156.319L135.518 156.399Z" fill="white"/>
<path d="M134.918 155.76C133.718 155.68 132.558 155.64 131.358 155.68C131.198 155.68 131.238 155.88 131.278 155.96C131.358 156.16 131.478 156.32 131.638 156.44C131.918 156.76 132.318 156.96 132.758 157C133.878 156.96 134.958 157 136.078 157.08C136.518 157.12 136.238 156.68 136.078 156.52C135.918 156.32 135.718 156.16 135.478 156.04C135.318 155.88 135.118 155.8 134.918 155.76Z" fill="#68BA7F"/>
<path d="M136.32 162.76C135.44 163.16 134.48 163.4 133.52 163.52L136.32 162.76Z" fill="white"/>
<path d="M135.839 161.879C134.959 162.279 133.999 162.519 133.039 162.639C132.879 162.639 132.759 162.839 132.719 162.999C132.719 163.239 132.759 163.439 132.879 163.639C133.079 164.079 133.479 164.359 133.959 164.359C134.919 164.239 135.879 163.999 136.759 163.599C136.919 163.559 137.039 163.399 137.079 163.239C137.079 162.999 137.039 162.799 136.919 162.599C136.799 162.359 136.639 162.159 136.399 162.039C136.239 161.959 135.999 161.799 135.839 161.879Z" fill="#68BA7F"/>
<path d="M138.56 168.239C137.84 168.279 137.16 168.479 136.52 168.799L138.56 168.239Z" fill="white"/>
<path d="M138.239 167.6C137.399 167.68 136.559 167.88 135.799 168.24C135.639 168.32 135.559 168.48 135.559 168.64C135.599 168.84 135.719 169 135.879 169.12C136.079 169.28 136.319 169.36 136.599 169.4C136.799 169.44 137.039 169.4 137.239 169.32C137.439 169.24 137.639 169.12 137.839 169.08L137.639 169.16C138.039 169.04 138.439 168.92 138.879 168.88L138.679 168.92H138.879C139.079 168.92 139.279 168.84 139.439 168.72C139.559 168.6 139.559 168.4 139.479 168.28C139.359 168.08 139.199 167.92 138.999 167.84C138.759 167.68 138.519 167.6 138.239 167.6Z" fill="#68BA7F"/>
<path d="M165.197 152.16C165.957 150.56 166.597 148.44 165.157 147.04C164.317 146.28 163.157 145.92 161.997 146.12C160.957 146.28 159.997 146.8 159.237 147.52C158.517 148.2 157.997 149.04 157.677 149.96C156.797 152.56 157.797 155.52 157.397 158.24C156.957 161.28 154.837 163.76 152.797 166.08L159.597 168.4" fill="white"/>
<path d="M166.196 152.2C166.996 150.48 167.636 148.2 165.916 146.8C164.196 145.4 161.196 145.48 159.356 146.64C157.396 147.84 156.436 149.96 156.356 152.2C156.276 154.64 156.876 157.12 156.156 159.52C155.396 162.04 153.556 164.08 151.876 166.04C151.716 166.2 152.036 166.28 152.116 166.32L158.916 168.64C159.396 168.76 159.876 168.76 160.316 168.64C160.676 168.52 160.676 168.36 160.316 168.24L153.516 165.92L153.756 166.2C155.116 164.64 156.516 163.04 157.436 161.2C157.876 160.32 158.196 159.4 158.356 158.44C158.516 157.32 158.516 156.2 158.396 155.08C158.236 152.96 158.036 150.68 159.236 148.76C159.756 147.88 160.516 147.16 161.436 146.72C162.116 146.32 162.996 146.32 163.636 146.76C165.636 147.96 164.876 150.44 164.116 152.16C164.116 152.32 165.956 152.72 166.196 152.2Z" fill="#68BA7F"/>
<path d="M152.52 156.96C156.08 157.92 159.56 159.04 163 160.4L152.52 156.96Z" fill="white"/>
<path d="M152.758 157.719C156.238 158.639 159.679 159.759 163.039 161.079C163.359 161.199 163.799 161.239 163.799 160.759C163.719 160.279 163.358 159.879 162.918 159.679C159.438 158.319 155.839 157.119 152.239 156.159C151.839 156.039 151.598 156.359 151.718 156.719C151.918 157.239 152.278 157.599 152.758 157.719Z" fill="#68BA7F"/>
<path d="M145.399 168.439H105.719V179.119H145.399V168.439Z" fill="white"/>
<path d="M145.718 178.639H107.638C107.118 178.599 106.598 178.599 106.078 178.639H105.998L106.318 178.839V168.159L105.318 168.919H143.398C143.918 168.959 144.438 168.959 144.958 168.919H145.038L144.718 168.719V179.399C144.718 179.919 146.078 179.319 146.078 178.839V168.159C146.078 167.959 145.878 167.959 145.758 167.959H110.998C109.398 167.959 107.758 167.879 106.158 167.959H106.078C105.758 167.959 105.078 168.319 105.078 168.719V179.399C105.078 179.599 105.278 179.599 105.398 179.599H140.158C141.758 179.599 143.398 179.679 144.998 179.599H145.078C145.438 179.559 145.798 179.399 145.998 179.079C146.158 178.839 146.038 178.639 145.718 178.639Z" fill="#68BA7F"/>
<path d="M112.238 169.48V177.88C112.238 178.64 113.678 178.28 113.678 177.56V169.16C113.678 168.4 112.238 168.76 112.238 169.48Z" fill="#68BA7F"/>
<path d="M120.359 168.6V178.08C120.359 178.8 121.439 179.36 121.439 178.4V168.92C121.439 168.24 120.359 167.64 120.359 168.6Z" fill="#68BA7F"/>
<path d="M128.637 168.52V177.8C128.637 178.68 130.117 178.36 130.117 177.56V168.28C130.117 167.4 128.637 167.72 128.637 168.52Z" fill="#68BA7F"/>
<path d="M135.918 169.399V178.159C135.918 178.439 137.398 178.359 137.398 177.999V169.239C137.438 168.919 135.918 169.039 135.918 169.399Z" fill="#68BA7F"/>
<path d="M148.879 157.239H109.199V167.919H148.879V157.239Z" fill="white"/>
<path d="M149.198 167.439H111.158C110.638 167.399 110.118 167.399 109.598 167.439H109.518L109.838 167.639V156.959L108.838 157.719H146.918C147.438 157.759 147.958 157.759 148.478 157.719H148.558L148.238 157.519V168.199C148.238 168.719 149.598 168.159 149.598 167.639V156.959C149.598 156.759 149.398 156.759 149.278 156.759H114.518C112.918 156.759 111.278 156.679 109.678 156.759H109.598C109.278 156.759 108.598 157.119 108.598 157.519V168.199C108.598 168.399 108.798 168.399 108.918 168.399H143.598C145.198 168.399 146.838 168.479 148.438 168.399H148.518C148.878 168.359 149.238 168.159 149.438 167.879C149.598 167.599 149.518 167.439 149.198 167.439Z" fill="#68BA7F"/>
<path d="M115.719 158.239V166.639C115.719 167.399 117.159 167.039 117.159 166.319V157.919C117.159 157.159 115.719 157.519 115.719 158.239Z" fill="#68BA7F"/>
<path d="M123.84 157.399V166.879C123.84 167.559 124.92 168.159 124.92 167.199V157.719C124.96 156.999 123.84 156.399 123.84 157.399Z" fill="#68BA7F"/>
<path d="M132.117 157.32V166.6C132.117 167.48 133.597 167.16 133.597 166.36V157.08C133.597 156.2 132.117 156.48 132.117 157.32Z" fill="#68BA7F"/>
<path d="M139.398 158.159V166.919C139.398 167.199 140.878 167.119 140.878 166.759V157.999C140.878 157.719 139.398 157.799 139.398 158.159Z" fill="#68BA7F"/>
<path d="M141.878 138.641C141.558 138.681 135.918 128.481 135.918 128.481L142.878 119.521L146.638 125.441C146.638 125.441 152.958 124.681 156.998 124.441C161.038 124.201 161.518 125.921 161.518 125.921L148.398 135.001C148.398 135.001 143.758 138.401 141.878 138.641Z" fill="white"/>
<path d="M141.479 137.76C141.559 137.8 141.599 137.84 141.679 137.88C141.639 137.84 141.839 138.08 141.759 137.96C141.679 137.84 141.879 138.16 141.799 138.04C141.759 138 141.719 137.92 141.679 137.88L141.479 137.56C141.439 137.48 141.399 137.44 141.359 137.36C141.319 137.28 141.159 137.08 141.239 137.2C141.319 137.32 141.159 137.08 141.159 137.04L140.999 136.76C140.879 136.56 140.759 136.36 140.639 136.16C140.359 135.72 140.119 135.28 139.839 134.8C138.839 133.04 137.839 131.32 136.839 129.56L136.159 128.36L136.399 129.32L142.479 121.48L143.359 120.36L142.679 119.96L146.439 125.88C146.559 126.08 146.799 126.4 147.079 126.36C147.479 126.32 148.159 126.24 148.679 126.16C149.959 126 151.239 125.88 152.519 125.76C153.919 125.6 155.359 125.48 156.799 125.4C158.039 125.32 159.439 125.2 160.599 125.72C160.759 125.8 160.959 125.88 161.119 126C161.159 126 161.239 126.08 161.119 126C161.079 126 161.199 126.08 161.239 126.08C161.159 125.96 161.399 126.2 161.239 126.08C161.319 126.2 161.119 125.88 161.239 126.04C161.159 125.96 161.119 125.84 161.039 125.72C161.119 125.88 160.959 125.48 160.999 125.6V125.04L153.879 130C151.759 131.48 149.679 132.92 147.559 134.4C146.599 135.08 145.639 135.72 144.639 136.32C143.639 136.92 142.559 137.6 141.439 137.76C141.159 137.8 141.839 139.6 142.399 139.52C143.399 139.36 144.359 138.8 145.199 138.32C146.199 137.76 147.119 137.12 148.079 136.52C148.679 136.12 149.319 135.68 149.919 135.24L159.239 128.8L162.079 126.84C162.239 126.72 162.119 126.4 162.079 126.28C161.559 124.4 159.599 123.68 157.839 123.6C156.239 123.6 154.639 123.72 153.039 123.92C151.559 124.04 150.079 124.2 148.599 124.36C147.799 124.44 146.999 124.56 146.199 124.64L146.839 125.12L143.079 119.2C142.959 119.04 142.599 118.52 142.399 118.8L136.319 126.64L135.439 127.76C135.279 127.96 135.599 128.56 135.679 128.72C137.399 131.84 139.119 135 141.039 138.04C141.239 138.32 141.399 138.64 141.599 138.88C141.759 139.08 142.039 139.6 142.359 139.6C142.719 139.56 142.039 137.8 141.479 137.76Z" fill="#000005"/>
<path d="M92.5586 99.52C94.5986 100.52 135.879 132.72 135.879 132.72L149.439 120.88L106.799 90.04L92.5586 99.52Z" fill="#000005"/>
<path d="M135.919 132.88C135.879 132.88 135.839 132.88 135.799 132.84C135.399 132.52 94.4794 100.68 92.4794 99.6796C92.3994 99.6396 92.3594 99.5996 92.3594 99.5196C92.3594 99.4396 92.3994 99.3596 92.4394 99.3596L106.639 89.8796C106.719 89.8396 106.799 89.8396 106.879 89.8796L149.519 120.68C149.559 120.72 149.599 120.76 149.599 120.84C149.599 120.92 149.559 120.96 149.519 121L135.959 132.88C135.999 132.88 135.959 132.88 135.919 132.88ZM92.9594 99.5196C96.9594 102.16 132.999 130.2 135.919 132.44L149.159 120.88L106.799 90.2796L92.9594 99.5196Z" fill="#000005"/>
<path d="M112.957 155.72C112.677 155.56 113.757 143.96 113.757 143.96L124.557 140.48L124.357 147.48C124.357 147.48 129.997 150.44 133.477 152.48C136.957 154.52 136.357 156.24 136.357 156.24L120.357 156.4C120.397 156.4 114.637 156.56 112.957 155.72Z" fill="white"/>
<path d="M112.679 154.88L113.479 156.16V156.12C113.519 156.16 113.479 156.28 113.479 156.16C113.479 156.04 113.479 155.92 113.479 155.8C113.479 155.48 113.479 155.16 113.519 154.84C113.559 153.88 113.639 152.96 113.719 152.04C113.879 150.04 114.039 148 114.239 146C114.279 145.56 114.319 145.08 114.359 144.64L114.279 144.84L123.719 141.8L125.079 141.36L123.999 139.8L123.799 146.8C123.839 147.4 124.159 147.96 124.639 148.32C126.119 149.08 127.559 149.88 129.039 150.68C130.239 151.36 131.479 152 132.679 152.72C133.719 153.32 135.079 154.04 135.759 154.92C135.799 154.96 135.839 155.04 135.879 155.08C135.839 155 135.839 155 135.879 155.08C135.799 154.84 135.919 155.28 135.879 155.04C135.919 155.24 135.879 154.96 135.879 155.12C135.879 155.28 135.879 155.04 135.879 155.2C135.879 155.28 135.879 155.44 135.879 155.4C135.879 155.36 135.879 155.4 135.879 155.44L136.039 155.36L127.279 155.44L119.599 155.52C118.439 155.52 117.319 155.52 116.159 155.44C114.999 155.36 113.759 155.36 112.679 154.88C112.319 154.68 112.439 155.2 112.479 155.4C112.599 155.84 112.879 156.24 113.239 156.56C114.199 156.96 115.199 157.16 116.199 157.16C117.319 157.24 118.479 157.28 119.599 157.28C120.359 157.28 121.159 157.28 121.919 157.24L133.279 157.12L136.759 157.08C136.839 157.08 136.879 157.08 136.919 157C137.039 156.44 136.959 155.88 136.719 155.4C136.159 154.04 135.199 152.92 133.959 152.12C132.639 151.28 131.279 150.48 129.879 149.76C128.599 149.04 127.319 148.36 126.039 147.68C125.359 147.32 124.679 146.96 124.039 146.6L124.879 148.12L125.079 141.12C125.079 140.76 124.519 139.4 124.039 139.56L114.599 142.6L113.239 143.04C113.199 143.08 113.159 143.16 113.159 143.24C112.839 146.8 112.439 150.36 112.319 153.88C112.279 154.84 112.319 155.84 113.199 156.48C113.559 156.76 113.479 156.08 113.399 155.96C113.359 155.56 113.079 155.16 112.679 154.88Z" fill="#000005"/>
<path d="M77.8365 94.8C77.8365 94.8 77.1165 105.8 80.3965 108C83.6765 110.2 108.317 113.88 108.317 113.88L109.437 145.08L127.797 146.56C127.797 146.56 131.117 109.44 127.797 103.04C124.477 96.64 107.197 92.96 107.197 92.96L77.8365 94.8Z" fill="#000005"/>
<path d="M127.796 146.8L109.436 145.32C109.316 145.32 109.276 145.24 109.236 145.12L108.156 114.08C105.836 113.72 83.5162 110.32 80.3162 108.2C76.9562 105.96 77.6362 95.2398 77.6762 94.7998C77.6762 94.6798 77.7562 94.5998 77.8762 94.5998L107.236 92.7598H107.276C110.356 93.4398 113.396 94.3598 116.356 95.3998C122.676 97.7198 126.596 100.24 127.996 102.96C129.396 105.68 129.796 113.8 129.236 127.24C128.836 137.2 128.036 146.52 128.036 146.6C127.996 146.72 127.916 146.8 127.796 146.8ZM109.596 144.92L127.596 146.36C127.836 143.44 130.716 109.2 127.596 103.12C124.436 96.9598 107.956 93.3198 107.196 93.1598L78.0362 94.9998C77.9562 96.3998 77.5962 105.88 80.5162 107.88C83.7562 110.04 108.116 113.68 108.356 113.72C108.436 113.72 108.516 113.8 108.516 113.92L109.596 144.92Z" fill="#000005"/>
<path d="M121.957 50.4403C121.957 50.4403 118.037 48.8803 116.757 49.5603C115.477 50.2403 110.277 60.3203 110.277 60.3203L117.477 60.5203L121.957 50.4403Z" fill="white"/>
<path d="M122.317 50.1598C120.997 49.5998 119.637 49.2398 118.197 48.9998C117.437 48.8798 116.477 48.7598 115.797 49.1998C115.477 49.3998 115.237 49.6798 115.037 49.9998C113.277 52.3598 111.917 55.0798 110.517 57.6798C110.117 58.4398 109.717 59.2398 109.317 59.9998C109.077 60.4398 110.437 60.7598 110.677 60.7598L117.877 60.9598C118.077 60.9598 118.357 60.9598 118.437 60.7598L122.357 51.9598L122.917 50.7198C123.117 50.2398 121.237 49.5998 120.997 50.1598L117.077 58.9598L116.517 60.1998L117.077 59.9998L109.877 59.7998L111.237 60.5598C112.197 58.7198 113.157 56.9198 114.157 55.1198C114.877 53.8798 115.597 52.5998 116.397 51.3998C116.637 50.9998 116.957 50.5998 117.237 50.2398C117.437 49.9598 117.757 49.7998 118.117 49.8398C118.877 49.8798 119.637 50.0398 120.357 50.2798L120.917 50.4398L121.117 50.5198C121.357 50.5998 120.997 50.4798 121.197 50.5598L121.637 50.7198C121.917 50.8398 122.637 51.0798 122.877 50.7998C123.117 50.5198 122.517 50.2398 122.317 50.1598Z" fill="#000005"/>
<path d="M129.438 36.0804L126.238 35.4004L113.918 58.8804L116.838 59.1204L129.438 36.0804Z" fill="#68BA7F"/>
<path d="M129.599 35.2396L126.399 34.5596C125.999 34.4396 125.599 34.5596 125.359 34.9196L121.199 42.8796L114.559 55.5196L112.999 58.4396C112.639 59.0797 113.359 59.7196 113.959 59.7996L116.879 60.0396C117.199 60.0797 117.479 59.9197 117.639 59.6397L121.879 51.8796L128.679 39.4796L130.239 36.5996C130.759 35.6396 128.999 34.6796 128.479 35.6396L124.239 43.4396L117.439 55.8397L115.879 58.7196L116.679 58.3196L113.759 58.0796L114.719 59.4396L118.879 51.4796L125.599 38.7996L127.119 35.8796L126.079 36.2396L129.279 36.9196C129.719 36.9996 130.279 36.8796 130.399 36.3596C130.479 35.8396 130.119 35.3596 129.599 35.2396Z" fill="#68BA7F"/>
<path d="M111.2 58.72C110.6 58.92 102.52 73.12 102.52 73.12L108.04 98.24L118.32 64.16C119.4 63.24 121.88 60.28 124 56.76C124.44 56 127.2 47.48 126.88 44C126.56 40.52 124.28 46.64 124.28 46.64C124.28 46.64 123.32 41.8 121.88 43.8C121.56 44.24 121.08 51.32 121.08 51.32C121.08 51.32 117.84 49.96 117.2 50.48C116.56 51 119.72 54.32 119.72 54.32C119.72 54.32 117.32 59.04 116.92 59.12" fill="white"/>
<path d="M110.838 58.0403C110.478 58.2803 110.158 58.6003 109.958 59.0003C109.598 59.5603 109.238 60.1203 108.878 60.6403C107.838 62.3203 106.838 64.0003 105.838 65.7203C104.838 67.4403 103.878 69.0403 102.918 70.7203C102.438 71.4403 101.998 72.2003 101.638 72.9603C101.558 73.2403 101.558 73.5203 101.678 73.7603L101.958 75.0003L102.918 79.3203L105.478 91.0003C105.998 93.4403 106.478 95.9203 107.078 98.3603C107.078 98.4003 107.118 98.4403 107.118 98.4803C107.318 99.3603 108.718 98.9603 108.918 98.2803L109.918 94.9203L112.398 86.8003L115.358 76.9603L117.918 68.4403L118.758 65.6403C118.918 65.2003 119.038 64.7603 119.158 64.3203C119.158 64.2803 119.158 64.2803 119.158 64.2803L118.878 64.6803C119.718 63.9203 120.518 63.0403 121.198 62.1203C122.278 60.7603 123.278 59.3603 124.198 57.8803C124.638 57.2403 124.998 56.5203 125.238 55.7603C125.558 54.8003 125.878 53.8003 126.158 52.8403C126.878 50.5203 127.398 48.1203 127.678 45.7203C127.758 44.8003 127.878 43.7603 127.558 42.8403C127.198 41.8403 126.118 41.9203 125.438 42.5603C124.758 43.2003 124.358 44.0803 123.998 44.9203C123.758 45.4403 123.558 45.9603 123.358 46.4803L125.158 46.2803C124.838 44.8003 123.998 41.4803 121.838 42.6803C120.878 43.2403 120.758 44.1603 120.638 45.1603C120.478 46.3603 120.398 47.6003 120.278 48.8003C120.198 49.6403 120.158 50.4803 120.078 51.3203L121.598 50.4803C121.038 50.2403 120.518 50.0803 119.958 49.8803C119.118 49.6003 118.078 49.2803 117.238 49.5603C114.958 50.2803 116.918 52.5203 117.758 53.5203C118.158 53.9603 118.518 54.4403 118.958 54.8403L118.838 54.0803C118.478 54.8003 118.078 55.5603 117.678 56.2803C117.518 56.5603 117.398 56.8003 117.238 57.0803L116.998 57.5203L116.918 57.6803C116.758 57.9203 116.958 57.6003 116.878 57.7603C116.758 57.9603 116.638 58.1603 116.478 58.3603C116.438 58.4403 116.358 58.5203 116.318 58.5603C116.278 58.6803 116.398 58.4803 116.398 58.4803C116.398 58.4803 116.718 58.3203 116.758 58.2803C116.358 58.4403 115.878 58.8403 115.958 59.3203C116.038 59.8003 116.598 59.9203 116.998 59.7603C117.518 59.5603 117.918 59.1603 118.158 58.6403C118.518 58.0403 118.878 57.4403 119.198 56.8403C119.678 56.0003 120.118 55.1603 120.558 54.2803C120.678 54.0403 120.638 53.7203 120.438 53.5203C120.078 53.1203 119.678 52.7203 119.358 52.2803C119.118 51.9603 118.838 51.6403 118.598 51.2803C118.398 51.0003 118.238 50.7203 118.078 50.4003C118.118 50.5203 118.038 50.3203 118.038 50.2803C118.078 50.1603 117.998 50.4403 117.998 50.4803C117.878 50.7203 117.678 50.8803 117.438 50.9603C117.518 50.9203 117.518 50.9203 117.358 50.9603C117.398 50.9603 117.598 50.9603 117.398 50.9603C117.798 51.0003 118.238 51.0803 118.598 51.2003C119.238 51.4003 119.838 51.6003 120.438 51.8403C120.998 52.0803 121.878 51.6403 121.958 51.0003C122.078 49.3603 122.198 47.6803 122.358 46.0403C122.398 45.5603 122.478 45.0403 122.518 44.5603C122.558 44.4003 122.558 44.2003 122.598 44.0403C122.598 43.9603 122.638 43.9203 122.638 43.8403C122.638 43.7603 122.638 43.7603 122.638 43.7603C122.638 43.7603 122.598 43.8003 122.598 43.8403C122.558 44.0003 122.558 43.8803 122.638 43.8003C122.518 43.8403 122.718 43.7203 122.638 43.8003C122.758 43.7603 122.478 43.8803 122.598 43.8403C122.718 43.8003 122.438 43.8803 122.398 43.9203C122.358 43.9603 122.118 43.9203 122.198 43.9203C122.278 43.9203 122.238 43.9203 122.118 43.8803L122.158 43.9203C122.158 43.9603 122.038 43.8003 122.118 43.9203C122.158 43.9603 122.198 43.9603 122.198 44.0003C122.358 44.1603 122.198 44.0003 122.278 44.0803C122.398 44.2803 122.518 44.4803 122.598 44.6803C122.878 45.3603 123.118 46.0403 123.238 46.7603C123.438 47.6803 124.798 47.2003 125.038 46.5603C125.278 45.9203 125.558 45.2403 125.878 44.6003C125.998 44.3603 126.118 44.1203 126.238 43.9203C126.358 43.7203 126.198 43.9603 126.358 43.7603L126.558 43.4803C126.598 43.4403 126.638 43.4003 126.678 43.3603C126.718 43.3203 126.478 43.5203 126.598 43.4403C126.718 43.3603 126.398 43.5203 126.358 43.5603C126.158 43.6003 125.958 43.6003 125.758 43.5203C125.638 43.4803 125.718 43.4003 125.758 43.6003C125.718 43.4003 125.798 43.7603 125.798 43.8003C125.838 43.9603 125.838 44.1203 125.838 44.2403C125.838 44.5203 125.838 44.7603 125.838 45.0403C125.798 45.7603 125.718 46.4803 125.598 47.1603C125.318 48.7603 124.958 50.3603 124.518 51.9603C124.198 53.2003 123.798 54.4403 123.398 55.6403C122.918 57.0003 122.038 58.1203 121.198 59.3203C120.238 60.7603 119.118 62.1203 117.878 63.3603C117.558 63.6003 117.358 63.9603 117.238 64.3203L114.278 74.1603L109.798 89.0003L108.038 94.8803C107.718 95.8803 107.358 96.8803 107.118 97.8803C107.118 97.9203 107.078 97.9603 107.078 98.0403L108.878 97.8403L107.038 89.3603L104.078 75.8403L103.398 72.7203L103.318 73.1203C105.678 68.9603 108.038 64.8403 110.518 60.8403C110.798 60.4003 111.078 59.9603 111.358 59.5203C111.438 59.4003 111.558 59.2403 111.638 59.1203C111.718 59.0003 111.878 58.8803 111.598 59.1603C111.758 59.0403 111.358 59.2803 111.438 59.2403C111.838 59.0803 112.158 58.5203 111.958 58.0803C111.718 57.6003 111.118 57.7603 110.718 57.9203L110.838 58.0403Z" fill="#000005"/>
<path d="M122.958 45.3596C123.158 46.3596 123.278 47.3996 123.358 48.3996C123.558 50.0796 123.718 51.8396 123.438 53.4796C123.318 54.1196 125.078 54.9996 125.238 54.2396C125.518 52.5596 125.358 50.7996 125.158 49.1596C125.038 48.1596 124.918 47.1196 124.758 46.1196C124.638 45.6796 124.318 45.3596 123.878 45.1996C123.718 45.1596 122.878 44.9596 122.958 45.3596Z" fill="#000005"/>
<path d="M121.518 52.16C121.638 52.16 121.718 52.2 121.838 52.24C121.878 52.24 121.958 52.28 121.998 52.28H122.038C121.958 52.24 122.078 52.28 122.078 52.28C122.198 52.32 122.358 52.4 122.478 52.48C122.558 52.52 122.638 52.56 122.718 52.6L122.838 52.68C122.718 52.6 122.918 52.72 122.838 52.68C122.918 52.72 122.998 52.8 123.038 52.84L123.078 52.88C123.158 52.96 122.998 52.8 122.998 52.8C122.998 52.8 123.078 52.88 123.118 52.92C123.158 52.96 123.278 53.08 123.158 52.96C123.038 52.84 123.158 53 123.198 53C123.318 53.16 123.078 52.8 123.158 52.92C123.238 53.04 123.318 53.24 123.158 52.92C123.198 52.96 123.198 53 123.238 53.08C123.318 53.2 123.158 52.88 123.238 53.04C123.278 53.08 123.278 53.16 123.318 53.2C123.358 53.24 123.278 53.04 123.278 53.16L123.318 53.28C123.358 53.36 123.358 53.44 123.398 53.48C123.438 53.52 123.438 53.6 123.398 53.52V53.6C123.438 53.76 123.438 53.92 123.478 54.08C123.518 54.48 123.518 54.88 123.438 55.24C123.398 55.64 123.718 56.08 123.958 56.36C123.998 56.44 124.638 57.04 124.678 56.72C124.918 55.08 124.438 53.44 123.358 52.24C122.718 51.44 121.878 50.88 120.918 50.56C120.758 50.52 120.598 50.48 120.438 50.44C120.078 50.4 120.478 51.16 120.518 51.24C120.638 51.48 120.798 51.68 120.998 51.84C121.118 51.96 121.238 52.08 121.398 52.12L121.518 52.16Z" fill="#000005"/>
<path d="M112.558 38.6403C113.358 39.2403 114.118 39.9203 114.758 40.7203L114.678 40.6003C114.918 40.9203 115.158 41.2403 115.358 41.5603C115.598 41.9203 116.198 42.0003 116.558 41.9603C116.758 41.9603 116.998 41.8803 117.158 41.7603C117.238 41.6803 117.358 41.5203 117.278 41.4003C116.478 40.1603 115.478 39.1203 114.278 38.2403C113.878 37.9603 113.398 37.8803 112.918 38.0003C112.758 38.0403 112.518 38.1203 112.438 38.2803C112.358 38.4403 112.398 38.6003 112.558 38.6403Z" fill="#68BA7F"/>
<path d="M111.916 43.8403C112.556 43.9203 113.196 44.0803 113.836 44.2403L114.036 44.3203H113.996L114.116 44.3603L114.596 44.5203C114.916 44.6403 115.196 44.7603 115.516 44.9203C115.836 45.0803 116.476 45.0803 116.556 44.6003C116.636 44.1203 116.196 43.7203 115.796 43.5203C114.516 42.9203 113.116 42.4803 111.716 42.2803C111.516 42.2403 111.276 42.2803 111.116 42.3603C110.956 42.4803 110.876 42.6803 110.916 42.8403C110.996 43.3603 111.396 43.7203 111.916 43.8403Z" fill="#68BA7F"/>
<path d="M69.7965 89.7198C69.7965 89.7198 67.3965 51.1998 85.1165 50.9998C102.837 50.7998 109.677 89.9598 109.437 90.8798C109.197 91.7998 85.9165 101.6 69.7965 89.7198Z" fill="white"/>
<path d="M70.7994 89.6403C70.6794 87.5603 70.6794 85.4803 70.7194 83.4403C70.7594 78.9603 71.1594 74.5203 71.8794 70.0803C72.2794 67.6403 72.8794 65.2403 73.6394 62.9203C74.3194 60.8003 75.2794 58.7603 76.5194 56.8803C77.5594 55.2803 78.9594 53.9203 80.6394 52.9603C80.8394 52.8403 81.0794 52.7203 81.2794 52.6403C81.4794 52.5603 81.1994 52.6803 81.4394 52.5603L81.8394 52.4003C82.3194 52.2403 82.8394 52.0803 83.3194 52.0003C83.3594 52.0003 83.5194 51.9603 83.2794 52.0003L83.4794 51.9603C83.5994 51.9203 83.7194 51.9203 83.8794 51.9203C84.1594 51.8803 84.4394 51.8803 84.7194 51.8403C84.9994 51.8003 85.2394 51.8403 85.5194 51.8403H85.7194C85.4794 51.8403 85.6794 51.8403 85.7194 51.8403C85.8794 51.8403 85.9994 51.8403 86.1594 51.8803C86.6794 51.9203 87.1994 52.0403 87.7194 52.1603L88.1194 52.2403C87.8794 52.1603 88.2794 52.2803 88.3194 52.3203C88.5994 52.4003 88.8394 52.4803 89.1194 52.6003C89.6394 52.8003 90.1194 53.0403 90.5994 53.2803L90.7594 53.3603H90.7994L91.1194 53.5603C91.3594 53.7203 91.6394 53.8803 91.8794 54.0403C92.7594 54.6403 93.5994 55.3603 94.3594 56.1203C95.1994 56.9603 95.9994 57.8803 96.7194 58.8803C99.8394 63.0003 101.999 67.8003 103.799 72.7203C104.679 75.0803 105.439 77.4803 106.119 79.9203C106.399 81.0003 106.719 82.0403 106.959 83.1203C107.079 83.6003 107.199 84.0803 107.319 84.6003C107.359 84.7203 107.359 84.8403 107.399 84.9603L107.439 85.1603C107.479 85.4003 107.519 85.6003 107.599 85.8403C107.879 87.1603 108.159 88.5203 108.359 89.8803C108.399 90.2003 108.439 90.5203 108.479 90.8803C108.519 91.2403 108.519 90.7603 108.559 90.6403C108.519 90.6803 108.759 90.4003 108.599 90.5603C108.439 90.7203 108.799 90.4403 108.679 90.4803C108.639 90.5203 108.599 90.5203 108.559 90.5603C108.359 90.6803 108.119 90.8003 107.919 90.9203L107.479 91.1203L107.279 91.2003H107.199C106.999 91.2803 107.399 91.1203 107.199 91.2003C106.279 91.5603 105.359 91.9203 104.439 92.2403C101.839 93.0803 99.1594 93.7203 96.4794 94.1603C89.4394 95.2403 81.9994 94.9203 75.3994 91.9603C73.6794 91.1603 72.0394 90.2003 70.5194 89.0803C69.6394 88.4403 68.1594 89.6003 69.1994 90.3603C75.6394 95.0803 83.6794 96.7203 91.5194 96.3603C97.1594 96.1203 102.719 94.9203 107.959 92.7603C108.799 92.4003 110.559 91.8803 110.519 90.7603C110.479 89.8803 110.359 89.0403 110.159 88.2003C109.399 84.0803 108.359 80.0003 107.079 76.0003C105.439 70.8403 103.399 65.7603 100.599 61.0803C98.1194 56.9603 94.7594 52.8803 90.1194 51.0803C85.7994 49.3203 80.8394 50.1203 77.3194 53.2003C73.7994 56.3603 71.9994 61.1203 70.8794 65.6003C69.7194 70.4003 69.0394 75.3203 68.8794 80.2803C68.7194 83.2803 68.7194 86.3203 68.8394 89.3203C68.8394 89.4803 68.8394 89.6003 68.8394 89.7603C68.8794 90.8803 70.8794 90.7603 70.7994 89.6403Z" fill="#000005"/>
<path d="M83.8394 75.5997C83.8394 75.5997 79.0794 100.88 74.4794 105.64C70.9594 109.24 68.1994 115.68 66.5994 116.04C64.9994 116.4 64.9194 114.48 65.5194 113.12C66.1194 111.76 67.7194 109 65.6794 107.8C63.6394 106.6 53.9594 108.52 53.9594 108.52L51.3594 109C51.6794 107.16 53.9994 105.68 53.9994 105.68C51.8794 105.44 54.7994 102.28 59.5994 100.84C64.3994 99.3997 67.9994 98.3997 67.9994 98.3997C67.9994 98.3997 70.3194 69.4397 71.1194 69.3197C71.9194 69.1997 83.5994 73.7997 83.8394 75.5997Z" fill="white"/>
<path d="M82.8381 75.4405C82.2781 78.4005 81.6381 81.3605 80.9581 84.2805C79.7581 89.5205 78.4381 94.7205 76.5181 99.7205C76.1181 100.761 75.6781 101.761 75.1981 102.721C74.9981 103.121 74.7581 103.521 74.5181 103.921C74.3981 104.121 74.5981 103.801 74.4381 104.041L74.2781 104.281C74.1581 104.441 74.0381 104.601 73.9181 104.721C73.5181 105.241 73.0381 105.681 72.5981 106.201C71.9981 106.921 71.4781 107.641 70.9581 108.401C69.9581 109.841 69.0781 111.321 68.1181 112.801C67.7581 113.361 67.3981 113.881 66.9981 114.401C66.8381 114.601 66.6781 114.801 66.4781 114.961C66.3981 115.041 66.2381 115.161 66.3981 115.041C66.3181 115.081 66.2381 115.161 66.1581 115.201C66.0781 115.241 66.3581 115.201 66.1981 115.161H66.1581C65.9581 115.081 66.0381 115.201 66.1181 115.161C66.0381 115.201 65.9981 115.121 66.1581 115.201C66.3181 115.281 66.1581 115.281 66.1981 115.241C66.2381 115.201 66.2781 115.441 66.1981 115.201C66.1581 115.081 66.1181 114.961 66.1181 114.841C66.1181 114.241 66.2781 113.601 66.5581 113.081C67.1981 111.681 67.9581 110.081 67.3981 108.561C66.9581 107.281 65.6781 106.721 64.3981 106.561C61.8381 106.281 59.1581 106.721 56.6381 107.121C55.1181 107.361 53.5981 107.641 52.0381 107.921L50.8781 108.121L52.2381 109.161C52.4781 107.961 53.5981 107.001 54.5181 106.401C55.2381 105.921 54.7581 104.881 53.9981 104.761C53.9181 104.761 53.7181 104.761 53.8781 104.761C53.9581 104.761 54.0381 104.761 53.8781 104.761C53.7981 104.761 53.9981 104.841 53.9981 104.841C53.9181 104.761 54.1981 105.081 54.1581 105.041C54.1581 105.041 54.1981 105.241 54.1981 105.161C54.1981 105.081 54.1981 105.361 54.1981 105.241C54.1981 105.241 54.2381 105.121 54.2781 105.041C54.2781 105.001 54.3181 104.961 54.3581 104.921C54.3581 104.921 54.2781 105.041 54.3181 104.961C54.3581 104.881 54.4781 104.761 54.5581 104.681C55.3581 103.841 56.3181 103.161 57.3581 102.681C58.8781 101.921 60.5581 101.481 62.1981 101.001C63.5981 100.601 64.9981 100.201 66.3981 99.7605L68.3181 99.2005C68.6381 99.1205 68.8381 98.8405 68.8781 98.5205C69.0381 96.7205 69.1581 94.9205 69.3181 93.1605C69.6381 89.4005 69.9581 85.6005 70.3581 81.8405C70.6781 78.5205 70.9981 75.1605 71.4781 71.8405C71.5581 71.3605 71.6381 70.8805 71.7181 70.4005C71.7581 70.2405 71.7981 70.0805 71.8381 69.9205C71.8781 69.7605 71.7581 70.1605 71.8381 69.9605C71.8781 69.9205 71.8781 69.8805 71.8781 69.8005C71.9181 69.6405 71.8381 69.8405 71.7981 69.9205C71.5981 70.0805 71.3981 70.1605 71.1581 70.1605C70.9581 70.1605 71.1581 70.1605 71.2381 70.1605L71.5581 70.2405L71.9181 70.3205L72.1981 70.4005C72.5581 70.5205 72.9181 70.6405 73.2781 70.8005C75.1581 71.4805 76.9981 72.2405 78.7981 73.1205C79.6781 73.5205 80.5181 73.9605 81.3581 74.4805L81.4781 74.5605L81.7181 74.7205C81.8781 74.8005 82.0381 74.9205 82.1581 75.0405C82.2781 75.1605 82.3981 75.2405 82.5581 75.3205C82.5981 75.3605 82.6381 75.4005 82.7181 75.4405C82.5581 75.2805 82.8381 75.5205 82.7181 75.4405C82.7581 75.5205 82.9581 75.7605 82.8781 75.6005C82.7981 75.4405 82.8781 75.6005 82.8781 75.6405C82.9181 75.7605 82.8381 75.4005 82.8381 75.5605C83.0381 76.6405 84.9581 76.6805 84.7581 75.4805C84.6381 74.8005 84.0781 74.3205 83.5981 73.9205C82.8781 73.4005 82.1181 72.9205 81.3581 72.5205C79.4781 71.5605 77.5581 70.7205 75.5581 70.0005C74.7181 69.6805 73.8781 69.3605 73.0381 69.0405C72.4781 68.8405 71.9181 68.6405 71.3181 68.5205C70.1181 68.3605 69.9581 69.3205 69.7581 70.2405C69.1981 73.2405 68.9581 76.2805 68.6381 79.3205C68.2381 83.3205 67.8781 87.2805 67.5181 91.2805C67.3981 92.8005 67.2381 94.3205 67.1181 95.8405C67.0381 96.6005 66.9181 97.4005 66.9181 98.1605C66.9181 98.2005 66.9181 98.2405 66.9181 98.2805L67.4781 97.6005C65.1981 98.2405 62.9181 98.9205 60.6781 99.6005C58.8381 100.081 57.0781 100.761 55.3981 101.641C54.3181 102.281 53.1181 103.081 52.4781 104.201C51.8381 105.321 52.5181 106.481 53.7581 106.641L53.2381 105.001C51.8781 105.881 50.5181 107.241 50.1981 108.881C50.0381 109.641 50.9581 110.041 51.5581 109.921L54.1181 109.441L54.5181 109.361L54.9581 109.281L55.2381 109.241L55.3981 109.201C55.4381 109.201 55.2381 109.241 55.4381 109.201C57.9581 108.721 60.5581 108.441 63.1181 108.361C63.5981 108.321 64.0381 108.361 64.5181 108.481L64.7581 108.521C65.0381 108.561 64.5981 108.441 64.8381 108.561C64.8781 108.561 65.0781 108.681 64.9981 108.641C64.8381 108.561 65.1581 108.801 65.1581 108.761C65.1581 108.721 65.3181 108.961 65.2781 108.921C65.5181 109.281 65.4381 110.041 65.2781 110.561C65.0381 111.241 64.7581 111.921 64.4381 112.561C63.8381 113.881 63.5181 116.041 65.0781 116.841C66.3581 117.481 67.5181 116.681 68.2781 115.721C69.1981 114.481 70.0381 113.201 70.8381 111.881C71.7981 110.321 72.8381 108.841 73.9581 107.441C74.7181 106.641 75.3981 105.761 76.0381 104.881C76.5581 104.041 76.9981 103.161 77.3981 102.241C79.5581 97.2805 80.9181 91.9605 82.1581 86.7205C82.9981 83.2005 83.8781 79.6405 84.4781 76.0405C84.4781 76.0005 84.5181 75.9205 84.5181 75.8805C84.9981 74.6805 83.0781 74.2405 82.8381 75.4405Z" fill="#000005"/>
<path d="M60.6384 103.2C60.6384 103.2 54.6384 105.52 53.3984 106.2L60.6384 103.2Z" fill="white"/>
<path d="M59.8366 102.8C57.8366 103.56 55.8766 104.36 53.9166 105.2C53.4366 105.4 52.9566 105.6 52.5166 105.88C52.1966 106.04 52.9966 106.44 53.0766 106.48C53.3966 106.6 53.9566 106.8 54.3166 106.6C55.2766 106.12 56.2766 105.68 57.2766 105.28C58.3966 104.84 59.5166 104.36 60.6766 103.92L61.4366 103.6C61.8366 103.44 61.4366 103.16 61.1966 103.08C60.8766 102.92 60.2366 102.68 59.8366 102.8Z" fill="#000005"/>
<path d="M96.2779 58.2403C93.0379 60.0003 89.5579 61.1603 85.9179 61.6803C82.9179 62.0803 79.3179 62.3603 76.8379 60.3603C76.4379 60.0803 75.9579 59.9603 75.4779 60.0003C75.0779 60.0803 75.0379 60.3203 75.3579 60.5603C77.6379 62.4403 80.7579 62.9203 83.6379 62.8403C86.7979 62.7603 89.9179 62.2003 92.8779 61.2003C94.5979 60.6003 96.2779 59.8803 97.8779 59.0003C98.2379 58.8003 97.9179 58.5203 97.6779 58.3603C97.3179 58.2403 96.6379 58.0403 96.2779 58.2403Z" fill="#000005"/>
<path d="M101.077 66.1997L97.4369 68.1997C96.3169 68.8397 95.1969 69.5197 93.9969 70.0397C91.7569 71.0397 88.9169 70.9597 86.6369 70.1997C86.3969 70.1197 85.9169 70.3997 85.6769 70.4797C85.4769 70.5597 85.2369 70.6797 85.0369 70.7997C84.9969 70.7997 84.7969 70.9997 84.7969 70.9997C87.7169 71.9197 90.7169 71.6397 93.5169 70.4797C95.0369 69.8397 96.5169 69.0797 97.9569 68.2397L102.477 65.7597C102.757 65.5997 102.717 65.5197 102.397 65.5997C101.957 65.7597 101.517 65.9597 101.077 66.1997Z" fill="#000005"/>
<path d="M83.6378 81.4805C85.1178 81.9605 86.6378 82.0805 88.1578 81.8805C89.6378 81.6405 91.0778 81.2805 92.4778 80.8005C95.4778 79.8805 98.5178 79.1605 101.438 77.9605C103.078 77.2805 104.678 76.4405 106.158 75.4405C106.558 75.1605 106.358 74.6005 106.038 74.3605C105.638 74.0405 105.078 74.0405 104.638 74.3205C102.238 75.9605 99.4778 77.0405 96.7178 77.9205C95.3178 78.3605 93.8778 78.7605 92.4378 79.1605C91.0778 79.5605 89.7578 80.0405 88.3578 80.3205C86.8778 80.6405 85.3978 80.5605 83.9578 80.0805C83.5578 79.9605 82.9178 80.1205 82.7978 80.5605C82.6778 81.0005 83.2378 81.4005 83.6378 81.4805Z" fill="#000005"/>
<path d="M81.6373 89.3604C88.5973 90.8004 95.7973 90.2404 102.317 87.2804C104.197 86.4404 105.957 85.4404 107.677 84.2804C108.237 83.9204 106.997 82.3604 106.397 82.7604C100.597 86.6004 93.9173 88.7604 86.9573 88.4804C84.9173 88.4004 82.9173 88.1204 80.9173 87.7204C80.4773 87.6404 80.5173 88.2004 80.5973 88.4404C80.7973 88.8804 81.1573 89.2004 81.6373 89.3604Z" fill="#000005"/>
<path d="M85.6781 65.8403C84.9981 68.2403 84.1981 70.6403 83.3181 73.0003C83.1581 73.4003 85.0781 74.0403 85.2381 73.6003C86.1181 71.2403 86.8781 68.8403 87.5981 66.4403C87.7181 66.0003 85.7981 65.4003 85.6781 65.8403Z" fill="#000005"/>
<path d="M91.7595 28C91.7595 28 94.9195 31.84 98.4795 31.88C102.04 31.92 108.96 30.8 109.64 34.36C110.32 37.92 105.52 39 102.48 38.36C102.48 38.36 103 47.72 97.4395 50.08C91.8795 52.44 89.4395 51.68 88.9595 55.44C88.9595 55.44 82.5195 54.4 81.5595 51.6C81.1995 50.56 79.0395 38.76 87.5995 34.6C87.5595 34.6 92.4395 32.56 91.7595 28Z" fill="white"/>
<path d="M90.7563 28.1598C91.7163 29.3198 92.9163 30.3198 94.2363 31.0798C95.2763 31.6798 96.4363 32.0398 97.6363 32.1198C98.5963 32.1598 99.5963 32.0798 100.556 32.0398C102.516 31.9598 104.676 31.7998 106.556 32.4798C107.316 32.6798 107.996 33.1998 108.396 33.9198C108.796 34.7598 108.756 35.6798 108.356 36.4798C107.836 37.3198 106.956 37.9598 105.996 38.1598L105.716 38.2398C105.876 38.1998 105.436 38.2798 105.556 38.2798C105.356 38.3198 105.116 38.3198 104.916 38.3198C104.356 38.3198 103.836 38.2798 103.276 38.1598C103.036 38.1198 101.436 38.1998 101.436 38.5598C101.556 40.9598 101.196 43.3598 100.396 45.5998C99.7963 47.2398 98.7563 48.8798 97.1963 49.7998C95.2763 50.9198 92.9963 51.3198 90.9563 52.0798C90.1563 52.3198 89.4363 52.7198 88.8363 53.3198C88.2763 53.9998 87.9563 54.7998 87.9163 55.6798L89.7563 55.2798C87.6763 54.9198 85.3563 54.2798 83.6763 52.9998C82.9963 52.5198 82.5563 51.7998 82.3963 50.9598C82.2363 50.1198 82.1163 49.2798 82.0763 48.4398C81.8363 45.8398 82.1963 43.1998 83.0363 40.7198C83.9963 37.9998 85.9963 35.7998 88.5963 34.5598C91.1563 33.3198 93.1963 30.8798 92.7963 27.9198C92.7163 27.5598 90.7563 27.8398 90.7563 28.1598C91.1563 30.9598 89.3563 33.2798 86.9563 34.4798C85.8763 34.9998 84.8763 35.6398 83.9963 36.3998C82.8763 37.4398 81.9963 38.6798 81.3563 40.0398C80.1963 42.5198 79.8763 45.3598 79.9963 48.0798C80.0363 48.9998 80.1163 49.9198 80.2763 50.7998C80.3563 51.5198 80.6363 52.1598 81.1163 52.7198C82.1963 53.8798 83.7963 54.4798 85.2363 54.9598C86.1563 55.2398 87.0763 55.4799 87.9963 55.6399C88.3563 55.6798 88.7563 55.6398 89.1163 55.5598C89.2763 55.5198 89.7963 55.4398 89.7963 55.2798C89.8363 54.5198 90.1163 53.7598 90.5963 53.1198C91.0363 52.6398 91.5963 52.2798 92.1963 52.0798C94.3163 51.2798 96.5963 50.8398 98.5963 49.7998C101.756 48.1598 102.876 44.3198 103.236 40.9998C103.356 40.0798 103.396 39.1198 103.356 38.1598L101.516 38.5598C102.676 38.7998 103.836 38.8398 104.996 38.6798C106.276 38.5598 107.516 38.2398 108.636 37.6398C109.476 37.2398 110.116 36.5198 110.436 35.5998C110.716 34.6798 110.516 33.7198 109.916 32.9998C108.636 31.5198 106.116 31.4798 104.356 31.4798C103.156 31.4798 101.996 31.5198 100.836 31.5598C99.7563 31.5998 98.7163 31.7198 97.6363 31.3598C95.6763 30.6798 93.9563 29.4398 92.6763 27.8398C92.5163 27.6398 91.8763 27.7598 91.6363 27.7998C91.6363 27.8398 90.6763 28.0798 90.7563 28.1598Z" fill="#000005"/>
<path d="M78.3188 46.1597C78.3188 46.1597 73.7588 48.3196 72.5188 45.8796C71.2788 43.4396 74.4388 43.4796 74.4388 43.4796C74.4388 43.4796 69.8788 38.8797 74.5588 36.9597C74.5588 36.9597 69.7588 33.7196 72.2388 29.3596C74.7188 24.9997 81.5188 26.1996 81.5188 26.1996C81.5188 26.1996 80.2388 20.4796 85.3588 20.2396C90.4788 19.9996 89.9188 23.7196 89.9188 23.7196C89.9188 23.7196 93.1588 23.5196 93.6388 25.5196C94.1188 27.5196 91.8788 28.7197 91.8788 28.7197C91.8788 28.7197 92.0788 34.5596 87.5588 34.5596L84.7588 42.4796C85.9188 43.9996 86.2388 45.9597 85.5988 47.7596C84.5188 50.7997 78.7988 49.8797 78.3188 46.1597Z" fill="#000005"/>
<path d="M77.7591 46.12L77.6391 46.2C77.3991 46.32 77.5991 46.24 77.6391 46.2L77.3991 46.28L77.1991 46.36C77.1591 46.36 76.8391 46.48 77.0791 46.4L76.7191 46.52C76.6791 46.52 76.3191 46.64 76.5191 46.56C75.7591 46.76 74.7591 46.84 73.9991 46.32C73.3591 45.88 72.7591 44.64 73.3591 43.96C73.4391 43.88 73.4391 43.92 73.5191 43.84C73.5191 43.84 73.3991 43.88 73.4791 43.84C73.3191 43.88 73.3191 43.88 73.4391 43.88C73.2791 43.92 73.2791 43.92 73.3591 43.92C73.1591 43.96 73.5591 43.92 73.3591 43.92L73.5591 43.88C73.3191 43.92 73.5191 43.88 73.5591 43.88H73.7191C73.9191 43.88 75.5591 43.48 75.2391 43.16L75.0791 43C74.9191 42.84 74.7991 42.68 74.6791 42.52C74.2791 42 73.9191 41.44 73.6791 40.84C73.0791 39.44 73.2391 37.8 74.7991 37.16C74.8791 37.12 75.6391 36.84 75.3591 36.64C73.5591 35.44 72.1191 33.24 72.3991 31C72.6791 29.36 73.6791 27.92 75.1191 27.16C75.3591 27 75.6391 26.92 75.9191 26.84L76.2791 26.72C76.1191 26.76 76.3191 26.72 76.3191 26.72C76.4391 26.68 76.5991 26.64 76.7191 26.64C77.2791 26.56 77.8391 26.48 78.3991 26.48C79.1591 26.44 79.8791 26.52 80.6391 26.64C80.9191 26.68 82.4791 26.4 82.3991 26C82.0791 24.6 82.1991 22.84 83.0391 21.64C83.1991 21.44 83.3591 21.24 83.5191 21.08C83.5991 21 83.7191 20.92 83.8391 20.88C83.8791 20.84 84.0791 20.76 84.0391 20.76C83.9991 20.76 84.1191 20.72 84.1191 20.72C84.2391 20.68 84.3991 20.68 84.5191 20.68C84.9991 20.64 85.4791 20.64 85.9591 20.72C87.0391 20.88 88.1191 21.4 88.5991 22.44C88.8391 22.96 88.9191 23.52 88.8791 24.08C88.8791 24.16 89.1991 24.16 89.1991 24.16C89.5991 24.12 89.9991 24.16 90.3591 24.24C91.0791 24.36 91.9191 24.64 92.3191 25.28C92.7991 26.08 92.7191 27.08 92.1191 27.8C91.8391 28.2 91.4391 28.56 90.9991 28.8C90.9191 28.84 90.7591 28.96 90.7591 29.08C90.7591 29.96 90.6391 30.8 90.3991 31.64C90.1991 32.32 89.8791 32.96 89.4391 33.52C89.1991 33.8 88.9191 34 88.5991 34.2C88.6791 34.16 88.4391 34.28 88.5591 34.2C88.6791 34.12 88.4391 34.2 88.5991 34.2C88.3991 34.24 88.2391 34.24 88.0391 34.24C87.7191 34.24 87.3991 34.32 87.0791 34.44C86.9191 34.52 86.5191 34.64 86.4791 34.8L83.8791 42.16C83.7991 42.36 83.6391 42.64 83.7191 42.84C83.8391 43.08 83.9991 43.32 84.1591 43.52C84.3991 43.92 84.5591 44.36 84.6791 44.8C84.9991 45.96 84.9991 47.36 84.3591 48.44C84.1991 48.72 83.9591 48.96 83.6391 49.16C83.6391 49.16 83.5191 49.24 83.5991 49.16C83.4391 49.24 83.6791 49.2 83.5191 49.2C83.7191 49.2 83.4391 49.2 83.5591 49.2C83.4391 49.2 83.3991 49.2 83.3191 49.24C81.2791 49.32 79.5191 47.92 79.1591 45.92C79.1191 45.64 77.1991 46.04 77.2391 46.48C77.5191 48.44 79.3191 49.76 81.1991 49.96C83.0791 50.16 85.7991 49.48 86.4791 47.48C86.9191 46.2 86.8391 44.84 86.3191 43.6C86.1591 43.24 85.9591 42.88 85.7591 42.56C85.7191 42.48 85.6391 42.4 85.5991 42.32C85.5591 42.24 85.5591 42.4 85.5591 42.32C85.5991 42.16 85.6391 42 85.7191 41.88L86.0391 41L86.9191 38.52L88.3591 34.44L86.7991 35.04C89.0391 35 91.2391 33.96 92.1191 31.8C92.5191 30.76 92.7191 29.64 92.6791 28.52L92.4391 28.76C93.7591 28.04 95.1991 26.24 94.1991 24.72C93.4391 23.56 91.6791 23.36 90.3991 23.44L90.7191 23.52C90.7991 22.96 90.6791 22.4 90.4391 21.88C89.8791 20.68 88.6391 20.16 87.3991 20C85.5191 19.76 83.3191 20.08 81.7991 21.28C80.8791 22.04 80.3591 23.16 80.2791 24.36C80.1991 25.12 80.2391 25.84 80.3991 26.6L82.1591 25.96C79.7191 25.56 77.1991 25.8 74.8791 26.72C73.1591 27.4 71.6391 28.52 70.8391 30.24C70.1191 31.84 70.2791 33.68 71.2791 35.12C71.8391 36.04 72.5991 36.8 73.4791 37.4L74.0391 36.92C73.0791 37.32 71.9591 37.88 71.5191 38.88C71.1991 39.6 71.1991 40.44 71.5191 41.16C71.9191 42.2 72.5191 43.16 73.3191 43.92L74.8391 43.2C74.1191 43.2 73.3991 43.36 72.7191 43.6C71.9191 43.88 70.9991 44.36 71.0391 45.36C71.1191 46.4 71.8791 47.24 72.9191 47.44C74.0391 47.72 75.2791 47.44 76.3991 47.16C77.1991 46.96 77.9591 46.68 78.6791 46.36C78.8791 46.24 79.2791 46.08 78.9191 45.92C78.5591 45.76 78.0391 45.96 77.7591 46.12Z" fill="#000005"/>
<path d="M88.4762 35.5198C88.4762 35.5198 87.0762 31.7598 84.4362 33.0798C81.7962 34.3998 82.4362 43.3198 87.3562 42.1198" fill="white"/>
<path d="M89.3573 35.0797C88.9973 34.0797 88.3573 33.2397 87.4773 32.5997C85.9573 31.6397 83.9573 32.3197 82.9173 33.6797C82.1573 34.7197 81.9173 36.1197 81.9573 37.3597C81.9173 38.7197 82.3173 40.0797 83.0373 41.2797C83.9173 42.6397 85.5573 43.2397 87.1173 42.7997C87.5573 42.7197 88.0773 42.4397 88.2373 41.9597C88.3973 41.4797 87.9173 41.3997 87.5573 41.4797C87.3173 41.5597 87.0373 41.5997 86.7973 41.5597C86.5573 41.5597 86.3173 41.5197 86.0773 41.3997C85.6773 41.1997 85.3173 40.9597 85.0373 40.5997C84.3573 39.6797 83.9573 38.5597 83.8773 37.4397C83.7173 36.3197 83.8773 35.2397 84.2773 34.1997C84.3573 33.9997 84.1973 34.3197 84.3173 34.1597C84.3573 34.1197 84.3573 34.0397 84.3973 33.9997C84.4373 33.9597 84.5173 33.8397 84.5573 33.7597C84.3973 33.9597 84.5973 33.7197 84.6373 33.6797C84.7573 33.5197 84.4773 33.8397 84.5973 33.6797C84.7173 33.5197 84.7573 33.6797 84.5973 33.6797C84.7573 33.6797 84.8773 33.5597 85.0773 33.5597C85.3173 33.5597 85.5973 33.6397 85.7973 33.7597C86.6373 34.3197 87.2773 35.1197 87.5573 36.0797C87.8373 36.6797 89.6373 35.7997 89.3573 35.0797Z" fill="#000005"/>
<path d="M96.5178 40.9199C96.9578 42.3199 98.0378 43.3999 99.3978 43.9199C100.118 44.1199 100.838 44.1599 101.558 43.9999C101.918 43.9599 102.238 43.7599 102.438 43.4399C102.558 43.1199 102.198 43.0799 101.998 43.1199L101.758 43.1599H101.678C101.598 43.1599 101.758 43.1599 101.678 43.1599C101.518 43.1599 101.398 43.1599 101.238 43.1599C101.118 43.1599 101.038 43.1599 100.918 43.1199C100.798 43.0799 100.638 43.0799 100.518 43.0399C100.078 42.9199 99.7178 42.6799 99.3578 42.3999C98.7978 41.9199 98.3578 41.3599 98.0778 40.6799C97.9978 40.5599 97.9578 40.3999 97.9178 40.2399C97.8378 39.9599 97.2378 40.1599 97.0778 40.2399C96.9178 40.3199 96.3978 40.5999 96.5178 40.9199Z" fill="#000005"/>
<path d="M94.4773 33.6797C94.8373 33.7197 95.1173 34.0397 95.0773 34.3997C95.0773 34.4397 95.0773 34.4397 95.0773 34.4797C94.9173 35.1997 94.0373 34.9597 93.9973 34.3197C93.9573 33.9997 94.1573 33.7197 94.4373 33.6797H94.4773Z" fill="#000005"/>
<path d="M128.796 108.04L128.316 123C128.316 123.4 130.196 123.08 130.236 122.4L130.716 107.44C130.716 107.08 128.836 107.4 128.796 108.04Z" fill="white"/>
</svg>
