<svg width="200" height="200" viewBox="0 0 200 200" fill="none" xmlns="http://www.w3.org/2000/svg">
<path d="M168.238 123.56L186.838 125.64C186.838 125.64 191.278 107.32 180.478 105.92C169.678 104.52 168.238 123.56 168.238 123.56Z" fill="#000005"/>
<path d="M168.841 124.28L175.121 125L185.121 126.12L187.441 126.36H187.481C188.001 124.2 188.281 122 188.361 119.76C188.521 116 188.161 111.92 185.761 108.84C184.441 107.12 182.761 105.76 180.601 105.28C178.721 104.84 176.761 105.08 175.041 105.96C171.761 107.8 170.041 111.68 169.001 115.12C168.521 116.72 168.161 118.32 167.881 119.96C167.681 120.84 167.561 121.76 167.521 122.68C167.521 122.72 167.521 122.76 167.521 122.8C167.481 123.12 168.081 123.6 168.281 123.8C168.361 123.88 168.881 124.36 168.881 124.2C169.161 120.56 170.001 117 171.441 113.6C172.441 111.28 173.881 108.96 176.081 107.6C178.441 106.2 181.321 106.16 183.721 107.44C183.961 107.56 184.201 107.72 184.441 107.88C184.561 107.96 184.601 108 184.681 108.08C184.761 108.16 184.881 108.28 184.761 108.12C184.801 108.16 184.961 108.32 184.801 108.16L184.841 108.2C184.841 108.2 185.041 108.44 184.881 108.28C184.961 108.4 185.001 108.44 185.041 108.52C185.201 108.76 185.361 109 185.481 109.28C186.041 110.44 186.441 111.64 186.641 112.88C187.041 115.44 187.081 118.04 186.761 120.6C186.681 121.52 186.521 122.48 186.361 123.4C186.321 123.88 186.201 124.32 186.081 124.8C186.041 124.88 186.161 124.84 186.001 124.84C185.761 124.84 185.521 124.8 185.281 124.76L182.441 124.44L167.841 122.8L167.521 122.76C167.321 122.72 167.801 123.36 167.841 123.4C168.121 123.68 168.561 124.24 168.841 124.28Z" fill="#000005"/>
<path d="M157.202 102.88L180.482 105.92C180.482 105.92 173.202 106.04 172.482 117.96C171.762 129.88 169.642 141.28 161.882 140.96C154.122 140.64 146.602 130.84 146.602 130.84L157.202 102.88Z" fill="white"/>
<path d="M157.319 103.64L165.199 104.68L177.719 106.32L180.599 106.68L180.079 105.12C178.359 105.16 176.559 106.2 175.359 107.36C173.959 108.8 172.959 110.56 172.399 112.48C171.519 115.4 171.519 118.44 171.239 121.44C170.999 124.48 170.519 127.48 169.839 130.48C169.239 132.84 168.439 135.28 167.039 137.28C165.919 138.8 164.359 139.96 162.479 140.12C160.199 140.32 157.839 139.36 155.879 138.2C152.639 136.24 149.799 133.68 147.479 130.68C147.439 130.64 147.399 130.56 147.319 130.52L147.479 131.28L151.039 121.84L156.719 106.72L158.039 103.28C158.159 102.84 157.919 102.36 157.519 102.16C157.239 102 156.479 101.84 156.319 102.28L154.879 106.12L151.599 114.84L148.079 124.16L145.919 129.88C145.879 130 145.839 130.12 145.759 130.24C145.599 130.64 145.839 130.96 146.079 131.24C146.919 132.24 147.759 133.2 148.679 134.12C151.719 137.2 155.399 140.16 159.679 141.24C161.639 141.72 163.759 141.84 165.639 140.96C167.279 140.12 168.599 138.8 169.479 137.16C170.559 135.16 171.359 133 171.839 130.8C172.439 128.2 172.839 125.56 173.079 122.88C173.519 118.32 173.239 113.24 176.119 109.4C176.519 108.88 176.959 108.44 177.479 108.04C177.719 107.84 177.919 107.68 178.199 107.52L178.399 107.4L178.439 107.36C178.559 107.32 178.639 107.24 178.759 107.2C179.159 107 179.559 106.84 179.959 106.72L180.199 106.64C180.039 106.68 180.119 106.64 180.279 106.64C180.439 106.64 180.519 106.6 180.639 106.6C180.719 106.6 180.839 106.56 180.919 106.56C181.239 106.56 181.479 106.28 181.479 106C181.479 105.92 181.479 105.88 181.439 105.8C181.279 105.36 180.879 105.04 180.399 105L172.519 103.96L159.999 102.32L157.119 101.96C156.719 101.92 156.279 102.16 156.319 102.64C156.399 103.24 156.839 103.6 157.319 103.64Z" fill="#000005"/>
<path d="M163.08 44.0801C163.08 44.0801 173.4 43.3601 171.04 54.2801C168.68 65.2001 155.76 117.92 155.76 128.96C155.76 140 161.88 140.96 161.88 140.96C161.88 140.96 112.68 139.2 101.6 136.08C90.52 132.96 106.12 77.9201 106.12 77.9201C106.12 77.9201 151.76 45.4401 153.68 45.4401C155.6 45.4401 163.08 44.0801 163.08 44.0801Z" fill="#000005"/>
<path d="M163.561 44.9199C164.161 44.8799 164.721 44.9199 165.321 44.9999C166.521 45.1199 167.641 45.5199 168.681 46.1199C168.841 46.1999 168.961 46.3199 169.121 46.4399C169.281 46.5599 169.121 46.4399 169.201 46.5199L169.401 46.7199L169.601 46.9199C169.481 46.7999 169.601 46.9199 169.641 46.9999L169.801 47.1999C169.881 47.3199 169.721 47.0799 169.881 47.2799C169.921 47.3599 170.001 47.4399 170.041 47.5599C169.921 47.3999 170.041 47.5599 170.081 47.6399L170.201 47.8799C170.121 47.7199 170.241 47.9999 170.281 48.0399C170.441 48.4399 170.561 48.8399 170.601 49.2399C170.921 51.0399 170.521 52.8399 170.161 54.5999C169.561 57.3199 168.921 60.0399 168.281 62.7999C167.361 66.7199 166.441 70.6399 165.561 74.5599C164.521 79.0799 163.481 83.6399 162.441 88.1999C161.401 92.8399 160.401 97.4799 159.401 102.12C158.521 106.32 157.681 110.52 156.881 114.76C156.281 118 155.721 121.28 155.321 124.56C154.921 128.12 154.881 131.8 156.081 135.24C157.001 137.88 158.921 140.76 161.761 141.64C161.921 141.68 162.081 141.72 162.281 141.76L161.361 140.04C160.121 140 158.881 139.96 157.641 139.88C154.441 139.76 151.241 139.6 148.041 139.44C143.721 139.24 139.401 139.04 135.121 138.76C130.521 138.48 125.921 138.16 121.321 137.8C117.241 137.48 113.121 137.08 109.041 136.56C107.441 136.36 105.881 136.12 104.281 135.84C103.161 135.68 102.081 135.44 101.001 135.08C100.921 135.04 100.801 135 100.721 134.96L100.601 134.92C100.521 134.88 100.721 135 100.561 134.92L100.401 134.8C100.161 134.64 100.481 134.88 100.281 134.72L100.041 134.52C100.001 134.52 100.201 134.72 100.081 134.56L99.9611 134.4C99.9211 134.36 99.8811 134.32 99.8811 134.28C99.8811 134.24 100.041 134.52 99.9211 134.32L99.7211 134C99.6411 133.88 99.8411 134.24 99.7211 134.04C99.6811 134 99.6811 133.96 99.6411 133.88C99.5611 133.76 99.5211 133.64 99.4811 133.52C99.4011 133.32 99.5611 133.68 99.4811 133.52C99.4411 133.48 99.4411 133.4 99.4011 133.32C99.3611 133.2 99.3211 133.08 99.2411 132.92C99.1611 132.76 99.1611 132.68 99.1211 132.52C99.0811 132.36 99.0811 132.32 99.1211 132.48L99.0411 132.24C98.9611 131.96 98.8811 131.64 98.8411 131.36C98.5611 130 98.4011 128.64 98.3611 127.28C98.2811 125.6 98.3211 123.92 98.4011 122.24C98.6411 118.32 99.0411 114.4 99.6811 110.52C100.321 106.48 101.081 102.44 101.921 98.4399C102.681 94.8799 103.481 91.3199 104.361 87.7999C104.961 85.3999 105.561 82.9599 106.201 80.5599L106.681 78.8399C106.721 78.7599 106.721 78.6399 106.761 78.5599C106.721 78.7199 106.721 78.6399 106.841 78.5599C108.121 77.7599 109.361 76.7599 110.601 75.8799C113.121 74.0799 115.681 72.2799 118.201 70.5199C121.481 68.2399 124.721 65.9199 128.001 63.6399C131.401 61.2799 134.801 58.9199 138.201 56.5999C141.161 54.5599 144.121 52.5599 147.081 50.5599C149.001 49.2799 150.921 47.9599 152.961 46.7999C153.201 46.6399 153.481 46.5199 153.761 46.3599L154.041 46.2399C154.081 46.2399 154.121 46.1999 154.121 46.1999C154.001 46.1999 154.201 46.1599 154.121 46.1999C155.881 46.0799 157.641 45.7999 159.361 45.5199C160.761 45.2799 162.201 45.0399 163.601 44.7999C164.201 44.6799 163.241 42.9999 162.681 43.0799C161.161 43.3599 159.641 43.5999 158.121 43.8399C157.041 43.9999 155.921 44.1599 154.841 44.3199C154.281 44.3999 153.721 44.3599 153.161 44.4399C152.681 44.5999 152.201 44.7999 151.761 45.1199C150.921 45.5999 150.081 46.1599 149.241 46.6799C146.641 48.3599 144.081 50.0799 141.521 51.7999C138.201 54.0399 134.921 56.3199 131.601 58.5999C128.161 60.9599 124.761 63.3599 121.361 65.7599C118.401 67.8399 115.401 69.9199 112.441 72.0399L106.721 76.0799C106.321 76.3199 105.961 76.5999 105.601 76.8799C105.481 77.0399 105.361 77.2399 105.361 77.4399C104.881 79.1599 104.441 80.8799 104.001 82.5999C103.201 85.7599 102.441 88.9199 101.721 92.0799C100.841 96.0399 100.001 99.9999 99.2811 103.96C98.5211 108.04 97.8811 112.12 97.4811 116.24C97.0411 119.76 96.9211 123.28 97.1211 126.8C97.2811 129.4 97.6811 132.24 99.2011 134.44C99.8011 135.4 100.641 136.12 101.641 136.6C102.761 136.96 103.881 137.24 105.041 137.4C108.481 138.04 112.001 138.4 115.481 138.76C119.961 139.2 124.441 139.56 128.921 139.88C133.521 140.2 138.161 140.48 142.761 140.72C146.641 140.92 150.521 141.12 154.401 141.32C156.721 141.44 159.081 141.52 161.401 141.6L162.361 141.64C162.761 141.64 162.441 140.92 162.361 140.8C162.161 140.44 161.881 140 161.441 139.92C161.321 139.92 161.401 139.92 161.441 139.92C161.321 139.88 161.241 139.88 161.121 139.84C161.001 139.8 160.801 139.72 160.641 139.64C160.561 139.6 160.441 139.56 160.361 139.52C160.321 139.48 160.281 139.48 160.201 139.44L160.161 139.4C159.921 139.24 159.721 139.12 159.481 138.96C159.241 138.8 159.521 139 159.401 138.92C159.281 138.84 159.281 138.84 159.241 138.76C159.121 138.64 159.001 138.52 158.881 138.4C158.761 138.28 158.881 138.4 158.921 138.44L158.841 138.32C158.801 138.24 158.721 138.2 158.681 138.12C158.641 138.04 158.561 138 158.521 137.92C158.481 137.84 158.401 137.76 158.521 137.96C158.481 137.92 158.441 137.88 158.441 137.84C158.321 137.68 158.201 137.48 158.081 137.32C158.001 137.24 158.081 137.36 158.121 137.36C158.081 137.32 158.041 137.24 158.041 137.2L157.881 136.88C156.801 134.8 156.481 132.04 156.441 129.56C156.441 128.48 156.521 127.44 156.641 126.36C156.961 123.2 157.521 120.08 158.081 117C158.841 112.8 159.681 108.64 160.561 104.48C161.521 99.8399 162.521 95.1999 163.561 90.5999C164.561 86.0399 165.601 81.4399 166.681 76.8799C167.601 72.9199 168.521 68.9199 169.441 64.9599C170.081 62.1199 170.761 59.2799 171.401 56.4399C171.761 54.7999 172.161 53.1599 172.121 51.4799C172.121 49.4399 171.361 47.4399 170.041 45.9199C168.321 43.9999 165.761 43.1199 163.201 43.0799C163.041 43.0799 162.881 43.0799 162.721 43.0799C162.081 43.2799 162.961 44.9599 163.561 44.9199Z" fill="#000005"/>
<path d="M163.079 44.0804C163.079 44.0804 106.999 39.3604 104.279 41.7204C101.559 44.0804 96.6387 65.4804 93.1187 86.0004C89.5987 106.52 84.7188 112.84 84.7188 112.84C84.7188 112.84 129.199 119.28 140.479 116.52C151.759 113.76 152.799 83.4004 152.799 69.1204C152.799 54.8404 157.479 46.2404 163.079 44.0804Z" fill="white"/>
<path d="M163.041 43.12C161.561 43 160.081 42.88 158.601 42.76C154.881 42.48 151.201 42.2 147.481 41.92C142.681 41.56 137.881 41.24 133.081 40.96C128.321 40.68 123.601 40.44 118.841 40.24C115.201 40.12 111.521 40 107.881 40.12C106.841 40.12 105.841 40.24 104.841 40.4C104.521 40.44 104.201 40.56 103.881 40.72C103.441 41.04 103.041 41.48 102.801 42C101.721 43.8 101.121 45.92 100.481 47.92C99.4809 51.08 98.6809 54.32 97.8809 57.52C95.8409 66 94.1609 74.56 92.6809 83.12C91.4409 90.28 90.0809 97.48 87.6009 104.36C86.6809 106.96 85.6009 109.56 84.1209 111.92C83.9609 112.16 84.2409 111.76 84.1209 111.96L84.0809 112C83.7209 112.52 83.8809 113.2 84.4009 113.56C84.5209 113.64 84.6409 113.68 84.7609 113.72C86.3609 113.96 87.9609 114.16 89.5609 114.36C93.4809 114.88 97.4409 115.36 101.361 115.8C106.361 116.36 111.401 116.88 116.441 117.28C121.281 117.68 126.121 118 130.961 118.04C132.881 118.08 134.841 118.04 136.761 117.92C138.201 117.88 139.681 117.64 141.081 117.28C144.881 116.16 147.121 112.48 148.561 109.04C150.561 104.24 151.561 99 152.241 93.84C152.921 88.32 153.361 82.76 153.481 77.16C153.681 71.32 153.321 65.4 154.441 59.64C155.361 54.76 157.201 49.32 161.281 46.2C161.961 45.68 162.721 45.28 163.521 44.96C164.481 44.6 163.601 42.8 162.601 43.2C158.281 44.88 155.681 49.44 154.201 53.6C153.121 56.8 152.441 60.12 152.161 63.48C151.881 66.48 151.921 69.48 151.881 72.48C151.801 77.72 151.601 82.96 151.121 88.16C150.601 93.56 149.881 99.04 148.321 104.28C147.721 106.44 146.881 108.52 145.801 110.52C145.361 111.32 144.841 112.08 144.281 112.8C144.001 113.16 143.681 113.48 143.361 113.8C143.201 113.96 143.041 114.08 142.881 114.24L142.641 114.44L142.521 114.52L142.481 114.56C141.161 115.48 140.041 115.76 138.481 115.96C136.801 116.16 135.121 116.28 133.441 116.32C128.881 116.4 124.401 116.16 119.841 115.84C114.761 115.48 109.721 115 104.681 114.44C100.361 113.96 96.0809 113.48 91.8009 112.92C89.5209 112.64 87.2409 112.32 84.9609 112L84.6409 111.96L85.2809 113.68C86.4009 112.24 87.1609 110.44 87.8809 108.8C90.2409 103.24 91.7609 97.32 92.9609 91.44C93.8409 87 94.5609 82.56 95.4009 78.12C96.2009 73.76 97.0809 69.4 98.0409 65.08C98.8409 61.36 99.7209 57.64 100.681 53.92C101.361 51.24 102.161 48.6 103.121 45.96C103.441 45.12 103.801 44.28 104.201 43.48C104.281 43.36 104.361 43.2 104.441 43.08C104.521 42.96 104.521 42.96 104.481 43.04L104.641 42.84C104.721 42.76 104.801 42.68 104.841 42.6C104.961 42.44 104.641 42.68 104.801 42.6C104.921 42.56 105.001 42.52 105.121 42.48C104.801 42.6 105.041 42.48 105.161 42.48L105.401 42.44C105.841 42.36 106.281 42.32 106.721 42.28C108.041 42.16 109.361 42.12 110.721 42.12C111.601 42.12 112.441 42.12 113.321 42.12H114.721L116.121 42.16C120.681 42.28 125.241 42.52 129.801 42.76C134.641 43.04 139.521 43.32 144.361 43.68C148.401 43.96 152.441 44.24 156.521 44.56C158.641 44.72 160.761 44.88 162.841 45.08L163.121 45.12C164.321 45.12 164.041 43.2 163.041 43.12Z" fill="#000005"/>
<path d="M129.681 101.48L77.2006 97.2002C77.2006 97.2002 74.6406 109.12 84.7206 112.8C94.8006 116.48 135.281 117.16 135.281 117.16C135.281 117.16 125.441 113.28 129.681 101.48Z" fill="white"/>
<path d="M129.92 101.04L124.68 100.6L112.16 99.5597L96.96 98.3197L83.88 97.2397C81.76 97.0797 79.64 96.8797 77.52 96.7197H77.44C77.08 96.6797 76.28 96.7197 76.2 97.1997C75.96 98.3597 75.88 99.5597 75.92 100.76C75.92 103.28 76.52 105.76 77.72 107.96C79.24 110.6 81.76 112.36 84.6 113.32C86.6 113.92 88.68 114.4 90.76 114.68C96.56 115.6 102.44 116.08 108.28 116.48C114.12 116.88 119.96 117.16 125.8 117.36C128.92 117.48 132.04 117.64 135.16 117.6H135.28C135.6 117.64 135.92 117.52 136.2 117.28C136.36 117.08 136.2 116.88 135.96 116.8L135.72 116.68C135.64 116.64 135.52 116.6 135.44 116.56L135.28 116.48C135.48 116.6 135.24 116.44 135.16 116.4C134.4 115.96 133.68 115.48 133.04 114.88C131.08 113.12 129.88 110.72 129.64 108.12C129.48 105.88 129.8 103.64 130.6 101.52C130.84 100.88 128.88 100.76 128.68 101.36C127.44 104.8 127.04 108.64 128.76 112.04C129.8 114 131.36 115.64 133.28 116.76C133.72 117.04 134.16 117.24 134.64 117.44L135.32 116.64L133.32 116.6L132.2 116.56H131.6H131.32H131.12C130.88 116.56 131.36 116.56 131.12 116.56L128.08 116.48C122.52 116.28 116.92 116.08 111.36 115.72C105.48 115.36 99.56 114.92 93.72 114.12C92.44 113.96 91.56 113.8 90.32 113.6C89.32 113.4 88.28 113.2 87.28 112.96C87.08 112.92 86.84 112.84 86.64 112.8L86.32 112.72C86.28 112.72 85.88 112.6 86.12 112.68C85.6 112.52 85.08 112.32 84.56 112.08C83.12 111.44 81.84 110.52 80.8 109.36C78.04 106.16 77.44 101.48 78.12 97.3997L78.16 97.1597L76.92 97.6397L82.16 98.0797L94.68 99.1197L109.88 100.36L122.96 101.44C125.08 101.6 127.2 101.8 129.32 101.96H129.4C129.72 102 130.44 101.96 130.6 101.6C130.76 101.24 130.16 101.08 129.92 101.04Z" fill="#000005"/>
<path d="M100.922 92.9196L101.682 89.1196C102.282 86.1996 102.842 83.2796 103.442 80.3596C104.082 77.1196 104.762 73.8796 105.402 70.6396C105.842 68.4796 106.282 66.2796 106.762 64.1196L106.922 63.4396C106.922 63.2796 106.922 63.3996 106.922 63.4396C106.922 63.6796 106.962 63.2396 106.882 63.4796C106.882 63.4396 106.962 63.3996 106.962 63.3996C106.842 63.4396 106.922 63.3996 107.002 63.3996C107.082 63.3996 107.122 63.3596 107.162 63.3596C107.202 63.3596 107.242 63.3196 107.282 63.3196C108.642 63.1196 110.122 63.4396 111.482 63.7196L111.802 63.7996L110.802 62.5596L108.922 72.5996L105.922 88.5596L105.242 92.1996L105.722 91.7596H99.6819C99.2019 91.7596 99.1219 92.2796 99.2819 92.6396C99.4819 93.1196 99.8819 93.4396 100.402 93.4796H106.442C106.682 93.4796 106.922 93.2796 106.922 93.0396L108.802 82.9996L111.802 67.0396L112.482 63.3996C112.562 62.8796 111.962 62.2796 111.482 62.1596C110.242 61.8796 109.002 61.6796 107.722 61.6396C107.042 61.5996 106.242 61.5996 105.682 61.9596C105.402 62.1596 105.202 62.4796 105.202 62.8396C104.802 64.6796 104.442 66.5196 104.042 68.3996C103.402 71.5996 102.762 74.7996 102.082 77.9996C101.442 81.0796 100.842 84.1996 100.202 87.3196C100.002 88.3996 99.7619 89.4796 99.5619 90.5596C99.4419 91.0796 99.3219 91.5996 99.2419 92.1596C99.2419 92.1996 99.2419 92.1996 99.2419 92.2396C99.0819 92.9196 100.722 93.9596 100.922 92.9196Z" fill="#68BA7F"/>
<path d="M115.2 94.1599C115.56 92.4799 115.92 90.7599 116.24 89.0799C117.04 85.1999 117.84 81.3199 118.68 77.4399C119.6 73.1599 120.48 68.8799 121.4 64.5999C122 61.7199 122.6 58.8399 123.24 55.9999C123.32 55.7199 123.36 55.4399 123.44 55.1599C123.44 55.0799 123.48 54.9999 123.52 54.9199C123.56 54.8399 123.68 54.7599 123.76 54.7199C123.84 54.6799 123.96 54.6399 124.04 54.6399H124.2H124.36C124.4 54.6399 124.76 54.6399 124.56 54.6399C124.72 54.6399 124.88 54.6399 125.04 54.6399C125.56 54.6799 125.96 54.7199 126.52 54.7599C127.44 54.8799 128.16 54.9999 129 55.1599L129.44 55.2399L129.16 55.0799L128.4 58.9599L126.56 68.3199L124.32 79.6799L122.4 89.4399L121.76 92.6799C121.64 93.1999 121.52 93.6799 121.44 94.1999C121.44 94.2399 121.44 94.2399 121.44 94.2799L122.44 93.9999H114.16C114 93.9999 113.16 94.0399 113.16 94.2799C113.16 94.5199 114.04 94.5199 114.16 94.5199H122.44C122.64 94.5199 123.36 94.5199 123.44 94.2399L124.2 90.3599L126.04 80.9999L128.28 69.6399L130.2 59.8799L130.84 56.6399L131.04 55.6399C131.08 55.4799 131.12 55.2799 131.16 55.1199C131.16 55.0799 131.16 55.0799 131.16 55.0399C131.16 54.9599 130.88 54.8799 130.88 54.8799C129.16 54.5199 127.44 54.2799 125.72 54.1599C124.6 54.1199 123.36 54.0799 122.28 54.4799C121.88 54.5999 121.56 54.9199 121.48 55.3199C120.92 57.6799 120.44 60.0799 119.92 62.4799C119 66.7199 118.12 70.9999 117.24 75.2399C116.36 79.3999 115.48 83.5999 114.6 87.7599C114.28 89.1999 114 90.6399 113.68 92.1199L113.4 93.4799C113.32 93.7199 113.28 93.9599 113.24 94.1999C113.24 94.2399 113.24 94.2799 113.24 94.2799C113.16 94.4399 115.12 94.6399 115.2 94.1599Z" fill="#68BA7F"/>
<path d="M127.48 95.1597C127.48 95.1597 131.52 77.8797 131.88 76.7197C132.24 75.5597 138.48 76.7197 138.48 76.7197L134.6 95.1597H127.48Z" fill="#68BA7F"/>
<path d="M128.44 95.4796C129.16 92.3196 129.92 89.1996 130.64 86.0396C131.16 83.9196 131.64 81.7996 132.16 79.6796C132.32 78.9996 132.48 78.3196 132.68 77.6396C132.72 77.4796 132.76 77.2796 132.84 77.1196C132.92 76.9596 132.96 76.8796 133.16 76.8396C134.12 76.5996 135.36 76.7596 136.44 76.8796C137.08 76.9596 137.28 76.9996 137.92 77.0796C138.16 77.1196 138.4 77.1596 138.64 77.1996L137.56 76.4396L136.24 82.6796L134.16 92.5596L133.68 94.8796L134.04 94.7196H126.92C126.52 94.7196 126.48 95.0396 126.76 95.2796C127.16 95.5596 127.64 95.7196 128.12 95.7196H135.2C135.28 95.7196 135.52 95.6796 135.56 95.5596L136.88 89.3196L138.96 79.3996L139.44 77.0796C139.52 76.6396 138.6 76.3596 138.36 76.3196C136.48 75.9196 134.56 75.7196 132.64 75.7996C132.04 75.8396 131.12 75.9196 130.88 76.5996C130.72 77.1196 130.6 77.6396 130.48 78.1596C129.44 82.4796 128.44 86.7596 127.44 91.0796C127.16 92.3596 126.84 93.6396 126.56 94.9196C126.4 95.4396 128.32 95.9996 128.44 95.4796Z" fill="#68BA7F"/>
<path d="M117.078 94.4799L121.038 92.4799C122.158 91.9199 123.478 91.4399 124.198 90.3599C124.438 89.9199 124.318 89.3599 123.918 89.0799C123.558 88.7999 122.918 88.6799 122.638 89.1199C122.318 89.5599 121.878 89.8799 121.398 90.1199C120.838 90.4399 120.238 90.7199 119.638 90.9999L115.798 92.9599C115.358 93.1999 115.438 93.8799 115.718 94.1999C116.078 94.5999 116.638 94.7199 117.078 94.4799Z" fill="#68BA7F"/>
<path d="M116.162 89.8405L125.242 83.7205C125.442 83.6005 124.602 83.4805 124.562 83.4805C124.242 83.4405 123.602 83.3205 123.322 83.5205L114.242 89.6005C114.042 89.7205 114.882 89.8405 114.922 89.8405C115.242 89.8805 115.882 90.0005 116.162 89.8405Z" fill="#68BA7F"/>
<path d="M117.881 82.4398C121.001 80.6398 123.961 78.5998 126.801 76.3998C127.561 75.7998 125.761 75.0798 125.241 75.4798C122.401 77.6798 119.441 79.7198 116.321 81.5198C115.921 81.7598 116.241 82.1598 116.521 82.3198C116.921 82.5998 117.441 82.6398 117.881 82.4398Z" fill="#68BA7F"/>
<path d="M118.88 74.9996C120.4 74.1196 121.92 73.2396 123.36 72.2796C124.12 71.7996 124.84 71.3196 125.56 70.7996C126.24 70.3596 126.88 69.7996 127.4 69.1596C127.68 68.7996 127.16 68.6396 126.88 68.6396C126.4 68.6396 125.92 68.7996 125.6 69.1596C125.08 69.7196 124.52 70.1996 123.88 70.5996C123.24 71.0396 122.56 71.4796 121.92 71.9196C120.52 72.7996 119.12 73.6796 117.68 74.4796C117.44 74.6396 117.08 74.9596 117.48 75.1596C117.88 75.3596 118.52 75.1996 118.88 74.9996Z" fill="#68BA7F"/>
<path d="M121.202 68.0396L128.602 63.3196C128.962 63.1196 129.002 62.7596 128.642 62.5196C128.202 62.2796 127.682 62.2396 127.242 62.4796L119.842 67.1996C119.482 67.3996 119.442 67.7596 119.802 67.9996C120.242 68.2396 120.762 68.2396 121.202 68.0396Z" fill="#68BA7F"/>
<path d="M121.839 61.9198L130.119 56.8798C130.399 56.7198 129.799 56.3198 129.679 56.2398C129.479 56.0798 128.799 55.6798 128.479 55.8398L120.199 60.8798C119.919 61.0398 120.519 61.4398 120.639 61.5198C120.879 61.6398 121.559 62.0798 121.839 61.9198Z" fill="#68BA7F"/>
<path d="M48.6404 49.1201C48.6404 49.1201 54.0404 55.5201 60.0404 55.4401C66.0404 55.3601 77.6004 53.4001 78.8004 59.3601C80.0004 65.3201 71.9604 67.2801 66.8804 66.2401C66.8804 66.2401 68.0004 81.9201 58.7204 86.0401C49.4404 90.1601 45.1604 87.5201 44.4404 93.8801C44.4404 93.8801 32.8404 104.68 31.8404 92.6401C31.6804 90.7601 27.5204 67.5201 41.8004 60.3201C41.7604 60.3201 49.9204 56.7601 48.6404 49.1201Z" fill="white"/>
<path d="M47.8027 49.6802C49.5627 51.7202 51.6427 53.4402 54.0427 54.6802C55.8027 55.6402 57.8027 56.1602 59.8027 56.1602C61.4427 56.1202 63.1227 56.0002 64.7627 55.9202C66.5627 55.8002 68.3627 55.7602 70.1627 55.8402C71.7627 55.8402 73.3627 56.1202 74.8827 56.6802C76.1227 57.1602 77.2027 57.9602 77.6827 59.2402C78.2027 60.6002 78.0027 62.0802 77.2027 63.2802C76.7627 63.8402 76.2027 64.3202 75.5627 64.6402C74.7627 65.0402 73.9227 65.3202 73.0827 65.5202C71.2027 65.9202 69.2827 65.9602 67.4427 65.5602C66.9227 65.4402 65.9227 66.0402 65.9627 66.6402C66.0427 67.9202 66.0427 69.2002 65.9227 70.4802C65.8027 73.2002 65.2427 75.9202 64.3627 78.4802C63.8827 79.8402 63.2427 81.1202 62.4027 82.2802C61.6027 83.4402 60.5627 84.4002 59.3227 85.1202C59.1627 85.2002 58.7227 85.4402 58.4027 85.5602C57.8427 85.8002 57.2427 86.0402 56.6827 86.2802C55.6827 86.6402 54.6827 86.9602 53.6827 87.2402C52.1227 87.6802 50.5627 87.9602 49.0027 88.3602C47.6427 88.6802 46.2827 89.1602 45.2427 90.1202C44.0827 91.2002 43.6427 92.6402 43.4427 94.1602L43.8027 93.6402C43.5627 93.8802 43.2827 94.1202 43.0027 94.3202C42.7227 94.5202 42.4027 94.8002 42.1227 95.0402C41.8827 95.2002 42.2427 94.9602 42.0027 95.1202L41.7227 95.3202C41.5227 95.4802 41.3227 95.6002 41.1227 95.7202C40.6827 96.0002 40.2427 96.2802 39.7627 96.5602C39.5627 96.6802 39.7227 96.6002 39.7627 96.5602L39.6427 96.6402C39.5227 96.6802 39.4027 96.7602 39.2827 96.8002C39.0427 96.9202 38.8027 97.0402 38.5227 97.1602L38.2027 97.2802C38.4027 97.2002 38.0427 97.3202 38.0027 97.3602C37.7627 97.4402 37.4827 97.5202 37.2427 97.5602C37.2027 97.5602 37.1227 97.6002 37.0827 97.6002L36.7227 97.6402C36.5227 97.6402 36.3227 97.6402 36.1227 97.6402C35.2427 97.6002 34.4427 97.2002 33.8827 96.5202C33.0027 95.4402 32.7227 93.9602 32.6027 92.6402C32.4827 91.4802 32.3227 90.3202 32.2027 89.1602C31.7227 84.4002 31.7227 79.5202 32.6427 74.8002C33.1627 72.0402 34.1227 69.4002 35.4827 66.9602C36.8427 64.5602 38.8427 62.5602 41.2427 61.2002C41.6427 60.9602 42.2827 60.6802 42.7627 60.4002C43.6427 59.8802 44.4827 59.3202 45.2827 58.6402C47.5227 56.8002 49.2027 54.2802 49.5227 51.3202C49.6027 50.4802 49.5627 49.6002 49.4427 48.7602C49.3227 48.0002 47.5627 48.8802 47.6827 49.5602C48.0827 51.8802 47.4827 54.2802 46.0827 56.2002C45.0827 57.5202 43.8427 58.6002 42.4027 59.4002C42.2827 59.4802 41.9627 59.6402 42.2427 59.4802L41.9627 59.6402C41.8427 59.6802 41.7227 59.7602 41.6427 59.8002C40.7227 60.2802 39.8027 60.8002 38.9627 61.4402C37.0427 62.8802 35.4027 64.6402 34.1627 66.6802C31.8027 70.4402 30.7627 74.8402 30.3227 79.2402C30.0027 82.8402 30.0427 86.4402 30.4427 90.0402C30.5227 90.9602 30.6827 91.8802 30.7627 92.8002C30.9627 94.5202 31.1627 96.4802 32.4427 97.8402C34.9227 100.48 39.0827 98.2802 41.5227 96.7202C42.5627 96.0402 43.6027 95.2402 44.5627 94.4002L44.8027 94.2002C45.1227 93.8802 45.2827 93.4402 45.2827 93.0002C45.3627 92.5202 45.4827 92.0402 45.6427 91.5602C45.6827 91.4402 45.7627 91.2802 45.8427 91.1602C45.8827 91.0802 45.9227 91.0002 46.0027 90.9202C46.0827 90.8002 46.0827 90.8402 46.0027 90.9202C46.0427 90.8802 46.0827 90.8402 46.1227 90.8002L46.2827 90.6402C46.4027 90.5202 46.2827 90.6402 46.2427 90.6802C46.2827 90.6402 46.3227 90.6002 46.3227 90.6002L46.5227 90.4402C46.3627 90.6002 46.4827 90.4802 46.6027 90.4002C46.7227 90.3202 46.9227 90.2402 46.6827 90.3602L46.9227 90.2402C47.0027 90.2002 47.0827 90.1602 47.2027 90.1202L47.3227 90.0802C47.5627 90.0002 47.1227 90.1602 47.4027 90.0402C48.2827 89.7602 49.2027 89.5202 50.1227 89.3202C53.0027 88.7202 55.8427 87.8402 58.5627 86.7202C62.9627 84.8002 65.4827 80.6402 66.7227 76.1602C67.5627 73.0002 67.9227 69.7202 67.8027 66.4402C67.8027 66.2402 67.8027 66.0802 67.7627 65.8802L66.2827 66.9602C69.8027 67.6802 74.0427 67.1202 77.0027 65.0002C78.4027 63.9602 79.5227 62.5602 79.7227 60.7602C79.9227 59.2002 79.4027 57.6402 78.2827 56.5602C77.1627 55.5602 75.6427 55.0802 74.2027 54.8002C72.3627 54.4802 70.4827 54.3602 68.6027 54.4402C66.7627 54.4802 64.9227 54.6002 63.0427 54.6802C61.1627 54.7602 59.3627 54.8802 57.5627 54.3202C55.4427 53.5602 53.5227 52.4002 51.8427 50.9202C51.0027 50.2002 50.2027 49.4402 49.4827 48.6002C49.0027 48.0402 47.3627 49.1602 47.8027 49.6802Z" fill="#000005"/>
<path d="M26.5604 80.0398C26.5604 80.0398 19.0004 83.7998 16.8004 79.7598C14.6004 75.7198 19.9604 75.6398 19.9604 75.6398C19.9604 75.6398 12.1604 67.9998 20.0004 64.6798C20.0004 64.6798 11.8004 59.3998 15.8804 51.9598C19.9604 44.5198 31.4004 46.3998 31.4004 46.3998C31.4004 46.3998 29.1204 36.7998 37.6804 36.2798C46.2404 35.7598 45.4404 41.9998 45.4404 41.9998C45.4404 41.9998 50.9204 41.5998 51.7604 44.8798C52.6004 48.1598 48.8804 50.3198 48.8804 50.3198C48.8804 50.3198 49.3604 60.1598 41.8004 60.2798L37.2804 73.6798C37.2804 73.6798 40.6404 77.5198 38.8804 82.5598C37.1204 87.5998 27.4404 86.2798 26.5604 80.0398Z" fill="#000005"/>
<path d="M26.0422 79.1603C24.2022 80.0803 22.0022 80.8003 19.8822 80.7203C19.2022 80.7203 18.5622 80.5603 17.9622 80.2803C17.7622 80.1603 17.5622 80.0403 17.3622 79.8403C17.4422 79.9203 17.2422 79.6803 17.2422 79.6803C17.3622 79.8403 17.1622 79.5603 17.1622 79.5603C17.0822 79.4403 17.0422 79.2803 16.9622 79.1603C16.6022 78.1603 17.2022 77.3203 18.1622 76.9203C18.8422 76.6403 19.6022 76.4803 20.3222 76.4803C20.9622 76.4803 20.1222 75.1203 19.9622 74.9603C19.8822 74.9203 19.8422 74.8403 19.7622 74.7603L19.5622 74.5203C19.4422 74.3603 19.6022 74.5603 19.5622 74.5203C19.5222 74.4803 19.4822 74.4003 19.4022 74.3603C19.1622 74.0803 18.9622 73.8003 18.7222 73.5203C18.6822 73.4403 18.6022 73.3603 18.5622 73.2803C18.5222 73.2003 18.4022 73.0403 18.4822 73.2003C18.3622 73.0003 18.2422 72.8403 18.1222 72.6403C17.8822 72.3203 17.7222 71.9603 17.5622 71.5603C17.4022 71.2003 17.2822 70.8403 17.2022 70.4803C17.0022 69.6403 17.0422 68.7603 17.4022 68.0003C18.0022 66.7203 19.2422 65.9603 20.4822 65.4403C20.7222 65.3603 20.5222 64.8403 20.4822 64.7203C20.3622 64.3603 20.1222 64.0803 19.8422 63.8403C19.5222 63.6403 19.2022 63.4003 18.9222 63.1603C18.8822 63.1603 18.7222 63.0003 18.8022 63.0403C18.8822 63.0803 18.6822 62.9203 18.6422 62.8803C18.4822 62.7203 18.3222 62.5603 18.1622 62.4003C18.0022 62.2403 17.8422 62.0403 17.6822 61.8803C17.5222 61.7203 17.4822 61.6403 17.2422 61.4003C16.5622 60.6003 16.0422 59.6803 15.7222 58.6803C15.3622 57.4403 15.3222 56.1203 15.6422 54.8803C16.3622 52.1203 18.2822 49.8403 20.8422 48.6403C23.0422 47.6403 25.4022 47.0803 27.8422 47.0403C29.2022 46.9603 30.5222 47.0403 31.8822 47.2403C32.1222 47.2803 32.1222 46.9603 32.0822 46.8003C32.0022 46.5603 32.0022 46.2803 31.9622 46.0403C31.8822 45.4403 31.8422 44.8803 31.8422 44.2803C31.8422 42.6003 32.1622 40.8403 33.2022 39.4803C34.6822 37.4803 37.2822 37.0403 39.6022 37.1203C40.8422 37.1203 42.0822 37.4003 43.2022 37.9603C43.5222 38.1203 43.8022 38.3603 44.0822 38.6003C44.1222 38.6403 44.1622 38.6803 44.1622 38.7203C44.2422 38.8003 44.0822 38.6003 44.1622 38.6803C44.2422 38.7603 44.2822 38.8403 44.3222 38.8803C44.4822 39.0803 44.2422 38.7203 44.3622 38.9203C44.4022 39.0003 44.4422 39.0803 44.5222 39.1603C44.3622 38.8803 44.5222 39.2003 44.5622 39.2803C44.6022 39.3603 44.6822 39.6003 44.6422 39.4403C44.6022 39.2803 44.6822 39.5603 44.6822 39.6003C44.6822 39.6403 44.7222 39.7603 44.7622 39.8403C44.8022 40.0003 44.7222 39.7203 44.7622 39.9203L44.8022 40.1603C44.8022 40.2803 44.8422 40.4403 44.8422 40.5603C44.8422 40.6003 44.8422 40.8403 44.8422 40.6403C44.8422 40.6803 44.8422 40.7603 44.8422 40.8003C44.8422 40.8403 44.8422 41.0003 44.8422 41.0803C44.8422 41.1603 44.8422 41.2403 44.8422 41.3203C44.8022 41.7603 45.3622 42.8803 45.8822 42.8403C47.2822 42.7203 48.6822 42.9203 50.0022 43.4803C50.2022 43.5603 50.4022 43.6803 50.5622 43.8003C50.6422 43.8803 50.7222 43.9203 50.8422 44.0003C50.8422 44.0003 51.0422 44.2003 50.9622 44.1203C51.0022 44.1603 51.0422 44.2003 51.0822 44.2803C51.0822 44.2803 51.0022 44.1603 51.0822 44.2403C51.0822 44.2803 51.2022 44.4403 51.1622 44.3203C51.1222 44.2003 51.2022 44.4403 51.1622 44.3603C51.2422 44.6003 51.2822 44.8403 51.3222 45.1203C51.3222 46.2403 50.8422 47.3603 50.0422 48.1603C49.5622 48.6803 49.0022 49.1203 48.4022 49.4803C48.3222 49.5203 48.2822 49.6003 48.2822 49.7203C48.4022 52.6003 47.6422 56.2403 45.2422 58.1203C44.1222 58.9603 42.8022 59.4003 41.4022 59.4003C41.3222 59.4003 41.2422 59.4403 41.2022 59.5203L36.9222 72.1603C36.8422 72.4003 36.7622 72.6003 36.6822 72.8403C36.5622 73.3603 36.8422 73.8003 37.1622 74.2003C37.2422 74.2803 37.5222 74.6803 37.3222 74.4403C37.4822 74.7203 37.6422 74.9603 37.8022 75.2403C37.6822 75.0403 37.8422 75.3203 37.8422 75.3203C37.8822 75.4003 37.9222 75.5203 37.9622 75.6003C38.0022 75.6803 38.1222 75.9203 38.1222 75.9603C38.2822 76.4003 38.4422 76.8403 38.5222 77.2803C38.8822 79.0803 38.7622 81.3603 37.6022 82.8803C36.7222 83.8803 35.4822 84.5203 34.1622 84.6403C32.5622 84.8403 30.9622 84.4803 29.5622 83.7203C28.9222 83.3603 28.3622 82.9203 27.8822 82.3203C27.6822 82.0803 27.5222 81.8003 27.4022 81.4803C27.2822 81.1203 27.1622 80.7603 27.1222 80.4003C27.0422 79.9203 26.7622 79.4803 26.4022 79.2003C26.0822 79.0003 25.8422 79.1203 25.8822 79.5203C26.4822 83.5203 30.1222 86.4803 34.1222 86.4803C35.7222 86.4803 37.4422 86.0003 38.5622 84.7603C39.2022 83.9603 39.6022 83.0403 39.7622 82.0403C40.0422 80.7203 40.0022 79.3603 39.7222 78.0803C39.3622 76.3203 38.5622 74.6803 37.4022 73.2803L37.8022 74.4803L41.7622 62.7603L42.3222 61.0803L42.1222 61.2003C44.5622 61.2003 46.8022 59.8803 47.9622 57.7203C48.8422 56.0403 49.3222 54.1603 49.4022 52.2803C49.4422 51.8403 49.4422 51.4403 49.4422 51.0003L49.3222 51.2403C51.0422 50.2403 52.5222 48.4003 52.4422 46.3603C52.3622 44.8003 51.6022 43.3603 50.3622 42.4403C49.4022 41.8003 48.2822 41.4003 47.1222 41.2803C46.4022 41.2003 45.7222 41.1603 45.0022 41.2003L46.0422 42.7203C46.1222 41.6803 45.9622 40.6403 45.5222 39.6803C44.6822 37.6403 42.8822 36.1603 40.7222 35.7203C38.1622 35.1203 34.8422 35.2803 32.7622 37.0803C31.2822 38.4003 30.6422 40.3603 30.4822 42.2803C30.4022 43.5203 30.4822 44.8003 30.7622 46.0403L30.9622 45.6003C29.7622 45.4403 28.5222 45.3603 27.3222 45.4003C24.8022 45.4003 22.3222 45.9203 20.0022 46.9203C17.2822 48.1203 15.2022 50.4803 14.3622 53.3603C13.5622 56.3203 14.4822 59.2403 16.2022 61.6803C17.2422 63.1603 18.5222 64.4803 20.0422 65.4803L19.4022 63.8803C18.1622 64.4003 16.9622 65.1603 16.3222 66.3603C15.8422 67.3203 15.6822 68.3603 15.8822 69.4003C16.2422 71.4803 17.4422 73.4403 18.7622 75.0803C19.0822 75.4803 19.4422 75.9203 19.8422 76.2803L19.4822 74.7603C18.7222 74.7603 17.9222 74.8803 17.2022 75.1603C16.0022 75.5603 15.3222 76.8403 15.6422 78.0803C16.0422 79.9603 17.3622 81.7603 19.2422 82.2803C20.8022 82.6803 22.4422 82.4403 24.0022 82.0003C25.0422 81.7203 26.0822 81.3603 27.0422 80.8803C27.5622 80.6403 26.6022 78.8803 26.0422 79.1603Z" fill="#000005"/>
<path d="M43.3625 61.8804C43.3625 61.8804 40.8825 55.6004 36.4825 57.8804C32.0825 60.1604 33.3625 75.2004 41.6025 73.0004" fill="white"/>
<path d="M44.2817 62.2001C43.6417 60.5201 42.4817 59.0801 41.0017 58.0401C39.7617 57.2401 38.1617 56.7201 36.6817 57.0801C35.7217 57.2801 34.8817 57.8801 34.3617 58.6801C33.2417 60.3601 33.0017 62.6801 33.1217 64.6401C33.2417 66.8401 33.8417 69.1201 35.2017 70.8801C36.9217 73.0801 39.7617 74.0801 42.4817 73.4401C42.7617 73.3601 42.0017 72.9201 41.9617 72.8801C41.6017 72.6401 41.2017 72.5201 40.7617 72.5601C40.2817 72.6801 39.7617 72.7601 39.2417 72.7601C39.0417 72.7601 38.8417 72.7601 38.6417 72.7201C38.5217 72.7201 38.4017 72.6801 38.2817 72.6401C38.4817 72.7201 38.1217 72.6001 38.3217 72.6401C38.1217 72.5601 38.3617 72.6801 38.2017 72.5601C38.1617 72.5201 38.0817 72.5201 38.0417 72.4801C37.9617 72.4001 37.8417 72.3201 37.7617 72.2801C37.4417 72.0001 37.1617 71.6801 36.8817 71.3601C35.7217 69.8001 35.1617 67.7601 35.0017 65.8401C34.8417 64.0001 34.9617 61.9601 35.7617 60.2401C36.0417 59.5601 36.4817 58.9601 37.0817 58.5201C37.5217 58.2001 38.0417 58.0001 38.6017 57.9201C38.8817 57.8801 39.1217 57.8401 39.4017 57.8801L39.6017 57.9201C39.8817 57.9601 39.5217 57.8801 39.6817 57.9601C39.8417 58.0401 39.5617 57.9201 39.7217 58.0001C39.5617 57.9201 39.6817 58.0001 39.7217 58.0001C39.6017 57.9201 39.8417 58.0801 39.8417 58.0801L40.0817 58.2401C40.2817 58.4001 40.4817 58.6001 40.6817 58.8001C41.0417 59.2001 41.3617 59.6001 41.6417 60.0801C41.9617 60.6001 42.2417 61.1201 42.4817 61.6801C42.6017 62.0001 43.2417 62.2001 43.5617 62.3201C43.6017 62.2401 44.4017 62.4401 44.2817 62.2001Z" fill="#000005"/>
<path d="M57.4025 70.0807C58.2425 72.4807 60.2025 74.6007 62.6425 75.3207C63.8425 75.6807 65.0825 75.6807 66.3225 75.4007C66.5225 75.4007 66.6425 75.2007 66.6025 75.0407C66.6025 74.9607 66.5625 74.8807 66.4825 74.8007C66.2025 74.5607 65.8425 74.4407 65.4425 74.5207C63.9625 74.9207 62.3625 74.5207 61.1625 73.5207C60.2825 72.7607 59.5625 71.8407 59.0825 70.8007C59.0025 70.6407 58.9225 70.4807 58.8425 70.3207C58.8025 70.2407 58.7225 70.0407 58.8025 70.2407C58.6425 69.9207 58.3625 69.7207 58.0025 69.6807C57.8825 69.6807 57.2825 69.7207 57.4025 70.0807Z" fill="#000005"/>
<path d="M54.4003 56.8398C54.4003 56.8398 55.6403 56.9998 55.3603 58.1998C55.0803 59.3998 53.6403 59.0398 53.5603 57.9598C53.4403 57.4798 53.7603 56.9598 54.2803 56.8398C54.3203 56.8798 54.3603 56.8398 54.4003 56.8398Z" fill="#000005"/>
<path d="M61.6016 112.28C61.6016 112.28 69.4016 103.84 69.3616 99.6001C69.3216 95.3601 67.3216 92.6001 70.0016 91.2401C72.6816 89.8801 74.1616 97.4801 74.1616 97.4801C74.1616 97.4801 78.4816 94.4001 80.8416 97.0801C80.8416 97.0801 84.8416 94.7601 88.1616 95.3601C91.4816 95.9601 91.2816 98.4001 89.1216 99.1201C87.7616 99.6001 86.5216 100.28 85.4016 101.16L81.8816 103.44C80.9616 104.04 80.2816 104.92 79.9216 105.96C79.6416 106.84 79.6416 107.92 80.4816 108.76C82.3216 110.6 90.7616 113 89.1216 115.88C87.4816 118.76 81.0816 114.8 76.9616 117.16C74.5616 118.52 72.6816 120.6 71.6016 123.16" fill="white"/>
<path d="M62.4794 112.76C63.4794 111.68 64.3994 110.56 65.3194 109.4C66.9594 107.32 68.5194 105.16 69.5994 102.76C70.0794 101.8 70.3194 100.72 70.3594 99.6401C70.3594 97.9601 69.9194 96.3601 69.6794 94.6801C69.5194 93.6001 69.5194 92.5601 70.5194 91.9601C70.5994 91.9201 70.6394 91.8801 70.7194 91.8401C70.5994 91.9201 70.6794 91.8401 70.7194 91.8401C70.9194 91.7201 70.6794 91.8801 70.7994 91.8001C70.9194 91.7201 70.7594 91.8401 70.7194 91.8001C70.6794 91.7601 70.9594 91.8801 70.7594 91.8001C70.5594 91.7201 70.7194 91.8001 70.7594 91.8001C70.6794 91.7201 70.9594 91.8801 70.7594 91.8001C70.8394 91.8801 70.8394 91.8401 70.8794 91.8801C70.9594 91.9601 70.7194 91.7601 70.8394 91.8401C70.9594 91.9201 70.9994 91.9601 71.0794 92.0401C70.9194 91.9201 71.1194 92.1201 71.1594 92.1601C71.2394 92.2801 71.3194 92.3601 71.3994 92.4801C71.9594 93.4401 72.3994 94.4801 72.6794 95.5601C72.7994 96.0001 72.9194 96.4801 73.0394 96.9201L73.0794 97.0001C73.0394 96.8401 73.1194 97.1601 73.0794 97.0001C73.0794 97.0401 73.1194 97.1201 73.1194 97.1601C73.1194 97.2001 73.1594 97.2401 73.1594 97.3201C73.2794 97.9601 74.2794 98.4801 74.8394 98.0401C75.4394 97.6001 76.1194 97.2401 76.8394 97.0001C77.3994 96.7601 77.9994 96.6801 78.5994 96.6801C79.1194 96.6801 79.6394 96.9201 79.9994 97.3201C80.3594 97.7601 80.9994 97.9201 81.5594 97.6801C83.1994 96.6801 85.0794 96.1201 86.9994 96.0001C87.6394 95.9601 88.3194 96.0401 88.9194 96.2801C89.0794 96.3601 89.2394 96.4401 89.3594 96.5201C89.3994 96.5201 89.5594 96.6801 89.4794 96.6001C89.5194 96.6401 89.5594 96.6801 89.5994 96.7201C89.6794 96.8401 89.5994 96.7201 89.6394 96.8001C89.7994 97.0401 89.7994 97.3601 89.6394 97.6401C89.4394 97.9601 89.1994 98.2001 88.8794 98.3201C88.2394 98.6001 87.5194 98.8401 86.8794 99.1601C86.3194 99.4401 85.7994 99.7601 85.2794 100.12C84.9194 100.36 84.5594 100.64 84.1994 100.88L81.9594 102.32C81.2394 102.76 80.5594 103.28 79.9994 103.92C79.0794 105 78.5194 106.68 79.1194 108.04C79.5594 109.04 80.4394 109.64 81.3194 110.16C83.0794 111.2 84.9994 111.96 86.7594 113.08C87.1194 113.28 87.4394 113.56 87.7594 113.8L87.9594 114C88.0794 114.12 87.9194 113.96 88.0394 114.08C88.0794 114.16 88.1594 114.2 88.1994 114.28C88.2394 114.36 88.3594 114.56 88.2794 114.4C88.3194 114.48 88.3594 114.56 88.3594 114.6C88.3594 114.64 88.4394 114.84 88.3994 114.68C88.3994 114.76 88.3994 114.84 88.4394 114.88V114.96C88.4394 115.16 88.4794 114.88 88.4394 115C88.3994 115.12 88.3594 115.28 88.2794 115.4C88.2394 115.44 87.9994 115.76 87.9994 115.76C87.7594 115.96 87.4394 116.08 87.1594 116.12C86.7194 116.16 86.2794 116.16 85.8394 116.12C84.6794 116.04 83.4794 115.8 82.3194 115.68C80.9994 115.48 79.6394 115.52 78.3594 115.76C76.9994 116.08 75.7594 116.72 74.6794 117.64C73.0394 118.92 71.7194 120.56 70.8794 122.48C70.8394 122.56 70.7994 122.68 70.7594 122.8C70.4394 123.68 72.3594 124.32 72.6794 123.4C73.2394 121.96 74.1194 120.68 75.2394 119.64C76.1994 118.68 77.3994 117.72 78.7194 117.32C79.8794 117.04 81.0794 116.96 82.2794 117.16C83.5194 117.28 84.7594 117.52 85.9994 117.64C87.0394 117.72 88.1994 117.72 89.1594 117.2C89.9594 116.8 90.4394 116 90.3994 115.12C90.3194 114.24 89.7194 113.52 89.0794 112.96C87.4794 111.52 85.3994 110.68 83.5194 109.68C83.0794 109.48 82.6794 109.24 82.2394 109C82.0794 108.88 81.8794 108.8 81.7194 108.68C81.5594 108.56 81.8394 108.76 81.6394 108.64C81.5594 108.6 81.4794 108.52 81.4394 108.48C80.3994 107.6 80.9594 105.96 81.6794 105.04C82.2394 104.4 82.9194 103.88 83.6394 103.48L85.9194 102C86.3594 101.72 86.7594 101.36 87.1994 101.08C87.7994 100.68 88.4394 100.32 89.1194 100.04C89.7194 99.8401 90.3194 99.6001 90.8394 99.2401C91.6394 98.6801 91.9994 97.6801 91.6794 96.7601C91.1994 95.5201 89.7594 94.9201 88.5594 94.6801C85.9194 94.1201 83.1194 95.0401 80.7594 96.2001C80.5994 96.2801 80.3994 96.3601 80.2394 96.4801L81.7994 96.8401C79.5594 94.4001 75.9994 95.1601 73.5594 96.8801L75.2394 97.6001C74.9594 95.9201 74.3994 94.2801 73.6394 92.7601C73.1194 91.7601 72.3994 90.8001 71.2794 90.4801C69.9594 90.1601 68.5594 90.8401 67.9994 92.0801C67.4394 93.2801 67.8394 94.8001 68.0794 96.0401C68.3594 97.4801 68.6794 99.1601 68.3594 100.52C67.7594 103.04 66.0394 105.36 64.5194 107.4C63.3594 108.96 62.1194 110.44 60.8394 111.88C60.0794 112.56 61.8394 113.44 62.4794 112.76Z" fill="#000005"/>
<path d="M76.0013 103.12C76.4013 102.56 76.8013 102.04 77.2013 101.52C77.9613 100.52 78.8413 99.6405 79.8013 98.8005C80.0413 98.6005 80.3213 98.4005 80.5613 98.2405C80.6813 98.1605 80.8013 98.0805 80.9613 98.0405L81.1213 97.9605C81.1613 97.9605 81.3613 97.8805 81.2413 97.9205C81.6413 97.8005 81.5213 97.3205 81.4013 97.0005C81.2813 96.7605 81.1613 96.5605 80.9613 96.3605C80.8413 96.2805 80.6413 96.0805 80.4813 96.1205C79.3213 96.4005 78.4013 97.3205 77.6013 98.1605C76.7613 99.0405 75.9613 99.9605 75.2413 100.96C75.0813 101.16 74.9213 101.36 74.8013 101.6C74.4013 102.16 75.5613 103.76 76.0013 103.12Z" fill="#000005"/>
<path d="M73.0414 100.241C73.2014 99.9606 73.4014 99.7206 73.5614 99.4406C73.9214 98.9606 74.3214 98.5206 74.7614 98.1206L74.6814 98.1606C74.8014 98.0806 74.8814 98.0006 75.0014 97.9206C75.2814 97.7606 74.6814 97.3206 74.5614 97.2406C74.3614 97.0806 74.1214 97.0006 73.8814 96.9206L73.6814 96.8806C73.6014 96.8406 73.4814 96.8406 73.4014 96.8806C72.9614 97.1606 72.5214 97.5606 72.2014 97.9606C71.9214 98.3206 71.6414 98.6806 71.4014 99.0406C71.3614 99.1206 71.3214 99.2006 71.2414 99.2806C71.1614 99.3606 71.3614 99.5606 71.4014 99.6006C71.5614 99.7606 71.7614 99.8806 71.9614 100.001C72.1614 100.121 72.4014 100.201 72.6414 100.241C72.7614 100.281 72.9214 100.361 73.0414 100.241Z" fill="#000005"/>
<path d="M12.2794 160.6C12.2794 160.6 11.1194 91.3203 33.9194 87.6003C56.7194 83.8803 91.6794 147.52 91.6794 147.52" fill="white"/>
<path d="M13.1212 161.08C13.1212 160.48 13.1212 159.88 13.1212 159.24C13.1212 157.56 13.1612 155.88 13.2012 154.24C13.2412 151.76 13.3612 149.28 13.4813 146.8C13.6413 143.76 13.8412 140.72 14.0812 137.68C14.3612 134.32 14.7212 130.96 15.2012 127.6C15.6812 124.12 16.2412 120.68 16.9212 117.24C17.6012 113.96 18.4012 110.68 19.4012 107.48C20.2812 104.56 21.4013 101.76 22.7613 99C23.9213 96.64 25.4013 94.44 27.1613 92.48C28.6812 90.8 30.6013 89.52 32.7213 88.76C33.7613 88.4 34.8012 88.24 35.8812 88.2C36.4012 88.16 36.9613 88.2 37.4813 88.24C38.0813 88.28 38.6412 88.4 39.2412 88.52L39.6812 88.6C39.5212 88.56 39.8812 88.64 39.9612 88.68C40.2812 88.76 40.5613 88.84 40.8813 88.96C41.4813 89.16 42.0813 89.4 42.6812 89.64L42.8813 89.72L42.8412 89.68L42.9612 89.76L43.4412 90C43.7612 90.16 44.0412 90.28 44.3612 90.44C45.0012 90.76 45.6013 91.12 46.2013 91.48L46.6813 91.76L46.8813 91.88C46.8813 91.88 47.0013 91.96 46.9213 91.88L47.0013 91.96C47.3213 92.16 47.6013 92.36 47.9213 92.56C48.5613 93 49.2013 93.44 49.8013 93.92C50.4413 94.4 51.0812 94.88 51.6813 95.4C52.0013 95.68 52.3213 95.92 52.6413 96.2L52.8013 96.32L53.0013 96.48L53.4813 96.88C56.1213 99.24 58.6413 101.76 61.0413 104.44C63.5613 107.2 65.8413 110 68.1613 112.96C70.4813 115.92 72.6813 118.92 74.8013 122C76.8013 124.84 78.7613 127.72 80.6413 130.64C82.2813 133.16 83.8813 135.68 85.4413 138.24C86.0813 139.28 86.7213 140.32 87.3613 141.4C87.6413 141.84 87.9212 142.32 88.1612 142.76C88.2412 142.88 88.2812 142.96 88.3613 143.08L88.4013 143.16L88.4413 143.24L88.8013 143.84C89.4013 144.88 90.0413 145.96 90.6413 147.04L90.8812 147.44C91.1213 147.88 91.5213 148.2 92.0013 148.28C92.4013 148.32 92.6813 148.04 92.4813 147.64C92.1613 147.08 91.8413 146.48 91.5213 145.92C90.6013 144.32 89.6813 142.72 88.7213 141.12C87.3213 138.8 85.9212 136.52 84.4813 134.24C82.7213 131.44 80.9213 128.68 79.0413 125.96C76.9613 122.92 74.8413 119.92 72.6413 116.96C70.3613 113.92 68.0412 110.92 65.5612 108C63.0812 105.08 60.6413 102.32 57.9613 99.68C55.5212 97.24 52.9613 94.96 50.2013 92.88C47.8013 91.04 45.1613 89.48 42.3612 88.28C40.0412 87.24 37.4813 86.72 34.9213 86.76C32.6413 86.84 30.4012 87.56 28.4812 88.8C26.4412 90.2 24.6812 92 23.3212 94.04C21.7212 96.44 20.3612 99 19.3212 101.68C18.1212 104.72 17.1212 107.8 16.3212 110.96C15.4412 114.32 14.7612 117.72 14.2012 121.16C13.6412 124.6 13.1612 128.08 12.7612 131.52C12.4012 134.8 12.1213 138.08 11.8813 141.36C11.6813 144.16 11.5612 147 11.4412 149.8C11.3612 151.92 11.3213 154.04 11.2812 156.16C11.2812 157.32 11.2812 158.52 11.2812 159.68C11.2812 159.84 11.2812 160 11.2812 160.12C11.3213 160.56 11.6012 160.96 12.0412 161.16C12.3212 161.32 13.1212 161.56 13.1212 161.08Z" fill="#000005"/>
<path d="M49.2022 94.0398C46.8422 94.7598 44.7222 95.9998 42.9622 97.6798C41.2022 99.3998 39.8822 101.48 39.1222 103.8C38.6422 105.08 38.2422 106.44 37.4422 107.56C36.8022 108.48 35.9622 109.28 35.0022 109.88C32.8822 111.28 30.3622 112.08 28.0022 112.92C24.9222 114 21.7222 114.84 18.4422 114.8C18.0022 114.8 17.4022 114.96 17.1622 115.4C16.9222 115.84 17.3622 116.12 17.7222 116.12C20.7622 116.12 23.8022 115.64 26.6822 114.68C29.4022 113.88 32.0022 112.88 34.5222 111.64C36.8022 110.48 38.8022 108.88 39.9222 106.52C40.5222 105.28 40.8822 103.92 41.4022 102.64C42.8822 99.1198 45.8422 96.3998 49.5222 95.2398C49.8822 95.1198 50.4422 94.8398 50.3222 94.3998C50.2022 93.9598 49.5222 93.9198 49.2022 94.0398Z" fill="#000005"/>
<path d="M57.7999 104.16C54.5599 105.2 51.7999 107.32 49.9599 110.16C47.7999 113.36 46.9199 117.04 45.9999 120.72C45.7999 121.64 45.3599 122.48 44.6799 123.16C43.9999 123.76 43.2799 124.32 42.5199 124.8C38.0799 127.88 33.0799 130.12 27.7999 131.36C23.9199 132.24 19.8799 132.56 15.9199 132.32C15.4399 132.28 14.9599 132.4 14.5199 132.56C14.1999 132.72 14.1999 132.88 14.5999 132.88C22.2399 133.36 29.8799 132 36.8799 128.88C38.5999 128.12 40.2799 127.24 41.8799 126.28C43.4799 125.36 44.9599 124.32 46.3999 123.16C47.0799 122.56 47.5999 121.8 47.8399 120.92C48.1199 120 48.2799 119.08 48.5199 118.12C48.9999 116.12 49.6399 114.2 50.5199 112.32C52.1999 108.8 55.0399 105.48 58.8799 104.32C59.1199 104.24 59.4799 104.12 59.1599 103.92C58.8399 103.72 58.1199 104.04 57.7999 104.16Z" fill="#000005"/>
<path d="M69.6032 117.92C63.1632 119.08 57.9632 123.8 56.2432 130.12C55.9632 131.12 55.8032 132.2 55.7232 133.24C55.6432 134.64 55.6832 135.88 54.9232 137.12C53.6832 139.16 51.8832 140.96 50.0832 142.52C48.2432 144.12 46.2432 145.52 44.1232 146.76C39.8032 149.24 35.2832 151.32 30.5632 152.92C25.0832 154.84 18.8032 156.36 13.2032 154.04C12.9232 153.92 12.3232 153.8 12.2832 154.24C12.2432 154.68 12.8432 155.04 13.1632 155.16C18.3232 157.28 24.0032 156.64 29.2032 155.08C31.7232 154.32 34.2032 153.4 36.6032 152.4C38.9232 151.44 41.2032 150.4 43.4032 149.24C47.6832 146.96 51.7632 144.12 54.9232 140.44C55.7232 139.52 56.6032 138.48 57.0832 137.36C57.5632 136.12 57.4431 134.76 57.5632 133.44C57.7631 131.32 58.4032 129.28 59.4432 127.44C61.8032 123.2 66.0032 120 70.8032 119.24C71.2432 119.16 71.0432 118.64 70.8432 118.44C70.5632 118.08 70.0832 117.88 69.6032 117.92Z" fill="#000005"/>
<path d="M123.52 69.8799C123.52 69.8799 141.44 119.76 139.52 121.48C137.6 123.2 131.64 124.88 131.08 121.32C130.52 117.76 120 70.7999 120 70.7999L123.52 69.8799Z" fill="#000005"/>
<path d="M122.522 69.9999C123.122 71.7199 123.722 73.3999 124.322 75.1199C125.762 79.1999 127.202 83.3199 128.602 87.3999C130.282 92.3199 131.962 97.2799 133.562 102.24C134.962 106.52 136.322 110.8 137.482 115.12C137.882 116.56 138.242 118 138.482 119.44C138.522 119.68 138.562 119.92 138.602 120.2C138.602 120.32 138.642 120.4 138.642 120.52C138.682 120.8 138.642 120.32 138.642 120.6C138.642 120.76 138.642 120.92 138.642 121.04C138.642 121.16 138.602 121.16 138.642 121C138.602 121.08 138.562 121.12 138.642 121.04C138.842 120.88 138.682 120.96 138.682 121C138.682 121.04 138.802 120.92 138.682 121L138.522 121.12C138.282 121.28 138.042 121.44 137.762 121.6C137.202 121.88 136.602 122.12 136.002 122.32C135.402 122.52 134.762 122.6 134.122 122.64C133.922 122.64 134.362 122.64 134.042 122.64H133.842C133.682 122.64 133.522 122.6 133.362 122.6C133.282 122.6 133.242 122.6 133.162 122.56C133.402 122.6 133.122 122.56 133.082 122.52C133.042 122.48 132.682 122.36 132.842 122.44C132.722 122.4 132.602 122.32 132.482 122.24C132.642 122.36 132.362 122.12 132.322 122.08C132.202 121.96 132.442 122.24 132.282 122.04L132.202 121.88C132.122 121.76 132.082 121.64 132.042 121.48C132.002 121.28 131.962 121.08 131.922 120.88C131.842 120.48 131.762 120.04 131.682 119.64C130.962 116.12 130.202 112.6 129.402 109.04C128.282 103.92 127.162 98.8399 126.042 93.7199C124.962 88.8799 123.882 83.9999 122.802 79.1599C122.202 76.4399 121.602 73.7199 120.962 70.9999L120.882 70.6399L120.322 71.5199L123.842 70.5999C124.242 70.4799 124.482 70.0399 124.362 69.6399C124.362 69.5999 124.322 69.5599 124.322 69.4799C124.002 69.0799 123.482 68.8799 123.002 69.0799L119.482 69.9999C119.122 70.1199 118.882 70.4799 118.922 70.8799C119.362 72.8399 119.802 74.8399 120.242 76.7999C121.282 81.3999 122.282 85.9999 123.322 90.5999C124.482 95.8799 125.682 101.16 126.842 106.44C127.722 110.48 128.602 114.52 129.442 118.56C129.642 119.48 129.842 120.4 130.002 121.36C130.562 124.56 134.282 124.52 136.762 123.8C137.482 123.6 138.162 123.32 138.802 122.96C139.362 122.72 139.842 122.36 140.282 121.92C140.482 121.64 140.602 121.28 140.602 120.92C140.562 119.8 140.402 118.72 140.122 117.64C139.242 113.72 138.042 109.84 136.842 106.04C135.282 101.04 133.602 96.0399 131.922 91.0799C130.362 86.5199 128.802 81.9999 127.202 77.4799C126.322 74.9999 125.442 72.5199 124.562 70.0399C124.522 69.9199 124.482 69.7999 124.442 69.6799C124.282 69.1999 123.762 68.9199 123.282 68.9999C122.922 69.1199 122.362 69.5199 122.522 69.9999Z" fill="#000005"/>
<path d="M117.163 77.4402C128.827 77.4402 138.283 67.9845 138.283 56.3202C138.283 44.6559 128.827 35.2002 117.163 35.2002C105.499 35.2002 96.043 44.6559 96.043 56.3202C96.043 67.9845 105.499 77.4402 117.163 77.4402Z" fill="white"/>
<path d="M94.7197 61.6402C95.8397 66.0402 98.3597 70.0002 101.84 72.9202C109.6 79.2802 120.48 80.2402 129.24 75.3602C133.12 73.1602 136.24 69.8002 138.16 65.8002C140.08 61.7602 140.72 57.2402 139.96 52.8402C139.16 48.2802 136.96 44.0802 133.64 40.8402C126.64 34.0402 115.52 32.2802 106.72 36.4402C102.6 38.3602 99.1997 41.4802 96.9197 45.4002C94.6797 49.2802 93.7197 53.7202 94.1197 58.1602C94.2397 59.3202 94.4397 60.4802 94.7197 61.6402C94.7997 61.9602 95.3597 62.2002 95.5997 62.2802C96.0797 62.4802 96.5997 62.5202 97.1197 62.4802C97.7597 62.4402 98.7997 62.2002 98.5997 61.3602C96.5197 53.0802 99.7997 44.4002 106.76 39.5602C107.16 39.2802 107.6 39.0002 108.04 38.7602C108.44 38.5202 108.88 38.2802 109.28 38.0802C109.76 37.8402 110.2 37.6402 110.68 37.4802C110.88 37.4002 111.12 37.3202 111.36 37.2402L111.76 37.1202C111.84 37.1202 112.4 36.9202 112.04 37.0402C112.56 36.8802 113.04 36.7602 113.56 36.6402L114.28 36.5202L114.68 36.4402L114.96 36.4002C115.16 36.3602 115.16 36.3602 114.88 36.4002C115.12 36.3202 115.36 36.3202 115.6 36.3202C115.88 36.2802 116.16 36.2802 116.44 36.2402L117.12 36.2002C117.24 36.2002 117.4 36.2002 117.52 36.2002H117.4H117.68C118.2 36.2002 118.68 36.2402 119.2 36.3202L119.56 36.3602C119.76 36.4002 119.92 36.2802 119.52 36.3602C119.84 36.3602 120.16 36.4402 120.48 36.5202C120.96 36.6002 121.44 36.7202 121.92 36.8402C122 36.8802 122.48 36.9602 121.96 36.8402C122.04 36.8402 122.16 36.8802 122.2 36.9202C122.52 37.0002 122.8 37.1202 123.08 37.2002C123.56 37.3602 124 37.5602 124.44 37.7602L124.8 37.9202C124.76 37.8802 124.48 37.7602 124.76 37.9202C125.04 38.0802 125.32 38.2002 125.6 38.3602C126.04 38.6002 126.44 38.8402 126.88 39.0802L127.44 39.4402L127.76 39.6802C127.8 39.7202 128.24 40.0402 128 39.8402C131.36 42.3202 133.84 45.8002 135.16 49.7602C137.84 57.8002 135.28 66.6802 128.72 72.0802C127.92 72.7602 127.04 73.3602 126.16 73.8802L125.8 74.0802C125.4 74.3202 126.04 73.9602 125.64 74.1602C125.44 74.2802 125.24 74.3602 125.04 74.4802C124.52 74.7202 124.04 74.9602 123.48 75.1602C122.92 75.3602 122.52 75.5202 122 75.6802C122.36 75.5602 121.92 75.7202 121.88 75.7202L121.48 75.8402C121.2 75.9202 120.92 76.0002 120.64 76.0402C120.12 76.1602 119.6 76.2402 119.08 76.3202C119.56 76.2802 119.08 76.3202 119 76.3202L118.6 76.3602C118.32 76.4002 118.04 76.4002 117.76 76.4402C117.48 76.4802 117.2 76.4802 116.92 76.4802C116.88 76.4802 116.44 76.4802 116.76 76.4802C117.08 76.4802 116.64 76.4802 116.6 76.4802C116.04 76.4802 115.48 76.4402 114.96 76.3602L114.56 76.3202C114.08 76.2802 115 76.4002 114.56 76.3202L113.88 76.2002C113.36 76.1202 112.84 76.0002 112.28 75.8402C112.2 75.8002 111.72 75.7202 112.24 75.8402C112.12 75.8002 111.96 75.7602 111.84 75.7202C111.64 75.6402 111.4 75.6002 111.2 75.5202C110.68 75.3602 110.2 75.1602 109.68 74.9202L109.32 74.7602C109.68 74.9202 109.28 74.7202 109.24 74.7202C109.04 74.6402 108.84 74.5202 108.64 74.4002C108.16 74.1602 107.68 73.8802 107.24 73.6002C106.84 73.3202 106.4 73.0402 106.04 72.7602C106.28 72.9202 105.92 72.6802 105.92 72.6802L105.6 72.4402C105.4 72.2802 105.2 72.0802 105 71.9202C104.2 71.2402 103.48 70.5202 102.8 69.7202C101.48 68.1602 100.4 66.4002 99.5997 64.4802C99.1597 63.4802 98.8397 62.4402 98.5597 61.3602C98.4797 61.0402 97.9197 60.8002 97.6797 60.7202C97.1997 60.5602 96.6797 60.4802 96.1597 60.5202C95.5997 60.5602 94.5197 60.8002 94.7197 61.6402Z" fill="#000005"/>
<path d="M90.9223 135.16L114.922 110.48C111.202 108.56 117.042 90.4001 122.402 85.1201L125.682 98.0401C126.082 98.8401 126.802 100.4 127.482 100.48C129.882 99.2001 131.762 97.1201 132.842 94.6401L130.322 87.5601C135.042 85.8801 138.322 86.3201 138.322 86.3201C145.082 86.6401 143.802 92.3601 143.802 92.3601C151.322 96.4001 146.882 102.56 146.882 102.56C149.522 100.36 158.322 99.2801 158.242 103.84C158.162 108.4 153.442 107.76 144.522 112.48C135.602 117.2 134.682 122.28 134.682 122.28C134.682 122.28 113.522 163.68 90.3223 164.76C67.1223 165.84 56.4023 151.76 56.4023 151.76L81.1223 130.4C81.1223 130.4 81.9223 131.4 85.0023 134.08C88.2023 136.88 90.9223 135.16 90.9223 135.16Z" fill="white"/>
<path d="M91.56 135.16L99.68 126.8L112.6 113.52L115.56 110.48C115.68 110.36 115.96 110 115.72 109.84C114.88 109.4 114.72 108.08 114.68 107.2C114.64 105.48 114.84 103.76 115.28 102.12C116.2 97.8801 117.72 93.8001 119.76 89.9601C120.68 88.2401 121.76 86.4401 123.12 85.1201L121.68 85.6401L124.76 97.7601C124.96 98.5201 125.24 99.2001 125.64 99.8801C126.08 100.64 126.64 101.4 127.6 100.92C127.88 100.76 128.2 100.6 128.44 100.44C129.84 99.5601 131.04 98.4801 132.08 97.2001C132.72 96.4001 133.28 95.4801 133.72 94.5201C133.88 94.1201 133.8 93.9601 133.68 93.6001L131.32 86.9601L130.24 88.0801C133.92 86.7601 142.72 85.1601 143.16 91.2401C143.2 91.7601 143.16 92.2401 143.08 92.7601C143.08 92.8401 143.12 92.9201 143.2 92.9201C145.16 94.0001 147.08 95.6401 147.4 97.9601C147.56 99.3201 147.32 100.72 146.68 101.96L146.52 102.28C146.44 102.4 146.56 102.2 146.52 102.32L146.48 102.4C146.44 102.48 146.4 102.56 146.32 102.6C146.16 102.8 146.16 103.04 146.44 103.08C146.84 103.04 147.2 102.88 147.48 102.64C147.52 102.6 147.56 102.56 147.64 102.52C147.44 102.64 147.76 102.44 147.64 102.52L147.92 102.36C147.72 102.48 148.08 102.28 148.12 102.24C148.24 102.16 148.4 102.12 148.52 102.04L148.72 101.96L149.16 101.8C149.44 101.72 149.68 101.64 150 101.56C151.24 101.24 152.56 101.12 153.84 101.2C154.84 101.28 156.04 101.52 156.8 102.28C157.56 103 157.64 104.08 157.44 105.08C157.36 105.48 157.2 105.84 156.96 106.2C156.84 106.4 156.96 106.2 156.84 106.36C156.72 106.52 156.68 106.52 156.6 106.6C156.76 106.48 156.56 106.64 156.48 106.68C156.4 106.72 156.28 106.84 156.4 106.72C156.52 106.6 156.32 106.76 156.28 106.8L155.96 107C156.16 106.88 155.84 107.08 155.76 107.08C155.48 107.24 155.24 107.36 154.96 107.48L154.2 107.8L153.12 108.24C149.24 109.72 145.36 111.32 141.84 113.6C139.24 115.32 136.68 117.44 135.04 120.12C134.64 120.72 134.32 121.4 134.08 122.08C134.04 122.24 133.96 122.44 133.92 122.6C133.88 122.76 134 122.44 133.92 122.56C133.6 123.08 133.28 123.64 133.04 124.2C132.32 125.48 131.64 126.72 130.92 127.92C128.56 131.92 126 135.84 123.28 139.6C119.96 144.24 116.28 148.6 112.24 152.64C110.24 154.64 108.08 156.48 105.84 158.16C103.76 159.72 101.52 161.04 99.12 162.12C96.88 163.12 94.52 163.8 92.08 164.04C88.36 164.36 84.56 164.2 80.88 163.6C75 162.72 69.4 160.56 64.4 157.36C61.88 155.76 59.6 153.8 57.64 151.56C57.56 151.44 57.48 151.36 57.4 151.24L57 151.96L65.36 144.76L78.64 133.24L81.68 130.6L80.4 130.96C81.16 131.84 82 132.68 82.88 133.4C83.96 134.36 85.04 135.44 86.4 135.96C87.36 136.32 88.36 136.4 89.36 136.2C90.04 136.08 90.68 135.84 91.24 135.48C91.44 135.36 92.04 134.92 91.88 134.6C91.72 134.28 91 134.68 90.84 134.8C90.68 134.92 91.16 134.64 90.92 134.76L90.8 134.8C91.08 134.68 90.84 134.8 90.76 134.8C90.64 134.84 90.48 134.88 90.36 134.92C90.12 134.96 89.88 135 89.64 135C88.08 135.04 86.8 134.24 85.68 133.24C84.48 132.16 83.12 131.08 82.12 129.8C81.84 129.44 81.04 130 80.84 130.16L72.48 137.36L59.16 148.88L56.12 151.56C56 151.68 55.52 152.04 55.72 152.28C57.12 154 58.72 155.52 60.52 156.84C64.92 160.16 69.92 162.6 75.24 163.96C78.92 164.88 82.68 165.4 86.44 165.44C89.56 165.48 92.6 165.28 95.6 164.36C101.04 162.72 105.92 159.4 110.2 155.72C114.72 151.72 118.8 147.28 122.44 142.48C125.6 138.4 128.52 134.16 131.2 129.76C132.68 127.32 134.12 124.88 135.44 122.36C135.52 122.24 135.6 122.08 135.64 121.96C135.64 121.92 135.68 121.84 135.68 121.8C135.72 121.64 135.64 121.96 135.68 121.76C135.72 121.56 135.8 121.36 135.88 121.16C136.68 119.16 138.28 117.4 139.96 116C143.24 113.28 147.24 111.48 151.16 109.96C152.56 109.4 154 108.92 155.36 108.28C156.48 107.8 157.52 107.04 158.32 106.12C158.96 105.28 159.28 104.24 159.24 103.2C159.2 102.12 158.56 101.16 157.6 100.68C156.48 100.16 155.24 99.9201 154 100C152.6 100.04 151.24 100.28 149.88 100.68C148.68 101.04 147.56 101.6 146.56 102.36L147.72 102.4C149.32 100.2 149.72 97.0401 148.16 94.7201C147.24 93.4401 146.04 92.4401 144.64 91.7601L144.76 91.9201C145.08 90.5201 144.8 89.0801 144 87.8801C142.6 85.8801 139.8 85.5601 137.52 85.6401C135.16 85.7201 132.84 86.2001 130.64 87.0001C130.28 87.1201 129.4 87.6001 129.56 88.1201L132.08 95.2001V94.9601C131.4 96.5201 130.4 97.8801 129.08 99.0001L128.72 99.2801C128.68 99.3201 128.36 99.5601 128.52 99.4401C128.32 99.6001 128.12 99.7201 127.92 99.8401C127.88 99.8801 127.6 100.04 127.76 99.9201C127.92 99.8001 127.72 99.9201 127.68 99.9601C127.64 100 127.56 100 127.52 100.04L128.24 99.8801C127.44 99.7201 126.96 98.4401 126.64 97.8001C126.52 97.6001 126.48 97.4001 126.4 97.1601L125.72 94.4401L123.72 86.5601L123.2 84.5601C123.08 84.0801 121.88 84.9601 121.76 85.0801C120.44 86.4401 119.36 88.0001 118.48 89.6401C117.4 91.6001 116.44 93.6401 115.64 95.7201C114.84 97.8401 114.16 100 113.6 102.2C113.12 104 112.88 105.84 112.84 107.68C112.84 108.84 112.96 110.48 114.12 111.08L114.28 110.44L106.16 118.8L93.24 132.08L90.28 135.12C90.08 135.32 89.84 135.72 90.28 135.76C90.72 135.8 91.28 135.44 91.56 135.16Z" fill="#000005"/>
<path d="M140.282 103.24C140.242 103.4 140.322 103.2 140.322 103.16L140.482 102.88C140.642 102.6 140.802 102.32 140.962 102.04C141.442 101.2 141.922 100.32 142.362 99.4004C143.482 97.1604 144.362 94.6804 144.522 92.1604C144.562 91.6004 143.162 92.0804 143.122 92.5604C142.962 95.1204 142.042 97.5604 140.922 99.8004C140.522 100.64 140.042 101.48 139.562 102.28C139.282 102.68 139.042 103.12 138.882 103.6C138.802 103.92 139.402 103.84 139.562 103.8C139.882 103.76 140.162 103.56 140.282 103.24Z" fill="#000005"/>
<path d="M144.721 106.48L147.321 103.4L147.681 102.96C147.961 102.6 147.881 102.12 147.561 101.84C147.521 101.8 147.481 101.8 147.441 101.76C147.201 101.64 146.961 101.64 146.721 101.72C146.481 101.8 146.241 101.96 146.081 102.16L143.481 105.24L143.081 105.68C142.801 106.04 142.881 106.52 143.201 106.8C143.241 106.84 143.281 106.84 143.321 106.88C143.561 107 143.801 107 144.041 106.92C144.321 106.84 144.561 106.68 144.721 106.48Z" fill="#000005"/>
<path d="M115.92 48.7998C115 48.7998 114.16 49.1998 113.56 49.8798C112.96 50.5598 112.56 51.3598 112.36 52.2398C112.12 53.0798 112 53.9998 112.36 54.7998C112.88 55.9198 114.28 56.3598 115.52 56.4398C116.76 56.5198 118 56.2798 119.24 56.5598C120.48 56.8398 121.64 57.8398 121.56 59.0398C121.52 59.5198 121.32 59.9598 121.04 60.3598C119.72 62.3598 117.48 63.5198 115.08 63.4398" fill="white"/>
<path d="M115.842 47.2399C113.282 47.1999 111.362 49.1199 110.522 51.3999C110.162 52.3599 110.042 53.3999 110.162 54.3999C110.362 55.4799 111.042 56.4399 112.002 56.9999C112.922 57.5199 113.922 57.8399 114.962 57.9199C115.562 57.9599 116.202 57.9599 116.802 57.9599C117.042 57.9599 117.282 57.9199 117.562 57.9199H117.922C118.402 57.9199 117.682 57.8799 118.122 57.9199L118.482 57.9599C119.002 58.0399 118.442 57.9599 118.442 57.9199C118.442 57.8799 119.162 58.2799 118.922 58.1199C118.682 57.9599 119.362 58.4799 119.122 58.2799C118.882 58.0799 119.162 58.3599 119.202 58.3999C119.242 58.4399 119.282 58.5199 119.322 58.5599C119.242 58.3999 119.242 58.3999 119.282 58.4799C119.322 58.5599 119.362 58.6399 119.402 58.7199C119.402 58.5199 119.522 58.8799 119.402 58.7199C119.402 58.7999 119.402 58.9199 119.402 58.9999C119.402 59.1999 119.522 58.7599 119.362 59.1199C119.322 59.1999 119.282 59.3199 119.242 59.4399C119.282 59.3599 119.362 59.2399 119.202 59.4799C119.082 59.6799 118.922 59.9199 118.762 60.1199L118.562 60.3599C118.722 60.1599 118.602 60.3199 118.522 60.3999C118.362 60.5599 118.162 60.7599 117.962 60.8799C117.882 60.9199 117.802 60.9999 117.722 61.0399C117.562 61.1999 117.962 60.8799 117.682 61.0799C117.482 61.1999 117.242 61.3199 117.042 61.4399L116.762 61.5599C116.322 61.7599 117.122 61.4399 116.682 61.5999C116.442 61.6799 116.202 61.7599 115.962 61.7999C115.882 61.7999 115.762 61.8399 115.682 61.8399C115.842 61.7599 116.042 61.7999 115.682 61.8399C115.402 61.8399 115.122 61.8399 114.882 61.8399C114.042 61.7999 112.842 62.5199 112.962 63.4799C113.082 64.5599 114.122 64.9199 115.042 64.9199C117.162 64.9599 119.202 64.2799 120.882 62.9599C122.402 61.7599 124.082 59.5999 123.202 57.5999C122.202 55.2799 119.482 54.7599 117.202 54.7999C116.682 54.7999 116.162 54.7999 115.602 54.8399C115.282 54.8799 115.922 54.8799 115.642 54.8399L115.362 54.7999L115.082 54.7599C115.002 54.7599 114.602 54.5999 114.842 54.7199L114.482 54.5599C114.242 54.4799 114.722 54.7199 114.522 54.5999C114.442 54.5199 114.322 54.4799 114.242 54.3999C114.282 54.4399 114.482 54.6399 114.282 54.4399C114.242 54.3599 114.162 54.2799 114.122 54.2399C114.162 54.2799 114.242 54.5199 114.122 54.2399C114.082 54.1999 113.962 53.7599 114.002 54.0399C113.962 53.7999 113.962 53.5599 113.962 53.3199C113.962 53.0399 113.922 53.5199 113.962 53.2399C114.002 53.0799 114.042 52.9199 114.082 52.7599C114.122 52.5199 114.202 52.2799 114.282 52.0399C114.322 51.9199 114.362 51.8399 114.402 51.7199C114.402 51.6799 114.602 51.2799 114.482 51.4799C114.602 51.2399 114.762 50.9999 114.922 50.7999C114.962 50.7599 115.162 50.5599 114.962 50.7599C115.082 50.6399 115.202 50.5599 115.322 50.4399C115.002 50.5999 115.282 50.4799 115.322 50.4399C115.362 50.3999 115.762 50.2399 115.522 50.3199C115.282 50.3999 115.722 50.2799 115.722 50.2799L115.522 50.3199C115.642 50.3199 115.722 50.3199 115.842 50.3199C116.682 50.3199 117.882 49.6399 117.762 48.6799C117.642 47.6399 116.602 47.2399 115.682 47.2399H115.842Z" fill="#68BA7F"/>
<path d="M111.68 47.7998L113.16 49.8798L111.68 47.7998Z" fill="white"/>
<path d="M110.28 48.6399L111.76 50.7199C111.92 50.9199 112.12 51.1199 112.36 51.2399C112.56 51.3999 112.8 51.5199 113.04 51.5599C113.28 51.6399 113.52 51.6399 113.72 51.5999C113.96 51.5999 114.16 51.5199 114.36 51.3999L114.68 51.1199C114.88 50.8799 114.96 50.5999 115 50.3199C115 49.8399 114.84 49.3599 114.56 48.9999L113.08 46.9199C112.92 46.7199 112.72 46.5199 112.48 46.3999C112.28 46.2399 112.04 46.1199 111.8 46.0799C111.56 45.9999 111.32 45.9999 111.12 46.0399C110.88 46.0399 110.68 46.1199 110.48 46.2399L110.16 46.5199C109.96 46.7599 109.88 47.0399 109.84 47.3199C109.84 47.7999 110 48.2799 110.28 48.6399Z" fill="#68BA7F"/>
<path d="M119.441 62.6807C119.921 63.3207 120.321 64.0407 120.601 64.7607L119.441 62.6807Z" fill="white"/>
<path d="M117.763 63C118.043 63.44 118.323 63.88 118.563 64.32L118.363 63.96C118.483 64.2 118.603 64.48 118.723 64.72C119.043 65.36 119.603 65.88 120.323 66.04C120.563 66.12 120.803 66.16 121.083 66.16C121.483 66.2 121.923 66.04 122.243 65.8L122.443 65.52C122.523 65.28 122.523 65.04 122.443 64.8C122.083 63.92 121.643 63.12 121.083 62.36C120.803 61.96 120.363 61.64 119.923 61.48C119.683 61.36 119.443 61.32 119.163 61.28C118.923 61.24 118.683 61.24 118.443 61.28C118.043 61.32 117.723 61.56 117.563 61.92C117.443 62.28 117.523 62.68 117.763 63Z" fill="#68BA7F"/>
<path d="M130.442 55.8397C130.602 57.8397 130.242 59.8797 129.362 61.7197C129.322 61.7997 129.482 61.7597 129.482 61.7197C129.682 61.6397 129.842 61.5597 130.002 61.4397C130.202 61.3197 130.442 61.1597 130.642 60.9997C130.762 60.9197 130.882 60.7997 131.002 60.6797C131.882 58.8397 132.242 56.7597 132.082 54.7197C131.762 54.8397 131.482 54.9997 131.202 55.1997C131.002 55.3197 130.802 55.4797 130.642 55.6397C130.562 55.6397 130.442 55.7197 130.442 55.8397Z" fill="#68BA7F"/>
<path d="M127.563 64.6001L126.003 66.3201C125.923 66.4001 125.843 66.4801 125.803 66.6001C125.763 66.7201 125.723 66.8001 125.723 66.9201C125.723 67.1601 125.803 67.4401 125.963 67.6401C126.123 67.8401 126.363 68.0001 126.603 68.0401C126.843 68.0801 127.083 68.0401 127.243 67.8801L128.803 66.2001C128.883 66.1201 128.963 66.0401 129.003 65.9201C129.043 65.8001 129.083 65.7201 129.083 65.6001C129.083 65.0801 128.683 64.6001 128.203 64.5201C128.003 64.4401 127.763 64.4801 127.563 64.6001Z" fill="#68BA7F"/>
</svg>
