<svg width="300" height="300" viewBox="0 0 300 300" fill="none" xmlns="http://www.w3.org/2000/svg">
<path d="M135.961 261.96C135.961 261.96 151.441 262.02 158.401 261.3C165.361 260.58 205.561 237.72 224.341 196.74C243.121 155.76 248.641 89.1601 248.641 86.4001C248.641 83.6401 175.681 44.7601 172.921 44.1001C170.161 43.4401 148.741 41.5801 148.741 41.5801L135.961 261.96Z" fill="#000005"/>
<path d="M137.04 262.92C142.68 262.92 148.32 262.86 153.96 262.62C156.12 262.5 158.46 262.62 160.62 262.02C162 261.6 163.38 261.12 164.64 260.46C169.14 258.36 173.4 255.84 177.48 253.02C183.18 249.12 188.64 244.8 193.74 240.18C206.64 228.48 217.62 214.44 225 198.66C232.2 183.24 236.76 166.56 240.42 150C243.66 135.24 246.12 120.3 247.98 105.24C248.52 100.68 249.06 96.06 249.48 91.44C249.6 90.3 249.66 89.1 249.78 87.96C249.9 87.36 249.66 86.7 249.18 86.28C247.38 84.3 244.86 82.92 242.58 81.48C238.74 79.08 234.78 76.8 230.82 74.52C220.38 68.58 209.82 62.82 199.26 57.12C191.22 52.8 183.18 48.48 175.02 44.4C174.18 43.98 173.28 43.56 172.44 43.2C171.36 42.84 170.22 42.66 169.14 42.6C163.32 41.88 157.5 41.4 151.68 40.86C150.36 40.74 149.04 40.62 147.72 40.5C147.66 40.5 147.6 40.56 147.6 40.62L147.24 46.5L146.28 62.58L144.9 86.16L143.22 115.14L141.36 146.88L139.5 178.8L137.82 208.62L136.38 233.88L135.3 252C135.12 254.82 134.82 257.76 134.82 260.58C134.82 260.7 134.82 260.82 134.82 260.94C134.82 261.42 135.78 262.08 136.14 262.26C136.26 262.38 137.16 262.98 137.22 262.62L137.58 256.08L138.6 238.44L140.1 212.58L141.9 181.26L143.88 147.6L145.8 114.36L147.54 84.3L148.92 60.48L149.76 45.72C149.88 44.7 149.94 43.68 149.94 42.6C149.94 42.54 149.94 42.42 149.94 42.36C150 42.24 149.7 42.42 149.94 42.42C151.5 42.42 153.12 42.72 154.68 42.84C160.2 43.32 165.66 43.8 171.18 44.52C172.2 44.58 173.22 44.76 174.24 45.06C174.42 45.12 174.06 45 174.42 45.12L174.96 45.36C175.44 45.54 175.86 45.78 176.28 46.02C183.72 49.68 191.1 53.64 198.42 57.54C208.44 62.88 218.4 68.34 228.3 73.92C232.32 76.2 236.4 78.48 240.36 80.88C241.86 81.78 243.36 82.68 244.86 83.64L245.7 84.18L245.94 84.3L246.36 84.54L247.02 85.02C247.2 85.14 247.8 85.62 247.38 85.26L247.86 85.62C247.74 85.56 247.56 85.38 247.74 85.56C247.92 85.74 247.5 85.32 247.68 85.5C247.62 85.44 247.56 85.26 247.56 85.38C247.44 86.04 247.44 86.76 247.44 87.48C247.14 91.02 246.78 94.56 246.42 98.04C244.98 111.18 242.94 124.26 240.48 137.28C237.42 153 233.64 168.72 228.12 183.78C225.36 191.52 221.88 199.02 217.8 206.1C213.6 213.24 208.68 219.96 203.22 226.2C194.22 236.52 183.84 245.46 172.32 252.84C168.78 255.12 165.12 257.16 161.28 258.84C160.2 259.32 159.12 259.68 157.98 259.98C155.34 260.46 152.52 260.4 149.88 260.46C144.96 260.64 140.04 260.7 135.12 260.7C134.7 260.7 135.66 261.6 135.66 261.66C135.78 262.26 136.44 262.92 137.04 262.92Z" fill="#000005"/>
<path d="M135.959 261.96C135.959 261.96 196.079 230.88 215.459 187.74C234.839 144.6 238.619 91.0198 238.859 86.8198C239.099 82.6198 157.259 42.0598 148.739 41.5798C140.219 41.0998 58.7388 71.5198 55.8588 79.1998C52.9788 86.8798 60.5388 224.7 135.959 261.96Z" fill="white"/>
<path d="M136.68 262.62C141.6 260.1 146.34 257.22 150.96 254.22C161.82 247.38 172.2 239.7 181.92 231.3C193.26 221.46 203.82 210.3 211.62 197.4C216 190.14 219.3 182.28 222.18 174.36C225.42 165.54 228.12 156.54 230.4 147.42C234.12 132.42 236.94 117.24 238.8 101.88C239.34 97.6196 239.76 93.3596 240.12 89.0396C240.24 88.1396 240.3 87.2996 240.3 86.3996C240.18 85.7396 239.82 85.1996 239.28 84.7796C237.3 82.9796 234.84 81.5996 232.62 80.2196C228.84 77.9396 224.94 75.7796 221.1 73.6796C210.96 68.1596 200.64 62.9396 190.26 57.8996C180.72 53.2196 171.12 48.7196 161.4 44.5796C158.4 43.2596 155.4 42.1196 152.28 41.0996C150.42 40.4996 148.44 40.3796 146.52 40.7396C143.28 41.3996 140.04 42.2396 136.92 43.2596C132.12 44.6996 127.32 46.3196 122.58 47.9996C111.24 51.9596 100.02 56.2196 88.9203 60.7796C79.6203 64.6196 70.2603 68.5196 61.5603 73.4996C59.3403 74.7596 56.6403 76.1996 55.0803 78.2996C54.3003 79.3796 54.2403 80.6996 54.1203 82.0196C53.7603 87.4196 54.1203 92.9396 54.5403 98.3396C55.2003 107.34 56.3403 116.34 57.7803 125.28C59.5803 136.5 61.9803 147.6 64.8603 158.58C68.0403 170.64 72.0603 182.4 76.9203 193.92C81.7803 205.56 87.8403 216.66 94.9803 227.04C102 237.06 110.34 246.24 120.12 253.68C124.8 257.22 129.78 260.34 135.06 262.92C136.08 263.46 138.48 261.78 137.1 261.06C126.3 255.72 116.76 248.16 108.66 239.34C100.32 230.28 93.3603 219.96 87.5403 209.16C81.7203 198.12 76.8003 186.66 72.9003 174.84C69.1203 163.56 66.0003 152.04 63.6003 140.34C61.5003 130.38 59.8203 120.3 58.6803 110.16C57.8403 102.9 57.1803 95.5796 57.0003 88.2596C56.9403 86.0996 56.9403 83.8796 57.0603 81.6596C57.1203 80.9996 57.1803 80.3396 57.2403 79.6796C57.2403 79.6196 57.2403 79.5596 57.2403 79.4996C57.3003 79.2596 57.1803 79.7396 57.2403 79.5596C57.2403 79.4396 57.3003 79.3796 57.3003 79.2596C57.3003 79.1396 57.3603 79.0796 57.4203 78.9596C57.3003 79.1996 57.4203 78.9596 57.5403 78.7196C57.6003 78.6596 57.6603 78.5996 57.7203 78.4796C57.5403 78.6596 57.6003 78.6596 57.7203 78.4796C57.9003 78.2996 58.0803 78.1196 58.2603 77.9996L58.8603 77.5196C59.1603 77.2796 58.8003 77.5796 58.9803 77.4596L59.4003 77.1596C60.6603 76.2596 61.9803 75.4796 63.3603 74.6996C67.1403 72.5396 70.9203 70.7396 74.9403 68.8796C85.5003 64.0196 96.3003 59.6996 107.16 55.6196C117.12 51.8396 127.2 48.1796 137.28 45.1196C140.34 44.1596 143.46 43.3196 146.64 42.7196C146.82 42.7196 147.6 42.5996 147.12 42.6596C147.36 42.6596 147.54 42.5996 147.78 42.5996H148.26C148.62 42.5996 148.02 42.5396 148.44 42.5996C148.86 42.6596 149.16 42.7196 149.52 42.8396L149.88 42.9596L150 43.0196L150.84 43.2596C158.64 45.7796 166.2 49.4396 173.64 52.9196C184.2 57.7796 194.64 62.9396 204.96 68.2196C213.66 72.6596 222.36 77.2196 230.76 82.3196C232.92 83.6396 235.08 84.8396 236.94 86.5796L237.3 86.9396L237.42 87.0596C237.48 87.1196 237.54 87.2396 237.54 87.2996C237.54 87.0596 237.54 87.1796 237.48 87.3596C237.36 88.3196 237.36 89.3396 237.24 90.3596C236.34 101.64 234.78 112.86 232.8 124.02C229.68 141.54 225.36 159 219.12 175.68C216.24 183.42 213 191.1 208.62 198.18C204.66 204.48 200.1 210.42 195.06 215.88C185.46 226.44 174.48 235.68 162.96 243.96C155.22 249.54 147.18 254.7 138.9 259.38C137.7 260.04 136.5 260.7 135.3 261.36C134.82 261.6 134.34 262.32 134.76 262.8C135.18 263.28 136.14 262.86 136.68 262.62Z" fill="#000005"/>
<path d="M147.24 57.6602C139.2 57.6602 70.2595 83.6402 68.0395 89.7002C66.8395 92.8802 67.9195 124.14 77.2795 158.52C85.6795 189.3 102.78 229.44 136.44 246.24C140.88 243.84 188.58 217.74 204.36 182.76C221.22 145.2 224.28 99.1202 224.46 96.0602C223.56 94.4402 210.84 86.8802 187.98 75.5402C167.64 65.4002 150.6 57.9002 147.48 57.7202H147.24V57.6602Z" fill="#000005"/>
<path d="M146.88 57.1199C145.2 57.2399 143.52 57.4799 141.96 57.9599C139.38 58.6199 136.86 59.3999 134.34 60.1799C127.2 62.4599 120.12 64.9799 113.04 67.6199C105.24 70.5599 97.4404 73.6199 89.7604 76.8599C83.7604 79.4399 77.7004 82.0199 72.0004 85.2599C70.3204 86.0999 68.7604 87.1199 67.3804 88.3199C66.3604 89.2799 66.3004 90.3599 66.1804 91.6799C66.0604 94.8599 66.0604 97.9799 66.3004 101.16C66.5404 106.26 67.0204 111.36 67.6204 116.4C69.2404 130.32 71.9404 144.12 75.6004 157.68C78.3004 167.7 81.6604 177.54 85.6804 187.08C89.9404 197.34 95.2804 207.12 101.64 216.24C108 225.3 115.68 233.52 124.68 239.94C126.9 241.56 129.24 243.06 131.64 244.38C133.44 245.4 135.9 247.32 138 246.18C139.5 245.4 140.94 244.56 142.38 243.72C148.5 240.12 154.5 236.28 160.32 232.14C168.42 226.44 176.1 220.08 183.24 213.18C190.8 205.86 197.7 197.7 202.86 188.46C205.68 183.24 208.08 177.78 210.06 172.2C212.34 166.08 214.32 159.84 216.06 153.54C219.12 142.38 221.52 131.04 223.2 119.58C224.28 112.56 225.12 105.48 225.72 98.3999C225.78 97.6799 225.84 97.0199 225.84 96.2999C225.9 95.8799 225.66 95.4599 225.3 95.2199C223.56 93.5999 221.34 92.3399 219.24 91.1399C209.46 85.2599 199.26 80.1599 189.12 75.0599C177.96 69.4799 166.68 63.9599 155.1 59.3399C152.64 58.3799 149.88 57.0599 147.18 56.9399C146.88 56.9399 145.68 56.8799 145.68 57.3599C145.68 57.8399 146.88 57.9599 147.12 57.9599C147 57.9599 147.66 57.9599 147.12 57.9599C147.18 57.9599 147.3 57.9599 147.36 58.0199C145.92 57.7799 144.54 58.6799 144.3 60.1199C144.06 61.5599 144.96 62.9399 146.4 63.1799C147.84 63.4199 149.22 62.5199 149.46 61.0799C149.7 59.7599 148.92 58.4999 147.66 58.0799C148.32 58.2599 148.62 58.3799 149.16 58.5599C150.78 59.0999 152.4 59.7599 153.96 60.4199C158.88 62.3999 163.68 64.6199 168.48 66.8399C180.78 72.5399 192.96 78.5999 204.96 85.0199C208.86 87.1199 212.82 89.2799 216.66 91.5599C218.58 92.7599 220.74 93.8999 222.42 95.3999C222.54 95.5199 222.66 95.6399 222.78 95.8199C222.78 95.8799 222.78 95.6999 222.78 95.8799C222.78 95.9999 222.78 96.0599 222.78 96.1799C222.72 96.8999 222.66 97.6199 222.6 98.2799C222.36 100.92 222.12 103.62 221.82 106.26C220.8 115.5 219.36 124.74 217.56 133.86C215.22 145.86 212.04 157.68 207.96 169.26C205.98 174.96 203.64 180.54 200.94 185.94C198.6 190.44 195.84 194.64 192.72 198.66C186.54 206.76 179.22 213.96 171.42 220.56C164.64 226.32 157.5 231.6 150.06 236.46C145.56 239.4 141 242.22 136.32 244.8C135.9 245.04 135.42 245.28 135 245.52H137.34C127.38 240.48 118.68 233.22 111.36 224.82C104.04 216.42 98.1004 206.88 93.1204 196.92C88.3804 187.32 84.3604 177.3 81.1804 167.1C77.2804 154.5 74.2804 141.6 72.1804 128.58C70.3804 118.14 69.3004 107.58 69.0004 97.0199C68.9404 94.6799 68.8204 92.2199 69.2404 89.9399C69.4204 88.9799 70.5004 88.1399 71.3404 87.5399C75.9004 84.4199 81.1204 82.1399 86.1604 79.9199C93.4804 76.6199 100.98 73.6199 108.48 70.6799C115.98 67.7399 123.42 65.0399 130.98 62.4599C133.98 61.4399 136.98 60.4799 139.98 59.5799C141.12 59.2199 142.32 58.9199 143.52 58.6199C144 58.4999 144.54 58.3799 145.02 58.2599L145.68 58.1399C145.98 58.0799 145.5 58.1399 145.74 58.1399L146.1 58.0799C146.4 58.0199 146.76 57.9599 147.06 57.8999C147.36 57.8399 147.42 57.8999 147.18 57.8999H147.54C147.84 57.8999 148.8 57.8399 148.62 57.2999C148.44 56.7599 147.24 57.1199 146.88 57.1199Z" fill="#000005"/>
<path d="M249.12 140.16C256.14 139.86 263.1 138.78 269.82 136.86C270.96 136.56 269.28 134.1 268.32 134.4C261.6 136.32 254.64 137.4 247.62 137.7C246.96 137.7 247.38 138.84 247.56 139.08C247.8 139.68 248.4 140.1 249.12 140.16Z" fill="#68BA7F"/>
<path d="M243.18 167.04L275.46 169.38C276.06 169.44 276.6 169.02 276.66 168.42C276.66 168.3 276.66 168.24 276.66 168.12C276.42 167.4 275.76 166.86 274.98 166.86L242.7 164.52C242.1 164.46 241.56 164.88 241.5 165.48C241.5 165.6 241.5 165.66 241.5 165.78C241.74 166.56 242.4 167.04 243.18 167.04Z" fill="#68BA7F"/>
<path d="M238.92 185.46L259.68 207.72C260.1 208.14 261 208.62 261.54 208.26C262.08 207.9 261.72 207.06 261.36 206.7L240.6 184.44C240.18 184.02 239.28 183.54 238.74 183.9C238.2 184.26 238.56 185.1 238.92 185.46Z" fill="#68BA7F"/>
<path d="M54.48 140.28C48.12 139.92 41.76 138.78 35.64 137.04C34.92 136.86 34.14 137.04 33.6 137.58C33.3 137.88 33.3 138.36 33.6 138.72C33.72 138.84 33.84 138.9 34.02 138.96C40.38 140.76 46.92 141.9 53.52 142.32C54.24 142.44 55.02 142.08 55.44 141.42C55.62 140.82 55.08 140.28 54.48 140.28Z" fill="#68BA7F"/>
<path d="M54.7805 154.14C44.2805 155.4 33.9005 157.56 23.7605 160.62C23.2205 160.8 23.1605 161.16 23.7005 161.4C24.3605 161.7 25.0805 161.82 25.8005 161.64C35.7005 158.64 45.9005 156.48 56.1605 155.28C56.5805 155.22 57.2405 155.04 56.7605 154.56C56.2805 154.08 55.3205 154.08 54.7805 154.14Z" fill="#68BA7F"/>
<path d="M59.2218 168.6C55.2618 171.06 51.9618 174.42 49.5018 178.38C49.2618 178.8 50.5818 178.56 50.7018 178.56C51.3618 178.44 51.9018 178.08 52.3218 177.6C54.4818 174.06 57.4218 171 60.9018 168.78C61.1418 168.6 61.8018 168.12 61.2018 168C60.5418 168 59.8218 168.18 59.2218 168.6Z" fill="#68BA7F"/>
<path d="M180.54 116.16C180.54 116.16 184.56 71.7598 181.08 61.3798C177.6 50.9998 145.02 23.2198 117.6 48.1798C90.1798 73.1398 102.84 112.38 102.84 112.38L112.56 111.66C112.56 111.66 105.24 77.4598 120.96 56.6398C136.68 35.8198 168.84 47.5198 171.66 59.9398C173.94 70.0798 174.9 110.1 174.9 110.1L180.54 116.16Z" fill="white"/>
<path d="M181.739 116.82C182.039 113.52 182.279 110.22 182.519 106.98C182.999 99.9001 183.419 92.8801 183.599 85.8001C183.779 79.2601 183.959 72.6001 183.179 66.0601C182.999 63.8401 182.459 61.6801 181.499 59.7001C180.239 57.3001 178.619 55.1401 176.759 53.2201C171.539 47.7001 165.299 43.3201 158.279 40.3201C150.359 36.9601 141.539 35.7001 133.139 37.8601C123.359 40.3801 115.139 47.2201 109.319 55.2601C104.279 62.3401 100.979 70.5001 99.5989 79.0801C98.4589 86.1001 98.3988 93.2401 99.2388 100.26C99.6588 104.16 100.439 108.06 101.519 111.84L101.699 112.38C101.879 112.98 102.539 113.82 103.259 113.76L112.979 113.04C113.699 112.98 113.819 112.38 113.699 111.72C113.639 111.48 113.759 112.08 113.759 111.9C113.759 111.72 113.699 111.6 113.639 111.42C113.519 110.82 113.399 110.16 113.339 109.56C112.979 107.4 112.739 105.18 112.499 103.02C111.839 96.1801 111.899 89.3401 112.739 82.5001C113.819 74.4601 116.099 66.4801 120.599 59.7001C124.619 53.4601 130.859 49.0801 138.119 47.4001C144.599 46.0201 151.379 46.5601 157.619 48.9601C158.999 49.4401 160.319 50.0401 161.639 50.7601C162.299 51.1201 162.899 51.4801 163.499 51.8401C164.039 52.1401 164.519 52.5001 165.059 52.8601C165.599 53.2801 166.139 53.6401 166.619 54.1201C166.859 54.3001 167.099 54.5401 167.339 54.7801L167.639 55.0801C167.399 54.8401 167.699 55.1401 167.759 55.2601C168.179 55.6801 168.599 56.1601 168.959 56.6401L169.199 56.9401C169.379 57.1801 169.079 56.7001 169.259 57.0601C169.439 57.4201 169.559 57.5401 169.739 57.8401C169.919 58.1401 169.979 58.2601 170.099 58.5001C170.279 58.8001 170.039 58.3801 170.159 58.6201C170.219 58.7401 170.279 58.9201 170.339 59.0401C170.519 59.4601 170.639 59.9401 170.699 60.4201C170.699 60.4201 170.639 60.1801 170.699 60.4801C170.699 60.6001 170.759 60.7201 170.759 60.8401C170.819 61.0801 170.819 61.3201 170.879 61.5601C170.939 62.1001 171.059 62.5801 171.119 63.1201C171.479 65.8201 171.719 68.5201 171.959 71.2201C172.499 77.8801 172.859 84.6001 173.159 91.3201C173.399 96.6001 173.579 101.88 173.699 107.16C173.699 108.06 173.699 109.02 173.759 109.92C173.819 110.82 174.719 111.48 175.319 112.08L178.199 115.2L179.819 116.94C180.239 117.36 180.959 117.9 181.559 117.48C182.159 117.06 181.799 116.1 181.379 115.68L175.739 109.68L176.159 110.7C176.099 107.94 176.039 105.24 175.919 102.48C175.739 96.4801 175.499 90.4801 175.139 84.4801C174.839 78.4801 174.479 72.4801 173.819 66.4801C173.639 64.3801 173.279 62.2801 172.859 60.2401C172.259 58.0201 171.179 55.9801 169.619 54.3601C165.839 50.1001 160.499 47.3401 155.099 45.7801C148.859 43.8601 142.259 43.6801 135.959 45.1801C128.999 46.9801 122.939 51.3001 118.859 57.3001C114.419 63.7201 111.959 71.2801 110.699 78.9001C109.619 85.7401 109.319 92.6401 109.799 99.5401C110.039 103.38 110.459 107.22 111.179 111.06C111.239 111.36 111.299 111.6 111.359 111.9L112.079 110.58L102.359 111.3L103.919 112.68C103.679 112.02 103.499 111.3 103.319 110.64C103.139 109.86 102.959 109.02 102.779 108.24C102.719 108 102.659 107.76 102.659 107.52C102.719 107.88 102.659 107.46 102.599 107.4C102.539 107.34 102.539 107.1 102.479 106.92C102.359 106.38 102.299 105.78 102.179 105.24C101.099 99.0601 100.799 92.8201 101.219 86.5801C101.759 78.4801 103.919 70.6201 107.699 63.4201C112.199 54.9601 119.279 47.2801 127.979 43.0801C135.719 39.4201 144.599 38.7001 152.819 41.1601C160.079 43.2601 166.739 46.9801 172.319 52.0801C172.919 52.6201 173.519 53.2201 174.119 53.7601C174.239 53.8801 174.419 54.0001 174.539 54.1801C174.599 54.2401 174.779 54.3601 174.539 54.1801L174.719 54.3601L175.499 55.1401C176.459 56.1601 177.299 57.2401 178.139 58.3801C178.199 58.5001 178.319 58.6201 178.379 58.7401C178.199 58.4401 178.379 58.7401 178.439 58.8601C178.619 59.1001 178.739 59.3401 178.859 59.5801C179.159 60.0601 179.399 60.5401 179.579 61.0201C179.579 61.0201 179.639 61.2001 179.699 61.3201C179.759 61.5001 179.819 61.7401 179.939 61.9201C180.059 62.3401 180.179 62.8201 180.299 63.2401C180.359 63.4201 180.239 63.0001 180.299 63.1801C180.299 63.2401 180.299 63.3001 180.359 63.3601C180.419 63.4201 180.419 63.6001 180.419 63.7201C180.479 64.0201 180.539 64.3201 180.539 64.6201C180.599 65.2201 180.719 65.8201 180.779 66.4201C180.899 67.8001 181.019 69.2401 181.079 70.6201C181.259 73.9201 181.259 77.2801 181.199 80.5801C181.139 87.6601 180.779 94.7401 180.299 101.82C179.999 106.26 179.699 110.64 179.339 115.08L179.279 115.74C179.219 116.46 179.639 117.18 180.299 117.54C180.839 117.54 181.679 117.54 181.739 116.82Z" fill="#68BA7F"/>
<path d="M93.8389 98.64C93.8389 98.64 91.3789 154.92 98.6989 181.92C106.019 208.92 146.879 198.12 166.439 192.72C185.999 187.32 191.219 116.82 189.839 112.68C188.459 108.54 180.479 96.78 175.799 94.86C171.119 92.94 93.8389 98.64 93.8389 98.64Z" fill="#68BA7F"/>
<path d="M92.3406 98.5197C92.2206 101.22 92.1606 103.98 92.1006 106.68C91.9806 113.4 91.9206 120.12 91.9806 126.84C92.1006 135.3 92.3406 143.82 92.9406 152.28C93.4206 160.38 94.4406 168.48 95.9406 176.46C96.6006 179.88 97.3806 183.42 98.9406 186.54C100.441 189.54 102.601 192.12 105.241 194.1C110.701 198.3 117.841 199.8 124.621 200.1C132.241 200.52 139.921 199.56 147.421 198.18C154.081 196.92 160.681 195.18 167.221 193.38C171.601 192.18 174.661 188.58 176.941 184.86C180.061 179.7 182.101 173.94 183.781 168.18C185.701 161.58 187.201 154.8 188.281 148.02C189.361 141.72 190.201 135.36 190.801 129C191.221 124.62 191.581 120.24 191.581 115.8C191.641 114.78 191.581 113.76 191.341 112.74C190.981 111.6 190.501 110.52 189.841 109.5C188.881 107.76 187.801 106.14 186.721 104.52C184.441 101.28 181.921 97.9797 178.801 95.5797C177.541 94.5597 175.981 94.0197 174.361 93.8997C170.461 93.6597 166.561 93.6597 162.661 93.8997C156.601 94.0797 150.601 94.3797 144.541 94.6797C137.761 95.0397 130.921 95.4597 124.141 95.8797C118.141 96.2397 112.141 96.6597 106.201 97.0797C102.541 97.3197 98.8206 97.6197 95.1606 97.8597L93.6606 97.9797C93.2406 97.9797 92.3406 98.0997 92.5206 98.7597C92.7006 99.4197 93.8406 99.4797 94.3206 99.4197L100.261 98.9997C105.241 98.6397 110.161 98.2797 115.141 97.9797C121.621 97.5597 128.041 97.1397 134.521 96.7797C141.061 96.4197 147.541 96.0597 154.081 95.7597C159.241 95.5197 164.401 95.2797 169.561 95.2797C170.461 95.2797 171.361 95.2797 172.201 95.2797L173.341 95.3397C173.581 95.3397 172.921 95.3397 173.221 95.3397H173.461H173.941L174.721 95.3997L175.021 95.4597C175.441 95.5197 174.661 95.3397 174.961 95.4597C175.021 95.4597 175.141 95.5197 175.201 95.5197C175.501 95.5797 174.901 95.3397 175.081 95.4597C175.441 95.6997 175.261 95.5197 175.621 95.6997C175.981 95.8797 176.281 96.1197 176.581 96.3597C179.581 98.6397 182.041 101.94 184.141 105C185.821 107.4 187.621 110.04 188.521 112.86C188.581 113.04 188.521 112.98 188.521 112.92C188.521 112.98 188.521 113.1 188.521 113.16C188.521 113.4 188.581 113.58 188.581 113.82C188.641 114.42 188.641 115.02 188.641 115.62C188.641 117.48 188.581 119.28 188.461 121.14C188.161 126.66 187.561 132.18 186.901 137.64C186.061 144.36 184.921 151.02 183.481 157.62C182.161 163.98 180.301 170.28 178.021 176.34C176.161 181.02 173.821 185.88 170.161 189.36C169.441 190.02 168.721 190.56 167.881 191.1C167.701 191.22 167.461 191.34 167.281 191.46C167.221 191.46 166.921 191.64 167.161 191.52L166.801 191.7C166.381 191.88 165.901 192.06 165.481 192.18C162.601 193.02 159.601 193.8 156.781 194.52C149.701 196.38 142.501 197.7 135.241 198.48C133.561 198.66 131.641 198.78 129.841 198.78C128.041 198.78 126.241 198.84 124.681 198.72C121.381 198.6 118.081 198.06 114.901 197.04L114.541 196.92L114.001 196.74C113.641 196.62 113.221 196.44 112.861 196.32C110.761 195.48 108.841 194.34 107.101 192.9C104.641 190.86 102.781 188.22 101.521 185.28C100.141 182.1 99.4806 178.56 98.8206 175.2C98.1006 171.36 97.5606 167.46 97.1406 163.62C96.1806 155.22 95.7006 146.76 95.4006 138.36C95.1606 130.68 95.1006 123 95.1606 115.38C95.2206 110.58 95.2806 105.78 95.4606 100.92C95.4606 100.26 95.5206 99.5997 95.5206 98.9397C95.4006 97.7997 92.4006 97.4997 92.3406 98.5197Z" fill="#68BA7F"/>
<path d="M129.839 162.54C129.839 162.54 130.679 144.36 129.719 142.2C128.759 140.04 123.059 131.82 129.119 126.24C135.179 120.66 143.699 121.02 144.239 129.6C144.779 138.18 137.279 139.5 135.659 143.88C134.039 148.26 136.679 160.86 135.299 163.2C133.919 165.54 129.719 165.24 129.839 162.54Z" fill="#000005"/>
<path d="M131.04 163.441C131.28 158.281 131.46 153.061 131.4 147.841C131.4 146.581 131.34 145.321 131.22 144.061C131.1 143.221 130.8 142.381 130.32 141.661C128.58 138.301 126.78 134.341 128.1 130.561C128.88 128.341 130.62 126.721 132.48 125.461C134.1 124.321 135.96 123.661 137.94 123.421C138.78 123.361 139.62 123.421 140.4 123.601C140.76 123.661 141.06 123.781 141.42 123.961C141.66 124.081 141.36 123.901 141.6 124.081C141.48 123.961 141.3 123.781 141.48 124.021C141.96 124.681 142.38 125.401 142.68 126.121C142.98 127.141 143.16 128.221 143.22 129.301C143.28 131.281 142.74 133.261 141.72 135.001C140.82 136.381 139.68 137.581 138.42 138.601C137.28 139.501 136.2 140.581 135.3 141.721C134.58 142.921 134.16 144.301 134.16 145.741C133.92 149.581 134.46 153.481 134.64 157.321C134.82 158.761 134.76 160.201 134.52 161.641C134.16 163.081 132.66 163.921 131.22 163.861C131.04 163.861 130.86 163.801 130.68 163.801C130.62 163.801 130.56 163.741 130.44 163.741C130.14 163.741 131.58 165.001 131.4 164.521C131.28 164.161 131.16 163.801 131.16 163.381C131.16 162.961 130.14 162.301 129.78 162.121C129.66 162.061 128.76 161.401 128.7 161.761C128.7 162.841 129.36 163.561 130.14 164.221C130.98 165.001 132.06 165.541 133.2 165.721C134.7 165.841 136.44 165.061 136.86 163.501C137.1 162.001 137.16 160.501 136.98 159.001C136.86 156.901 136.68 154.801 136.56 152.701C136.38 149.341 135.9 145.381 138.3 142.681C140.58 140.101 143.7 138.421 144.96 135.001C145.74 132.841 145.8 130.501 145.26 128.341C144.66 126.241 143.28 124.441 141.42 123.241C139.92 122.101 138.06 121.561 136.14 121.561C134.1 121.681 132.18 122.341 130.44 123.481C128.4 124.741 126.48 126.541 125.7 128.881C125.1 130.981 125.16 133.201 125.82 135.241C126.36 136.981 127.14 138.721 128.04 140.281C128.52 141.061 128.76 141.961 128.88 142.861C129.12 146.161 129.12 149.401 129 152.701C128.94 155.521 128.88 158.341 128.76 161.161V161.641C128.76 162.061 129.48 162.541 129.78 162.781C129.78 162.781 131.04 163.561 131.04 163.441Z" fill="#000005"/>
<path d="M175.2 101.76C175.38 112.08 174.96 122.4 174.06 132.66C173.16 142.92 171.24 153.06 168.36 162.96C166.68 168.54 164.64 174 162.18 179.22C162 179.64 163.08 179.58 163.26 179.58C163.62 179.58 164.88 179.58 165.06 179.16C169.38 169.86 172.56 160.02 174.48 149.94C176.46 139.74 177.6 129.42 177.96 118.98C178.2 113.1 178.26 107.28 178.2 101.4C178.2 101.04 175.2 101.16 175.2 101.76Z" fill="white"/>
</svg>
