<svg width="200" height="200" viewBox="0 0 200 200" fill="none" xmlns="http://www.w3.org/2000/svg">
<path d="M107.602 158.16L109.362 147.64L140.282 147.44L138.962 165.4C138.962 165.4 109.362 160.56 107.602 158.16Z" fill="white"/>
<path d="M108.603 158.081L110.123 148.881L110.323 147.561L109.123 148.121L119.563 148.041L136.203 147.921L140.043 147.881L139.283 147.521L138.843 153.561L138.123 163.281L137.963 165.481L139.443 164.961C136.083 164.401 132.723 163.801 129.403 163.201C123.923 162.201 118.203 161.121 112.963 159.681C111.923 159.401 110.883 159.081 109.883 158.681L109.323 158.441C109.083 158.361 109.363 158.481 109.203 158.401L109.003 158.281C108.883 158.201 108.803 158.161 108.683 158.081C108.563 158.001 108.523 157.961 108.643 158.081C108.603 158.041 108.563 158.001 108.563 157.961C108.163 157.441 106.283 157.841 106.643 158.361C107.043 158.801 107.563 159.081 108.123 159.281C108.963 159.641 109.803 159.921 110.643 160.161C113.163 160.921 115.763 161.481 118.323 162.041C123.763 163.241 129.283 164.241 134.763 165.201C136.003 165.401 137.203 165.641 138.443 165.841C138.843 165.881 139.883 165.881 139.923 165.321L140.363 159.241L141.083 149.521L141.243 147.321C141.243 147.041 140.643 146.921 140.483 146.961L130.043 147.041L113.403 147.161L109.563 147.201C109.163 147.201 108.403 147.281 108.363 147.761L106.843 156.961L106.643 158.281C106.523 158.801 108.483 158.761 108.603 158.081Z" fill="#000005"/>
<path d="M121.641 158.6C121.641 158.6 139.841 150.28 153.201 151.36C166.561 152.44 168.121 171.52 160.641 174.36C153.161 177.2 124.681 175.24 124.681 175.24L121.641 158.6Z" fill="white"/>
<path d="M122.283 159.24C124.083 158.4 125.963 157.68 127.843 157C132.083 155.4 136.403 154.12 140.803 153.16C143.243 152.64 145.683 152.28 148.163 152.08C150.363 151.92 152.683 151.84 154.883 152.28C155.683 152.44 156.443 152.68 157.163 153C157.363 153.08 157.563 153.2 157.763 153.28L158.003 153.44C158.043 153.48 158.123 153.48 158.163 153.52C158.523 153.76 158.883 153.96 159.203 154.24C159.483 154.48 159.763 154.72 160.003 154.96C160.243 155.2 160.603 155.56 160.763 155.76C161.283 156.4 161.763 157.04 162.163 157.76C163.683 160.52 164.363 163.64 164.083 166.8C163.843 169.28 162.923 172.04 160.723 173.44C159.883 173.96 158.603 174.24 157.523 174.48C157.003 174.56 156.163 174.72 155.483 174.8C154.683 174.92 153.883 175 153.043 175.04C149.243 175.32 145.443 175.36 141.643 175.36C138.003 175.32 134.403 175.24 130.803 175.04C128.763 174.96 126.723 174.84 124.683 174.72H124.403L125.563 175.68L122.883 161.08L122.483 159.04C122.363 158.6 122.003 158.24 121.563 158.16C121.323 158.08 120.563 158 120.643 158.48L123.323 173.08L123.683 175.12C123.843 175.64 124.323 176.04 124.883 176.08C126.403 176.2 127.883 176.28 129.403 176.32C132.963 176.52 136.483 176.64 140.043 176.68C144.003 176.76 148.003 176.76 151.963 176.52C153.683 176.44 155.363 176.28 157.083 176.04C158.403 175.88 159.723 175.6 161.003 175.2C163.603 174.28 165.043 171.84 165.603 169.24C166.283 166.04 166.003 162.72 164.763 159.68C163.443 156.32 160.923 153.6 157.723 152.04C155.803 151.2 153.723 150.72 151.643 150.72C149.083 150.64 146.563 150.8 144.043 151.16C139.163 151.92 134.323 153.08 129.643 154.72C126.843 155.68 124.083 156.72 121.363 157.88L120.963 158.04C120.083 158.36 121.643 159.52 122.283 159.24Z" fill="#000005"/>
<path d="M94.2024 151.36C94.2024 151.36 80.1624 140.56 84.9224 129.56C89.6824 118.56 110.722 108.52 123.642 106.44C136.562 104.36 162.322 122.56 160.802 135.28C159.282 148 149.042 151.96 149.042 151.96L139.002 140.4L110.762 140.96L102.242 151.96C102.162 151.92 98.1624 153.44 94.2024 151.36Z" fill="#68BA7F"/>
<path d="M95.1609 151.48C92.8409 149.64 90.7609 147.48 89.0009 145.08C85.9609 140.96 83.8009 135.68 85.5609 130.6C86.3609 128.32 87.8009 126.28 89.4009 124.48C91.2809 122.44 93.3609 120.6 95.6409 119C100.681 115.44 106.121 112.52 111.881 110.28C114.561 109.2 117.321 108.32 120.121 107.56C122.241 107 124.481 106.44 126.681 106.48C127.201 106.48 127.641 106.52 128.081 106.56C128.361 106.6 128.481 106.6 128.681 106.64L129.081 106.68L129.281 106.72C129.601 106.76 129.081 106.68 129.401 106.72C130.401 106.92 131.401 107.16 132.361 107.48C134.721 108.24 137.001 109.2 139.201 110.36C143.961 112.84 148.281 116 152.121 119.76C155.281 122.88 158.361 126.68 159.481 131.08C160.041 133.28 159.841 135.4 159.321 137.6C158.721 140.28 157.561 142.84 155.961 145.08C154.041 147.8 151.481 150 148.481 151.48C148.321 151.56 148.161 151.64 148.001 151.68L149.881 152.08L140.961 141.8C140.601 141.32 140.241 140.92 139.841 140.52C139.401 140.16 138.561 140.12 138.001 140.12H137.601L132.201 140.24L115.121 140.6L110.161 140.68C109.841 140.68 109.761 140.68 109.561 140.92L107.881 143.12L102.681 149.84C102.201 150.44 101.801 151.08 101.281 151.64C101.241 151.68 101.201 151.72 101.241 151.68C101.081 151.76 100.921 151.8 100.761 151.84C99.9609 152.08 99.1209 152.2 98.3209 152.2C97.2009 152.24 96.0809 151.96 95.0809 151.44C94.6409 151.24 94.2009 151.16 93.7609 151.12C93.6409 151.12 93.0009 151.08 93.3609 151.28C96.0409 152.64 99.1209 153.04 102.121 152.44C102.521 152.4 102.881 152.28 103.201 152.08C103.401 151.84 103.601 151.6 103.801 151.32L109.881 143.48L111.721 141.08L111.561 141.12L121.161 140.92L136.321 140.6L139.801 140.52L138.001 140.12L146.801 150.24L148.041 151.68C148.201 151.88 148.761 151.92 148.961 152C149.281 152.12 149.601 152.12 149.921 152.08C152.161 151.2 154.241 149.56 155.921 147.84C157.641 146.08 159.041 144 160.041 141.76C160.641 140.4 161.081 138.96 161.401 137.48C161.681 136.28 161.841 135.08 161.801 133.84C161.601 129.52 158.921 125.52 156.161 122.36C152.601 118.32 148.401 114.88 143.761 112.16C139.321 109.48 134.481 107.32 129.361 106.4C127.241 105.96 125.001 105.84 122.841 106.12C120.201 106.56 117.561 107.2 115.001 108C109.041 109.88 103.321 112.44 97.9609 115.68C93.2409 118.52 88.4409 122.04 85.3609 126.68C83.8809 128.8 83.0409 131.32 82.9609 133.92C83.0009 136.52 83.7209 139.08 85.0009 141.4C86.9609 144.96 89.6009 148.12 92.7209 150.72C92.8809 150.88 93.0809 151.04 93.2809 151.16C93.6409 151.36 94.0409 151.48 94.4809 151.52C94.5209 151.56 95.2809 151.6 95.1609 151.48Z" fill="#68BA7F"/>
<path d="M101.602 144.04C101.602 144.04 107.002 136.64 110.082 137.2C113.162 137.76 115.682 151.28 114.402 151.64C113.122 152 99.0822 153.8 98.8822 152C98.6822 150.2 98.9222 148.92 101.602 144.04Z" fill="white"/>
<path d="M102.443 144.28C103.203 143.24 104.043 142.24 104.923 141.32C105.643 140.52 106.403 139.8 107.203 139.12C107.563 138.84 107.923 138.56 108.323 138.32C108.523 138.2 108.723 138.12 108.923 138C109.043 137.96 108.883 138 108.883 138L109.043 137.96L109.363 137.88C109.123 137.96 109.403 137.88 109.483 137.88H109.643C109.643 137.88 109.443 137.88 109.563 137.88H109.803C109.563 137.84 109.803 137.88 109.843 137.92C109.723 137.84 109.883 137.96 109.843 137.92L110.003 138C110.003 138 110.203 138.16 110.123 138.08C110.043 138 110.203 138.16 110.243 138.2C110.723 138.72 111.123 139.32 111.403 140C112.243 141.84 112.843 143.72 113.243 145.68C113.643 147.32 113.883 148.96 113.883 150.64C113.883 150.88 113.843 151.12 113.803 151.36C113.843 151.12 113.843 151.28 113.803 151.36C113.763 151.4 113.763 151.44 113.803 151.36C113.843 151.32 113.843 151.28 113.963 151.2C113.883 151.24 113.923 151.2 114.123 151.12C114.083 151.12 114.443 151 114.323 151.04C114.123 151.12 114.603 151 114.363 151.04C114.243 151.04 114.163 151.08 114.043 151.08C113.763 151.12 113.483 151.16 113.243 151.2C111.443 151.48 109.643 151.68 107.843 151.84C105.923 152.04 103.963 152.12 102.043 152.08C101.683 152.08 101.283 152.04 100.923 152L100.683 151.96C100.443 151.92 100.803 152 100.643 151.96C100.523 151.92 100.363 151.92 100.243 151.88L100.083 151.84C99.9632 151.8 100.243 151.96 100.123 151.84C100.083 151.8 100.043 151.8 100.003 151.76C99.8833 151.72 100.043 151.8 100.043 151.8C99.9633 151.64 100.043 151.88 100.043 151.84C100.043 151.8 100.003 151.8 100.003 151.76C100.003 151.76 100.003 151.92 100.003 151.8C100.003 151.76 100.003 151.72 100.003 151.72C100.003 151.64 100.003 151.52 100.003 151.44C99.9233 149.64 100.643 148.08 101.483 146.44C101.883 145.68 102.283 144.92 102.683 144.16C102.923 143.72 102.403 143.4 102.043 143.4C101.563 143.36 101.083 143.6 100.803 144.04C100.003 145.44 99.2833 146.88 98.6433 148.36C98.2833 149.16 98.0833 150.04 98.0033 150.92C97.9633 151.48 97.8833 152.32 98.2833 152.76C98.6833 153.2 99.5233 153.32 100.123 153.4C102.083 153.68 104.163 153.52 106.123 153.36C108.203 153.2 110.283 153 112.363 152.72C113.403 152.56 115.323 152.6 115.723 151.4C115.883 150.8 115.923 150.16 115.843 149.52C115.763 148.56 115.643 147.6 115.483 146.68C115.123 144.52 114.563 142.4 113.763 140.36C113.243 139.04 112.403 136.96 110.843 136.56C108.683 136 106.483 137.84 105.043 139.2C103.603 140.52 102.323 142 101.123 143.56L100.923 143.84C100.723 144.08 100.723 144.4 100.963 144.6C101.043 144.68 101.123 144.72 101.203 144.72C101.563 144.84 102.083 144.68 102.443 144.28Z" fill="#000005"/>
<path d="M146.52 143.68C146.52 143.68 141.12 136.28 138.04 136.84C134.96 137.4 132.44 150.92 133.72 151.28C135 151.64 149.04 153.44 149.24 151.64C149.44 149.84 149.24 148.56 146.52 143.68Z" fill="white"/>
<path d="M147.44 144C146.56 142.84 145.64 141.72 144.64 140.68C143 138.92 141.04 137.2 138.68 136.56C137.92 136.36 137.16 136.28 136.52 136.76C135.96 137.24 135.52 137.84 135.2 138.48C134.24 140.4 133.56 142.44 133.16 144.52C132.76 146.28 132.4 148.12 132.48 149.92C132.52 150.48 132.56 150.88 133.04 151.2C133.72 151.56 134.44 151.8 135.2 151.88C137.04 152.2 138.92 152.4 140.8 152.56C142.92 152.8 145.08 152.88 147.2 152.88C147.96 152.88 148.68 152.8 149.4 152.64C149.88 152.48 150.16 152.32 150.2 151.8C150.36 149.88 149.6 148.16 148.76 146.48C148.32 145.6 147.88 144.8 147.44 144C147.24 143.68 146.68 143.52 146.36 143.4C146.28 143.36 145.48 143.16 145.6 143.4C146.36 144.72 147.04 146.08 147.64 147.48C148 148.24 148.2 149.04 148.32 149.88C148.36 150.28 148.48 151.12 148.24 151.48C148 151.84 147.4 151.84 147.04 151.92C145.28 152.16 143.44 152.04 141.72 151.92C139.76 151.8 137.8 151.6 135.84 151.32C135.16 151.24 134.48 151.12 133.8 151.04L133.48 151C133.4 151 133.08 150.88 133.4 151C133.16 150.92 133.36 151 133.88 151.24C134.08 151.32 134.28 151.4 134.48 151.52C134.48 151.44 134.4 151.36 134.4 151.32C134.28 150.76 134.28 150.24 134.32 149.68C134.4 148.84 134.48 147.96 134.64 147.12C134.96 145.12 135.48 143.12 136.2 141.2C136.48 140.36 136.88 139.56 137.32 138.8C137.6 138.24 138.04 137.76 138.56 137.44C138.8 137.32 139.08 137.28 139.36 137.32C139.28 137.32 139.56 137.36 139.48 137.36C139.56 137.36 139.4 137.36 139.52 137.36C139.36 137.36 139.44 137.32 139.52 137.36L139.56 137.4L139.68 137.48C140.52 138 141.32 138.64 142 139.36C143.24 140.56 144.36 141.84 145.4 143.24L145.6 143.48C145.88 143.76 146.28 144 146.68 144.08C146.76 144 147.6 144.2 147.44 144Z" fill="#000005"/>
<path d="M140.12 176.56L157.8 176L157.28 160.76C157.28 160.76 145.92 163.08 143.4 170.96L138.32 170.6L140.12 176.56Z" fill="#000005"/>
<path d="M140.922 176.88L146.882 176.68L156.402 176.4L158.602 176.32C158.642 176.32 158.722 176.32 158.762 176.28L158.322 162.92L158.242 161.08C158.242 160.88 157.602 160.72 157.442 160.68C157.082 160.52 156.722 160.48 156.362 160.52C154.962 160.84 153.602 161.24 152.322 161.8C149.722 162.84 147.162 164.28 145.202 166.32C143.962 167.56 143.002 169.08 142.442 170.76L142.762 170.72L137.682 170.36C137.722 170.36 137.322 170.32 137.362 170.4L139.202 176.36C139.282 176.64 139.882 176.76 140.122 176.8C140.202 176.8 141.162 177 141.122 176.88L139.282 170.92L138.962 170.96L144.042 171.32C144.082 171.32 144.322 171.36 144.362 171.28C146.122 165.96 151.722 162.96 156.762 161.48C157.242 161.32 157.722 161.2 158.202 161.12L156.322 160.52L156.762 173.88L156.842 175.72L157.002 175.68L151.042 175.88L141.522 176.2L139.322 176.28C138.922 176.28 139.522 176.6 139.602 176.64C140.002 176.8 140.442 176.88 140.922 176.88Z" fill="#000005"/>
<path d="M96.6404 151.16C96.6404 151.16 78.8804 156.2 81.9604 167.36C85.0404 178.52 143.36 176.56 143.36 176.56L143.8 165.8C143.76 165.8 110 147.64 96.6404 151.16Z" fill="white"/>
<path d="M96.0016 150.4C94.0816 150.96 92.2416 151.72 90.4816 152.6C87.3216 154.2 84.0416 156.32 82.2016 159.44C81.2016 161.04 80.7216 162.92 80.8016 164.8C80.8016 166.16 81.2016 167.48 81.9616 168.64C83.4016 170.64 85.7216 171.8 87.9616 172.68C90.9216 173.76 94.0016 174.56 97.1216 175.04C100.842 175.72 104.642 176.16 108.402 176.48C112.362 176.84 116.322 177.04 120.282 177.2C123.922 177.36 127.562 177.44 131.202 177.44C133.962 177.44 136.722 177.44 139.522 177.4C140.882 177.4 142.282 177.36 143.642 177.32H143.842C143.962 177.32 144.162 177.28 144.162 177.12L144.562 167.72L144.602 166.36C144.602 165.84 144.082 165.4 143.682 165.16C142.522 164.52 141.362 163.96 140.202 163.36C137.282 161.92 134.362 160.52 131.362 159.16C127.482 157.4 123.562 155.8 119.562 154.36C115.602 152.88 111.522 151.68 107.402 150.76C104.042 150.08 100.482 149.56 97.0416 150.16C96.6816 150.24 96.3216 150.32 96.0016 150.4C95.6016 150.52 96.0016 151.16 96.1616 151.32C96.4016 151.6 96.8816 152 97.2816 151.88C100.402 151.08 103.762 151.48 106.882 152.04C110.922 152.84 114.922 153.92 118.802 155.36C122.762 156.76 126.642 158.32 130.482 160C133.562 161.36 136.602 162.8 139.642 164.28C141.042 165 142.442 165.76 143.842 166.44L143.882 166.48L142.962 165.28L142.562 174.68L142.522 176.04L142.842 175.84C141.922 175.88 141.002 175.88 140.082 175.92C137.682 175.96 135.282 176 132.882 176C129.482 176 126.122 175.96 122.722 175.88C118.882 175.76 115.002 175.6 111.162 175.32C107.322 175.04 103.482 174.68 99.6816 174.16C96.4016 173.76 93.2016 173.08 90.0016 172.2C89.3216 172 88.6816 171.8 88.0016 171.56L87.5616 171.4L87.3216 171.32C87.1216 171.24 87.4016 171.36 87.2016 171.28C86.9216 171.16 86.6416 171.04 86.3616 170.92C86.0816 170.8 85.8016 170.68 85.5616 170.52L85.2016 170.32L85.0416 170.24C84.8416 170.12 85.2016 170.32 85.0016 170.24C84.8016 170.16 84.5616 169.96 84.3616 169.84C84.2816 169.76 84.1616 169.68 84.0816 169.64C83.9216 169.52 84.1216 169.68 84.1216 169.68L83.9616 169.56L83.7216 169.36C83.6416 169.28 83.4016 169.04 83.6416 169.28C83.4816 169.12 83.3616 168.96 83.2016 168.8C83.4016 169 83.2016 168.84 83.1616 168.72C83.1216 168.6 83.0416 168.56 83.0016 168.44C82.9616 168.32 83.0816 168.6 83.0016 168.48L82.9216 168.36C82.8816 168.28 82.8416 168.16 82.8016 168.08L82.7616 167.96C82.7216 167.8 82.8016 168.08 82.7616 167.96C82.6816 167.72 82.6416 167.48 82.6016 167.24C82.4816 166.76 82.4416 166.28 82.4016 165.76C82.3616 164.88 82.4816 163.96 82.7216 163.12C83.7216 159.68 86.7616 157.12 89.7216 155.36C91.9616 154.04 94.3616 152.96 96.8416 152.16C96.9616 152.12 97.1216 152.08 97.2416 152.04C97.9216 151.68 96.6416 150.24 96.0016 150.4Z" fill="#000005"/>
<path d="M116.92 123.6C115.96 121.56 114.96 119.56 113.8 117.6C113.56 117.28 113.24 117 112.88 116.76C112.72 116.64 112.56 116.52 112.4 116.44C112.36 116.44 112.2 116.36 112.28 116.44C113.4 118.4 114.44 120.4 115.36 122.44C115.44 122.56 115.56 122.68 115.68 122.8C115.88 122.96 116.08 123.16 116.28 123.28C116.44 123.4 116.6 123.52 116.76 123.6C116.8 123.64 116.96 123.72 116.92 123.6Z" fill="white"/>
<path d="M124.24 123.04V117.24C124.24 116.84 122.32 117.2 122.32 117.84V123.64C122.32 124.08 124.24 123.68 124.24 123.04Z" fill="white"/>
<path d="M124.16 113.12V112.6C124.16 112.56 124.12 112.48 124.08 112.48C124.04 112.44 123.96 112.36 123.88 112.36C123.76 112.32 123.68 112.28 123.56 112.24C123.44 112.2 123.32 112.16 123.2 112.16H122.92C122.76 112.16 122.64 112.16 122.48 112.2L122.32 112.24C122.24 112.24 122.2 112.32 122.16 112.4V112.92C122.16 112.96 122.2 113.04 122.24 113.04C122.28 113.08 122.36 113.16 122.44 113.16C122.52 113.2 122.64 113.24 122.76 113.28C122.88 113.32 123 113.32 123.16 113.36L123.44 113.4C123.6 113.4 123.76 113.4 123.88 113.36L124.04 113.32C124.08 113.24 124.12 113.2 124.16 113.12Z" fill="#68BA7F"/>
<path d="M131.282 123.8C132.002 122.4 132.682 120.96 133.362 119.52C133.402 119.4 133.362 119.28 133.322 119.2C133.162 118.76 132.922 118.36 132.602 117.96C132.602 117.92 132.362 117.72 132.362 117.76C131.682 119.2 131.002 120.64 130.282 122.04C130.242 122.12 130.282 122.28 130.322 122.36C130.482 122.8 130.722 123.2 131.042 123.6C131.042 123.64 131.242 123.88 131.282 123.8Z" fill="white"/>
<path d="M147.362 149.08C147.362 149.08 154.162 140.84 152.482 139.24C150.802 137.64 145.402 143.36 145.402 143.36" fill="white"/>
<path d="M148.203 149.6C150.003 147.4 151.843 145.04 153.043 142.44C153.643 141.2 154.163 139.64 152.723 138.76C151.043 137.72 149.163 138.92 147.803 139.96C146.643 140.84 145.523 141.84 144.523 142.88C143.963 143.48 145.723 144.4 146.203 143.88C146.923 143.12 147.723 142.36 148.563 141.68C149.203 141.12 149.923 140.6 150.643 140.16C150.963 139.96 151.283 139.84 151.603 139.72L151.803 139.64C151.843 139.64 152.003 139.6 151.883 139.6C151.963 139.6 152.043 139.56 152.123 139.56C152.323 139.56 152.083 139.52 152.163 139.56C152.003 139.52 151.883 139.48 151.763 139.36C151.603 139.24 151.843 139.4 151.763 139.36C151.723 139.32 151.763 139.24 151.763 139.4C151.763 139.44 151.763 139.48 151.803 139.56C151.803 139.68 151.803 139.8 151.803 139.92C151.683 140.52 151.483 141.12 151.203 141.68C150.443 143.2 149.523 144.64 148.523 146C147.883 146.88 147.243 147.72 146.563 148.56C146.003 149.2 147.763 150.12 148.203 149.6Z" fill="#000005"/>
<path d="M103.043 128.72L144.003 128.2L139.323 152.36L108.123 152.88L103.043 128.72Z" fill="#000005"/>
<path d="M102.36 128.92L106.44 128.88L116.2 128.76L128.04 128.6L138.28 128.48L141.64 128.44C142.16 128.48 142.72 128.48 143.24 128.44H143.32L143 128.36L141.4 136.56L138.88 149.6L138.32 152.56L140 152.24L129.44 152.44L112.64 152.72L108.8 152.8L109.12 152.88L107.4 144.68L104.68 131.72L104.04 128.72C104 128.48 102 128.8 102.04 128.96L103.76 137.16L106.48 150.16L107.12 153.16C107.12 153.24 107.4 153.24 107.44 153.24L118 153.04L134.8 152.76L138.64 152.68C139 152.68 139.36 152.64 139.72 152.56C139.84 152.56 140.28 152.48 140.32 152.36L141.92 144.16L144.44 131.12L145 128.16C145 128.08 144.68 128.08 144.68 128.08L140.6 128.12L130.84 128.24L119 128.4L108.76 128.52C107.08 128.56 105.44 128.56 103.76 128.6H103.68C103.2 128.6 102.72 128.64 102.28 128.8C102.04 128.8 102 128.92 102.36 128.92Z" fill="#000005"/>
<path d="M122.722 139.36C122.962 139.28 123.242 139.2 123.482 139.16C123.122 139.24 123.362 139.16 123.482 139.16L123.682 139.12C123.802 139.12 123.962 139.08 124.082 139.08H124.282C124.442 139.08 124.042 139.04 124.162 139.08H124.282L124.442 139.12L124.522 139.16C124.602 139.2 124.762 139.28 124.442 139.12L124.642 139.2L124.722 139.24C124.802 139.28 124.842 139.36 124.602 139.16L124.762 139.24C124.802 139.28 124.802 139.28 124.842 139.32C124.602 139.16 124.682 139.16 124.762 139.28C124.842 139.4 124.842 139.4 124.922 139.48C124.722 139.2 124.882 139.44 124.922 139.52L124.962 139.6C125.002 139.68 125.002 139.8 124.962 139.56C125.002 139.68 125.042 139.8 125.082 139.92C125.082 139.96 125.082 140.04 125.122 140.08C125.162 140.28 125.122 139.88 125.122 140.04C125.122 140.12 125.122 140.24 125.122 140.32C125.122 140.4 125.042 140.64 125.122 140.36C125.082 140.44 125.082 140.56 125.042 140.64L125.002 140.76C124.962 140.84 124.882 140.92 125.042 140.72C125.002 140.76 124.962 140.84 124.922 140.92C124.882 141 124.802 141.04 124.762 141.12C124.642 141.24 124.922 140.96 124.802 141.08L124.682 141.2C124.602 141.28 124.522 141.32 124.442 141.36L124.362 141.4C124.442 141.36 124.602 141.24 124.362 141.4C124.282 141.44 124.162 141.48 124.082 141.48C124.042 141.48 124.002 141.48 123.962 141.52C124.042 141.52 124.202 141.44 123.962 141.52C123.882 141.52 123.762 141.52 123.682 141.52H123.522C123.362 141.52 123.762 141.56 123.522 141.52C123.402 141.52 123.282 141.48 123.162 141.44C123.122 141.44 123.042 141.4 123.002 141.4C122.602 141.24 121.962 141.28 121.802 141.8C121.682 142.32 121.962 142.8 122.442 143C123.482 143.44 124.682 143.36 125.682 142.84C126.522 142.36 127.042 141.44 127.042 140.44C127.042 139.32 126.482 138.28 125.522 137.68C124.842 137.28 124.002 137.16 123.242 137.24C122.762 137.28 122.322 137.4 121.882 137.56C121.482 137.72 121.282 138.2 121.442 138.6C121.442 138.64 121.482 138.68 121.482 138.68C121.722 139.24 122.242 139.48 122.722 139.36Z" fill="white"/>
<path d="M100.36 150.12C100.36 150.12 94.4404 142.04 96.2804 140.32C98.1204 138.6 102.88 144.2 102.88 144.2" fill="white"/>
<path d="M101.241 149.72C99.7613 147.8 98.5213 145.68 97.5613 143.48C97.2813 142.84 97.0813 142.2 96.9213 141.52C96.8813 141.32 96.8813 141.12 96.9213 140.92C96.9213 140.8 96.9613 140.72 97.0013 140.6C96.9613 140.68 97.1213 140.32 97.0413 140.52C97.1213 140.36 97.1613 140.52 97.0413 140.48L97.0813 140.44C97.0013 140.48 96.9213 140.52 96.8413 140.56C96.6013 140.6 97.0413 140.48 96.8413 140.56C96.6013 140.6 96.8813 140.6 96.7213 140.56C97.0013 140.6 97.2813 140.68 97.5613 140.8C98.2413 141.12 98.8813 141.56 99.4413 142.08C100.361 142.84 101.241 143.72 102.041 144.64C102.441 145.12 104.281 144.36 103.801 143.8C103.041 142.92 102.201 142.08 101.321 141.36C100.041 140.28 98.4013 139.08 96.6413 139.6C95.8813 139.76 95.2813 140.32 95.0413 141.08C94.9613 141.72 95.0013 142.36 95.2413 142.96C95.8013 144.6 96.5613 146.16 97.5213 147.6C98.1613 148.6 98.8013 149.6 99.4813 150.56C99.8413 151.04 101.681 150.32 101.241 149.72Z" fill="#000005"/>
<path d="M111.843 102.32C116.283 107.72 120.003 106.96 118.763 111.2C118.763 111.2 127.283 116.36 131.203 109C131.803 107.84 136.683 99.1204 129.603 90.6804C129.603 90.6804 125.403 86.2004 128.323 81.7204C128.323 81.7204 123.163 84.2804 119.403 82.6004C115.643 80.9204 108.843 76.5204 106.443 79.9604C104.043 83.4004 108.603 86.8404 112.083 87.5604L110.323 93.3604C113.563 95.6804 116.563 92.4404 116.563 92.4404C116.563 92.4404 117.563 96.8804 116.203 98.1604C114.843 99.4404 111.003 98.4804 111.003 98.4804C110.603 99.7604 110.923 101.24 111.843 102.32Z" fill="white"/>
<path d="M111.763 102.96C113.323 104.84 115.203 106.28 117.163 107.72C117.323 107.84 117.483 107.96 117.643 108.08L117.843 108.24C117.883 108.24 118.083 108.44 117.963 108.36C118.083 108.48 118.203 108.6 118.283 108.72C118.163 108.6 118.283 108.72 118.323 108.76C118.203 108.48 118.323 108.76 118.323 108.8C118.243 108.52 118.323 108.8 118.323 108.84C118.283 108.6 118.323 108.88 118.323 108.88C118.323 108.76 118.363 109.12 118.363 109.12C118.363 109.56 118.283 110 118.163 110.44C118.003 111.04 118.483 111.8 118.963 112.08C120.443 112.96 122.083 113.52 123.803 113.76C125.163 114 126.563 113.84 127.883 113.4C129.443 112.76 130.723 111.64 131.523 110.16C132.683 108.16 133.443 105.96 133.803 103.72C134.403 99.4399 133.323 95.1199 130.843 91.6399C130.483 91.1199 130.083 90.5999 129.643 90.0799L129.563 89.9999C129.403 89.7999 129.683 90.1599 129.523 89.9599C129.363 89.7599 129.203 89.5599 129.083 89.3199C129.083 89.2799 128.923 89.0399 129.043 89.2399L128.883 88.9999C128.763 88.8399 128.683 88.6399 128.563 88.4399C128.403 88.0799 128.243 87.7599 128.163 87.3999C128.003 86.9199 127.923 86.4399 127.923 85.9599C127.883 84.7599 128.243 83.5599 128.883 82.5599C129.123 82.1599 128.363 80.6399 127.803 80.9199C126.163 81.7199 124.363 82.1999 122.563 82.3599C121.243 82.4799 119.923 82.1999 118.683 81.6399C117.563 81.1199 116.483 80.5199 115.363 79.9999C114.203 79.3999 113.003 78.9199 111.763 78.4799C110.683 78.0799 109.523 77.8799 108.363 77.8799C107.403 77.9199 106.483 78.3999 105.883 79.1599C105.123 80.1999 104.923 81.5599 105.323 82.7599C106.283 85.7999 109.403 87.8799 112.403 88.5599L111.443 86.8799L109.683 92.6799C109.523 93.1999 109.923 93.9199 110.323 94.2399C111.643 95.2399 113.363 95.4399 114.883 94.7999C115.643 94.4799 116.363 93.9999 116.963 93.3999L115.923 92.2799C115.883 92.1599 115.963 92.4799 115.923 92.2799C115.963 92.3999 115.963 92.5999 116.003 92.7599C116.083 93.2399 116.163 93.7599 116.203 94.2399C116.283 95.1999 116.363 96.3999 115.763 97.1999C115.163 97.9999 113.723 98.0399 112.803 97.9599C112.043 97.9199 111.283 97.7999 110.523 97.6399C110.443 97.6399 110.363 97.6799 110.323 97.7599C109.763 99.5199 110.443 101.52 111.523 102.88C111.683 103.08 112.083 103.56 112.323 103.24C112.563 102.92 112.163 102.24 111.963 102.04C111.563 101.52 111.323 100.88 111.323 100.24C111.323 99.9999 111.363 99.7599 111.403 99.5599C111.443 99.4799 111.443 99.4399 111.443 99.3599C111.443 99.3199 111.403 99.4799 111.443 99.3999L111.243 99.5199C112.683 99.8799 114.403 100.12 115.803 99.5999C117.643 98.9599 117.443 96.3999 117.283 94.7999C117.203 94.1599 117.123 93.4799 116.963 92.8399C116.923 92.6399 116.243 91.3599 115.923 91.7199C114.443 93.3199 111.963 94.0799 110.083 92.7599L110.723 94.3199L112.483 88.5199C112.643 87.9599 112.123 86.9599 111.523 86.8399C110.283 86.5599 109.123 86.0399 108.123 85.3199C107.643 84.9999 107.203 84.5999 106.843 84.1599C106.563 83.8799 106.363 83.5199 106.283 83.1199C106.123 82.0799 106.483 81.0399 107.283 80.3999C108.003 79.8399 108.923 79.6399 109.843 79.7599C112.163 79.9199 114.323 81.1199 116.363 82.1199C117.363 82.5999 118.363 83.1599 119.363 83.5999C120.523 84.1199 121.803 84.3199 123.083 84.2399C125.003 84.1199 126.883 83.5999 128.643 82.7599L127.563 81.1199C125.563 84.3199 126.763 88.2399 128.963 90.9599C130.043 92.2399 130.963 93.6399 131.643 95.1599C132.363 96.9599 132.723 98.8799 132.643 100.8C132.523 103.32 131.843 105.8 130.683 108.04C130.083 109.32 129.123 110.44 127.963 111.24C126.763 111.96 125.403 112.28 124.003 112.2C122.043 112.08 120.083 111.52 118.403 110.48L119.203 112.12C119.523 111.2 119.563 110.24 119.323 109.28C119.003 108.32 118.363 107.44 117.563 106.84C116.763 106.2 115.923 105.64 115.083 105.04C113.883 104.12 112.763 103.04 111.803 101.88C111.603 101.64 111.203 101.44 111.123 101.84C111.043 102.24 111.523 102.64 111.763 102.96Z" fill="#000005"/>
<path d="M133.84 107.28C133.84 107.28 137.6 111.72 140.12 109.76C142.64 107.8 139.24 106.28 139.24 106.28C139.24 106.28 146.24 103.56 142.2 99.3199C142.2 99.3199 148.84 98.1999 148.28 92.3999C147.72 86.5999 139.96 84.6399 139.96 84.6399C139.96 84.6399 144.04 79.1999 138.76 76.5199C133.48 73.8399 132.28 78.0399 132.28 78.0399C132.28 78.0399 128.92 76.2799 127.48 78.1599C126.04 80.0399 127.84 82.3999 127.84 82.3999C127.84 82.3999 124.88 88.4799 129.6 90.6399L128.8 100.36C128.8 100.36 125.6 101.88 125.36 105.52C125.08 109.2 131.56 111 133.84 107.28Z" fill="#000005"/>
<path d="M133 107.84C134 109.04 135.36 110.24 136.88 110.72C138.08 111.08 139.36 110.84 140.32 110.04C141.2 109.4 142.36 108.28 141.72 107.12C141.32 106.48 140.72 106 140.04 105.72L139 106.8C140 106.4 140.92 105.88 141.8 105.24C143 104.4 144.36 103.12 144.36 101.56C144.36 100.48 143.8 99.5602 143.08 98.8402L141.6 99.9602C144.36 99.4802 147.44 97.7602 148.64 95.2002C149.52 93.2402 149.36 90.9602 148.24 89.1202C147.24 87.4802 145.64 86.2802 144 85.4002C143 84.8402 141.92 84.4002 140.8 84.1202L140.76 84.5202C142 82.8402 142.92 80.4002 142.04 78.3602C141.28 76.6002 139.16 75.5202 137.36 75.2002C135.72 74.9202 134.04 75.4002 132.84 76.5202C132.2 77.0402 131.72 77.7602 131.48 78.5602L133.12 77.5202C131.48 76.6802 129.52 76.4402 127.88 77.4802C126.72 78.2402 125.96 79.4402 126.16 80.8402C126.28 81.6002 126.56 82.3602 127.04 83.0002L127.08 82.8002C126.56 83.8802 126.24 85.0802 126.12 86.2802C126.04 87.2402 126.16 88.1602 126.52 89.0402C127 90.0402 127.84 90.8402 128.88 91.2802L128.8 91.1202L128.08 99.6002L128 100.8L128.92 99.9602C126.64 101.04 124.72 103.4 124.56 106C124.4 108.84 127.68 110.2 130.08 109.88C131.96 109.64 133.68 108.56 134.72 106.96C134.96 106.6 134.32 106.72 134.2 106.8C133.76 106.96 133.36 107.24 133.12 107.64C133 107.84 132.84 108 132.68 108.16C132.6 108.28 132.48 108.36 132.32 108.4C131.92 108.56 131.48 108.68 131.04 108.72C129.96 108.8 128.88 108.56 127.96 108C127.12 107.52 126.48 106.72 126.28 105.76C126.08 104.56 126.56 103.16 127.24 102.16C127.4 101.96 127.56 101.76 127.76 101.56L127.92 101.4C127.96 101.36 128.24 101.12 128.12 101.24L128.32 101.08C128.36 101.04 128.6 100.88 128.48 100.96C128.36 101.04 128.88 100.72 128.68 100.84C128.48 100.96 128.72 100.84 128.76 100.8C129.08 100.64 129.32 100.44 129.56 100.2C129.68 100.04 129.72 99.8802 129.72 99.6802L130.12 94.7602L130.48 90.2002C130.48 90.1602 130.48 90.0802 130.4 90.0802C128.44 89.2002 127.64 87.3202 127.84 85.2802C127.92 84.2002 128.2 83.1202 128.68 82.1202C128.72 82.0802 128.72 82.0002 128.72 81.9202C128.4 81.4802 128.16 80.9602 128 80.4402C127.84 79.9602 127.8 79.4802 127.88 79.0002C127.92 78.7602 128 78.5202 128.12 78.2802L128.36 77.9602C128.36 77.9602 128.2 78.0002 128.2 78.0802C128.24 78.0002 128.96 78.0002 129.08 78.0002C129.48 78.0402 129.92 78.1202 130.32 78.2402C130.76 78.3602 131.16 78.5202 131.56 78.7202C131.8 78.8402 132.32 78.5202 132.48 78.4002C132.8 78.2402 133.04 78.0002 133.16 77.6802C133.16 77.6402 133.2 77.6002 133.2 77.5602C133.16 77.7202 133.24 77.4002 133.28 77.3602C133.36 77.2402 133.44 77.0802 133.48 76.9602C133.52 76.9202 133.52 76.8802 133.56 76.8402C133.48 76.9602 133.56 76.8802 133.56 76.8402C133.64 76.7602 133.72 76.6402 133.8 76.5602C133.64 76.7202 133.96 76.4002 133.84 76.5202C133.72 76.6402 133.88 76.4802 133.92 76.4802C133.72 76.5602 133.8 76.5602 133.88 76.5202C134.08 76.4002 133.68 76.6002 133.92 76.5202C134 76.4802 134.12 76.4402 134.24 76.4002C134.88 76.2802 135.56 76.3202 136.2 76.4802C137.84 76.8802 139.64 77.8402 140.36 79.4802C140.8 80.6402 140.76 81.8802 140.28 83.0002C140.08 83.4802 139.88 83.9602 139.6 84.4002C139.52 84.5602 139.4 84.7202 139.32 84.8402C139.24 84.9602 139.36 84.8002 139.28 84.8802C139.2 84.9602 139 85.2402 139.24 85.2802C141.68 85.8802 143.92 87.1602 145.68 89.0002C147.04 90.4802 147.68 92.4802 147.44 94.4802C147.32 95.3202 147 96.1202 146.48 96.8002C146.4 96.8802 146.24 97.1202 146.2 97.1202C146.16 97.1202 146.04 97.2802 145.96 97.3602C145.88 97.4402 145.72 97.5602 145.84 97.4802L145.64 97.6402C145.6 97.6802 145.44 97.8002 145.56 97.6802L145.32 97.8402C145.24 97.8802 145.04 98.0002 145.24 97.8802C145.08 97.9602 144.88 98.0802 144.72 98.1602C144.56 98.2402 144.76 98.1602 144.64 98.2002L144.4 98.2802C144.24 98.3602 144.08 98.4002 143.92 98.4802C143.76 98.5602 144.04 98.4402 143.84 98.5202L143.64 98.5602C143.44 98.6402 143.2 98.6802 143 98.7202C142.88 98.7602 142.64 98.8002 142.92 98.7602C142.68 98.8002 141.08 99.5202 141.44 99.8802C142.12 100.6 142.76 101.56 142.68 102.6C142.6 103.32 142.28 103.96 141.76 104.44C141.68 104.52 141.6 104.56 141.56 104.64C141.48 104.72 141.52 104.72 141.56 104.64L141.44 104.76L141.24 104.92C141 105.08 141.28 104.92 141.12 105L140.68 105.28C140.48 105.4 140.84 105.2 140.68 105.28L140.44 105.4L140.08 105.6C139.8 105.76 140.2 105.56 139.96 105.64L139.68 105.76C139.48 105.84 138.16 106.64 138.64 106.84C139.08 107.04 139.48 107.32 139.8 107.64C140.08 107.88 140.24 108.2 140.36 108.56C140.4 108.72 140.36 108.92 140.32 109.08C140.24 109.28 140.04 109.4 139.96 109.56C139.92 109.64 139.92 109.56 140.04 109.56C140.08 109.56 139.96 109.6 139.92 109.6C139.76 109.64 139.56 109.64 139.36 109.64C138.96 109.6 138.52 109.48 138.16 109.32C137.36 108.92 136.6 108.44 135.96 107.8C135.56 107.44 135.2 107.08 134.88 106.72C134.36 106.36 132.76 107.52 133 107.84Z" fill="#000005"/>
<path d="M128.123 91.1999C128.123 91.1999 131.403 87.9199 133.563 90.5599C135.723 93.1999 130.803 102.36 126.203 98.7199" fill="white"/>
<path d="M128.92 91.8002C129.6 91.0802 130.48 90.5602 131.44 90.2802C131.8 90.1602 132.16 90.1202 132.52 90.1602C132.68 90.1602 132.88 90.2002 133.04 90.2402C133.12 90.2802 133.2 90.3202 133.28 90.3202C133.36 90.3202 134 90.8402 133.04 90.1202C132.52 89.7602 132.76 89.8802 132.84 90.0002C133.12 90.4002 133.28 90.8802 133.32 91.3602C133.36 92.6402 133.04 93.9202 132.44 95.0402C131.84 96.2802 130.96 97.3602 129.84 98.1602C129.28 98.5602 128.64 98.8002 127.92 98.8802C127.56 98.9202 127.24 98.8802 126.88 98.8002C126.72 98.7602 126.56 98.6802 126.4 98.6402L126.2 98.5602C126.2 98.5602 126.48 98.7602 126.28 98.6002C126.2 98.5602 125.48 98.0002 125.4 98.0802C125.32 98.1602 126.08 98.7602 126.12 98.8002C127.48 99.8402 129 100.56 130.64 99.8402C132.04 99.2402 133.08 97.9202 133.8 96.6402C134.48 95.4002 135 93.8802 134.84 92.4802C134.76 91.8402 134.48 91.2802 134.04 90.8402C133.28 90.0402 132.12 89.0802 130.96 88.9602C129.6 88.8402 128.2 89.7202 127.28 90.6402C127.28 90.6802 128.76 92.0402 128.92 91.8002Z" fill="#000005"/>
<path d="M122.681 86.3998C122.281 86.2798 121.841 86.4798 121.721 86.8798C121.721 86.9198 121.681 86.9598 121.681 86.9998C121.521 87.8398 122.521 87.9998 122.881 87.3598C123.081 87.0798 123.041 86.6798 122.761 86.4798C122.721 86.4398 122.681 86.3998 122.681 86.3998Z" fill="#000005"/>
<path d="M84.4026 173.279C84.4026 173.279 32.3626 174.359 30.9226 172.759C29.4826 171.159 34.1226 164.119 39.0426 165.039C39.0426 165.039 40.2426 161.199 41.0026 161.199C41.7626 161.199 43.6826 164.919 43.6826 164.919C43.6826 164.919 51.4426 156.919 61.6026 154.919C71.7626 152.919 89.0426 163.559 84.4026 173.279Z" fill="#000005"/>
<path d="M53.0012 173.84C41.6412 173.84 31.4412 173.64 30.7612 172.88C30.2012 172.28 30.3612 171.04 31.1612 169.6C32.4012 167.36 35.4412 164.32 38.8812 164.8C39.2812 163.52 40.2012 160.96 40.9612 160.96C41.7212 160.96 43.1212 163.48 43.6812 164.56C44.9612 163.32 52.2812 156.52 61.5212 154.72C68.2412 153.4 78.2412 157.52 82.9212 163.56C85.4812 166.88 86.0812 170.28 84.6012 173.36L84.5612 173.48H84.4012C81.5212 173.56 66.4412 173.84 53.0012 173.84ZM38.1212 165.16C35.2012 165.16 32.6012 167.8 31.5212 169.8C30.8012 171.08 30.6412 172.2 31.0412 172.64C32.1612 173.76 63.4412 173.52 84.2812 173.12C85.9612 169.44 84.2812 166.04 82.6012 163.84C78.0012 157.92 68.2012 153.84 61.6012 155.12C51.6412 157.08 43.8812 164.96 43.8012 165.04L43.6012 165.24L43.4812 165C42.5612 163.24 41.3212 161.4 40.9612 161.4C40.6012 161.4 39.8412 163.16 39.2012 165.12L39.1612 165.28L39.0012 165.24C38.6812 165.2 38.4012 165.16 38.1212 165.16Z" fill="#000005"/>
<path d="M82.5207 173C82.1607 173.04 82.8007 173 82.8007 173C83.0007 173 83.1607 173 83.3607 173C83.6807 173 83.9607 173 84.2807 173.04C84.6007 173.08 84.9207 173.12 85.2407 173.16L85.8007 173.28L86.1607 173.36C86.3607 173.4 86.4007 173.4 86.2807 173.4C87.2007 173.68 88.1207 174.24 88.0007 175.36C87.9607 175.88 87.7607 176.36 87.4007 176.72C87.4807 176.64 87.5207 176.64 87.3607 176.72C86.9207 177 87.6407 176.64 87.1607 176.84C86.6807 177.04 87.4007 176.6 87.0007 176.92C86.8007 177 86.8007 177 87.0407 176.92C86.9207 176.96 86.8407 177 86.7207 177C86.6007 177 86.1207 177.2 86.6007 177.04C86.4807 177.08 86.4007 177.08 86.2807 177.12C85.9207 177.2 85.5607 177.24 85.2007 177.32C84.4407 177.44 83.6407 177.56 82.8807 177.68C82.4807 177.72 82.1207 177.76 81.7207 177.8L81.4407 177.84L81.0407 177.88C80.2007 177.92 79.3607 177.96 78.4807 178C77.0407 178.04 75.6007 178 74.1607 177.92C71.3207 177.76 68.4007 177.64 65.6007 178.24C63.7607 178.64 61.9207 179.24 60.4407 180.4C59.3207 181.28 58.2807 182.68 58.7607 184.2C59.0007 184.96 60.4407 184.72 60.9607 184.52C61.4807 184.32 62.8407 183.8 62.6007 183.04C62.4407 182.56 62.5207 182.04 62.8007 181.64C62.9207 181.44 63.0407 181.28 63.2407 181.12C63.2807 181.08 63.6807 180.8 63.3607 181C63.4407 180.96 64.0007 180.64 63.5607 180.84C63.7207 180.76 63.8807 180.68 64.0007 180.64C64.0407 180.6 64.6007 180.4 64.1607 180.56C64.4807 180.44 64.8407 180.36 65.1607 180.24C65.7207 180.08 64.7607 180.32 65.3207 180.2L65.6807 180.12C66.0807 180.04 66.4807 180 66.8807 179.96C67.4407 179.88 66.5207 179.96 67.0807 179.96L67.6007 179.92C67.9607 179.92 68.3207 179.88 68.6407 179.88C69.4007 179.88 70.2007 179.88 70.9607 179.92C72.4007 179.96 73.8407 180.08 75.2807 180.12C78.5607 180.16 81.8807 179.88 85.1207 179.32C87.8407 178.84 92.0807 177.56 91.8007 174.04C91.6807 172.4 90.1607 171.68 88.7607 171.32C86.8407 170.88 84.8807 170.76 82.9607 170.96C82.2807 171.04 80.9607 171.52 80.8007 172.32C80.6807 173.16 82.0407 173.04 82.5207 173Z" fill="#000005"/>
<path d="M34.8399 167.879C34.7999 168.079 34.8399 168.239 34.9199 168.439C35.0799 168.639 35.2799 168.719 35.5199 168.759C36.0399 168.799 36.5599 168.639 36.9599 168.279C37.0399 168.239 37.0799 168.119 37.0799 168.039C37.0799 167.959 37.0399 167.879 36.9599 167.879C36.7199 167.839 36.4799 167.919 36.3199 168.079C36.2399 168.119 36.4399 168.039 36.3599 168.039L36.3199 168.079H36.2799L36.3599 168.039C36.3599 168.039 36.3199 168.039 36.2799 168.039H36.1999C36.3199 167.999 36.2799 168.039 36.2399 168.039H36.1599C36.0799 168.039 36.2399 168.039 36.1999 168.039H36.0799C36.0799 168.039 35.9999 168.039 36.0399 168.039C36.0799 168.039 36.0399 168.039 35.9999 168.039C35.9599 168.039 35.9199 167.999 35.8799 167.999L35.9599 168.039C35.9199 167.999 35.8399 167.959 35.7999 167.919L35.8399 167.959C35.7999 167.919 35.7599 167.839 35.7599 167.759V167.839C35.7599 167.719 35.7599 167.639 35.7599 167.519C35.7599 167.439 35.6799 167.399 35.6399 167.359C35.5199 167.319 35.4399 167.319 35.3199 167.359C35.1999 167.399 35.0799 167.479 34.9999 167.559C34.8799 167.679 34.8399 167.759 34.8399 167.879Z" fill="white"/>
<path d="M26.1591 50.2002H71.5591C73.8391 50.2002 75.6791 52.0402 75.6791 54.3202V89.1202C75.6791 91.4002 73.8391 93.2402 71.5591 93.2402H26.1591C23.8791 93.2402 22.0391 91.4002 22.0391 89.1202V54.3202C22.0391 52.0402 23.8791 50.2002 26.1591 50.2002Z" fill="#68BA7F"/>
<path d="M71.7606 92.3603H27.1206C26.4006 92.4003 25.7206 92.3203 25.0406 92.1203C23.6006 91.5203 23.0406 90.1203 23.0406 88.6803V55.1603C23.0406 54.3603 23.0006 53.6003 23.3606 52.8403C23.6406 52.2803 24.0406 51.8003 24.5606 51.4803C24.8006 51.3203 25.0806 51.2403 25.3606 51.1603C25.4806 51.1203 25.5606 51.1203 25.6806 51.0803C25.7606 51.0803 26.2806 51.0403 25.9606 51.0403H69.5606C70.1206 51.0403 70.6806 51.0403 71.2806 51.0403C73.1606 51.0003 74.6806 52.4803 74.7206 54.3203C74.7206 54.3603 74.7206 54.3603 74.7206 54.4003C74.7606 56.0803 74.7206 57.8003 74.7206 59.5203V82.7203C74.7206 84.8403 74.7206 86.9603 74.7206 89.0803C74.7606 90.8403 73.4006 92.2803 71.6406 92.3203C71.6006 92.3203 71.5606 92.3203 71.5206 92.3203C71.0006 92.3603 70.6006 92.8003 70.5606 93.3203C70.6006 93.8803 71.1206 94.0803 71.6006 94.0803C74.4006 94.0003 76.6406 91.7203 76.6806 88.9203C76.6806 88.3203 76.6806 87.6803 76.6806 87.0803V55.6003C76.6806 55.1203 76.6806 54.6403 76.6806 54.1603C76.6006 51.4803 74.4406 49.3203 71.7606 49.2803C70.1606 49.2803 68.5606 49.2803 66.9206 49.2803H26.6406C24.8406 49.2803 23.1606 49.8803 22.0406 51.3603C21.2406 52.4803 21.0406 53.6803 21.0406 55.0003V88.7603C20.9606 90.4403 21.7606 92.0803 23.1206 93.0803C24.8006 94.2803 27.0006 94.0003 28.9206 94.0003H71.3206C71.8406 94.0403 72.3206 93.7203 72.4806 93.2403C72.5606 92.8003 72.3206 92.4003 71.8806 92.2803C71.8806 92.3603 71.8006 92.3603 71.7606 92.3603Z" fill="#68BA7F"/>
<path d="M28.5198 64.4805H26.8398V65.8005H28.5198V64.4805Z" fill="white"/>
<path d="M46.6797 64.4404H32.6797V65.7604H46.6797V64.4404Z" fill="white"/>
<path d="M55.1989 64.3203H50.8789V65.6403H55.1989V64.3203Z" fill="#000005"/>
<path d="M66.1463 64.3263L58.5078 64.4717L58.5329 65.7914L66.1714 65.6461L66.1463 64.3263Z" fill="white"/>
<path d="M28.5198 68.3604H26.8398V69.6804H28.5198V68.3604Z" fill="white"/>
<path d="M41.4787 68.3203H32.7188V69.6403H41.4787V68.3203Z" fill="#000005"/>
<path d="M46.802 68.2002H44.082V69.5202H46.802V68.2002Z" fill="white"/>
<path d="M59.43 68.156L48.8711 68.3311L48.893 69.6509L59.4519 69.4758L59.43 68.156Z" fill="white"/>
<path d="M28.5198 72.5205H26.8398V73.8405H28.5198V72.5205Z" fill="white"/>
<path d="M42.1187 72.4805H32.7188V73.8005H42.1187V72.4805Z" fill="white"/>
<path d="M47.8419 72.3604H44.9219V73.6804H47.8419V72.3604Z" fill="#000005"/>
<path d="M55.2204 72.3276L50.0625 72.4717L50.0994 73.7912L55.2573 73.6471L55.2204 72.3276Z" fill="white"/>
<path d="M28.5589 76.4004H26.8789V77.7204H28.5589V76.4004Z" fill="white"/>
<path d="M43.5987 76.3604H32.7188V77.6804H43.5987V76.3604Z" fill="#000005"/>
<path d="M50.1998 76.2402H46.8398V77.5602H50.1998V76.2402Z" fill="white"/>
<path d="M44.5198 82.8408H42.8398V84.1608H44.5198V82.8408Z" fill="white"/>
<path d="M58.1187 82.8408H48.7188V84.1608H58.1187V82.8408Z" fill="#000005"/>
<path d="M63.8419 82.6807H60.9219V84.0007H63.8419V82.6807Z" fill="white"/>
<path d="M71.2204 82.687L66.0625 82.8311L66.0994 84.1505L71.2573 84.0065L71.2204 82.687Z" fill="white"/>
<path d="M44.5198 86.7207H42.8398V88.0407H44.5198V86.7207Z" fill="white"/>
<path d="M59.5987 86.7207H48.7188V88.0407H59.5987V86.7207Z" fill="white"/>
<path d="M66.1998 86.5605H62.8398V87.8805H66.1998V86.5605Z" fill="#000005"/>
<path d="M28.8398 55.8406L26.6398 57.7206C26.4398 57.8806 26.4398 58.0006 26.5998 58.1606C27.2798 59.0406 28.1598 59.7206 29.1598 60.2006C29.5998 60.4406 30.1198 60.4806 30.5598 60.3206C30.6798 60.2806 30.8798 60.2006 30.8798 60.0406C30.8798 59.8806 30.7198 59.7606 30.5998 59.6806C30.3598 59.5606 30.1598 59.4406 29.9198 59.3206L29.7598 59.2006C29.7598 59.2006 29.5998 59.0806 29.6798 59.1606C29.5598 59.0806 29.4798 59.0006 29.3598 58.9206C28.9598 58.6006 28.5998 58.2406 28.2798 57.8406L28.2398 58.2806L30.4398 56.4006C30.5598 56.3206 30.6398 56.2006 30.5598 56.0806C30.4398 55.9206 30.3198 55.8006 30.1198 55.7606C29.8798 55.6806 29.5998 55.6406 29.3598 55.6406C29.2398 55.6806 29.0398 55.7206 28.8398 55.8406Z" fill="#000005"/>
<path d="M34.6402 55.4404C33.6802 57.0404 32.8802 58.6804 32.2402 60.4404C32.1602 60.8004 32.3602 61.1604 32.7202 61.2804C32.8002 61.2804 32.8402 61.3204 32.9202 61.3204C33.4402 61.3604 33.9202 61.0804 34.1202 60.6004C34.4402 59.8004 34.7602 58.9604 35.1202 58.2004C35.1602 58.1604 35.1602 58.1604 35.1202 58.2004L35.2002 58.0004C35.2402 57.8804 35.3202 57.8004 35.3602 57.6804C35.4402 57.4804 35.5602 57.3204 35.6402 57.1204C35.8402 56.7204 36.0802 56.3604 36.3202 55.9604C36.5202 55.6804 36.4802 55.2404 36.1602 55.0404C36.0802 55.0004 36.0402 54.9604 35.9602 54.9604C35.4802 54.8404 34.9202 55.0404 34.6402 55.4404Z" fill="#000005"/>
<path d="M37.2818 56.84L38.2818 57.68L38.7618 58.12C38.8418 58.2 39.1218 58.36 39.1618 58.48C39.1618 58.52 39.0418 58.64 39.0018 58.68L38.8018 58.96L38.4018 59.48L37.5618 60.52C37.2818 60.88 37.8818 60.76 38.0418 60.72C38.4818 60.6 38.9218 60.4 39.2418 60.04L40.1218 58.92L40.5618 58.36C40.6818 58.2 40.9218 58 40.9618 57.8C41.0018 57.6 40.8018 57.48 40.6418 57.36L40.0418 56.88L38.9218 55.96C38.8418 55.88 38.5218 55.96 38.4418 56C38.2018 56.08 37.9618 56.16 37.7218 56.32C37.6018 56.28 37.0418 56.6 37.2818 56.84Z" fill="#000005"/>
<path d="M71.3216 54.2408C71.7192 54.2408 72.0416 53.9184 72.0416 53.5208C72.0416 53.1231 71.7192 52.8008 71.3216 52.8008C70.9239 52.8008 70.6016 53.1231 70.6016 53.5208C70.6016 53.9184 70.9239 54.2408 71.3216 54.2408Z" fill="#000005"/>
<path d="M71.0806 53.6802C71.0806 53.7602 71.0806 53.8802 71.0406 53.9602L71.0806 53.8002C71.0406 53.8802 71.0006 53.9202 70.9606 53.9602L71.0806 53.8002C71.0406 53.8402 71.0006 53.8802 70.9606 53.9202L71.1206 53.8002C71.0806 53.8402 71.0406 53.8402 71.0006 53.8802L71.2006 53.7602C71.1606 53.7602 71.1606 53.8002 71.1206 53.8002L71.3606 53.7202L71.2406 53.7602L71.4806 53.7202H71.4006L71.6406 53.6802H71.6006H71.8406C71.8006 53.6802 71.7206 53.6802 71.6806 53.6402L71.8406 53.6802C71.7606 53.6402 71.7206 53.6402 71.6406 53.6002L71.7606 53.6802C71.6806 53.6002 71.6006 53.5602 71.5606 53.4402L71.6406 53.5602C71.6006 53.4402 71.5606 53.3602 71.5606 53.2402V53.4002C71.5606 53.2802 71.5606 53.2002 71.6006 53.0802L71.5606 53.2402C71.6006 53.1602 71.6006 53.1202 71.6406 53.0802L71.5206 53.2402C71.5606 53.2002 71.6006 53.1602 71.6406 53.1202L71.4806 53.2802L71.6006 53.2002L71.4006 53.3202L71.4806 53.2802L71.2406 53.3602C71.2806 53.3602 71.3206 53.3202 71.3606 53.3202L71.1206 53.3602H71.2006L70.9606 53.4002H71.0806L70.8806 53.3602C70.9206 53.3602 71.0006 53.3602 71.0406 53.4002L70.8806 53.3602C70.9606 53.4002 71.0006 53.4002 71.0806 53.4402L70.9606 53.3602C71.0406 53.4002 71.1206 53.4802 71.1606 53.6002L71.0806 53.4802C71.1206 53.5602 71.1606 53.6802 71.1606 53.8002V53.6002L71.0806 53.6802C71.0406 53.7202 71.0806 53.8002 71.1206 53.8802C71.1606 53.9602 71.2006 54.0002 71.2806 54.0402C71.4806 54.1202 71.7206 54.1202 71.9206 54.0802C72.1606 54.0402 72.4406 53.9602 72.6406 53.8002L72.8006 53.6402C72.8806 53.5602 72.9606 53.4402 72.9606 53.3202C72.9606 53.2002 72.9606 53.0802 72.9206 52.9602C72.8806 52.8402 72.8006 52.7202 72.7606 52.6402C72.7206 52.5602 72.6406 52.5202 72.6006 52.4802C72.5206 52.4002 72.4006 52.3202 72.2806 52.2802C72.0806 52.2002 71.8806 52.1602 71.6806 52.1602C71.4406 52.1602 71.2006 52.2002 70.9606 52.2802C70.7206 52.3602 70.5206 52.4402 70.3206 52.6002C70.2406 52.6402 70.1606 52.7202 70.0806 52.8002L70.0006 52.8802C69.8006 53.0802 69.6806 53.3202 69.6406 53.5602C69.6406 53.6802 69.6406 53.8002 69.6806 53.9202C69.7206 54.0402 69.7606 54.1602 69.8406 54.2402C69.8806 54.3202 69.9206 54.3602 70.0006 54.4002C70.0806 54.4802 70.2006 54.5602 70.3206 54.6002C70.6406 54.7202 71.0406 54.7602 71.3606 54.6802C71.4806 54.6402 71.6406 54.6402 71.7606 54.6002C71.9606 54.5202 72.1206 54.4402 72.3206 54.3602L72.4406 54.2802C72.5206 54.2002 72.6006 54.1602 72.6806 54.0802C72.8806 53.8802 73.0006 53.6002 73.0406 53.3202C73.0806 53.2402 73.0406 53.1602 73.0006 53.1202C72.9606 53.0402 72.9206 53.0002 72.8406 52.9602C72.6406 52.8802 72.4006 52.8402 72.2006 52.9202C71.9606 52.9602 71.6806 53.0402 71.4806 53.2002L71.3206 53.3202C71.1606 53.4402 71.0806 53.5602 71.0806 53.6802Z" fill="#000005"/>
<path d="M94.9595 27.6804C90.6395 27.3604 86.0795 29.8004 84.5195 33.9604C83.7595 35.9604 83.8795 38.5604 85.7195 39.9204C87.1595 41.0004 89.5995 41.2804 90.9995 39.9604C91.7595 39.2804 92.0395 38.0804 91.2395 37.2804C90.4395 36.4804 89.0395 36.2804 87.9595 36.4404C85.7595 36.8004 83.9595 38.4804 83.5195 40.6804C82.9595 43.2004 83.8795 45.7204 84.9995 47.9204C86.1995 50.2804 87.5195 52.4804 88.1595 55.0804C88.7995 57.6804 89.0795 60.6804 87.7595 63.0804C86.8795 64.6804 84.5195 66.3604 82.7195 65.1604C82.3195 64.8404 81.7995 64.8004 81.3595 65.0404C80.9595 65.3204 81.1595 65.7604 81.4795 65.9604C83.1595 67.0804 85.3595 67.1604 87.1195 66.2004C88.9595 65.2804 90.0395 63.4404 90.4395 61.4804C90.8795 59.3204 90.5995 57.0004 90.0395 54.8804C89.3995 52.5204 88.2795 50.4404 87.1595 48.2804C86.0795 46.2804 85.0795 44.0004 85.3995 41.6404C85.6395 39.8804 86.8395 38.0004 88.7195 37.7204C89.0395 37.6804 89.3595 37.6804 89.6795 37.7604C89.8795 37.8004 89.7995 37.8804 89.7595 37.7604C89.7995 37.8004 89.8395 37.8804 89.8395 37.9204C89.8395 38.1604 89.7995 38.4004 89.6795 38.6004C89.3595 39.1204 88.7595 39.4404 88.1595 39.4004C87.5995 39.4004 87.1195 39.1604 86.7595 38.7204C86.1995 37.9604 85.9995 37.0004 86.1195 36.0804C86.5195 31.7604 91.0795 28.5604 95.2395 28.8804C95.5995 28.9204 96.1595 28.7604 96.1195 28.3204C96.0795 27.8804 95.3195 27.6804 94.9595 27.6804Z" fill="#68BA7F"/>
<path d="M107 16.4805H136.68C137.88 16.4805 138.84 17.4405 138.84 18.6405V37.4805C138.84 38.6805 137.88 39.6405 136.68 39.6405H107C105.8 39.6405 104.84 38.6805 104.84 37.4805V18.6005C104.84 17.4405 105.8 16.4805 107 16.4805Z" fill="#000005"/>
<path d="M136.681 39.8402H107.001C105.721 39.8402 104.641 38.8002 104.641 37.4802V18.6002C104.641 17.3202 105.681 16.2402 107.001 16.2402H136.681C137.961 16.2402 139.041 17.2802 139.041 18.6002V37.4802C139.001 38.7602 137.961 39.8402 136.681 39.8402ZM107.001 16.6802C105.921 16.6802 105.041 17.5602 105.041 18.6402V37.4802C105.041 38.5602 105.921 39.4402 107.001 39.4402H136.681C137.761 39.4402 138.641 38.5602 138.641 37.4802V18.6002C138.641 17.5202 137.761 16.6402 136.681 16.6402L107.001 16.6802Z" fill="#000005"/>
<path d="M115.641 20.7206C114.441 20.1206 113.161 20.9606 112.721 22.1206C112.121 23.6806 112.761 25.3606 112.561 26.9606C112.481 27.6806 112.161 28.5206 111.481 28.8806C111.401 28.9206 111.281 28.9606 111.201 29.0006C111.121 29.0006 111.041 29.0006 110.961 29.0006L111.281 29.4006C111.481 29.8806 111.601 29.9606 111.681 29.6406C111.721 29.6006 111.761 29.5606 111.841 29.5206C112.001 29.4006 112.161 29.3606 112.361 29.3606C112.521 29.3606 112.681 29.4406 112.841 29.4806C112.761 29.6006 112.601 28.9206 112.561 29.1606C112.561 29.2406 112.641 29.3606 112.641 29.4006C112.681 29.6006 112.681 29.8006 112.681 30.0006C112.641 30.4406 112.601 30.8406 112.481 31.2406C112.241 31.9606 112.121 32.7206 112.161 33.4806C112.281 34.3606 112.681 35.1606 113.321 35.7606C113.921 36.4006 114.761 36.8006 115.681 36.8806C116.001 36.9206 115.521 36.2006 115.481 36.1606C115.281 35.8806 114.921 35.3606 114.561 35.3206C114.121 35.2406 113.721 35.1206 113.321 35.0006C113.401 34.8806 113.561 35.6806 113.601 35.2806C113.601 35.2006 113.561 35.1206 113.561 35.0006C113.521 34.8006 113.521 34.6006 113.521 34.4406C113.561 33.5206 113.921 32.6806 114.041 31.8006C114.161 30.9606 113.921 30.0806 113.401 29.3606C112.961 28.6806 112.241 27.8406 111.401 27.7606C111.081 27.7206 110.761 27.8406 110.521 28.0806C110.281 28.4406 110.441 28.8406 110.601 29.1606C111.001 29.8406 111.801 30.8406 112.681 30.4806C113.401 30.2006 113.761 29.2806 113.881 28.6006C114.001 27.7206 114.001 26.8406 113.881 25.9606C113.801 24.9606 113.761 23.8406 114.401 23.0006C114.881 22.3606 115.801 21.8406 116.601 22.2006C117.001 22.4006 116.721 21.8406 116.641 21.7206C116.361 21.2406 116.041 20.9206 115.641 20.7206Z" fill="white"/>
<path d="M120.682 36.56L121.562 35.72C121.642 35.68 121.682 35.56 121.682 35.48C121.722 35.4 121.722 35.32 121.682 35.2C121.642 35.12 121.602 35.04 121.522 34.96C121.442 34.88 121.362 34.8 121.242 34.76C121.002 34.64 120.722 34.6 120.482 34.64C120.242 34.64 120.042 34.76 119.882 34.88L119.002 35.72C118.922 35.76 118.882 35.88 118.882 35.96C118.842 36.04 118.842 36.12 118.882 36.24C118.922 36.32 118.962 36.4 119.042 36.48C119.122 36.56 119.202 36.64 119.322 36.68C119.562 36.8 119.842 36.84 120.082 36.8C120.322 36.8 120.522 36.72 120.682 36.56Z" fill="white"/>
<path d="M124.522 36.8003L124.762 36.5603C124.842 36.4803 124.882 36.4003 124.922 36.3203C124.962 36.2403 124.962 36.1203 124.962 36.0403C124.962 35.9203 124.882 35.8403 124.842 35.7603C124.762 35.6803 124.682 35.6003 124.602 35.5203L124.362 35.4003C124.202 35.3203 124.002 35.3203 123.842 35.3203L123.602 35.3603C123.442 35.4003 123.322 35.4803 123.202 35.5603L122.962 35.8003C122.882 35.8803 122.842 35.9603 122.802 36.0403C122.762 36.1203 122.762 36.2403 122.762 36.3203C122.762 36.4403 122.842 36.5203 122.922 36.6003C123.002 36.6803 123.082 36.7603 123.162 36.8403L123.402 36.9603C123.562 37.0403 123.762 37.0403 123.922 37.0403L124.162 37.0003C124.242 36.9603 124.402 36.8803 124.522 36.8003Z" fill="white"/>
<path d="M128.359 21.8807C128.679 21.7207 129.359 22.4407 129.519 22.7207C129.959 23.4807 129.879 24.4807 129.839 25.3207C129.719 26.9207 129.519 29.0807 131.119 30.1207C131.999 30.6407 133.159 30.4407 133.759 29.6007C134.399 28.7207 133.639 27.8407 132.719 27.6807C130.799 27.4007 129.479 29.3207 129.679 31.0807C129.799 32.0407 130.239 32.9607 130.199 33.9607C130.199 34.3207 130.119 34.6407 129.919 34.9207C129.679 35.2007 129.239 35.2007 128.879 35.2407C128.439 35.3207 127.879 35.6007 127.879 36.1207C127.879 36.6407 128.439 36.8007 128.839 36.7207C129.679 36.6407 130.519 36.3607 131.199 35.8407C131.719 35.3607 132.079 34.7207 132.159 34.0007C132.199 33.2807 132.119 32.5607 131.919 31.8407C131.719 31.1207 131.479 30.3207 131.759 29.5607C131.839 29.4007 131.919 29.2407 132.039 29.1207L132.079 29.1607L132.119 29.0407C132.239 28.9607 132.599 28.9207 132.519 28.8007C132.439 28.6807 132.279 28.5607 132.199 28.4807C132.079 28.3607 131.999 28.2007 131.959 28.0407C131.839 27.7207 131.759 27.3607 131.719 27.0007C131.599 25.4007 132.159 23.7607 131.519 22.2007C130.879 20.6807 129.159 19.9607 127.639 20.5607C127.559 20.6007 127.479 20.6407 127.439 20.6407C127.079 20.8407 126.799 21.3207 127.079 21.7207C127.359 22.1207 127.999 22.0407 128.359 21.8807Z" fill="white"/>
<path d="M154.519 52.0801H175.799C176.999 52.0801 177.959 53.0401 177.959 54.2401V66.6401C177.959 67.8401 176.999 68.8001 175.799 68.8001H154.519C153.319 68.8001 152.359 67.8401 152.359 66.6401V54.2401C152.399 53.0401 153.359 52.0801 154.519 52.0801Z" fill="#000005"/>
<path d="M175.8 68.9999H154.52C153.24 68.9999 152.16 67.9599 152.16 66.6399V54.2399C152.16 52.9599 153.2 51.8799 154.52 51.8799H175.8C177.08 51.8799 178.16 52.9199 178.16 54.2399V66.6399C178.16 67.9599 177.12 68.9999 175.8 68.9999ZM154.52 52.2799C153.44 52.2799 152.56 53.1599 152.56 54.2399V66.6399C152.56 67.7199 153.44 68.5999 154.52 68.5999H175.8C176.88 68.5999 177.76 67.7199 177.76 66.6399V54.2399C177.76 53.1599 176.88 52.2799 175.8 52.2799H154.52Z" fill="#000005"/>
<path d="M157.88 57.4001C157 58.2401 156.12 59.0801 155.28 59.9601C154.84 60.4401 155.08 60.9601 155.6 61.2401L159.68 63.7601C160.12 64.0001 160.68 63.9201 161 63.5201C161.28 63.0401 160.96 62.6401 160.56 62.4001L156.48 59.8801L156.76 61.1601C157.6 60.2801 158.48 59.4401 159.36 58.6001C160.24 57.8001 158.64 56.6801 157.88 57.4001Z" fill="white"/>
<path d="M165.8 55.7199C165.24 58.8399 164.52 61.9599 163.64 64.9999C163.52 65.4399 163.76 65.8799 164.2 65.9999C164.24 65.9999 164.28 66.0399 164.32 66.0399C164.84 66.0799 165.36 65.7599 165.48 65.2399C166.4 62.1999 167.12 59.0799 167.68 55.9599C167.88 54.6799 166 54.5599 165.8 55.7199Z" fill="white"/>
<path d="M170.48 58.5203C171.04 58.8803 171.6 59.2803 172.12 59.6803C172.16 59.7203 172.24 59.7603 172.16 59.7203L172.36 59.8803L172.76 60.2003L173.16 60.5203L173.32 60.6403C173.44 60.7603 173.32 60.6403 173.28 60.5603C173.24 60.3603 173.24 60.2003 173.32 60.0003C173.36 59.9603 173.4 59.9603 173.32 60.0003L172.88 60.3203L172 60.9603L170.28 62.2403C169.88 62.5603 169.8 63.1203 170.08 63.5603C170.32 63.9203 170.92 64.2403 171.36 63.9203L173.44 62.3603C173.76 62.1203 174.08 61.8803 174.44 61.6403C174.92 61.3203 175.12 60.7603 175 60.2003C174.8 59.3603 173.96 58.8403 173.28 58.3203C172.6 57.8003 171.92 57.3203 171.2 56.8403C170.84 56.6003 170.36 56.6803 170.08 57.0403C170.04 57.0803 170 57.1203 170 57.2003C169.8 57.6803 170 58.2403 170.48 58.5203Z" fill="white"/>
<path d="M147.039 31.1606C150.199 32.5206 152.759 34.9606 154.199 38.0806C154.439 38.4806 154.959 38.6406 155.399 38.4006C155.759 38.2806 156.319 37.8406 156.119 37.4006C154.479 33.9206 151.599 31.2006 148.079 29.7206C147.199 29.4006 145.919 30.6806 147.039 31.1606Z" fill="#68BA7F"/>
<path d="M155.641 42.5998V43.7998C155.641 43.9198 155.641 44.0398 155.681 44.1198C155.721 44.2398 155.761 44.3198 155.881 44.3998C155.961 44.4798 156.081 44.5598 156.201 44.5598C156.321 44.5998 156.441 44.6398 156.561 44.6398C156.841 44.6398 157.081 44.5598 157.281 44.3998L157.441 44.2398C157.521 44.1198 157.601 43.9998 157.601 43.8398V42.6398C157.601 42.5198 157.601 42.3998 157.561 42.3198C157.521 42.1998 157.481 42.1198 157.361 42.0398C157.281 41.9598 157.161 41.8798 157.041 41.8798C156.921 41.8398 156.801 41.7998 156.681 41.7998C156.401 41.7998 156.161 41.8798 155.961 42.0398L155.801 42.1998C155.721 42.2798 155.681 42.4398 155.641 42.5998Z" fill="#68BA7F"/>
</svg>
