<svg width="300" height="300" viewBox="0 0 300 300" fill="none" xmlns="http://www.w3.org/2000/svg">
<path d="M79.1999 120.36L84.3599 138.36C86.9999 136.56 95.5199 138.3 97.0799 143.88C98.6399 149.46 98.2799 152.94 95.3399 152.7C92.3999 152.46 93.1799 150.72 91.7399 148.2C90.2999 145.68 87.5399 144.84 84.6599 148.56C81.7799 152.28 85.3799 156.6 88.2599 155.76C90.8999 154.98 94.6799 156.6 92.7599 159.72C90.0599 164.16 84.5399 162.42 84.5399 162.42C79.0199 166.02 76.5599 160.68 76.5599 160.68C77.0399 163.26 74.5199 169.62 71.5199 167.88C68.5199 166.14 70.6799 163.2 70.7999 155.46C70.7999 155.46 55.3799 123.6 56.3399 113.1C57.2999 102.6 101.46 87.9004 101.46 87.9004L105.36 113.7L79.1999 120.36Z" fill="white"/>
<path d="M77.8806 121.02L82.3806 136.8L83.0406 139.08C83.2206 139.74 84.7806 139.02 85.0206 138.84C84.7206 139.02 85.2606 138.66 85.0206 138.84C84.7206 138.96 85.3206 138.66 85.0206 138.84C85.0806 138.84 85.4406 138.72 85.0806 138.78L85.4406 138.72C85.9206 138.66 86.4006 138.6 86.8806 138.66C88.0806 138.72 89.2806 138.96 90.4206 139.38C92.8806 140.28 95.0406 142.02 95.7606 144.6C96.3006 146.34 96.6006 148.08 96.6606 149.88C96.6606 150.42 96.6006 151.02 96.4206 151.56C96.3606 151.68 96.2406 152.04 96.2406 151.98L96.1806 152.04C96.0606 152.16 96.0606 152.16 96.1806 152.04C96.0606 152.16 96.0606 152.1 96.2406 152.04C96.3606 151.98 96.4806 151.92 96.6006 151.86C96.9606 151.74 96.4806 151.86 96.7206 151.86C96.6006 151.86 96.4806 151.86 96.3606 151.86C96.0606 151.86 95.8206 151.8 95.5206 151.74C94.9806 151.56 94.6206 151.14 94.4406 150.66C93.9006 149.4 93.6606 148.08 92.8206 147C90.4806 143.94 86.6406 145.44 84.3606 147.84C83.1606 149.16 82.2006 150.78 82.4406 152.64C82.6206 154.08 83.4006 155.34 84.6006 156.12C85.1406 156.48 85.8006 156.72 86.4606 156.78C87.1806 156.78 87.9006 156.66 88.6206 156.54C89.7006 156.42 91.0806 156.78 91.7406 157.74C92.5206 158.88 91.7406 160.26 90.8406 161.04C90.6006 161.22 90.3606 161.4 90.1206 161.58C89.9406 161.64 89.7606 161.7 89.6406 161.76C89.1606 161.88 88.6806 161.94 88.2006 161.94C87.4206 161.94 86.5806 161.82 85.8006 161.64C84.9606 161.46 84.3006 162 83.5806 162.36C83.0406 162.66 82.4406 162.84 81.7806 162.84C80.1606 162.78 78.7206 161.52 78.0606 160.14C77.6406 159.24 75.1806 160.56 75.3606 161.46C75.4806 162.6 75.3006 163.8 74.8806 164.82C74.7006 165.42 74.4006 165.96 74.1006 166.5C73.9806 166.74 73.8006 166.98 73.6206 167.16C73.5606 167.22 73.5006 167.34 73.4406 167.4C73.4406 167.4 73.2606 167.7 73.3206 167.46L73.2006 167.52C73.2606 167.46 73.3806 167.4 73.4406 167.4C73.6806 167.34 73.3806 167.34 73.5006 167.4C73.3806 167.4 73.2606 167.34 73.0806 167.34C72.6606 167.16 72.3006 166.92 72.0006 166.62C71.5206 165.96 71.2806 165.18 71.4006 164.34C71.4606 163.14 71.6406 162 71.8206 160.8C72.0606 159.06 72.2406 157.32 72.3006 155.58C72.2406 154.86 72.0606 154.08 71.6406 153.48C67.8006 145.5 64.4406 137.34 61.4406 129C59.9406 124.68 58.4406 120.18 57.9006 115.62C57.7806 114.84 57.7806 114 57.7806 113.22C57.7806 112.92 57.8406 112.62 57.8406 112.32C57.9006 112.08 57.9606 111.84 58.0206 111.66C58.1406 111.36 58.2606 111.12 58.4406 110.82C58.5006 110.7 58.5606 110.58 58.6206 110.46C58.6806 110.34 58.7406 110.34 58.7406 110.22C58.6206 110.46 58.8006 110.1 58.8606 110.1C59.0406 109.86 59.2806 109.56 59.5206 109.32L59.8806 108.9C59.9406 108.84 60.3606 108.42 60.1806 108.6C62.9406 105.9 66.4806 103.8 69.7206 102.06C74.0406 99.7199 78.4806 97.6799 82.9206 95.7599C86.7006 94.1399 90.5406 92.6399 94.6206 91.1399C96.7806 90.3599 99.0006 89.5799 101.161 88.7999L101.461 88.6799L100.141 88.3799L101.461 97.1399L103.561 111L104.041 114.18L105.841 112.86L96.9606 115.14L82.9206 118.74L79.6806 119.58C79.0806 119.7 78.1806 120.06 77.9406 120.66C77.7006 121.26 78.3606 121.38 78.8406 121.26L87.7206 118.86L101.761 115.26L105.001 114.42C105.421 114.3 106.921 113.76 106.801 113.1L105.481 104.34L103.381 90.4799L102.901 87.2999C102.781 86.6999 102.001 86.8799 101.581 86.9999C95.8806 88.9199 90.2406 91.0799 84.6606 93.3599C79.9806 95.2799 75.4206 97.3199 70.9206 99.6599C66.9006 101.76 62.8206 104.04 59.3406 106.98C58.0206 108.06 56.8206 109.38 55.9206 110.82C55.2006 111.96 54.9006 113.28 54.9606 114.6C55.0206 119.04 56.5206 123.54 57.9006 127.74C60.9606 136.74 64.5606 145.5 68.6406 154.08C69.0006 154.62 69.3006 155.28 69.4806 155.88C69.4806 156.24 69.4806 156.66 69.4206 157.02C69.4206 157.44 69.3606 157.86 69.3606 158.28C69.3006 159.24 69.1806 160.14 69.0606 161.04C68.8806 162.3 68.6406 163.56 68.5806 164.82C68.4606 165.72 68.7006 166.62 69.1206 167.34C69.7206 168.24 70.7406 168.78 71.8206 168.84C74.8806 168.84 76.8006 165.9 77.6406 163.32C78.0606 162.18 78.1806 160.98 78.0006 159.84L75.3006 161.16C75.8406 162.18 76.6206 163.08 77.6406 163.68C80.1006 165.12 83.1006 164.04 85.3206 162.66L83.6406 163.14C85.1406 163.56 86.7606 163.62 88.2606 163.32C89.7606 163.02 91.1406 162.36 92.3406 161.46C93.4206 160.62 94.5006 159.3 94.6806 157.92C95.1606 155.1 91.4406 154.32 89.4006 154.62C88.9806 154.74 88.5606 154.8 88.0806 154.8C87.4806 154.68 86.8806 154.38 86.4606 153.96C85.4406 153.06 84.9606 151.74 85.0806 150.36C85.2006 149.52 85.5006 148.74 86.0406 148.14C86.4006 147.6 86.8806 147.18 87.4206 146.82C88.3206 146.46 89.4606 147.36 90.0006 148.08C90.7806 149.16 91.0806 150.36 91.5606 151.56C91.9206 152.58 92.8806 153.3 93.9606 153.36C96.4806 153.72 99.0006 152.34 99.3606 149.7C99.4806 148.38 99.4206 147.06 99.1206 145.74C98.9406 144.24 98.4606 142.74 97.7406 141.36C96.3006 139.02 93.7206 137.58 91.0806 136.98C88.6806 136.38 85.8606 136.38 83.7606 137.76L85.7406 137.52L81.2406 121.74L80.5806 119.46C80.3406 118.92 77.5806 120.06 77.8806 121.02Z" fill="#000005"/>
<path d="M77.3402 155.34L77.4002 155.4C77.4002 155.4 77.3402 155.22 77.3402 155.34L77.4002 155.46C77.5202 155.64 77.5802 155.82 77.6402 156C77.8802 156.54 78.1802 157.08 78.4802 157.56C79.2002 159 80.2202 160.26 81.4202 161.4C82.2602 162.12 83.2802 162.66 84.3602 162.96C84.7202 163.08 85.0802 163.14 85.4402 163.14C85.6202 163.14 85.9202 163.08 85.9802 162.9C86.1602 162.42 84.9602 162 84.7202 161.94L84.4802 161.88C84.4202 161.88 84.4202 161.88 84.3602 161.82C84.3602 161.82 84.6602 161.94 84.5402 161.88C84.4802 161.82 84.3602 161.82 84.3002 161.76C84.3002 161.76 84.6002 161.94 84.4202 161.82L84.3002 161.76C84.2402 161.76 84.1202 161.64 84.0602 161.64C84.0002 161.64 84.2402 161.76 84.1802 161.7L84.0602 161.64C83.8802 161.52 83.7602 161.4 83.5802 161.28L83.4602 161.16C83.5202 161.22 83.3402 161.04 83.3402 161.04C83.2202 160.92 83.1002 160.74 82.9802 160.62C82.7402 160.32 82.5002 160.08 82.3202 159.78C81.6602 158.76 81.0002 157.74 80.5202 156.6C80.4002 156.24 80.2202 155.88 79.9802 155.58C79.4402 155.1 78.7802 154.8 78.1202 154.74C77.8202 154.74 76.9202 154.8 77.3402 155.34Z" fill="#000005"/>
<path d="M73.7988 157.32L74.8788 160.2L75.0588 160.62C75.1188 160.8 75.2988 160.86 75.4788 160.92C75.8388 161.04 76.1988 161.1 76.5588 161.1C76.9188 161.16 77.2788 161.1 77.6388 161.04C77.6988 161.04 78.1188 160.92 78.1188 160.8L77.0388 157.86L76.8588 157.44C76.7988 157.26 76.6188 157.2 76.4388 157.14C76.0788 157.02 75.7188 156.96 75.3588 156.96C74.9988 156.9 74.6388 156.96 74.2788 157.02C74.1588 157.08 73.7388 157.14 73.7988 157.32Z" fill="#000005"/>
<path d="M111.422 143.7C111.422 143.7 87.9617 171.6 87.4217 195.72C86.8817 219.84 100.682 251.1 100.682 251.1L125.702 250.62C125.702 250.62 119.102 213 119.102 204.84C119.102 196.68 128.822 172.56 140.042 172.56C151.262 172.56 166.202 185.16 167.162 204.36C168.122 223.56 163.022 247.2 163.022 247.2L193.082 249.12C193.082 249.12 207.362 213.96 199.202 186.54C191.042 159.12 154.802 139.8 154.802 139.8L111.422 143.7Z" fill="#000005"/>
<path d="M110.401 142.62C107.641 145.92 105.121 149.4 102.721 153C97.6209 160.62 93.1209 168.66 89.9409 177.24C88.2009 181.74 87.0009 186.42 86.4009 191.22C85.9209 196.2 85.9809 201.18 86.6409 206.16C87.7809 216.12 90.3609 225.96 93.4809 235.44C95.2209 240.72 97.0809 246 99.3009 251.1C99.3609 251.16 99.3609 251.28 99.4209 251.34C99.6609 251.88 100.141 252.54 100.801 252.48L122.701 252.06L125.821 252C126.481 252 127.021 251.46 127.021 250.8C127.021 250.74 127.021 250.68 127.021 250.62C126.601 248.04 126.121 245.52 125.701 242.94C124.741 237.36 123.841 231.78 123.001 226.2C122.161 220.74 121.321 215.34 120.781 209.88C120.601 208.2 120.481 206.52 120.421 204.78C120.421 204.72 120.421 204.36 120.421 204.6C120.421 204.84 120.421 204.48 120.421 204.42C120.421 204.18 120.481 203.94 120.481 203.7C120.541 203.16 120.601 202.56 120.721 202.02C120.961 200.76 121.261 199.5 121.621 198.3C123.301 192.24 126.001 186.54 129.661 181.44C131.221 179.1 133.261 177.06 135.601 175.5C137.521 174.24 139.861 173.76 142.141 174.12C147.901 174.84 153.301 178.56 157.201 182.88C162.181 188.52 165.181 195.66 165.721 203.22C166.381 211.92 165.601 220.74 164.521 229.32C163.801 234.84 162.961 240.42 161.821 245.88C161.761 246.18 161.701 246.42 161.641 246.72C161.521 247.62 162.121 248.46 163.021 248.58L173.221 249.24L189.421 250.26L193.141 250.5C193.621 250.56 194.041 250.26 194.221 249.84C195.541 246.54 196.621 243.18 197.581 239.76C199.861 232.08 201.481 224.22 202.381 216.3C203.401 206.88 203.281 197.22 200.881 188.04C198.841 180.06 194.641 172.92 189.481 166.5C184.561 160.56 179.041 155.16 172.921 150.42C168.541 146.94 163.921 143.76 159.121 140.82C157.981 140.1 156.841 139.44 155.641 138.78C155.281 138.54 154.921 138.36 154.501 138.3C154.201 138.3 153.901 138.36 153.601 138.36L141.601 139.44L123.481 141.06L111.601 142.2L111.001 142.26C110.221 142.32 109.981 143.34 110.221 143.94C110.461 144.66 111.181 145.14 111.901 145.08L126.601 143.76L149.881 141.72L155.221 141.24L154.201 141.06C157.981 143.1 161.581 145.38 165.061 147.9C172.741 153.12 179.761 159.3 185.941 166.26C189.301 170.1 192.181 174.3 194.581 178.8C197.041 183.6 198.721 188.76 199.501 194.1C201.301 205.68 200.041 217.62 197.521 229.02C196.141 235.5 194.281 241.86 191.881 248.1L191.761 248.4L192.841 247.74L182.641 247.08L166.501 246L162.781 245.76L164.221 247.62C165.121 243.54 165.781 239.4 166.381 235.26C167.761 226.56 168.421 217.8 168.481 209.04C168.481 204.66 168.181 200.28 167.041 196.02C166.021 192.18 164.341 188.58 162.181 185.28C158.401 179.58 153.001 174.72 146.521 172.38C143.941 171.42 141.001 170.82 138.241 171.24C135.481 171.66 133.141 173.28 131.221 175.14C128.941 177.36 126.961 179.88 125.341 182.7C123.601 185.58 122.161 188.58 120.901 191.7C119.101 196.26 117.481 201.24 117.781 206.22C118.081 211.08 118.801 215.94 119.521 220.8C120.361 226.8 121.381 232.8 122.341 238.8C122.941 242.52 123.601 246.3 124.261 250.02C124.321 250.2 124.321 250.38 124.381 250.56L125.581 249.18L103.681 249.6L100.561 249.66L101.941 250.8C100.141 246.66 98.5809 242.4 97.0809 238.14C93.8409 229.14 91.4409 219.84 89.8809 210.42C89.0409 205.44 88.6809 200.46 88.8009 195.42C89.0409 190.8 89.8809 186.24 91.3809 181.86C94.2009 173.16 98.5209 165 103.441 157.32C106.201 153.06 109.201 148.98 112.321 144.96L112.441 144.78C113.461 143.52 111.481 141.3 110.401 142.62Z" fill="#000005"/>
<path d="M169.621 243.901C169.621 243.901 167.041 264.901 167.641 264.901C168.241 264.901 177.181 265.321 177.181 265.321L177.781 256.921L181.441 266.521L211.381 267.061C211.381 267.061 212.581 264.061 206.101 260.221C199.621 256.381 189.301 250.801 189.301 250.801L189.961 238.261L169.621 243.901Z" fill="#000005"/>
<path d="M123.482 246.6C123.482 246.6 126.002 267.54 125.402 267.6C124.802 267.66 115.862 268.02 115.862 268.02L115.262 259.62L111.602 269.22L81.6619 269.76C81.6619 269.76 80.4619 266.76 86.9419 262.92C93.4219 259.08 103.862 253.44 103.862 253.44L103.202 240.9L123.482 246.6Z" fill="#000005"/>
<path d="M114.839 155.64C114.839 155.64 105.179 169.08 96.3592 170.34C96.3592 170.34 87.5992 150.84 94.7392 151.86C101.879 152.88 114.839 155.64 114.839 155.64Z" fill="white"/>
<path d="M113.339 155.46C112.199 157.02 110.939 158.52 109.619 159.96C107.099 162.9 104.159 165.48 100.979 167.58C99.2988 168.72 97.3187 169.56 95.3387 169.92L97.8588 170.46C96.0588 166.38 94.3788 162 93.6588 157.62C93.4188 155.94 92.9988 152.94 94.8588 152.22C94.9788 152.16 94.9187 152.22 94.9187 152.22H94.5588C94.6788 152.22 94.4988 152.22 94.4988 152.22L94.8588 152.28L95.6988 152.4C96.7188 152.58 97.7388 152.76 98.7588 152.94C100.979 153.36 103.139 153.72 105.359 154.14C107.459 154.56 109.559 154.98 111.659 155.4L112.259 155.52L112.559 155.58L113.399 155.76L114.119 155.94C114.659 156.06 115.679 156.3 116.159 156.06C116.639 155.82 115.979 155.58 115.679 155.52C112.979 154.98 110.279 154.38 107.579 153.9C105.299 153.48 103.019 153 100.739 152.64C98.6387 152.22 96.4788 151.86 94.3788 151.62C93.2388 151.56 91.8587 151.56 91.1387 152.64C90.5987 153.6 90.4188 154.62 90.5988 155.7C90.7188 158.7 91.7388 161.7 92.6988 164.46C93.3588 166.44 94.1388 168.36 94.9788 170.28C95.2188 170.88 96.9588 170.88 97.4988 170.82C101.459 170.22 104.879 167.88 107.879 165.3C110.519 162.96 112.919 160.44 115.139 157.68C115.619 157.14 116.039 156.54 116.459 155.94C116.639 155.7 115.139 155.46 115.019 155.46C114.479 155.22 113.639 155.1 113.339 155.46Z" fill="#000005"/>
<path d="M198.541 118.081L194.701 130.081C192.061 128.281 183.541 130.021 181.981 135.601C180.421 141.181 180.781 144.661 183.721 144.421C186.661 144.181 185.881 142.441 187.321 139.921C188.761 137.401 191.521 136.561 194.401 140.281C197.281 144.001 193.681 148.321 190.801 147.481C188.221 146.701 184.381 148.321 186.301 151.441C189.001 155.881 194.521 154.141 194.521 154.141C200.041 157.741 202.501 152.401 202.501 152.401C202.021 154.981 204.541 161.341 207.601 159.601C210.661 157.861 208.441 154.921 208.321 147.121C208.321 147.121 222.361 121.261 221.461 110.761C220.561 100.261 176.341 85.5605 176.341 85.5605L172.441 111.361L198.541 118.081Z" fill="white"/>
<path d="M197.46 117.12L193.62 129.12L194.76 129.06C193.02 127.92 190.68 127.98 188.76 128.4C186.42 128.82 184.2 130.02 182.58 131.76C181.74 132.72 181.14 133.86 180.84 135.06C180.36 136.62 180.12 138.24 180 139.86C179.88 142.2 180.84 145.2 183.48 145.68C184.62 145.92 185.76 145.62 186.66 144.9C187.44 144.12 187.62 142.86 188.04 141.84C188.46 140.82 189.24 139.62 190.38 139.2C191.64 138.72 192.72 139.44 193.5 140.4C194.46 141.42 194.64 142.92 193.98 144.18C193.5 145.26 192.54 146.04 191.34 146.34C190.8 146.34 190.2 146.28 189.72 146.1C189.06 146.04 188.46 146.04 187.8 146.16C186.66 146.34 185.64 147 184.98 147.96C184.14 149.52 185.16 151.32 186.06 152.58C187.02 153.9 188.4 154.86 189.96 155.4C191.7 155.94 193.56 156 195.3 155.46L194.46 155.22C196.56 156.54 199.14 157.32 201.36 155.94C202.32 155.34 203.1 154.5 203.58 153.48L201.36 151.8C200.94 154.26 202.2 157.26 203.64 159.12C204.42 160.08 205.5 161.1 206.82 161.22C207.84 161.28 208.8 160.86 209.46 160.08C210.78 158.58 210.24 156.3 210 154.5C209.76 152.94 209.58 151.38 209.46 149.82C209.34 149.22 209.34 148.56 209.46 147.96C209.88 147 210.48 146.04 210.96 145.14C211.86 143.4 212.7 141.6 213.6 139.86C215.88 135.24 217.86 130.44 219.66 125.58C220.5 123.24 221.22 120.78 221.82 118.32C222.36 116.34 222.6 114.3 222.6 112.2C222.48 108.9 220.2 106.32 217.8 104.28C214.56 101.64 211.02 99.3601 207.3 97.5001C203.04 95.2801 198.66 93.2401 194.28 91.3801C188.4 88.9201 182.4 86.5801 176.34 84.5401L176.04 84.4201C175.56 84.3001 175.2 84.3601 175.14 84.9001L173.82 93.6001L171.72 107.46L171.24 110.64C171.12 111.54 172.14 112.44 172.92 112.62L181.74 114.9L195.78 118.5L199.02 119.34C199.68 119.52 199.68 118.62 199.5 118.2C199.26 117.54 198.66 117 197.94 116.82L189.12 114.6L175.14 111L171.9 110.16L173.58 112.14L174.9 103.38L176.94 89.5201L177.42 86.3401L176.52 86.8201C181.26 88.3801 185.94 90.1801 190.56 92.0401C198.66 95.2801 206.82 98.7601 214.02 103.62C214.44 103.86 214.8 104.16 215.16 104.46C215.34 104.58 215.52 104.7 215.64 104.82C215.94 105.06 215.4 104.64 215.76 104.88L216.06 105.12C216.72 105.66 217.32 106.14 217.92 106.74L218.28 107.1C218.04 106.86 218.52 107.34 218.28 107.1L218.46 107.34C218.7 107.58 218.94 107.88 219.12 108.12C219.18 108.24 219.48 108.66 219.18 108.24C219.24 108.36 219.36 108.48 219.42 108.6C219.48 108.72 219.54 108.84 219.66 108.96C219.84 109.26 219.54 108.72 219.72 109.14L219.84 109.5C219.9 109.74 219.96 109.86 219.9 109.62C219.9 109.74 219.96 109.86 219.96 109.98C219.96 110.1 220.02 110.46 220.02 110.22C220.08 111.06 220.08 111.96 219.96 112.8C219.72 114.9 219.3 116.94 218.7 118.98C216.24 127.68 212.28 135.96 208.14 143.94C207.78 144.66 207.3 145.38 207 146.1C206.94 146.28 206.88 146.52 206.94 146.7C206.94 147.6 207 148.56 207.06 149.46C207.18 150.9 207.36 152.4 207.6 153.84C207.84 155.46 208.2 157.14 206.76 158.16C206.46 158.4 206.1 158.58 205.68 158.64C205.56 158.64 205.44 158.64 205.32 158.58C205.26 158.58 205.02 158.46 205.2 158.52C205.08 158.46 205.08 158.46 205.2 158.52L204.96 158.34C204.78 158.1 204.9 158.28 204.96 158.34C204.84 158.22 204.78 158.1 204.66 157.98C204.78 158.16 204.6 157.92 204.6 157.86C204.6 157.8 204.48 157.62 204.36 157.5C204.06 157.02 203.88 156.48 203.7 155.94C203.34 155.04 203.28 154.02 203.4 153.06C203.52 152.28 201.66 150.24 201.18 151.38C201 151.74 200.76 152.1 200.52 152.4C199.92 153.12 199.14 153.66 198.24 153.96C196.8 154.32 195.6 153.78 194.34 153.06C193.62 152.7 193.02 153 192.3 153.12C191.28 153.3 190.26 153.24 189.24 152.94C188.22 152.64 187.08 151.92 186.78 150.84C186.48 149.76 187.68 148.98 188.58 148.68C189.18 148.5 189.84 148.44 190.5 148.56C191.16 148.74 191.82 148.8 192.48 148.8C193.86 148.56 195.06 147.66 195.72 146.4C196.5 144.9 196.62 143.16 195.9 141.6C194.76 138.78 191.04 135.06 187.8 136.98C186.54 137.7 185.76 139.2 185.34 140.52C184.98 141.6 184.8 142.74 183.54 143.04C183.24 143.1 182.94 143.16 182.58 143.16C182.4 143.16 182.28 143.1 182.1 143.1C181.86 143.04 182.04 143.1 182.04 143.1L181.98 143.04C182.1 143.1 182.16 143.16 182.22 143.28C181.98 143.04 182.34 143.52 182.22 143.22C182.34 143.52 182.16 143.04 182.16 142.98C181.86 141.96 182.1 140.22 182.28 139.02C182.58 137.34 182.94 135.6 184.02 134.28C184.98 133.14 186.18 132.24 187.56 131.64C188.88 131.04 190.26 130.74 191.7 130.62C192.24 130.56 192.78 130.62 193.38 130.68C193.62 130.68 193.8 130.74 193.98 130.86L194.28 130.98C194.46 131.04 194.1 130.86 194.4 131.04C194.7 131.22 195.36 131.46 195.54 130.98L199.38 118.98C199.62 118.32 199.08 117.6 198.66 117.18C198.6 117.06 197.7 116.46 197.46 117.12Z" fill="#000005"/>
<path d="M199.018 146.76C198.838 147 198.718 147.24 198.598 147.48C198.358 147.96 198.118 148.5 197.818 148.98C197.158 150.24 196.318 151.44 195.298 152.46L195.058 152.7L194.998 152.76C195.118 152.7 194.998 152.76 194.938 152.82C194.758 152.94 194.638 153.06 194.458 153.12C194.278 153.24 194.098 153.3 193.918 153.42C193.738 153.48 194.098 153.36 193.858 153.42L193.558 153.54C193.378 153.6 193.078 153.72 193.078 153.96C193.078 154.2 193.318 154.38 193.438 154.5C194.098 154.86 194.818 154.98 195.538 154.8C198.418 154.02 200.098 151.02 201.358 148.5C201.478 148.14 201.658 147.84 201.838 147.54C202.018 147.36 201.898 147.18 201.778 147C201.538 146.82 201.238 146.64 200.938 146.58C200.338 146.4 199.498 146.28 199.018 146.76Z" fill="#000005"/>
<path d="M202.379 148.62L201.299 151.5L201.119 151.92C201.059 152.28 201.119 152.64 201.359 152.88C201.599 153.18 201.899 153.42 202.259 153.54C202.619 153.66 202.979 153.66 203.339 153.54L203.639 153.36C203.819 153.24 203.939 153 203.939 152.82L205.019 149.88L205.199 149.46C205.259 149.1 205.199 148.74 204.959 148.5C204.719 148.2 204.419 147.9 204.059 147.78C203.699 147.66 203.339 147.66 202.979 147.84L202.679 148.02C202.559 148.26 202.439 148.44 202.379 148.62Z" fill="#000005"/>
<path d="M193.501 120.48L164.221 112.02C166.141 128.7 164.881 144.54 164.701 145.5C164.221 147.54 118.561 153.36 106.861 146.46C107.041 136.26 108.001 126.06 109.681 116.04L83.0411 121.38L85.3211 134.46L66.1211 146.76C66.1211 146.76 41.5211 119.88 60.0011 102.96C78.4811 86.04 135.121 76.92 135.121 76.92C135.121 76.92 137.701 72.84 150.781 77.16C150.781 77.16 217.921 91.38 222.601 108.12C227.281 124.86 215.401 140.64 215.401 140.64L192.241 126.48L193.501 120.48Z" fill="white"/>
<path d="M192.779 119.64L182.939 116.76L167.219 112.2L163.559 111.12C163.379 111.06 162.959 111 162.959 111.36C164.039 121.14 164.339 131.04 163.739 140.88C163.679 141.96 163.619 143.1 163.499 144.18C163.499 144.3 163.499 144.42 163.439 144.54C163.379 144.66 163.439 144.54 163.439 144.66C163.439 144.72 163.379 144.72 163.379 144.78C163.259 144.9 163.439 144.72 163.319 144.84C162.419 145.5 160.979 145.62 159.899 145.86C154.739 146.88 149.459 147.6 144.239 148.02C137.459 148.68 130.619 148.92 123.839 148.8C120.839 148.74 117.779 148.5 114.779 148.14C112.439 147.9 110.159 147.3 107.939 146.46C108.179 146.58 107.939 146.46 107.819 146.4L107.519 146.22L107.279 146.1C107.579 146.22 107.339 146.16 107.219 146.04L108.299 147.12C108.359 140.46 108.839 133.74 109.619 127.14C110.039 123.72 110.519 120.24 111.059 116.82C111.179 115.98 109.259 115.02 108.599 115.2L85.2591 119.88L81.9591 120.54C81.8391 120.54 81.7791 120.66 81.8391 120.78L84.1191 133.86L84.2391 133.62L67.4391 144.36L65.0391 145.86L67.3191 147C65.9391 145.44 64.6791 143.82 63.4791 142.14C60.7191 138.36 58.4991 134.28 56.7591 129.9C54.8991 125.04 53.8791 119.64 54.9591 114.48C56.1591 109.08 59.5791 104.82 63.8991 101.58C67.9191 98.6998 72.2391 96.2398 76.7991 94.2598C81.9591 91.9798 87.2391 89.9398 92.6391 88.2598C102.719 85.0198 112.979 82.3798 123.359 80.2198C126.659 79.4998 129.959 78.8398 133.319 78.2398L135.779 77.8198C136.079 77.8198 136.319 77.6998 136.559 77.5198C138.839 75.5398 142.559 75.8398 145.439 76.3198C148.199 76.7998 150.839 77.7598 153.539 78.3598C160.319 79.8598 167.039 81.5998 173.699 83.4598C183.239 86.1598 192.779 89.2198 201.899 93.1198C205.919 94.7398 209.759 96.7198 213.419 98.9998C214.199 99.4798 214.619 99.7798 215.519 100.44C215.879 100.68 216.239 100.98 216.599 101.28C216.659 101.34 216.839 101.46 216.599 101.28L216.899 101.52C217.079 101.64 217.259 101.82 217.439 102C217.739 102.24 218.039 102.54 218.339 102.84L218.579 103.08C218.399 102.9 218.579 103.02 218.579 103.08C218.759 103.26 218.879 103.38 219.059 103.56C219.539 104.04 219.959 104.58 220.319 105.18C221.459 106.92 221.819 108.84 222.179 110.88C222.719 114.66 222.659 118.44 221.879 122.16C220.739 127.68 218.639 132.96 215.639 137.7C215.159 138.48 214.679 139.2 214.139 139.92L215.699 140.28L195.299 127.8L192.419 126.06L193.439 127.26L194.699 121.26C194.879 120.42 192.239 119.28 192.119 119.7L190.859 125.7C190.739 126.18 191.579 126.66 191.879 126.9L212.219 139.32L215.099 141.06C215.399 141.24 216.359 141.78 216.659 141.42C218.699 138.6 220.439 135.48 221.759 132.24C224.459 125.76 225.899 118.56 224.639 111.54C224.399 109.5 223.679 107.58 222.659 105.84C221.699 104.46 220.619 103.2 219.359 102.12C216.119 99.3598 212.579 97.0798 208.799 95.2198C199.859 90.5398 190.199 87.2398 180.599 84.2398C172.439 81.7198 164.219 79.4998 155.879 77.5198C154.079 77.0998 152.219 76.6798 150.419 76.2598C148.439 75.7798 146.519 75.0598 144.479 74.6998C142.019 74.2198 139.379 73.9198 136.919 74.4598C135.899 74.6398 134.879 75.1198 134.159 75.8398C134.039 75.9598 133.919 76.0198 134.099 75.9598C133.979 76.0198 133.799 76.0198 133.679 76.0198C131.519 76.3798 129.299 76.7998 127.139 77.2198C117.599 79.0798 108.059 81.2998 98.6991 83.9398C87.8991 86.9998 76.9791 90.5998 67.1391 96.1798C62.8191 98.6398 58.3791 101.64 55.4991 105.84C52.3791 110.34 51.4191 115.86 52.1991 121.26C53.5191 130.08 58.4391 138.3 64.0191 145.08C64.3791 145.5 64.7391 145.98 65.1591 146.4C65.5791 146.82 66.8391 147.9 67.4391 147.54L84.2391 136.8L86.6391 135.24C86.7591 135.24 86.8191 135.12 86.7591 135L84.4791 121.92L84.3591 122.16L107.699 117.48L110.999 116.82L108.539 115.14C107.399 121.98 106.619 128.82 106.139 135.72C106.019 138 105.899 140.28 105.779 142.56C105.659 143.58 105.659 144.6 105.719 145.62C105.839 146.4 106.979 146.88 107.639 147.24C108.299 147.54 108.959 147.84 109.619 148.08C111.119 148.62 112.679 149.04 114.239 149.34C118.079 150 121.979 150.36 125.879 150.42C134.579 150.6 143.219 150.18 151.859 149.1C155.099 148.74 158.399 148.26 161.579 147.66C162.539 147.48 163.559 147.24 164.519 146.94C164.939 146.82 165.719 146.64 166.019 146.28C166.319 145.92 166.259 144.66 166.319 144.12C166.439 142.14 166.559 140.16 166.619 138.18C166.859 131.52 166.679 124.92 166.199 118.26C166.079 116.34 165.839 114.42 165.659 112.5L165.059 112.74L174.899 115.62L190.619 120.18L194.279 121.26C194.819 121.44 194.939 121.08 194.639 120.66C194.099 120.18 193.439 119.82 192.779 119.64Z" fill="#000005"/>
<path d="M164.281 147.3C164.281 147.3 173.941 160.74 182.761 162C182.761 162 191.521 142.5 184.381 143.52C177.241 144.54 164.281 147.3 164.281 147.3Z" fill="white"/>
<path d="M163.201 148.02C164.461 149.76 165.841 151.38 167.281 152.94C169.981 156.06 173.041 158.7 176.521 160.92C178.381 162.12 180.421 162.96 182.581 163.32C183.121 163.5 183.721 163.2 183.961 162.66C184.681 161.1 185.281 159.48 185.881 157.86C187.081 154.92 187.861 151.86 188.341 148.74C188.641 146.34 188.461 142.86 185.521 142.14C184.801 142.02 184.021 142.02 183.241 142.2C182.221 142.38 181.201 142.5 180.181 142.68C177.841 143.1 175.561 143.52 173.221 143.94C170.041 144.54 166.861 145.2 163.621 145.86C161.941 146.22 163.081 148.98 164.701 148.62C167.101 148.08 169.561 147.6 171.961 147.12C176.161 146.28 180.361 145.38 184.621 144.84C184.441 144.84 184.801 144.84 184.861 144.84C184.921 144.84 185.101 144.84 185.221 144.84C185.461 144.84 184.921 144.9 185.281 144.84C185.461 144.84 185.581 144.96 185.341 144.84C185.401 144.84 185.701 145.08 185.461 144.9C185.221 144.72 185.461 144.9 185.521 144.96C185.641 145.14 185.401 144.84 185.401 144.84L185.461 144.96C185.461 144.96 185.521 145.02 185.521 145.08C185.581 145.38 185.401 144.72 185.461 145.02C185.521 145.14 185.521 145.2 185.581 145.32C185.701 145.62 185.581 145.2 185.581 145.38C185.641 145.62 185.701 145.92 185.701 146.16C185.701 146.28 185.701 146.4 185.701 146.52C185.701 146.76 185.701 146.52 185.701 146.46C185.701 146.52 185.701 146.58 185.701 146.7C185.701 147.06 185.701 147.36 185.641 147.72C185.281 150.54 184.561 153.3 183.541 155.94C182.881 157.74 182.221 159.54 181.441 161.28L182.881 160.62C179.221 160.08 176.041 157.74 173.341 155.4C171.901 154.14 170.581 152.82 169.321 151.44L168.481 150.48L168.061 150L167.941 149.82L167.881 149.76C167.461 149.28 167.041 148.74 166.621 148.2C166.201 147.66 165.781 147.12 165.361 146.58C165.061 145.92 164.281 145.62 163.681 145.92C163.021 146.22 162.721 147 163.021 147.6C163.021 147.78 163.081 147.9 163.201 148.02Z" fill="#000005"/>
<path d="M124.321 65.4602C124.321 65.4602 113.701 66.0002 112.621 61.5602C111.541 57.1202 118.021 59.1002 118.021 59.1002C118.021 59.1002 111.601 49.3802 122.341 49.3802C122.341 49.3802 114.541 41.5802 122.341 36.5402C130.141 31.5002 143.281 37.4402 143.281 37.4402C143.281 37.4402 144.301 28.0802 154.801 30.8402C165.301 33.6002 161.941 38.8202 161.941 38.8202C161.941 38.8202 168.721 40.5002 168.421 43.7402C168.121 46.9802 162.781 47.4602 162.781 47.4602C162.781 47.4602 159.481 56.3402 150.361 53.6402L139.681 63.8402C139.681 63.8402 142.261 68.5202 138.181 72.3002C134.101 76.0802 123.001 71.3402 124.321 65.4602Z" fill="#000005"/>
<path d="M123.779 64.3203H123.059H122.399H121.979C121.919 64.3203 121.379 64.3203 121.619 64.3203C120.779 64.2603 119.999 64.2003 119.159 64.1403C118.799 64.0803 118.379 64.0203 118.019 63.9603L117.419 63.8403C117.239 63.7803 117.059 63.7803 116.939 63.7203C116.519 63.6003 116.159 63.4803 115.799 63.3603L115.499 63.2403C115.559 63.2403 115.739 63.3603 115.499 63.2403C115.259 63.1203 115.139 63.0603 114.899 62.9403C114.659 62.7603 114.839 62.9403 114.899 62.9403C114.839 62.8803 114.779 62.8203 114.719 62.8203C114.659 62.7603 114.299 62.4603 114.539 62.7003C114.479 62.6403 114.239 62.2803 114.299 62.4003C114.359 62.5203 114.179 62.1603 114.119 62.0403C114.059 61.9203 114.059 61.8003 113.999 61.6203C113.939 61.4403 113.939 61.2603 113.939 61.1403C113.939 60.8403 113.999 60.6003 114.179 60.3603C114.059 60.4803 114.299 60.2403 114.359 60.2403L114.539 60.1203C114.659 60.0603 114.839 60.0003 114.959 60.0003C114.899 60.0003 115.079 60.0003 115.259 59.9403C115.439 59.8803 115.619 59.9403 115.799 59.9403H116.039C115.739 59.9403 116.099 59.9403 116.159 59.9403C116.519 60.0003 116.879 60.0003 117.179 60.0603C117.299 60.0603 117.479 60.1203 117.599 60.1803C117.719 60.2403 118.139 60.3603 117.659 60.1803L117.959 60.2403C119.039 60.6003 119.879 59.8803 119.159 58.8003C119.279 59.0403 119.339 59.1003 119.159 58.8003C118.979 58.5003 118.919 58.3203 118.799 58.1403C118.619 57.8403 118.439 57.4803 118.319 57.1803C118.259 57.0003 118.139 56.8203 118.079 56.6403C118.019 56.5203 118.019 56.4603 117.959 56.4003C117.899 56.3403 117.899 56.2203 117.959 56.3403C118.019 56.4603 117.899 56.2203 117.899 56.2203C117.779 55.8003 117.659 55.3803 117.599 54.9603C117.539 54.6003 117.479 54.1803 117.539 53.8203C117.599 53.0403 117.959 52.2603 118.559 51.7803C119.699 50.8803 121.439 50.7603 122.879 50.7003C124.079 50.7003 123.659 49.4403 123.119 48.9003C123.539 49.3203 123.239 49.0203 123.119 48.8403C122.999 48.6603 122.699 48.3603 122.459 48.0603C121.859 47.3403 121.379 46.5003 120.959 45.6603C119.879 43.3803 119.939 40.8003 121.799 38.9403C126.119 34.6203 133.319 35.5203 138.539 37.0203C140.099 37.4403 141.599 37.9803 143.039 38.6403C143.519 38.8803 144.479 38.7603 144.599 38.1003C144.839 35.8203 146.279 33.2403 148.559 32.2803C151.139 31.0803 154.199 31.8003 156.779 32.7003C157.439 32.9403 158.039 33.1803 158.639 33.5403C159.179 33.7803 159.659 34.1403 160.079 34.5603C160.379 34.8603 159.899 34.3803 160.199 34.6803L160.379 34.8603L160.619 35.1603C160.859 35.4603 160.499 34.9203 160.679 35.2203C160.799 35.4003 160.859 35.5803 160.919 35.7603C161.039 36.0603 160.859 35.5203 160.919 35.8203C160.919 35.9403 160.979 36.0603 160.979 36.1803C161.039 36.3603 161.039 36.4803 161.039 36.6603C161.039 36.4203 161.039 36.9003 161.039 36.6603C161.039 36.7803 161.039 36.8403 161.039 36.9603C160.979 37.2603 160.919 37.5603 160.859 37.8003C160.979 37.4403 160.799 37.9803 160.739 38.1003C160.679 38.2203 160.679 38.2203 160.619 38.2803C160.139 39.0003 161.219 39.9003 161.759 40.0803C162.659 40.3203 163.559 40.6203 164.399 40.9803C164.579 41.0403 164.579 41.0403 164.399 40.9803L164.639 41.1003L165.179 41.4003C165.359 41.5203 165.539 41.5803 165.719 41.7003L165.959 41.8803C165.839 41.7603 165.839 41.8203 165.959 41.8803C166.499 42.3003 166.799 42.6003 166.919 43.0203C167.279 44.3403 165.959 45.4203 164.759 45.9003C163.919 46.2603 163.079 46.5003 162.179 46.5603C161.939 46.5603 161.519 46.6803 161.459 46.9803C160.199 50.4003 157.019 53.2203 153.299 53.2803C152.519 53.2803 151.679 53.1603 150.959 52.9803C150.359 52.8603 149.759 52.5603 149.159 52.9803C148.559 53.4003 148.259 53.8803 147.779 54.3003L142.439 59.4003L138.659 63.1803C138.359 63.4203 138.299 63.9003 138.539 64.2003C138.599 64.2603 138.599 64.3803 138.659 64.4403C138.719 64.5003 138.719 64.6203 138.779 64.6803C138.779 64.7403 138.839 64.8003 138.839 64.8603C138.899 64.9803 138.779 64.6803 138.839 64.9203C139.079 65.6403 139.199 66.4203 139.199 67.1403C139.139 69.1203 138.059 71.3403 136.319 72.2403C134.879 72.9603 133.259 72.9003 131.699 72.5403C130.079 72.1803 128.639 71.4003 127.379 70.3203C126.779 69.7803 126.299 69.1803 125.999 68.4603C125.699 67.7403 125.639 66.9003 125.819 66.1803C126.059 64.9203 123.359 63.7203 123.059 65.2203C122.099 69.7803 127.019 73.2003 130.739 74.4003C132.839 75.1803 135.179 75.3003 137.339 74.7003C139.679 73.9803 141.419 71.7003 141.899 69.3603C142.259 67.5603 141.959 65.6403 141.119 64.0203L140.939 65.0403L150.239 56.1603L151.619 54.9003L150.359 55.0203C153.479 55.9203 156.719 55.9203 159.539 54.1803C161.279 53.1003 162.659 51.5403 163.619 49.7403C163.859 49.3803 164.039 48.9603 164.159 48.6003L163.439 48.9603C165.539 48.7803 168.299 47.9403 169.439 45.9603C171.299 42.7203 167.459 40.1403 164.939 39.0603C164.039 38.6403 163.139 38.3403 162.179 38.1003L163.319 39.9003C163.799 39.0603 164.039 38.0403 163.919 37.0803C163.679 34.5603 161.339 32.7003 159.239 31.6803C154.139 29.2203 146.459 27.9603 143.159 33.7803C142.499 34.8603 142.139 36.1203 141.959 37.3803L143.459 36.8403C139.139 34.9203 134.519 33.9003 129.779 33.8403C126.359 33.8403 122.699 34.6803 120.059 36.9603C118.799 37.9803 117.899 39.4203 117.599 41.0403C117.419 42.4803 117.599 43.9203 118.139 45.2403C118.919 47.2203 120.059 48.9603 121.559 50.4603L121.799 48.6603C119.039 48.6603 115.619 49.3803 114.839 52.4403C114.359 54.4203 115.139 56.5803 116.039 58.3203C116.339 58.8603 116.639 59.3403 116.939 59.8203L118.139 58.3803C115.739 57.6603 110.819 57.1203 111.059 60.9003C111.359 65.4003 117.179 66.5403 120.779 66.8403C122.099 66.9603 123.479 67.0203 124.799 66.9603C125.279 66.9603 125.639 66.6003 125.639 66.1203C125.639 66.0003 125.579 65.8203 125.519 65.7003C125.219 64.6803 124.499 64.2603 123.779 64.3203Z" fill="#000005"/>
<path d="M146.042 93.5398L148.802 85.1398L149.522 83.8198C149.522 83.8198 154.442 84.7798 160.442 78.4198C167.282 71.0998 161.822 49.0198 161.822 49.0198C154.202 49.6198 143.162 40.7998 143.162 40.7998C145.982 48.1198 138.002 60.1798 138.002 60.1798C135.662 53.5798 129.182 53.5798 129.122 59.8198C129.062 66.0598 134.702 66.7798 134.702 66.7798C134.702 66.7798 130.442 78.7198 130.862 81.2398C130.922 81.2398 134.942 95.4598 146.042 93.5398Z" fill="white"/>
<path d="M147.359 92.9404L149.099 87.6604L149.999 84.8404L150.059 84.5404C149.879 84.7804 150.119 84.3004 150.059 84.5404C150.299 84.1804 150.539 83.7604 150.719 83.3404L148.439 84.6004C150.779 85.0804 153.479 83.9404 155.459 82.9204C159.119 81.0004 162.479 77.9404 163.859 73.9804C164.999 70.6804 165.179 67.1404 165.119 63.7204C164.999 60.3004 164.699 56.9404 164.099 53.5804C163.799 51.7804 163.499 49.9804 163.019 48.2404C162.959 48.0604 162.539 48.1204 162.419 48.1204C159.179 48.3604 155.879 46.9804 153.059 45.6004C150.479 44.2804 147.959 42.7804 145.619 41.1004C145.139 40.7404 144.659 40.3804 144.179 40.0204C143.639 39.6004 141.419 40.8004 141.659 41.5804C142.799 44.6404 142.079 48.1204 141.119 51.1804C140.219 53.9404 139.019 56.5804 137.519 59.1004C137.219 59.6404 136.919 60.1204 136.559 60.6604L139.139 59.5804C138.419 57.6004 137.099 55.5004 134.999 54.7204C133.079 54.0004 130.859 54.7204 129.359 56.1004C126.299 58.9204 127.379 64.5604 130.679 66.6604C131.519 67.2004 132.539 67.5604 133.559 67.7404L133.199 67.4404C132.479 69.3604 131.879 71.3404 131.279 73.3204C130.799 74.8804 130.319 76.3804 129.959 77.9404C129.599 79.0804 129.419 80.2804 129.359 81.4804C129.359 82.6804 130.079 84.0004 130.559 85.0204C131.639 87.4204 133.139 89.6404 135.059 91.4404C137.759 93.9604 141.419 95.1004 145.079 94.4404C145.799 94.3204 146.459 93.9604 146.939 93.4204C147.299 93.0004 147.179 92.6404 146.579 92.7004C140.459 93.7204 135.959 89.1604 133.439 84.0604C133.019 83.2204 132.659 82.3804 132.359 81.5404L132.119 80.8204C132.119 80.7604 131.999 80.4604 132.059 80.6404C131.879 79.6204 132.239 78.4804 132.479 77.4604C132.839 75.9604 133.259 74.4604 133.679 72.9604C134.339 70.6804 135.119 68.4604 135.899 66.1804C135.959 66.0004 135.659 65.8804 135.539 65.8804H135.419H135.299C135.179 65.8804 135.419 65.8804 135.179 65.8804C134.759 65.7604 134.279 65.5804 133.859 65.4004C132.599 64.8004 131.579 63.8404 130.979 62.5804C130.139 60.8404 130.019 58.8004 130.679 57.0004C130.799 56.7004 130.979 56.4604 131.159 56.2204C131.279 56.1004 131.279 56.1004 131.279 56.1004C131.279 56.1004 131.219 56.1004 131.339 56.1004C131.339 56.1004 130.859 56.3404 131.159 56.2204C131.279 56.2204 131.399 56.2204 131.519 56.2204C131.879 56.2204 132.179 56.2804 132.539 56.4004C134.579 57.1204 135.779 59.1004 136.499 61.0804C136.619 61.4404 137.519 61.0804 137.699 61.0204C138.239 60.8404 138.719 60.4204 139.079 60.0004C140.039 58.5604 140.879 57.0004 141.599 55.4404C143.099 52.3804 144.359 49.0804 144.779 45.7204C145.019 43.9204 144.839 42.0004 144.239 40.2604L141.719 41.8204C143.099 42.9004 144.539 43.9204 145.979 44.8204C148.859 46.7404 151.979 48.2404 155.219 49.3204C157.079 49.8604 158.999 50.0404 160.919 49.8004L160.319 49.6804C161.339 53.8804 161.999 58.1404 162.239 62.4604C162.539 65.8204 162.359 69.2404 161.759 72.5404C161.519 73.9804 161.039 75.3604 160.379 76.6804C159.479 78.3004 158.219 79.6804 156.719 80.7004C155.399 81.7204 153.899 82.5004 152.279 82.8004C151.979 82.8604 151.679 82.8604 151.379 82.9204C151.199 82.9204 151.319 82.9204 151.379 82.9204H150.899C150.719 82.9204 150.539 82.9204 150.359 82.8604C149.639 82.7404 148.439 83.5204 148.079 84.1204C147.719 84.6604 147.419 85.3204 147.179 85.9204L146.279 88.6804L144.539 94.0804C144.359 94.6204 145.619 94.2604 145.799 94.2004C146.519 93.9604 147.059 93.5404 147.359 92.9404Z" fill="#000005"/>
<path d="M153.961 70.74C153.961 70.74 167.401 77.34 172.261 70.86C177.121 64.38 168.181 57.6 158.281 61.14" fill="white"/>
<path d="M153.959 71.4007C155.459 72.1207 157.019 72.7207 158.639 73.2007C161.519 74.1007 164.699 74.8207 167.699 74.5207C170.699 74.2207 173.639 72.6007 174.599 69.4807C175.679 66.1207 173.399 63.1807 170.699 61.3807C166.679 58.7407 161.519 58.5607 157.079 60.1207C156.539 60.3007 157.439 61.1407 157.619 61.2607C158.039 61.6207 158.819 62.1007 159.419 61.8607C162.599 60.7207 166.679 60.4207 169.679 62.0407C170.699 62.5807 171.539 63.4807 171.959 64.5607C172.439 65.7607 172.439 67.1407 171.899 68.3407C169.619 73.8607 162.779 73.0207 158.159 71.5807C157.559 71.4007 156.959 71.1607 156.359 70.9807L155.579 70.6807L155.279 70.5607C155.039 70.4407 155.519 70.6807 155.159 70.5007C154.799 70.3207 154.319 70.1407 153.899 69.9607C153.599 69.8407 152.699 69.4807 152.639 70.0207C152.579 70.5607 153.659 71.2207 153.959 71.4007Z" fill="#000005"/>
<path d="M152.939 57.0004C152.699 57.5404 152.999 58.1404 153.539 58.3804C153.599 58.3804 153.659 58.4404 153.659 58.4404C154.799 58.7404 155.159 57.3004 154.259 56.7604C153.899 56.4604 153.299 56.5204 152.999 56.8804C152.999 56.9404 152.939 56.9404 152.939 57.0004Z" fill="#000005"/>
<path d="M158.4 58.1404C158.16 58.6804 158.46 59.3404 159 59.5204C159.06 59.5204 159.12 59.5804 159.12 59.5804C160.26 59.8204 160.62 58.4404 159.72 57.9004C159.36 57.6004 158.76 57.6004 158.46 58.0204C158.46 58.0204 158.4 58.0804 158.4 58.1404Z" fill="#000005"/>
<path d="M144.419 66.84C144.599 67.02 144.719 67.2 144.899 67.44C144.539 66.96 144.839 67.38 144.959 67.5L145.199 67.8C145.259 67.92 145.559 68.34 145.199 67.8L145.379 68.1L145.559 68.4L145.679 68.58L145.559 68.34L145.619 68.4C145.799 68.76 146.039 69.06 146.279 69.36C146.339 69.48 146.459 69.6 146.579 69.66C146.639 69.72 146.699 69.78 146.819 69.84C146.999 69.9 146.939 69.72 146.939 69.6C146.879 69.3 146.759 69 146.579 68.76C145.859 67.56 145.019 66.42 144.119 65.28C144.059 65.16 143.939 65.04 143.819 64.98C143.759 64.92 143.699 64.86 143.579 64.8C143.399 64.74 143.459 64.92 143.459 65.04C143.519 65.34 143.639 65.64 143.819 65.88C143.939 66.24 144.179 66.54 144.419 66.84Z" fill="#000005"/>
<path d="M241.922 127.68C242.042 127.68 242.582 127.62 242.282 127.62C242.702 127.62 243.182 127.62 243.602 127.74C244.862 128.04 245.942 128.76 246.782 129.78C247.502 130.68 248.102 131.7 248.402 132.78C248.462 132.96 248.462 133.08 248.462 133.26C248.462 133.38 248.462 133.44 248.462 133.56C248.462 133.68 248.462 133.86 248.462 133.68C248.462 133.8 248.042 134.1 248.642 133.56C249.062 133.2 249.602 133.02 250.142 133.08C250.022 133.08 250.142 133.02 250.202 133.14C250.142 133.08 250.082 133.02 250.022 133.02C249.542 132.48 249.182 131.88 248.942 131.22C248.582 130.32 248.342 129.36 248.222 128.4C248.102 127.5 248.222 126.54 248.522 125.64C248.762 125.16 249.062 124.8 249.482 124.44C249.602 124.32 249.782 124.2 249.962 124.08C249.722 124.26 250.082 124.02 250.142 124.02C249.962 124.08 249.962 124.08 250.142 124.02C250.022 124.02 250.022 124.08 250.142 124.02C249.962 123.96 250.142 124.02 250.202 124.02C250.322 124.02 250.382 124.02 250.502 124.08C250.742 124.2 250.922 124.32 251.042 124.5C251.402 125.04 251.642 125.7 251.642 126.42C251.702 127.08 251.582 127.8 251.402 128.46C251.282 128.76 251.162 129 251.042 129.24C250.862 129.54 251.102 129.06 250.982 129.36L250.862 129.48C251.102 129.18 251.462 129 251.822 128.94L252.482 128.88C252.662 128.88 252.782 129 252.902 129.06C252.902 129 252.842 129 252.842 128.94C252.782 129 252.842 129.06 252.842 128.94C252.842 128.82 252.842 128.88 252.842 128.88C252.842 128.88 252.722 129 252.602 129.12C252.422 129.3 252.242 129.42 252.002 129.42C251.822 129.54 251.642 129.6 251.402 129.6C251.282 129.54 251.282 129.66 251.402 129.6C251.522 129.66 251.942 130.02 252.182 130.32C252.482 130.68 252.722 131.16 252.842 131.64C252.902 131.88 252.902 132.18 252.782 132.42L252.722 132.6C252.722 132.54 252.722 132.72 252.722 132.66C252.662 132.72 252.722 132.6 252.722 132.66C252.482 132.78 252.902 132.54 252.722 132.66C252.782 132.6 252.842 132.6 252.722 132.66C252.602 132.72 252.662 132.72 252.782 132.66C252.602 132.72 252.722 132.66 252.782 132.66L252.542 132.72C252.662 132.72 252.542 132.72 252.482 132.72C252.122 132.72 251.762 132.6 251.402 132.42C250.562 132.06 248.102 133.56 249.302 134.16C251.282 135.12 254.522 134.28 255.482 132.18C255.962 131.16 255.542 130.02 254.882 129.18C254.222 128.34 253.262 127.74 252.062 128.04C251.222 128.28 250.022 128.94 250.022 129.96C250.022 131.34 251.942 130.68 252.602 130.2C254.402 129 254.822 126.06 254.102 124.14C253.142 121.68 250.142 122.16 248.342 123.36C247.262 124.02 246.362 124.98 245.762 126.12C245.402 126.96 245.222 127.8 245.282 128.7C245.282 130.44 245.762 132.18 246.662 133.68C246.962 134.22 247.382 134.64 247.922 134.88C249.122 135.12 250.322 134.52 250.922 133.5C251.342 132.66 250.922 131.58 250.562 130.74C250.022 129.6 249.302 128.52 248.342 127.68C246.782 126.24 244.622 125.64 242.582 126C241.862 126.06 241.202 126.42 240.782 127.08C240.482 127.68 241.202 127.86 241.682 127.8L241.922 127.68Z" fill="#68BA7F"/>
<path d="M57.54 195.48C55.68 195.18 53.82 195.66 52.26 196.68C51.24 197.4 50.4 198.3 49.8 199.38C49.2 200.22 48.84 201.18 48.66 202.2C48.42 203.22 48.96 204.24 49.86 204.72C50.7 205.2 51.78 205.02 52.44 204.3C53.58 203.16 54.12 201.36 54.36 199.8C54.72 197.76 54.54 195.72 53.16 194.1C51.72 192.36 48.78 190.74 46.68 192.54C44.88 194.1 45.06 197.22 46.08 199.14C46.62 200.16 47.76 201.24 49.02 200.7C50.04 200.34 50.04 199.14 49.5 198.36C48.66 197.28 47.1 197.1 45.96 197.88C44.94 198.6 43.98 200.1 44.1 201.42C44.34 204.24 48.12 205.14 50.34 204.12C52.02 203.34 50.1 201.36 48.78 201.96C48.6 202.02 48.42 202.14 48.24 202.2C48.42 202.14 47.82 202.26 47.94 202.26C48.06 202.26 47.46 202.2 47.64 202.26C47.82 202.32 47.1 202.08 47.46 202.26C47.34 202.2 47.04 201.96 47.28 202.14C47.22 202.08 47.16 202.02 47.1 201.96C47.28 202.2 47.1 201.96 47.1 201.9C47.1 201.96 47.04 201.78 47.04 201.78C47.04 201.78 47.04 201.42 47.04 201.48C47.1 201.06 47.28 200.7 47.52 200.4C47.64 200.22 47.76 200.04 47.94 199.92C48 199.86 48.06 199.8 48.12 199.74C48.06 199.74 48.18 199.68 48.12 199.74C47.94 199.74 47.76 199.74 47.58 199.74C47.4 199.68 47.28 199.62 47.1 199.5C47.1 199.5 46.86 199.26 46.98 199.38C46.98 199.38 46.8 199.08 46.92 199.26L46.86 199.08C46.86 199.14 46.86 199.14 46.86 199.02C46.86 198.9 46.86 198.96 46.86 199.02C46.86 199.08 47.22 198.6 47.1 198.72L47.76 198.48L48.72 198.66C48.96 198.84 49.02 198.84 48.9 198.78C49.02 198.9 49.14 198.96 48.9 198.78C48.9 198.78 48.72 198.48 48.84 198.66C48.78 198.54 48.72 198.42 48.66 198.3C48.42 197.76 48.3 197.16 48.24 196.56C48.18 195.96 48.3 195.3 48.54 194.76C48.6 194.58 48.72 194.46 48.84 194.34C48.72 194.46 48.96 194.22 48.96 194.22C49.08 194.16 49.08 194.16 48.96 194.22C49.02 194.16 49.08 194.16 49.14 194.16C48.84 194.22 49.14 194.16 49.2 194.16C49.26 194.16 48.96 194.28 49.26 194.16H49.38C49.2 194.1 49.2 194.16 49.38 194.16L49.5 194.22C49.32 194.16 49.38 194.16 49.5 194.22C49.98 194.46 50.4 194.82 50.7 195.18C50.88 195.36 51.06 195.6 51.18 195.84C51.06 195.6 51.18 195.9 51.24 195.96C51.3 196.02 51.3 196.2 51.36 196.26C51.36 196.26 51.48 196.62 51.42 196.38C51.42 196.5 51.48 196.62 51.48 196.74C51.54 196.98 51.54 197.22 51.54 197.46C51.54 198.42 51.42 199.38 51.12 200.28C50.94 201.06 50.58 201.78 50.16 202.38C50.1 202.44 50.04 202.5 49.98 202.56C49.86 202.8 50.16 202.38 49.98 202.56C49.98 202.56 49.86 202.62 49.86 202.68C49.92 202.56 50.16 202.56 49.98 202.62C50.46 202.44 51.06 202.62 51.42 202.98C51.36 202.98 51.84 203.4 51.42 202.98C51.48 203.16 51.48 203.16 51.42 203.04C51.42 202.98 51.42 202.92 51.42 202.92C51.42 202.86 51.42 202.62 51.42 202.86C51.42 202.74 51.48 202.62 51.48 202.5C51.54 202.26 51.6 202.02 51.72 201.78C51.96 201.24 52.26 200.7 52.56 200.22C53.28 199.02 54.42 198.12 55.68 197.7C55.62 197.7 55.5 197.76 55.8 197.7C55.98 197.64 56.16 197.64 56.34 197.64H56.7C57 197.64 56.46 197.64 56.82 197.64C57.06 197.64 57.3 197.64 57.54 197.7C58.2 197.82 58.8 197.4 58.92 196.74V196.68C59.04 196.02 58.2 195.66 57.54 195.48Z" fill="#68BA7F"/>
<path d="M74.6415 174.121C69.4215 176.761 64.7415 181.441 63.8415 187.441C63.0015 193.021 65.8215 199.801 71.8215 201.121C74.8815 201.781 78.3615 200.701 80.1015 198.001C81.6015 195.541 80.8815 192.361 78.4815 190.801C78.3615 190.741 78.3015 190.681 78.1815 190.621C75.2415 189.121 71.7615 190.261 69.7215 192.721C67.6215 195.241 66.5415 198.601 66.1215 201.841C65.7015 205.081 65.6415 209.041 63.0615 211.441C62.3415 212.221 61.1415 212.461 60.1815 212.041C58.9815 211.621 58.1415 210.421 58.2015 209.161C58.3215 207.781 55.3815 208.261 55.2615 209.461C55.0215 211.861 57.0615 213.661 59.2815 214.081C62.0415 214.621 64.7415 213.241 66.3615 211.081C68.1615 208.681 68.5815 205.801 68.8815 202.921C69.2415 199.801 69.9015 196.741 71.7015 194.101C72.2415 193.261 73.0815 192.241 74.1615 192.001C75.3015 191.821 76.4415 192.301 77.1615 193.201C78.4815 194.821 78.3015 197.161 76.7415 198.541C76.4415 198.781 76.0815 199.021 75.7215 199.141C73.3215 200.041 70.6815 198.181 69.2415 196.441C67.6215 194.461 66.7815 192.001 66.7215 189.421C66.6015 183.301 70.8015 178.261 76.0215 175.621C76.5015 175.381 77.1015 174.781 76.7415 174.241C76.3815 173.701 75.1215 173.881 74.6415 174.121Z" fill="#68BA7F"/>
<path d="M199.08 166.501C202.8 172.261 210.24 173.401 216.54 173.461C220.14 173.521 223.98 173.581 227.46 172.441C230.58 171.361 233.16 168.961 234.42 165.841C235.68 162.721 235.98 159.241 235.38 155.941C235.08 154.081 234.72 152.041 235.56 150.301C236.28 148.741 237.84 147.781 239.52 148.441C240.96 149.041 242.22 150.361 243.18 151.501C244.32 152.881 245.28 154.441 245.94 156.181C246.48 157.501 247.32 159.481 246.66 160.921C246.54 161.161 246.36 161.401 246.12 161.581C246.12 161.581 245.7 161.761 245.7 161.701L246.06 161.821C246.06 161.821 245.58 161.161 245.52 161.041C245.28 160.621 245.1 160.201 244.98 159.781C243.42 155.761 241.8 151.201 243.3 146.881C243.9 145.081 245.1 143.581 246.78 142.621C248.1 141.901 250.08 141.361 251.46 142.201C251.82 142.381 252.78 142.921 253.08 142.381C253.38 141.841 252.42 141.241 252.12 141.061C248.82 139.021 244.62 139.741 242.16 142.741C239.58 145.921 239.7 150.301 240.66 154.081C241.2 156.241 241.92 158.341 242.94 160.381C243.78 162.001 245.46 163.801 247.5 163.621C249.36 163.501 249.66 161.521 249.42 160.021C249.06 158.101 248.34 156.241 247.38 154.501C246.42 152.821 245.22 151.261 243.84 149.941C242.28 148.441 240.36 147.001 238.2 146.461C236.28 145.981 234.36 146.461 233.28 148.201C232.2 149.941 232.26 151.921 232.56 153.781C232.92 155.761 233.04 157.741 232.98 159.721C232.86 161.521 232.38 163.261 231.6 164.941C229.98 168.361 226.74 170.701 222.96 171.241C220.68 171.541 218.34 171.721 216 171.661C214.08 171.661 212.22 171.541 210.3 171.361C206.82 170.941 203.34 169.921 201.36 166.861C200.94 166.261 200.28 165.901 199.56 165.781C198.96 165.601 198.78 165.961 199.08 166.501Z" fill="#68BA7F"/>
<path d="M180.899 155.88L185.519 155.64C185.819 155.58 186.119 155.4 186.239 155.1C186.359 154.74 186.419 154.38 186.299 154.08C186.119 153.36 185.459 152.82 184.739 152.82L180.119 153.06C179.819 153.12 179.519 153.3 179.399 153.6C179.279 153.9 179.219 154.32 179.339 154.62C179.519 155.34 180.179 155.88 180.899 155.88Z" fill="#68BA7F"/>
<path d="M189.36 162.781L190.62 164.341C190.74 164.461 190.92 164.581 191.1 164.641C191.28 164.701 191.46 164.761 191.64 164.761C191.82 164.761 192.06 164.761 192.24 164.641C192.42 164.581 192.6 164.521 192.78 164.401C193.08 164.161 193.26 163.861 193.32 163.501V163.141C193.26 162.901 193.14 162.721 192.96 162.541L191.7 160.981C191.58 160.861 191.4 160.741 191.22 160.681C191.04 160.621 190.86 160.561 190.68 160.561C190.5 160.561 190.26 160.561 190.08 160.681C189.9 160.741 189.72 160.801 189.54 160.921C189.24 161.161 189.06 161.461 189 161.821V162.181C189.06 162.421 189.18 162.601 189.36 162.781Z" fill="#68BA7F"/>
<path d="M102.96 169.56C103.08 170.22 103.02 170.88 102.9 171.48L102.96 171.3C102.9 171.54 102.84 171.72 102.78 171.96C102.72 172.2 102.78 172.44 102.96 172.62C103.2 172.92 103.5 173.16 103.8 173.28C104.1 173.46 104.46 173.58 104.82 173.58C105 173.58 105.36 173.58 105.42 173.34C105.72 172.44 105.78 171.54 105.66 170.58C105.6 170.28 105.48 170.04 105.24 169.92C104.94 169.68 104.64 169.44 104.28 169.32C103.98 169.2 103.68 169.14 103.32 169.2C103.14 169.2 102.9 169.32 102.96 169.56Z" fill="#68BA7F"/>
<path d="M101.521 161.221H100.501C100.141 161.221 99.7808 161.221 99.4208 161.281C99.4808 161.281 98.9408 161.341 99.0008 161.401L99.0608 161.461C99.1808 161.521 99.3008 161.521 99.4208 161.521C99.7808 161.581 100.141 161.581 100.501 161.581H101.521C101.881 161.581 102.241 161.581 102.601 161.521C102.541 161.521 103.081 161.461 103.021 161.401L102.961 161.341C102.841 161.281 102.721 161.281 102.601 161.281C102.241 161.221 101.881 161.221 101.521 161.221Z" fill="#68BA7F"/>
<path d="M90.9618 170.16C89.1018 171.06 87.4218 172.26 85.9818 173.7C85.9218 173.76 85.8018 173.94 85.9818 174C86.2218 174 86.4618 173.94 86.6418 173.82C87.3018 173.52 87.8418 173.16 88.3818 172.68L88.5618 172.5L88.9818 172.14L89.1618 171.96L89.1018 172.02L89.2218 171.96L89.6418 171.66L89.5218 171.78L89.6418 171.72L89.8218 171.6L90.0618 171.48L89.8818 171.6L90.0018 171.54L90.2418 171.42C90.3018 171.42 90.4818 171.3 90.2418 171.42H90.1818L90.6618 171.18C91.0218 171 91.3218 170.82 91.6218 170.58C91.7418 170.52 92.1018 170.28 92.1018 170.1C92.1018 169.92 91.9818 169.98 91.8618 169.98C91.5618 169.86 91.2618 169.98 90.9618 170.16Z" fill="#68BA7F"/>
</svg>
