<svg width="200" height="200" viewBox="0 0 200 200" fill="none" xmlns="http://www.w3.org/2000/svg">
<path d="M98.5998 57.04C98.5998 57.04 94.4798 55.88 93.2398 56.64C91.9998 57.4 87.7598 68.16 87.7598 68.16L95.0398 67.64L98.5998 57.04Z" fill="white"/>
<path d="M99.4798 56.6401C97.0798 55.9601 93.2798 55.0801 91.6798 57.6001C90.9598 58.8001 90.3198 60.0801 89.7598 61.4001C89.0798 62.8801 88.4798 64.3601 87.8398 65.8401C87.4798 66.6801 87.1198 67.5601 86.7998 68.4001C86.7198 68.6001 87.0398 68.5601 87.1198 68.5601L94.3998 68.0401C94.7598 68.0001 95.7998 67.8001 95.9598 67.4001L99.0798 58.1201L99.5198 56.8001C99.5998 56.5201 98.8398 56.7201 98.7598 56.7201C98.4798 56.8001 97.7598 56.9601 97.6398 57.2801L94.5198 66.5601L94.0798 67.8801L95.5998 67.2001L88.3198 67.7201L88.6398 67.8801C89.3998 65.9601 90.1998 64.0801 91.0398 62.1601C91.6398 60.8401 92.1998 59.5201 92.8798 58.2001C93.1198 57.7601 93.3598 57.3201 93.6398 56.8801C93.7598 56.7201 93.7998 56.7201 93.8798 56.5601C93.9598 56.4001 93.8398 56.5601 93.7598 56.6001C93.8398 56.5601 93.3598 56.8001 93.3198 56.7601C93.3998 56.7601 93.4798 56.7601 93.5598 56.7201C94.9198 56.7201 96.2798 56.9201 97.5998 57.3601C98.0398 57.4001 98.4398 57.3201 98.8398 57.1201C98.9998 57.1601 99.7598 56.7201 99.4798 56.6401Z" fill="#000005"/>
<path d="M104.76 41.7604L101.44 41.4004L91.2803 66.3604L94.2803 66.3204L104.76 41.7604Z" fill="#68BA7F"/>
<path d="M104.72 40.8804L101.4 40.5204C101 40.4804 100.6 40.7604 100.48 41.1604L97.04 49.6004L91.56 63.0404L90.32 66.1204C90.08 66.7204 90.84 67.2404 91.36 67.2404L94.36 67.2004C94.68 67.2404 95 67.0804 95.2 66.8004L98.76 58.4404L104.4 45.2404L105.68 42.2004C105.88 41.7604 105.72 41.2404 105.28 41.0004C104.92 40.8004 104.16 40.8004 103.92 41.2804L100.36 49.6404L94.72 62.8404L93.44 65.8804L94.28 65.4804L91.28 65.5204L92.32 66.6404L95.76 58.2004L101.24 44.7604L102.48 41.6804L101.56 42.3204L104.88 42.6804C105.36 42.7204 105.76 42.3604 105.8 41.8804V41.8404C105.68 41.2804 105.24 40.8804 104.72 40.8804Z" fill="#68BA7F"/>
<path d="M88.5602 66.4402C88.0002 66.7202 81.2002 81.8802 81.2002 81.8802L89.0402 91.1202L96.2802 71.2802C97.2802 70.2402 99.4802 67.0002 101.28 63.2402C101.68 62.4402 103.6 53.5202 102.92 50.0402C102.24 46.5602 100.56 52.9602 100.56 52.9602C100.56 52.9602 99.1202 48.1602 97.8402 50.3202C97.5602 50.8002 97.7602 58.0002 97.7602 58.0002C97.7602 58.0002 94.3602 56.9602 93.7602 57.5602C93.1602 58.1602 96.6802 61.2002 96.6802 61.2002C96.6802 61.2002 94.7202 66.2002 94.3202 66.3602" fill="white"/>
<path d="M87.8799 65.8001C87.3199 66.1201 86.9999 67.0801 86.7199 67.6001C86.0799 68.8401 85.4799 70.0801 84.9199 71.3201C83.6399 74.0401 82.3599 76.8001 81.1199 79.5601L80.2799 81.4402C80.1999 81.6401 80.2399 81.8401 80.3599 81.9601L87.1999 90.0801L88.1599 91.2402C88.4799 91.6002 89.6399 92.2401 89.9199 91.4801L92.3599 84.8401L96.2399 74.1601C96.5599 73.3201 96.7999 72.4801 97.1599 71.6801V71.6402C97.0799 71.8001 97.1199 71.6801 97.1999 71.6402C97.2799 71.5602 97.3599 71.4401 97.4399 71.3601C97.7999 70.9201 98.1599 70.4401 98.4799 70.0001C99.3999 68.6801 100.24 67.2801 101.04 65.8401C101.6 64.9201 102.08 63.9601 102.4 62.9201C102.64 62.0401 102.8 61.1601 103 60.2801C103.52 57.8401 103.84 55.4001 104 52.9201C104.08 51.8801 104 50.8401 103.8 49.8401C103.6 48.9201 102.68 47.8401 101.6 48.3201C101 48.6001 100.68 49.4401 100.44 50.0001C100.16 50.6801 99.9199 51.3601 99.7199 52.0801C99.6799 52.2001 99.6399 52.3601 99.5999 52.4801L101.44 52.9201C101.2 52.1201 100.88 51.3601 100.48 50.6401C99.9199 49.6801 98.6399 48.4001 97.4399 49.2001C96.6399 49.7201 96.7199 50.6801 96.6799 51.4801C96.6399 52.7201 96.6399 53.9601 96.6799 55.2001C96.6799 56.0401 96.6799 56.8801 96.7199 57.7201L97.6799 57.2801C97.1199 57.1201 96.5599 56.9601 95.9999 56.8401C95.1599 56.6801 94.0799 56.4001 93.2399 56.7201C91.5599 57.3601 93.9999 59.6401 94.5999 60.2001C94.9999 60.6001 95.4399 61.0001 95.8799 61.4001L95.6399 60.6801C95.3199 61.4801 94.9999 62.3201 94.6399 63.1201C94.3999 63.6801 94.1599 64.2801 93.8799 64.8401C93.7599 65.0401 93.6799 65.2801 93.5599 65.4801C93.5599 65.5201 93.5199 65.5601 93.5199 65.5601C93.4399 65.6801 93.5199 65.5201 93.5199 65.5601C93.5199 65.6001 93.3199 65.6801 93.5599 65.5601C93.1199 65.7601 93.2799 66.2401 93.5599 66.5201C93.9199 66.8801 94.4399 67.0001 94.9199 66.8401C95.2799 66.6801 95.4799 66.1601 95.6799 65.8401C95.9599 65.2801 96.2399 64.6801 96.4799 64.0801C96.8399 63.2001 97.1999 62.3601 97.5599 61.4801C97.6399 61.2001 97.5199 60.9201 97.3199 60.7601C96.8799 60.4001 96.4799 60.0001 96.0399 59.6001C95.8799 59.4401 95.7199 59.2801 95.5599 59.1201L95.2799 58.8401L95.1999 58.8001C95.0799 58.6401 94.9599 58.4801 94.8399 58.3201C94.7999 58.2401 94.7199 58.1601 94.6799 58.0801C94.5999 57.9201 94.7199 58.2001 94.6399 58.0001C94.5599 57.8001 94.6799 57.9601 94.5999 57.9601C94.6399 57.9601 94.5599 58.0001 94.5199 58.0801C94.4799 58.1601 94.4399 58.0401 94.5599 58.0801C94.4799 58.1201 94.4799 58.1201 94.5599 58.0801L94.7199 58.0401C94.5199 58.0401 94.7999 58.0401 94.8399 58.0401C94.9599 58.0401 95.0799 58.0401 95.1999 58.0801C95.3999 58.0801 95.5999 58.1201 95.7599 58.1601C96.4399 58.2801 97.1199 58.4401 97.7599 58.6401C98.0799 58.7601 98.7199 58.6401 98.7199 58.2001C98.6799 56.5201 98.6399 54.8401 98.6399 53.1601C98.5999 52.3201 98.6399 51.4801 98.7199 50.6801C98.6799 50.8801 98.7199 50.6801 98.7999 50.6001C98.8799 50.5201 98.9599 50.4801 98.9999 50.4001C98.9199 50.4001 98.9599 50.4801 98.9999 50.4001C98.9199 50.4001 98.7999 50.4401 98.7199 50.4001C98.6399 50.3601 98.3599 50.2801 98.5599 50.3601L98.4799 50.3201C98.3199 50.2401 98.4399 50.2801 98.5199 50.4001C98.3999 50.2801 98.5599 50.4801 98.5999 50.5201C98.6399 50.5601 98.7199 50.7201 98.7999 50.8401C99.1599 51.4801 99.4399 52.2001 99.6399 52.8801C99.7999 53.2401 100.16 53.5201 100.56 53.6001C100.84 53.6401 101.4 53.6801 101.48 53.3201C101.76 52.1601 102.16 51.0001 102.72 49.9601C102.76 49.8801 102.8 49.8401 102.84 49.8001C102.76 49.9201 102.84 49.8001 102.88 49.7601C102.92 49.7201 102.96 49.6801 103 49.6401C103.04 49.5601 103 49.6801 102.96 49.6801C103.12 49.6801 102.6 49.6801 102.68 49.6801C102.36 49.6401 102.08 49.5201 101.84 49.2801C101.96 49.3601 101.84 49.2801 101.88 49.3201C101.96 49.5201 102 49.7201 102.04 49.9201C102.2 50.8801 102.24 51.8401 102.12 52.7601C101.96 55.1201 101.64 57.4401 101.16 59.7601C101 60.5601 100.84 61.4001 100.6 62.2001C100.28 63.2001 99.8399 64.1201 99.2799 65.0001C98.5599 66.3601 97.7199 67.7201 96.8399 69.0001C96.5199 69.4401 96.1999 69.8801 95.8799 70.3201C95.6799 70.5201 95.5199 70.7201 95.3999 70.9201C95.0799 71.6401 94.8399 72.3601 94.5999 73.0801L90.8799 83.2801L89.1199 88.1201C88.7999 88.9601 88.4399 89.8401 88.1599 90.7201C88.1599 90.7601 88.1199 90.8001 88.1199 90.8401L89.8799 91.0801L83.0399 82.9601L82.0799 81.8001L82.1599 82.3201C84.1599 77.8801 86.1599 73.4001 88.3199 69.0401C88.5599 68.5602 88.7999 68.0801 89.0799 67.6001C89.1599 67.4401 89.2399 67.2801 89.3599 67.1201C89.2399 67.2001 89.4799 66.9601 89.3599 67.1201C89.4799 67.0401 89.4799 67.0401 89.2799 67.1601C90.1199 66.5601 88.5599 65.4401 87.8799 65.8001Z" fill="#000005"/>
<path d="M99.0803 52.04C99.3603 53.04 99.6003 54.08 99.8003 55.08C100.16 56.76 100.48 58.52 100.36 60.24C100.36 60.44 102.36 60.56 102.36 60.36C102.48 58.64 102.12 56.88 101.8 55.2C101.6 54.16 101.36 53.16 101.08 52.16C101.04 51.96 100.24 51.96 100.08 51.96C100 51.96 99.0403 51.96 99.0803 52.04Z" fill="#000005"/>
<path d="M98.1203 58.8801C98.2403 58.8801 98.3603 58.9201 98.4803 58.9201C98.6003 58.9601 98.7203 58.9601 98.8403 59.0001L98.9203 59.0401C99.0003 59.0801 99.0803 59.0801 99.1603 59.1201C99.3203 59.2001 99.4803 59.2801 99.6403 59.3601L99.7603 59.4401C99.8403 59.4801 99.6403 59.3601 99.7203 59.4001L99.8003 59.4401C99.8803 59.4801 99.9603 59.5601 100.04 59.6401C100.08 59.6801 100.12 59.7201 100.16 59.7201C99.9203 59.5601 100.12 59.6801 100.16 59.7201L100.28 59.8401C100.12 59.6801 100.44 60.0001 100.28 59.8401L100.36 59.9601C100.52 60.1601 100.24 59.7601 100.32 59.9201C100.36 59.9601 100.36 60.0001 100.4 60.0801C100.28 59.8401 100.52 60.2401 100.4 60.0801C100.4 60.1201 100.52 60.3601 100.44 60.2001C100.36 60.0401 100.48 60.2801 100.48 60.3601C100.48 60.4401 100.52 60.5201 100.56 60.6001C100.6 60.6801 100.52 60.4001 100.56 60.5601L100.6 60.6801C100.64 60.8801 100.64 61.0401 100.68 61.2401C100.68 61.3601 100.68 61.0801 100.68 61.2801C100.68 61.3201 100.68 61.4001 100.68 61.4401C100.68 61.5601 100.68 61.6801 100.68 61.8001C100.72 62.2801 100.92 62.7201 101.24 63.0401C101.4 63.2001 101.88 63.5201 101.88 63.0801C101.96 61.4001 101.36 59.7201 100.2 58.5201C99.5203 57.8401 98.6803 57.3601 97.7603 57.1601C97.6003 57.1201 97.4403 57.0801 97.2803 57.0801C96.8803 57.0801 97.1603 57.7601 97.2403 57.9201C97.3603 58.1601 97.4803 58.3601 97.6803 58.5601C97.8003 58.7601 97.9603 58.8401 98.1203 58.8801Z" fill="#000005"/>
<path d="M87.5195 159.68C87.5195 159.68 98.6795 184.72 100.24 184.72C101.8 184.72 117.36 170 117.16 167.68C116.96 165.36 110.6 169.12 109.4 169.12C108.2 169.12 102.32 166.96 102.32 166.96L100.52 155.36L87.5195 159.68Z" fill="#000005"/>
<path d="M49.56 183.76C49.92 184.32 68.52 183.76 68.52 182.8C68.52 181.84 64.08 176.76 64.08 176.76L69.28 161.44L55 156.4C55 156.36 48.16 181.52 49.56 183.76Z" fill="#000005"/>
<path d="M50.04 166.48L69.12 168.64L87.12 90.2002L58.88 91.4402L50.04 166.48Z" fill="white"/>
<path d="M49.2398 167.041L55.6798 167.761L65.9199 168.921L68.2798 169.201C68.5598 169.241 68.9598 168.881 69.1598 168.721C69.3598 168.561 69.8799 168.321 69.9199 168.081L70.3998 166.001L71.7199 160.281L73.6798 151.841L76.0399 141.521L78.6399 130.281L81.2799 118.881L83.7199 108.241L85.7999 99.2807L87.2799 92.8407L87.7598 90.8407C87.8798 90.4807 87.9599 90.1607 87.9999 89.8007C87.9999 89.7607 87.9999 89.7207 88.0399 89.6807H87.9999L78.3999 90.1207L63.2399 90.8007L59.7598 90.9607C59.4798 90.9607 59.0398 91.3607 58.7998 91.5207C58.5598 91.6807 58.1598 91.8807 58.1598 92.0807L57.9199 94.0807L57.3198 99.5207L56.3598 107.561L55.1998 117.441L53.9199 128.201L52.6399 139.081L51.4399 149.281L50.4398 157.841L49.5998 164.001L49.3598 165.921C49.2798 166.241 49.2398 166.601 49.2398 166.921C49.2398 167.001 49.2398 167.041 49.2398 167.041C49.2798 167.041 50.0798 166.641 50.1598 166.561C50.3198 166.441 50.8799 166.161 50.9199 165.921L51.1598 163.921L51.7998 158.481L52.7199 150.401L53.8798 140.521L55.1598 129.761L56.4399 118.881L57.6399 108.681L58.6399 100.121L59.3598 93.9607C59.4798 93.0007 59.6399 92.0007 59.7199 91.0407C59.7199 91.0007 59.7199 90.9607 59.7199 90.9207L58.1199 92.0407L67.0798 91.6407L81.9999 91.0007L86.0399 90.8407C86.0799 90.8407 86.2799 90.8007 86.3199 90.8407C86.3599 90.8807 86.2799 90.8007 86.2799 90.8807C86.2799 91.0407 86.2399 91.1607 86.1999 91.3207L84.7999 97.3207L82.1999 108.641L78.8799 123.121L75.3199 138.561L72.0399 152.761L69.5598 163.641L68.3199 169.041L68.2798 169.281L69.9199 168.161L63.4798 167.441L53.2399 166.281L50.8798 166.001C50.5998 165.961 50.1998 166.321 49.9998 166.481C49.7998 166.601 49.5998 166.761 49.4398 166.921C49.4398 166.841 49.1998 167.041 49.2398 167.041Z" fill="#000005"/>
<path d="M56.4795 93.3603L88.4795 170.84L107.519 165.56L84.7595 89.2803L56.4795 93.3603Z" fill="white"/>
<path d="M55.5601 93.6803L56.4001 95.7603L58.7201 101.4L62.1601 109.72L66.3601 119.88L70.9601 131.04L75.6001 142.32L79.9201 152.8L83.6001 161.68L86.2401 168.04C86.6401 169.04 87.0001 170.08 87.4801 171.08C87.4801 171.12 87.5201 171.16 87.5201 171.2C87.6001 171.4 88.1601 171.24 88.3201 171.2L94.7601 169.4L105 166.56L107.36 165.92C107.52 165.88 108.56 165.56 108.44 165.2L107.84 163.16L106.16 157.6L103.72 149.4L100.72 139.4L97.4401 128.4L94.1201 117.36L91.0401 107.04L88.4401 98.3203L86.5601 92.0003C86.2801 91.0403 86.0401 89.9603 85.6801 89.0403C85.6801 89.0003 85.6401 88.9603 85.6401 88.9203C85.6001 88.7603 85.2001 88.8403 85.0801 88.8403L75.4801 90.2403L60.3201 92.4403L56.8401 92.9203C56.3601 92.9603 55.9201 93.1603 55.6001 93.5203C55.3601 93.8803 55.8801 93.8003 56.0801 93.7603L65.6801 92.3603L80.8401 90.1603L84.3201 89.6803L83.7601 89.6003L84.3601 91.6403L86.0001 97.2003L88.4401 105.4L91.4401 115.4L94.7201 126.4L98.0401 137.44L101.12 147.76L103.72 156.48L105.6 162.76C105.88 163.76 106.12 164.76 106.48 165.72C106.48 165.76 106.52 165.8 106.52 165.84L107.6 165.12L101.16 166.92L90.9201 169.76L88.5601 170.4H89.3601L88.4801 168.32L86.1601 162.68L82.7201 154.36L78.5201 144.2L74.0001 133.12L69.3601 121.84L65.0401 111.36L61.3601 102.48L58.7201 96.1203C58.3201 95.1203 57.9601 94.0803 57.4801 93.0803C57.4401 93.0403 57.4401 93.0003 57.4401 92.9603C57.2401 92.5603 55.4001 93.3203 55.5601 93.6803Z" fill="#000005"/>
<path d="M54.1196 96.4005C54.1196 96.4005 52.7596 57.6005 65.7996 53.8005C84.4796 48.3605 90.5196 93.0005 90.5196 93.0005L54.1196 96.4005Z" fill="#000005"/>
<path d="M55.12 96.36C55.08 94.84 55.08 93.36 55.08 91.84C55.12 88.28 55.28 84.68 55.56 81.16C55.88 76.92 56.52 72.72 57.48 68.56C57.92 66.56 58.52 64.64 59.28 62.72C59.6 61.88 59.96 61.08 60.36 60.32C60.76 59.56 61.2 58.8 61.68 58.12C62.08 57.52 62.56 56.92 63.12 56.44C63.4 56.2 63.68 55.96 63.96 55.72C64.16 55.56 63.92 55.76 64.04 55.68L64.28 55.52C64.44 55.4 64.6 55.32 64.76 55.24C64.92 55.16 65.04 55.08 65.2 55L65.44 54.88C65.6 54.8 65.4 54.88 65.4 54.88L65.56 54.8C65.92 54.68 66.32 54.56 66.68 54.44L67.24 54.32C67.48 54.28 67.08 54.32 67.36 54.32L67.68 54.28C68.08 54.24 68.44 54.2 68.84 54.2H69.12C69.2 54.2 69.44 54.2 69.2 54.2C69.4 54.2 69.6 54.24 69.8 54.24C70.16 54.28 70.52 54.36 70.88 54.44L71.16 54.52C71.4 54.56 71 54.48 71.24 54.56C71.48 54.64 71.6 54.68 71.8 54.72C72.16 54.84 72.48 55 72.8 55.16C72.96 55.24 73.12 55.32 73.28 55.4C73.08 55.32 73.32 55.44 73.36 55.44L73.6 55.6C73.92 55.8 74.24 56.04 74.56 56.24C74.88 56.44 75.2 56.72 75.52 57C75.88 57.32 75.92 57.36 76.28 57.72C78.88 60.36 80.6 63.4 82.12 66.72C83.76 70.32 85.08 74.04 86.16 77.84C87.12 81.2 87.84 84.24 88.52 87.56C88.88 89.32 89.2001 91.08 89.44 92.88L89.48 93.12L90.44 92.24L86.84 92.56L78.12 93.36L67.64 94.32L58.56 95.16C57.08 95.32 55.6 95.4 54.12 95.56H54.04C53.6 95.6 53.08 95.92 53.08 96.44C53.16 96.92 53.64 97.28 54.12 97.2L57.72 96.84L66.44 96.04L76.92 95.04L86 94.2C87.48 94.08 88.96 93.96 90.44 93.8H90.52C90.96 93.76 91.52 93.44 91.48 92.92C91.32 91.64 91.08 90.36 90.84 89.08C90.24 85.92 89.56 82.8 88.76 79.68C87.76 75.84 86.5201 72.04 85.04 68.36C83.56 64.8 81.76 61.28 79.32 58.28C77.2 55.68 74.48 53.48 71.12 52.76C67.8 52.04 64.32 52.92 61.76 55.2C59.04 57.68 57.52 61.36 56.44 64.8C55.2 68.96 54.36 73.28 53.92 77.6C53.48 81.6 53.2 85.6 53.12 89.6C53.08 91.8 53.04 94 53.08 96.2C53.08 96.32 53.08 96.4 53.08 96.52C53.16 97.56 55.16 97.44 55.12 96.36Z" fill="#000005"/>
<path d="M77.48 41.9607C77.48 41.9607 79.36 32.3607 71.16 30.0407C62.96 27.7207 53.76 35.2007 54.68 45.4007C55.6 55.6007 68.16 55.0807 68.16 55.0807L77.48 41.9607Z" fill="white"/>
<path d="M78.4796 41.8403C79.3196 37.5603 77.8796 32.4803 73.7596 30.4003C70.3596 28.6803 66.1596 28.8403 62.7196 30.2803C59.2396 31.7603 56.4396 34.5203 54.8796 38.0003C53.3996 41.4003 53.0396 45.6803 54.6396 49.1203C55.8396 51.6803 58.1996 53.3603 60.7996 54.3603C62.7996 55.0803 64.9196 55.4803 67.0396 55.5203C67.6796 55.5603 68.6796 55.6403 69.1196 55.1203C69.3996 54.7603 69.6796 54.3603 69.9196 53.9603L78.1996 42.2803L78.3996 41.9603C78.6396 41.6403 77.7996 41.5203 77.6396 41.5203C77.1996 41.4803 76.7596 41.6403 76.4396 41.9603L68.2796 53.4803L67.1196 55.0803L68.3196 54.6403C68.1196 54.6403 67.9596 54.6403 67.7596 54.6403L67.1596 54.6003L66.7996 54.5603C66.9196 54.5603 66.9596 54.5603 66.7996 54.5603L66.5596 54.5203C65.0796 54.4003 63.6396 54.0803 62.2796 53.5603C60.5996 52.9603 59.0796 51.9603 57.8796 50.6403C56.3996 48.9203 55.7596 46.7203 55.6396 44.4803C55.3996 39.1603 58.1596 33.8403 62.9196 31.2803C63.9196 30.7203 64.9996 30.3603 66.1196 30.1203C67.1996 29.9203 68.2796 29.8803 69.3596 30.0403C71.5996 30.3203 73.6396 31.5203 74.9996 33.3603C75.9996 34.8803 76.5596 36.6003 76.6796 38.4003C76.7196 39.5203 76.6796 40.6403 76.5596 41.7603C76.5596 41.8003 76.5196 41.8803 76.5196 41.9203C76.3996 42.5203 78.3596 42.5203 78.4796 41.8403Z" fill="#000005"/>
<path d="M78.4401 50.2407C80.8001 46.3207 76.3201 34.0807 76.3201 34.0807C73.8001 31.1607 63.4001 34.7607 63.4001 34.7607C65.3601 37.7607 65.6801 43.1607 65.6801 43.1607C64.0001 40.4407 60.8001 42.2007 61.4001 45.0007C62.0001 47.8007 65.4401 48.1607 65.4401 48.1607C65.4401 48.1607 65.4001 54.3207 65.8401 55.4007C66.2801 56.4807 71.8001 57.3207 74.1201 53.7207C74.0801 53.7207 76.4001 53.6807 78.4401 50.2407Z" fill="white"/>
<path d="M79.4001 50.4005C80.5201 48.4805 80.1601 45.8005 79.8401 43.6805C79.4401 41.2005 78.8401 38.7205 78.0401 36.3205C77.8401 35.6405 77.6001 34.9605 77.3601 34.3205C77.1601 33.7205 76.5201 33.4005 75.9601 33.1605C73.5601 32.1605 70.6001 32.6005 68.1201 33.0805C66.2801 33.4405 64.4401 33.9205 62.6801 34.5205C62.5601 34.5605 62.2801 34.6805 62.4001 34.8805C63.4001 36.4805 63.9201 38.3205 64.2401 40.1605C64.4401 41.1605 64.5601 42.1605 64.6401 43.1605L66.6001 43.1205C65.9201 42.0005 64.6801 41.3605 63.3601 41.4405C62.2401 41.4805 61.1601 41.9205 60.6001 42.9205C60.0801 43.9605 60.1601 45.2005 60.8001 46.1605C61.3601 47.0005 62.1601 47.6405 63.1201 48.0005C63.7601 48.2805 64.4401 48.4405 65.1201 48.5205L64.4001 48.1205C64.3201 50.2805 64.4001 52.4805 64.6401 54.6405C64.6401 55.0005 64.7601 55.3205 64.9601 55.6405C65.3201 56.0005 65.7601 56.2405 66.2401 56.3605C67.6401 56.7605 69.1201 56.8405 70.6001 56.6005C72.4001 56.3605 74.0401 55.3605 75.0801 53.8805L74.3601 54.1205C76.5601 54.0805 78.3601 52.1605 79.4001 50.4005C79.6801 49.9605 77.8001 49.6405 77.4801 50.1205C76.9201 51.1605 76.1201 52.0405 75.2001 52.7205C74.9201 52.9205 74.6401 53.0805 74.3201 53.2005C74.2001 53.2405 74.1201 53.2805 74.0001 53.3205C73.7601 53.3605 73.8801 53.3605 74.0001 53.3205C73.9601 53.3205 73.8801 53.3605 73.8401 53.3605H73.8801C73.8001 53.3605 73.6801 53.3605 73.6001 53.4005C73.0401 53.5205 72.8001 54.1205 72.4401 54.4805C71.8001 55.1205 71.0001 55.5605 70.1601 55.8005C69.8401 55.8805 69.5601 55.9605 69.2401 55.9605H68.9201C68.6001 56.0005 69.1201 55.9605 68.7601 55.9605H68.4801H68.2801C68.4001 55.9605 68.4001 55.9605 68.2801 55.9605C68.1601 55.9605 68.0001 55.9205 67.8401 55.9205C67.5601 55.8805 68.0001 55.9605 67.7601 55.9205L67.5201 55.8805C67.5201 55.8805 67.2801 55.8005 67.4401 55.8405L67.2401 55.7605C67.0401 55.6805 67.1601 55.7205 67.0401 55.6405C66.9201 55.5605 66.8401 55.4805 66.8001 55.3605C66.7201 55.1205 66.6801 54.8805 66.6801 54.6005C66.6001 53.8405 66.5601 53.0405 66.5201 52.2405C66.4801 50.8805 66.4401 49.5605 66.4801 48.2005C66.4801 47.9205 65.9201 47.8405 65.7601 47.8005H65.6401H65.5201C65.4001 47.8005 65.7601 47.8805 65.5201 47.8005C65.2001 47.7205 64.9201 47.6405 64.6401 47.5205C63.7601 47.1605 63.0401 46.4805 62.6401 45.6005C62.2401 44.6005 62.3201 43.3205 63.1601 42.5605C63.3201 42.4405 63.4801 42.3205 63.6401 42.2405C63.6401 42.2405 63.8801 42.1605 63.7601 42.2005C63.6401 42.2405 63.6001 42.0805 63.7201 42.2005C63.6401 42.1205 63.8801 42.2805 63.8801 42.2805C63.9601 42.3205 64.0401 42.3605 64.1201 42.4405C64.4001 42.6805 64.6401 42.9205 64.8001 43.2405C65.0401 43.6005 66.8001 43.7605 66.7601 43.2005C66.6801 42.1605 66.5601 41.1205 66.3601 40.0805C66.0001 38.2405 65.4801 36.3205 64.4801 34.7205L64.2001 35.0805C65.4801 34.6405 66.8401 34.2805 68.1601 33.9605C69.2801 33.6805 70.4401 33.5205 71.6001 33.4005C72.1201 33.3605 72.6401 33.3205 73.1601 33.3605C73.5601 33.3605 73.9601 33.4405 74.3601 33.5605C74.4401 33.5605 74.5201 33.6005 74.6001 33.6405C74.6801 33.6805 74.8001 33.7205 74.8801 33.7605C75.0401 33.8405 75.2001 33.9605 75.3201 34.0805C75.4001 34.1605 75.4401 34.2805 75.4801 34.3605C75.7201 34.9205 75.8801 35.5205 76.0401 36.0805C76.7601 38.2805 77.3201 40.5605 77.7601 42.8405C78.0001 44.2005 78.1601 45.5605 78.1601 46.9205C78.1601 48.0005 78.0801 49.1605 77.5201 50.1205C77.2001 50.6005 79.1201 50.8805 79.4001 50.4005Z" fill="#000005"/>
<path d="M68.7601 46.2402C68.8401 46.5602 68.9601 46.8402 69.1201 47.1602C69.4401 47.8402 69.8801 48.4002 70.4401 48.8802C70.7201 49.1202 71.0801 49.2802 71.4001 49.3602C71.6401 49.4402 71.4001 48.8402 71.3601 48.8002C71.2801 48.6402 71.1601 48.4402 71.0401 48.3202C70.9601 48.2002 70.8801 48.1202 70.7601 48.0802C70.6401 48.0402 70.4801 48.0002 70.3601 47.9202L70.3201 47.8802L70.2401 47.8402L70.0801 47.7202L69.9201 47.6002C69.8401 47.5602 70.0001 47.6802 69.9201 47.6002L69.8401 47.5202C69.8001 47.4802 69.7601 47.4402 69.7201 47.4002C69.6801 47.3602 69.8401 47.5202 69.7601 47.4402C69.7201 47.4002 69.7201 47.4002 69.6801 47.3602L69.6401 47.2802L69.7201 47.3602L69.6801 47.3202L69.6001 47.2002C69.6001 47.2002 69.7201 47.4002 69.6801 47.3202V47.2802L69.6401 47.2002H69.6001C69.5201 47.0802 69.6801 47.3602 69.6401 47.2802C69.6001 47.2002 69.6001 47.2002 69.6001 47.1602L69.5601 47.1202C69.5201 47.0002 69.6401 47.2802 69.6001 47.2002C69.5601 47.1202 69.5601 47.0802 69.5201 47.0002V46.9602C69.5201 46.9202 69.5601 47.1602 69.5601 47.0802C69.5601 47.0802 69.5601 47.0402 69.5601 47.0002V46.9602C69.5201 46.8002 69.4401 46.6402 69.3601 46.4802C69.2801 46.3202 69.1601 46.1602 69.0401 46.0402C69.0001 46.0002 68.8801 45.8802 68.8001 45.9202C68.7201 45.9602 68.7601 46.1202 68.8001 46.2002L68.7601 46.2402Z" fill="#000005"/>
<path d="M73.3595 38.2802C73.0795 38.4002 72.9595 38.7602 73.0795 39.0402C73.0795 39.0802 73.1195 39.0802 73.1195 39.1202C73.4395 39.6402 74.1195 39.2402 73.9595 38.6802C73.9195 38.4002 73.6795 38.2402 73.3995 38.2402C73.3995 38.2802 73.3595 38.2802 73.3595 38.2802Z" fill="#000005"/>
<path d="M69.2394 39.2404C68.9594 39.3604 68.8394 39.7204 68.9594 40.0004C68.9594 40.0404 68.9994 40.0404 68.9994 40.0804C69.3194 40.6004 69.9994 40.2004 69.8394 39.6804C69.8394 39.4004 69.5994 39.2004 69.3194 39.2404C69.3194 39.2004 69.2794 39.2404 69.2394 39.2404Z" fill="#000005"/>
<path d="M74.3596 45.1607C74.3596 45.1607 81.1996 44.8407 81.7196 41.1607C82.2396 37.4807 75.7996 37.8407 72.6396 41.4407" fill="white"/>
<path d="M74.3595 45.8404C75.2795 45.8004 76.1595 45.6804 77.0795 45.4804C78.6395 45.1204 80.2395 44.6004 81.4795 43.4804C82.5995 42.4804 83.2395 40.6804 82.3595 39.3204C81.3995 37.8804 79.3195 37.7604 77.7995 37.9204C75.4795 38.2004 73.3595 39.3204 71.7995 41.0404C71.4795 41.4004 71.7995 41.8004 72.1595 41.9604C72.6395 42.1604 73.1595 42.0804 73.5195 41.7204C74.0795 41.0804 74.7595 40.5604 75.5195 40.1204C76.1595 39.7604 76.8795 39.4804 77.6395 39.3204C77.8395 39.2804 78.0395 39.2404 78.2395 39.2004C78.2395 39.2004 78.5595 39.1604 78.3595 39.2004H78.5595C78.7595 39.2004 78.9195 39.2004 79.1195 39.2004C79.1595 39.2004 79.4395 39.2404 79.1995 39.2004L79.4395 39.2404L79.6795 39.2804C79.9195 39.3204 79.5195 39.2004 79.7595 39.2804C79.8795 39.3204 79.9995 39.3604 80.1195 39.4404C79.9195 39.3604 80.1595 39.4404 80.1595 39.4804L80.3195 39.6004C80.4795 39.7204 80.2395 39.4804 80.3595 39.6404L80.4795 39.8004C80.4795 39.8004 80.5995 40.0004 80.5195 39.8804C80.5595 39.9604 80.5995 40.0004 80.5995 40.0804C80.6395 40.2004 80.6795 40.3204 80.7195 40.4004C80.7595 40.6804 80.7195 40.9204 80.6795 41.2004C80.5595 41.8004 80.2395 42.3204 79.7995 42.6804C79.5995 42.8404 79.3595 43.0004 79.1595 43.1604C78.9195 43.3204 78.6395 43.4404 78.3595 43.5604C77.7995 43.8004 77.2395 44.0004 76.6395 44.1204C76.0395 44.2404 75.4795 44.3604 74.8795 44.4404L74.5995 44.4804C74.5595 44.4804 74.5195 44.4804 74.4795 44.4804C74.2395 44.5204 74.7195 44.4804 74.5595 44.4804H74.3595C73.9595 44.4804 73.3595 44.6404 73.3595 45.1604C73.3595 45.6804 73.9995 45.8404 74.3595 45.8404Z" fill="#000005"/>
<path d="M86.1995 57.3199C86.1995 57.3199 89.8795 62.0799 82.6395 66.1599C82.6395 66.1599 82.9595 84.4399 74.1995 92.5999C74.1995 92.5999 66.3195 98.3199 56.4795 86.4799L67.9195 75.6799L75.5595 64.1199C75.5595 64.1199 76.9995 54.0799 81.2395 49.3599C85.4795 44.6399 89.2395 43.9599 89.6395 45.0799C90.0395 46.1999 84.6795 50.6399 84.6795 50.6399C84.6795 50.6399 87.4795 50.5599 88.7595 52.4399C90.0395 54.3199 88.8395 55.4799 88.8395 55.4799C88.8395 55.4799 89.9995 59.8399 87.3995 59.7199C87.3995 59.7199 87.4395 63.4799 83.3195 65.4399" fill="white"/>
<path d="M85.32 57.2008C85.36 57.2808 85.4 57.3208 85.48 57.4008C85.56 57.4808 85.44 57.3208 85.48 57.4408L85.56 57.6008C85.6 57.7208 85.68 57.8408 85.72 57.9608C86 58.6008 86.16 59.2808 86.16 59.9608C86.16 62.6808 83.88 64.5608 81.72 65.8008L81.64 65.8808C81.64 67.6008 81.56 69.2808 81.4 71.0008C81.08 74.7608 80.36 78.4808 79.2 82.0808C78.56 84.0408 77.76 85.9608 76.72 87.7608C76.2 88.6808 75.64 89.5208 74.96 90.3608C74.44 91.0408 73.88 91.6808 73.24 92.2408C72.08 93.1208 70.36 93.4808 68.92 93.5208C67.48 93.5608 66 93.2808 64.68 92.6808C62.52 91.6408 60.56 90.2008 58.92 88.4408C58.36 87.8408 57.8 87.2408 57.28 86.6008V86.8808L65.64 79.0008L67.8 76.9608C68.12 76.6808 68.44 76.4008 68.76 76.0808C69 75.7608 69.2 75.4408 69.4 75.1208L71.04 72.6408L75.08 66.5208L76.32 64.6408C76.44 64.4408 76.52 64.1608 76.56 63.9208C76.96 61.5208 77.6 59.1208 78.4 56.8008C78.92 55.2008 79.6 53.6808 80.4 52.2408C81.36 50.6008 82.56 49.1608 83.96 47.9208C85.2 46.8408 86.6 45.7608 88.2 45.2808C88.44 45.2008 88.68 45.1608 88.92 45.1208C89 45.1208 89.04 45.1208 89.16 45.0808H89.28C89 45.0808 89.44 45.1208 89.24 45.0808C89.04 45.0408 89.56 45.2008 89.08 45.0408C88.8 44.9608 88.88 44.9608 88.96 45.0008C88.88 44.9608 88.8 44.9208 88.72 44.8808C88.72 44.8808 88.72 44.8408 88.68 44.8408C88.72 44.9208 88.72 44.9608 88.72 45.0408C88.6 45.4408 88.4 45.8008 88.12 46.1208C87.72 46.6008 87.32 47.0808 86.88 47.4808C86.04 48.3208 85.2 49.0808 84.32 49.8408L83.84 50.2408C83.36 50.6408 85.12 51.0808 85.32 51.0808H85.44H85.76C85.8 51.0808 86.16 51.1208 86.04 51.1208C86.6 51.1608 87.08 51.4008 87.48 51.7608C88.32 52.5208 88.92 54.2008 88.04 55.0408C87.96 55.0808 87.96 55.1608 88 55.2408C88.28 56.3208 88.72 59.2808 86.92 59.2408C86.88 59.2408 86.56 59.2808 86.56 59.4008C86.56 61.8808 84.68 64.0008 82.56 65.0408C82.2 65.2008 83 65.6408 83.08 65.6808C83.44 65.8808 83.92 65.9608 84.32 65.8408C86.44 64.8008 88.44 62.5608 88.44 60.0408L88.08 60.2008C90.52 60.2408 90.28 57.3608 89.84 55.6808L89.8 55.8808C91.12 54.6008 89.96 52.5208 88.76 51.6008C87.4 50.6408 85.8 50.1208 84.12 50.1608L85.6 51.0008C87.24 49.7208 88.76 48.2408 90.04 46.6408C90.32 46.3208 90.52 45.9608 90.6 45.5608C90.6 45.1608 90.36 44.7608 89.96 44.6008C88.84 44.0008 87.52 43.9608 86.4 44.4408C84.72 45.1208 83.2 46.0808 81.92 47.3208C80.52 48.5608 79.32 50.0408 78.4 51.6808C76.84 54.4808 75.88 57.6408 75.16 60.7608C74.96 61.6408 74.76 62.5608 74.64 63.4408C74.6 63.6808 74.48 63.9208 74.32 64.1608L70.8 69.5208L67.24 74.9208C67.16 75.0408 67.08 75.2008 66.96 75.3208C67.08 75.1608 66.92 75.3608 66.84 75.4008L65.32 76.8008L55.76 85.8408L55.52 86.0408C55.44 86.1208 55.44 86.2408 55.52 86.3208C59.16 90.6808 64.36 94.7208 70.32 94.3608C71.68 94.2808 73.04 93.9608 74.24 93.3608C75.4 92.8008 76.16 91.7608 76.96 90.7608C80.16 86.6008 81.72 81.3208 82.64 76.2008C83 74.1208 83.24 72.0008 83.4 69.9208C83.44 69.2008 83.48 68.4808 83.52 67.7608C83.48 67.3608 83.48 66.9608 83.52 66.5608C83.52 66.5208 83.52 66.4808 83.52 66.4408C83.56 66.3208 83.4 66.6408 83.6 66.4008C83.8 66.2408 84 66.1208 84.24 66.0008C84.44 65.8808 84.6 65.7608 84.8 65.6008C85.16 65.3608 85.48 65.0808 85.8 64.7608C86.76 63.9608 87.44 62.8808 87.84 61.6808C88.2 60.2808 87.96 58.8008 87.16 57.5608C87.12 57.4808 87.08 57.4008 87 57.3208C86.64 57.0008 86.2 56.8008 85.72 56.7608C85.56 56.8408 85.04 56.8408 85.32 57.2008Z" fill="#000005"/>
<path d="M83.7599 66.3207C84.7199 66.3207 83.6799 64.6807 82.9999 64.6807C81.9999 64.6807 83.0399 66.3207 83.7599 66.3207Z" fill="#000005"/>
<path d="M84.04 53.8008C84.04 53.8008 87.2 52.6808 88.84 55.5208L84.04 53.8008Z" fill="white"/>
<path d="M84.7194 54.56C85.2394 54.4 85.7594 54.32 86.3194 54.32C86.7994 54.32 87.3194 54.44 87.7594 54.64C87.9994 54.76 88.2394 54.88 88.4394 55.04C88.3194 54.96 88.5994 55.24 88.4394 55.04C88.5194 55.12 88.4794 55.08 88.3994 55L88.3594 54.96C88.3194 54.92 88.2794 54.84 88.1994 54.76C88.2394 54.84 88.2394 54.84 88.1994 54.76C88.2394 54.84 88.3194 54.92 88.3594 55C88.5994 55.4 88.9194 55.76 89.2794 56.08C89.3194 56.12 89.4794 56.28 89.5594 56.24C89.6394 56.2 89.4394 55.96 89.4394 55.96C88.9594 55.16 88.3194 54.4 87.5994 53.8C87.1594 53.44 86.6794 53.16 86.1594 52.96C85.4394 52.76 84.6394 52.72 83.9194 52.88C83.7594 52.92 83.5994 52.96 83.4394 53C83.3594 53.04 83.9194 53.8 83.9994 53.84C84.1594 54.04 84.3194 54.2 84.4794 54.36C84.4794 54.44 84.6394 54.6 84.7194 54.56Z" fill="#000005"/>
<path d="M119.48 67.04H157.96C159.4 67.04 160.6 68.2 160.6 69.68V85.2C160.6 86.64 159.44 87.84 157.96 87.84H119.48C118.04 87.84 116.84 86.68 116.84 85.2V69.68C116.88 68.24 118.04 67.04 119.48 67.04Z" fill="#68BA7F"/>
<path d="M157.56 87.3199H119.12C119.04 87.3199 119.08 87.2799 119.2 87.3199C118.88 87.2399 118.6 87.0799 118.4 86.8399C117.84 86.1999 117.84 85.4399 117.84 84.6799V70.8399C117.8 70.1999 117.84 69.5599 118 68.9599C118.32 68.1199 119.16 67.5199 120.04 67.5599H155.64C156.52 67.5599 157.44 67.5199 158.32 67.5599C158.12 67.5199 158.44 67.5599 158.32 67.5599C158.6 67.6399 158.84 67.7999 159.04 68.0399C159.4 68.4799 159.6 68.9999 159.6 69.5599C159.6 70.1599 159.6 70.7999 159.6 71.3999C159.6 75.8799 159.6 80.3599 159.6 84.8399C159.6 86.0399 158.88 87.2799 157.56 87.3199C157.24 87.3199 156.84 87.5199 157.08 87.8399C157.32 88.1599 158 88.2799 158.4 88.2799C160.08 88.2399 161.56 87.0799 161.6 85.2799C161.6 84.6399 161.6 83.9999 161.6 83.3599V75.4799C161.6 73.6399 161.6 71.7599 161.6 69.9199C161.6 68.1199 160.2 66.9199 158.48 66.5999C158 66.5199 157.52 66.5199 157.08 66.5199H129.16C125.88 66.5199 122.56 66.5199 119.28 66.5199C118.2 66.4799 117.16 66.9599 116.48 67.7999C115.96 68.5199 115.96 69.3199 115.96 70.1599V84.2399C115.96 85.0799 115.96 85.8799 116.44 86.5999C117.24 87.7999 118.72 88.2399 120.08 88.2399C123.32 88.2399 126.52 88.2399 129.76 88.2399H158.4C158.72 88.2399 159.12 88.0399 158.88 87.6799C158.64 87.3199 157.96 87.3199 157.56 87.3199Z" fill="#68BA7F"/>
<path d="M153.599 70.7196C154.599 71.7996 155.719 72.7196 156.959 73.4796C157.119 73.5996 157.319 73.6396 157.519 73.5996C157.679 73.5596 157.759 73.3996 157.759 73.2396C157.679 72.7596 157.399 72.3196 156.999 72.0796L156.599 71.8396L156.399 71.7196L156.319 71.6796C156.199 71.5996 156.319 71.6796 156.359 71.7196C156.119 71.5596 155.839 71.3596 155.599 71.1596C155.359 70.9596 155.119 70.7596 154.919 70.5596C154.879 70.5196 154.839 70.5196 154.839 70.4796C154.839 70.4796 155.039 70.6396 154.919 70.5596L154.759 70.3996L154.399 70.0396C154.239 69.8396 154.039 69.7196 153.799 69.5996C153.679 69.5596 153.439 69.5196 153.319 69.6396C153.039 69.9596 153.399 70.4796 153.599 70.7196Z" fill="#000005"/>
<path d="M153.92 73.9602C155.2 73.0402 156.4 72.0802 157.52 71.0002C157.8 70.6402 157.8 70.1202 157.48 69.7602C157.24 69.4802 156.68 69.0402 156.32 69.4002C155.2 70.4802 154 71.4402 152.72 72.3602C152.32 72.6402 152.52 73.2802 152.76 73.5602C153 73.8402 153.52 74.2402 153.92 73.9602Z" fill="#000005"/>
<path d="M129.88 73.6395C128.56 73.9995 127.32 74.6395 126.32 75.5595C125.76 76.0395 125.32 76.5995 124.96 77.2795C124.76 77.8795 124.8 78.5195 125.08 79.0795C125.32 79.7595 125.68 80.3595 126.2 80.8395C126.64 81.1595 127.12 81.3995 127.64 81.4795C129.04 81.6795 130.44 81.5195 131.76 81.0395C133 80.5995 134.48 79.8395 135.24 78.7595C135.56 78.2795 135.68 77.6795 135.48 77.1195C135.28 76.3595 134.92 75.6795 134.4 75.1195C133.24 74.0795 132.16 76.0795 132.04 76.9995C131.84 78.3595 132.6 79.9595 133.48 80.9595C135.52 83.3595 138.84 81.4795 140.48 79.5995C141.28 78.7195 141.92 77.5195 141.72 76.2795C141.56 75.5195 141.28 74.7995 140.84 74.1195C140.64 73.6795 140.24 73.3195 139.8 73.1595C139.2 73.0795 138.64 73.4395 138.44 73.9995C138.2 74.6395 138.16 75.3595 138.28 76.0395C138.44 77.6395 138.96 79.1595 139.84 80.4795C140.52 81.4795 141.6 82.3195 142.88 82.1995C144.16 82.0795 145.12 81.0395 145.68 79.9595C145.92 79.4795 146.08 78.9595 146.04 78.3995C145.92 77.6395 145.6 76.8795 145.16 76.2795C144.92 75.8395 144.36 75.6395 143.92 75.8795C143.92 75.8795 143.88 75.8795 143.88 75.9195C143.4 76.2395 143.2 76.8395 143.36 77.3995C144.04 80.3195 146.92 82.1595 149.88 81.4795C150.4 81.3595 150.88 81.1595 151.36 80.9195C151.56 80.7995 150.64 79.0395 150.52 79.1195C148.84 80.0795 146.76 80.0395 145.08 79.0795C144.92 78.9995 144.76 78.8795 144.6 78.7595C144.44 78.6395 144.16 78.2795 144 78.1995L144.12 78.4795C144.24 78.8395 144.28 78.8795 144.24 78.5995C144.24 78.4795 144.28 78.3595 144.32 78.2395C144.4 77.9995 144.6 77.7995 144.8 77.6795C144.96 77.5595 145.16 77.5195 145.36 77.5195C145.48 77.5195 145.56 77.5995 145.68 77.5995L145.76 77.6795C145.36 76.5595 145.2 76.2395 145.28 76.6795C145.28 77.1195 145.16 77.5195 145.04 77.9195C144.28 79.5995 142.4 80.9595 140.6 79.9195C140.44 79.8395 140.28 79.7195 140.12 79.5995C139.92 79.4395 139.8 79.1995 139.6 79.0395C139.4 78.8795 139.84 79.1995 139.64 79.1595C139.6 79.0395 139.56 78.9595 139.56 78.8395C139.48 78.5195 139.44 78.1995 139.4 77.8795C139.32 76.9595 139.16 75.6795 140.08 75.0795C140.4 74.8795 140.84 74.8395 141.16 75.0395C141.24 75.0795 141.28 75.1595 141.36 75.1995C141.68 75.3995 141 73.9995 141.04 74.5595C141.04 74.7595 141.04 74.9595 141.04 75.1995C140.88 76.1995 140.4 77.1195 139.68 77.7995C138.4 79.1595 136.2 80.7195 134.24 80.0395C133.84 79.8795 133.44 79.6395 133.12 79.3595C133.04 79.2795 132.96 79.1595 132.88 79.0795C132.96 78.9995 133.12 79.9595 133.08 79.4395C133.08 79.1995 133.08 78.9195 133.08 78.6795C133.16 77.8795 133.8 76.4395 134.84 76.5595C135.28 76.5995 135.52 77.1995 135.08 76.3195C134.68 75.4795 134.88 75.7595 134.84 76.0795C134.84 76.1995 134.8 76.3195 134.76 76.4395C134.52 76.9195 134.2 77.3195 133.76 77.6395C132.04 78.9995 129.88 79.7195 127.68 79.6795C127.2 79.6795 126.68 79.5995 126.24 79.3995C126.04 79.3195 125.84 79.2395 125.68 79.0795C125.6 79.0395 125.52 78.9195 125.44 78.8795C125.16 78.5995 125.28 78.8795 125.84 79.7595C125.84 79.6795 125.8 79.5995 125.84 79.5195C125.84 78.4395 127.04 77.3595 127.84 76.7595C128.72 76.0795 129.76 75.5595 130.84 75.2795C130.8 75.4395 130.16 73.5595 129.88 73.6395Z" fill="#000005"/>
<path d="M122.159 109.68C122.159 109.52 122.479 106.72 122.679 106.76C122.879 106.8 123.079 109.84 123.079 109.84L122.159 109.68Z" fill="white"/>
<path d="M123.119 109.44C123.119 109.12 123.159 108.8 123.239 108.48C123.319 108 123.359 107.48 123.479 107C123.479 106.92 123.519 106.8 123.559 106.72C123.599 106.6 123.559 106.68 123.559 106.68C123.559 106.68 123.479 106.84 123.519 106.76V106.72C123.399 106.88 123.239 107 123.079 107.12L122.599 107.32C121.879 107.12 121.639 107.12 121.839 107.28L121.759 107.16C121.799 107.24 121.839 107.36 121.839 107.44C121.879 107.64 121.879 107.84 121.919 108C121.959 108.48 121.999 108.92 122.039 109.4V109.28C122.039 109.56 122.079 109.84 122.079 110.08L123.759 109.32L122.839 109.12C122.359 109.04 121.879 109.16 121.479 109.44C121.359 109.52 121.159 109.68 121.159 109.88C121.159 110.04 121.239 110.16 121.359 110.2L122.279 110.4C122.639 110.48 122.959 110.4 123.279 110.24C123.439 110.16 123.559 110.08 123.679 110C123.759 109.92 123.919 109.76 123.919 109.64C123.879 108.72 123.799 107.76 123.639 106.84C123.639 106.64 123.559 106.48 123.439 106.36C123.359 106.28 123.239 106.24 123.119 106.24C122.799 106.24 122.439 106.32 122.159 106.48C121.919 106.6 121.759 106.76 121.599 106.96C121.399 107.44 121.319 107.96 121.279 108.52C121.239 108.84 121.199 109.12 121.159 109.44C121.159 109.6 121.119 109.76 121.119 109.92C121.119 110.32 121.719 110.28 121.959 110.2C122.199 110.16 122.439 110.04 122.679 109.88C122.919 109.8 123.119 109.64 123.119 109.44Z" fill="#68BA7F"/>
<path d="M121.48 117.16C121.48 117.16 121.12 119.16 122.72 118.96C124.32 118.76 124.28 116.88 124.28 116.88L121.48 117.16Z" fill="white"/>
<path d="M120.599 117.6C120.519 118.16 120.519 119 121.079 119.36C121.319 119.52 121.639 119.56 121.919 119.52C122.479 119.44 122.999 119.24 123.439 118.96C124.119 118.64 124.679 118.04 124.959 117.32C125.079 117 125.119 116.72 125.119 116.4C125.079 116.36 124.999 116.36 124.959 116.36L122.519 116.6L122.159 116.64C121.959 116.68 121.759 116.76 121.599 116.84C121.359 116.96 121.159 117.08 120.959 117.24C120.839 117.32 120.359 117.72 120.799 117.68L123.239 117.44L123.599 117.4L123.439 117.36V117.4V117.32C123.439 117.64 123.359 117.96 123.239 118.24C123.199 118.36 123.159 118.44 123.079 118.52L123.039 118.6C123.039 118.64 123.079 118.52 123.039 118.6C122.999 118.64 122.959 118.68 122.919 118.72C122.839 118.8 123.039 118.64 122.999 118.68L122.959 118.72L123.119 118.6C123.079 118.64 123.079 118.64 123.199 118.56L123.279 118.52C123.239 118.52 123.519 118.4 123.439 118.44C123.359 118.48 123.679 118.32 123.559 118.4C123.519 118.4 123.759 118.32 123.639 118.36H123.599C123.519 118.4 123.719 118.36 123.639 118.36C123.559 118.36 123.479 118.36 123.399 118.4H123.359H123.199C123.079 118.4 122.959 118.36 122.839 118.28L122.879 118.32C122.399 118.04 122.319 117.4 122.319 116.88V116.96C122.319 116.88 122.319 116.76 122.359 116.68C122.399 116.4 121.719 116.76 121.599 116.8C121.359 116.92 121.159 117.04 120.959 117.2L120.799 117.32C120.719 117.44 120.639 117.52 120.599 117.6Z" fill="#68BA7F"/>
<path d="M119.28 115.68L117.88 117.8H127.52C127.52 117.8 125.8 116.32 125.8 115.68C125.8 115.04 126.28 110.96 124.48 109.48C122.68 108 120.44 109.44 119.6 110.8C118.76 112.16 119.28 115.68 119.28 115.68Z" fill="white"/>
<path d="M118.519 115.08L117.119 117.2C116.959 117.44 117.239 117.92 117.359 118.08C117.559 118.36 117.879 118.6 118.239 118.64H127.879C128.759 118.64 128.039 117.52 127.759 117.24L127.439 116.96C127.239 116.76 127.599 117.12 127.399 116.92L127.279 116.8C127.119 116.64 126.999 116.48 126.839 116.36C126.839 116.36 126.639 116.08 126.759 116.24L126.639 116.08L126.599 116C126.639 116.08 126.639 116.08 126.599 116C126.599 116.04 126.639 116.12 126.639 116.16L126.679 115.64C126.799 114.2 126.679 112.72 126.319 111.32C125.719 109.48 124.119 107.84 122.039 108.08C121.079 108.24 120.239 108.68 119.559 109.4C118.999 109.96 118.639 110.64 118.519 111.4C118.319 112.76 118.359 114.12 118.559 115.44C118.679 115.92 119.039 116.32 119.519 116.48C119.919 116.6 120.159 116.36 120.119 115.96C119.959 114.96 119.919 113.96 119.999 112.96C119.999 112.36 120.199 111.76 120.559 111.24C121.079 110.56 121.759 110.08 122.559 109.8C122.959 109.68 123.359 109.64 123.759 109.76C123.919 109.8 124.079 109.88 124.199 109.96C124.119 109.92 124.479 110.2 124.399 110.12C124.319 110.04 124.599 110.36 124.479 110.24C124.639 110.44 124.719 110.68 124.799 110.92C124.919 111.24 124.959 111.56 125.039 111.88C125.159 112.96 125.159 114.08 125.079 115.16C125.079 116.48 126.439 117.6 127.359 118.4L127.239 117H117.599L118.719 118.44L120.119 116.32C120.399 115.72 118.999 114.32 118.519 115.08Z" fill="#68BA7F"/>
<path d="M154.6 134.04C154.68 133.84 157 130.4 157.24 130.6C157.48 130.8 155.64 134.92 155.64 134.92L154.6 134.04Z" fill="white"/>
<path d="M155.559 134.28C155.839 133.84 156.119 133.4 156.439 133C156.679 132.64 156.919 132.32 157.159 132C157.279 131.84 157.399 131.68 157.519 131.56L157.679 131.36C157.719 131.32 157.719 131.32 157.759 131.28C157.679 131.44 157.719 131.36 157.759 131.28C157.799 131.2 157.919 131.12 157.999 131.04C157.999 131.04 158.039 131.04 158.039 131C158.039 130.96 157.879 131.12 157.919 131.08C157.959 131.04 158.159 131.04 157.719 131.16L157.079 131C156.719 131.08 156.519 131 156.399 130.76C156.359 130.72 156.319 130.64 156.359 130.56C156.359 130.64 156.319 130.72 156.319 130.8L156.279 130.96L156.239 131.04C156.199 131.16 156.279 130.92 156.239 131.04C155.999 131.76 155.719 132.48 155.439 133.16C155.239 133.68 155.039 134.16 154.799 134.68L156.479 134.56L155.439 133.72C155.039 133.44 154.479 133.4 154.039 133.6C153.799 133.68 153.679 133.92 153.759 134.16C153.799 134.28 153.879 134.36 153.959 134.4L154.999 135.24C155.279 135.44 155.639 135.52 155.959 135.48C156.199 135.48 156.559 135.36 156.679 135.12C157.239 133.92 157.719 132.68 158.159 131.44C158.279 131.16 158.359 130.84 158.319 130.56C158.159 130.12 157.599 130 157.199 130C156.879 130 156.559 130.08 156.319 130.28C156.079 130.52 155.839 130.76 155.639 131.04C155.359 131.36 155.119 131.72 154.879 132.08C154.639 132.44 154.359 132.84 154.079 133.2C153.919 133.4 153.799 133.6 153.679 133.8C153.239 134.6 155.199 134.96 155.559 134.28Z" fill="#68BA7F"/>
<path d="M148.64 143.36C148.64 143.36 146.84 145.76 149.04 146.56C151.24 147.36 152.52 144.88 152.52 144.88L148.64 143.36Z" fill="white"/>
<path d="M147.8 143.521C147.24 144.241 146.68 145.481 147.28 146.321C147.8 147.041 148.84 147.281 149.68 147.201C150.76 147.081 151.76 146.561 152.56 145.801C152.92 145.481 153.2 145.121 153.4 144.681C153.44 144.601 153.52 144.441 153.4 144.401L150 143.081L149.52 142.881C149.08 142.801 148.64 142.881 148.28 143.121C148.2 143.161 147.48 143.641 147.8 143.801L151.2 145.121L151.68 145.321V145.041C151.52 145.321 151.36 145.561 151.16 145.801C151.16 145.801 151.08 145.841 151.08 145.881L151.12 145.841L150.96 146.001L150.8 146.161C150.76 146.201 150.72 146.201 150.72 146.241C150.76 146.201 150.88 146.121 150.76 146.201C150.64 146.281 150.44 146.401 150.76 146.241C150.4 146.401 150.68 146.281 150.76 146.241C150.68 146.281 150.44 146.361 150.8 146.241L150.68 146.281C150.52 146.321 150.92 146.241 150.72 146.281C150.64 146.281 150.52 146.281 150.76 146.281H150.64C150.6 146.281 150.56 146.281 150.52 146.281C150.44 146.281 150.68 146.281 150.52 146.281C150.44 146.281 150.32 146.281 150.24 146.241L150.08 146.201L150 146.161C150.04 146.161 150.04 146.161 149.96 146.161C149.8 146.081 149.6 146.001 149.48 145.921C149.4 145.881 149.36 145.841 149.28 145.761C149.24 145.721 149.2 145.681 149.16 145.641C149.08 145.521 149 145.401 148.96 145.241C148.96 145.201 148.92 145.121 148.92 145.081V144.961C148.92 144.961 148.92 144.921 148.92 144.881C148.92 144.601 149 144.321 149.08 144.081C149.12 143.961 149.2 143.841 149.24 143.681C149.24 143.641 149.32 143.561 149.24 143.681L149.28 143.601C149.32 143.561 149.32 143.481 149.36 143.441C149.4 143.401 149.48 143.241 149.56 143.161C149.84 142.801 149.24 142.801 149.04 142.841C148.56 142.921 148.12 143.161 147.8 143.521Z" fill="#68BA7F"/>
<path d="M146.76 139.96L143.52 141.8L156.12 148.28C156.12 148.28 154.88 145.2 155.32 144.36C155.76 143.52 159.16 138.52 157.76 135.36C156.36 132.2 152.52 132.6 150.48 133.76C148.44 134.92 146.76 139.96 146.76 139.96Z" fill="white"/>
<path d="M146.16 139.48L142.92 141.32C142.64 141.44 142.48 141.76 142.6 142.04C142.64 142.2 142.76 142.32 142.92 142.36L153.96 148.04L155.52 148.84C155.88 148.96 156.28 148.92 156.64 148.76C156.84 148.64 157.24 148.36 157.12 148.04C156.84 147.32 156.6 146.6 156.4 145.88C156.28 145.44 156.2 145 156.24 144.56C156.24 144.52 156.24 144.48 156.28 144.44C156.28 144.44 156.24 144.56 156.28 144.48C156.32 144.44 156.32 144.4 156.36 144.36L156.6 143.96C157.76 142 158.92 139.88 159.08 137.56C159.24 136.32 158.92 135.08 158.16 134.08C157.36 133.12 156.2 132.48 154.96 132.32C152.72 132 150.08 132.68 148.6 134.52C147.36 136.16 146.4 138.04 145.8 140C145.64 140.44 146.32 140.68 146.64 140.64C147.12 140.68 147.56 140.4 147.76 139.92L147.92 139.52C147.96 139.4 147.96 139.44 147.96 139.44C148 139.36 148.04 139.28 148.04 139.2C148.12 139 148.2 138.8 148.28 138.6C148.68 137.64 149.16 136.68 149.72 135.8C149.96 135.4 150.28 135 150.6 134.64C150.84 134.4 151.12 134.2 151.44 134.04C152.24 133.68 153.12 133.52 154 133.56C154.96 133.6 155.88 134.12 156.48 134.88C157.08 135.8 157.32 136.88 157.08 137.96C156.76 140 155.76 141.88 154.72 143.64C154.52 143.92 154.4 144.2 154.32 144.52C154.24 145.04 154.28 145.52 154.44 146.04C154.64 146.84 154.88 147.68 155.2 148.44L156.76 147.64L145.68 142L144.12 141.2V142.24L147.36 140.4C147.64 140.28 147.8 139.92 147.68 139.64C147.64 139.56 147.6 139.48 147.52 139.44C147.16 139.12 146.56 139.28 146.16 139.48Z" fill="#68BA7F"/>
<path d="M38.1591 19.5601C38.0791 19.4401 37.2791 16.7201 37.4391 16.6801C37.5991 16.6401 39.0391 19.3601 39.0391 19.3601L38.1591 19.5601Z" fill="white"/>
<path d="M39.1195 19.8803C38.9995 19.5603 38.8795 19.2003 38.7995 18.8803C38.6395 18.4003 38.5195 17.8803 38.3995 17.4003C38.3995 17.3603 38.3195 17.0803 38.3995 17.0403H38.3595L38.0795 17.0003L37.6795 16.8803L36.9595 16.6003C36.7995 16.5603 36.6795 16.4803 36.5595 16.4003C36.5595 16.4003 36.5595 16.4003 36.5995 16.4403L36.6795 16.5203C36.7195 16.6003 36.7995 16.6803 36.8395 16.7603C37.3195 17.5203 37.7595 18.2803 38.1595 19.0803H38.1995L37.2795 19.2003C37.1995 19.2003 37.3195 19.2803 37.3595 19.3203C37.5195 19.4003 37.7195 19.4803 37.9195 19.5603C38.1595 19.6403 38.3995 19.7203 38.6395 19.8003C38.7995 19.8803 38.9195 19.8803 39.0795 19.8803L39.9995 19.6803H40.0395C39.6395 18.8803 39.1995 18.0803 38.6795 17.2803C38.5995 17.1203 38.4795 17.0003 38.3195 16.8803C37.9995 16.6803 37.6395 16.5603 37.2395 16.4403C37.0395 16.3603 36.8395 16.3203 36.6395 16.2803C36.5995 16.2803 36.5595 16.2803 36.5195 16.2803C36.4395 16.2803 36.4395 16.3203 36.4395 16.4003C36.4395 16.6003 36.4795 16.8003 36.5195 16.9603C36.5995 17.2403 36.6395 17.5203 36.7595 17.8003C36.8795 18.0803 36.9195 18.4003 37.0395 18.6803C37.0795 18.8403 37.1195 19.0003 37.1995 19.1603C37.2395 19.2403 37.3995 19.2803 37.4395 19.3203C37.6395 19.4003 37.8795 19.5203 38.0795 19.6003C38.3195 19.6803 38.5195 19.7603 38.7595 19.8003C38.9195 19.8803 38.9995 19.8803 39.1195 19.8803Z" fill="#68BA7F"/>
<path d="M40.5596 26.6803C40.5596 26.6803 41.0796 28.6403 42.4396 27.8403C43.7996 27.0403 43.0396 25.2803 43.0396 25.2803L40.5596 26.6803Z" fill="white"/>
<path d="M39.5992 27.0001C39.6392 27.2001 39.7192 27.4401 39.8392 27.6001C40.0792 28.1201 40.5192 28.5201 41.0392 28.6801C41.9992 28.8401 42.9992 28.5201 43.5992 27.7601C43.9992 27.2801 44.1992 26.6801 44.1592 26.0801C44.1592 25.7201 44.0792 25.3601 43.9192 25.0001C43.6792 24.4801 42.9192 24.5601 42.5192 24.8001L40.3992 26.0001L40.0792 26.1601C39.8792 26.2801 39.7192 26.4401 39.5992 26.6401C39.5192 26.8001 39.5592 27.0001 39.6792 27.1601C40.0792 27.4401 40.5992 27.4801 40.9992 27.2401L43.1592 26.0001L43.4792 25.8401L42.0792 25.6401C42.1992 25.8801 42.2392 26.1601 42.2792 26.4401V26.2801C42.3192 26.5601 42.2792 26.8001 42.2392 27.0801L42.2792 26.9201C42.2392 27.0801 42.1592 27.2401 42.0792 27.3601L42.1992 27.2001C42.1592 27.2801 42.1192 27.3201 42.0792 27.3601L41.9992 27.4401C42.1992 27.2001 42.1192 27.3201 42.0392 27.4001L41.9592 27.4801C41.7992 27.6001 42.1592 27.3601 42.0392 27.4401C41.6792 27.6001 41.9192 27.5201 42.0392 27.4401L41.9592 27.4801C41.8792 27.5201 41.7592 27.4801 42.1192 27.4401H42.0392C41.9592 27.4401 41.8792 27.4001 42.1992 27.4401H41.9992C41.8792 27.4401 42.2392 27.4801 42.1192 27.4801C42.0792 27.4801 41.9992 27.4401 41.9592 27.4401L42.1592 27.5201C42.0792 27.4801 41.9992 27.4401 41.9192 27.3601L42.0792 27.4801C41.9192 27.3201 41.7992 27.1601 41.6792 27.0001L41.7592 27.1601C41.6392 26.9601 41.5592 26.7601 41.4792 26.5201C41.3992 26.3601 41.2792 26.2001 41.0792 26.1601C40.8392 26.1201 40.5992 26.1201 40.3592 26.2001C39.9592 26.2001 39.4792 26.5201 39.5992 27.0001Z" fill="#68BA7F"/>
<path d="M37.9598 26.24L37.5598 28.76L46.3598 24.84C46.3598 24.84 44.1998 24.2 43.9198 23.6C43.6398 23 42.4398 19.08 40.1998 18.48C37.9598 17.88 36.5198 20.08 36.2398 21.64C35.9598 23.2 37.9598 26.24 37.9598 26.24Z" fill="white"/>
<path d="M37.2395 25.5604L36.8395 28.0404C36.7595 28.6004 37.5995 29.7204 38.1995 29.4404L45.8795 26.0004L46.9595 25.5204C47.2395 25.4004 46.8795 24.8004 46.7995 24.6804C46.5995 24.3204 46.2795 24.0804 45.9195 23.9604C45.4395 23.8004 44.9195 23.6404 44.4795 23.4004C44.3595 23.3604 44.2395 23.2804 44.1595 23.2004C44.2795 23.3604 44.3995 23.4804 44.5195 23.6404C44.4395 23.5204 44.5995 23.8404 44.5595 23.7204C44.5195 23.6004 44.3995 23.2804 44.3195 23.0804C43.7195 21.5204 42.9595 20.0004 41.7595 18.8004C40.5595 17.6004 38.6795 16.9604 37.1995 18.0804C35.9195 19.0404 35.3195 20.6404 35.6395 22.2004C35.9995 23.6404 36.6395 25.0004 37.4795 26.2404C37.6395 26.5204 38.1195 27.0804 38.5195 26.9604C38.9195 26.8404 38.5995 26.2804 38.4795 26.0804L38.3595 25.9204L38.2395 25.7204C38.1595 25.5604 38.0795 25.4004 37.9995 25.2804C37.6395 24.6404 37.3595 24.0004 37.1595 23.3204C36.7995 22.0004 37.2795 20.5604 38.3995 19.7204C39.0395 19.2004 39.8795 19.0004 40.6395 19.2404C41.1195 19.4004 41.5195 19.7604 41.7595 20.2004C42.3595 21.1204 42.7995 22.1204 43.1595 23.1204C43.7195 24.6004 45.3195 25.1604 46.7195 25.6004L45.6795 24.0404L37.9995 27.4804L36.9195 27.9604L38.2795 29.3604L38.6795 26.8804C38.7595 26.4404 38.3995 26.0004 38.1195 25.7604C37.9595 25.6404 37.2795 25.1604 37.2395 25.5604Z" fill="#68BA7F"/>
<path d="M40.3594 95.8005C40.4394 95.6405 42.7194 92.4405 42.9194 92.6005C43.1194 92.7605 41.3194 96.6405 41.3194 96.6405L40.3594 95.8005Z" fill="white"/>
<path d="M40.9997 96.5205C41.2797 96.1205 41.5597 95.7205 41.8397 95.3205C42.2397 94.7205 42.6797 94.1605 43.1597 93.6005L43.2797 93.4805L43.3197 93.4405C43.2797 93.4805 43.1597 93.5605 43.2397 93.5205L43.3197 93.4805C43.3197 93.4805 43.1597 93.5205 43.1997 93.5205H43.0397L42.1997 92.7605C42.1597 92.5205 42.1197 92.4405 42.1197 92.5205C42.1197 92.4805 42.1197 92.2005 42.1197 92.3605C42.1197 92.5205 42.1597 92.2005 42.1597 92.2405C42.1597 92.2805 42.1597 92.2805 42.1597 92.3205C42.1197 92.4405 42.0797 92.5605 42.0397 92.6805C41.7997 93.3605 41.5197 94.0405 41.1997 94.6805C40.9997 95.1605 40.7997 95.6405 40.5597 96.0805L41.5597 95.8805L40.5997 95.0405C40.3597 94.8005 39.9597 94.8005 39.7197 95.0405C39.6797 95.0805 39.5997 95.1605 39.5997 95.2405C39.4797 95.7205 39.6797 96.2405 40.1197 96.5205L41.0797 97.3605C41.2397 97.4805 41.4797 97.5605 41.6797 97.5205C41.8797 97.4805 41.9997 97.3205 42.0797 97.1605C42.6397 96.0405 43.1197 94.8805 43.5597 93.6805C43.6797 93.3605 43.7597 93.0405 43.7197 92.7205C43.5997 92.1205 42.8797 91.2805 42.2397 91.8005C41.9997 92.0005 41.7597 92.2405 41.5597 92.5205C41.3197 92.8405 41.0797 93.1605 40.8397 93.4805C40.5997 93.8005 40.3197 94.1605 40.0797 94.5205C39.9597 94.6805 39.7997 94.8805 39.6797 95.0805C39.4797 95.5205 39.5597 96.0405 39.9197 96.4005C40.0797 96.5605 40.2797 96.6805 40.5197 96.7205C40.6797 96.7205 40.8797 96.6405 40.9997 96.5205Z" fill="#68BA7F"/>
<path d="M34.5196 104.44C34.5196 104.44 32.7596 106.64 34.8396 107.48C36.9196 108.32 38.1596 105.96 38.1596 105.96L34.5196 104.44Z" fill="white"/>
<path d="M33.8791 103.68C33.6791 103.96 33.5191 104.24 33.3591 104.56C33.2391 104.84 33.1591 105.16 33.1191 105.48C33.1191 106.04 33.2391 106.56 33.5191 107.04C34.0391 107.96 34.9991 108.52 36.0391 108.52C36.7191 108.48 37.3591 108.2 37.8791 107.72C38.1991 107.44 38.4791 107.08 38.6791 106.72C38.7591 106.4 38.7191 106.08 38.5591 105.84C38.3991 105.52 38.1591 105.24 37.8391 105.12L34.6791 103.8L34.2391 103.6C34.1191 103.52 33.9591 103.56 33.8791 103.68C33.7991 103.84 33.7991 104.04 33.8791 104.24C33.9991 104.72 34.3191 105.08 34.7191 105.32L37.8791 106.64L38.3191 106.84L37.4791 105.24C37.3191 105.48 37.1591 105.72 36.9591 105.92C36.8791 106 37.0391 105.84 36.9591 105.92L36.9191 105.96C36.8791 106 36.8391 106.04 36.7991 106.08C36.6791 106.16 36.5991 106.28 36.4791 106.36C36.3591 106.44 36.2391 106.52 36.1191 106.6L35.9591 106.68L35.8391 106.72C35.7991 106.72 35.6391 106.76 35.7591 106.72C35.5991 106.76 35.4791 106.76 35.3191 106.76C35.2391 106.76 35.1591 106.76 35.0791 106.76H34.9591C34.8791 106.76 34.8791 106.76 34.9591 106.76H34.8791L34.6391 106.68C34.5591 106.64 34.4391 106.6 34.3591 106.56L34.2391 106.48C34.1191 106.4 34.3591 106.6 34.2791 106.52C34.1991 106.44 34.1191 106.32 34.3191 106.56C34.2791 106.52 34.2791 106.52 34.2391 106.48C34.3991 106.64 34.3591 106.68 34.3191 106.6C34.2791 106.52 34.4391 106.84 34.3991 106.72C34.3591 106.6 34.4791 106.96 34.4391 106.84V106.8C34.3991 106.68 34.4791 107 34.4391 106.88C34.4391 106.84 34.4391 106.8 34.4391 106.8C34.4391 106.76 34.4391 106.76 34.4391 106.72V106.8C34.4791 106.68 34.4791 106.56 34.4791 106.44C34.4791 106.36 34.5191 106.32 34.5191 106.24C34.4391 106.36 34.4791 106.32 34.5191 106.28C34.5591 106.24 34.5591 106.2 34.5591 106.16C34.6791 105.84 34.8791 105.52 35.0791 105.24C35.1591 105.12 35.1191 104.84 35.0791 104.68C34.9991 104.44 34.8791 104.2 34.7191 104C34.5591 103.72 34.1591 103.32 33.8791 103.68Z" fill="#68BA7F"/>
<path d="M32.7997 101.16L29.6797 102.84L41.3997 109.24C41.3997 109.24 40.2797 106.32 40.7197 105.52C41.1597 104.72 44.4797 100.08 43.2397 97.08C41.9997 94.08 38.3597 94.36 36.3997 95.4C34.4397 96.44 32.7997 101.16 32.7997 101.16Z" fill="white"/>
<path d="M31.9595 100.921L28.8395 102.601C28.5195 102.761 28.7595 103.001 28.9595 103.081L39.2395 108.681L40.6795 109.481C40.9195 109.641 42.5995 109.801 42.3595 109.201C42.0795 108.521 41.8795 107.801 41.7195 107.081C41.3995 106.441 41.5195 105.681 41.9995 105.121C43.1195 103.321 44.2395 101.321 44.4795 99.1606C44.6395 98.0406 44.3195 96.8806 43.5995 96.0006C42.7995 95.1206 41.7195 94.5606 40.5595 94.4006C38.4795 94.0406 35.8795 94.4406 34.4395 96.1606C33.2395 97.5606 32.3995 99.4006 31.7595 101.121C31.5995 101.521 33.5195 101.841 33.7595 101.241C34.2795 99.8806 34.9195 98.5606 35.7195 97.3206C36.1595 96.5206 36.8395 95.8806 37.6395 95.4806C37.9995 95.3206 38.3995 95.2006 38.7595 95.1206C39.1195 95.0406 39.4795 95.0406 39.8395 95.0806C40.7195 95.2006 41.5195 95.7206 41.9595 96.4806C42.4795 97.4006 42.6795 98.4806 42.4395 99.5206C42.0795 101.481 41.0795 103.201 40.0395 104.881C39.8795 105.121 39.7195 105.361 39.6395 105.641C39.5995 106.081 39.5995 106.561 39.7595 107.001C39.9195 107.761 40.1595 108.521 40.4395 109.241L42.1195 108.961L31.8395 103.361L30.3995 102.561L30.5195 103.041L33.6395 101.361C34.0395 101.161 33.5195 100.881 33.3195 100.801C32.8795 100.721 32.3995 100.761 31.9595 100.921Z" fill="#68BA7F"/>
<path d="M162.119 100.72C162.079 100.6 161.239 97.8803 161.399 97.8403C161.559 97.8003 162.999 100.52 162.999 100.52L162.119 100.72Z" fill="white"/>
<path d="M162.72 100.64C162.72 100.6 162.68 100.56 162.68 100.56L162.72 100.72V100.64V100.56C162.64 100.36 162.6 100.16 162.52 99.92C162.36 99.44 162.24 98.96 162.12 98.48C162.12 98.44 162.08 98.36 162.08 98.32V98.28C162.08 98.16 162.12 98.52 162.08 98.4C162.08 98.36 162.08 98.32 162.08 98.32C162.08 98.32 162.08 98.2 162.08 98.36C162.08 98.52 162.08 98.44 162.08 98.4L162 98.56L161.88 98.68L161.72 98.72H161.56C161.6 98.72 161.36 98.64 161.4 98.68C161.44 98.72 161.16 98.52 161.24 98.56C161.32 98.6 161.04 98.32 161.08 98.44L161.12 98.48C161.24 98.64 160.96 98.24 161.04 98.36L161.12 98.48C161.28 98.68 161.4 98.92 161.52 99.12C161.8 99.56 162.04 100.04 162.28 100.52C162.28 100.56 162.32 100.6 162.36 100.64L162.4 100.68L162.32 100.52C162.32 100.56 162.36 100.56 162.36 100.6L162.6 99.64L161.68 99.84C161.24 99.92 161.28 100.48 161.44 100.8C161.56 101.04 161.72 101.24 161.92 101.44C162.08 101.56 162.28 101.64 162.48 101.64L163.4 101.44C163.84 101.36 163.8 100.76 163.64 100.48C163.2 99.6 162.72 98.72 162.2 97.92C162.04 97.64 161.8 97.36 161.52 97.16C161.28 97 160.96 96.92 160.76 97.2C160.68 97.36 160.64 97.52 160.68 97.68C160.72 98.24 160.84 98.8 161.04 99.32C161.12 99.64 161.2 99.92 161.32 100.2C161.4 100.44 161.44 100.64 161.52 100.88C161.64 101.12 161.8 101.32 162 101.52C162.16 101.64 162.36 101.72 162.56 101.72C162.96 101.52 162.88 100.96 162.72 100.64Z" fill="#68BA7F"/>
<path d="M164.479 107.84C164.479 107.84 164.999 109.8 166.359 109C167.719 108.2 166.959 106.44 166.959 106.44L164.479 107.84Z" fill="white"/>
<path d="M163.6 108.281C163.8 109.001 164.24 109.761 165 109.961C165.4 110.041 165.84 109.961 166.24 109.801C166.68 109.641 167.04 109.361 167.36 109.001C167.68 108.641 167.88 108.241 168 107.801C168.08 107.521 168.08 107.241 168.04 106.921C168 106.561 167.92 106.201 167.76 105.881L167.64 105.761C167.56 105.721 167.48 105.681 167.36 105.681C167.16 105.681 166.96 105.721 166.8 105.801L164.64 107.041L164.32 107.201C164.08 107.321 163.88 107.481 163.72 107.681C163.64 107.841 163.56 108.041 163.6 108.281C163.72 108.681 164.28 108.681 164.6 108.521L166.76 107.281L167.08 107.121L166.12 107.041L166.04 106.881C166.16 107.201 166.24 107.561 166.24 107.881V107.681C166.24 107.881 166.24 108.081 166.16 108.281L166.2 108.081C166.2 108.161 166.16 108.241 166.12 108.281C166.12 108.321 166.08 108.361 166.08 108.361C166.2 108.081 166.16 108.201 166.12 108.281L166.04 108.361C165.92 108.521 166.2 108.201 166.08 108.281C166.04 108.321 166.04 108.361 166 108.361C165.84 108.481 166.16 108.241 166.08 108.281L166 108.361L165.96 108.401L166.12 108.321L166 108.361C165.8 108.441 165.96 108.361 166 108.361C166.04 108.361 166.2 108.281 166 108.361C165.96 108.361 165.8 108.361 166.08 108.361C166 108.361 165.96 108.361 165.88 108.361H166.08C166 108.361 165.92 108.321 165.84 108.321L166 108.401C165.88 108.361 165.76 108.281 165.68 108.201L165.8 108.321C165.6 108.121 165.44 107.881 165.32 107.601L165.4 107.761C165.36 107.641 165.32 107.521 165.28 107.401C165.16 106.961 164.6 107.001 164.28 107.161C164.04 107.281 163.84 107.441 163.68 107.641C163.6 107.841 163.56 108.081 163.6 108.281Z" fill="#68BA7F"/>
<path d="M161.88 107.4L161.48 109.88L170.28 105.96C170.28 105.96 168.12 105.32 167.84 104.72C167.56 104.12 166.36 100.2 164.12 99.5604C161.88 98.9204 160.44 101.16 160.16 102.72C159.88 104.28 161.88 107.4 161.88 107.4Z" fill="white"/>
<path d="M161.079 106.841L160.679 109.361C160.599 109.961 161.399 111.001 162.079 110.681L169.759 107.281L170.839 106.801C171.639 106.441 170.399 105.361 170.039 105.241C169.559 105.121 169.079 104.921 168.639 104.681C168.559 104.641 168.359 104.561 168.319 104.481C168.319 104.641 168.559 104.681 168.599 104.841C168.559 104.641 168.479 104.441 168.359 104.241C167.759 102.721 167.079 101.241 165.919 100.081C164.679 98.8007 162.719 98.1607 161.119 99.2807C159.799 100.241 159.159 101.841 159.399 103.441C159.719 104.841 160.319 106.201 161.119 107.401C161.359 107.761 161.759 108.241 162.239 108.201C162.719 108.161 162.719 107.721 162.519 107.401C161.919 106.481 161.479 105.521 161.119 104.521C160.919 103.961 160.879 103.321 161.079 102.761C161.279 102.041 161.679 101.441 162.239 100.961C162.799 100.441 163.599 100.241 164.359 100.481C164.479 100.521 164.559 100.561 164.679 100.641C164.559 100.601 164.999 100.881 164.879 100.801C165.119 101.001 165.319 101.241 165.519 101.521C166.119 102.441 166.599 103.441 166.959 104.521C167.519 105.921 169.119 106.481 170.479 106.881L169.679 105.321L161.999 108.721L160.879 109.201L162.279 110.521L162.679 108.041C162.719 107.561 162.479 107.121 162.079 106.881C161.879 106.681 161.159 106.401 161.079 106.841Z" fill="#68BA7F"/>
<path d="M113.4 26.2002H138.24C139.68 26.2002 140.88 27.3602 140.88 28.8402V45.1202C140.88 46.5602 139.72 47.7602 138.24 47.7602H113.4C111.96 47.7602 110.76 46.6002 110.76 45.1202V28.8402C110.76 27.4002 111.96 26.2002 113.4 26.2002Z" fill="white"/>
<path d="M138.2 46.8394H114.44C113.48 46.8394 112.4 46.9594 111.88 45.9194C111.72 45.5194 111.68 45.0794 111.72 44.6394V29.3194C111.68 28.8394 111.8 28.3594 112.04 27.9594C112.64 27.0394 113.68 27.1594 114.64 27.1594H136.4C137.12 27.1194 137.84 27.1194 138.56 27.1594C139.44 27.2794 139.88 28.0394 139.88 28.8794C139.88 29.2794 139.88 29.6794 139.88 30.1194V35.5194C139.88 38.6794 139.96 41.8794 139.88 45.0394C139.88 45.9994 139.12 46.7994 138.2 46.8394C136.92 46.8794 137.08 48.7194 138.28 48.6793C140 48.6394 141.6 47.4794 141.8 45.6793C141.84 45.2794 141.84 44.8794 141.84 44.4394V39.4394C141.84 35.9594 141.88 32.4794 141.84 28.9994C141.8 26.9194 140.12 25.2794 138.04 25.3194H138H122.32C119.36 25.3194 116.44 25.3194 113.48 25.3194C111.52 25.2394 109.84 26.7994 109.8 28.7594C109.8 28.8394 109.8 28.9194 109.8 28.9994C109.8 30.3594 109.8 31.7194 109.8 33.0794V44.5194C109.8 44.9994 109.8 45.4794 109.92 45.9594C110.36 47.5594 111.8 48.6794 113.48 48.7194C114.24 48.7194 115 48.7194 115.76 48.7194H138.32C139.6 48.6794 139.4 46.8394 138.2 46.8394Z" fill="#68BA7F"/>
<path d="M125.199 32.5995C125.199 32.4395 125.599 28.9995 125.839 29.0795C126.079 29.1595 126.319 32.8395 126.319 32.8395L125.199 32.5995Z" fill="white"/>
<path d="M126.039 33.0796C126.079 32.6396 126.119 32.2396 126.199 31.8396C126.279 31.2396 126.359 30.5996 126.519 29.9996C126.559 29.8796 126.559 29.7996 126.599 29.6796C126.599 29.6396 126.639 29.5996 126.639 29.5996C126.639 29.5996 126.639 29.5996 126.679 29.5596C126.679 29.6396 126.319 29.5196 126.399 29.5196L125.759 29.2396L125.399 28.9996C125.239 28.9596 125.079 28.8396 124.999 28.6796V28.7196C124.999 28.7196 125.039 28.7996 125.039 28.8396C125.079 28.9596 125.079 29.0396 125.119 29.1596C125.159 29.4396 125.199 29.7596 125.239 30.0396C125.319 30.6796 125.359 31.3196 125.399 31.9596C125.399 32.1196 125.399 32.2396 125.439 32.3996L125.599 32.3196L124.479 32.0796C124.399 32.0796 124.279 32.0796 124.319 32.1596C124.359 32.2396 124.599 32.4396 124.639 32.4796C124.999 32.7596 125.439 32.9596 125.879 33.0796L126.999 33.3196C127.119 33.3596 127.199 33.3196 127.159 33.2396C127.119 32.1196 126.999 31.0396 126.839 29.9596C126.839 29.7596 126.759 29.5596 126.639 29.3996C126.439 29.1996 126.199 28.9996 125.919 28.8796C125.719 28.7596 125.479 28.6396 125.279 28.5996C125.199 28.5596 125.079 28.5596 124.999 28.5596C124.919 28.5596 124.879 28.6396 124.879 28.6796C124.799 28.9196 124.719 29.1196 124.719 29.3596C124.639 29.6796 124.599 30.0396 124.559 30.3996C124.519 30.7596 124.439 31.1596 124.399 31.5196C124.359 31.7196 124.359 31.9196 124.359 32.1196C124.359 32.2396 124.439 32.3196 124.519 32.3996C124.679 32.5596 124.879 32.6796 125.119 32.7996C125.319 32.9196 125.559 33.0396 125.759 33.0796C125.759 33.0796 126.039 33.1596 126.039 33.0796Z" fill="#68BA7F"/>
<path d="M124.32 41.6793C124.32 41.6793 123.92 44.1193 125.84 43.8793C127.76 43.6393 127.76 41.3193 127.76 41.3193L124.32 41.6793Z" fill="white"/>
<path d="M123.32 41.7202C123.2 42.5202 123.32 43.5202 124.04 44.0402C124.96 44.6802 126.32 44.5602 127.28 44.0402C127.88 43.7202 128.32 43.1602 128.56 42.4802C128.68 42.0802 128.76 41.6802 128.76 41.2802C128.76 41.1202 128.6 40.9602 128.44 40.9202C128.2 40.8002 127.96 40.7602 127.72 40.8002L124.72 41.1202L124.28 41.1602C124.04 41.1602 123.8 41.2402 123.56 41.3202C123.48 41.4002 123.28 41.5202 123.32 41.7202C123.36 42.1202 124 42.2402 124.32 42.2002L127.32 41.8802L127.76 41.8402L126.76 41.3202C126.76 41.5602 126.72 41.7602 126.68 41.9602L126.72 41.8002C126.68 42.0402 126.6 42.3202 126.48 42.5202L126.4 42.6802C126.4 42.7202 126.36 42.7202 126.36 42.7602L126.32 42.8002C126.28 42.8802 126.32 42.8002 126.36 42.7602C126.32 42.8002 126.28 42.8802 126.24 42.9202C126.2 42.9602 126.12 43.0402 126.08 43.0802C126.04 43.1202 125.92 43.1602 126.12 43.0802L126.04 43.1602L125.92 43.2402L125.88 43.2802C125.76 43.3202 125.96 43.2402 125.96 43.2402C125.96 43.2402 125.76 43.3202 125.72 43.3202C125.6 43.3602 125.96 43.2802 125.84 43.2802H125.8C125.76 43.2802 125.64 43.2802 125.64 43.3202C125.64 43.3602 125.88 43.3202 125.8 43.3202H125.76C125.52 43.3202 125.72 43.3202 125.76 43.3202C125.8 43.3202 126 43.3202 125.76 43.3202C125.6 43.3202 126 43.4002 125.84 43.3202L125.76 43.2802C125.72 43.2802 126 43.3602 125.84 43.3202L125.76 43.2802C125.68 43.2402 125.92 43.4002 125.8 43.3202C125.76 43.2802 125.72 43.2402 125.64 43.2002C125.56 43.1602 125.72 43.2802 125.72 43.2802L125.68 43.2402C125.68 43.2402 125.64 43.2002 125.64 43.1602C125.56 43.0402 125.52 42.8802 125.48 42.7602L125.52 42.8802C125.4 42.4402 125.4 42.0402 125.48 41.6002C125.52 41.4402 125.28 41.2802 125.16 41.2402C124.92 41.1202 124.68 41.0802 124.44 41.1202C123.92 41.1602 123.4 41.2802 123.32 41.7202Z" fill="#68BA7F"/>
<path d="M121.64 39.8798L119.96 42.4398H131.68C131.68 42.4398 129.6 40.6398 129.6 39.8798C129.6 39.1198 130.2 34.1198 128 32.3198C125.8 30.5198 123.08 32.2798 122.04 33.8798C121 35.4798 121.64 39.8798 121.64 39.8798Z" fill="white"/>
<path d="M120.759 39.9999L119.079 42.5999C118.919 42.8399 119.119 42.9599 119.399 42.9599H131.119C131.359 42.9599 133.079 42.4799 132.559 42.0399C132.079 41.6399 131.639 41.1999 131.239 40.7199C130.799 40.2399 130.559 39.8399 130.559 39.1999C130.639 37.5199 130.719 35.7999 130.239 34.1999C130.039 33.3599 129.599 32.5999 128.959 31.9599C127.959 31.1599 126.599 30.8799 125.359 31.1999C123.279 31.6799 121.079 33.1999 120.679 35.3999C120.439 36.9999 120.439 38.5999 120.719 40.1999C120.799 40.6399 122.679 40.1199 122.599 39.5199C122.399 38.3199 122.359 37.0799 122.439 35.8399C122.439 35.0399 122.639 34.2799 123.039 33.5999C123.519 32.9199 124.239 32.1999 125.079 32.0399C127.119 31.6799 128.199 33.8799 128.519 35.5199C128.759 36.9199 128.799 38.3599 128.679 39.7999C128.639 40.5199 128.959 40.9199 129.399 41.4799C129.839 41.9599 130.319 42.4399 130.799 42.8799L132.239 41.9599H120.519L120.839 42.3199L122.519 39.7599C122.759 39.3999 122.239 39.3599 121.999 39.3999C121.559 39.4399 121.079 39.6399 120.759 39.9999Z" fill="#68BA7F"/>
<path d="M140.92 35.0003C144.432 35.0003 147.28 32.1528 147.28 28.6403C147.28 25.1277 144.432 22.2803 140.92 22.2803C137.407 22.2803 134.56 25.1277 134.56 28.6403C134.56 32.1528 137.407 35.0003 140.92 35.0003Z" fill="#000005"/>
<path d="M146.279 29.3595C145.799 31.7595 143.959 33.6395 141.599 34.1995C139.359 34.7195 137.159 33.7995 136.119 31.7595C135.039 29.5195 135.359 26.8795 136.999 24.9995C138.519 23.2395 141.199 22.3595 143.439 23.2395C145.839 24.1595 146.759 27.1595 146.279 29.4795C146.199 29.9995 147.919 30.9195 148.039 30.3195C149.199 24.1995 141.279 19.1995 136.279 23.0395C133.999 24.7995 133.119 27.8395 134.119 30.5595C135.159 33.3995 138.119 35.3995 141.119 35.5995C144.359 35.7995 147.279 33.5995 147.959 30.4395C148.159 29.7995 146.359 28.9995 146.279 29.3595Z" fill="#000005"/>
<path d="M140.559 27.3202C140.919 27.0802 141.319 26.9202 141.719 26.8402L140.399 25.7202C140.439 27.4002 140.359 29.1202 140.159 30.8002C140.079 31.6802 141.799 32.5202 141.919 31.4002C142.119 29.7202 142.199 28.0002 142.159 26.3202C142.159 25.7202 141.479 25.0802 140.839 25.2002C140.279 25.3202 139.759 25.5202 139.279 25.8002C138.879 26.0402 138.999 26.6002 139.239 26.9202C139.479 27.2402 140.119 27.5602 140.559 27.3202Z" fill="white"/>
<path d="M119.12 22.1198C117.16 18.4798 113.64 15.8798 109.56 15.0398C105.8 14.2398 101.8 15.3998 99.5597 18.6398C98.5197 20.0798 97.9997 21.8398 98.1197 23.5998C98.1997 24.5198 98.7597 25.3198 99.5597 25.7198C100.28 26.1598 101.28 26.4798 102 25.8798C102.8 25.1998 102 24.3998 101.32 23.9998C100.48 23.4798 99.5597 23.1598 98.5997 23.0798C96.9197 22.9598 95.2797 23.7998 94.1197 24.9998C91.3997 27.7998 91.5597 32.7198 94.5197 35.2798C94.8797 35.5998 95.3197 35.7998 95.7997 35.9198C96.1197 35.9598 96.2797 35.8398 95.9597 35.5598C93.8397 33.7198 93.5597 30.4798 94.5597 27.9998C95.0797 26.6798 96.0397 25.5998 97.2397 24.8398C97.8397 24.4798 98.4797 24.2398 99.1597 24.1198C99.4797 24.0798 99.7597 24.0798 100.08 24.0798C100.2 24.0798 100.32 24.1198 100.44 24.1598C100.8 24.1998 100.44 24.2398 100.44 24.1198C100.4 24.1998 100.56 24.3998 100.52 24.5598C100.48 24.6798 100.4 24.7998 100.32 24.8798C100.24 24.9998 100.08 25.0798 99.9597 25.1198C99.9197 25.1198 99.8397 25.1598 99.7997 25.1598C99.7597 25.1598 99.6797 25.1998 99.6397 25.1998L100.32 25.5198C100.32 25.4798 100.12 25.1998 100.08 25.1198C100.04 24.9598 99.9597 24.7998 99.9197 24.6398C99.8397 24.2398 99.8397 23.8398 99.8397 23.4398C99.9597 22.0398 100.44 20.6798 101.24 19.5198C103.04 16.9198 106.08 15.5198 109.24 15.7598C112.76 15.9598 115.64 18.2398 117.28 21.3198C117.52 21.6798 117.88 21.9198 118.28 22.0398C118.4 22.1198 119.28 22.3598 119.12 22.1198Z" fill="#68BA7F"/>
</svg>
