<svg transform="scale(1)" version="1.1" id="RyxzV2c120" xmlns="http://www.w3.org/2000/svg" xmlns:xlink="http://www.w3.org/1999/xlink" x="0px" y="0px" viewBox="0 0 500 500" xml:space="preserve" class="pbimage_pbimage__wrapper__image__0LEis false"><title>Log Out</title><style type="text/css"> .st0{fill:#59BE4C;} .st1{fill:#FFFFFF;} .st2{fill:none;} .st3{fill:#000005;}
 .st3{fill:#000005;}
 .st1{fill:#FFFFFF;}
 .st0{fill:#59BE4C;}</style><g id="device"><path class="st0" d="M270.9,413.3l2.3-327c0.1-8.7,7.1-15.6,15.8-15.6l154.4,1.1c8.7,0.1,15.6,7.1,15.6,15.8l-2.3,327
		c-0.1,8.7-7.1,15.6-15.8,15.6l-154.4-1.1C277.8,429.1,270.8,422,270.9,413.3z" fill="#59BE4C"></path><path class="st0" d="M288.6,430.1l10.7,0.1l26.9,0.2l35.6,0.3l36.2,0.2l29.5,0.2l14.9,0.1c8.8,0.2,16.2-6.7,16.4-15.6
		c0-0.1,0-0.3,0-0.4c0-2.7,0-5.5,0.1-8.2l0.1-17.3l0.2-24.8l0.2-30.5l0.2-34.3l0.3-36.8l0.3-37.1l0.3-36.1l0.2-33.1l0.2-28.3l0.2-22
		l0.1-13.9c0-3.4,0.2-6.7-1-10c-2.8-7.3-11.4-11.8-19-12c-1,0-2,0-3,0L418,70.6l-32.4-0.2l-36.8-0.3L315,69.9l-22.8-0.2
		c-1.6,0-3.3,0-5,0c-5.1-0.1-9.9,2.1-13.1,6.1c-3.1,3.9-3.3,8.3-3.3,12.9l-0.1,13.1l-0.2,21.4l-0.2,27.9l-0.2,32.8l-0.2,35.9
		l-0.3,37.1l-0.3,36.9l-0.2,34.6l-0.2,30.9l-0.2,25.3l-0.1,18l-0.1,9c-0.1,2.2,0.3,4.4,1,6.4C272.4,425.5,281,429.9,288.6,430.1
		c0.4,0-1.3-1-1.4-1.1c-0.9-0.5-1.9-0.9-2.9-1c-2,0.1-3.9-0.5-5.4-1.7c-1.6-1.3-2.8-2.8-3.8-4.6c-1.2-2.3-1.9-4.9-1.9-7.5
		c0-0.6,0-1.2,0-1.9l0.1-11.2l0.1-19.5l0.2-26.3l0.2-31.4l0.2-34.9l0.3-36.5l0.3-36.6l0.2-35l0.2-31.8l0.2-27l0.1-20.3l0.1-12
		c0-0.8,0-1.6,0-2.4c0-5,2.4-9.8,6.4-12.8c4.9-3.6,10.5-3,16.2-2.9L322,72l33.9,0.2l36.4,0.3l31.6,0.2l19.1,0.1c1.2,0,2.4,0,3.6,0.1
		c6.4,0.5,10.1,7.9,10.1,13.8c0,2.2,0,4.3,0,6.5l-0.1,15.7l-0.2,23.2l-0.2,29.1l-0.2,33.3l-0.3,36.1l-0.3,36.8l-0.2,36l-0.2,33.5
		l-0.2,29.6l-0.2,23.6l-0.1,16.2c0,2.4,0,4.8,0,7.1c0,5.3-2.6,10.2-7,13.1c-2.9,1.8-6.4,2.7-9.8,2.6l-16.5-0.1l-30-0.2l-36-0.2
		l-35-0.2l-26-0.2l-9.8-0.1c-0.4,0,1.3,1,1.4,1.1C286.6,429.7,287.6,430,288.6,430.1z" fill="#59BE4C"></path><path class="st1" d="M247.8,412.4l2.3-327c0.1-8.7,7.1-15.6,15.8-15.6l154.4,1.1c8.7,0.1,15.6,7.1,15.6,15.8l-2.3,327
		c-0.1,8.7-7.1,15.6-15.8,15.6l-154.4-1.1C254.7,428.1,247.7,421,247.8,412.4z" fill="#FFFFFF"></path><path class="st0" d="M263.6,430l10.8,0.1l26.9,0.2l35.6,0.2l36.2,0.3l29.5,0.2c5,0,9.9,0.1,14.8,0.1c10.2,0,18.4-7.2,18.5-17.6
		c0-2.6,0-5.2,0.1-7.7l0.1-16.9l0.2-24.5l0.2-30.3l0.2-34.2l0.3-36.7l0.3-37.1l0.2-36.2l0.2-33.3l0.2-28.6l0.2-22.4l0.1-14.3
		c0-2.8,0.2-5.8-0.4-8.5c-2.1-8.1-9.4-13.8-17.8-13.9c-1,0-2,0-3,0l-20.1-0.1l-32.4-0.2l-36.8-0.3l-33.8-0.2L271,68h-5
		c-5.3-0.1-10.4,2-14,5.8c-2.9,3.3-4.5,7.5-4.4,11.8c0,0.9,0,1.8,0,2.7l-0.1,12.6l-0.1,21.1l-0.2,27.6l-0.2,32.6l-0.2,35.7l-0.3,37
		l-0.3,37l-0.2,34.7l-0.2,31.1l-0.2,25.7l-0.1,18.4l-0.1,9.5C245.2,421.6,253.4,429.9,263.6,430c3.3,0.1,2.3-3.6-0.5-3.7
		c-7.5-0.2-12.8-6.5-12.9-13.8c0-0.5,0-1.1,0-1.6l0.1-10.7l0.1-19.2l0.2-26l0.2-31.1l0.3-34.8l0.3-36.5l0.3-36.6l0.2-35.1l0.2-32
		l0.2-27.3l0.1-20.6l0.1-12.5c0-0.9,0-1.8,0-2.7c0-4.2,1.9-8.3,5.1-11c4.5-3.7,9.9-3.1,15.4-3.1l23.9,0.2l33.9,0.2l36.4,0.3
		l31.6,0.2l19.1,0.1c1.2,0,2.4,0,3.6,0c7.1,0.5,11.8,7,11.9,13.8c0,2,0,4,0,6l-0.1,15.3l-0.2,22.9l-0.2,28.9l-0.2,33.2l-0.2,36
		l-0.3,36.8l-0.2,36.1l-0.2,33.7l-0.2,29.8l-0.2,24l-0.1,16.6c0,2.5,0,5.1,0,7.6c0.1,7.7-6.1,14-13.8,14.1c-0.3,0-0.6,0-1,0
		l-16.4-0.1l-30-0.2l-36.1-0.3l-34.9-0.2l-26-0.2l-9.8-0.1C259.8,426.3,260.7,430,263.6,430z" fill="#59BE4C"></path><rect class="st1" x="213.4" y="160.5" transform="matrix(7.155853e-03 -1 1 7.155853e-03 101.2533 580.6833)" width="259.3" height="157.7" fill="#FFFFFF"></rect><path class="st0" d="M263,370l15.8,0.1l37.6,0.3l45.6,0.3l39.4,0.3c6.3,0,12.7,0.3,19.1,0.1h0.3c0.8,0,2.7-0.7,2.7-1.8v-7l0.1-18.9
		l0.2-28l0.2-34l0.3-37.3l0.3-37.6l0.2-35.1l0.2-29.7l0.1-21.3c0-3.4,0.1-6.7,0.1-10.1V110c0-1.2-1.1-1.4-2.1-1.4l-15.8-0.1
		l-37.6-0.3l-45.6-0.2l-39.4-0.3c-6.3,0-12.7-0.3-19.1-0.1h-0.3c-0.8,0-2.7,0.7-2.7,1.8v6.9l-0.1,18.9l-0.2,28l-0.2,34l-0.3,37.3
		l-0.3,37.5l-0.2,35.1l-0.2,29.7l-0.1,21.3c0,3.4-0.1,6.7-0.1,10.1v0.4c0,2.3,4.9,1.6,4.9-0.4l0-7l0.1-18.9l0.2-28l0.2-34l0.3-37.3
		l0.3-37.6l0.2-35.1l0.2-29.7l0.1-21.3c0-3.3,0.2-6.7,0.1-10.1c0-0.2,0-0.3,0-0.4l-2.7,1.8l15.8,0.1l37.6,0.3l45.6,0.3l39.4,0.3
		l12.9,0.1c2,0,4.1,0.2,6.1,0h0.3l-2.1-1.4v6.9l-0.1,18.9l-0.2,28l-0.2,34l-0.3,37.3l-0.3,37.6l-0.2,35.1l-0.2,29.7l-0.1,21.3
		c0,3.3-0.2,6.7-0.1,10.1c0,0.1,0,0.3,0,0.4l2.7-1.8l-15.8-0.1l-37.6-0.3l-45.6-0.3l-39.4-0.3c-6.4,0-12.8-0.3-19.1-0.1h-0.3
		c-1,0-2.6,0.7-2.7,1.8S262.1,370,263,370z" fill="#59BE4C"></path><circle class="st1" cx="342.1" cy="398.4" r="11.9" fill="#FFFFFF"></circle><path class="st0" d="M328.9,396.6c0,5.8,3.5,12,8.7,14.6c5,2.5,11,1.4,14.7-2.8c7.8-8.9-0.6-25.1-12.4-24.1
		C333.6,385,328.9,390.3,328.9,396.6c0.1,1.2,0.6,2.3,1.3,3.2c0.3,0.4,1.2,1.4,1.2,0.4c0.1-4.5,2.9-8.6,7-10.4c4.2-1.8,9-1.1,12.4,2
		c2.7,2.6,2.1,7.3,0.3,10.5c-2.3,3.9-6.6,6.1-11.1,5.8c-2.4-0.2-4.7-1.2-6.6-2.8c-1.6-1.4-2-2.9-2-5.1c-0.1-1.2-0.6-2.3-1.4-3.1
		C329.9,396.6,328.9,395.5,328.9,396.6z" fill="#59BE4C"></path><circle class="st1" cx="366.8" cy="91.3" r="3.8" fill="#FFFFFF"></circle><path class="st0" d="M368.5,90c0,1.5-0.9,2.8-2.2,3.4l0.1-0.1c-0.5,0.2-1,0.3-1.6,0.3h-0.2c-0.1,0-0.1,0,0,0c-0.1,0-0.3,0-0.4-0.1
		c-0.2,0,0.1,0,0.1,0s-0.2,0-0.2-0.1s0.4,0.2,0.2,0.1l0.4,0.2L365,94l0.1,0.1c0.1,0.1,0.2,0.2,0.4,0.2c0.5,0.4-0.2-0.2,0.2,0.2
		s0.1,0.1,0,0s0.2,0.2,0.1,0.1c-0.1-0.1-0.1-0.2-0.2-0.3c-0.1-0.1,0.1,0.1,0,0l-0.1-0.2c-0.2-0.5-0.4-1.1-0.4-1.6v0.2
		c0-1.5,0.9-2.8,2.2-3.4l-0.1,0.1c0.5-0.2,1.1-0.3,1.6-0.3h0.2c0.1,0,0.1,0,0,0l0.4,0.1c0.2,0.1-0.1,0-0.1,0s0.2,0.1,0.2,0.1
		s-0.4-0.2-0.2-0.1l-0.4-0.2c-0.4-0.3-0.5-0.3-0.4-0.2s0.1,0-0.1-0.1c-0.1-0.1-0.2-0.2-0.4-0.3c-0.5-0.4,0.2,0.2-0.2-0.2
		s-0.1-0.1,0,0s-0.2-0.2-0.1-0.1s0.2,0.2,0.2,0.3s-0.1-0.1,0,0l0.1,0.2c0.2,0.5,0.4,1.1,0.4,1.6c0,0.3,0.7,0.8,0.8,0.9
		c0.5,0.4,1,0.8,1.6,1.1c0.4,0.3,0.9,0.5,1.4,0.6c0.2,0.1,0.4,0.1,0.4-0.2c0-0.9-0.3-1.8-0.9-2.5c-0.5-0.7-1.1-1.3-1.8-1.8
		c-0.8-0.6-1.6-1.1-2.4-1.5c-1-0.6-2.2-0.8-3.3-0.7c-2.1,0.3-3.6,2.4-3.3,4.5c0.1,0.6,0.3,1.2,0.7,1.6c0.9,1.3,2.2,2.4,3.6,3.1
		c1.1,0.7,2.4,1.1,3.8,1.1c2-0.2,3.6-1.8,3.6-3.8c0-0.3-0.2-0.5-0.4-0.7c-0.4-0.4-0.9-0.8-1.4-1.1c-0.5-0.3-1-0.6-1.6-0.8
		C369.3,90,368.5,89.8,368.5,90z" fill="#59BE4C"></path><line class="st2" x1="324.8" y1="90.8" x2="346.8" y2="91.3"></line><path class="st0" d="M325.8,92.6L345,93l2.8,0.1c0.5,0.2,1.1-0.1,1.2-0.7c0.1-0.4,0-0.7-0.2-1c-0.7-1-1.8-1.7-3-1.8l-19.2-0.4
		l-2.8-0.1c-0.5-0.2-1.1,0.2-1.2,0.7c-0.1,0.3,0,0.7,0.2,1C323.5,91.8,324.6,92.4,325.8,92.6L325.8,92.6z" fill="#59BE4C"></path><path class="st3" d="M353.2,236.4c3-1.5,5.8-3.5,8.1-5.9c11.8-12.5-1.1-40.8-26.3-35.4c0,0-18.1,2.8-14.5,26.1
		c1.6,10.1,7.2,15.5,14,17.4c-5.6,22-8.2,59.7-8.2,59.7s44.4,5.1,44.4,0C370.8,294.7,362.2,257,353.2,236.4z" fill="#000005"></path><path class="st3" d="M355.3,237.6c4.7-2.4,9.4-6,11.4-11c1.4-3.6,1.8-7.6,1-11.4c-1.9-8.9-8-16.4-16.5-19.9
		c-6.3-2.7-14.1-3.2-20.7-0.8c-6.4,2.3-11.1,7.8-12.4,14.5c-1.1,5.8-0.6,11.9,1.5,17.4c2,5.3,6,9.6,11.2,12c1.2,0.6,2.5,1.1,3.9,1.4
		l-2.5-2.2c-2.3,9.9-4.1,19.9-5.2,30c-1,8.3-1.9,16.6-2.6,25c-0.1,1.7-0.3,3.3-0.4,5c-0.1,1.1,2.4,1.9,3.1,2c4.7,0.5,9.4,1,14.1,1.4
		c7.7,0.8,15.4,1.1,23.1,0.9c2.4-0.1,5.2-0.1,7.4-1.2c1.6-0.8,1.2-2.3,1-3.8c-1.4-8.3-3.5-16.5-5.7-24.6c-3.2-12-6.8-24.1-11.7-35.6
		c-0.5-1.3-5.2-2.6-4.4-0.7c4.3,10,7.5,20.5,10.4,30.9c2.4,8.7,4.7,17.5,6.4,26.4c0.2,1.1,0.4,2.2,0.6,3.3c0,0.3,0.1,0.6,0.1,0.9
		c0,0.3,0-0.3,0,0c0,0.1-0.1,0.2-0.2,0.4c0.2-0.3,0,0-0.2,0.1l-0.4,0.2c-0.1,0-0.4,0.1,0,0l-0.3,0.1l-0.7,0.2
		c-1.1,0.3-2.3,0.4-3.4,0.5c-7.3,0.5-14.7,0-22-0.6c-5.2-0.4-10.3-0.9-15.7-1.5l3.1,2c1-14.5,2.6-29,4.9-43.3
		c0.9-5.4,1.9-10.8,3.2-16.1c0.3-1.1-1.8-2-2.5-2.2c-1.9-0.5-3.7-1.4-5.1-2.7c-1.8-1.6-3.2-3.5-4.2-5.7c-2.3-5.1-3.1-10.8-2.4-16.4
		c0.9-6.6,4.5-12.2,10.5-15c1.2-0.5,2.4-0.9,3.6-1.2c3.8-0.9,7.7-0.9,11.5,0.1c1.8,0.5,3.4,1.2,4.9,2.2c1.5,1,2.9,2.2,4.1,3.6
		c2.5,2.8,4.3,6.1,5.3,9.7c1.1,3.9,1.1,8-0.2,11.8c-1.9,5.3-6.5,8.9-11.3,11.4c-0.9,0.5,0.8,1.7,1.1,1.9
		C353,237.6,354.4,238.1,355.3,237.6z" fill="#000005"></path></g><g id="character"><path class="st3" d="M296.1,230.2c0,0,5.5,93.5-67.1,87.5c0,0,15.3,61.2-2.7,72.4c-11.2,7-49.4,3.9-76.7,0.6
		c-3.4-0.4-6.8-1.3-10.1-2.5l-3.3,5.2c0,0-29.6-28.2-34.2-55.3c-4-23.1,32.9-48.1,43.9-55c24.1-18.1,38.3-9.7,49.2-11.3
		c5.1-0.7,15.9-0.4,26.4,0.3c14.9,0.9,28-9.5,30.4-24.2l3-18.3C255.1,229.5,293.1,220.2,296.1,230.2"></path><path class="st3" d="M293.7,229.7c0.2,3.1,0.1,6.1,0,9.2c-0.2,7.3-1.1,14.6-2.4,21.8c-1.6,9-4.5,17.8-8.5,26
		c-4.3,8.6-10.4,16.3-18.3,21.7c-9.2,6.3-20.4,9-31.5,8.7c-1.7,0-3.4-0.1-5.1-0.3c-0.1,0-1.4,0-1.3,0.3c1.3,5,2.2,10.1,3.1,15.2
		c1.9,10.3,2.9,20.7,2.9,31.1c0,4.9-0.5,9.8-1.6,14.5c-0.9,3.7-2.5,7.5-5.3,10.1c-3.2,2.9-7.8,3.8-12,4.4
		c-6.5,0.8-13.1,1.2-19.7,0.9c-7.8-0.1-15.6-0.6-23.4-1.3c-4-0.3-8-0.7-11.9-1.2c-3.8-0.4-7.8-0.7-11.6-1.4c-2.1-0.4-4.1-1-6.1-1.8
		c-0.7-0.2-3.3-1-3.8-0.2l-3.3,5.2l4.9,0.7c-3.8-3.7-7.3-7.5-10.6-11.6c-7.1-8.2-13.1-17.3-18-27c-2.6-5.1-4.4-10.6-5.5-16.2
		c-0.7-4.3-0.2-8.8,1.4-12.8c3.4-9.3,10.4-17,17.6-23.6c6.6-6,13.6-11.5,21.1-16.4c4.2-2.8,8.3-5.8,12.7-8.2
		c4.9-2.7,10.2-4.5,15.6-5.4c3.9-0.5,7.8-0.6,11.7-0.2h0.3l0.7,0.1l1.3,0.1c1,0.1,2.1,0.2,3.1,0.2c1.7,0.1,3.3,0.2,5,0.1
		c2-0.1,3.9-0.4,5.9-0.5c3.3-0.1,6.6-0.1,10,0c3.8,0.1,7.6,0.3,11.4,0.6c2.9,0.2,5.8,0.1,8.7-0.5c11-2.1,19.8-10.2,22.9-21
		c0.6-2.7,1.1-5.4,1.5-8.2l1.8-11.1l0.4-2.2l-0.4,0.2c4-1,8-1.7,12.1-2.4c3.5-0.6,7.1-1,10.7-1.3c1.7-0.1,3.5-0.2,5.1-0.2
		c1.5,0,2.9,0.1,4.4,0.3c-0.6-0.1,0.5,0.1,0.7,0.1c-0.9-0.2,1.1,0.4,0.4,0.1c0.4,0.1,0.8,0.3,1.2,0.5c0.9,0.5,1.6,1.3,2,2.3
		c0.2,0.7,1.7,0.9,2.4,1.1c0.2,0,2.7,0.3,2.6-0.1c-0.9-2.7-3.9-3.9-6.4-4.6c-3.8-1-7.8-1.4-11.7-1.2c-7.5,0.3-15,1.2-22.4,2.9
		c-1.7,0.4-3.4,0.7-5.1,1.1c-0.2,0-0.3,0.1-0.4,0.2l-2.9,17.5c-1.4,9.9-7.7,18.4-16.8,22.6c-2.5,1.1-5.1,1.8-7.8,2.2
		c-3.2,0.2-6.3,0.2-9.5-0.1c-6.7-0.5-13.5-0.6-20.2-0.2c-0.9,0.1-2,0.2-2.8,0.3c-0.4,0-0.7,0.1-1.1,0.1H191h-0.4
		c-0.7,0-1.4,0-2.2-0.1l-1.2-0.1c-0.1,0-0.7-0.1-0.2,0l-0.8-0.1c-4-0.4-8.1-0.6-12.2-0.5c-4.9,0.2-9.7,1.2-14.2,2.9
		c-2.9,1.1-5.7,2.4-8.4,4c-2.8,1.6-5.4,3.6-8.1,5.4c-6.9,4.3-13.4,9.1-19.6,14.3c-7.6,6.4-14.9,13.7-19.8,22.4
		c-2.3,3.9-3.8,8.2-4.3,12.7c-0.4,5,1,10,2.6,14.6c3.8,10.7,10,20.5,16.9,29.4c4.4,5.7,9.1,11.1,14.2,16.2l0.8,0.8
		c0.8,0.6,1.7,0.9,2.6,0.9c0.5,0.1,1.9,0.4,2.2-0.2l3.3-5.2l-3.8-0.2c8.2,3,17,3.6,25.6,4.4c8.3,0.8,16.6,1.5,24.9,1.9
		c7.5,0.4,14.9,0.4,22.4-0.1c5.3-0.4,11-0.9,15.9-3.1c8-3.6,9.7-13.9,10.3-21.7c0.8-10.7-0.4-21.6-2-32.2c-0.7-4.3-1.4-8.5-2.3-12.7
		c-0.3-1.4-0.6-2.9-0.9-4.3c-0.1-0.8-0.3-1.5-0.5-2.3c0-0.1-0.1-0.2-0.1-0.3l-1.3,0.3c12,1,24.4-0.5,35.1-6.4
		c8.6-4.7,15.4-12,20.3-20.4c4.6-8.2,8-17.1,9.9-26.3c1.7-7.6,2.7-15.3,3.1-23.1c0.1-2.6,0.2-5.2,0.2-7.8c0.1-1.2,0.1-2.5-0.1-3.7
		c0-0.1,0-0.1,0-0.2C298.6,229.4,293.7,229.1,293.7,229.7L293.7,229.7z"></path><path class="st3" d="M146.5,272.8c0,0-14.4,10.8-20.1,5.5s5.3-8.6,5.3-8.6s-18.2-7.6-3.1-17.7c0,0-18.3-3.6-12.2-18.1
		s30.3-18.5,30.3-18.5s-7.5-14.1,10-20.2s17.6,4.5,17.6,4.5s11.1-4,13.8,0.8s-4.4,10.6-4.4,10.6s3.8,15.6-11.6,20.4l-5.4,24.5
		c0,0,8,4.1,5.9,13.4S150.2,282.3,146.5,272.8z"></path><path class="st3" d="M145,272.4c-1.1,0.8-2.2,1.5-3.3,2.2l0,0l-0.4,0.2l-0.8,0.5c-0.6,0.4-1.3,0.7-1.9,1s-1.1,0.5-1.6,0.7
		c-0.7,0.3-1.3,0.5-2,0.8c-0.2,0-0.4,0.1-0.6,0.2c-0.3,0.1-0.6,0.2-1,0.2c-0.2,0-0.4,0-0.6,0.1c-0.3,0-0.5,0.1-0.8,0.1
		c-1,0-2-0.2-2.9-0.8c-1-0.6-1.8-1.7-2-2.9c0-0.9,0.4-1.7,1.1-2.1c0.3-0.3,0.1-0.1,0.1,0l0.4-0.3l0.3-0.2c0.2-0.1-0.3,0.2,0.1,0
		s0.6-0.3,0.9-0.5l0.3-0.2l-0.1,0c0.4-0.2,0.9-0.4,1.3-0.5s0.5-0.1-0.1,0c0.7-0.2,3.9-1.7,2.1-2.5c-0.2-0.1,0.4,0.2,0.1,0l-0.5-0.2
		c-0.6-0.3-1.2-0.6-1.8-0.9c-1.6-0.9-3.1-2.1-4.4-3.5c-1.3-1.3-2-3.2-1.9-5.1c0.4-2.9,2.9-4.9,5.1-6.4c0.5-0.3,1.5-1.4,0.3-1.7
		c-5.7-1.1-12.8-5-12.9-11.6c-0.1-5.4,3.4-10.2,7.4-13.5c4-3.1,8.4-5.4,13.2-6.9c0.2-0.1,0.9-0.3,0.5-0.2l0.9-0.3l1.7-0.5
		c0.9-0.2,1.8-0.5,2.8-0.7l1.8-0.4c-0.9,0.2-0.1,0,0.2,0c0.6-0.1,3.8-1,3.2-2.2c-2.1-4-2.2-9.4,0.4-13.2s7.9-5.6,12.3-6.4
		c3-0.5,6.4-0.5,8.6,1.9c0.6,0.7,1,1.6,1.3,2.5c0.1,0.3,0.1,0.6,0.2,0.9c0.1,0.4,0,0.1,0,0.1c0,1.2,2.1,0.6,2.7,0.4l0.4-0.1
		c-1,0.4,0.2,0,0.4-0.1c1-0.3,2.1-0.6,2.8-0.7c2.1-0.4,4.6-0.7,6.5,0.5c4.2,2.8-0.2,8.6-2.9,10.8c-0.3,0.2-0.5,0.6-0.4,0.9
		c1.4,5.9-0.4,13.1-5.5,16.6c-1.1,0.7-2.3,1.3-3.5,1.7c-1.1,0.4-2.3,0.8-2.7,2c-0.3,1-0.5,2-0.7,3l-2.7,12.3l-2,9
		c0,0.2,0,0.4,0.2,0.5c4.9,2.6,7.2,8.4,5.5,13.7c-0.5,1.2-1.2,2.2-2.2,3.1c-0.5,0.4-1,0.8-1.5,1.1l-0.8,0.4l-0.4,0.2
		c-0.7,0.4,0.4-0.2-0.3,0.1c-2.6,1.1-5.5,1.5-8.4,1.2c-3.2-0.4-6.2-2-7.5-5c-0.6-1.4-5.2,0.4-4.7,1.8c3,7.4,13.4,6.6,19.6,4.6
		c3.6-1.2,7.3-3.2,9.6-6.4c2.2-3.4,2.5-7.7,0.8-11.4c-1.2-2.4-3-4.4-5.4-5.7l0.2,0.5l4.7-21.4l0.7-3.1l-2.6,1.8
		c5.3-1.7,10.4-4.7,12.9-9.9c1.5-3.2,2.1-6.8,1.7-10.3c-0.1-0.8-0.2-1.5-0.3-2.2l-0.4,1c2.8-2.3,6.2-6.4,5.2-10.3
		c-1.2-5-8.2-4.2-12-3.4c-1.7,0.3-3.4,0.8-5,1.4l2.7,0.4c0-1.4-0.5-2.8-1.4-3.9c-2.3-3-6.3-3.4-9.7-3.1c-3.4,0.3-6.8,1.2-9.9,2.4
		c-3,1.1-5.8,2.7-8.2,4.8c-3,2.7-4.7,6.5-4.5,10.6c0.1,2.2,0.6,4.4,1.6,6.4l3.2-2.2c-8.6,1.4-16.8,4.6-24,9.5
		c-4.8,3.4-9.3,8.2-10.5,14.1c-1,4.9,1.2,9.1,5.1,11.9c2.6,1.8,5.5,3,8.6,3.6l0.3-1.7c-3.6,2.4-8.2,6.5-6.5,11.4
		c1.1,3,4,5.2,6.7,6.7c0.8,0.5,1.7,0.9,2.5,1.2l2.1-2.5c-3.6,1.1-12.4,4.9-8.7,9.9c2,2.7,5.4,3,8.6,2.5c3.7-0.7,7.2-2.1,10.4-4
		c2-1.1,4-2.3,5.8-3.7c0.6-0.4,1.3-1.3,0.3-1.7S145.8,271.8,145,272.4z"></path><path class="st1" d="M194.7,292.9L170.8,282c-1.1-1.8-8.3-17.2-8.3-17.2s-8.6,4.4-14.4-4.5s3.3-14.9,12.8-7.9
		c0,0-0.2-24.4-11.1-32.1c0,0,23.9,1.9,34-6.2c0,0,28.5,25.9,25.8,42.7c-2.3,14.7-10.2,18-10.2,18S202.7,293.2,194.7,292.9z"></path><path class="st3" d="M193.3,291.2l-20.9-9.5l-3-1.4l2.8,2.7c-0.2-0.3,0.1,0.2,0,0s-0.1-0.2-0.1-0.3l-0.4-0.8
		c-0.4-0.7-0.7-1.4-1.1-2.1c-0.9-1.9-1.9-3.9-2.8-5.9c-1.2-2.6-2.5-5.2-3.7-7.8c-0.5-0.8-1.1-1.6-1.8-2.2c-0.3-0.3-1.2-1.2-1.6-1
		c-2.9,1.4-6.3,1.4-9.3,0c-2.2-1.1-3.5-3.9-3.5-6.4c0-2.3,1.5-4.4,3.7-5.1c3.5-1.2,7.3,0.3,10.1,2.4c0.1,0.1,0.8,0.6,0.8,0.1
		c-0.1-3.2-0.3-6.3-0.8-9.5c-0.9-6-2.4-12-5.4-17.3c-1.9-3.4-4.5-6.3-7.7-8.5l2.6,3.3c8.5,0.7,17.6,0.2,25.7-2.2
		c3-0.8,5.9-2.2,8.4-4.1l-1.6-1l0.4,0.4l0.4,0.4c0.2,0.2,0.9,0.9,0.3,0.2c1.3,1.2,2.5,2.5,3.8,3.8c0.4,0.4,0.8,0.8,1.1,1.2
		c0.1,0.1,0.7,0.7,0.3,0.4c0.2,0.3,0.5,0.5,0.7,0.8c0.9,1,1.8,2,2.6,3c1.9,2.2,3.6,4.4,5.4,6.8c3.4,4.6,6.5,9.6,8.1,15.1
		c1.8,6.1,0.6,12.5-2.2,18.1c-1.5,3-3.9,6.6-7.2,8v0.2c0.5,3,0.8,6,0.7,9c-0.1,3.3-0.7,9.1-5.1,9c-0.7,0,0.7,1.6,0.8,1.7
		c0.5,0.6,1.6,1.9,2.4,1.9c6.7,0.1,5.7-10.7,5.3-15c-0.1-1-0.2-2-0.4-3c-0.1-0.4-0.2-0.2,0.3-0.4c2-0.8,3.8-3,5-4.7
		c2.7-4.1,4.5-8.8,5-13.6c0.3-3.6-0.3-7.3-1.8-10.6c-3.1-8-8.6-15.2-14.1-21.7c-3.7-4.4-7.7-8.5-11.9-12.4c-0.2-0.2-1.3-1.2-1.6-0.9
		c-4.4,3.5-10.4,4.9-15.9,5.6c-4.9,0.6-9.9,0.9-14.8,0.7c-1,0-2.1-0.1-3.1-0.1c-0.6,0,0.4,1.2,0.4,1.2c0.6,0.8,1.3,1.5,2.2,2.1
		l0.3,0.3l0.2,0.2c0.3,0.3,0.6,0.6,0.9,1c0.7,1,1.3,2,1.9,3.1c1.2,2.5,2.1,5.1,2.8,7.8c1.2,4.5,1.9,9.1,2.1,13.8
		c0.1,1,0.1,1.9,0.1,2.9l0.8,0.1c-3-2.2-6.9-4-10.7-3.2c-2.8,0.5-4.8,2.9-4.8,5.7c0,4.1,3.3,7.9,6.1,10.5c2.3,2.3,5.5,3.7,8.8,3.8
		c1.7,0,3.4-0.4,5-1.1l-3.5-3.1c1.3,2.8,2.6,5.5,3.9,8.3c0.9,2,1.9,3.9,2.8,5.9c0.6,1.4,1.4,2.8,2.3,4.1c1.9,2.3,4.8,3.2,7.4,4.4
		l11.3,5.1l7.5,3.4c0.9,0.4,0-0.9-0.1-1.1C195.3,292.5,194.4,291.7,193.3,291.2z"></path><path class="st1" d="M193.2,252.2c0,0,25.1-3.4,25.9-17.2s-18.3-14.8-28.9-0.4"></path><path class="st3" d="M194.9,254c2.6-0.4,5.3-1,7.8-1.8c4.8-1.4,9.7-3.4,13.5-6.8s5.8-8.5,4-13.5c-1.3-3-3.4-5.6-6-7.4
		c-2-1.4-4.4-2.2-6.8-2.2c-7.6-0.3-14.5,4.5-18.8,10.3c-0.4,0.6,3.3,3.8,3.4,3.7c3.8-5,9.2-9.1,15.5-10.1c2.4-0.5,5-0.3,7.3,0.6
		c0.5,0.2,1,0.4,1.5,0.7c0.2,0.1,0.4,0.3,0.6,0.4s0.1,0.1,0,0c-0.5-2.4-0.6-0.4-0.7-0.9c0,0.1,0.1,0.1,0.1,0.2s0.2,0.4,0.3,0.6
		c0.3,0.5,0.5,1.1,0.6,1.7c2.6,10.5-9,16.3-17.1,18.8c-2.8,0.9-5.6,1.5-8.4,1.9c0.4,0.7,0.9,1.4,1.4,2.1
		C193.3,252.8,194.3,254.1,194.9,254L194.9,254z"></path><path class="st3" d="M178.8,233.8c0.2,1,1.2,1.6,2.2,1.4c0.1,0,0.2,0,0.3-0.1c1.9-0.7,1-3-0.8-2.9c-0.8-0.1-1.6,0.5-1.6,1.4
		C178.8,233.7,178.8,233.8,178.8,233.8z"></path><path class="st3" d="M187.5,230.3c0.2,1,1.2,1.6,2.2,1.4c0.1,0,0.2,0,0.3-0.1c1.9-0.7,1-3-0.8-2.9c-0.8-0.1-1.6,0.6-1.6,1.4
		C187.5,230.1,187.5,230.2,187.5,230.3z"></path><path class="st3" d="M169.9,253.7c0.7,4.2,5.1,7.1,9.3,7c0.5,0,1-0.2,1.4-0.5c0.3-0.3,0.3-0.8,0.1-1.2c-0.7-1.1-1.8-1.7-3.1-1.6
		h-0.4c-0.3,0,0.4,0,0.4,0h-0.2l-0.3,0c-0.1,0-0.6-0.1-0.1,0s0,0-0.1,0l-0.3-0.1c-0.3-0.1,0.4,0.2,0.4,0.2l-0.2-0.1l-0.4-0.2
		l-0.3-0.2c-0.2-0.1,0.5,0.3,0.3,0.2l-0.1-0.1c-0.2-0.1-0.4-0.3-0.6-0.5s0.2,0.2,0.2,0.2l-0.1-0.1c-0.1-0.1-0.2-0.2-0.2-0.3
		c-0.2-0.2-0.3-0.4-0.5-0.6l0.3,0.4c-0.3-0.5-0.6-1-0.7-1.6l0.1,0.4c-0.1-0.2-0.1-0.4-0.1-0.6c-0.4-1.1-1.4-1.9-2.6-2
		c-0.6-0.1-1.1,0-1.6,0.2C170.1,252.8,169.8,253.3,169.9,253.7L169.9,253.7z"></path><path class="st1" d="M253.4,218.1c0,0-19.9-21.5-13.2-25.8s16.5,7.1,16.5,7.1s1.1-33.2,6.9-34.6s9.9,25.4,9.9,25.4
		s2.1-29.4,8.7-26.2s4.3,25.2,4.3,25.2s4.5-16.7,9.2-13.4s0.5,54.2,0.5,54.2c-13.3,4.6-27.9,4.4-41.1-0.6
		C254.2,225.8,253.7,222,253.4,218.1z"></path><path class="st3" d="M254,216.4c-0.4-0.4-0.7-0.8-1.1-1.2l-0.2-0.2l-0.6-0.7c-0.5-0.6-1.1-1.2-1.6-1.9c-2.5-2.9-4.8-6-6.9-9.2
		c0,0-0.4-0.7-0.2-0.2l-0.4-0.6c-0.2-0.4-0.5-0.8-0.7-1.2c-0.4-0.8-0.9-1.6-1.2-2.5c0.3,0.6-0.2-0.5-0.2-0.7c-0.1-0.3-0.2-0.7-0.3-1
		c0.2,0.6,0-0.4-0.1-0.5s0-0.6,0,0c0-0.2,0-0.4,0-0.6s0.1-0.5,0,0c0-0.1,0.1-0.3,0.1-0.4c0-0.1,0.2-0.4,0-0.1
		c0.1-0.1,0.1-0.2,0.2-0.3c0.4-0.5,1-0.8,1.6-1c1.8-0.5,3.8-0.3,5.5,0.6c2.1,1,4,2.3,5.6,3.9c0.6,0.6,1.2,1.2,1.8,1.8
		c0.3,0.3,1,1.2,0.3,0.3c0.8,0.9,2.7,1.8,2.8-0.2c0.3-8.5,0.9-17.4,2.7-25.7c0.4-2.2,1.1-4.2,2-6.2c-0.2,0.3,0.1-0.2,0.2-0.3
		s0.2-0.3,0.3-0.4s0.2-0.3,0.4-0.4s0.3-0.2,0.1-0.1l0.4-0.2c0.3-0.2-0.2,0,0,0c0.1,0,0.3,0,0.4,0c0.3,0-0.1,0-0.1,0
		c0.1,0,0.2,0,0.3,0.1c-0.3-0.3-0.2-0.1,0.1,0.1s-0.2-0.3,0,0s0.2,0.2,0.1,0.1c0.2,0.2,0.3,0.4,0.5,0.6l0.2,0.3
		c0.2,0.3-0.2-0.4-0.1-0.1s0.3,0.5,0.4,0.7c0.3,0.5,0.5,1.1,0.8,1.6c0,0.1,0.2,0.4,0,0c0,0.1,0.1,0.3,0.2,0.4l0.3,0.8
		c0.2,0.6,0.5,1.3,0.7,2c0.4,1.4,0.8,2.7,1.2,4.1c0.2,0.7,0.4,1.5,0.5,2.2c0.1,0.5,0.2,1.1,0.4,1.9c0.3,1.3,0.5,2.6,0.8,3.9
		s0.5,2.6,0.7,3.9c0.1,1.1,0.8,2.1,1.8,2.7c0.6,0.3,1.2,0.1,1.5-0.5c0.1-0.2,0.1-0.4,0.1-0.6c0.5-6.8,1.2-13.9,3.4-20.4
		c0.4-1.5,1.1-3,2.1-4.2c0-0.1,0.4-0.4,0.2-0.2s0.2-0.1,0.2-0.1l0.3-0.2c0.3-0.1,0.2,0,0.1,0h0.4c0.2,0-0.4-0.1,0.1,0
		c0.2,0,0.3,0.1,0.5,0.2c-0.2-0.2,0.2,0.2,0.3,0.3c0.3,0.3,0,0-0.1-0.1l0.2,0.3c0,0.1,0.1,0.1,0.2,0.2c0.2,0.3-0.2-0.4-0.1-0.1
		s0.3,0.5,0.4,0.7s0.3,0.7,0.1,0.2c0.1,0.3,0.2,0.5,0.3,0.8c0.1,0.4,0.4,1.2,0.4,1.5c0.3,1.1,0.4,2.3,0.6,3.5
		c0.1,1.2,0.2,2.6,0.3,3.7c0.1,3.6,0,7.3-0.4,10.9c-0.1,1.2,0.5,2.3,1.4,3c0.6,0.5,1.8,0.7,2-0.3c0.5-1.7,1-3.4,1.7-5.1
		c0.9-2.5,2-5.4,4-7.3c0.3-0.3,0.6-0.5,1-0.6c0.1,0,0.2,0,0.3,0c-0.4-0.1,0,0,0.1,0h0.1c-0.2-0.1-0.2-0.1,0,0c0-0.1,0.9,0.9-0.2-0.2
		c0.1,0.1,0.2,0.1-0.1-0.1s-0.1-0.1,0,0c-0.5-0.8-0.2-0.4-0.1-0.1c0.2,0.5-0.2-0.6,0-0.1c0.1,0.3,0.2,0.7,0.3,1s-0.1-0.5,0,0.1
		l0.1,0.8c0.2,1,0.3,2.1,0.4,3.1c0.4,5.8,0.5,11.6,0.2,17.4c-0.2,6.3-0.5,12.6-0.9,18.9c-0.2,3.4-0.5,6.8-0.7,10.2l0.6-1.1
		c-2.4,0.9-4.8,1.6-7.3,2c-6.3,1.2-12.7,1.5-19.1,0.7c-4.7-0.6-9.4-1.7-13.8-3.4l1.9,2.2c0-0.1,0-0.1,0-0.2c0-0.1-0.1-0.2-0.1-0.3
		c0,0.2,0.1,0.5,0,0.1c-0.2-0.8-0.3-1.5-0.5-2.3c-0.5-2.7-0.8-5.4-1-8.2c-0.1-1.2-0.9-2.3-2-2.8c-1.2-0.3-1.5,0.8-1.4,1.7
		c0.2,4,0.7,7.9,1.7,11.8c0.8,2.6,3.4,3,5.7,3.7c2.8,0.8,5.6,1.5,8.4,1.9c8.3,1.3,16.8,0.9,24.9-1.1c1.7-0.4,3.3-0.9,4.9-1.5
		c0.4-0.3,0.6-0.7,0.6-1.1c0.8-9.6,1.3-19.2,1.6-28.8c0.3-6.4,0.2-12.8-0.3-19.1c-0.1-2.1-0.5-4.1-1.1-6.1c-0.8-2.2-2.7-4.7-5.3-3.9
		c-3,0.9-4.6,5.1-5.6,7.7c-0.9,2.2-1.7,4.4-2.3,6.7l3.4,2.6c0.4-3.4,0.5-6.8,0.4-10.3c-0.1-5.2-0.4-11.6-3.8-15.9
		c-1.2-1.5-3.2-3.2-5.3-2.5c-1.6,0.5-2.5,2.1-3.2,3.5c-2,4.2-2.8,9.1-3.5,13.7c-0.5,3.4-0.9,6.8-1.2,10.3l3.5,1.6
		c-0.6-3.9-1.4-7.7-2.3-11.6c-0.7-2.9-1.5-5.7-2.5-8.5c-1-2.4-2.1-5.1-4-6.9c-1.5-1.4-3.5-1.9-5.1-0.5c-1.4,1.3-2.1,3.4-2.6,5.2
		c-1.7,5.7-2.4,11.7-2.9,17.6c-0.4,4.1-0.7,8.1-0.8,12.2l2.8-0.2c-2.3-2.8-5.1-5.1-8.2-7c-2.1-1.4-4.6-2.1-7.1-2.1
		c-1.9,0-3.6,0.9-4.7,2.4c-1.9,3.3,0.3,7.9,1.9,10.8c2.2,3.9,4.7,7.6,7.6,11.1c1.8,2.2,3.6,4.4,5.6,6.5c0.7,0.7,1.8,0.9,2.2-0.1
		S254.7,217.2,254,216.4z"></path><path class="st3" d="M260,201.1c1.8,0.4,3.6,0.6,5.4,1.1c0.8,0.2,1.6,0.5,2.3,0.8c0.2,0.1,0.5,0.2,0.2,0.1s0.1,0.1,0.2,0.2
		c2.3,2.2,4.3,4.7,6,7.4c0.7,0.8,1.5,1.4,2.4,1.9c0.4,0.3,0.8,0.5,1.3,0.7c0.1,0,0.5,0.2,0.3,0c-2.3-3.7-5.1-6.9-8.4-9.7
		c-2-1.6-4.2-2.9-6.5-3.9c-2.3-0.8-4.7-1-7.1-1.6c-0.3-0.1,0.1,0.4,0.1,0.3c0.3,0.4,0.7,0.7,1.1,1C258.1,200.2,259,200.8,260,201.1
		L260,201.1z"></path><path class="st0" d="M42.2,263.5c8.1,32.2,46.8,22.7,46.8,22.7l103.1,134.5c5.2,6.8,45.4-13.4,48.5-17.6s-5.5-12-9-14
		s-27.4,14.9-30.8,14.2s-9.8-14.2-9.8-14.2s18.1-9.8,20-12.9s-2.7-8.4-6.3-9.9s-19.8,9.5-24.9,8.9s-77.4-99.4-77.4-99.4
		s26.6-33.5-2-47S34.2,231.3,42.2,263.5z M97.3,244.4c4.7,11-2.6,19.2-8.4,23.8c-4.2,3.3-9.3,5.4-14.7,5.8
		c-17.5,1.3-20.2-16.2-18.7-25.1C57.2,238.7,90,227.2,97.3,244.4z"></path><path class="st0" d="M40,263c1.4,5.9,4.2,11.3,8.3,15.7c3.5,3.6,7.8,6.3,12.5,8c7.8,2.8,16.2,3.2,24.4,2.2c1.7-0.2,3.4-0.5,5.1-0.9
		l-3.2-1.4l6.8,8.9l17.3,22.5l22.9,29.9l23.9,31.2l19.9,25.9l11.3,14.7c1.1,1.5,2.2,2.8,4,3.5c2.3,0.7,4.7,0.9,7,0.4
		c2.8-0.5,5.6-1.2,8.4-2.1c6.6-2.2,13.1-4.9,19.3-8.1c4.6-2.3,9.4-4.6,13.4-7.8c6-4.8-1.6-12.6-5.6-15.9c-1.3-1.1-2.8-2.5-4.5-2.9
		c-1-0.2-2-0.2-2.9,0.1c-2.6,0.8-5.1,1.9-7.4,3.2c-5.9,3.1-11.4,6.7-17.3,9.6c-0.8,0.4-1.7,0.8-2.6,1.1l-0.5,0.2c-0.3,0.1-0.6,0,0,0
		c-0.6,0,0.5,0.1,0.1,0c0,0,0.6,0.2,0.2,0.1c0.9,0.3,0.1,0,0.1,0c-0.4,0,0.3,0.3,0,0c-0.1-0.1-0.2-0.2-0.3-0.2s-0.7-0.8-0.4-0.5
		c-0.5-0.6-1-1.2-1.4-1.9c-1-1.5-1.9-3-2.8-4.5s-1.9-3.5-2.7-5.2l-0.4,1.7c6-3.1,11.8-6.6,17.4-10.5c1.2-0.7,2.2-1.7,3-2.7
		c1.5-2.3,0.2-5.3-1.2-7.3c-1.7-2.5-4-4.5-6.8-5.7c-1.6-0.5-3.3-0.5-4.8,0.1c-4.3,1.3-8.2,3.6-12.3,5.5c-1.9,0.9-3.8,1.7-5.8,2.4
		c-0.8,0.3-1.6,0.5-2.4,0.6c-0.1,0,0.3,0-0.1,0c-0.1,0-0.3,0-0.4,0c0.3,0,0.5,0.1,0.8,0.2c-0.4-0.2,0.5,0.5,0.2,0.1
		c0-0.1-0.2-0.1-0.2-0.2c-0.4-0.3,0.5,0.4,0.2,0.2c-0.4-0.4-0.9-0.8-1.3-1.2c-1.3-1.3-2.6-2.7-3.8-4.2l-0.5-0.6
		c-0.2-0.2-0.2-0.2,0,0l-0.3-0.4l-1.2-1.5c-0.9-1.1-1.8-2.2-2.7-3.3c-2.1-2.5-4.1-5.1-6.1-7.6c-4.8-6.1-9.6-12.3-14.3-18.5
		c-5.1-6.7-10.2-13.4-15.2-20.1c-4.7-6.2-9.3-12.5-14-18.8c-3.6-4.8-7.2-9.7-10.7-14.5c-1.8-2.4-3.4-4.9-5.3-7.2
		c-0.1-0.1-0.2-0.2-0.2-0.3l0.2,1.9c3.3-4.3,6.1-9.1,8.2-14.1c3.6-8.6,5.1-18.6-0.4-26.7c-3.4-5-8.8-8.3-14.4-10.5
		c-5.6-2.2-11.5-3.5-17.5-3.7c-10.6-0.5-22,2.2-30.4,8.9c-8.3,6.6-12.5,17-11.1,27.5C39.3,260,39.6,261.5,40,263
		c0.3,1.2,1.3,2.1,2.5,2.4c0.9,0.2,2.3-0.2,2-1.4c-1.4-5.1-1.4-10.4-0.2-15.4c1.2-4.5,3.6-8.6,6.9-11.9c6.9-6.9,17-10.3,26.5-10.7
		c5.4-0.2,10.8,0.4,16,1.9c5,1.5,10.1,3.7,13.6,7.4c2.7,3.1,4.2,7,4.3,11.1c0,4.2-0.8,8.4-2.3,12.3c-2.1,5.6-5.2,10.4-8.5,15.3
		c-0.1,0.1-0.1,0.2-0.2,0.2c-0.3,0.6-0.2,1.4,0.2,1.9c4.4,5.9,8.7,11.9,13.1,17.8c9.3,12.6,18.7,25.1,28.1,37.6
		c8.8,11.5,17.6,23.1,26.8,34.3c2.5,3.2,5.2,6.3,8.1,9.1c1.1,1.2,2.6,1.9,4.2,2.1c1.7-0.1,3.5-0.5,5.1-1.2c2.2-0.8,4.3-1.8,6.4-2.8
		c3.6-1.7,7.3-4,11.3-4.9l0.5-0.1c0.5-0.1-0.4,0,0.1,0h0.4c0.4,0-0.5-0.1-0.1,0s-0.7-0.5,0,0s-0.2-0.2,0.4,0.2
		c0.5,0.3,1.1,0.7,1.5,1.2c1.2,1.1,3.4,3.5,2.3,5.3c-0.2,0.4-0.5,0.7-0.8,0.9c-0.6,0.5-1.1,1-1.8,1.4c-1.6,1.2-3.4,2.3-5.1,3.4
		c-3.4,2.1-6.8,4.1-10.3,6l-1.8,1c-0.5,0.4-0.7,1.1-0.4,1.7c1,2,2,4,3.1,6c1.6,2.9,3.3,5.9,5.7,8.2c1.9,1.8,4,2.5,6.4,1.5
		c2.5-1.1,5-2.3,7.4-3.7c5.5-3.1,11.3-6.8,16.9-9.2c0.9-0.4,1.9-0.7,2.9-1c0.1,0,0.5-0.1,0.1,0s0.1,0,0.1,0s0.6,0.1-0.1,0
		c0.2,0.1-0.5-0.2-0.6-0.3c0.3,0.3,0.7,0.5,1,0.7c1.4,1,2.6,2.1,3.8,3.3c1.2,1.2,2.2,2.6,2.9,4.1c0.6,1,0.5,2.2-0.1,3.2
		c-0.1,0.1-0.1,0.1-0.2,0.2c0.1-0.2,0.2-0.2,0,0s-0.6,0.5-0.9,0.7c-1.8,1.3-3.7,2.5-5.6,3.5c-5.7,3.2-11.5,6.1-17.6,8.5
		c-3.1,1.3-6.2,2.4-9.3,3.4c-1.4,0.4-2.9,0.9-4.3,1.2c-0.6,0.1-1.2,0.3-1.8,0.4l-0.9,0.2l-0.6,0.1c-1,0.1-2.1,0.1-3.1,0
		c0.9,0.1-1-0.3-0.5-0.1s-0.1,0-0.2-0.1c-0.3-0.2,0.5,0.3,0.3,0.1l-0.3-0.2c0,0,0.6,0.5,0.3,0.2c-0.1-0.1-0.3-0.3,0,0
		c0.5,0.5,0.2,0.2,0.1,0.2l-0.1-0.1c-0.1-0.1-0.2-0.3-0.3-0.4l-9.2-12.1l-18.5-24.1l-23.1-30.2l-23.3-30.4l-18.6-24.3l-9.6-12.5
		l-0.4-0.5c-0.7-1-1.9-1.6-3.2-1.4c-1.2,0.3-2.5,0.5-3.7,0.7c-0.3,0-0.6,0.1-0.9,0.1l-0.5,0.1h-0.2c-0.7,0.1-1.5,0.1-2.2,0.2
		c-1.7,0.1-3.4,0.2-5.1,0.2c-1,0-1.9,0-2.9-0.1c-0.5,0-1-0.1-1.4-0.1l-0.7-0.1h-0.5c-2.1-0.3-4.1-0.7-6.1-1.2
		c-0.9-0.2-1.8-0.5-2.7-0.9c-1-0.4-2-0.9-3-1.3l-0.8-0.4c0.4,0.2-0.1,0-0.2-0.1c-0.5-0.3-1.1-0.6-1.6-1s-0.8-0.6-1.2-0.9
		c-0.2-0.2-0.4-0.3-0.7-0.5c0.4,0.3-0.3-0.3-0.4-0.4c-4.2-3.9-7.2-8.9-8.4-14.5c-0.3-1.2-1.3-2.1-2.5-2.4
		C41.1,261.4,39.7,261.8,40,263z"></path><path class="st0" d="M95.2,244.4c2.2,5.2,1.5,11.1-1.8,15.7c-3,4.3-7.2,7.8-12,9.9c-4.5,2-10.5,3-15,1.3c-0.5-0.2-1-0.4-1.4-0.6
		c-0.7-0.4,0.2,0.1-0.2-0.1l-0.5-0.3c-0.7-0.4-1.4-0.9-2-1.6c-1.1-1.2-2-2.5-2.7-4c-2-4.6-2.6-9.6-1.9-14.5c0.1-1,0.5-2,1.2-2.8
		c1.9-2.4,4.3-4.3,7-5.6c3.3-1.7,6.8-2.9,10.4-3.6c3.9-0.9,8-0.8,11.9,0.1c1.6,0.4,3,1.1,4.2,2.2c-0.5-0.4,0.1,0.1,0.2,0.1
		s0.4,0.4,0.6,0.6l0.4,0.4c-0.3-0.3,0.3,0.3,0.3,0.4c0.6,0.7,1,1.6,1.4,2.4c0.5,1.2,1.7,1.9,2.9,2c0.7,0.1,1.4-0.5,1.4-1.2
		c0-0.3,0-0.5-0.1-0.7c-3.6-8.4-12.8-11.4-21.4-10.7c-7.8,0.7-16.5,3.6-22,9.4c-2.2,2.3-2.9,5-3,8.1c-0.2,4.1,0.4,8.2,1.8,12
		c1.5,4.2,4.4,7.7,8.2,10.1c5,2.9,11,3.3,16.6,2c11.1-2.6,23.2-13.4,21.4-25.8c-0.3-1.8-0.8-3.5-1.5-5.1c-0.5-1.2-1.7-1.9-2.9-2
		c-0.7-0.1-1.4,0.5-1.4,1.2C95.1,243.9,95.1,244.1,95.2,244.4z"></path><path class="st1" d="M193,387.5c0,0,10.6-16.3,3-18.5s-18.7,11.9-18.7,11.9l-20.8-19c0,0-22.6,14.1-21.6,29.3
		c0,0,22.2,28,38.5,30.4s12.7-6,12.7-6s15.8-2.5,7.7-12.3c0,0,14.1-1.4,7.5-16.4"></path><path class="st3" d="M195.2,388.6c1.2-1.9,2.3-3.8,3.2-5.8c1.5-3.1,3.2-6.9,2.7-10.5c-0.6-4.3-4.9-6-8.9-5.4
		c-4.2,0.6-7.9,3.5-11,6.2c-2.3,2-4.3,4.2-6.2,6.6l3.9-0.2l-18.2-16.6l-2.6-2.4c-1-0.8-2.4-0.9-3.5-0.2c-5.5,3.5-10.5,7.8-14.7,12.7
		c-3.1,3.6-5.9,7.8-7,12.5c-0.3,1.2-0.4,2.3-0.5,3.5c-0.2,1,0,2.1,0.4,3c0.3,0.5,0.8,0.9,1.1,1.4c5.1,6.1,10.6,11.8,16.5,17.1
		c3.8,3.4,7.9,6.4,12.3,9c4.2,2.5,8.8,3.9,13.7,4.3c3.8,0.3,9.6,0.3,11.8-3.5c0.9-1.6,0.9-3.5,0.2-5.2l-1.5,2.4
		c2.9-0.4,5.7-1.5,8.1-3.1c1.7-1,2.9-2.7,3.4-4.7c0.5-2.8-1-5.3-2.6-7.4l-1.2,2.8c5.2-0.5,10.3-4.3,10.8-9.8c0.2-3.1-0.4-6.2-1.8-9
		c-1-2.2-5.8-1.9-4.7,0.8c1.1,2.5,2,5.5,1.4,8c-0.3,1.6-1.1,3-2.4,4c-0.3,0.2-0.6,0.5-0.9,0.7c0.5-0.3-0.1,0.1-0.2,0.1l-0.6,0.3
		c-0.3,0.1-0.6,0.3-0.9,0.4s-1.2,0.4-0.4,0.2c-0.7,0.2-1.3,0.3-2,0.4c-1,0.1-1.7,0.9-1.6,1.8c0,0.4,0.2,0.7,0.4,1
		c0.7,0.8,1.3,1.8,1.7,2.9c0.2,0.6,0.2,1.2,0.1,1.9c0,0.1-0.3,0.8-0.1,0.3c-0.1,0.2-0.2,0.3-0.2,0.5c-0.2,0.3-0.4,0.6-0.6,0.8
		c0.3-0.3-0.2,0.2-0.3,0.2l-0.4,0.3l-0.4,0.3l-0.3,0.2c0.2-0.1,0.2-0.1,0.1,0c-0.7,0.4-1.4,0.7-2.2,1c-0.4,0.1-0.7,0.3-1.1,0.4
		l-0.5,0.1c0.6-0.2,0,0-0.1,0c-0.7,0.2-1.4,0.4-2.1,0.5c-1,0.1-1.7,0.9-1.6,1.9c0,0.2,0,0.3,0.1,0.5c0.1,0.1,0.1,0.3,0.1,0.4
		c-0.3-0.5-0.1-0.3,0,0s0,0.4,0.1,0.6s0,0.2,0,0.3c0,0.4,0.1-0.4,0-0.1s-0.1,0.5-0.2,0.8c-0.1,0.5,0.1-0.2,0,0
		c-0.1,0.1-0.1,0.2-0.2,0.3c-0.1,0.1-0.2,0.2-0.3,0.3c0.4-0.5,0,0-0.1,0.1l-0.4,0.3c0.5-0.3-0.1,0-0.2,0.1l-0.6,0.2l-0.2,0.1
		l-0.3,0.1c-1.2,0.3-2.4,0.4-3.7,0.3c-1.7,0-3.4-0.2-5-0.5c-0.6-0.1-1.2-0.3-1.7-0.5l-0.8-0.3l-0.3-0.1l-0.4-0.2
		c-5.4-2.2-10.1-5.7-14.6-9.5c-4.3-3.7-8.3-7.7-12.1-11.9c-2-2.2-4.1-4.5-5.9-6.9l0.4,1c-0.4-6,3.1-11.4,6.8-15.8
		c3.4-3.9,7.3-7.4,11.5-10.3c0.9-0.6,1.8-1.3,2.7-1.9l-3.5-0.2l18.2,16.6l2.6,2.4c1.1,1,2.8,0.9,3.8-0.2c1.2-1.6,2.6-3,4-4.4
		c2.5-2.5,5.3-5,8.6-6.3c0.6-0.3,1.3-0.4,2-0.5c0.7-0.1-0.4,0,0.3,0h0.4c0.7,0-0.5-0.1,0.2,0c0.2,0,0.4,0.1,0.6,0.2
		c-0.7-0.2,0,0,0,0c0.2-0.1-0.4-0.2,0,0c0.1,0.1,0.2,0.1,0.3,0.2c-0.4-0.4,0,0,0,0.1c0.1,0.3,0,0,0-0.1l0.2,0.5
		c0,0.1,0.1,0.2,0.1,0.3c-0.1-0.5,0,0.3,0,0.4c0.3,2.5-1,5.8-2.1,8.2c-0.9,2-2,4-3.2,5.9C189.3,388.6,193.9,390.6,195.2,388.6
		L195.2,388.6z"></path><path class="st3" d="M123.9,335.2l32.6,26.6c0,0-16.9,15.8-21.6,29.3"></path><path class="st3" d="M124.8,337.1l28.5,23.3l4.1,3.3l-2.3-4c-6.5,6.1-12.3,12.9-17.1,20.4c-1.8,2.8-3.4,5.9-4.5,9
		c-0.3,0.7,1,2.2,1.4,2.8c0.2,0.2,1.3,1.7,1.5,1.1c2.1-5.8,5.7-11,9.4-15.9c3.1-3.9,6.4-7.7,9.9-11.2c0.7-0.7,1.4-1.4,2.1-2.1
		c0.3-0.3-0.4-1.6-0.6-1.8c-0.4-0.8-1-1.6-1.8-2.2L127,336.6l-4.1-3.3c-0.8-0.7-0.2,0.9-0.1,1.1
		C123.3,335.4,123.9,336.4,124.8,337.1L124.8,337.1z"></path><path class="st3" d="M204.3,162.2c4.4-5.5,9.6-10.3,15.5-14.1c5.9-4,12.2-7.4,18.8-10.1c12.5-5.1,26.4-7.2,39.5-3
		c6.1,1.9,11.6,5.2,16.1,9.7c3.8,3.9,8.3,10.1,6.3,15.9c-0.3,0.9-0.8,1.8-1.5,2.5c0,0-0.6,0.5-0.3,0.2c-0.2,0.2-0.2,0,0.1,0
		c-0.6,0-0.1,0,0,0c-0.1-0.1-0.4-0.1-0.5-0.2c-1.6-1.1-0.9-4-0.2-5.4c2.1-4.6,8.3-5.7,12.8-5c15.1,2.3,20.8,18.8,25,31.3
		c0.7,2,5.6,1.2,4.8-1.1C336,169.4,330.1,154,315,150c-6.5-1.7-14.3-1.2-19.4,3.6c-2.1,1.9-3.3,4.7-3.3,7.6c0.2,3,2.7,5.4,5.7,5.4
		c3.2,0.2,5.7-1.8,7-4.7c1.2-2.8,1.2-6,0.1-8.8c-2.5-7.1-8.4-12.8-14.6-16.6c-13.5-8.2-30.2-8.8-45.1-4.6c-8,2.4-15.7,5.7-22.9,10
		c-6.9,3.8-13.2,8.6-18.7,14.2c-1.4,1.4-2.6,2.9-3.8,4.5C198.3,162.8,203.1,163.8,204.3,162.2L204.3,162.2z"></path><path class="st3" d="M188.9,165.2c-0.8,0-1.5,0.1-2.3,0.3c-0.8,0.2-1.5,0.6-2.1,1c-1.3,0.9-2.3,2.1-2.9,3.6
		c-0.2,0.6-0.2,1.2,0.1,1.7c0.2,0.6,0.6,1.2,1.1,1.6c0.4,0.3,1,0.5,1.5,0.4c0.5-0.1,0.9-0.5,1.1-0.9c0.1-0.3,0.2-0.5,0.3-0.7
		l-0.2,0.4c0.4-0.6,0.8-1.2,1.4-1.6l-0.4,0.3c0.6-0.5,1.3-0.9,2-1.2l-0.5,0.2c0.6-0.2,1.3-0.3,1.9-0.4h-0.4c0.5,0.1,1-0.1,1.3-0.5
		c0.3-0.4,0.4-1,0.4-1.6c-0.1-0.7-0.4-1.3-0.8-1.8C190.1,165.6,189.6,165.3,188.9,165.2L188.9,165.2z"></path></g></svg>