<svg width="154" height="121" viewBox="0 0 154 121" fill="none" xmlns="http://www.w3.org/2000/svg">
<path d="M6.72014 28.6397C8.88014 29.1197 11.1201 29.4397 13.3601 29.8397L28.1601 32.4797L61.6001 38.4797C64.3201 38.9597 67.0401 39.3597 69.6801 39.9197C70.4001 40.1597 71.1201 39.7597 71.3601 39.0397C71.4401 38.8797 71.4401 38.7997 71.4401 38.6397C71.2801 37.5997 70.4801 36.7997 69.4401 36.6397C67.2801 36.1597 65.0401 35.8397 62.8001 35.4397L48.0001 32.7997L14.5601 26.7997C11.8401 26.3197 9.12013 25.9197 6.40013 25.2797C5.68013 25.0397 4.96014 25.4397 4.72014 26.1597C4.64014 26.3197 4.64014 26.3997 4.64014 26.5597C4.88014 27.6797 5.68014 28.4797 6.72014 28.6397Z" fill="#000005"/>
<path d="M2.3998 21.1201C2.3998 21.1201 1.3598 90.1601 4.4798 94.2401C7.5998 98.3201 69.3598 119.2 72.2398 118.64C75.1198 118.08 69.7598 33.3601 69.7598 33.3601L2.3998 21.1201Z" fill="#68BA7F"/>
<path d="M0.640118 20.8803C0.560118 26.2403 0.480114 31.6003 0.480114 36.9603C0.400114 47.6003 0.480118 58.3203 0.640118 68.9603C0.720118 73.7603 0.880115 78.5603 1.20012 83.2803C1.28012 86.4803 1.60011 89.6803 2.16011 92.8803C2.32011 93.8403 2.72011 94.8003 3.28011 95.6003C4.08011 96.4003 5.04012 97.0403 6.00012 97.5203C9.12012 99.1203 12.3201 100.56 15.6001 101.76C25.6001 105.76 35.7601 109.36 45.9201 112.8C53.9201 115.52 61.9201 118.4 70.1601 120.32C70.9601 120.56 71.7601 120.64 72.5601 120.64C73.5201 120.4 74.2401 119.6 74.3201 118.64C74.7201 116.32 74.8801 114 74.8001 111.68C74.9601 102.8 74.5601 93.8403 74.1601 84.9603C73.7601 74.5603 73.2001 64.0803 72.6401 53.6803C72.3201 47.2803 71.9201 40.9603 71.5201 34.6403C71.5201 34.3203 71.5201 34.0003 71.4401 33.7603C71.4401 32.7203 70.7201 31.7603 69.6801 31.6003L63.0401 30.4003L46.9601 27.5203L27.4401 24.0003L10.6401 20.9603C7.92012 20.4803 5.20012 19.7603 2.40012 19.4403H2.24012C-0.159882 18.9603 -0.079887 22.9603 2.16011 23.3603L8.88011 24.5603L24.9601 27.4403L44.4801 30.9603L61.2801 34.0003L66.8801 35.0403C67.7601 35.2003 68.6401 35.4403 69.5201 35.5203H69.6001L67.7601 33.3603C68.0801 37.8403 68.3201 42.2403 68.5601 46.7203C69.1201 56.4003 69.6001 66.1603 70.0801 75.8403C70.5601 85.6003 70.9601 95.3603 71.0401 105.12C71.0401 108.32 71.1201 111.6 70.9601 114.8C70.9601 115.36 70.8801 115.84 70.8801 116.4L70.8001 117.04C70.7201 117.44 70.9601 116.48 70.8001 117.12C70.7201 117.44 70.4001 118.08 70.8001 117.44C70.6401 117.76 71.1201 117.12 70.9601 117.28C71.0401 117.2 72.0801 116.8 72.0801 116.88C71.3601 116.8 70.6401 116.72 69.9201 116.48C69.6801 116.4 69.4401 116.4 69.1201 116.32L68.6401 116.24L68.4001 116.16C67.6801 116 66.8801 115.76 66.1601 115.52C62.0001 114.32 57.9201 113.04 53.8401 111.68C43.5201 108.32 33.2801 104.72 23.1201 100.88C19.0401 99.3603 15.0401 97.7603 11.0401 96.0003C9.68012 95.4403 8.32012 94.8003 7.04012 94.0803C6.88012 94.0003 6.40012 93.6803 7.04012 94.0803C6.96012 94.0003 6.80012 94.0003 6.72012 93.9203C6.64012 93.8403 6.32011 93.6803 6.16011 93.5203C6.00011 93.3603 5.84011 93.2803 5.76011 93.2003C5.36011 92.9603 6.08012 93.6003 5.84012 93.2803C5.60012 92.9603 6.16012 93.9203 5.92012 93.3603C6.00012 93.8403 5.68012 92.8003 5.92012 93.3603C5.84012 92.8803 5.68012 92.4803 5.60012 92.0803C5.52012 91.4403 5.44011 90.8803 5.36011 90.3203L5.20012 89.3603C5.20012 89.2003 5.20012 88.9603 5.12012 88.8003C5.04012 88.6403 5.12012 88.6403 5.12012 88.4803C5.12012 88.8803 5.04012 88.0003 5.12012 88.4803C4.72012 84.4003 4.56012 80.2403 4.40012 76.0803C4.08012 65.5203 4.00012 54.8803 4.00012 44.3203C4.00012 37.1203 4.08011 29.9203 4.16011 22.7203C4.16011 22.3203 4.16011 22.0003 4.16011 21.6003C4.16011 20.5603 3.44012 19.6003 2.40012 19.4403C1.44012 19.3603 0.640114 20.0003 0.480114 20.9603C0.640114 20.7203 0.640118 20.8003 0.640118 20.8803Z" fill="#68BA7F"/>
<path d="M147.04 16.96L69.8398 33.44L72.3198 118.72C72.3198 118.72 152.56 96.9599 152.32 90.6399C152.08 84.3199 147.04 16.96 147.04 16.96Z" fill="#68BA7F"/>
<path d="M147.84 15.5197L140.16 17.1197L121.76 21.0397L99.4401 25.7597L80.1601 29.8397C77.0401 30.4797 73.9201 31.1197 70.7201 31.8397H70.5601C69.6001 32.0797 68.0801 32.9597 68.0801 34.0797L68.3201 42.5597L68.8801 62.9597L69.6001 87.5997L70.2401 108.8L70.4001 115.84C70.4001 116.96 70.3201 118.08 70.4801 119.2C70.4801 119.28 70.4801 119.28 70.4801 119.36C70.4801 120.08 71.5201 119.84 71.8401 119.76C74.0801 119.12 76.3201 118.56 78.5601 117.92C84.0801 116.4 89.6001 114.8 95.0401 113.2C102 111.12 108.96 109.04 115.92 106.88C122.56 104.8 129.2 102.56 135.76 100.16C140.4 98.4797 145.2 96.7197 149.52 94.1597C150.96 93.2797 152.72 92.3197 153.52 90.7997C154.08 89.7597 153.84 88.5597 153.76 87.4397C153.44 82.2397 153.12 77.1197 152.72 71.9997C152.16 64.5597 151.68 57.0397 151.12 49.5997C150.56 42.5597 150.08 35.4397 149.52 28.3997C149.2 24.4797 148.96 20.4797 148.64 16.5597V15.9997C148.56 14.5597 145.04 16.3997 145.2 17.7597C145.44 20.4797 145.6 23.1997 145.84 25.9197C146.32 32.3997 146.8 38.7997 147.28 45.2797C147.84 52.7997 148.4 60.3197 148.96 67.8397C149.36 73.8397 149.84 79.8397 150.24 85.8397C150.32 87.4397 150.48 89.1197 150.56 90.7197V91.3597C150.56 91.3597 150.64 91.0397 150.56 91.2797C150.48 91.5197 150.72 90.8797 150.56 91.1997C150.4 91.5197 150.8 90.7997 150.64 91.1197C150.48 91.4397 150.88 90.9597 150.72 91.0397C150.64 91.1197 150.56 91.1997 150.48 91.2797C150.8 91.0397 150.08 91.6797 150.48 91.2797C150.16 91.5197 149.92 91.6797 149.6 91.8397L149.44 91.9997C149.12 92.2397 149.6 91.9197 149.6 91.9197C149.6 91.9197 149.2 92.1597 149.04 92.2397C148.16 92.7197 147.36 93.1197 146.48 93.5197C146 93.7597 145.52 93.9997 144.96 94.2397L144.16 94.5597L143.92 94.6397L143.6 94.7997C142.32 95.3597 141.12 95.8397 139.84 96.3197C133.68 98.7197 127.36 100.8 121.12 102.88C114.24 105.12 107.2 107.28 100.24 109.36C94.3201 111.12 88.4001 112.8 82.5601 114.48C79.4401 115.36 76.3201 116.24 73.1201 117.12L72.7201 117.2L74.0801 117.6L73.8401 109.12L73.2801 88.7197L72.5601 64.0797L71.9201 42.8797L71.7601 35.8397C71.7601 34.7197 71.7601 33.5997 71.6801 32.4797C71.6801 32.3997 71.6801 32.3997 71.6801 32.3197L69.2001 34.5597L76.8801 32.9597L95.2001 29.1997L117.52 24.4797L136.8 20.3997C139.92 19.7597 143.04 19.1197 146.24 18.3997H146.4C147.36 18.2397 148.24 17.6797 148.72 16.7997C148.96 15.9997 148.64 15.3597 147.84 15.5197Z" fill="#68BA7F"/>
<path d="M2.3999 21.1198C2.3999 21.1198 72.3199 0.639755 73.9999 1.19976C75.6799 1.75976 146.96 17.0398 146.96 17.0398L69.7599 33.5198L2.3999 21.1198Z" fill="#68BA7F"/>
<path d="M4.16004 21.3598L11.04 19.3598C16.56 17.7598 22.16 16.1598 27.76 14.5598C34.56 12.5598 41.28 10.6398 48.08 8.71982C54.08 7.03982 60.08 5.35982 66.08 3.75982C68.16 3.19982 70.16 2.63982 72.24 2.15982C72.96 1.99982 73.6 1.83983 74.32 1.67983L75.04 1.51982L75.28 1.43983C75.52 1.35983 74.96 1.43983 75.2 1.43983C75.44 1.43983 74.8 1.43983 74.72 1.43983C74.08 1.43983 73.36 1.35983 72.72 1.27983L73.04 1.35982L74.32 1.67983L79.28 2.79982C84.88 3.99982 90.48 5.27983 96.08 6.47983L116.72 10.9598L135.2 14.9598L145.2 17.1198L145.68 17.1998L145.36 16.7198L137.68 18.3198L119.28 22.2398L96.96 26.9598L77.68 31.0398C74.56 31.6798 71.36 32.3198 68.24 33.0398H68.08L70.8 33.1198L64.08 31.9198L48 28.9598L28.48 25.4398L11.68 22.3998C8.96004 21.9198 6.24004 21.3598 3.44004 20.8798H3.28004C2.56004 20.7198 1.20004 20.4798 0.560037 20.7998C-0.0799633 21.1198 0.880038 21.2798 1.28004 21.2798L9.04004 22.7198L27.2 25.9998L48.16 29.8398L64.32 32.7998C66.64 33.1998 69.44 34.0798 71.76 33.5998C74.88 32.9598 78 32.2398 81.12 31.5998L99.2 27.7598L120.16 23.2798L138.4 19.3598L148.16 17.2798L148.64 17.1998C149.2 17.0398 148.64 16.7998 148.32 16.7198L141.12 15.1998L123.84 11.5198L102.8 6.95982C96.72 5.67982 90.64 4.31983 84.56 3.03983C81.52 2.39983 78.48 1.75983 75.44 1.03983C72.4 0.319826 69.28 1.35982 66.32 2.15982C60.88 3.59982 55.44 5.11983 50 6.63983C43.2 8.55983 36.32 10.5598 29.44 12.4798C23.28 14.2398 17.12 15.9998 10.96 17.8398L0.880038 20.7998L0.400039 20.9598C-0.399961 21.1998 0.88004 21.4398 1.12004 21.4398C2.32004 21.5198 3.20004 21.5198 4.16004 21.3598Z" fill="#68BA7F"/>
<path d="M81.6802 58.0797C84.0802 57.1997 86.3202 55.9997 88.3202 54.3997C89.8402 53.1997 91.6802 51.5196 91.9202 49.4396C92.1602 46.8796 89.3602 46.7997 87.6002 47.2797C85.2802 47.9197 83.4402 49.1997 82.8802 51.5997C82.0802 54.8797 82.4002 60.2397 86.8002 60.3997C89.3602 60.3197 91.9202 59.4396 94.0002 57.9196C95.6802 56.7196 97.0402 55.1997 97.9202 53.2797C98.9602 50.9597 99.4402 48.4796 99.2802 45.9196C99.2802 44.3996 99.3602 41.1996 97.3602 40.7196C96.0802 40.3996 94.4802 41.1997 93.4402 41.7597C92.4802 42.2397 91.7602 43.2797 91.6802 44.3997C91.5202 46.7197 91.9202 49.1197 92.8002 51.2797C93.6002 53.3597 95.1202 55.0396 97.2002 55.8396C99.3602 56.6396 101.68 56.2397 103.68 55.2797C105.68 54.3997 107.2 52.7196 108 50.7196C108.64 49.0396 109.04 46.8797 108.24 45.1997C107.84 44.2397 106.88 43.6797 105.84 43.7597C104.64 43.9197 102.64 44.5597 102.08 45.7597C101.28 47.7597 102.16 50.2397 103.52 51.7597C107.28 55.9997 113.92 54.1596 118.08 51.5196C118.72 51.1196 118.48 50.7997 117.84 50.8797C116.88 51.0397 116 51.3596 115.2 51.9196C113.04 53.2796 109.92 52.6396 108.08 51.1196C107.12 50.3196 106.32 49.1997 105.92 47.9997C105.68 47.3597 105.6 46.7997 105.6 46.1597C105.6 45.5997 105.68 45.0397 105.84 44.4797L103.6 45.4396C103.12 45.5196 103.76 45.6796 103.92 45.8396C104.08 45.9996 104.24 46.2397 104.4 46.3997C104.64 46.8797 104.8 47.3596 104.88 47.8396C105.04 50.1596 104.4 52.4796 102.88 54.2396C102.72 54.3996 102.48 54.5596 102.32 54.7196L102.24 54.7997C103.04 54.5597 103.2 54.4797 102.72 54.5597C102.08 54.4797 101.52 54.3996 100.88 54.2396C98.4002 53.2796 96.8802 51.0397 96.1602 48.5597C95.8402 47.3597 95.6002 46.1597 95.5202 44.9597C95.4402 44.3197 95.4402 43.5997 95.4402 42.9597C95.5202 42.5597 95.6002 42.2397 95.7602 41.8397C96.4802 41.0397 95.9202 41.2797 94.0802 42.3997C94.2402 42.4797 94.4002 42.5596 94.5602 42.7196C95.2802 43.4396 95.3602 44.6396 95.4402 45.5196C95.6002 47.0396 95.6002 48.6396 95.4402 50.2396C95.2002 52.8796 94.0802 55.4397 92.2402 57.3597C91.7602 57.9197 91.2002 58.3196 90.4802 58.6396C89.2002 58.8796 88.0002 58.3197 87.2802 57.2797C86.0802 55.5197 86.0802 53.1196 86.4802 51.1196C86.5602 50.4796 86.7202 49.9197 86.9602 49.3597C87.0402 49.1197 87.2802 48.8797 87.4402 48.5597C88.0002 47.9997 87.6802 48.0796 86.5602 48.7196C86.7202 48.7196 86.8802 48.7197 87.0402 48.7997C88.5602 49.2797 88.4002 51.0397 87.7602 52.1597C86.4802 54.4797 83.8402 56.3997 81.3602 57.2797C81.1202 57.3597 79.5202 57.9997 79.6802 58.4797C79.8402 58.9597 81.5202 58.3196 81.7602 58.2396L81.6802 58.0797Z" fill="white"/>
<path d="M0.640106 21.84L8.1601 23.28L26.0801 26.64L47.1201 30.56L64.0001 33.76L68.7201 34.64C69.4401 34.8 70.1601 34.88 70.8801 34.8C73.6801 34.24 76.4001 33.52 79.2001 32.88L96.7201 28.88L117.6 24.16L135.92 20L145.76 17.76L146.24 17.68C146.96 17.52 148.32 17.28 148.72 16.56C149.12 15.84 148.24 16.08 147.84 16.24L140.32 17.92L122.24 22L100.56 26.96L81.6801 31.28L75.4401 32.72C74.4801 32.96 73.4401 33.12 72.4801 33.44H72.3201L73.2801 33.36L66.4001 32.08L49.9201 28.96L29.9201 25.2L12.6401 21.92C9.84011 21.36 7.04011 20.8 4.24011 20.32H4.0801C3.2801 20.24 2.4001 20.48 1.6801 20.8C1.6801 20.88 0.160106 21.68 0.640106 21.84Z" fill="white"/>
<path d="M73.4401 119.679L73.3601 111.279L73.2001 91.1194L73.0401 66.7194L72.8801 45.5994C72.8801 42.2394 72.9601 38.7194 72.8001 35.3594V35.1994C72.7201 34.2394 72.2401 33.3594 71.5201 32.6394C70.8801 32.1594 70.5601 32.3994 70.5601 33.1194L70.6401 41.5194L70.8001 61.7594L70.9601 86.1594L71.1201 107.279C71.1201 110.639 71.0401 114.079 71.2001 117.519V117.679C71.2801 118.639 71.7601 119.519 72.4801 120.239C73.0401 120.639 73.4401 120.399 73.4401 119.679Z" fill="white"/>
<path d="M28.8802 69.6803L28.2402 25.7603L102.24 7.28027L122.8 11.6803L48.1602 29.4403L47.1202 73.6003L28.8802 69.6803Z" fill="#000005"/>
<path d="M30.7199 69.9996L30.4799 55.1196L30.1599 31.5996L30.0799 26.1596L29.2799 27.3596L36.6399 25.5196L54.2399 21.1196L75.6799 15.7596L94.0799 11.1196L100.16 9.59963C101.12 9.35963 102.16 9.19964 103.04 8.87964H103.2H102.32L120.32 12.7196L122.88 13.2796L121.68 10.1596L114.24 11.9196L96.3999 16.1596L74.8799 21.2796L56.2399 25.6796C53.1999 26.3996 50.0799 26.9596 47.1199 27.8396H46.9599C46.3999 27.9996 46.0799 28.4796 46.1599 29.0396L45.8399 43.9996L45.2799 67.8396L45.1199 73.2796L46.7999 72.0796L30.7999 68.6396L28.5599 68.1596C27.7599 67.9996 26.7999 68.3996 26.8799 69.3596C27.1199 70.3196 27.9199 71.1196 28.8799 71.2796L44.8799 74.7196L47.1199 75.1996C47.7599 75.4396 48.4799 75.1196 48.7199 74.4796C48.7999 74.3196 48.7999 74.1596 48.7999 73.9996L49.1199 59.0396L49.6799 35.1996L49.8399 29.7596L49.0399 30.9596L56.4799 29.1996L74.3199 24.9596L95.8399 19.8396L114.48 15.4396C117.52 14.7196 120.64 14.1596 123.6 13.2796H123.76C124.4 13.1196 124.72 12.4796 124.48 11.8396C124.48 11.7596 124.48 11.7596 124.4 11.6796C124.08 10.8796 123.36 10.3196 122.48 10.1596L102.48 5.83963C101.36 5.67963 100.24 5.83963 99.1999 6.23963L92.0799 7.99963L67.5999 14.0796L41.4399 20.6396L31.9999 23.0396C30.4799 23.4396 28.8799 23.7596 27.4399 24.1596L27.1999 24.2396C26.6399 24.3996 26.3199 24.8796 26.3999 25.4396L26.6399 40.3196L26.9599 63.9196L27.0399 69.3596C27.0399 71.0396 30.7199 72.2396 30.7199 69.9996Z" fill="#000005"/>
</svg>
