<svg width="200" height="200" viewBox="0 0 200 200" fill="none" xmlns="http://www.w3.org/2000/svg">
<path d="M97.3633 157.119L120.803 157.559L137.643 179.439H111.123L97.3633 157.119Z" fill="#68BA7F"/>
<path d="M97.1222 157.6L105.042 157.76L117.642 158L120.562 158.04L119.842 157.76L125.522 165.16L134.602 176.96L136.682 179.68L137.842 178.96H111.322L112.042 179.24L107.362 171.68L99.9622 159.68L98.2822 156.92C97.9222 156.36 95.9622 156.72 96.3622 157.36L101.122 165.04L108.562 177.16L109.642 178.96C109.802 179.24 109.922 179.48 110.122 179.72C110.402 180.08 110.882 180.04 111.282 180.04H126.562C130.122 180.04 133.642 180.04 137.202 180.04H137.362C137.602 180.04 138.962 179.84 138.522 179.32L133.482 172.72L124.842 161.44L122.162 157.92C122.042 157.72 121.922 157.56 121.762 157.36C121.442 157 120.922 157.04 120.482 157.04L108.602 156.84C105.002 156.76 101.362 156.68 97.7622 156.64H97.6022C97.2422 156.64 96.5622 156.68 96.4022 157.08C96.2422 157.48 96.8422 157.6 97.1222 157.6Z" fill="#68BA7F"/>
<path d="M104.162 159.12L107.882 165.2L113.802 174.8L115.162 177C115.442 177.44 115.962 177.68 116.442 177.52C116.842 177.4 117.242 176.88 117.002 176.44L113.282 170.4L107.362 160.76L106.002 158.56C105.722 158.12 105.202 157.88 104.722 158.04C104.322 158.16 103.922 158.68 104.162 159.12Z" fill="white"/>
<path d="M110.242 158.92L114.442 165.08L121.162 174.88L122.722 177.16C123.242 177.92 125.122 177.24 124.522 176.4L120.322 170.24L113.602 160.4L112.042 158.12C111.522 157.36 109.642 158.04 110.242 158.92Z" fill="white"/>
<path d="M116.043 158.399C116.363 159.239 117.083 159.999 117.643 160.719C118.723 162.159 119.843 163.599 120.963 165.039C123.403 168.239 125.883 171.399 128.363 174.559L130.083 176.759C130.363 177.119 130.923 177.359 131.323 177.039C131.723 176.719 131.563 176.119 131.283 175.759C129.763 173.799 128.243 171.839 126.723 169.879C124.243 166.719 121.803 163.559 119.363 160.359C118.923 159.799 118.523 159.239 118.083 158.679C117.963 158.519 117.843 158.319 117.723 158.159C117.683 158.119 117.523 157.879 117.683 158.119C117.843 158.359 117.723 158.199 117.723 158.159C117.723 158.119 117.683 157.999 117.803 158.359C117.683 157.879 117.243 157.519 116.723 157.479C116.323 157.519 116.043 157.879 116.083 158.239C116.043 158.279 116.043 158.359 116.043 158.399Z" fill="white"/>
<path d="M102.84 162.919L109.36 162.879L119.8 162.799H122.2C122.68 162.799 123.12 162.439 123.16 161.919C123.12 161.399 122.56 161.199 122.12 161.199L115.6 161.239L105.2 161.319H102.8C102.36 161.319 101.84 161.679 101.84 162.199C101.84 162.719 102.4 162.959 102.84 162.919Z" fill="white"/>
<path d="M107.122 169.12L113.642 168.72L123.962 168.12L126.322 167.96C126.762 167.92 127.202 167.52 127.082 167.08C126.962 166.64 126.322 166.44 125.882 166.48L119.362 166.88L109.042 167.48L106.682 167.64C106.242 167.68 105.802 168.08 105.922 168.52C106.042 168.96 106.642 169.16 107.122 169.12Z" fill="white"/>
<path d="M110.561 175.48L117.081 175.08L127.401 174.48L129.761 174.32C130.281 174.36 130.721 174 130.841 173.48C130.841 173 130.481 172.6 130.001 172.6C129.961 172.6 129.961 172.6 129.921 172.6L123.401 173L113.081 173.64L110.721 173.8C110.201 173.76 109.761 174.12 109.641 174.64C109.641 175.12 110.001 175.52 110.481 175.52C110.521 175.48 110.561 175.48 110.561 175.48Z" fill="white"/>
<path d="M63.0009 120.399C57.7609 126.239 53.6009 125.199 54.8009 129.999C54.8009 129.999 49.3609 140.999 45.3209 132.559C44.6809 131.239 35.3209 115.599 43.6809 106.479C43.6809 106.479 48.6009 101.679 45.6009 96.5192C45.6009 96.5192 51.2809 99.6792 55.5609 97.9592C59.8409 96.2392 67.7209 91.6792 70.2009 95.6392C72.6809 99.5992 67.4409 103.239 63.4809 103.879L65.2009 110.399C61.4809 112.839 58.2409 109.039 58.2409 109.039C58.2409 109.039 56.9209 113.959 58.3609 115.439C59.8009 116.919 64.1609 116.039 64.1609 116.039C64.5609 117.599 64.1209 119.239 63.0009 120.399Z" fill="white"/>
<path d="M62.1616 120.56C60.9616 121.88 59.6016 123.08 58.1216 124.08C57.1616 124.76 56.0816 125.32 55.2016 126.08C54.4816 126.6 53.9616 127.36 53.7616 128.24C53.6816 128.76 53.6816 129.28 53.8016 129.8C53.8416 130.08 53.9616 130.2 53.8416 130.44C53.6416 130.92 53.3616 131.4 53.0416 131.84C52.6016 132.56 52.0816 133.24 51.5216 133.88C51.2416 134.2 50.9216 134.52 50.6016 134.76C50.4416 134.88 50.2816 135.04 50.0816 135.16C49.9616 135.24 50.1616 135.12 50.0816 135.16L49.9616 135.24C49.8016 135.36 50.0416 135.2 49.8016 135.32C49.6416 135.4 49.9616 135.24 49.7216 135.36C49.7616 135.36 49.9216 135.32 49.7616 135.36C49.8016 135.36 49.9616 135.32 49.8016 135.36C49.6416 135.36 49.7616 135.36 49.8016 135.36H49.6816C49.6016 135.36 49.5216 135.36 49.4816 135.36C49.0816 135.32 48.6816 135.16 48.3616 134.92C47.0416 134.04 46.4416 132.4 45.7216 131.04C44.8416 129.4 44.0816 127.68 43.4016 125.92C41.5616 121.12 40.3216 115.52 42.1216 110.56C42.6016 109.28 43.2416 108.04 44.1216 106.96C44.5216 106.48 45.0016 106 45.3616 105.52C46.8816 103.52 47.9616 101.04 47.4816 98.4799C47.3216 97.6799 47.0416 96.9199 46.6016 96.1999L44.7616 96.9599C46.4016 97.8399 48.1616 98.4399 49.9616 98.7599C51.4816 99.0399 53.0016 98.9999 54.5216 98.6399C55.8416 98.2399 57.1616 97.7599 58.3616 97.1199C60.6416 96.0799 63.0416 94.8799 65.5216 94.5999C66.5616 94.3999 67.6016 94.6399 68.4816 95.1599C69.4416 95.9199 69.9616 97.0799 69.9216 98.3199C69.7216 101.16 66.4016 103.08 63.8816 103.52C63.6416 103.56 62.4416 103.88 62.5616 104.28L64.2416 110.88L64.6016 110.48C63.4016 111.24 62.0416 110.88 60.8816 110.24C60.2416 109.88 59.6416 109.4 59.1616 108.84C58.8416 108.48 57.4016 109.04 57.2816 109.44C56.8016 111 56.6416 112.64 56.7616 114.28C56.8816 115.24 57.2416 116.04 58.2016 116.44C59.2416 116.8 60.3216 116.96 61.4416 116.84C62.2416 116.8 63.0016 116.72 63.8016 116.56L63.2416 116.48C63.6416 117.84 63.0816 119.44 62.1616 120.56C61.8816 120.88 62.4816 120.84 62.6416 120.8C63.1216 120.76 63.5216 120.56 63.8816 120.24C64.9216 119.04 65.5616 117.32 65.1216 115.72C65.0816 115.56 64.6816 115.64 64.5616 115.64C64.0416 115.76 63.5616 115.8 63.0416 115.84C62.0816 115.96 61.0816 115.88 60.1616 115.6C59.2416 115.28 58.8416 114.6 58.6816 113.68C58.5616 112.68 58.6016 111.64 58.7616 110.64C58.8416 110 58.9616 109.4 59.1216 108.76L57.2416 109.36C57.9216 110.12 58.7216 110.76 59.6816 111.16C61.6816 112.04 63.9216 111.6 65.6816 110.44C65.8016 110.36 66.1216 110.2 66.0416 110.04L64.3616 103.44L63.0416 104.2C65.9616 103.72 69.2816 102.2 70.9616 99.6399C71.7216 98.5599 71.9216 97.1999 71.4816 95.9599C71.0816 94.8799 70.2016 94.0399 69.0816 93.7199C67.8816 93.4399 66.6016 93.4399 65.4016 93.7599C63.8816 94.0799 62.4016 94.5599 60.9616 95.1599C59.6016 95.7199 58.2416 96.3199 56.8816 96.9199C55.6816 97.4799 54.6816 97.9199 53.2816 97.8799C50.8816 97.7999 48.5216 97.1599 46.4016 95.9599C46.1216 95.7999 44.3616 96.3199 44.5616 96.7199C45.4016 98.1599 45.6816 99.7999 45.4416 101.44C45.2016 102.72 44.6816 103.92 43.9616 105C43.6016 105.52 43.2016 106.04 42.7616 106.52C41.8816 107.48 41.1216 108.6 40.5616 109.8C38.2016 114.76 39.2416 120.64 41.0416 125.6C41.7616 127.52 42.5616 129.4 43.5216 131.2C44.2416 132.6 44.8816 134.2 46.0416 135.24C47.7216 136.76 50.1216 135.96 51.7216 134.76C53.1616 133.68 54.2416 132.16 55.1216 130.68C55.3616 130.4 55.5216 130.04 55.6816 129.68C55.6816 129.4 55.6416 129.16 55.5616 128.92C55.5216 128.64 55.4816 128.32 55.4816 128.04C55.4816 127.6 55.6016 127.16 55.8416 126.76C56.2816 126 57.1616 125.48 57.8816 125C59.2016 124.2 60.4416 123.32 61.6016 122.32C62.3616 121.64 63.1216 120.92 63.8016 120.2C64.0816 119.88 63.4816 119.92 63.3216 119.96C62.9616 120.04 62.5216 120.24 62.1616 120.56Z" fill="#000005"/>
<path d="M38.1224 124.84C38.1224 124.84 33.6824 129.64 30.9624 127.32C28.2424 125 32.1224 123.48 32.1224 123.48C32.1224 123.48 24.4024 120.08 29.1624 115.56C29.1624 115.56 21.8024 113.96 22.6824 107.52C23.5624 101.08 32.4424 99.2 32.4424 99.2C32.4424 99.2 28.1624 92.88 34.2024 90.16C40.2424 87.44 41.3624 92.16 41.3624 92.16C41.3624 92.16 45.2024 90.36 46.7224 92.52C48.2424 94.68 46.1224 97.24 46.1224 97.24C46.1224 97.24 49.1624 104.24 43.7224 106.36L44.1224 117.28C44.1224 117.28 47.6024 119.12 47.7224 123.24C47.8424 127.36 40.4824 129.12 38.1224 124.84Z" fill="#000005"/>
<path d="M37.4817 124.04C36.4817 125.12 35.2817 126.04 33.9617 126.68C33.1617 127.04 32.0817 127.32 31.2817 126.88C31.1217 126.8 30.9617 126.64 30.8017 126.52C30.6817 126.4 30.6817 126.44 30.6817 126.24C30.7217 125.92 30.8417 125.6 31.0817 125.36C31.3617 125.04 31.7217 124.76 32.1217 124.56C32.2417 124.48 32.4017 124.4 32.5217 124.36C32.6017 124.32 32.8417 124.24 32.6017 124.32C33.2817 124.04 32.2817 122.88 31.9217 122.72C31.5617 122.56 31.2417 122.36 30.8817 122.16C30.6017 122 30.3217 121.84 30.0817 121.64C29.9217 121.52 29.7217 121.36 29.5617 121.24C29.5217 121.2 29.4817 121.16 29.4417 121.12C29.5217 121.2 29.5217 121.2 29.4417 121.12L29.2017 120.88L28.9617 120.64C29.1217 120.84 28.8817 120.56 28.8817 120.52C28.8817 120.48 28.6417 120.2 28.8017 120.4C28.7217 120.32 28.6817 120.2 28.6417 120.12C28.6017 120.04 28.6017 120.04 28.6417 120.12L28.5617 119.96C28.5217 119.88 28.4817 119.8 28.4817 119.72C28.5217 119.84 28.4417 119.56 28.4417 119.52C28.4417 119.44 28.4017 119.36 28.4017 119.28C28.3217 118.12 29.0817 117.12 29.8417 116.36C30.3217 115.88 29.3217 114.84 28.8817 114.76C28.6417 114.72 28.3617 114.64 28.1217 114.56C27.5617 114.36 27.0017 114.12 26.4417 113.84C25.8017 113.52 25.2017 113.08 24.6817 112.56C24.4417 112.28 24.2017 112 24.0017 111.68C23.8017 111.32 23.6417 110.96 23.5217 110.6C22.9617 108.52 23.6417 106.16 25.0017 104.52C26.3217 103.04 27.9217 101.88 29.7617 101.12C30.7617 100.68 31.8417 100.32 32.9217 100.08C33.3217 99.9996 33.0817 99.3596 32.9217 99.1996C32.7617 99.0396 32.7217 98.8396 32.6017 98.6796L32.4417 98.3996C32.5617 98.6396 32.4017 98.3596 32.4017 98.2796C32.2817 97.9996 32.1617 97.7596 32.0817 97.4796C32.0017 97.2396 31.9217 96.9996 31.8417 96.7196C31.7617 96.3996 31.7217 96.0796 31.6817 95.7596C31.6017 95.0796 31.6817 94.3996 31.9217 93.7596C32.6017 91.9196 34.5217 90.9596 36.2817 90.4396C37.0817 90.1996 37.9217 90.1196 38.7617 90.2396C39.0417 90.2796 39.2817 90.3596 39.5217 90.4796C39.5617 90.5196 39.8817 90.6796 39.7217 90.5996C39.8017 90.6396 39.8417 90.6796 39.8817 90.7196C39.9217 90.7596 40.1217 90.9196 40.0017 90.7996C39.8817 90.6796 40.3617 91.1996 40.0817 90.8796L40.3217 91.1596C40.1217 90.8796 40.3617 91.2396 40.4017 91.3196C40.5617 91.5596 40.3617 91.1996 40.4417 91.3996L40.6017 91.8396C40.4817 91.5596 40.5617 91.7196 40.6017 91.8396C40.7217 92.2796 41.3217 93.2396 41.9217 92.9996C42.9617 92.5196 44.6817 92.0396 45.8817 92.5596C46.0417 92.5996 46.1617 92.6796 46.2417 92.7996C46.2017 92.7596 46.4017 93.1196 46.4017 93.1996C46.5217 93.7196 46.4817 94.2796 46.3217 94.7596C46.1217 95.3996 45.8417 95.9596 45.4417 96.4796C45.3217 96.6796 45.3217 96.9196 45.4417 97.1196C45.5217 97.3196 45.6017 97.5596 45.6817 97.7596C45.6017 97.5196 45.7217 97.8796 45.7217 97.9196C45.7617 98.0796 45.8017 98.1996 45.8417 98.3596C45.9217 98.6796 46.0017 98.9996 46.0417 99.3196C46.2817 100.76 46.2417 102.4 45.4417 103.68C44.8817 104.56 44.0417 105.24 43.0417 105.6C42.9617 105.68 42.9217 105.76 42.9617 105.84L43.3217 116.24C43.3217 116.4 43.3217 116.56 43.3217 116.72C43.4017 117.32 43.7617 117.8 44.2817 118.08C44.5217 118.24 44.2017 118 44.4017 118.16C44.6017 118.32 44.7217 118.36 44.8817 118.52C44.9217 118.56 45.1217 118.72 45.0017 118.6L45.2817 118.84L45.5617 119.12C45.5617 119.16 45.6817 119.28 45.5617 119.12C45.6417 119.2 45.6817 119.28 45.7617 119.36C45.9217 119.56 46.0417 119.72 46.1617 119.96C46.3217 120.24 46.4817 120.56 46.6017 120.88C46.8417 121.56 46.9617 122.28 46.9217 123C46.8017 124.08 46.1617 125 45.2417 125.56C44.1217 126.28 42.8017 126.56 41.4817 126.4C40.8417 126.32 40.2417 126.12 39.6817 125.84C39.4417 125.72 39.2417 125.56 39.0417 125.36C38.8417 125.16 38.6817 124.96 38.5617 124.72C38.4017 124.44 37.9617 123.88 37.5617 123.96C37.1617 124.04 37.4417 124.64 37.5617 124.84C39.2417 127.8 42.9617 128.96 46.0017 127.4C47.2817 126.8 48.1617 125.64 48.3617 124.24C48.5617 122.36 47.7217 120.32 46.6017 118.88C45.8817 117.92 44.9617 117.12 43.9217 116.52L44.8017 117.8L44.4417 108.24L44.4017 106.88L44.3217 107.12C46.1217 106.4 47.3617 104.76 47.5617 102.88C47.7217 101.4 47.5617 99.8796 47.0817 98.4396C46.9617 98.0796 46.8417 97.6796 46.6817 97.3196V97.9596C47.7617 96.6396 48.2817 94.7596 47.6017 93.1196C47.1217 91.9596 46.1617 91.0796 45.0017 90.6796C44.1217 90.4796 43.2417 90.4796 42.3617 90.7196C41.8017 90.8396 41.2417 91.0396 40.7217 91.2796L42.0417 92.4396C41.4417 89.9596 39.1617 88.2796 36.6417 88.3996C35.4417 88.5196 34.3217 88.8796 33.2417 89.4396C32.3217 89.8796 31.5217 90.5596 30.9617 91.4396C30.0817 92.8396 30.0817 94.5996 30.5617 96.1596C30.8417 97.2396 31.3217 98.2796 31.9217 99.1996V98.3996C30.8817 98.6396 29.8817 98.9596 28.9217 99.3596C26.9617 100.12 25.2417 101.28 23.8417 102.84C22.2417 104.68 21.6017 107.2 22.0817 109.6C22.5617 111.8 24.0817 113.64 25.9617 114.8C27.0417 115.52 28.2417 116.04 29.5217 116.36L28.5617 114.76C27.7617 115.48 27.2017 116.44 26.9617 117.48C26.8417 118.4 27.0417 119.32 27.5217 120.12C28.3617 121.64 29.8017 122.8 31.2817 123.68C31.6017 123.88 31.9617 124.08 32.3217 124.24L31.6417 122.64C31.0017 122.88 30.4017 123.24 29.9217 123.72C28.9617 124.76 29.2817 126.04 30.1217 127.08C31.0017 128.2 32.2817 128.96 33.7617 128.72C34.9217 128.48 36.0417 127.92 36.9617 127.16C37.6017 126.68 38.2017 126.16 38.7217 125.6C39.2017 125.12 37.8817 123.64 37.4817 124.04Z" fill="#000005"/>
<path d="M45.3213 107.12C45.3213 107.12 41.8013 103.28 39.2413 106.12C36.6813 108.96 41.7213 119.48 47.0813 115.64" fill="white"/>
<path d="M46.2797 107.079C45.3197 105.999 44.0797 105.279 42.6797 104.999C40.7597 104.639 38.1997 105.039 37.6797 107.239C37.2797 108.799 37.7997 110.519 38.3997 111.959C39.1197 113.519 40.1997 115.079 41.6797 115.959C43.6797 117.079 46.1197 116.959 47.9997 115.719C48.1997 115.559 47.3597 115.479 47.3197 115.479C46.9997 115.439 46.3997 115.399 46.0797 115.599C45.7597 115.839 45.4397 115.999 45.0797 116.159C44.9197 116.199 44.7997 116.239 44.6397 116.279C44.3997 116.319 44.7597 116.239 44.5197 116.279H44.6797C44.7597 116.279 44.8797 116.319 44.7197 116.279C44.8397 116.319 44.5997 116.239 44.5997 116.239C44.4797 116.199 44.3197 116.159 44.1997 116.119C43.8797 115.999 43.5597 115.839 43.2797 115.639C40.9197 113.799 39.5197 110.999 39.5197 107.999C39.5197 107.439 39.6797 106.879 39.9597 106.399C40.1597 106.079 40.3997 105.839 40.7197 105.639C40.9197 105.519 41.0797 105.399 41.3197 105.319C41.3997 105.279 41.4797 105.279 41.5597 105.239C41.9197 105.079 41.1597 105.359 41.2397 105.239C41.3197 105.119 42.1597 105.559 42.2797 105.599C42.6397 105.799 42.9997 106.039 43.3597 106.279C43.7197 106.519 44.0397 106.839 44.3197 107.119C44.5197 107.359 45.2397 107.279 45.5597 107.279C45.6397 107.319 46.3997 107.279 46.2797 107.079Z" fill="#000005"/>
<path d="M51.682 101.999C52.122 101.879 52.602 102.119 52.722 102.599C52.722 102.639 52.762 102.679 52.762 102.719C52.882 103.639 51.762 103.799 51.402 103.039C51.202 102.719 51.282 102.279 51.602 102.039C51.602 102.039 51.642 101.999 51.682 101.999Z" fill="#000005"/>
<path d="M68.8828 157.08L91.0028 157.24C91.0028 157.24 91.0028 149.72 81.6028 148.6C72.2028 147.48 68.8828 157.08 68.8828 157.08Z" fill="#68BA7F"/>
<path d="M69.0799 157.84L76.5599 157.88L88.4799 157.96L91.2399 158C91.5599 158 92.0399 157.72 92.0399 157.36C92.0399 153.76 89.4399 150.52 86.2799 149.12C83.1599 147.72 79.3599 147.32 76.1199 148.48C73.7199 149.36 71.5999 150.96 70.1199 153.04C69.2399 154.2 68.5199 155.44 67.9999 156.8C67.8799 157.2 68.1199 157.64 68.5199 157.76C68.5599 157.76 68.5599 157.76 68.5999 157.8C68.9599 157.92 69.7199 157.88 69.8799 157.44C70.5999 155.52 71.7199 153.8 73.1599 152.36C73.9599 151.52 74.8799 150.84 75.9199 150.32C78.4799 149.04 81.5999 149.08 84.3599 150C86.4799 150.64 88.2399 152.12 89.2399 154.08L89.3999 154.4C89.3999 154.4 89.4799 154.6 89.4399 154.48C89.3999 154.36 89.4799 154.6 89.4799 154.6C89.5599 154.8 89.6399 155 89.7199 155.2C89.8399 155.56 89.9199 155.92 89.9999 156.28C90.0399 156.52 90.0799 156.76 90.0799 157C90.0799 157.16 90.0799 156.92 90.0799 156.96C90.0799 157 90.1199 157.04 90.0799 157.04C90.0399 157.04 90.0799 157.12 90.0799 157.12L90.8799 156.48L83.3999 156.44L71.4799 156.36H68.7199C68.3199 156.36 67.7999 156.72 67.9199 157.2C68.0399 157.68 68.6399 157.84 69.0799 157.84Z" fill="#68BA7F"/>
<path d="M88.4412 154.16C88.0412 151.28 85.5612 148.68 82.6012 148.56C82.1612 148.56 81.9612 148.96 82.0812 149.36C82.2012 149.76 82.6012 150.32 83.0812 150.32C83.3612 150.32 83.6012 150.36 83.8812 150.44C84.0812 150.48 83.8012 150.4 83.9612 150.44L84.1612 150.48C84.2812 150.52 84.4412 150.56 84.5612 150.64L84.7612 150.72C84.8412 150.76 84.9212 150.8 84.8012 150.72C84.9212 150.8 85.0412 150.84 85.1612 150.92C85.2812 151 85.4012 151.08 85.5212 151.16C85.6412 151.24 85.6812 151.24 85.5212 151.16C85.6012 151.2 85.6412 151.24 85.6812 151.32C85.8012 151.4 85.8812 151.52 85.9612 151.6C86.0412 151.68 86.0412 151.68 86.0812 151.76L86.0412 151.68L86.1212 151.76C86.2012 151.88 86.2812 151.96 86.3612 152.08C86.4412 152.2 86.4412 152.2 86.4812 152.24L86.4412 152.16C86.4412 152.2 86.4812 152.2 86.4812 152.24C86.5612 152.36 86.6012 152.48 86.6412 152.6L86.7212 152.8C86.7212 152.84 86.7612 152.88 86.7612 152.88C86.7212 152.76 86.7212 152.72 86.7212 152.8C86.7612 152.92 86.8012 153.04 86.8412 153.2C86.8412 153.28 86.8812 153.32 86.8812 153.4C86.9212 153.64 86.8812 153.32 86.8812 153.48C86.9212 154 87.2412 154.44 87.7212 154.64C88.0812 154.8 88.4812 154.6 88.4412 154.16Z" fill="white"/>
<path d="M75.1602 145.84C75.1602 145.84 78.8802 144 80.5202 141.8C82.1602 139.6 83.2802 140.16 83.3602 142.12C83.4402 144.08 80.0802 146.4 80.0802 146.4L75.1602 145.84Z" fill="white"/>
<path d="M75.9211 146.359C77.8811 145.439 79.6411 144.159 81.0811 142.599C81.5611 142.079 81.9211 141.359 82.6011 141.039C82.6811 140.999 82.7211 140.999 82.6411 140.999C82.8011 140.999 82.6011 140.999 82.6011 140.999C82.4811 140.959 82.3611 140.959 82.2811 140.919L82.2411 140.879C82.1611 140.799 82.1611 140.799 82.2011 140.879C82.2411 140.959 82.3211 141.079 82.3211 141.159C82.6811 142.359 82.0811 143.319 81.2811 144.159C80.7211 144.799 80.0811 145.359 79.3611 145.839L80.0011 145.719L75.0811 145.159C74.7611 145.119 74.1611 145.239 74.2011 145.679C74.2411 146.119 74.8811 146.359 75.2811 146.439L78.9211 146.839C79.3611 146.879 79.7611 146.959 80.2011 146.999C80.8811 147.039 81.4411 146.479 81.9211 146.039C82.6411 145.479 83.2811 144.759 83.8011 143.999C84.3611 143.159 84.5211 142.159 84.2011 141.199C83.8411 140.079 82.6811 139.439 81.5611 139.759C80.3611 140.119 79.7611 141.319 78.9611 142.119C77.6411 143.399 76.1211 144.439 74.4411 145.239C74.0011 145.439 74.2811 145.919 74.5611 146.119C74.9611 146.479 75.4811 146.559 75.9211 146.359Z" fill="#000005"/>
<path d="M67.8017 149.56C67.8017 149.56 74.2417 143.6 79.0817 144.4C83.9217 145.2 88.0017 149.76 86.5617 150.32C85.1217 150.88 81.8417 147.92 78.5617 148.8C75.2817 149.68 74.4017 150.88 74.4017 150.88C74.4017 150.88 79.8817 152.2 79.0017 153.96C78.1217 155.72 63.7617 154.16 63.7617 154.16L67.8017 149.56Z" fill="white"/>
<path d="M68.4806 149.999C69.6406 148.919 70.9206 147.959 72.3206 147.159C74.5206 145.799 76.9606 144.639 79.5206 145.319C81.0006 145.719 82.4006 146.399 83.6406 147.319C84.1206 147.679 84.6006 148.079 85.0006 148.559C85.1606 148.759 85.3606 148.959 85.4806 149.159C85.6006 149.319 85.6806 149.479 85.7606 149.639C85.8006 149.719 85.8406 149.799 85.8406 149.879C85.8406 149.959 85.9206 150.119 85.8806 149.959V150.159C85.9206 150.039 85.9606 149.959 86.0406 149.879C86.1206 149.799 86.2406 149.759 86.3606 149.719C86.3206 149.759 86.1606 149.799 86.4006 149.719C86.3206 149.719 86.2806 149.679 86.4406 149.719C86.4006 149.719 86.3206 149.719 86.2806 149.719C86.2406 149.719 86.1206 149.679 86.2406 149.719C86.1606 149.719 86.1206 149.679 86.0806 149.679C85.9206 149.639 85.8006 149.599 85.6406 149.559C84.2406 149.079 82.9206 148.359 81.4406 148.119C79.4406 147.759 77.4806 148.359 75.6806 149.239C74.8806 149.559 74.2006 150.079 73.6406 150.759C73.4406 150.999 73.4806 151.399 73.7206 151.599C73.8006 151.639 73.8806 151.679 73.9606 151.719C75.2406 151.959 76.4406 152.439 77.5606 153.119C77.6406 153.159 77.7206 153.239 77.8006 153.279C77.8806 153.319 77.8406 153.279 77.9206 153.359C78.0006 153.439 78.0406 153.479 78.0806 153.559L78.1206 153.639C78.2406 153.799 78.0806 153.559 78.1206 153.679C78.1606 153.759 78.1606 153.799 78.1606 153.879C78.1206 153.719 78.1206 153.959 78.1606 153.879C78.2006 153.959 77.9606 153.999 78.2006 153.839C78.1606 153.839 77.9606 154.079 78.2806 153.799C78.1206 153.959 78.4806 153.679 78.2806 153.799C78.0806 153.919 78.2806 153.759 78.3606 153.759C78.3206 153.759 78.2406 153.799 78.2006 153.839C78.0806 153.879 77.7606 153.959 78.0406 153.879L77.6006 153.959C77.2806 153.999 76.9206 154.039 76.6006 154.079L76.0406 154.119H75.7206C75.7206 154.119 75.5606 154.119 75.6806 154.119H75.5206C74.6006 154.159 73.6806 154.119 72.7606 154.119C70.9206 154.079 69.0806 153.959 67.2006 153.799C66.1606 153.719 65.1606 153.639 64.1206 153.519L64.6806 154.519L68.6806 149.919C68.8806 149.639 68.8406 149.279 68.6006 149.079C68.5206 149.039 68.4406 148.999 68.3606 148.959C67.8806 148.839 67.3206 148.999 67.0406 149.399L63.0006 153.999C62.6006 154.479 63.0806 154.959 63.5606 154.999C66.4806 155.319 69.4006 155.519 72.3206 155.599C74.1206 155.639 76.0006 155.719 77.7606 155.359C78.4406 155.279 79.0806 154.999 79.6406 154.559C80.2406 153.999 80.2806 153.039 79.6806 152.439L79.6406 152.399C78.9206 151.599 77.8006 151.199 76.8406 150.839C76.2406 150.599 75.6006 150.399 74.9606 150.239L75.2806 151.199C75.4006 151.039 75.0806 151.359 75.2406 151.239C75.4006 151.119 75.4406 151.039 75.5606 150.959C75.6806 150.879 75.8006 150.799 75.6406 150.919C75.7606 150.839 75.8406 150.759 75.9606 150.719C76.2006 150.559 76.4806 150.399 76.7606 150.279C77.5606 149.879 78.4006 149.599 79.2806 149.479C80.0806 149.399 80.8406 149.519 81.6006 149.759C82.9606 150.159 84.3206 151.039 85.7606 151.199C86.8806 151.319 88.2006 150.639 87.8806 149.399C87.6006 148.359 86.6406 147.439 85.8406 146.799C84.6006 145.719 83.2006 144.879 81.6406 144.319C80.1606 143.719 78.5606 143.559 76.9606 143.799C75.4406 144.119 73.9606 144.639 72.6006 145.399C70.6406 146.439 68.8406 147.719 67.2006 149.239C66.9206 149.439 66.8406 149.839 67.0406 150.159C67.0806 150.199 67.1206 150.279 67.2006 150.319C67.5606 150.399 68.0806 150.319 68.4806 149.999Z" fill="#000005"/>
<path d="M78 182.04C78 179.48 68.24 117.64 47.6 126.88C26.96 136.12 24 183.08 24 183.08L78 182.04Z" fill="#000005"/>
<path d="M78.8811 182.559C78.8411 181.919 78.7611 181.239 78.6411 180.599C78.4411 179.199 78.2011 177.799 77.9611 176.399C77.2011 172.079 76.2811 167.799 75.2011 163.519C73.9211 158.319 72.4011 153.199 70.5611 148.199C68.8411 143.479 66.8011 138.799 64.0411 134.599C61.6811 131.039 58.6011 127.799 54.6011 126.199C53.0011 125.519 51.2411 125.319 49.5211 125.559C47.3611 125.919 45.3611 126.959 43.6011 128.159C39.0411 131.319 35.8411 136.039 33.3611 140.919C30.6011 146.279 28.6811 152.079 27.2011 157.919C25.8811 163.039 24.8811 168.279 24.1211 173.519C23.7211 176.359 23.3611 179.239 23.1611 182.119C23.1611 182.239 23.1611 182.399 23.1211 182.519C23.1211 182.719 23.6811 182.999 23.8011 183.079C24.0411 183.239 24.4811 183.559 24.8011 183.559L30.2011 183.439L43.1211 183.199L58.6811 182.919L72.1611 182.679L76.6011 182.599L78.0011 182.559C78.2411 182.599 78.4811 182.599 78.7211 182.559C78.7611 182.559 78.8011 182.559 78.8811 182.559C79.0011 182.559 78.3611 182.119 78.3211 182.079C78.0411 181.919 77.5611 181.519 77.2011 181.519L71.8011 181.639L58.8811 181.879L43.3211 182.159L29.8411 182.399C27.6411 182.439 25.4411 182.399 23.2811 182.519H23.2011L24.8811 183.599C25.0011 181.599 25.2411 179.639 25.4811 177.639C26.0811 172.879 26.8411 168.199 27.8811 163.519C29.0811 157.719 30.8411 151.999 33.0411 146.519C35.1611 141.359 37.9211 136.239 41.8411 132.199C43.6011 130.359 45.6811 128.839 47.9611 127.679C49.6011 126.839 51.4411 126.399 53.2811 126.479C54.0811 126.559 54.8411 126.719 55.6011 126.959C55.7611 126.999 55.9211 127.079 56.0811 127.159L56.3611 127.279C56.2011 127.199 56.4811 127.359 56.5611 127.359C56.8011 127.479 56.4411 127.279 56.6811 127.399L56.8411 127.479C56.6011 127.359 56.7211 127.399 56.7611 127.439C56.8011 127.479 57.0811 127.639 56.8411 127.479L57.1611 127.679L57.2811 127.759L57.4411 127.879C57.6411 128.039 57.8011 128.159 58.0011 128.319C58.2811 128.559 58.6811 128.919 59.0011 129.239C59.7211 129.959 60.3611 130.679 60.9611 131.479C63.9211 135.239 66.0011 139.679 67.8011 144.079C69.7611 148.999 71.4411 154.079 72.7611 159.239C73.9611 163.719 75.0011 168.279 75.8811 172.839C76.4011 175.479 76.9211 178.159 77.2011 180.839C77.2411 181.039 77.2411 181.239 77.2411 181.479C77.2411 181.719 77.8811 181.999 78.0411 182.119C78.2411 182.319 78.5611 182.439 78.8811 182.559Z" fill="#000005"/>
<path d="M53.2422 166.08C53.2422 166.08 57.4822 177.4 67.9222 183.84C78.3622 190.28 109.722 172.16 112.842 169.32C115.962 166.48 116.402 167.04 118.642 168.76C120.882 170.48 121.882 168.44 121.362 167.08C120.842 165.72 119.322 164.84 119.322 164.84C119.322 164.84 119.722 162 116.402 162.12C116.402 162.12 117.842 160.96 116.482 160.08C115.122 159.2 112.202 158.72 109.082 161.64C109.082 161.64 111.442 159 109.962 158.04C108.482 157.08 108.122 159.32 104.122 162.24C100.122 165.16 78.8022 170.92 78.8022 170.92L72.1622 155.72L53.2422 166.08Z" fill="white"/>
<path d="M52.4009 165.92C53.0009 167.44 53.7209 168.92 54.5209 170.32C56.4009 173.64 58.7209 176.72 61.4009 179.44C63.0409 181.08 64.8409 182.56 66.7609 183.88C67.8809 184.68 69.1609 185.28 70.4809 185.64C73.0409 186.28 75.8009 186.12 78.3609 185.68C85.0009 184.6 91.3609 182 97.4009 179.2C102.361 176.96 107.121 174.32 111.681 171.4C112.241 171.04 112.801 170.64 113.321 170.2C113.921 169.72 114.441 169.16 115.081 168.72C115.361 168.48 115.721 168.32 116.081 168.2C116.161 168.16 116.281 168.16 116.361 168.16C116.361 168.16 116.601 168.16 116.441 168.16C116.481 168.16 116.761 168.24 116.601 168.16C116.721 168.2 116.841 168.24 116.961 168.32C116.761 168.24 117.041 168.36 117.041 168.36L117.281 168.52C117.641 168.76 117.961 169 118.281 169.28C119.081 169.88 120.241 170.52 121.241 170.08C121.961 169.76 122.281 168.92 122.281 168.16C122.281 167.08 121.681 166.12 120.961 165.36C120.521 164.88 120.041 164.48 119.481 164.16L120.121 165.16C120.201 164.48 120.041 163.8 119.721 163.24C118.961 161.84 117.481 161.24 115.921 161.28L117.081 162.8C117.761 162.28 118.041 161.4 117.721 160.6C117.241 159.6 116.081 159.04 115.081 158.76C112.601 158.12 110.121 159.28 108.321 160.96L109.761 162.32C110.561 161.44 111.441 160.12 111.201 158.88C110.961 157.96 110.241 157.24 109.321 157.04C108.801 156.92 108.201 157.08 107.801 157.44C107.281 157.92 106.761 158.4 106.281 158.96C105.441 159.8 104.561 160.6 103.641 161.32C103.521 161.4 103.401 161.48 103.281 161.56C103.161 161.64 103.401 161.48 103.281 161.56L103.081 161.72C102.881 161.84 102.681 161.96 102.481 162.08C102.001 162.32 101.521 162.56 101.001 162.8C98.2009 164 95.3209 165.04 92.4009 165.96C89.3609 166.96 86.2809 167.88 83.1609 168.76C81.4809 169.24 79.8409 169.72 78.1609 170.16L79.4809 170.88L73.6809 157.6L72.8409 155.72C72.6809 155.36 71.9609 154.72 71.5209 155L65.0809 158.56L54.8809 164.16L52.5209 165.44C51.6809 165.88 53.0009 167.4 53.6809 167L60.1209 163.48L70.3209 157.88L72.6809 156.6L71.3609 155.88L77.1609 169.16L78.0009 171.04C78.2409 171.56 78.7609 171.88 79.3209 171.76C83.3609 170.68 87.4009 169.48 91.4409 168.2C94.4009 167.28 97.3609 166.32 100.241 165.16C101.321 164.76 102.401 164.28 103.441 163.76C104.761 163.04 105.961 162.12 107.041 161.04C107.681 160.44 108.281 159.72 108.921 159.12C109.041 159.04 109.121 158.92 109.241 158.84C109.321 158.8 109.361 158.76 109.441 158.72C109.481 158.68 109.521 158.68 109.601 158.68C109.441 158.72 109.561 158.68 109.601 158.68C109.521 158.6 109.721 158.68 109.601 158.68C109.441 158.64 109.681 158.76 109.601 158.68C109.681 158.72 109.441 158.52 109.561 158.68C109.681 158.84 109.481 158.56 109.481 158.52C109.481 158.48 109.521 158.4 109.481 158.52C109.481 158.44 109.481 158.72 109.481 158.72C109.441 159.08 109.321 159.4 109.121 159.72C108.881 160.16 108.601 160.6 108.241 160.96C107.681 161.6 109.081 162.92 109.681 162.32C111.041 161.08 112.881 160 114.801 160.24C115.081 160.28 115.361 160.36 115.601 160.44C115.721 160.48 115.881 160.56 116.001 160.6C116.241 160.72 115.921 160.6 116.041 160.6L116.161 160.68C116.161 160.68 116.081 160.56 116.081 160.52C116.081 160.48 116.081 160.6 116.081 160.6C116.001 160.68 115.961 160.88 115.881 160.96C115.761 161.12 115.641 161.24 115.521 161.36C115.241 161.6 115.481 162.08 115.641 162.32C115.881 162.64 116.241 162.88 116.641 162.88C116.961 162.88 117.241 162.88 117.561 162.96C117.641 163 117.721 163 117.801 163.04L117.961 163.12C117.881 163.08 117.881 163.08 117.961 163.12C118.201 163.28 117.801 163 118.001 163.16C118.121 163.28 117.921 163 118.081 163.24C118.241 163.48 118.001 163.08 118.121 163.28C118.121 163.32 118.241 163.6 118.161 163.4C118.201 163.52 118.241 163.68 118.281 163.84C118.321 163.96 118.281 163.68 118.281 163.92C118.281 163.96 118.281 164 118.281 164.08C118.281 164.2 118.281 164.32 118.281 164.44C118.321 164.84 118.561 165.2 118.921 165.44C119.081 165.52 119.241 165.64 119.361 165.72C119.441 165.8 119.561 165.84 119.641 165.92C119.801 166.04 119.921 166.2 120.041 166.36C120.481 166.84 120.561 167.56 120.281 168.12C119.881 168.8 119.161 168.44 118.681 168.08C118.081 167.56 117.401 167.12 116.681 166.72C114.321 165.64 112.521 168.24 110.761 169.44L110.641 169.52L110.401 169.68L109.881 170.04C109.481 170.28 109.081 170.56 108.681 170.8C107.681 171.4 106.681 172 105.681 172.56C103.121 174 100.521 175.36 97.8809 176.68C92.0409 179.52 85.9609 182.12 79.6009 183.52C78.2009 183.84 76.8009 184.08 75.3609 184.2C74.1209 184.32 72.9209 184.32 71.6809 184.24C71.1209 184.2 70.5609 184.08 70.0009 183.96L69.6409 183.88L69.4409 183.8C69.4809 183.8 69.6009 183.84 69.4409 183.8C69.1609 183.72 68.9209 183.6 68.6409 183.48L68.3209 183.32L68.1609 183.24C68.0409 183.16 68.3609 183.36 68.1609 183.24C67.7209 183 67.2809 182.72 66.8809 182.4C65.9609 181.8 65.1209 181.12 64.2809 180.44C59.7609 176.6 56.2009 171.72 53.9209 166.24C53.8809 166.12 53.7209 165.72 53.8809 166.12C53.7209 165.64 53.3209 165.28 52.8409 165.16C52.6409 165.2 52.2409 165.48 52.4009 165.92Z" fill="#000005"/>
<path d="M114.483 165.319L114.603 165.239C114.643 165.199 114.723 165.199 114.763 165.159C114.763 165.159 114.523 165.279 114.643 165.199L114.763 165.159C114.923 165.079 115.123 165.039 115.283 164.959L115.603 164.879C115.723 164.839 115.803 164.879 115.603 164.879C115.683 164.879 115.723 164.839 115.803 164.839L116.203 164.759L116.363 164.719C116.403 164.719 116.643 164.679 116.483 164.719C116.323 164.759 116.563 164.719 116.603 164.719H117.003C117.083 164.719 117.203 164.719 117.043 164.719C117.203 164.719 117.323 164.759 117.483 164.799C117.483 164.799 117.723 164.879 117.563 164.799C117.643 164.839 117.723 164.839 117.763 164.879C118.043 164.959 118.283 165.119 118.523 165.279C118.963 165.519 119.483 165.519 119.923 165.279C120.203 165.119 120.523 164.719 120.123 164.439C118.843 163.559 117.203 163.439 115.723 163.719C114.883 163.879 114.083 164.119 113.323 164.519C113.003 164.679 112.723 165.079 113.083 165.359C113.523 165.599 114.043 165.599 114.483 165.359V165.319Z" fill="#000005"/>
<path d="M112.322 164.199C112.842 163.839 113.362 163.559 113.922 163.319L114.082 163.239L114.242 163.159C114.162 163.199 114.362 163.119 114.362 163.119L114.562 163.039C114.842 162.959 115.122 162.839 115.402 162.799C115.722 162.719 116.002 162.679 116.322 162.639C116.322 162.639 116.562 162.599 116.442 162.639H116.682C116.842 162.639 117.042 162.639 117.202 162.639C117.522 162.679 117.802 162.439 117.842 162.119C117.842 162.039 117.842 161.919 117.802 161.839C117.642 161.359 117.202 161.039 116.682 160.999C115.282 160.959 113.922 161.279 112.682 161.839C112.082 162.079 111.482 162.399 110.962 162.799C110.162 163.319 111.562 164.719 112.322 164.199Z" fill="#000005"/>
<path d="M170.483 69.3601C170.443 74.2401 170.443 79.0801 170.483 83.9601C170.483 85.1201 170.523 86.2801 170.563 87.4001C170.603 88.3601 172.523 87.9201 172.483 87.0801C172.323 82.2401 172.363 77.3601 172.363 72.4801C172.363 71.3201 172.363 70.1601 172.363 69.0401C172.363 68.0801 170.443 68.5201 170.483 69.3601Z" fill="#000005"/>
<path d="M172.083 76.1204H178.123C178.603 76.1204 178.683 75.4804 178.523 75.1604C178.323 74.7204 177.843 74.4004 177.363 74.4004H171.323C170.843 74.4004 170.763 75.0404 170.923 75.3604C171.123 75.8004 171.603 76.1204 172.083 76.1204Z" fill="#000005"/>
<path d="M168.56 88.1206L179.72 88.2006C180.24 88.1606 180.68 87.8806 180.92 87.4406C181.08 87.2406 181 86.9206 180.8 86.8006C180.72 86.7206 180.6 86.7206 180.48 86.7206L169.32 86.6406C168.8 86.6806 168.36 86.9606 168.12 87.4006C167.96 87.6006 168.04 87.9206 168.24 88.0406C168.32 88.1206 168.44 88.1606 168.56 88.1206Z" fill="#000005"/>
<path d="M173.762 87.6402V94.7602C173.762 95.2002 174.282 95.4402 174.682 95.4802C174.962 95.5202 175.762 95.4802 175.762 95.0002V87.8802C175.762 87.4402 175.242 87.2002 174.842 87.1602C174.562 87.1602 173.762 87.1602 173.762 87.6402Z" fill="#000005"/>
<path d="M100.441 45.24L110.721 45.32C111.121 45.32 111.601 45.04 111.481 44.6C111.361 44.16 110.681 44.04 110.281 44.04L100.001 43.96C99.6014 43.96 99.1214 44.24 99.2414 44.68C99.3614 45.12 100.081 45.24 100.441 45.24Z" fill="#000005"/>
<path d="M106.961 39.0806V43.8006C107.001 44.2406 107.361 44.5606 107.801 44.6006C108.041 44.6406 108.281 44.6406 108.521 44.5606C108.681 44.4806 108.921 44.3606 108.921 44.2006V39.4806C108.881 39.0406 108.521 38.7206 108.081 38.6806C107.841 38.6406 107.601 38.6406 107.361 38.7206C107.201 38.8006 106.961 38.9206 106.961 39.0806Z" fill="#000005"/>
<path d="M104.562 45.44V51.76C104.562 52.16 105.163 52 105.403 51.96C105.643 51.88 105.883 51.76 106.083 51.64C106.203 51.56 106.403 51.4 106.403 51.24V44.92C106.403 44.52 105.803 44.64 105.562 44.72C105.322 44.8 105.083 44.92 104.883 45.04C104.803 45.12 104.562 45.28 104.562 45.44Z" fill="#000005"/>
<path d="M173.882 94.0399C173.882 94.0399 172.042 94.9199 173.162 96.7599C174.282 98.5999 176.922 97.3199 176.562 95.3999C176.202 93.4799 173.882 94.0399 173.882 94.0399Z" fill="#68BA7F"/>
<path d="M174.642 97.84C173.962 97.84 173.322 97.44 172.962 96.84C172.602 96.32 172.522 95.72 172.642 95.12C172.842 94.56 173.242 94.12 173.762 93.84H173.802C173.842 93.84 175.042 93.52 175.922 94.08C176.362 94.36 176.642 94.84 176.722 95.36C176.922 96.52 176.122 97.64 174.922 97.84C174.842 97.84 174.762 97.84 174.642 97.84ZM173.962 94.2C173.562 94.44 173.242 94.8 173.082 95.24C172.962 95.72 173.082 96.24 173.362 96.64C173.722 97.32 174.562 97.64 175.282 97.32C176.082 97.04 176.522 96.24 176.402 95.4C176.362 95 176.122 94.64 175.762 94.4C175.202 94.16 174.562 94.08 173.962 94.2Z" fill="#68BA7F"/>
<path d="M170.722 66.6004C170.722 66.6004 168.882 67.4804 170.002 69.3204C171.122 71.1604 173.762 69.8804 173.402 67.9604C173.042 66.0404 170.722 66.6004 170.722 66.6004Z" fill="#68BA7F"/>
<path d="M171.482 70.4006C170.802 70.4006 170.162 70.0006 169.802 69.4006C169.442 68.8806 169.362 68.2806 169.482 67.6806C169.682 67.1206 170.082 66.6806 170.602 66.4006H170.642C170.682 66.4006 171.882 66.0806 172.762 66.6406C173.202 66.9206 173.482 67.4006 173.562 67.9206C173.762 69.0806 172.962 70.2006 171.762 70.4006C171.682 70.4006 171.562 70.4006 171.482 70.4006ZM170.802 66.7606C170.402 67.0006 170.082 67.3606 169.922 67.8006C169.802 68.2806 169.922 68.8006 170.202 69.2006C170.562 69.8806 171.402 70.2006 172.122 69.8806C172.882 69.6006 173.362 68.8006 173.242 68.0006C173.202 67.6006 172.962 67.2406 172.602 67.0006C172.042 66.7206 171.402 66.6406 170.802 66.7606Z" fill="#68BA7F"/>
<path d="M177.523 73.3602C177.523 73.3602 175.683 74.2402 176.803 76.0802C177.923 77.9202 180.563 76.6402 180.203 74.7202C179.843 72.8002 177.523 73.3602 177.523 73.3602Z" fill="#68BA7F"/>
<path d="M178.282 77.2004C177.602 77.2004 176.962 76.8004 176.602 76.2004C176.242 75.6804 176.162 75.0804 176.282 74.4804C176.482 73.9204 176.882 73.4804 177.402 73.2004H177.442C177.482 73.2004 178.682 72.8804 179.562 73.4404C180.002 73.7204 180.282 74.2004 180.362 74.7204C180.562 75.8804 179.762 77.0004 178.562 77.2004C178.482 77.2004 178.362 77.2004 178.282 77.2004ZM177.562 73.5604C177.162 73.8004 176.842 74.1604 176.682 74.6004C176.562 75.0804 176.682 75.6004 176.962 76.0004C177.322 76.6804 178.162 77.0004 178.882 76.6804C179.682 76.4004 180.122 75.6004 180.002 74.7604C179.962 74.3604 179.722 74.0004 179.362 73.7604C178.802 73.5204 178.162 73.4404 177.562 73.5604Z" fill="#68BA7F"/>
<path d="M180.843 85.4803C180.843 85.4803 179.003 86.3603 180.123 88.2003C181.243 90.0403 183.883 88.7603 183.523 86.8403C183.163 84.9203 180.843 85.4803 180.843 85.4803Z" fill="#68BA7F"/>
<path d="M181.603 89.3205C180.923 89.3205 180.283 88.9205 179.923 88.3205C179.563 87.8005 179.483 87.2005 179.603 86.6005C179.803 86.0405 180.203 85.6005 180.723 85.3205H180.763C180.803 85.3205 182.003 85.0005 182.883 85.5605C183.323 85.8405 183.603 86.3205 183.683 86.8405C183.883 88.0005 183.083 89.1205 181.923 89.3205C181.803 89.3205 181.723 89.3205 181.603 89.3205ZM180.923 85.6805C180.523 85.9205 180.203 86.2805 180.043 86.7205C179.923 87.2005 180.043 87.7205 180.323 88.1205C180.683 88.8005 181.523 89.1205 182.243 88.8005C183.043 88.5205 183.483 87.7205 183.363 86.8805C183.323 86.4805 183.083 86.1205 182.723 85.8805C182.123 85.6005 181.483 85.5205 180.923 85.6805Z" fill="#68BA7F"/>
<path d="M104.601 50.9608C104.601 50.9608 102.761 51.8408 103.881 53.6808C105.001 55.5208 107.641 54.2408 107.281 52.3208C106.921 50.4008 104.601 50.9608 104.601 50.9608Z" fill="#68BA7F"/>
<path d="M105.361 54.76C104.681 54.76 104.041 54.36 103.681 53.76C103.321 53.24 103.241 52.64 103.361 52.04C103.561 51.48 103.961 51.04 104.481 50.76H104.521C104.561 50.76 105.761 50.44 106.641 51C107.081 51.28 107.361 51.76 107.441 52.28C107.641 53.44 106.841 54.56 105.681 54.76C105.561 54.76 105.441 54.8 105.361 54.76ZM104.641 51.16C104.241 51.4 103.921 51.76 103.761 52.2C103.641 52.68 103.761 53.2 104.041 53.6C104.401 54.28 105.241 54.6 105.961 54.28C106.761 54 107.201 53.2 107.081 52.36C107.041 51.96 106.801 51.6 106.441 51.36C105.881 51.08 105.241 51 104.641 51.16Z" fill="#68BA7F"/>
<path d="M107.203 36.3202C107.203 36.3202 105.363 37.2002 106.483 39.0402C107.603 40.8802 110.243 39.6002 109.883 37.6802C109.523 35.7601 107.203 36.3202 107.203 36.3202Z" fill="#68BA7F"/>
<path d="M107.962 40.1203C107.282 40.1203 106.642 39.7203 106.282 39.1203C105.922 38.6003 105.842 38.0003 105.962 37.4003C106.162 36.8403 106.562 36.4003 107.082 36.1203H107.122C107.162 36.1203 108.362 35.8003 109.242 36.3603C109.682 36.6403 109.962 37.1203 110.042 37.6403C110.242 38.8003 109.442 39.9203 108.282 40.1203C108.162 40.1203 108.042 40.1203 107.962 40.1203ZM107.242 36.4803C106.842 36.7203 106.522 37.0803 106.362 37.5203C106.242 38.0003 106.362 38.5203 106.642 38.9203C107.002 39.6003 107.842 39.9203 108.562 39.6003C109.362 39.3203 109.802 38.5203 109.682 37.6803C109.642 37.2803 109.402 36.9203 109.042 36.6803C108.482 36.4403 107.842 36.3603 107.242 36.4803Z" fill="#68BA7F"/>
<path d="M98.4018 42.9998C98.4018 42.9998 96.5618 43.8798 97.6818 45.7198C98.8018 47.5598 101.442 46.2798 101.082 44.3598C100.722 42.4398 98.4018 42.9998 98.4018 42.9998Z" fill="#68BA7F"/>
<path d="M99.1614 46.8C98.4814 46.8 97.8414 46.4 97.4814 45.8C97.1214 45.28 97.0414 44.68 97.1614 44.08C97.3614 43.52 97.7614 43.08 98.2814 42.8H98.3214C98.3614 42.8 99.5614 42.48 100.441 43.04C100.881 43.32 101.161 43.8 101.241 44.32C101.441 45.48 100.641 46.6 99.4414 46.8C99.3614 46.8 99.2414 46.8 99.1614 46.8ZM98.4414 43.2C98.0414 43.44 97.7214 43.8 97.5614 44.24C97.4414 44.72 97.5614 45.24 97.8414 45.64C98.2014 46.32 99.0414 46.64 99.7614 46.32C100.561 46.04 101.001 45.24 100.881 44.4C100.841 44 100.601 43.64 100.241 43.4C99.6814 43.12 99.0414 43.04 98.4414 43.2Z" fill="#68BA7F"/>
<path d="M143.962 111C143.882 113.64 143.922 116.28 144.082 118.92C144.122 119.4 144.802 119.68 145.202 119.64C145.642 119.68 146.002 119.32 146.042 118.88C146.042 118.84 146.042 118.8 146.042 118.8C145.882 116.32 145.842 113.8 145.922 111.32C145.922 110.84 145.522 110.44 145.042 110.4C144.642 110.32 143.962 110.52 143.962 111Z" fill="#68BA7F"/>
<path d="M137.32 114.561V123.601C137.32 124.441 139.24 125.001 139.24 124.041V115.001C139.24 114.161 137.32 113.601 137.32 114.561Z" fill="#68BA7F"/>
<path d="M137.402 106.08V109.08C137.402 109.28 137.442 109.48 137.562 109.64C137.722 109.84 137.922 110 138.162 110.12C138.362 110.24 138.602 110.28 138.802 110.24C138.962 110.2 139.162 110.08 139.162 109.92V106.92C139.162 106.72 139.122 106.52 139.002 106.36C138.842 106.16 138.642 106 138.402 105.88C138.202 105.76 137.962 105.72 137.762 105.76C137.602 105.8 137.402 105.88 137.402 106.08Z" fill="#68BA7F"/>
<path d="M131.36 106.8L131.56 119.32C131.56 120.08 133.28 120.96 133.28 119.92L133.08 107.4C133.08 106.68 131.32 105.76 131.36 106.8Z" fill="#68BA7F"/>
<path d="M115.041 66.1602C115.041 66.1602 114.641 74.3602 115.041 75.3202C115.441 76.2802 145.081 85.8402 163.441 74.4002V66.2002H115.041V66.1602Z" fill="#68BA7F"/>
<path d="M114.122 65.8009C114.042 67.5609 113.962 69.3209 113.962 71.0809C113.922 72.1609 113.962 73.2009 114.002 74.2409C114.042 74.7209 114.082 75.0409 114.482 75.3209C115.482 75.9609 116.682 76.3209 117.802 76.6809C119.762 77.3209 121.802 77.8409 123.802 78.2809C129.402 79.5609 135.122 80.2409 140.842 80.3209C147.282 80.3609 153.922 79.5209 159.922 77.0009C160.682 76.6809 161.402 76.3209 162.122 75.9609C162.482 75.8009 162.802 75.6009 163.122 75.4009C163.522 75.2409 163.882 75.0009 164.242 74.7609C164.402 74.6009 164.362 74.5209 164.362 74.2809V66.4809C164.362 66.2409 163.922 66.0809 163.762 66.0009C163.402 65.8409 163.042 65.7609 162.642 65.7209H116.242C115.642 65.7209 115.002 65.6809 114.362 65.7209C114.322 65.7209 114.322 65.7209 114.282 65.7209C113.842 65.7209 114.402 66.1209 114.522 66.1609C114.922 66.4009 115.362 66.5209 115.842 66.5209H158.282C160.242 66.5209 162.202 66.6009 164.122 66.5209H164.202L162.482 65.7609V73.4009C162.482 73.5209 162.522 73.8409 162.482 73.9609C162.442 74.0809 161.882 74.3209 161.722 74.4009C161.362 74.6009 161.002 74.8009 160.642 75.0009C155.042 77.9609 148.682 79.1609 142.362 79.4409C136.642 79.6409 130.922 79.1609 125.322 78.0409C123.162 77.6409 121.322 77.2009 119.202 76.6009L118.002 76.2409L117.922 76.2009L117.682 76.1209L117.202 75.9609C116.922 75.8809 116.642 75.7609 116.402 75.6809C116.202 75.6009 116.362 75.6809 116.442 75.6809L116.282 75.6009L115.962 75.4809C115.722 75.3609 116.122 75.5609 115.962 75.4809C115.762 75.3609 115.802 75.4009 115.962 75.4809C115.842 75.4009 115.922 75.4809 115.962 75.4809C115.922 75.4809 116.002 75.6009 115.962 75.4809C115.842 74.7209 115.802 73.9609 115.802 73.2409C115.802 71.1209 115.882 69.0009 115.962 66.8809C115.962 66.7209 115.962 66.6009 115.962 66.4809C116.042 66.0009 114.122 65.6009 114.122 65.8009Z" fill="#68BA7F"/>
<path d="M115.043 66.1604C115.043 66.1604 122.203 69.7604 136.283 70.4804C156.363 71.4804 163.443 66.1604 163.443 66.1604C163.443 66.1604 163.923 63.5204 150.403 62.4804C136.883 61.4404 115.203 62.6004 115.043 66.1604Z" fill="#68BA7F"/>
<path d="M115.002 66.6805C116.682 67.4805 118.482 68.1205 120.282 68.6005C125.122 69.9605 130.122 70.7605 135.122 71.0805C140.722 71.5205 146.362 71.3605 151.962 70.6405C155.122 70.2405 158.242 69.4805 161.202 68.3205C161.962 68.0405 162.682 67.6805 163.362 67.3205C163.642 67.2005 163.882 67.0405 164.122 66.8405C164.362 66.6005 164.242 66.2805 164.122 66.0005C163.722 65.3205 163.122 64.8005 162.442 64.4405C161.322 63.8005 160.082 63.3605 158.842 63.0805C156.522 62.5205 154.162 62.1605 151.802 61.9605C146.802 61.5205 141.802 61.3205 136.802 61.4405C132.122 61.4805 127.442 61.8005 122.802 62.4005C121.042 62.6005 119.322 62.9605 117.602 63.4005C116.602 63.6805 115.442 64.0405 114.642 64.8005C114.402 65.0405 114.242 65.3605 114.202 65.6805C114.162 66.3205 115.842 67.2805 115.882 66.6405C115.882 66.5605 115.882 66.5205 115.922 66.4405C115.922 66.4005 115.962 66.3605 115.922 66.4405C115.922 66.4005 115.962 66.3605 115.962 66.3205C116.042 66.2005 116.162 66.0805 116.282 65.9605C116.602 65.6805 116.962 65.4805 117.362 65.3205C118.642 64.8005 120.002 64.4405 121.362 64.2005C125.562 63.4805 129.802 63.0805 134.082 62.9605C138.882 62.7605 143.682 62.8005 148.442 63.0405C151.002 63.1605 153.602 63.4005 156.122 63.7605C157.122 63.9205 158.122 64.0805 159.122 64.3205C159.802 64.4805 160.482 64.6405 161.122 64.8805C161.362 64.9605 161.602 65.0805 161.842 65.1605C162.082 65.2405 161.722 65.0805 161.962 65.2005L162.242 65.3605C162.282 65.4005 162.522 65.5605 162.362 65.4405C162.202 65.3205 162.402 65.4805 162.442 65.5205C162.362 65.4405 162.682 65.6805 162.442 65.5205C162.522 65.6005 162.522 65.6005 162.562 65.6405C162.682 65.7205 162.362 65.4405 162.522 65.6005C162.682 65.7605 162.602 65.6805 162.522 65.5605C162.562 65.6005 162.642 65.8005 162.602 65.6405C162.562 65.4805 162.602 65.6805 162.602 65.6805C162.562 65.7605 162.642 65.5205 162.602 65.6405C162.602 65.6405 162.602 65.6405 162.602 65.6805L162.762 65.4805C161.962 66.0005 161.122 66.4405 160.242 66.8005C157.562 67.8805 154.762 68.6405 151.882 69.0805C146.722 69.8405 141.522 70.0805 136.322 69.8005C131.122 69.6005 125.922 68.8805 120.882 67.6005C118.882 67.0805 116.882 66.4005 114.962 65.6005C114.962 65.6005 115.242 65.7205 115.082 65.6405C114.842 65.5205 114.282 65.2805 114.202 65.6805C114.122 66.0805 114.762 66.5205 115.002 66.6805Z" fill="#68BA7F"/>
<path d="M114.84 66.84C115.96 67.52 117.2 68.08 118.44 68.52C121.92 69.8 125.56 70.64 129.24 71.08C135.12 71.8 141.04 71.92 146.96 71.44C151.12 71.2 155.28 70.6 159.32 69.6C160.44 69.32 161.56 69 162.64 68.64C163.08 68.52 163.56 68.32 163.96 68.12C163.96 68.12 164 68.12 164 68.08C164.88 67.68 163.52 66.2 162.76 66.56C162.48 66.68 162.2 66.8 161.92 66.92L161.4 67.12C161.96 66.88 162.24 66.24 162.04 65.68C161.8 65.12 161.16 64.84 160.6 65.04C160.04 65.24 159.76 65.92 159.96 66.48C160.16 67 160.72 67.28 161.24 67.16L160.92 67.28C160.4 67.44 159.88 67.6 159.32 67.76C155.68 68.72 151.96 69.32 148.2 69.64C142.4 70.2 136.52 70.2 130.72 69.64C126.84 69.28 123 68.48 119.28 67.28C118.68 67.08 118.12 66.88 117.56 66.64L117.2 66.48C117.04 66.4 117.28 66.52 117.2 66.48L117.04 66.4C116.84 66.32 116.68 66.24 116.48 66.16C116.08 65.96 115.68 65.72 115.24 65.52L115.2 65.48C114.88 65.24 114.28 65.24 114.12 65.68C113.96 66.12 114.48 66.56 114.84 66.84Z" fill="white"/>
<path d="M115.041 42.8809C115.041 42.8809 114.641 51.0809 115.041 52.0009C115.441 52.9209 145.081 62.5209 163.441 51.0809V42.8809H115.041Z" fill="#68BA7F"/>
<path d="M114.12 42.5607C114.04 44.3207 113.96 46.0807 113.96 47.8407C113.92 48.9207 113.92 49.9607 114 51.0407C114.04 51.5207 114.08 51.8407 114.48 52.1207C115.48 52.7607 116.68 53.1207 117.8 53.4807C119.76 54.1207 121.8 54.6407 123.8 55.0807C129.4 56.3607 135.12 57.0407 140.84 57.1207C147.28 57.1607 153.92 56.3207 159.88 53.8007C160.64 53.4807 161.36 53.1607 162.08 52.7607C162.44 52.6007 162.76 52.4007 163.08 52.2007C163.48 52.0407 163.84 51.8007 164.2 51.5607C164.36 51.4007 164.32 51.3207 164.32 51.0807V43.2807C164.32 43.0407 163.88 42.8807 163.72 42.8007C163.36 42.6407 163 42.5607 162.6 42.5207H116.2C115.6 42.5207 114.96 42.4807 114.32 42.5207C114.28 42.5207 114.28 42.5207 114.24 42.5207C113.8 42.5207 114.36 42.9207 114.48 42.9607C114.88 43.2007 115.32 43.3207 115.8 43.3207H158.24C160.2 43.3207 162.16 43.4007 164.08 43.3207H164.16L162.44 42.6007V50.2807C162.44 50.4007 162.48 50.7207 162.44 50.8007C162.4 50.8807 161.84 51.1607 161.68 51.2407C161.32 51.4407 160.96 51.6407 160.6 51.8407C155 54.8007 148.64 56.0007 142.32 56.2807C136.6 56.4807 130.88 56.0007 125.28 54.8407C123.12 54.4407 121.28 54.0007 119.16 53.4007C118.76 53.2807 118.36 53.1607 117.96 53.0407L117.88 53.0007L117.64 52.9207L117.16 52.7607L116.36 52.4807C116.16 52.4007 116.32 52.4807 116.4 52.4807L116.24 52.4407L115.92 52.3207C115.68 52.2007 116.08 52.4007 115.92 52.3207C115.72 52.2007 115.76 52.2407 115.92 52.3207C115.8 52.2407 115.88 52.3207 115.92 52.3207C115.88 52.3207 115.96 52.4407 115.92 52.3207C115.8 51.5607 115.76 50.8007 115.76 50.0407C115.76 47.9207 115.84 45.8007 115.92 43.6807C115.92 43.5607 115.92 43.4007 115.92 43.2407C116 42.7207 114.12 42.3607 114.12 42.5607Z" fill="#68BA7F"/>
<path d="M115.043 42.88C115.043 42.88 122.203 46.48 136.283 47.2C156.363 48.2 163.443 42.88 163.443 42.88C163.443 42.88 163.923 40.24 150.403 39.2C136.883 38.16 115.203 39.36 115.043 42.88Z" fill="#68BA7F"/>
<path d="M115.003 43.4003C116.723 44.2003 118.483 44.8403 120.283 45.3203C125.123 46.6803 130.123 47.4803 135.123 47.8003C140.723 48.2403 146.363 48.0803 151.963 47.3603C155.123 46.9603 158.243 46.2003 161.203 45.0403C161.963 44.7603 162.683 44.4003 163.363 44.0403C163.643 43.9203 163.883 43.7603 164.123 43.5603C164.363 43.3203 164.243 43.0003 164.123 42.7203C163.723 42.0403 163.123 41.5203 162.443 41.1603C161.323 40.5203 160.083 40.0803 158.843 39.8003C156.523 39.2403 154.163 38.8803 151.803 38.6803C146.803 38.2403 141.803 38.0403 136.803 38.1603C132.123 38.2003 127.443 38.5203 122.803 39.0803C121.043 39.2803 119.323 39.6403 117.643 40.0803C116.643 40.3603 115.443 40.7203 114.683 41.4803C114.443 41.7203 114.283 42.0403 114.243 42.3603C114.203 43.0003 115.883 43.9603 115.923 43.3203C115.923 43.2403 115.923 43.2003 115.963 43.1203C115.963 43.0803 116.003 43.0403 115.963 43.1203C115.963 43.0803 116.003 43.0403 116.003 43.0003C116.083 42.8803 116.203 42.7603 116.323 42.6403C116.643 42.3603 117.003 42.1603 117.403 42.0003C118.683 41.4803 120.043 41.1203 121.403 40.8803C125.603 40.1603 129.843 39.7603 134.123 39.6403C138.923 39.4403 143.723 39.4803 148.483 39.7203C151.043 39.8403 153.643 40.0803 156.163 40.4403C157.163 40.6003 158.163 40.7603 159.163 41.0003C159.843 41.1603 160.523 41.3203 161.163 41.5603C161.403 41.6403 161.643 41.7603 161.883 41.8403C162.123 41.9203 161.763 41.7603 162.003 41.8803L162.283 42.0403C162.323 42.0803 162.563 42.2403 162.403 42.1203C162.243 42.0003 162.443 42.1603 162.483 42.2003C162.403 42.1203 162.723 42.3603 162.483 42.2003C162.563 42.2803 162.563 42.2803 162.603 42.3203C162.723 42.4003 162.403 42.1203 162.563 42.2803C162.723 42.4403 162.643 42.3603 162.563 42.2403C162.603 42.2803 162.683 42.4803 162.643 42.3203C162.603 42.1603 162.643 42.3603 162.643 42.4003C162.603 42.4803 162.683 42.2403 162.643 42.3603V42.4003L162.803 42.2003C162.043 42.7203 161.203 43.1603 160.323 43.5203C157.643 44.6003 154.843 45.3603 151.963 45.8003C146.803 46.5603 141.603 46.8003 136.403 46.5203C131.203 46.3203 126.043 45.6003 121.003 44.3203C119.003 43.8003 117.003 43.1203 115.083 42.3203L115.203 42.4003C114.963 42.2803 114.403 42.0403 114.323 42.4403C114.243 42.8403 114.723 43.2803 115.003 43.4003Z" fill="#68BA7F"/>
<path d="M114.121 43.3206C115.201 43.9606 116.361 44.5206 117.561 44.9206C121.081 46.2006 124.721 47.0406 128.441 47.4406C134.361 48.1206 140.321 48.2406 146.241 47.7206C150.321 47.4406 154.361 46.8406 158.321 45.8806C160.041 45.4806 161.721 44.9206 163.361 44.2006L163.641 44.0806C163.761 44.0406 164.361 43.7606 164.201 43.6406C164.041 43.5206 163.161 44.0006 163.041 44.0806C163.081 44.0806 163.401 43.9206 163.241 44.0006C163.081 44.0806 163.521 43.8806 163.281 43.9606L163.001 44.0806L162.761 44.1606C162.601 44.2406 162.401 44.2806 162.241 44.3206C162.441 44.2406 162.161 44.3606 162.081 44.3606L161.721 44.4806C161.201 44.6406 160.681 44.8006 160.161 44.9206C156.441 45.8406 152.641 46.4806 148.841 46.7606C143.041 47.2806 137.241 47.2806 131.441 46.6806C127.561 46.3206 123.761 45.5206 120.041 44.2806C119.041 43.9206 118.041 43.5206 117.081 43.0806C116.681 42.8806 116.281 42.6006 115.881 42.4406L115.841 42.4006C115.641 42.2806 115.041 42.6006 114.881 42.6806C114.721 42.9206 114.401 43.0806 114.121 43.3206Z" fill="white"/>
<path d="M114.842 19.04C114.842 19.04 114.442 27.24 114.842 28.2C115.242 29.16 144.882 38.72 163.202 27.28V19.04H114.842Z" fill="#68BA7F"/>
<path d="M113.88 18.7208C113.8 20.4808 113.72 22.2408 113.72 24.0008C113.68 25.0808 113.72 26.1208 113.76 27.2008C113.8 27.6808 113.84 28.0008 114.24 28.2808C115.24 28.9208 116.44 29.2808 117.56 29.6408C119.56 30.2808 121.56 30.8008 123.56 31.2408C129.16 32.5208 134.88 33.2008 140.6 33.2408C147.04 33.2808 153.68 32.4408 159.68 29.9208C160.44 29.6008 161.16 29.2808 161.88 28.8808C162.24 28.7208 162.56 28.5208 162.88 28.3208C163.28 28.1608 163.64 27.9208 164 27.6808C164.16 27.5208 164.12 27.4408 164.12 27.2008V19.4008C164.12 19.1608 163.68 19.0008 163.52 18.9208C163.16 18.7608 162.8 18.6808 162.4 18.6408H116C115.4 18.6408 114.72 18.6008 114.12 18.6408H114.04C113.6 18.6408 114.16 19.0408 114.28 19.0808C114.68 19.3208 115.12 19.4408 115.6 19.4408H158.04C160 19.4408 161.96 19.5208 163.92 19.4408H164L162.28 18.6808V26.3608C162.28 26.4808 162.32 26.8008 162.28 26.8808C162.24 26.9608 161.68 27.2408 161.52 27.3208C161.16 27.5208 160.8 27.7208 160.44 27.9208C154.84 30.8808 148.48 32.0808 142.16 32.3608C136.44 32.5608 130.72 32.0808 125.12 30.9608C122.96 30.5608 121.12 30.1208 119 29.5208C118.6 29.4008 118.2 29.2808 117.8 29.1608L117.72 29.1208L117.48 29.0408L117 28.8808C116.72 28.8008 116.44 28.6808 116.2 28.6008C115.96 28.5208 116.16 28.6008 116.24 28.6008L116.08 28.5208C115.96 28.4808 115.88 28.4408 115.76 28.4008C115.52 28.2808 115.92 28.4808 115.72 28.4008C115.52 28.2808 115.52 28.3208 115.72 28.4008C115.6 28.3208 115.68 28.4008 115.72 28.4008C115.68 28.3608 115.76 28.5208 115.72 28.4008C115.6 27.6408 115.56 26.8808 115.56 26.1208C115.56 24.0008 115.64 21.8808 115.72 19.7608C115.72 19.6408 115.72 19.4808 115.72 19.3608C115.8 18.8808 113.88 18.5208 113.88 18.7208Z" fill="#68BA7F"/>
<path d="M114.84 19.0402C114.84 19.0402 122 22.6402 136.08 23.3602C156.16 24.3602 163.2 19.0402 163.2 19.0402C163.2 19.0402 163.68 16.4002 150.16 15.3602C136.64 14.3202 114.96 15.5202 114.84 19.0402Z" fill="#68BA7F"/>
<path d="M114.761 19.5604C116.481 20.3604 118.241 21.0004 120.041 21.4804C124.881 22.8404 129.881 23.6404 134.881 23.9604C140.481 24.4004 146.121 24.2404 151.721 23.5204C154.881 23.1204 158.001 22.3604 160.961 21.2004C161.721 20.9204 162.441 20.5604 163.121 20.2004C163.401 20.0804 163.641 19.9204 163.881 19.7204C164.121 19.4804 164.001 19.1604 163.881 18.8804C163.481 18.2004 162.881 17.6804 162.201 17.3204C161.081 16.6804 159.841 16.2404 158.601 15.9604C156.281 15.4004 153.921 15.0404 151.561 14.8404C146.561 14.4004 141.561 14.2004 136.561 14.3204C131.881 14.3604 127.201 14.6804 122.561 15.2404C120.801 15.4404 119.081 15.8004 117.401 16.2404C116.401 16.5204 115.201 16.8804 114.441 17.6404C114.201 17.8804 114.041 18.2004 114.001 18.5204C113.961 19.1604 115.641 20.1204 115.681 19.4804C115.681 19.4004 115.681 19.3604 115.721 19.2804C115.721 19.2404 115.761 19.2004 115.721 19.2804C115.721 19.2404 115.761 19.2004 115.761 19.1604C115.841 19.0404 115.961 18.9204 116.081 18.8004C116.401 18.5204 116.761 18.3204 117.161 18.1604C118.441 17.6404 119.801 17.2804 121.161 17.0404C125.361 16.3204 129.601 15.9204 133.881 15.8004C138.681 15.6004 143.481 15.6004 148.241 15.8804C150.801 16.0004 153.401 16.2404 155.921 16.6004C156.921 16.7604 157.921 16.9204 158.921 17.1604C159.601 17.3204 160.281 17.4804 160.921 17.7204C161.161 17.8004 161.401 17.9204 161.641 18.0004C161.881 18.0804 161.521 17.9204 161.761 18.0404C161.841 18.0804 161.961 18.1604 162.041 18.2004C162.121 18.2404 162.321 18.4004 162.161 18.2804C162.001 18.1604 162.201 18.3204 162.241 18.3604C162.161 18.2804 162.481 18.5204 162.241 18.3604C162.281 18.4004 162.321 18.4404 162.361 18.4804C162.481 18.5604 162.161 18.2804 162.321 18.4404C162.481 18.6004 162.401 18.5204 162.281 18.4004C162.321 18.4404 162.401 18.6404 162.361 18.4804C162.321 18.3204 162.361 18.5204 162.361 18.5604C162.321 18.6404 162.401 18.4004 162.361 18.5204C162.361 18.5204 162.361 18.5204 162.361 18.5604L162.521 18.3604C161.721 18.8804 160.881 19.3204 159.961 19.6804C157.281 20.7604 154.481 21.5204 151.601 21.9604C146.441 22.7204 141.241 22.9604 136.041 22.6804C130.841 22.4804 125.681 21.7604 120.601 20.4804C118.601 19.9604 116.601 19.2804 114.681 18.4804C114.681 18.4804 114.961 18.6004 114.801 18.5604C114.561 18.4404 114.001 18.2004 113.921 18.6004C113.841 19.0004 114.521 19.4404 114.761 19.5604Z" fill="#68BA7F"/>
<path d="M114.121 19.5206C115.241 20.2006 116.441 20.7606 117.681 21.2006C121.201 22.4806 124.841 23.3606 128.561 23.8006C134.441 24.5206 140.401 24.6406 146.361 24.2006C150.561 23.9606 154.761 23.3606 158.881 22.4006C160.521 22.0406 162.081 21.5606 163.601 20.8806L163.641 20.8406C164.041 20.6406 164.321 20.2806 164.001 19.8806C163.641 19.5206 163.121 19.4006 162.641 19.6006C162.361 19.7206 162.081 19.8406 161.801 19.9606C161.441 20.0806 161.081 20.2406 160.681 20.3606C160.441 20.4406 160.201 20.5206 159.961 20.5606L159.761 20.6006L159.641 20.6406L159.521 20.6806L159.281 20.7606C155.641 21.7206 151.961 22.3206 148.201 22.6406C142.441 23.2006 136.641 23.2006 130.881 22.6406C128.641 22.4006 126.401 22.0806 124.201 21.6006C123.321 21.4006 122.441 21.2006 121.601 20.9606C120.761 20.7206 120.401 20.6006 119.601 20.3606C118.601 20.0006 117.601 19.6006 116.641 19.1606C116.361 19.0406 116.081 18.8806 115.801 18.7606C115.521 18.6406 116.001 18.8806 115.721 18.7206L115.561 18.6406L115.521 18.6006C115.081 18.3206 114.521 18.3206 114.121 18.6006C113.841 18.7606 113.761 19.1206 113.921 19.4006C114.001 19.4406 114.041 19.5206 114.121 19.5206Z" fill="white"/>
<path d="M115.482 89.7607C115.482 89.7607 115.082 97.9607 115.482 98.8807C115.882 99.8007 145.522 109.401 163.882 97.9607V89.7607H115.482Z" fill="#68BA7F"/>
<path d="M114.522 89.4406C114.442 91.2006 114.362 92.9606 114.362 94.7206C114.362 95.7606 114.322 96.8406 114.402 97.9206C114.442 98.4006 114.482 98.7206 114.882 99.0006C115.882 99.6406 117.082 100.001 118.202 100.361C120.202 101.001 122.202 101.521 124.202 101.961C129.802 103.241 135.522 103.881 141.242 103.961C147.682 104.001 154.322 103.161 160.322 100.641C161.082 100.321 161.802 99.9606 162.522 99.6006C162.882 99.4406 163.202 99.2406 163.522 99.0406C163.922 98.8406 164.282 98.6406 164.642 98.4006C164.802 98.2406 164.762 98.1606 164.762 97.9206V90.1206C164.762 89.8806 164.322 89.7206 164.162 89.6406C163.802 89.4806 163.442 89.4006 163.042 89.3606H116.642C116.042 89.3606 115.362 89.3206 114.762 89.3606C114.722 89.3606 114.722 89.3606 114.682 89.3606C114.242 89.3606 114.802 89.7606 114.922 89.8006C115.322 90.0406 115.762 90.1606 116.242 90.1606H158.682C160.642 90.1606 162.602 90.2406 164.562 90.1606H164.642L162.922 89.4006V97.0406C162.922 97.1606 162.962 97.4806 162.922 97.6006C162.882 97.7206 162.322 97.9606 162.162 98.0406C161.802 98.2406 161.442 98.4406 161.082 98.6406C155.482 101.601 149.082 102.801 142.802 103.081C137.082 103.281 131.362 102.801 125.762 101.681C123.602 101.241 121.762 100.841 119.642 100.241C119.242 100.121 118.842 100.001 118.442 99.8806L118.362 99.8406L118.122 99.7606L117.642 99.6006L116.842 99.3206C116.642 99.2406 116.802 99.3206 116.882 99.3206C116.842 99.2806 116.802 99.2806 116.722 99.2806L116.402 99.1606C116.162 99.0406 116.562 99.2406 116.402 99.1606C116.202 99.0406 116.242 99.0806 116.402 99.1606C116.282 99.0806 116.362 99.1606 116.402 99.1606C116.362 99.1206 116.442 99.2806 116.402 99.1606C116.282 98.4006 116.242 97.6406 116.242 96.9206C116.242 94.8006 116.322 92.6806 116.402 90.5606C116.402 90.4006 116.402 90.2806 116.402 90.1206C116.442 89.6006 114.562 89.2406 114.522 89.4406Z" fill="#68BA7F"/>
<path d="M115.48 89.7609C115.48 89.7609 122.64 93.3609 136.72 94.0809C156.8 95.0809 163.88 89.7609 163.88 89.7609C163.88 89.7609 164.36 87.1209 150.84 86.0809C137.32 85.0409 115.6 86.2409 115.48 89.7609Z" fill="#68BA7F"/>
<path d="M115.44 90.2802C117.16 91.0802 118.92 91.7202 120.72 92.2002C125.56 93.5602 130.56 94.3602 135.56 94.6802C141.16 95.1202 146.8 94.9602 152.4 94.2402C155.56 93.8402 158.64 93.0802 161.64 91.9202C162.4 91.6402 163.12 91.2802 163.8 90.9202C164.08 90.8002 164.32 90.6402 164.56 90.4402C164.8 90.2002 164.68 89.8802 164.56 89.6002C164.16 88.9202 163.56 88.4002 162.88 88.0402C161.76 87.4002 160.52 86.9602 159.28 86.6802C156.96 86.1202 154.6 85.7602 152.24 85.5602C147.24 85.1202 142.24 84.9202 137.24 85.0402C132.56 85.0802 127.88 85.4002 123.24 85.9602C121.48 86.1602 119.76 86.5202 118.04 86.9602C117.04 87.2402 115.84 87.6002 115.08 88.3602C114.84 88.6002 114.68 88.9202 114.64 89.2402C114.6 89.8802 116.28 90.8402 116.32 90.2002C116.32 90.1202 116.32 90.0802 116.36 90.0002C116.36 89.9602 116.4 89.9202 116.36 90.0002C116.36 89.9602 116.4 89.9202 116.4 89.8802C116.48 89.7602 116.6 89.6402 116.72 89.5202C117.04 89.2402 117.4 89.0402 117.8 88.8802C119.08 88.3602 120.44 88.0002 121.8 87.7602C126 86.9602 130.28 86.6802 134.52 86.5202C139.32 86.3202 144.12 86.3602 148.88 86.6002C151.44 86.7202 154.04 86.9602 156.56 87.3202C157.56 87.4802 158.56 87.6402 159.56 87.8802C160.24 88.0402 160.92 88.2002 161.56 88.4402C161.8 88.5202 162.04 88.6402 162.28 88.7202C162.52 88.8002 162.16 88.6402 162.4 88.7602L162.68 88.9202C162.72 88.9602 162.96 89.1202 162.8 89.0002C162.64 88.8802 162.84 89.0402 162.88 89.0802C162.8 89.0002 163.12 89.2402 162.88 89.0802C162.92 89.1202 162.96 89.1602 163 89.2002C163.12 89.2802 162.8 89.0002 162.96 89.1602C163.12 89.3202 163.04 89.2402 162.92 89.1202C162.96 89.1602 163.04 89.3602 163 89.2002C162.96 89.0402 163 89.2402 163 89.2402C162.96 89.3202 163.04 89.0802 163 89.2002V89.2402L163.16 89.0402C162.4 89.5602 161.56 90.0002 160.68 90.3602C158 91.4402 155.2 92.2002 152.32 92.6402C147.16 93.4002 141.96 93.6402 136.76 93.3602C131.56 93.1602 126.36 92.4402 121.32 91.1202C119.32 90.6002 117.32 89.9202 115.4 89.1202L115.52 89.2002C115.28 89.0802 114.72 88.8402 114.64 89.2402C114.56 89.6402 115.16 90.1602 115.44 90.2802Z" fill="#68BA7F"/>
<path d="M115.121 90.2801C116.241 90.9601 117.481 91.5201 118.721 91.9601C122.281 93.2401 125.961 94.1201 129.681 94.5601C135.521 95.2801 141.441 95.4001 147.321 94.9601C151.521 94.7201 155.681 94.1201 159.761 93.1601C160.841 92.8801 161.921 92.6001 162.961 92.2401C163.481 92.0801 163.961 91.9201 164.441 91.6801L164.481 91.6401C164.921 91.4401 164.521 90.8401 164.321 90.6001C164.001 90.2401 163.521 90.1201 163.041 90.2801L162.841 90.3601C162.681 90.4401 162.961 90.3201 162.881 90.3601L162.721 90.4401L162.321 90.6001C161.441 90.9201 160.561 91.2001 159.641 91.4401C156.041 92.4001 152.321 93.0001 148.601 93.3201C142.801 93.8801 136.961 93.8801 131.161 93.3601C128.881 93.1601 126.641 92.8001 124.401 92.3201C123.521 92.1201 122.641 91.9201 121.801 91.6801C121.401 91.5601 121.041 91.4801 120.681 91.3601L120.161 91.2001L119.881 91.1201L119.761 91.0801C118.761 90.7201 117.761 90.3201 116.801 89.8801C116.721 89.8401 116.001 89.5601 116.001 89.4401C116.001 89.4801 116.281 89.6001 116.081 89.4801L115.961 89.4001L115.801 89.3201L115.761 89.2801C115.441 89.0801 114.841 88.8801 114.601 89.2401C114.361 89.6001 114.881 90.1201 115.121 90.2801Z" fill="white"/>
<path d="M27.9995 63.2402C27.9995 63.2402 24.7995 59.6802 20.3195 60.8002C19.3195 61.0402 18.4395 61.6002 17.7995 62.4002C15.8795 64.8402 18.1195 68.0402 21.5995 68.0402L60.8395 67.9602C63.6795 67.9602 64.9195 64.9202 62.6395 63.4802C59.9195 61.8002 56.3995 63.2002 56.3995 63.2002C56.3995 63.2002 62.5195 55.8002 55.2795 48.2002C48.0395 40.6002 37.4795 47.8802 38.5995 55.8002C38.5995 55.8402 27.0795 49.9602 27.9995 63.2402Z" fill="white"/>
<path d="M28.8413 62.6399C26.8813 60.4799 23.5613 59.4398 20.7613 60.2798C19.5613 60.6798 18.4813 61.3198 17.6013 62.1999C16.8813 62.7998 16.4413 63.5998 16.2813 64.5198C16.0813 66.2799 17.4413 67.7598 19.0013 68.2798C20.1213 68.6798 21.4013 68.5598 22.6013 68.5598H28.3213L45.3213 68.5198L58.6813 68.4798H59.9213C61.0813 68.4398 62.2413 67.9998 63.1213 67.1999C63.8013 66.6798 64.4013 66.0799 64.6013 65.2399C64.7613 64.5199 64.5213 63.7998 64.0413 63.2798C62.6413 61.8398 60.1613 61.7999 58.3613 62.2399C57.9213 62.3199 57.5213 62.4398 57.1213 62.5998L57.2013 62.7199C58.1213 61.5599 58.8013 60.1998 59.2413 58.7598C60.1613 55.7198 59.6413 52.3999 57.8813 49.7199C56.0013 46.8399 53.0813 44.5199 49.5613 44.3599C46.4413 44.2399 43.4813 45.8398 41.2413 47.8798C38.8813 49.9998 37.4013 53.1199 37.8413 56.3199L39.4813 55.1598C38.2013 54.5198 36.8013 54.1199 35.3613 53.9199C34.2413 53.7599 33.0413 53.8798 31.9613 54.2798C30.4413 54.8798 29.1213 55.9198 28.2413 57.2798C27.1213 59.1598 27.0813 61.5998 27.2413 63.7199C27.2413 63.7999 28.0813 63.3198 28.1213 63.2798C28.2813 63.2398 28.8813 62.9199 28.8413 62.6399C28.7213 60.7599 28.7213 58.7598 29.4813 56.9999C29.7213 56.4398 30.0413 55.9198 30.4813 55.4798C30.4013 55.5598 30.5613 55.3998 30.5613 55.3998C30.4413 55.5198 30.6013 55.3598 30.6013 55.3598C30.5213 55.4398 30.4013 55.5198 30.2813 55.5998C30.1213 55.6798 30.4813 55.4798 30.2813 55.5998C30.1213 55.6798 30.4013 55.5198 30.4013 55.5598C30.5213 55.5198 30.6813 55.4398 30.8013 55.3998C32.6413 54.8398 34.6813 55.2398 36.4413 55.8798C36.8813 56.0398 37.3213 56.1999 37.7613 56.3998C38.0013 56.5198 39.4413 55.5199 39.4013 55.2399C39.0813 52.5999 39.9613 49.9199 41.7613 47.9599C41.9613 47.7199 42.1613 47.5199 42.4013 47.3199C42.5613 47.1599 42.8413 46.9198 42.9213 46.8798C43.0813 46.7598 43.2413 46.6799 43.4013 46.5599C43.6813 46.3999 43.9613 46.2799 44.2813 46.1599C45.5213 45.6799 46.8413 45.4799 48.1613 45.5599C51.4813 45.7999 54.2413 48.0399 56.0813 50.7599C57.8013 53.2399 58.4013 56.3598 57.6813 59.3198C57.4013 60.4398 56.9613 61.4798 56.4013 62.4798C56.2413 62.7998 56.0413 63.0798 55.8413 63.3598C55.8013 63.4398 55.7213 63.5198 55.6813 63.5998C55.7613 63.4798 55.6813 63.5999 55.6813 63.6399C55.6013 63.7599 55.6013 63.7998 55.7613 63.7598C57.0013 63.2798 58.3613 63.1198 59.6813 63.2798C61.2413 63.4798 63.5213 64.5599 62.9613 66.5198C62.8413 66.8399 62.6813 67.1198 62.5213 67.3598C62.4813 67.3998 62.4413 67.4398 62.4013 67.4798C62.7613 66.9198 63.1613 67.0398 62.7613 67.1598C62.5213 67.2398 62.2813 67.2799 62.0413 67.3199C61.8813 67.3199 61.7213 67.3199 61.5213 67.3199H60.4813H48.4413L32.0813 67.3598C28.8813 67.3598 25.7213 67.3598 22.5613 67.3598C21.6013 67.3998 20.6413 67.1199 19.8013 66.6399C18.4413 65.7999 17.5213 64.1598 18.1613 62.5998C18.3213 62.2398 18.5213 61.8798 18.8013 61.5998L18.8813 61.5198C19.0013 61.3999 19.0013 61.3999 18.8813 61.5198C18.8813 61.6399 18.5613 61.6398 18.8813 61.5598C19.2013 61.4798 19.5213 61.3198 19.8413 61.2798C20.8413 61.0798 21.8813 61.0799 22.8813 61.3199C24.2813 61.6399 25.5613 62.3198 26.6413 63.2798C26.8413 63.4398 27.0013 63.5998 27.2013 63.7598C27.3613 63.9998 28.9213 62.7599 28.8413 62.6399Z" fill="#68BA7F"/>
<path d="M41.283 58.5195H32.043V59.9195H41.283V58.5195Z" fill="#000005"/>
<path d="M46.962 58.3594H44.082V59.7594H46.962V58.3594Z" fill="#68BA7F"/>
<path d="M49.1211 59.9594V58.5194L53.4011 58.3594V59.7594L49.1211 59.9594Z" fill="#68BA7F"/>
<path d="M44.7598 62.9199H34.8398V64.3199H44.7598V62.9199Z" fill="#68BA7F"/>
<path d="M50.8417 62.7598H47.7617V64.1598H50.8417V62.7598Z" fill="#000005"/>
<path d="M78.6411 29.1203C78.6411 29.1203 80.4411 26.2803 82.9611 27.1603C83.5611 27.4003 84.0811 27.8403 84.4011 28.4403C85.4811 30.3603 84.2411 32.9603 82.2811 32.9603L60.2011 32.9203C58.6011 32.9203 57.8811 30.4803 59.1611 29.3203C60.6811 27.9603 62.6811 29.1203 62.6811 29.1203C62.6811 29.1203 59.2411 23.2003 63.3211 17.1203C67.4011 11.0403 73.3611 16.8803 72.7211 23.2003C72.6811 23.2003 79.2011 18.4803 78.6411 29.1203Z" fill="white"/>
<path d="M79.4402 28.5999C79.4802 28.5199 79.5602 28.3999 79.6402 28.3199C79.7202 28.2399 80.2402 27.7999 80.2402 27.6799C80.2402 27.7999 79.8002 27.8799 80.1602 27.7599C80.3202 27.6799 80.5202 27.6399 80.7202 27.5999C81.2802 27.4799 81.8802 27.5599 82.4002 27.8399C83.4002 28.3999 84.0002 29.4799 83.9202 30.6399C83.9202 31.1599 83.7602 31.6799 83.5202 32.1199C83.4002 32.3199 83.2002 32.4799 83.1202 32.6799C83.4402 32.0399 84.0002 32.2399 83.5602 32.3199C83.4002 32.3599 83.2402 32.3999 83.1202 32.3999C81.6002 32.4799 80.0402 32.3999 78.5202 32.3999L61.8402 32.3599C61.0402 32.3599 60.2802 32.4399 59.7602 31.7599C59.4402 31.3599 59.2802 30.8799 59.2802 30.3599C59.2802 30.1199 59.3202 29.8799 59.4002 29.6399C59.4402 29.5199 59.4802 29.4399 59.5202 29.3199C59.5602 29.2399 59.6002 29.1999 59.6402 29.1199C59.8402 28.8799 59.7202 28.9599 59.2402 29.3599C59.4002 29.3199 59.5202 29.2799 59.6802 29.2399C59.8402 29.1999 60.0402 29.1999 60.2002 29.1999C60.4802 29.1999 60.7602 29.2399 61.0402 29.3199C61.3202 29.3999 61.5602 29.4799 61.8002 29.6399C62.0402 29.7599 63.5602 28.6799 63.4402 28.5199C61.9602 25.9599 61.7202 22.5199 62.5202 19.7599C62.9202 18.4799 63.5202 17.2399 64.3202 16.1599C64.4802 15.9599 64.6402 15.7599 64.8402 15.5599C64.9202 15.4799 65.3202 15.0799 65.0002 15.3599C64.9202 15.4399 64.9602 15.3599 65.0402 15.3599C65.1202 15.3599 65.2402 15.2799 65.3602 15.2399C65.5602 15.1599 65.7602 15.1199 65.9602 15.1199C67.6402 14.9199 69.1602 16.0399 70.1202 17.3599C71.4402 19.2399 72.0402 21.4799 71.8002 23.7599C71.8002 23.7999 72.1602 23.6399 72.2002 23.6399C72.4402 23.4799 72.6802 23.3599 72.9202 23.1599C72.5602 23.4399 72.6802 23.3199 72.7602 23.2799C72.8402 23.2399 72.4802 23.4799 72.6802 23.3199C72.4402 23.4399 72.7602 23.2799 72.6802 23.3199C72.9202 23.1999 72.5602 23.3599 72.8002 23.2399L72.9602 23.1599C73.0802 23.0799 72.8802 23.1999 73.0002 23.1199C73.1202 23.0399 73.2402 22.9999 73.4002 22.9599C73.6402 22.8799 73.8802 22.7999 74.1602 22.7599C75.6802 22.5199 76.7602 23.3599 77.2802 24.7599C77.8402 26.3199 77.8402 28.0399 77.7602 29.6799C78.0802 29.5599 78.3602 29.3999 78.6402 29.1999C78.9202 29.1199 79.4402 28.8399 79.4402 28.5999C79.5202 26.9999 79.5202 25.3199 79.0002 23.7999C78.7602 22.9599 78.2402 22.2799 77.5202 21.8399C76.3602 21.2399 75.0002 21.7199 73.9202 22.2799C73.4002 22.5599 72.8802 22.8799 72.3602 23.2399L73.4802 22.6399C73.7202 20.3599 73.1202 18.1199 71.8002 16.2399C70.7602 14.8399 69.1202 13.6799 67.3202 13.9999C66.1602 14.1999 65.1202 14.9199 64.2402 15.6399C63.2402 16.4799 62.4402 17.4799 61.8402 18.5999C60.6402 20.7999 60.2002 23.3599 60.5602 25.8399C60.7202 27.1999 61.1602 28.4799 61.8002 29.6799L63.4402 28.5599C62.7602 28.1599 61.9202 28.0399 61.1602 28.1599C60.4002 28.3599 59.6402 28.7199 59.0402 29.1999C58.4802 29.5599 58.0802 30.0399 57.8002 30.5999C57.4402 31.5199 57.7202 32.5599 58.4802 33.1999C58.8002 33.3999 59.2002 33.5199 59.5602 33.4799C61.9602 33.4799 64.3602 33.4799 66.7602 33.4799L77.2402 33.5199H80.6802H81.4402C82.3202 33.5199 83.0402 33.0399 83.7602 32.5599C84.7602 31.8399 85.5202 30.9599 85.6002 29.7199C85.6802 28.4799 85.0402 26.9999 83.8002 26.5599C82.6802 26.1599 81.6402 26.4799 80.6802 27.0799C79.7202 27.6399 78.8402 28.3599 78.1602 29.2399C78.0402 29.3599 77.9202 29.5199 77.8402 29.6799C77.7602 29.7999 78.4802 29.4399 78.5202 29.3999C78.8802 29.1999 79.2002 28.9199 79.4402 28.5999Z" fill="#68BA7F"/>
</svg>
