<svg width="200" height="200" viewBox="0 0 200 200" fill="none" xmlns="http://www.w3.org/2000/svg">
<path d="M20.8009 101.681C20.8009 101.681 34.2009 80.6005 52.1209 82.9205C70.0409 85.2405 88.3209 128.521 87.0009 136.441C85.6809 144.361 23.2809 135.281 19.2409 131.681C15.2009 128.081 20.8009 101.681 20.8009 101.681Z" fill="white"/>
<path d="M21.4404 102.48C22.4004 101.04 23.4404 99.6399 24.5604 98.3199C27.0804 95.2399 29.9204 92.4799 33.0404 90.0399C36.7604 87.1999 41.0404 84.8799 45.6804 83.9999C49.7204 83.1999 53.8804 83.4399 57.5604 85.3199C60.9204 87.0399 63.7604 89.6399 66.2804 92.4399C67.6404 93.9599 68.9204 95.5599 70.1204 97.2399C71.4404 99.0399 72.6804 100.92 73.8404 102.88C76.2404 106.84 78.4004 110.92 80.2804 115.08C81.9604 118.76 83.4404 122.52 84.6804 126.32C85.5204 128.92 86.3204 131.64 86.4404 134.36C86.4804 135 86.5204 135.76 86.1204 136.32C85.7204 136.84 85.2004 137.24 84.5604 137.44C82.5604 138.32 80.2004 138.52 78.0404 138.68C74.7204 138.88 71.4404 138.92 68.1204 138.76C64.2004 138.6 60.2804 138.32 56.3604 137.96C52.2404 137.56 48.1604 137.08 44.0404 136.52C40.2804 136 36.4804 135.4 32.7204 134.72C29.7604 134.2 26.8004 133.6 23.9204 132.88C22.2804 132.48 20.4404 132.08 19.0004 131.24L18.8804 131.16C18.7604 131.08 18.9204 131.2 18.8004 131.12C18.6804 131.04 18.7604 131.08 18.7604 131.08C18.7604 131.08 18.9604 131.32 19.0404 131.4C19.1204 131.48 19.1604 131.56 19.2004 131.64C19.1204 131.52 19.2804 131.76 19.2004 131.64C19.1604 131.6 19.1604 131.52 19.1204 131.48C19.0804 131.44 19.0404 131.28 19.0004 131.16C18.8804 130.88 18.8004 130.6 18.7604 130.32C18.4404 128.8 18.3204 127.24 18.3604 125.68C18.4404 121.6 18.8004 117.56 19.4404 113.52C19.8804 110.32 20.4404 107.12 21.0804 103.96C21.2404 103.48 21.3204 103 21.4404 102.48C21.4804 102.28 21.0804 101.8 20.9204 101.64C20.8804 101.56 20.2004 100.92 20.2004 100.92C19.8004 102.84 19.4404 104.8 19.1204 106.76C18.4404 110.76 17.8404 114.8 17.4804 118.84C17.2804 120.8 17.2004 122.76 17.2004 124.76C17.1604 126.28 17.3604 127.8 17.7204 129.28C18.0804 130.64 18.8804 131.8 20.0004 132.64C20.5204 132.96 21.0804 133.24 21.6804 133.4C23.9204 134.16 26.2404 134.76 28.5604 135.24C31.9604 135.96 35.4004 136.6 38.8404 137.12C42.8804 137.76 46.8804 138.32 50.9204 138.8C55.0404 139.28 59.2004 139.72 63.3604 140C67.1204 140.28 70.8804 140.44 74.6404 140.44C77.5204 140.48 80.3604 140.28 83.2004 139.8C84.5604 139.56 86.6804 139.16 87.4804 137.8C87.8404 137.2 87.7604 136.36 87.7204 135.68C87.6404 134.44 87.4404 133.24 87.1204 132.08C86.2804 128.56 85.1604 125.12 83.7604 121.8C82.0804 117.6 80.2004 113.48 78.0404 109.52C75.7604 105.24 73.2404 101.16 70.4004 97.2399C67.7604 93.5999 64.8004 90.0799 61.3604 87.1599C58.7204 84.9199 55.6004 82.9199 52.1204 82.2799C47.3604 81.4399 42.4004 82.4799 38.0804 84.5599C33.9604 86.5199 30.2804 89.3599 27.0404 92.5999C24.8404 94.7999 22.8004 97.1999 21.0004 99.7599C20.7204 100.12 20.4804 100.52 20.2004 100.92C20.0804 101.08 20.6004 101.68 20.7204 101.8C20.8404 101.92 21.4004 102.56 21.4404 102.48Z" fill="#000005"/>
<path d="M34.7201 73.3598C34.7201 73.3598 25.5601 76.0398 23.6801 72.3998C21.8001 68.7598 27.9201 69.1198 27.9201 69.1198C27.9201 69.1198 20.2801 61.9598 29.6801 59.7198C29.6801 59.7198 21.2001 54.5598 26.9601 48.4798C32.7201 42.3998 45.4801 44.8798 45.4801 44.8798C45.4801 44.8798 44.4001 36.3998 54.2001 36.6398C64.0001 36.8798 62.1201 42.1598 62.1201 42.1598C62.1201 42.1598 68.4001 42.2398 68.8401 45.1198C69.2801 47.9998 64.7201 49.5998 64.7201 49.5998C64.7201 49.5998 63.7201 58.0798 55.1201 57.5998L47.8801 68.7598C47.8801 68.7598 51.1201 72.3198 48.3201 76.5198C45.5201 80.7198 34.7601 78.7998 34.7201 73.3598Z" fill="#000005"/>
<path d="M34.1204 72.6402C31.9204 73.3202 29.6004 73.6402 27.2804 73.5202C26.9604 73.5202 26.6404 73.4802 26.3204 73.4002C26.1204 73.3602 25.9604 73.3202 25.7604 73.2802C25.7604 73.2802 25.4804 73.2002 25.6404 73.2402C25.5204 73.2002 25.4004 73.1602 25.3204 73.1202L25.1204 73.0402C24.9604 72.9602 25.3204 73.1602 25.0804 73.0402L24.8804 72.9202C24.6404 72.7602 25.0404 73.0802 24.8404 72.8802C24.6804 72.7602 24.5204 72.5602 24.4404 72.3602C24.1604 71.8002 24.0404 71.2802 24.3604 70.8002C24.6804 70.4402 25.0804 70.1602 25.5604 70.0402C26.4404 69.8002 27.3204 69.7202 28.2404 69.8002C29.0004 69.8402 28.7604 69.0402 28.4004 68.6802L28.2004 68.4802C28.0004 68.2802 28.3204 68.6402 28.1604 68.4402L27.8804 68.1202C27.6804 67.8802 27.4804 67.6402 27.2404 67.3602C27.1204 67.2002 27.0404 67.0802 26.9204 66.9202C26.8804 66.8802 26.7604 66.6402 26.8404 66.8002C26.7604 66.7202 26.7204 66.6002 26.6404 66.4802C25.8404 65.1602 25.3604 63.6002 26.4004 62.2402C27.2804 61.1202 28.8404 60.6402 30.1604 60.3202C30.8804 60.1602 30.2404 59.2802 29.9204 59.0802L29.6404 58.8802L29.3604 58.6802C29.6804 58.8802 29.2004 58.5602 29.1204 58.4802C28.7604 58.2002 28.4404 57.9202 28.0804 57.6002C27.7604 57.2802 27.4404 56.9202 27.1604 56.5602C26.4804 55.7602 26.0404 54.7602 25.8404 53.7202C25.6804 52.4402 26.0004 51.1602 26.7204 50.1202C29.7604 45.4802 36.3204 44.8002 41.4004 45.0002C42.0004 45.0402 42.5604 45.0802 43.1604 45.1202L43.8804 45.2002H43.9604C43.8404 45.2002 44.0404 45.2002 44.0804 45.2002L44.3604 45.2402C44.7604 45.2802 45.2004 45.3602 45.6004 45.4402C46.0004 45.5202 46.4004 45.4002 46.3604 44.9202C46.3604 44.8402 46.3604 44.8002 46.3604 44.7202C46.3604 44.6402 46.3604 44.6402 46.3604 44.6402C46.3604 44.4802 46.3604 44.8002 46.3604 44.6802C46.3604 44.5602 46.3604 44.4802 46.3604 44.4002C46.3604 43.8402 46.4004 43.2802 46.5204 42.7202C46.8004 41.1202 47.6404 39.7202 48.9204 38.7202C51.1204 37.1202 54.1604 37.0802 56.7204 37.4002C57.4404 37.4802 58.1204 37.6402 58.8004 37.8402C58.8804 37.8802 59.2804 38.0002 59.4804 38.0802C59.6004 38.1202 59.7204 38.1602 59.8004 38.2402C59.6404 38.1602 59.8804 38.3202 59.8004 38.2402L60.0004 38.3602L60.3204 38.5602C60.5204 38.6802 60.2404 38.4802 60.4004 38.6402L60.6004 38.8402C60.6404 38.8802 60.6804 38.9202 60.6804 38.9202C60.8004 39.0802 60.9204 39.2002 61.0004 39.3202C61.0804 39.4402 60.9204 39.1602 60.9604 39.2802C61.0004 39.3202 61.0004 39.3602 61.0004 39.3602C61.0404 39.4402 61.0804 39.5202 61.1204 39.5602C61.1604 39.6402 61.2004 39.7202 61.2404 39.8002C61.1604 39.6002 61.2404 39.8402 61.2804 39.8802C61.3204 40.0402 61.3604 40.1602 61.3604 40.3202L61.4004 40.5202C61.4404 40.7202 61.4004 40.4002 61.4004 40.6002C61.4004 40.8802 61.3604 41.2002 61.3204 41.4802C61.3204 41.5602 61.2004 41.8802 61.3204 41.5602C61.0804 42.2402 61.9604 42.8402 62.5604 42.8402C64.0804 42.8002 65.5604 43.1202 66.9604 43.6802L67.1204 43.7602C66.9604 43.6802 67.1204 43.7602 67.1604 43.8002L67.4804 44.0002C67.3604 43.9202 67.6004 44.0802 67.4804 44.0002L67.6004 44.1202L67.7204 44.2402C67.8004 44.3202 67.6404 44.1202 67.7604 44.2802C67.8404 44.4002 67.9204 44.5202 67.9604 44.6402C68.0404 44.8802 68.0404 45.1202 68.0404 45.3602C67.9604 46.4802 67.0404 47.2802 66.1604 47.8802C65.7204 48.1602 65.2404 48.4402 64.7604 48.6402C64.6804 48.6802 64.6004 48.7202 64.4004 48.8002C64.3604 48.8402 64.2804 48.8402 64.2004 48.8802C64.0404 48.9202 63.8804 49.0402 63.8804 49.2402C63.7604 50.2802 63.4404 51.2802 62.9604 52.2002C62.0404 54.2002 60.3604 55.7602 58.2804 56.4802C57.6404 56.6802 56.9604 56.8402 56.2804 56.8802C55.8804 56.9202 55.4804 56.9202 55.0804 56.9202C54.7604 56.9202 54.5204 56.8802 54.3204 57.1602C54.0404 57.5602 53.7604 57.9602 53.5204 58.4002L49.8804 64.0402L47.1204 68.2802C47.0004 68.5202 47.0804 68.8002 47.2804 69.0002C47.3604 69.0802 47.4004 69.1602 47.4804 69.2402L47.6804 69.5202C47.8004 69.7202 47.6004 69.3602 47.7204 69.5602C47.7604 69.6402 47.8004 69.6802 47.8404 69.7602C48.2404 70.4802 48.5204 71.2402 48.6404 72.0802C48.8804 73.9202 48.0804 76.1202 46.4804 77.1602C45.2004 77.8802 43.7604 78.2402 42.2804 78.1202C41.4804 78.0802 40.7204 78.0002 39.9604 77.7602C39.6404 77.6802 39.3204 77.6002 39.0404 77.4802C38.6804 77.3602 38.3604 77.2002 38.0404 77.0402C37.8404 76.9202 37.6404 76.8002 37.4804 76.6802L37.3204 76.5602C37.4804 76.6802 37.2004 76.4802 37.1604 76.4402C36.8404 76.2402 36.5604 75.9602 36.3604 75.6802C36.2804 75.6002 36.2004 75.4802 36.1604 75.3602C35.8804 74.8802 35.7204 74.3602 35.7204 73.8002C35.6804 73.3202 35.3604 72.9602 34.9204 72.8002C34.6804 72.7202 33.9204 72.6002 33.9204 73.0802C34.0004 77.0402 38.4004 79.1202 41.8404 79.5202C43.6804 79.8002 45.5604 79.5602 47.2404 78.8002C49.1604 77.8802 50.3604 75.8002 50.4404 73.6802C50.5204 71.8402 49.8804 70.0402 48.6804 68.6402L48.8404 69.3602L55.1604 59.5602L56.0404 58.1602L55.5604 58.3602C58.2804 58.4802 60.9604 57.7602 62.9204 55.7602C64.1604 54.4402 65.0404 52.8002 65.4804 51.0402C65.5604 50.6802 65.6404 50.3202 65.7204 49.9602L65.4004 50.3202C67.2004 49.6802 69.5204 48.4002 69.8804 46.3202C70.4004 43.3602 66.7204 42.0402 64.4404 41.6802C63.6004 41.5202 62.7604 41.4402 61.8804 41.4402L63.1204 42.7202C63.4004 41.9202 63.4004 41.0802 63.1604 40.2802C62.4804 38.1602 60.3604 37.0002 58.3204 36.4802C56.6004 36.0402 54.8004 35.8802 53.0004 35.9602C51.5204 36.0002 50.0804 36.3202 48.7204 36.9202C46.9204 37.8002 45.6004 39.4002 45.0804 41.3202C44.7604 42.4002 44.6404 43.5602 44.7604 44.7202L45.5204 44.2002C44.2004 43.9602 42.8804 43.8002 41.5604 43.7602C38.8404 43.5602 36.0804 43.7202 33.4004 44.2802C30.4804 44.9202 27.6004 46.2802 25.7204 48.6802C24.7604 49.8002 24.2404 51.2402 24.2404 52.7602C24.3204 54.0802 24.7604 55.3202 25.5204 56.4002C26.5604 57.9602 27.9604 59.2802 29.5604 60.2802L29.3204 59.0402C27.0804 59.6002 24.2404 60.8002 24.2804 63.5202C24.3204 65.3602 25.4004 67.0402 26.5204 68.4002C26.8404 68.8002 27.2004 69.1602 27.5604 69.5202L27.7204 68.4002C25.8004 68.2802 21.9204 68.7602 22.6804 71.5602C23.8004 75.5202 28.9604 75.3202 32.2004 74.8402C33.3204 74.6802 34.4004 74.4402 35.4804 74.1202C36.2804 73.8002 34.8804 72.4402 34.1204 72.6402Z" fill="#000005"/>
<path d="M69.0408 77.1198C73.4808 69.2798 64.1208 51.0798 64.1208 51.0798C57.6008 53.2398 46.0408 47.8398 46.0408 47.8398C50.0408 53.6798 45.6008 65.8798 45.6008 65.8798C42.1608 60.5998 36.1608 61.5998 37.4408 67.1198C38.7208 72.6398 44.1608 72.3598 44.1608 72.3598C44.1608 72.3598 43.9208 90.3598 44.8008 92.4798C45.6808 94.5998 58.7608 95.4398 60.6408 84.1598C60.6008 84.1598 65.1608 83.9998 69.0408 77.1198Z" fill="white"/>
<path d="M70.0004 76.9998C70.9604 75.3198 71.2004 73.3198 71.2004 71.3998C71.1604 69.1598 70.8404 66.9198 70.2804 64.7598C69.2804 60.7998 67.9204 56.9198 66.1604 53.1998C65.8004 52.3998 65.4404 51.6398 65.0404 50.8398C64.8404 50.4398 64.0004 50.6798 63.7204 50.7598C63.1604 50.9198 62.6004 51.0398 62.0004 51.0798C61.3204 51.1198 60.6804 51.1598 60.0004 51.1198C58.4804 51.0398 57.0004 50.7998 55.5204 50.4398C53.0004 49.8398 50.5604 49.0398 48.2004 48.0398C47.7204 47.8398 47.2404 47.6398 46.7604 47.4398C46.4404 47.2798 44.6804 47.5998 45.0404 48.1198C46.6804 50.5598 46.8004 53.8398 46.5604 56.6798C46.3204 59.3198 45.8404 61.9198 45.0404 64.4398C44.8804 64.9598 44.7204 65.4798 44.5604 65.9998L46.4404 65.5598C45.3204 63.8398 43.6404 62.3998 41.5604 62.0398C39.8804 61.7598 37.8004 62.2398 36.8004 63.7198C35.7204 65.2798 36.2404 67.5998 37.0804 69.1598C37.8404 70.5998 39.1604 71.7198 40.7204 72.2398C41.6404 72.5998 42.6404 72.7598 43.6404 72.7198L43.0804 72.5198C43.0404 74.5998 43.0404 76.6798 43.0404 78.7598C43.0404 82.2798 43.0404 85.7998 43.2804 89.3198C43.2804 90.3998 43.4004 91.4398 43.6404 92.4798C43.8404 93.1998 44.6004 93.5198 45.2804 93.7198C48.0004 94.5598 51.2004 94.1598 53.8004 93.1998C57.3204 91.8798 60.0404 89.2398 61.1204 85.5998C61.2804 85.0798 61.4004 84.5198 61.4804 83.9998L60.0804 84.5198C62.8004 84.3998 65.3604 82.6798 67.1604 80.7598C68.2804 79.6398 69.2004 78.3598 70.0004 76.9998C70.1604 76.6398 69.3204 76.6798 69.2004 76.6798C68.8404 76.7198 68.2404 76.8398 68.0404 77.1998C66.7204 79.4798 65.0404 81.6798 62.7204 82.9998C62.4004 83.1598 62.0804 83.3198 61.7604 83.4398C62.0004 83.3598 61.5604 83.5198 61.4804 83.5198C61.4004 83.5198 61.3204 83.5598 61.2404 83.5998C61.0404 83.6798 61.4804 83.5598 61.2804 83.5998C61.1604 83.6398 61.0804 83.6398 60.9604 83.6798C60.7604 83.7198 61.2404 83.6398 60.9604 83.6798C60.8004 83.6798 60.6404 83.6798 61.0004 83.6798C60.7204 83.6798 59.6804 83.7998 59.6004 84.1998C59.3204 86.1198 58.5604 87.9198 57.4004 89.4398C56.4404 90.6798 55.2004 91.6398 53.8004 92.3198L53.3204 92.5198L53.2004 92.5598L52.9204 92.6798L52.4404 92.8398L52.2404 92.8798L52.0404 92.9198L51.5604 93.0398L51.3204 93.0798C51.1604 93.1198 51.4404 93.0798 51.2004 93.0798C50.8804 93.1198 50.5204 93.1598 50.2004 93.1998C50.0404 93.1998 50.3204 93.1998 50.1204 93.1998H49.8404C49.6804 93.1998 49.5204 93.1998 49.3604 93.1998H48.9204C48.8804 93.1998 48.7204 93.1998 48.8404 93.1998H48.6004C48.3204 93.1598 48.0404 93.1598 47.8004 93.1198C47.6804 93.0798 47.5204 93.0798 47.4004 93.0398H47.3604L47.1604 92.9998C46.9604 92.9598 46.7604 92.8798 46.5604 92.7998C46.4004 92.7598 46.2804 92.6798 46.1604 92.5998C46.0404 92.5198 45.9204 92.4398 45.8404 92.3198C45.8004 92.2398 45.7604 92.1598 45.7204 92.0798C45.4004 91.1998 45.4004 90.1198 45.3604 89.1998C45.1204 85.8398 45.1204 82.4798 45.1204 79.1198C45.1204 77.5998 45.1204 76.1198 45.1204 74.5998C45.1604 73.7998 45.1604 72.9998 45.1204 72.1998C45.1204 72.1598 45.1204 72.1198 45.1204 72.0798C45.1204 71.8798 44.6804 71.8798 44.5604 71.8798H44.2804C44.1204 71.8798 44.4804 71.9198 44.2004 71.8798C43.8004 71.8398 43.3604 71.7598 42.9604 71.6798C41.6804 71.3598 40.5204 70.6398 39.6804 69.5998C38.6404 68.3198 37.9604 66.2798 38.2804 64.6398C38.4004 63.9998 38.7204 63.4398 39.2004 63.0398L39.3604 62.9198C39.3604 62.9198 39.6404 62.7598 39.4404 62.8798C39.4804 62.8398 39.5604 62.8398 39.6004 62.8398C39.3604 62.8798 39.6404 62.8398 39.6804 62.8398C39.4404 62.8798 39.7204 62.8398 39.7604 62.8398C39.6404 62.8398 40.0004 62.8398 40.0404 62.8398C42.0004 62.9998 43.6404 64.6398 44.6404 66.1998C44.8004 66.4398 45.4404 66.2798 45.6404 66.2398C45.9204 66.1998 46.4004 66.0398 46.5204 65.7598C47.0404 64.2798 47.4804 62.7598 47.8004 61.1998C48.4404 58.2398 48.8804 55.1598 48.5204 52.1598C48.3604 50.5198 47.8004 48.9198 46.9204 47.5198L45.2004 48.1998C46.6804 48.8798 48.2004 49.4398 49.7604 49.9198C52.7604 50.9998 55.8404 51.6798 59.0404 51.9198C60.8804 52.0398 62.7204 51.8398 64.4804 51.3198L63.1604 51.2398C64.2404 53.3998 65.2004 55.5998 66.0404 57.8398C67.6404 61.9998 69.0404 66.3598 69.2404 70.8398C69.3604 72.9998 69.1604 75.2798 68.0804 77.1998C67.8804 77.5198 68.7204 77.5198 68.8804 77.4798C69.2004 77.4798 69.8004 77.3598 70.0004 76.9998Z" fill="#000005"/>
<path d="M61.7607 71.8C61.7607 71.8 74.9207 74.76 77.8407 68.04C80.7607 61.32 71.4807 57.28 63.5207 62.44" fill="white"/>
<path d="M62.08 72.5202C63.44 72.8002 64.8 73.0002 66.2 73.1202C68.76 73.3202 71.48 73.2802 73.96 72.4802C76.52 71.6802 78.64 69.8402 79.12 67.0802C79.68 64.0002 77.4 61.3202 74.68 60.2002C70.8 58.5602 66.32 59.5202 62.88 61.7602C62.24 62.1602 63.68 63.5202 64.2 63.2002C67.04 61.3602 70.68 60.2802 74.04 61.1602C74.64 61.3202 75.2 61.5202 75.72 61.8402C75.96 61.9602 76.16 62.1202 76.36 62.2802C76.4 62.3202 76.44 62.3602 76.52 62.4002C76.76 62.6002 76.44 62.3202 76.56 62.4402C76.6 62.4802 76.68 62.5602 76.72 62.6002C76.76 62.6402 76.92 62.8402 76.8 62.7202C77.48 63.6402 77.76 64.8002 77.52 65.9602C76.64 71.3602 70.12 71.9602 65.76 71.6802C64.72 71.6002 63.64 71.4802 62.6 71.3202L62.32 71.2802H62.24C62.08 71.2402 62.36 71.3202 62.24 71.2802L61.84 71.2002L61.52 71.1202C61.12 71.0402 60.96 71.2402 61.08 71.6002C61.24 72.0402 61.64 72.3602 62.08 72.5202Z" fill="#000005"/>
<path d="M55.2009 74.3606C55.2009 74.3606 51.2409 73.4806 50.8809 69.6006L55.2009 74.3606Z" fill="white"/>
<path d="M56.0804 73.9599C54.6004 73.5999 53.3204 72.6799 52.5204 71.3999C52.1204 70.7599 51.9204 69.9999 51.8404 69.2799C51.8004 69.0399 50.9204 69.3599 50.8004 69.3999C50.5604 69.4799 50.3604 69.5999 50.1604 69.7199C50.0804 69.7599 49.9204 69.8799 49.9604 69.9999C50.0804 71.2799 50.6804 72.4399 51.6004 73.3199C52.2404 73.9199 53.0004 74.3599 53.8404 74.6399C54.0004 74.7199 54.1604 74.7599 54.3604 74.7999C54.7604 74.8399 55.2004 74.7599 55.5604 74.5199C55.7604 74.4399 55.9204 74.3199 56.0804 74.1999C56.0804 74.1199 56.2004 73.9999 56.0804 73.9599Z" fill="#000005"/>
<path d="M56.6401 58.9606C56.6401 58.9606 56.5601 60.0406 57.6001 60.0406C58.6401 60.0406 58.6801 58.7206 57.7601 58.4406C57.3601 58.2406 56.8801 58.4006 56.6801 58.8006C56.6801 58.8806 56.6401 58.9206 56.6401 58.9606Z" fill="#000005"/>
<path d="M61.0004 58.6803C61.0004 58.6803 60.9204 59.7603 61.9604 59.7603C63.0004 59.7603 63.0404 58.4403 62.1204 58.1603C61.7204 57.9603 61.2404 58.1203 61.0404 58.5203C61.0404 58.6003 61.0004 58.6403 61.0004 58.6803Z" fill="#000005"/>
<path d="M47.3603 95.3204C48.4403 95.5604 49.5603 95.7204 50.6803 95.9204L58.0803 97.2404L74.8003 100.24C76.1603 100.48 77.5203 100.68 78.8403 100.96C79.2003 101.08 79.5603 100.88 79.6803 100.52C79.7203 100.44 79.7203 100.4 79.7203 100.32C79.6403 99.8004 79.2403 99.4004 78.7203 99.3204C77.6403 99.0804 76.5203 98.9204 75.4003 98.7204L68.0003 97.4004L51.2803 94.4004C49.9203 94.1604 48.5603 93.9604 47.2003 93.6404C46.8403 93.5204 46.4803 93.7204 46.3603 94.0804C46.3203 94.1604 46.3203 94.2004 46.3203 94.2804C46.4403 94.8404 46.8403 95.2404 47.3603 95.3204Z" fill="#000005"/>
<path d="M45.2004 91.5605C45.2004 91.5605 44.6804 126.081 46.2404 128.121C47.8004 130.161 78.6804 140.601 80.1204 140.321C81.5604 140.041 78.8804 97.6805 78.8804 97.6805L45.2004 91.5605Z" fill="#68BA7F"/>
<path d="M44.3203 91.4402C44.2803 94.1202 44.2403 96.8001 44.2403 99.4802C44.2003 104.8 44.2403 110.16 44.3203 115.48C44.3603 117.88 44.4403 120.28 44.6003 122.64C44.6403 124.24 44.8003 125.84 45.0803 127.44C45.1603 127.92 45.3603 128.4 45.6403 128.8C46.0403 129.2 46.5203 129.52 47.0003 129.76C48.5603 130.56 50.1603 131.28 51.8003 131.88C56.8003 133.88 61.8803 135.68 66.9603 137.4C70.9603 138.76 74.9603 140.2 79.0803 141.16C79.4803 141.28 79.8803 141.32 80.2803 141.32C80.7603 141.2 81.1203 140.8 81.1603 140.32C81.3603 139.16 81.4403 138 81.4003 136.84C81.4803 132.4 81.2803 127.92 81.0803 123.48C80.8803 118.28 80.6003 113.04 80.3203 107.84C80.1603 104.64 79.9603 101.48 79.7603 98.3202C79.7603 98.1602 79.7603 98.0001 79.7203 97.8801C79.7203 97.3601 79.3603 96.8802 78.8403 96.8002L75.5203 96.2002L67.4803 94.7601L57.7203 93.0002L49.3203 91.4801C47.9603 91.2401 46.6003 90.8802 45.2003 90.7202H45.1203C43.9203 90.4802 43.9603 92.4801 45.0803 92.6801L48.4403 93.2801L56.4803 94.7202L66.2403 96.4801L74.6403 98.0002L77.4403 98.5202C77.8803 98.6002 78.3203 98.7201 78.7603 98.7601H78.8003L77.8803 97.6802C78.0403 99.9201 78.1603 102.12 78.2803 104.36C78.5603 109.2 78.8003 114.08 79.0403 118.92C79.2803 123.8 79.4803 128.68 79.5203 133.56C79.5203 135.16 79.5603 136.8 79.4803 138.4C79.4803 138.68 79.4403 138.92 79.4403 139.2L79.4003 139.52C79.3603 139.72 79.4803 139.24 79.4003 139.56C79.3603 139.72 79.2003 140.04 79.4003 139.72C79.3203 139.88 79.5603 139.56 79.4803 139.64C79.5203 139.6 80.0403 139.4 80.0403 139.44C79.6803 139.4 79.3203 139.36 78.9603 139.24C78.8403 139.2 78.7203 139.2 78.5603 139.16L78.3203 139.12L78.2003 139.08C77.8403 139 77.4403 138.88 77.0803 138.76C75.0003 138.16 72.9603 137.52 70.9203 136.84C65.7603 135.16 60.6403 133.36 55.5603 131.44C53.5203 130.68 51.5203 129.88 49.5203 129C48.8403 128.72 48.1603 128.4 47.5203 128.04C47.2003 127.84 47.4403 128 47.5203 128.04C47.4803 128 47.4003 128 47.3603 127.96C47.3203 127.92 47.1603 127.84 47.0803 127.76C47.0003 127.68 46.9203 127.64 46.8803 127.6C46.6803 127.48 47.0403 127.8 46.9203 127.64C46.8003 127.48 47.0803 127.96 46.9603 127.68C46.8403 127.4 47.0003 127.92 46.9603 127.68C46.9203 127.44 46.8403 127.24 46.8003 127.04C46.7603 126.72 46.7203 126.44 46.6803 126.16L46.6003 125.68C46.6003 125.6 46.6003 125.48 46.5603 125.4C46.5203 125.32 46.5603 125.32 46.5603 125.24C46.5203 125 46.5603 125.44 46.5603 125.24C46.3603 123.2 46.2803 121.12 46.2003 119.04C46.0403 113.76 46.0003 108.44 46.0003 103.16C46.0003 99.5601 46.0403 95.9601 46.0803 92.3601C46.0803 92.1601 46.0803 92.0002 46.0803 91.8002C46.0803 91.2802 45.7203 90.8002 45.2003 90.7202C44.7203 90.6802 44.3203 91.0001 44.2403 91.4801C44.3203 91.3601 44.3203 91.4002 44.3203 91.4402Z" fill="#68BA7F"/>
<path d="M117.521 89.4805L78.9209 97.7205L80.1609 140.36C80.1609 140.36 120.281 129.48 120.161 126.32C120.041 123.16 117.521 89.4805 117.521 89.4805Z" fill="#68BA7F"/>
<path d="M117.92 88.7604L114.08 89.5604L104.88 91.5204L93.72 93.8804L84.08 95.9204C82.52 96.2404 80.96 96.5604 79.36 96.9204H79.28C78.8 97.0404 78.04 97.4804 78.04 98.0404L78.16 102.28L78.44 112.48L78.8 124.8L79.12 135.4L79.2 138.92C79.2 139.48 79.16 140.04 79.24 140.6C79.24 140.64 79.24 140.64 79.24 140.68C79.24 141.04 79.76 140.92 79.92 140.88C81.04 140.56 82.16 140.28 83.28 139.96C86.04 139.2 88.8 138.4 91.52 137.6C95 136.56 98.48 135.52 101.96 134.44C105.28 133.4 108.6 132.28 111.88 131.08C114.2 130.24 116.6 129.36 118.76 128.08C119.48 127.64 120.36 127.16 120.76 126.4C121.04 125.88 120.92 125.28 120.88 124.72C120.72 122.12 120.56 119.56 120.36 117C120.08 113.28 119.84 109.52 119.56 105.8C119.28 102.28 119.04 98.7204 118.76 95.2004C118.6 93.2404 118.48 91.2404 118.32 89.2804V89.0004C118.28 88.2804 116.52 89.2004 116.6 89.8804C116.72 91.2404 116.8 92.6004 116.92 93.9604C117.16 97.2004 117.4 100.4 117.64 103.64C117.92 107.4 118.2 111.16 118.48 114.92C118.68 117.92 118.92 120.92 119.12 123.92C119.16 124.72 119.24 125.56 119.28 126.36V126.68C119.28 126.68 119.32 126.52 119.28 126.64C119.24 126.76 119.36 126.44 119.28 126.6C119.2 126.76 119.4 126.4 119.32 126.56C119.24 126.72 119.44 126.48 119.36 126.52C119.32 126.56 119.28 126.6 119.24 126.64C119.04 126.84 119.4 126.52 119.24 126.64C119.08 126.76 118.96 126.84 118.8 126.92L118.72 127C118.56 127.12 118.8 126.96 118.8 126.96C118.8 126.96 118.6 127.08 118.52 127.12C118.08 127.36 117.68 127.56 117.24 127.76C117 127.88 116.76 128 116.48 128.12L116.08 128.28L115.96 128.32L115.8 128.4C115.16 128.68 114.56 128.92 113.92 129.16C110.84 130.36 107.68 131.4 104.56 132.44C101.12 133.56 97.6 134.64 94.12 135.68C91.16 136.56 88.2 137.4 85.28 138.24C83.72 138.68 82.16 139.12 80.56 139.56L80.36 139.6L81.04 139.8L80.92 135.56L80.64 125.36L80.28 113.04L79.96 102.44L79.88 98.9204C79.88 98.3604 79.88 97.8004 79.84 97.2404C79.84 97.2004 79.84 97.2004 79.84 97.1603L78.6 98.2804L82.44 97.4804L91.6 95.6004L102.76 93.2404L112.4 91.2004C113.96 90.8804 115.52 90.5604 117.12 90.2004H117.2C117.68 90.1204 118.12 89.8404 118.36 89.4004C118.48 89.0004 118.32 88.6804 117.92 88.7604Z" fill="#68BA7F"/>
<path d="M45.2002 91.5604C45.2002 91.5604 80.1602 81.3204 81.0002 81.6004C81.8402 81.8804 117.48 89.5204 117.48 89.5204L78.8802 97.7604L45.2002 91.5604Z" fill="#68BA7F"/>
<path d="M46.0803 91.6804L49.5203 90.6804C52.2803 89.8804 55.0803 89.0804 57.8803 88.2804C61.2803 87.2804 64.6403 86.3204 68.0403 85.3604C71.0403 84.5204 74.0403 83.6804 77.0403 82.8804C78.0803 82.6004 79.0803 82.3204 80.1203 82.0804C80.4803 82.0004 80.8003 81.9204 81.1603 81.8404L81.5203 81.7604L81.6403 81.7204C81.7603 81.6804 81.4803 81.7204 81.6003 81.7204C81.7203 81.7204 81.4003 81.7204 81.3603 81.7204C81.0403 81.7204 80.6803 81.6804 80.3603 81.6404L80.5203 81.6804L81.1603 81.8404L83.6403 82.4004C86.4403 83.0004 89.2403 83.6404 92.0403 84.2404L102.36 86.4804L111.6 88.4804L116.6 89.5604L116.84 89.6004L116.68 89.3604L112.84 90.1604L103.64 92.1204L92.4803 94.4804L82.8403 96.5204C81.2803 96.8404 79.6803 97.1604 78.1203 97.5204H78.0403L79.4003 97.5604L76.0403 96.9604L68.0003 95.4804L58.2403 93.7204L49.8403 92.2004C48.4803 91.9604 47.1203 91.6804 45.7203 91.4404H45.6403C45.2803 91.3604 44.6003 91.2404 44.2803 91.4004C43.9603 91.5604 44.4403 91.6404 44.6403 91.6404L48.5203 92.3604L57.6003 94.0004L68.0803 95.9204L76.1603 97.4004C77.3203 97.6004 78.7203 98.0404 79.8803 97.8004C81.4403 97.4804 83.0003 97.1204 84.5603 96.8004L93.6003 94.8804L104.08 92.6404L113.2 90.6804L118.08 89.6404L118.32 89.6004C118.6 89.5204 118.32 89.4004 118.16 89.3604L114.56 88.6004L105.92 86.7604L95.4003 84.4804C92.3603 83.8404 89.3203 83.1604 86.2803 82.5204C84.7603 82.2004 83.2403 81.8804 81.7203 81.5204C80.2003 81.1604 78.6403 81.6804 77.1603 82.0804C74.4403 82.8004 71.7203 83.5604 69.0003 84.3204C65.6003 85.2804 62.1603 86.2804 58.7203 87.2404C55.6403 88.1204 52.5603 89.0004 49.4803 89.9204L44.4403 91.4004L44.2003 91.4804C43.8003 91.6004 44.4403 91.7204 44.5603 91.7204C45.1603 91.7604 45.6003 91.7604 46.0803 91.6804Z" fill="#68BA7F"/>
<path d="M84.8406 110.04C86.0406 109.6 87.1606 109 88.1606 108.2C88.9206 107.6 89.8406 106.76 89.9606 105.72C90.0806 104.44 88.6806 104.4 87.8006 104.64C86.6406 104.96 85.7206 105.6 85.4406 106.8C85.0406 108.44 85.2006 111.12 87.4006 111.2C88.6806 111.16 89.9606 110.72 91.0006 109.96C91.8406 109.36 92.5206 108.6 92.9606 107.64C93.4806 106.48 93.7206 105.24 93.6406 103.96C93.6406 103.2 93.6806 101.6 92.6806 101.36C92.0406 101.2 91.2406 101.6 90.7206 101.88C90.2406 102.12 89.8806 102.64 89.8406 103.2C89.7606 104.36 89.9606 105.56 90.4006 106.64C90.8006 107.68 91.5606 108.52 92.6006 108.92C93.6806 109.32 94.8406 109.12 95.8406 108.64C96.8406 108.2 97.6006 107.36 98.0006 106.36C98.3206 105.52 98.5206 104.44 98.1206 103.6C97.9206 103.12 97.4406 102.84 96.9206 102.88C96.3206 102.96 95.3206 103.28 95.0406 103.88C94.6406 104.88 95.0806 106.12 95.7606 106.88C97.6406 109 100.961 108.08 103.041 106.76C103.361 106.56 103.241 106.4 102.921 106.44C102.441 106.52 102.001 106.68 101.601 106.96C100.521 107.64 98.9606 107.32 98.0406 106.56C97.5606 106.16 97.1606 105.6 96.9606 105C96.8406 104.68 96.8006 104.4 96.8006 104.08C96.8006 103.8 96.8406 103.52 96.9206 103.24L95.8006 103.72C95.5606 103.76 95.8806 103.84 95.9606 103.92C96.0406 104 96.1206 104.12 96.2006 104.2C96.3206 104.44 96.4006 104.68 96.4406 104.92C96.5206 106.08 96.2006 107.24 95.4406 108.12C95.3606 108.2 95.2406 108.28 95.1606 108.36L95.1206 108.4C95.5206 108.28 95.6006 108.24 95.3606 108.28C95.0406 108.24 94.7606 108.2 94.4406 108.12C93.2006 107.64 92.4406 106.52 92.0806 105.28C91.9206 104.68 91.8006 104.08 91.7606 103.48C91.7206 103.16 91.7206 102.8 91.7206 102.48C91.7606 102.28 91.8006 102.12 91.8806 101.92C92.2406 101.52 91.9606 101.64 91.0406 102.2C91.1206 102.24 91.2006 102.28 91.2806 102.36C91.6406 102.72 91.6806 103.32 91.7206 103.76C91.8006 104.52 91.8006 105.32 91.7206 106.12C91.6006 107.44 91.0406 108.72 90.1206 109.68C89.8806 109.96 89.6006 110.16 89.2406 110.32C88.6006 110.44 88.0006 110.16 87.6406 109.64C87.0406 108.76 87.0406 107.56 87.2406 106.56C87.2806 106.24 87.3606 105.96 87.4806 105.68C87.5206 105.56 87.6406 105.44 87.7206 105.28C88.0006 105 87.8406 105.04 87.2806 105.36C87.3606 105.36 87.4406 105.36 87.5206 105.4C88.2806 105.64 88.2006 106.52 87.8806 107.08C87.2406 108.24 85.9206 109.2 84.6806 109.64C84.5606 109.68 83.7606 110 83.8406 110.24C83.9206 110.48 84.7606 110.16 84.8806 110.12L84.8406 110.04Z" fill="white"/>
<path d="M44.3203 91.9205L48.0803 92.6405L57.0403 94.3205L67.5603 96.2805L76.0003 97.8805L78.3603 98.3205C78.7203 98.4005 79.0803 98.4405 79.4403 98.4005C80.8403 98.1205 82.2003 97.7605 83.6003 97.4405L92.3603 95.4405L102.8 93.0805L111.96 91.0005L116.88 89.8805L117.12 89.8405C117.48 89.7605 118.16 89.6405 118.36 89.2805C118.56 88.9205 118.12 89.0405 117.92 89.1205L114.16 89.9605L105.12 92.0005L94.2803 94.4805L84.8403 96.6405L81.7203 97.3605C81.2403 97.4805 80.7203 97.5605 80.2403 97.7205H80.1603L80.6403 97.6805L77.2003 97.0405L68.9603 95.4805L58.9603 93.6005L50.3203 91.9605C48.9203 91.6805 47.5203 91.4005 46.1203 91.1605H46.0403C45.6403 91.1205 45.2003 91.2405 44.8403 91.4005C44.8403 91.4405 44.0803 91.8405 44.3203 91.9205Z" fill="white"/>
<path d="M80.7203 140.84L80.6803 136.64L80.6003 126.56L80.5203 114.36L80.4403 103.8C80.4403 102.12 80.4803 100.36 80.4003 98.6802V98.6002C80.3603 98.1202 80.1203 97.6802 79.7603 97.3202C79.4403 97.0802 79.2803 97.2002 79.2803 97.5602L79.3203 101.76L79.4003 111.88L79.4803 124.08L79.5603 134.64C79.5603 136.32 79.5203 138.04 79.6003 139.76V139.84C79.6403 140.32 79.8803 140.76 80.2403 141.12C80.5203 141.32 80.7203 141.2 80.7203 140.84Z" fill="white"/>
<path d="M58.4401 115.841L58.1201 93.8806L95.1201 84.6406L105.4 86.8406L68.0801 95.7206L67.5601 117.801L58.4401 115.841Z" fill="#000005"/>
<path d="M59.3604 116L59.2404 108.56L59.0804 96.8003L59.0404 94.0803L58.6404 94.6803L62.3204 93.7603L71.1204 91.5603L81.8404 88.8803L91.0404 86.5603L94.0804 85.8003C94.5604 85.6803 95.0804 85.6003 95.5204 85.4403H95.6004H95.1604L104.16 87.3603L105.44 87.6403L104.84 86.0803L101.12 86.9603L92.2004 89.0803L81.4404 91.6403L72.1204 93.8403C70.6004 94.2003 69.0404 94.4803 67.5604 94.9203H67.4804C67.2004 95.0003 67.0404 95.2403 67.0804 95.5203L66.9204 103L66.6404 114.92L66.5604 117.64L67.4004 117.04L59.4004 115.32L58.2804 115.08C57.8804 115 57.4004 115.2 57.4404 115.68C57.5604 116.16 57.9604 116.56 58.4404 116.64L66.4404 118.36L67.5604 118.6C67.8804 118.72 68.2404 118.56 68.3604 118.24C68.4004 118.16 68.4004 118.08 68.4004 118L68.5604 110.52L68.8404 98.6003L68.9204 95.8803L68.5204 96.4803L72.2404 95.6003L81.1604 93.4803L91.9204 90.9203L101.24 88.7203C102.76 88.3603 104.32 88.0803 105.8 87.6403H105.88C106.2 87.5603 106.36 87.2403 106.24 86.9203C106.24 86.8803 106.24 86.8803 106.2 86.8403C106.04 86.4403 105.68 86.1603 105.24 86.0803L95.2404 83.9203C94.6804 83.8403 94.1204 83.9203 93.6004 84.1203L90.0404 85.0003L77.8004 88.0403L64.7204 91.3203L60.0004 92.5203C59.2404 92.7203 58.4404 92.8803 57.7204 93.0803L57.6004 93.1203C57.3204 93.2003 57.1604 93.4403 57.2004 93.7203L57.3204 101.16L57.4804 112.96L57.5204 115.68C57.5204 116.52 59.3604 117.12 59.3604 116Z" fill="#000005"/>
<path d="M120.761 119.04C120.761 119.04 129.521 116.36 128.041 123.52C127.441 126.52 121.761 126.68 121.761 126.68C121.761 126.68 122.401 135.28 117.921 138.48C113.441 141.68 104.041 139.16 104.041 139.16C104.041 139.16 103.521 141.92 99.2006 140.32C99.2006 140.32 98.9606 142.52 93.9606 140.56C88.9606 138.6 87.3606 133.04 89.8806 131.8C92.4006 130.56 96.0806 134.2 96.0806 134.2C96.0806 134.2 97.1206 129.28 101.241 133.2C101.241 133.2 101.201 130.28 104.241 130.52C107.281 130.76 108.041 131.2 110.641 130.8C114.161 130.32 120.801 126.48 120.801 126.48" fill="white"/>
<path d="M121.121 119.72C121.281 119.68 121.481 119.64 121.641 119.6L121.881 119.56C122.121 119.52 121.641 119.6 121.961 119.56C122.201 119.52 122.441 119.48 122.721 119.44C123.001 119.4 123.241 119.4 123.521 119.36H123.921C123.961 119.36 124.241 119.36 123.921 119.36H124.201C124.481 119.36 124.721 119.4 125.001 119.44L125.201 119.48C124.961 119.44 125.201 119.48 125.241 119.48C125.401 119.52 125.561 119.56 125.721 119.6L125.921 119.68C125.721 119.6 125.921 119.68 125.961 119.68C126.081 119.76 126.201 119.8 126.321 119.88C126.361 119.88 126.521 120.04 126.361 119.92L126.521 120.04C126.641 120.16 126.761 120.28 126.841 120.4C126.761 120.28 126.961 120.6 127.001 120.68C127.081 120.8 127.121 120.96 127.161 121.12C127.241 121.44 127.281 121.8 127.281 122.16C127.321 122.92 127.161 123.68 126.761 124.36C126.321 124.84 125.761 125.2 125.161 125.44C124.721 125.6 124.321 125.72 123.881 125.84H123.801L123.441 125.92L122.881 126C122.481 126.04 122.121 126.08 121.721 126.12C121.281 126.12 120.761 126.48 120.801 126.96C120.841 127.92 120.841 128.88 120.761 129.84C120.601 131.8 120.201 133.84 119.321 135.6C118.881 136.52 118.241 137.32 117.481 137.96C116.681 138.56 115.761 138.96 114.801 139.16C112.761 139.64 110.481 139.56 108.361 139.32C107.841 139.24 107.321 139.16 106.801 139.08L106.081 138.96H105.961L105.681 138.92C105.281 138.84 104.921 138.76 104.521 138.64C104.041 138.52 103.241 138.64 103.121 139.24C103.121 139.28 103.121 139.28 103.081 139.32C103.081 139.36 103.041 139.4 103.041 139.44C103.001 139.6 103.121 139.28 103.041 139.44L102.841 139.76C102.721 139.92 102.921 139.72 102.801 139.84C102.721 139.88 102.681 139.96 102.601 140.04C102.521 140.12 102.601 140.04 102.641 140C102.601 140.04 102.561 140.04 102.521 140.08L102.361 140.16C102.241 140.2 102.521 140.12 102.361 140.16C102.281 140.16 101.961 140.28 102.161 140.24C102.041 140.28 101.921 140.28 101.801 140.28C101.681 140.28 101.801 140.28 101.681 140.28H101.441C101.241 140.28 101.081 140.24 100.881 140.2C100.441 140.12 100.041 140 99.6407 139.84C99.2407 139.68 98.2807 139.88 98.2407 140.44C98.2407 140.48 98.2407 140.52 98.2007 140.56C98.1607 140.76 98.2407 140.48 98.2007 140.52C98.1607 140.56 98.1207 140.64 98.0807 140.72C98.2007 140.48 98.1207 140.68 98.0407 140.76C97.9607 140.84 98.2407 140.64 98.0807 140.72C98.0407 140.76 98.0007 140.76 97.9607 140.8C97.7607 140.88 98.2007 140.72 98.0007 140.8L97.8407 140.84C97.6407 140.92 98.0807 140.84 97.8407 140.84C97.7207 140.84 97.6407 140.88 97.5207 140.88C97.2407 140.88 97.7207 140.88 97.4407 140.88H97.1607C96.9207 140.88 96.6807 140.84 96.4807 140.8C95.9207 140.68 95.3607 140.52 94.8007 140.32C93.7607 139.96 92.8007 139.4 92.0007 138.68C90.8007 137.56 89.8007 136.04 89.7607 134.36C89.7607 134.08 89.8007 133.8 89.8807 133.52C89.8807 133.44 89.9207 133.36 89.9607 133.32C89.9207 133.48 90.0007 133.28 90.0007 133.24L90.1207 133.04C90.1607 133 90.1607 132.96 90.2007 132.92C90.1207 133 90.1207 133 90.2007 132.92L90.3607 132.76C90.2007 132.92 90.3607 132.76 90.4007 132.72C90.5207 132.64 90.6407 132.6 90.8007 132.56C90.6007 132.6 91.2007 132.56 91.0007 132.56C91.2007 132.56 91.4007 132.6 91.6007 132.64C93.0407 133 94.3207 133.96 95.3207 134.96C95.7607 135.4 96.9607 135.32 97.1207 134.6C97.1607 134.4 97.2407 134.2 97.3207 134C97.3607 133.88 97.4407 133.76 97.3607 133.84C97.4007 133.76 97.4407 133.64 97.5207 133.56C97.5607 133.44 97.6407 133.36 97.7207 133.28L97.8007 133.16C97.9207 133 97.6807 133.28 97.8407 133.12C97.9207 133.04 98.0007 132.96 98.0807 132.88C98.2407 132.76 97.9607 132.96 98.1207 132.88L98.2807 132.8C98.0407 132.92 98.5607 132.76 98.2407 132.8L98.4807 132.76C98.3207 132.76 98.4007 132.76 98.5207 132.76C98.6807 132.76 98.4407 132.72 98.5607 132.76L98.8007 132.84C98.9607 132.88 99.0807 132.96 99.2407 133.04C99.6807 133.32 100.121 133.64 100.521 134C101.041 134.52 102.361 134.28 102.321 133.44C102.321 133.2 102.281 133.52 102.321 133.36C102.361 133.16 102.401 132.96 102.441 132.76C102.521 132.36 102.801 131.96 103.161 131.76C103.201 131.72 103.281 131.72 103.321 131.68C103.161 131.76 103.481 131.64 103.481 131.64C103.601 131.6 103.761 131.6 103.881 131.6C104.441 131.6 105.041 131.68 105.601 131.76C106.481 131.88 107.361 132 108.241 132.04C111.961 132.2 115.401 130.56 118.641 128.92C119.601 128.44 120.561 127.92 121.481 127.4C121.801 127.24 121.961 126.88 121.841 126.52C121.801 126.44 121.761 126.4 121.721 126.36C121.321 126.04 120.761 126 120.321 126.24C117.961 127.64 115.521 128.8 112.961 129.76C112.561 129.92 112.161 130.04 111.761 130.16L111.201 130.32L110.961 130.36C111.161 130.32 110.761 130.4 110.761 130.4C109.881 130.56 108.961 130.6 108.081 130.52C107.041 130.44 105.961 130.24 104.921 130.16C103.881 130.08 102.841 130.08 101.961 130.64C100.921 131.28 100.321 132.44 100.361 133.64L102.241 133.04C100.761 131.64 98.5207 130.44 96.6807 131.96C95.9607 132.6 95.4807 133.44 95.3207 134.4L97.1207 134.04C95.9207 132.84 94.4807 131.92 92.8807 131.36C90.9207 130.76 88.4007 131.32 88.0007 133.6C87.6407 135.6 88.7207 137.68 90.0407 139.12C90.9607 140.08 92.0407 140.84 93.2407 141.32C94.4807 141.92 95.8407 142.28 97.2407 142.36C98.1607 142.4 99.1607 142.24 99.8407 141.6C100.121 141.36 100.321 141.04 100.401 140.68L99.0007 141.28C100.561 141.84 102.561 142.2 104.041 141.24C104.641 140.84 105.081 140.24 105.281 139.56L103.881 140.16C105.081 140.48 106.321 140.72 107.561 140.88C109.921 141.28 112.361 141.28 114.721 140.92C117.161 140.48 119.361 139.4 120.801 137.32C122.041 135.48 122.641 133.24 122.881 131.04C123.081 129.68 123.121 128.28 123.041 126.92L122.121 127.76C123.361 127.72 124.601 127.48 125.761 127.12C126.681 126.84 127.561 126.36 128.281 125.72C128.961 125.04 129.361 124.12 129.441 123.12C129.601 121.44 129.201 119.76 127.681 118.88C126.441 118.16 124.881 118.08 123.441 118.2C122.521 118.28 121.601 118.44 120.721 118.72C120.321 118.84 119.921 119.24 120.121 119.68C120.321 120.12 120.681 119.84 121.121 119.72Z" fill="#000005"/>
<path d="M100.92 133.8C101.32 136.08 102.6 138.08 104.52 139.32C105.4 139.92 106.4 140.32 107.48 140.48C107.88 140.52 107.56 140.12 107.44 139.96C107.28 139.76 107.08 139.6 106.88 139.44C106.72 139.32 106.52 139.2 106.32 139.16C105.92 139.12 105.52 139.04 105.16 138.92L105.04 138.88C105.12 138.92 105.04 138.88 105 138.88L104.76 138.76C104.72 138.76 104.52 138.64 104.6 138.68C104.68 138.72 104.6 138.68 104.56 138.64L104.44 138.56C104.24 138.44 104.52 138.6 104.4 138.52C104.36 138.48 104.12 138.32 104.28 138.44C104.44 138.56 104.2 138.4 104.2 138.36C104.04 138.24 104.36 138.52 104.16 138.32C104.12 138.28 104.08 138.2 104 138.16C104.2 138.32 104 138.16 103.96 138.12C103.92 138.08 103.88 138 103.8 137.96C103.72 137.92 103.88 138.08 103.84 138L103.76 137.88C103.68 137.76 103.6 137.64 103.52 137.52C103.52 137.52 103.4 137.32 103.44 137.4C103.48 137.48 103.44 137.4 103.44 137.36L103.4 137.24C103.28 137 103.16 136.76 103.04 136.52C102.92 136.28 102.88 136.08 102.8 135.88C102.76 135.76 102.8 135.92 102.8 135.84C102.8 135.8 102.76 135.76 102.76 135.72C102.72 135.64 102.72 135.56 102.68 135.44C102.64 135.24 102.6 135.08 102.56 134.88C102.52 134.52 102.04 134.16 101.72 133.96C101.64 133.96 100.88 133.52 100.92 133.8Z" fill="#000005"/>
<path d="M95.0803 134.08C95.1603 134.76 95.3203 135.44 95.5203 136.08C95.8803 137.32 96.5203 138.48 97.4003 139.44C98.0803 140.08 98.9603 140.48 99.8403 140.68C100.08 140.76 100.36 140.8 100.6 140.8C100.64 140.8 101 140.84 101.08 140.8C101.24 140.68 100.48 140.48 100.44 140.48C100.6 140.52 100.48 140.48 100.48 140.48C100.48 140.48 100.6 140.52 100.52 140.48L100.4 140.44C100.28 140.36 100.12 140.32 100 140.24C99.7203 140.08 99.4803 139.88 99.2803 139.64C98.8403 139.2 98.4403 138.68 98.1603 138.08C97.6803 137.12 97.3603 136.12 97.1603 135.08C97.1203 134.88 97.0803 134.64 97.0403 134.44C97.0003 134.24 96.2403 134.12 96.0803 134.12C96.0003 134.08 95.0403 133.92 95.0803 134.08Z" fill="#000005"/>
<path d="M20.8003 101.681C20.8003 101.681 6.28029 122.801 17.4003 133.641C28.5203 144.481 71.8803 139.201 71.8803 139.201L63.2803 135.601C63.2803 135.601 83.1603 144.241 81.6003 140.241C80.0403 136.241 66.2403 127.801 66.2403 127.801C66.2403 127.801 76.5603 123.001 72.6003 120.361C70.0003 118.601 59.2403 122.361 59.2403 122.361C59.2403 122.361 51.7603 116.881 44.8803 123.201L32.8403 119.201C32.8403 119.201 26.6003 101.681 20.8003 101.681Z" fill="white"/>
<path d="M20.0405 101.04C19.1605 102.36 18.3205 103.72 17.6005 105.16C15.9205 108.16 14.6005 111.36 13.6005 114.68C12.5205 118.4 11.9205 122.4 12.6405 126.24C13.3205 129.88 15.3205 133.16 18.3205 135.36C20.8005 137.16 23.7605 138.24 26.7205 139.04C30.2405 139.92 33.8405 140.52 37.4405 140.8C41.2805 141.16 45.0805 141.32 48.9205 141.32C52.4805 141.32 56.0405 141.24 59.6405 141.04C62.4405 140.88 65.2405 140.68 68.0405 140.44C69.4005 140.32 70.8005 140.24 72.1605 140.04L72.3605 140C73.2405 139.88 72.6805 138.64 72.1605 138.44L64.6405 135.32L63.5605 134.88C63.1605 134.72 62.6005 134.64 62.4405 135.16C62.3605 135.64 62.6005 136.12 63.0805 136.36C64.9205 137.16 66.8405 137.92 68.7205 138.68C71.8005 139.88 74.9605 141.08 78.2005 141.84C79.2405 142.08 80.5205 142.4 81.5605 142.12C82.7205 141.84 82.7605 140.76 82.2805 139.84C81.5605 138.36 80.2405 137.16 79.0805 136.08C77.5605 134.72 75.9605 133.44 74.2805 132.28C72.6805 131.12 71.0405 130 69.4005 128.92C68.4805 128.32 67.6005 127.68 66.6405 127.16L66.5205 127.08L66.8805 128.56C68.0405 128 69.2005 127.36 70.3205 126.68C71.2405 126.12 72.0805 125.48 72.8805 124.76C73.5605 124.2 74.0805 123.48 74.3605 122.64C74.6005 121.68 74.2405 120.68 73.4805 120.04C72.7205 119.4 71.7605 119.04 70.8005 119.04C68.4405 118.88 66.0005 119.48 63.7605 120.04C62.1205 120.44 60.4805 120.92 58.8805 121.48L59.7605 121.72C56.7605 119.52 52.5605 118.6 49.0005 119.68C47.2005 120.24 45.5205 121.2 44.1605 122.52L44.9605 122.32L34.4005 118.88L32.9205 118.4L33.8005 119.24C33.0405 117.12 32.1605 115.04 31.2005 113C30.4005 111.2 29.4805 109.48 28.4805 107.8C27.5605 106.16 26.4405 104.64 25.1605 103.28C23.9605 102.04 22.4405 100.84 20.6405 100.84C19.4005 100.84 20.1205 102.52 21.0805 102.56L21.4405 102.6C21.2405 102.56 21.6405 102.6 21.4405 102.6L21.5605 102.64L21.9205 102.76C21.7205 102.68 22.1205 102.84 21.9205 102.76L22.1205 102.84C22.2405 102.92 22.3605 102.96 22.4805 103.04L22.6405 103.12C22.4405 102.96 22.7605 103.2 22.6405 103.12C22.8805 103.32 23.1605 103.48 23.3605 103.72C23.8405 104.12 24.2405 104.6 24.6405 105.08C25.1205 105.68 25.5605 106.28 26.0005 106.92C27.6405 109.52 29.0805 112.24 30.2405 115.08C30.6805 116.12 31.1205 117.16 31.5205 118.24C31.5605 118.4 31.6005 118.48 31.5605 118.32C31.6005 118.4 31.6405 118.48 31.6405 118.56C31.6405 118.64 31.7205 118.8 31.8005 118.96C31.8805 119.2 31.9605 119.44 32.1205 119.68C32.5605 120.2 33.6405 120.4 34.2405 120.6L38.0805 121.84L44.8405 124.04C45.1205 124.12 45.4405 124.08 45.6405 123.84C48.0005 121.52 51.4005 120.52 54.6805 121.24C55.0805 121.32 55.4405 121.44 55.8405 121.56C56.0405 121.64 56.2405 121.68 56.4005 121.76L56.6405 121.84C56.6805 121.88 56.7205 121.88 56.6405 121.84L56.8005 121.92C57.3205 122.16 57.8405 122.4 58.3205 122.68C58.4805 122.76 58.6405 122.84 58.7605 122.96C58.6005 122.8 58.5605 122.84 58.7205 122.96C59.0805 123.24 59.5605 123.28 59.9605 123.12C60.3605 122.96 60.8005 122.84 61.2005 122.72C64.0805 121.84 67.2405 120.88 70.2005 120.8C70.5205 120.8 70.8405 120.8 71.1605 120.8C71.3205 120.8 71.4405 120.84 71.6005 120.84C71.7605 120.84 71.4005 120.8 71.6405 120.84L71.9205 120.92L72.1205 120.96C71.9205 120.84 72.3205 121.04 72.1205 120.96C72.2005 121 72.4405 121.16 72.2005 121C72.2805 121.04 72.6005 121.36 72.4005 121.16L72.5205 121.28L72.5605 121.36C72.4805 121.24 72.4805 121.2 72.5205 121.32L72.5605 121.48C72.6005 121.68 72.5605 121.32 72.5605 121.44C72.5605 121.48 72.5605 121.52 72.5605 121.6C72.5605 121.68 72.5605 121.72 72.5605 121.76C72.5605 121.56 72.5605 121.76 72.5605 121.8C72.5205 121.92 72.4805 122.04 72.4405 122.16C72.4005 122.28 72.4005 122.28 72.3605 122.32C72.4405 122.16 72.3205 122.36 72.3205 122.36C72.2405 122.48 72.1605 122.56 72.0805 122.68C71.8805 122.92 71.6405 123.16 71.4405 123.4C69.8805 124.92 67.6805 126.16 65.6005 127.08C64.8805 127.4 65.6005 128.32 65.9605 128.56C66.5605 128.92 67.1605 129.32 67.7605 129.68L68.6405 130.24L69.1205 130.56L69.0805 130.52L69.2405 130.6L69.5205 130.8C70.2805 131.32 71.0405 131.84 71.8005 132.36C73.4405 133.52 75.0805 134.72 76.6405 135.96C77.3605 136.56 78.0405 137.16 78.7205 137.76C79.0805 138.08 79.1205 138.12 79.4805 138.52C79.7205 138.8 79.9605 139.08 80.2005 139.36C80.2805 139.48 80.4005 139.6 80.4805 139.72C80.4005 139.56 80.5605 139.84 80.4805 139.72C80.5205 139.8 80.5605 139.88 80.6005 139.92C80.6405 139.96 80.7205 140.16 80.7605 140.28C80.7605 140.16 80.8005 140.4 80.7605 140.28C80.7605 140.32 80.7605 140.36 80.8005 140.4C80.8805 140.48 80.8005 140.48 80.8005 140.32C80.8005 140.36 80.8005 140.36 80.8005 140.4C80.8005 140.52 80.8805 140.2 80.8005 140.4C80.8005 140.36 80.9205 140.24 80.8005 140.4C80.6805 140.56 80.8805 140.28 80.8805 140.36C80.8405 140.4 80.8005 140.4 80.8005 140.4C80.6405 140.4 81.0005 140.36 80.7605 140.4L80.5205 140.44C80.3205 140.48 80.6805 140.44 80.4405 140.44H80.1205C79.8805 140.44 79.6405 140.4 79.4005 140.36L79.2005 140.32C79.0405 140.28 79.3605 140.36 79.1605 140.32L78.7205 140.24C75.6405 139.6 72.6005 138.44 69.6805 137.32C68.9605 137.04 68.2405 136.76 67.5205 136.48C67.6805 136.56 67.5205 136.48 67.4405 136.44L67.2005 136.32L66.7205 136.12L65.8805 135.76C65.1605 135.48 64.4805 135.12 63.7605 134.88L63.6805 134.84L63.2005 136.28L70.7205 139.4L71.8005 139.84L71.6005 138.28C70.6805 138.4 69.7605 138.48 68.8405 138.56C68.3605 138.6 67.8805 138.64 67.4005 138.68L66.5605 138.76L66.1605 138.8L65.8405 138.84C64.4805 138.96 63.1605 139.04 61.8005 139.12C58.4405 139.32 55.1205 139.48 51.7605 139.52C48.0405 139.56 44.2805 139.52 40.5605 139.28C36.9605 139.08 33.4005 138.64 29.8405 138C28.2405 137.68 26.6405 137.28 25.0805 136.8C24.7205 136.68 24.3605 136.56 23.9605 136.44L23.4805 136.24L23.2405 136.16L23.1205 136.12C23.2005 136.16 23.2005 136.16 23.1205 136.12C22.4805 135.84 21.8405 135.56 21.2005 135.24C20.8805 135.08 20.6005 134.92 20.3205 134.76C20.2005 134.68 20.0405 134.6 19.9205 134.52L19.8005 134.44L19.6805 134.36C19.1605 134 18.6805 133.64 18.2405 133.2C16.9605 131.96 15.9205 130.48 15.2805 128.8C13.9605 125.44 14.1205 121.52 14.8805 118C15.6405 114.52 16.8405 111.16 18.4405 107.96C19.3605 106.08 20.3605 104.28 21.5205 102.56L21.6805 102.32C22.1605 101.48 20.6005 100.24 20.0405 101.04Z" fill="#000005"/>
<path d="M158.2 112.2L146.48 91.7202C146.48 91.7202 143.72 74.6802 145.64 72.4002C148.2 69.3202 154.92 67.5602 163.68 70.3602C172.08 73.0402 179.88 76.1602 179.56 93.9202C179.52 96.6002 182.88 111.24 181.24 113.4C178.4 117 168.16 119.8 158.2 112.2Z" fill="#000005"/>
<path d="M143.56 115.52C143.56 115.52 144.32 114.32 145.16 112.72C146 111.12 145.88 110.08 141.32 106.84C132.36 100.44 136.52 91.4801 136.52 91.4801C136.52 91.4801 135.08 91.2401 133 89.7201C131.2 88.4001 130.04 84.2801 136.36 84.2001C137.84 84.1601 139.52 83.9601 140.84 82.0401C142.52 79.6401 143.4 77.3601 146.44 73.0801L146.76 75.4001C147.6 81.5201 151.08 87.0001 156.32 90.3201L156.88 90.2801C154.12 100.12 158.72 106.96 158.72 106.96C158.72 106.96 158.12 110.48 158.2 112.2C158.2 112.2 149.12 120.32 143.56 115.52Z" fill="white"/>
<path d="M144.28 116.2C144.92 115.2 145.48 114.2 146.04 113.16C146.36 112.56 146.52 111.88 146.44 111.24C146.28 110.36 145.84 109.56 145.2 108.92C144.2 107.92 143.08 107 141.92 106.2C139.72 104.6 137.88 102.6 137.04 100.04C136.48 98.3205 136.32 96.4805 136.64 94.6805C136.72 94.2805 136.8 93.8805 136.88 93.4805C136.92 93.3205 136.84 93.6405 136.88 93.4005C136.92 93.3205 136.92 93.2405 136.96 93.1605C137 93.0005 137.04 92.8805 137.08 92.7605C137.16 92.4805 137.24 92.2405 137.36 92.0005C137.68 91.3205 137.04 90.6405 136.4 90.5605C136.56 90.6005 136.68 90.6405 136.48 90.5605C136.36 90.5205 136.24 90.4805 136.08 90.4405C135.68 90.3205 135.32 90.1605 134.96 89.9605C134.4 89.6805 133.88 89.3605 133.4 88.9605C133.32 88.8805 133.2 88.8005 133.12 88.7205L133 88.6005C132.92 88.4805 132.84 88.4005 132.8 88.2805C132.8 88.2405 132.64 88.0005 132.72 88.1605C132.8 88.3205 132.68 88.0805 132.68 88.0405C132.64 87.9205 132.6 87.8005 132.56 87.6805C132.52 87.5205 132.52 87.5605 132.56 87.6805C132.56 87.6005 132.52 87.5205 132.52 87.4405C132.52 87.3605 132.52 87.3205 132.52 87.2405C132.48 87.0405 132.52 87.3205 132.52 87.2005C132.52 87.0805 132.56 86.8005 132.56 86.8805C132.6 86.8005 132.64 86.6805 132.68 86.6005C132.76 86.4405 132.68 86.6005 132.68 86.5605C132.68 86.5205 132.76 86.4405 132.84 86.3605C132.88 86.3205 132.92 86.2405 133 86.2005C133.08 86.0805 132.92 86.2405 133.08 86.1205C133.24 86.0005 133.4 85.9205 133.56 85.8005C133.92 85.6005 134.32 85.4805 134.68 85.4005C135.8 85.1605 136.92 85.2805 138.04 85.0805C139.28 84.8805 140.4 84.2405 141.2 83.3205C141.84 82.5205 142.4 81.6805 142.88 80.8005C144.28 78.4405 145.64 76.0405 147.2 73.8005L145.6 73.0805C145.92 75.4805 146.24 77.8405 147.12 80.1605C148.32 83.4005 150.28 86.3605 152.84 88.7205C153.56 89.3605 154.32 90.0005 155.08 90.5605C155.48 90.8405 155.96 91.3205 156.48 91.3205C156.68 91.3205 156.88 91.2805 157.04 91.2805L156.08 89.8405C154.56 95.3205 154.84 101.32 157.44 106.44C157.6 106.8 157.8 107.12 158 107.44L157.84 106.72C157.48 108.52 157.28 110.36 157.32 112.2L157.68 111.4C156.68 112.28 155.6 113.08 154.44 113.76C152.44 115 150.08 116.12 147.72 116.12C146.4 116.16 145.12 115.72 144.12 114.92C143.8 114.56 143.24 114.56 142.88 114.88L142.84 114.92C142.56 115.36 142.64 115.92 143 116.28C147.64 120.2 154.04 116.88 158.08 113.64L158.64 113.16C159.12 112.72 159.04 112.2 159.04 111.68C159.12 110.28 159.28 108.88 159.52 107.48C159.6 106.84 159.28 106.44 158.96 105.92L158.84 105.68C158.72 105.44 158.92 105.84 158.8 105.64C158.68 105.44 158.6 105.2 158.48 104.96C158.24 104.4 158.04 103.84 157.84 103.28C156.56 99.2805 156.48 94.9605 157.64 90.9205C157.8 90.3205 157.44 89.4405 156.68 89.4805C156.48 89.5205 156.28 89.5205 156.12 89.5205L156.56 89.6405C151.64 86.4805 148.36 81.3205 147.56 75.5205C147.44 74.7605 147.36 74.0005 147.24 73.2005C147.16 72.5605 146.16 71.7605 145.64 72.4805C144.12 74.6805 142.76 76.9605 141.44 79.2805C140.96 80.2005 140.4 81.0405 139.76 81.8405C139.04 82.6805 138 83.2005 136.88 83.2805C134.92 83.4405 132.36 83.3205 131.12 85.2005C130.28 86.5205 130.56 88.2005 131.4 89.4405C132.08 90.3605 133 91.0805 134 91.6005C134.76 92.0805 135.64 92.4005 136.52 92.5605L135.56 91.1205C134.48 93.6005 134.2 96.3205 134.76 98.9605C135.28 101.48 136.56 103.84 138.36 105.68C139.52 106.88 140.88 107.76 142.16 108.76C142.68 109.16 143.16 109.6 143.64 110.04C143.8 110.2 143.96 110.36 144.12 110.56C144 110.4 144.16 110.6 144.2 110.64C144.24 110.68 144.32 110.8 144.36 110.88L144.44 111C144.52 111.12 144.36 110.8 144.4 110.92C144.44 111.04 144.48 111.08 144.48 111.16C144.48 111.24 144.48 110.96 144.48 111.2C144.48 111.28 144.48 111.36 144.48 111.4C144.48 111.12 144.44 111.52 144.44 111.64C144.48 111.36 144.36 111.8 144.32 111.92C143.84 112.96 143.28 113.92 142.68 114.88C142.4 115.32 142.48 115.88 142.84 116.24C143.32 116.48 144 116.64 144.28 116.2Z" fill="#000005"/>
<path d="M102.2 114.12C102.2 114.12 99.6801 94.2798 97.1601 93.0398C94.6401 91.7998 95.3601 99.9998 95.3601 99.9998C95.3601 99.9998 82.9601 94.3198 79.6401 95.5198C76.3201 96.7198 82.7201 100.6 82.7201 100.6C82.7201 100.6 75.7601 100.6 75.0401 103.04C74.3201 105.48 81.7601 104.88 83.5201 105.24C83.5201 105.24 75.9201 106.84 77.5201 108.84C79.1201 110.84 82.7201 109.4 84.1601 109.84C85.6001 110.28 84.0001 115.72 87.0801 118.92C90.1601 122.12 92.1601 122.12 92.1601 122.12" fill="white"/>
<path d="M102.88 114.52C102.36 110.36 101.68 106.2 100.84 102.08C100.32 99.5602 99.8004 96.9602 98.8004 94.6002C98.4404 93.7602 98.0004 92.8002 97.2004 92.2802C96.6004 91.8402 95.7604 91.9202 95.3204 92.5202C95.2404 92.6402 95.1604 92.8002 95.1204 92.9202C94.5604 94.1602 94.5604 95.6402 94.5604 96.9602C94.5604 97.8002 94.6004 98.6802 94.6404 99.5202L95.3204 99.1202C92.2404 97.6802 89.1204 96.4802 85.8804 95.4802C84.0404 94.9202 82.0004 94.2802 80.0404 94.4002C79.3604 94.4402 78.4804 94.6802 78.1204 95.3602C77.6404 96.2802 78.2804 97.3602 78.8004 98.1202C79.8004 99.4402 81.3204 100.48 82.7204 101.36L82.3204 99.6402C81.4004 99.6402 80.4804 99.7202 79.5604 99.8002C78.1604 99.9602 76.5204 100.24 75.3204 101.04C74.0004 101.92 73.9204 103.56 75.1204 104.64C76.1604 105.56 77.8004 105.68 79.1204 105.76C80.0004 105.84 80.8804 105.84 81.7604 105.88C82.4004 105.88 83.0404 105.92 83.6804 106L83.0804 104.2C81.5204 104.52 80.0404 105 78.6004 105.6C77.8404 105.92 76.8804 106.44 76.6404 107.28C76.2804 108.48 77.4804 109.76 78.4404 110.24C79.7604 110.88 81.2804 110.72 82.6804 110.6C83.2004 110.52 83.7204 110.52 84.2404 110.56C84.4404 110.6 84.2804 110.56 84.1604 110.48C84.2804 110.56 83.9204 110.16 84.0004 110.32C83.8804 110.12 83.9204 110.16 83.9604 110.24C84.0404 110.44 83.9204 110.08 83.9604 110.2C84.0004 110.32 84.0004 110.4 84.0404 110.52C84.1204 110.84 84.1604 111.52 84.2004 112C84.2404 112.72 84.3204 113.44 84.4404 114.12C84.6404 115.68 85.2004 117.12 86.0404 118.44C87.2004 120.04 88.7204 121.36 90.4804 122.24C91.0804 122.6 91.7604 122.8 92.4804 122.88C93.2804 122.88 92.4804 121.08 91.7204 121.08H91.6404C91.8804 121.12 91.6004 121.08 91.5204 121.04C91.2004 120.96 90.9204 120.88 90.6404 120.76C89.3204 120.12 88.1604 119.24 87.2004 118.12C85.5604 116.28 85.7604 113.64 85.4404 111.32C85.3204 110.36 84.9604 109.12 83.8804 108.8C82.8004 108.48 81.5604 108.84 80.4804 108.88C79.8404 108.92 79.2004 108.88 78.6004 108.68C78.3604 108.6 78.1204 108.48 77.9604 108.32C77.8804 108.24 77.7604 108 77.8804 108.28C77.8404 108.2 77.9204 108.4 77.9604 108.44C78.0404 108.64 78.0004 108.56 77.9604 108.52C77.9204 108.4 78.0004 108.52 77.9604 108.56C77.9604 108.56 77.9604 108.48 78.0004 108.48C77.9604 108.6 78.0004 108.52 78.0004 108.48C78.0804 108.36 78.1604 108.24 78.2404 108.12C78.5204 107.88 78.8404 107.64 79.2004 107.48C80.6804 106.76 82.2404 106.24 83.8404 105.96C84.6804 105.76 83.8004 104.28 83.2804 104.16C82.0804 104 80.8804 103.96 79.6804 103.96C78.4004 103.92 76.9204 103.88 75.7204 103.4C75.8004 103.44 75.5604 103.32 75.5204 103.28C75.3204 103.16 75.5604 103.36 75.4004 103.2C75.6804 103.48 75.3604 103.12 75.4804 103.32C75.6004 103.52 75.4404 103.12 75.5604 103.48C75.5204 103.32 75.6004 103.56 75.6004 103.64C75.6404 103.8 75.6404 103.44 75.6004 103.68C75.7204 103.24 76.0004 102.88 76.4004 102.68C77.4804 101.96 78.8804 101.76 80.1604 101.56C81.0804 101.44 82.0404 101.36 83.0004 101.36C83.3604 101.36 83.3604 100.88 83.3204 100.64C83.2404 100.24 82.9604 99.8802 82.6004 99.6402C82.2404 99.4002 81.8804 99.2002 81.5604 98.9602L81.4404 98.8802C81.4404 98.8802 81.5204 98.9602 81.4804 98.8802L81.2404 98.7202C81.0804 98.6002 80.8804 98.4402 80.7204 98.3202C80.5604 98.2002 80.4004 98.0802 80.2404 97.9202L80.0004 97.7202L79.8404 97.5602C79.7204 97.4402 79.6004 97.2802 79.4804 97.1202C79.4404 97.0802 79.4404 97.0802 79.4004 97.0402C79.3204 96.9202 79.4804 97.2002 79.4404 97.0802C79.4004 97.0402 79.2804 96.8002 79.3604 96.9202C79.4404 97.0402 79.3204 96.8402 79.3204 96.8002C79.4404 97.2002 79.2404 96.5602 79.3604 96.9202C79.3204 96.8002 79.3604 96.8402 79.3604 96.8802C79.3604 96.8402 79.3604 96.8402 79.3604 96.8002C79.4404 96.6402 79.3204 96.8802 79.3604 96.7602C79.5204 96.5202 79.8004 96.3202 80.0804 96.2402C80.3604 96.1602 80.6404 96.1202 80.9204 96.1202C82.7204 96.0402 84.5604 96.6402 86.2404 97.1602C88.2404 97.7602 90.2004 98.5202 92.1604 99.3202C93.3204 99.8002 94.2004 100.16 95.3204 100.68C95.6804 100.84 96.0404 100.72 96.0004 100.28C95.8004 98.5202 95.8404 96.7202 96.1604 95.0002C96.2004 94.6002 96.3604 94.2002 96.6004 93.8802C96.7204 93.7602 96.6004 93.8802 96.7204 93.8002C96.7604 93.7602 96.9604 93.7202 96.8404 93.7202C96.9204 93.7202 96.9604 93.6802 97.0404 93.6802C96.9604 93.6802 97.1204 93.7202 97.2004 93.7202C97.0804 93.6802 97.2004 93.7202 97.2404 93.7602C97.0004 93.6002 97.1604 93.6802 97.2004 93.7602C96.9604 93.5202 97.1204 93.6802 97.2004 93.7602C97.1204 93.6002 97.3604 93.9602 97.2004 93.7602C97.2804 93.9202 97.3604 94.0402 97.4404 94.1602C97.2804 93.8402 97.4404 94.1602 97.4804 94.2402C97.5204 94.3202 97.6004 94.4802 97.6404 94.5602C97.7204 94.7602 97.8004 95.0002 97.8804 95.2002L98.0004 95.5202L98.0404 95.6802C98.1204 95.9202 98.0004 95.4802 98.0404 95.7202C98.2004 96.2802 98.3604 96.8402 98.5204 97.4002C98.8804 98.6802 99.1604 99.9602 99.4004 101.24C99.9604 103.88 100.4 106.56 100.8 109.24C100.88 109.84 100.96 110.44 101.08 111C101.12 111.28 101.16 111.56 101.2 111.8C101.2 111.84 101.2 111.88 101.2 111.92C101.16 111.72 101.2 111.88 101.2 111.92C101.2 111.96 101.24 112.12 101.24 112.24C101.28 112.64 101.36 113.08 101.4 113.48C101.44 113.96 101.72 114.4 102.12 114.68C102.44 114.88 102.84 114.72 102.8 114.28L102.88 114.52Z" fill="#000005"/>
<path d="M82.1204 100.96C82.3604 100.96 82.5604 100.96 82.7604 100.96H83.4405H83.8405C83.9205 100.96 84.0004 100.96 84.0804 100.96H84.2004C84.0004 100.96 84.2804 100.96 84.3204 100.96L84.5604 101L85.0004 101.04L85.4405 101.08C85.5205 101.08 85.6004 101.08 85.6804 101.12C85.8004 101.12 85.9604 101.16 86.0804 101.2C86.1204 101.2 86.3604 101.28 86.1604 101.2L86.3204 101.24L86.6405 101.36C86.4805 101.28 86.6404 101.36 86.6804 101.4L86.8004 101.48C87.2404 101.68 87.7204 101.72 88.1604 101.6C88.3604 101.56 88.8804 101.44 88.5205 101.24C88.0005 100.96 87.4005 100.8 86.8405 100.72C86.1605 100.6 85.4804 100.52 84.8004 100.48C83.9204 100.44 83.0404 100.4 82.1604 100.4C81.9604 100.4 81.2004 100.36 81.1604 100.64C81.1204 100.92 82.0404 100.96 82.1604 100.96H82.1204Z" fill="#000005"/>
<path d="M83.7604 103.88L81.6804 104.04L81.3604 104.08C81.0004 104.12 81.4404 104.76 81.5204 104.88C81.6804 105.08 81.8404 105.28 82.0404 105.44C82.1604 105.52 82.3204 105.68 82.4804 105.68L84.5604 105.52L84.8804 105.48C85.2404 105.44 84.8004 104.8 84.7204 104.68C84.5604 104.48 84.4004 104.28 84.2004 104.12C84.0804 104 83.9204 103.88 83.7604 103.88Z" fill="#000005"/>
<path d="M106.921 162C87.3606 148.08 85.6406 126.32 85.6406 126.32L101.801 110.12L115.321 128.76C115.321 128.76 145.761 104.28 166.561 108.92C166.561 108.92 179.441 110.72 186.761 163.4" fill="white"/>
<path d="M107.281 161.24C100.841 156.6 95.5608 150.52 91.8808 143.48C89.4808 138.96 87.8008 134.08 86.8408 129.04C86.7608 128.64 86.6808 128.24 86.6408 127.84C86.6008 127.68 86.6808 128.04 86.6408 127.92L86.6008 127.76C86.6008 127.68 86.6008 127.6 86.5608 127.52C86.5208 127.44 86.5208 127.28 86.5208 127.12C86.4808 126.88 86.4408 126.64 86.4408 126.36L86.2408 126.96L91.7208 121.44L100.401 112.76L102.401 110.76L101.241 110.56L105.801 116.88L113.081 126.92L114.761 129.2C115.001 129.56 115.481 129.68 115.881 129.44C115.921 129.44 115.921 129.4 115.961 129.4C116.361 129.08 116.721 128.8 117.121 128.52L117.761 128.04L117.801 128L117.961 127.88L118.401 127.56C119.001 127.12 119.641 126.64 120.281 126.2C123.921 123.64 127.681 121.2 131.561 119C136.361 116.24 141.361 113.88 146.561 112C151.561 110.24 156.921 108.96 162.241 109.2C163.721 109.24 165.201 109.44 166.641 109.76L166.801 109.8C166.961 109.84 166.521 109.68 166.721 109.76L166.881 109.84C167.201 109.96 167.521 110.12 167.841 110.32C167.921 110.36 167.601 110.16 167.801 110.28L167.961 110.36L168.281 110.6C168.521 110.76 168.761 110.96 168.961 111.16C169.081 111.28 169.201 111.4 169.361 111.52L169.561 111.68L169.641 111.76C169.801 111.92 169.481 111.6 169.601 111.72C169.881 112.04 170.161 112.32 170.441 112.64C171.121 113.44 171.761 114.28 172.321 115.12L172.441 115.28L172.481 115.36L172.561 115.44C172.601 115.52 172.641 115.6 172.681 115.64C172.841 115.92 173.041 116.2 173.201 116.48C173.561 117.08 173.921 117.72 174.241 118.36C175.041 119.88 175.761 121.44 176.441 123.04C176.641 123.48 176.801 123.96 177.001 124.44C177.201 124.96 177.281 125.12 177.481 125.72C177.881 126.8 178.241 127.88 178.641 128.96C179.481 131.44 180.201 134 180.881 136.52C182.641 143.24 183.961 150.04 185.081 156.92C185.401 158.96 185.721 161.04 186.001 163.08C186.041 163.6 186.361 164.04 186.881 164.16C187.281 164.2 187.641 163.96 187.681 163.56C187.681 163.48 187.681 163.44 187.681 163.36C186.641 155.76 185.321 148.16 183.561 140.64C182.401 135.44 180.881 130.32 179.041 125.28C177.841 121.92 176.321 118.68 174.561 115.6C173.481 113.72 172.201 111.96 170.681 110.4C169.841 109.48 168.841 108.72 167.721 108.16C167.161 107.92 166.601 107.72 166.001 107.64C160.761 106.6 155.281 107.36 150.161 108.76C144.641 110.32 139.321 112.48 134.281 115.2C129.921 117.48 125.721 120.04 121.641 122.8C119.401 124.32 117.201 125.88 115.081 127.56L114.801 127.8L115.961 128L111.361 121.68L104.081 111.64L102.401 109.36C102.161 109 101.681 108.88 101.281 109.12C101.241 109.12 101.241 109.16 101.201 109.16L94.3208 116.04L85.4808 124.88C85.1608 125.2 84.8008 125.44 84.8008 125.96C84.8008 126.12 84.8408 126.28 84.8408 126.48C85.0008 127.72 85.2008 128.96 85.4808 130.16C86.5208 135 88.2008 139.68 90.5208 144.04C93.8408 150.44 98.4408 156.12 104.081 160.68C104.881 161.32 105.721 161.96 106.561 162.56C107.601 163.52 108.161 161.88 107.281 161.24Z" fill="#000005"/>
<path d="M144.641 84.4801C144.641 84.4801 143.561 85.4401 144.601 86.4001C145.641 87.3601 146.801 86.0801 146.201 85.0001C145.601 83.9201 144.641 84.4801 144.641 84.4801Z" fill="#000005"/>
<path d="M145.161 81.4805C144.121 81.0005 143.321 80.0405 143.081 78.9205C142.721 77.5205 142.961 76.0005 143.801 74.8005C144.681 73.4405 145.961 72.1605 147.561 71.6805C149.081 71.2805 150.721 71.4005 152.161 72.0405C153.921 72.7605 155.401 74.0405 156.881 75.2805C157.121 75.4805 157.721 75.8405 157.961 75.5205C158.201 75.2005 157.681 74.6805 157.481 74.4805C154.521 71.9605 150.801 69.2005 146.681 70.1205C144.801 70.5605 143.281 71.9605 142.241 73.5205C141.241 74.9605 140.961 76.7605 141.441 78.4005C142.041 80.3605 143.481 82.0005 145.401 82.8005C145.721 82.9205 146.161 82.9205 146.121 82.4805C146.081 82.0405 145.561 81.6405 145.161 81.4805Z" fill="#000005"/>
<path d="M137.641 77.9998C137.921 74.9598 139.961 72.3598 142.841 71.3998C144.281 70.9998 145.801 70.8798 147.281 71.0398C148.801 71.1198 150.281 71.3998 151.721 71.7998C153.281 72.2398 154.681 73.1598 155.681 74.4398C156.001 74.8798 157.881 74.3198 157.521 73.8398C155.481 71.0798 151.561 70.4398 148.361 70.1998C144.721 69.9198 140.561 70.5597 137.961 73.3598C136.641 74.7597 135.841 76.5598 135.681 78.4798C135.681 78.8398 137.601 78.6398 137.641 77.9998Z" fill="#000005"/>
<path d="M153.801 94.2C153.801 94.2 156.041 88.16 159.801 91.64C163.561 95.12 158.521 100.88 154.401 101" fill="white"/>
<path d="M154.36 95.0001C154.92 93.5601 156.16 91.4401 157.92 91.4801C158.6 91.5201 159.2 91.8001 159.68 92.2801C159.92 92.4801 160.12 92.7201 160.28 93.0001C160.32 93.0801 160.36 93.1201 160.36 93.2001C160.4 93.3601 160.44 93.5201 160.48 93.6801C160.64 95.1601 159.72 96.6801 158.76 97.7601C157.56 99.0401 155.84 100.12 154.04 100.2C153.44 100.24 154.2 102 154.8 102C156.64 101.84 158.32 101.04 159.6 99.6801C160.88 98.4001 161.84 96.7201 161.72 94.8401C161.52 92.7601 160.24 90.9201 158.36 90.0001C157 89.3601 155.72 89.9201 154.76 91.0001C154.12 91.7201 153.6 92.5601 153.28 93.4801C153.12 93.8801 153.4 94.3601 153.64 94.6801C153.68 94.7601 154.24 95.4001 154.36 95.0001Z" fill="#000005"/>
<path d="M142.92 97.6C143.72 97.88 144.56 97.84 145.32 97.48C146.24 97.08 146.96 96.32 147.32 95.4C147.48 94.92 147.52 94.44 147.48 93.92C147.44 93.76 147.32 93.64 147.16 93.6C146.96 93.56 146.72 93.6 146.52 93.72C146.28 93.84 146.08 94 145.92 94.2C145.8 94.36 145.72 94.52 145.72 94.72C145.72 94.92 145.72 95.12 145.72 95.32V95.16C145.72 95.36 145.68 95.56 145.6 95.76L145.56 95.84C145.48 96 145.6 95.72 145.56 95.84C145.52 95.92 145.48 96 145.44 96.08L145.4 96.16C145.36 96.2 145.56 95.96 145.44 96.08C145.4 96.16 145.32 96.2 145.28 96.28C145.36 96.2 145.52 96 145.28 96.28C145.2 96.36 145.04 96.44 145.36 96.2L145.28 96.28L145.2 96.32C145.52 96.12 145.4 96.24 145.28 96.28C144.92 96.4 145.16 96.32 145.28 96.28L145.04 96.36H144.96C145.24 96.28 145.12 96.32 145.04 96.36C144.96 96.36 144.88 96.36 144.8 96.36C144.72 96.36 144.6 96.32 144.84 96.36C144.8 96.36 144.8 96.36 144.76 96.36C144.6 96.36 144.48 96.32 144.32 96.28L144.48 96.32L144.4 96.28C143.96 96.16 143.48 96.28 143.16 96.64C143 96.8 142.88 96.96 142.8 97.2C142.76 97.36 142.8 97.56 142.92 97.6Z" fill="#000005"/>
<path d="M156.08 101.84C156.08 101.84 156.28 117.76 166.12 122.08C175.96 126.4 184.64 120.12 180.28 106.16C175.92 92.1998 156.08 101.84 156.08 101.84Z" fill="#000005"/>
<path d="M154.921 100.76C154.321 104.64 154.121 108.52 154.361 112.44C154.601 115.88 155.761 119.48 158.961 121.24C159.321 121.4 159.761 121.28 159.921 120.92C159.961 120.88 159.961 120.8 160.001 120.76C160.081 120.24 159.841 119.72 159.361 119.48C156.721 118.04 156.121 114.72 156.001 112C155.881 108.52 156.081 105 156.561 101.52C156.641 101 156.401 100.48 155.921 100.24C155.561 100.08 155.121 100.2 154.961 100.56C154.921 100.6 154.921 100.68 154.921 100.76Z" fill="#000005"/>
</svg>
