<svg width="200" height="200" viewBox="0 0 200 200" fill="none" xmlns="http://www.w3.org/2000/svg">
<path d="M111.001 169.801C111.001 169.801 189.561 169.681 172.121 126.321C170.881 123.201 142.521 73.9606 112.721 79.5606C82.9212 85.1606 111.001 169.801 111.001 169.801Z" fill="#000005"/>
<path d="M110.48 170.32C111.68 170.32 112.88 170.28 114.08 170.24C117.16 170.12 120.28 169.88 123.36 169.56C127.6 169.12 131.84 168.52 136.04 167.72C140.72 166.84 145.36 165.68 149.88 164.16C154.4 162.72 158.68 160.72 162.72 158.24C166.36 155.92 169.72 153.08 172.08 149.48C174.4 145.92 175.64 141.76 175.56 137.52C175.52 135.04 175.16 132.56 174.48 130.16C174.04 128.44 173.44 126.76 172.68 125.16C171.08 122.16 169.32 119.28 167.4 116.48C164.2 111.68 160.72 107.04 157 102.64C152.76 97.5599 148 92.8799 142.84 88.7199C137.88 84.7999 132.32 81.4799 126.2 79.7599C123.28 78.9199 120.24 78.5199 117.2 78.5999C114.64 78.6399 112.12 79.1199 109.72 80.0399C106.12 81.5599 103.32 84.4399 101.6 87.8799C99.6402 91.8399 98.8002 96.2399 98.4002 100.6C97.9602 105.92 98.0002 111.24 98.5202 116.52C99.0002 122.2 99.8002 127.88 100.84 133.48C101.8 138.76 102.96 144.04 104.24 149.28C105.28 153.52 106.4 157.76 107.6 161.96C108.32 164.4 109.04 166.8 109.8 169.24C109.88 169.56 110 169.88 110.12 170.2C110.28 170.68 112.12 169.96 111.96 169.4C111.56 168.12 111.16 166.84 110.76 165.56C109.76 162.2 108.76 158.84 107.88 155.44C106.6 150.72 105.44 145.96 104.4 141.16C103.2 135.72 102.2 130.2 101.4 124.68C100.6 119.2 100.12 113.72 100 108.2C99.9202 103.36 100.16 98.4399 101.28 93.7199C101.72 91.7199 102.36 89.7999 103.2 87.9599C103.6 87.1199 104.08 86.2799 104.6 85.4799C105.08 84.7599 105.6 84.0799 106.2 83.4399C106.48 83.1199 106.8 82.8399 107.12 82.5599C106.96 82.7199 107.2 82.5199 107.24 82.4799L107.52 82.2399C107.68 82.1199 107.88 81.9599 108.08 81.8399L108.32 81.6799C108.08 81.8399 108.36 81.6399 108.44 81.5999C108.64 81.4799 108.84 81.3599 109.04 81.2399L109.36 81.0799C109.12 81.1999 109.36 81.0799 109.44 81.0399C109.64 80.9599 109.84 80.8399 110.08 80.7599L110.36 80.6399C110.04 80.7599 110.4 80.6399 110.48 80.5999C110.72 80.5199 110.96 80.4399 111.2 80.3599L111.56 80.2799H111.52L111.72 80.2399C111.96 80.1999 112.2 80.1199 112.44 80.0799C113.84 79.7999 115.28 79.6799 116.72 79.6399C122.76 79.5599 128.64 81.6799 133.84 84.6399C139.48 87.8799 144.56 92.1199 149.12 96.7199C153.52 101.2 157.56 105.96 161.28 111.04C164.08 114.8 166.68 118.68 169.08 122.72C169.72 123.8 170.36 124.92 170.96 126C171.72 127.6 172.32 129.24 172.76 130.96C174 135.4 174.28 140.12 172.96 144.56C171.8 148.44 169.44 151.76 166.52 154.44L165.96 154.92L165.84 155.04L165.8 155.08L165.48 155.36C165.08 155.72 164.64 156.04 164.2 156.36C163.76 156.68 163.36 156.96 162.92 157.28L162.56 157.52L162.4 157.64C162.2 157.8 162.56 157.52 162.36 157.68C162.16 157.84 161.88 158 161.64 158.12C160.72 158.68 159.76 159.24 158.76 159.76L158.4 159.96L158.2 160.08C158.4 159.96 158.28 160.04 158.24 160.08L157.4 160.48C156.92 160.72 156.4 160.96 155.88 161.16C153.8 162.08 151.72 162.88 149.56 163.6C148.44 163.96 147.32 164.32 146.16 164.64C144.92 165 144.12 165.2 142.92 165.48C138.56 166.52 134.2 167.36 129.76 167.96L128.96 168.08L128.32 168.16C127.8 168.24 127.32 168.28 126.8 168.36C125.84 168.48 124.92 168.56 123.96 168.68C122.28 168.84 120.6 168.96 118.92 169.08C116.76 169.24 114.6 169.32 112.44 169.4H111.6C111.12 169.44 110.64 169.64 110.32 169.96C110 170.12 110.08 170.32 110.48 170.32Z" fill="#000005"/>
<path d="M133.563 68.6403C133.563 68.6403 144.443 70.2403 146.003 65.8003C147.563 61.3603 140.683 62.7203 140.683 62.7203C140.683 62.7203 148.283 53.3603 137.203 52.2803C137.203 52.2803 146.043 45.0803 138.523 39.0803C131.003 33.0803 116.883 37.8803 116.883 37.8803C116.883 37.8803 116.803 28.1203 105.683 29.8803C94.5626 31.6403 97.5626 37.4003 97.5626 37.4003C97.5626 37.4003 90.4426 38.4403 90.4026 41.8403C90.3626 45.2403 95.8026 46.2803 95.8026 46.2803C95.8026 46.2803 98.2826 55.8003 107.963 53.8803L117.923 65.4803C117.923 65.4803 114.803 70.0403 118.643 74.3603C122.483 78.6803 134.323 74.8403 133.563 68.6403Z" fill="#000005"/>
<path d="M133.763 69.3201C136.763 69.7601 140.043 69.8401 142.963 69.0801C144.723 68.6401 146.483 67.7201 146.963 65.8401C147.283 64.9601 147.083 63.9601 146.523 63.2001C145.883 62.5201 145.003 62.0401 144.043 61.9201C142.723 61.6801 141.323 61.7201 140.003 62.0001L141.523 63.1201C143.563 60.6001 145.523 56.2401 142.603 53.6401C141.083 52.2801 138.963 51.7601 136.963 51.5601L137.963 52.8401C139.323 51.7201 140.443 50.3601 141.283 48.8401C142.003 47.6401 142.403 46.2801 142.443 44.9201C142.443 43.2801 141.843 41.6801 140.803 40.4401C138.483 37.5601 134.803 36.0801 131.203 35.5601C128.003 35.1601 124.763 35.2801 121.643 35.8801C119.803 36.1601 118.043 36.6001 116.283 37.2001L117.843 38.1601C117.803 34.7601 115.923 31.6801 112.923 30.0801C109.683 28.4001 105.763 28.8401 102.363 29.8001C100.043 30.4001 97.2029 31.6001 96.4429 34.0401C96.0829 35.1601 96.1629 36.3601 96.6829 37.4401L97.0829 36.6801C94.9629 37.0001 92.5629 37.6401 90.8429 39.0001C89.7229 39.8801 89.1229 41.1601 89.5629 42.5601C90.0029 44.0801 91.4429 45.1601 92.8029 45.8401C93.8029 46.3601 94.8829 46.7201 95.9629 46.9201L94.8429 46.1201C95.2029 47.3601 95.7229 48.4801 96.4429 49.5601C97.8429 51.8401 100.043 53.5201 102.603 54.3601C104.563 54.9201 106.603 54.9601 108.563 54.5601L107.203 54.0801L115.923 64.2001L117.163 65.6401L116.963 64.9601C114.483 68.5601 115.883 74.1201 119.883 76.0001C123.643 77.7601 128.643 76.7201 131.843 74.2401C133.483 72.9601 134.723 71.0401 134.483 68.9201C134.403 68.4801 134.043 68.0801 133.563 68.0001C133.323 67.9201 132.563 67.8801 132.603 68.3201C133.043 72.0001 129.083 74.3201 126.043 75.0801C125.163 75.3201 124.243 75.4401 123.363 75.4401C122.963 75.4401 122.563 75.4401 122.163 75.3601C121.803 75.3201 121.403 75.2401 121.043 75.1201L120.723 75.0001C120.683 75.0001 120.403 74.8801 120.603 74.9601C120.403 74.8801 120.243 74.8001 120.043 74.6801C119.883 74.6001 120.123 74.7601 119.963 74.6401C119.883 74.6001 119.803 74.5201 119.723 74.4801L119.563 74.3601C119.603 74.4001 119.403 74.2401 119.363 74.1601C118.403 73.2001 117.803 71.9601 117.603 70.6001C117.403 68.9201 117.803 67.2001 118.723 65.8001C118.883 65.5601 118.643 65.2801 118.523 65.1201L110.283 55.5601L108.763 53.7601C108.603 53.5601 108.403 53.3601 108.163 53.2401C107.603 52.9601 107.043 53.1601 106.483 53.2401C106.003 53.2801 105.523 53.3201 105.043 53.3201C104.323 53.3201 103.603 53.2401 102.883 53.0801C102.563 53.0001 102.203 52.8801 101.883 52.7601C101.563 52.6401 102.043 52.8401 101.763 52.7201L101.603 52.6401C101.443 52.5601 101.243 52.4801 101.083 52.3601L100.843 52.2001C101.003 52.2801 100.883 52.2401 100.843 52.2001C100.683 52.1201 100.603 52.0401 100.443 51.9601C100.283 51.8801 100.203 51.8001 100.083 51.6801L99.8829 51.5201C99.8829 51.5201 99.6429 51.3201 99.8029 51.4401C99.3629 51.0401 98.9629 50.6001 98.6029 50.1601C98.6829 50.2401 98.4429 49.9601 98.4029 49.8801C98.3229 49.7601 98.2429 49.6401 98.1629 49.4801C98.0029 49.2401 97.8429 49.0001 97.7229 48.7601C97.6029 48.5201 97.4829 48.3201 97.3629 48.0801L97.2829 47.9601C97.2029 47.8001 97.3229 48.0801 97.2429 47.8801L97.1229 47.6001C96.9229 47.1601 96.7629 46.7201 96.6429 46.2801C96.5229 45.8001 95.9229 45.5601 95.5229 45.4801C95.4429 45.4801 95.2429 45.4001 95.5629 45.4801C95.4029 45.4401 95.2429 45.4001 95.1229 45.3601C94.8829 45.2801 94.6829 45.2401 94.4829 45.1601C94.3629 45.1201 94.2429 45.0801 94.1229 45.0401L93.9229 44.9601C93.6429 44.8401 94.1229 45.0401 93.8429 44.9201C93.5629 44.8001 93.2829 44.6801 93.0029 44.5201C92.7629 44.4001 92.5629 44.2401 92.3629 44.0801C91.9629 43.8001 91.6429 43.3601 91.4429 42.9201C90.4829 40.3601 93.9229 39.0401 95.8029 38.5201C96.3229 38.3601 96.8829 38.2401 97.4429 38.1201L97.7629 38.0401C97.8829 38.0401 97.6029 38.0801 97.8029 38.0401L98.0029 38.0001C98.4429 37.9201 98.6029 37.6401 98.4029 37.2401C98.3629 37.1201 98.4829 37.4001 98.4429 37.3601C98.4029 37.3201 98.4029 37.2801 98.3629 37.2001C98.2829 37.0401 98.2429 36.8801 98.2029 36.7201C98.1629 36.6001 98.1629 36.5201 98.1229 36.4001C98.0829 36.2401 98.1229 36.5201 98.1229 36.3201C98.1229 36.2401 98.1229 36.2001 98.0829 36.1201C98.0429 35.8001 98.0829 35.4801 98.1229 35.2001C98.1229 35.0801 98.1629 34.9601 98.2029 34.8401C98.2429 34.6401 98.3229 34.4801 98.4029 34.3201C98.5629 33.9601 98.8029 33.6401 99.0429 33.3601C99.9229 32.4801 100.963 31.8401 102.163 31.4401C103.963 30.7601 105.843 30.3601 107.763 30.2801C109.123 30.1601 110.483 30.3601 111.763 30.8001C111.803 30.8001 112.003 30.8801 111.803 30.8001L111.963 30.8801L112.363 31.0801C112.443 31.1201 112.563 31.2001 112.683 31.2401C112.923 31.4001 112.523 31.1201 112.723 31.2801L112.923 31.4001C113.283 31.6401 113.603 31.9201 113.883 32.2801C113.963 32.3601 114.043 32.4801 114.123 32.5601C114.203 32.6801 114.123 32.6001 114.123 32.5601C114.163 32.6001 114.203 32.6401 114.243 32.7201C114.363 32.9201 114.523 33.1201 114.643 33.3201C114.763 33.5201 114.843 33.7201 114.963 33.8801C115.003 33.9201 115.003 33.9601 115.043 34.0401C115.083 34.1601 115.123 34.2401 115.203 34.3601C115.483 35.0801 115.683 35.8401 115.803 36.6001C115.843 36.8001 115.803 36.4801 115.803 36.6801C115.803 36.7601 115.803 36.8001 115.803 36.8801C115.803 36.9601 115.843 37.0801 115.843 37.2001C115.843 37.3201 115.843 37.3601 115.843 37.4801C115.843 38.1201 116.843 38.6401 117.403 38.4401C118.683 38.0401 119.963 37.6801 121.283 37.4401C124.083 36.8401 126.923 36.5601 129.763 36.7201C132.803 36.9201 135.883 37.6401 138.203 39.6401C139.403 40.6001 140.203 42.0001 140.443 43.5201C140.563 44.8001 140.323 46.0801 139.723 47.2401C138.923 48.9201 137.723 50.4001 136.283 51.6001C135.683 52.1201 136.883 52.8401 137.283 52.8801C138.163 52.9601 139.003 53.1201 139.843 53.4001C140.083 53.4801 140.363 53.5601 140.603 53.7201L140.803 53.8401C141.043 54.0001 140.683 53.7601 140.843 53.8801C141.003 54.0001 141.083 54.0401 141.203 54.1601C141.403 54.3201 141.083 54.0401 141.243 54.2001C141.283 54.2401 141.323 54.2801 141.363 54.3201C141.443 54.4001 141.523 54.4801 141.603 54.6001C141.483 54.4401 141.683 54.7201 141.723 54.7601C141.763 54.8001 141.923 55.1201 141.883 55.0001C142.043 55.3601 142.163 55.8001 142.163 56.2001C142.243 57.9601 141.403 59.6401 140.443 61.1201C140.203 61.4801 139.963 61.8401 139.683 62.2001C139.483 62.4801 139.883 62.9201 140.083 63.0401C140.403 63.2801 140.803 63.4001 141.203 63.3201C141.323 63.2801 141.003 63.3601 141.083 63.3601L141.283 63.3201C141.483 63.2801 141.723 63.2401 141.923 63.2401C142.243 63.2001 142.523 63.2001 142.843 63.1601C143.003 63.1601 143.203 63.1601 143.363 63.1601C143.403 63.1601 143.603 63.1601 143.443 63.1601H143.763C143.923 63.1601 144.083 63.2001 144.243 63.2401C144.323 63.2401 144.523 63.2801 144.323 63.2401L144.603 63.3201C144.643 63.3201 144.883 63.4401 144.763 63.3601C144.643 63.2801 144.803 63.4001 144.843 63.4001C144.963 63.4801 145.003 63.5201 144.883 63.4001C144.963 63.4401 145.123 63.5601 144.963 63.4401C145.003 63.4801 145.163 63.6401 145.083 63.5201C145.003 63.4001 145.123 63.6001 145.123 63.6001C145.203 63.7601 145.123 63.5601 145.163 63.6801C145.203 63.7601 145.203 63.8401 145.243 63.9601C145.283 64.3201 145.243 64.6801 145.123 65.0001C144.683 66.5601 143.163 67.2801 141.683 67.6801C139.963 68.0801 138.163 68.2401 136.403 68.1601C136.083 68.1601 135.723 68.1201 135.283 68.1201C134.963 68.0801 134.603 68.0801 134.283 68.0401C133.963 68.0001 133.643 67.9601 133.323 67.9201C132.923 67.8801 132.523 68.0401 132.643 68.4801C132.763 68.9201 133.363 69.2801 133.763 69.3201Z" fill="#000005"/>
<path d="M112.322 118.56L106.402 86.4404L105.762 85.0004C105.762 85.0004 100.562 85.5204 95.0818 78.3204C88.8018 70.0804 96.6018 47.8804 96.6018 47.8804C104.322 49.3204 116.682 41.4004 116.682 41.4004C113.042 48.6804 120.002 61.8804 120.002 61.8804C123.082 55.3204 129.762 55.9604 129.162 62.4404C128.562 68.9204 122.682 69.0404 122.682 69.0404C122.682 69.0404 125.482 81.0004 124.802 83.5604L113.202 118.64H112.322V118.56Z" fill="white"/>
<path d="M113.283 118.36L112.643 114.88L111.123 106.56L109.323 96.7999L107.883 88.9199C107.643 87.6799 107.523 86.4399 107.043 85.2799L106.683 84.5199C106.523 84.2799 106.243 84.1199 105.963 84.1599C105.803 84.1599 105.643 84.1599 105.523 84.1599C105.443 84.1599 105.163 84.1199 105.483 84.1599L105.243 84.1199C105.003 84.0799 104.723 84.0399 104.483 83.9999C103.883 83.8799 103.283 83.6799 102.723 83.3999C101.883 83.0399 101.083 82.5999 100.363 82.0799C99.4034 81.3999 98.5234 80.6399 97.7234 79.7999C96.9234 78.9999 96.1634 78.0799 95.5234 77.1199C94.7634 75.8399 94.2834 74.4799 94.0034 72.9999C93.3634 69.5999 93.5634 66.0399 94.0434 62.5999C94.5234 59.3199 95.1634 56.0399 96.0834 52.8399C96.5234 51.1599 97.0434 49.4799 97.6034 47.7999L96.2434 48.5999C99.8434 49.2399 103.603 48.2399 106.963 46.9999C109.923 45.8799 112.763 44.5599 115.443 42.9599C116.043 42.5999 116.643 42.2399 117.243 41.8799L115.843 41.1599C114.243 44.3999 114.523 48.1999 115.283 51.5999C115.963 54.6399 116.963 57.6399 118.283 60.4799C118.563 61.0799 118.843 61.6799 119.123 62.2399C119.483 62.9199 120.603 62.5599 120.883 61.9999C121.323 60.9999 121.963 60.0799 122.763 59.2799C123.043 58.9999 123.363 58.7599 123.723 58.5199C124.003 58.3599 124.283 58.2399 124.603 58.1199C124.883 57.9999 125.203 57.9599 125.523 57.9599C125.603 57.9599 125.683 57.9599 125.763 57.9599C125.563 57.9599 125.843 57.9599 125.843 57.9599L126.083 57.9999C126.123 57.9999 126.403 58.0799 126.283 58.0399C126.883 58.2399 127.363 58.6799 127.683 59.2399C128.603 60.7999 128.363 63.0399 127.723 64.6399C127.443 65.3999 126.963 66.0799 126.363 66.6399C126.163 66.8399 126.523 66.5199 126.283 66.7199L126.083 66.8799C125.963 66.9999 125.803 67.0799 125.683 67.1999L125.483 67.3199C125.683 67.1999 125.483 67.3199 125.443 67.3599C125.283 67.4399 125.123 67.5199 124.963 67.5999C124.803 67.6799 124.643 67.7199 124.483 67.7999C124.763 67.6799 124.323 67.8399 124.243 67.8799C124.003 67.9599 123.723 67.9999 123.483 68.0399C123.403 68.0399 123.003 68.0799 123.403 68.0399L123.203 68.0799H123.003C122.563 68.0799 121.723 68.5199 121.843 69.0799C122.803 72.9199 123.523 76.8399 124.003 80.7999C124.043 81.2799 124.083 81.7999 124.083 82.2799C124.083 82.4799 124.083 82.6799 124.083 82.8399C124.083 82.8799 124.083 82.9199 124.083 82.9599C124.083 83.1599 124.083 82.8399 124.083 82.9599C124.083 83.0799 124.083 83.1199 124.043 83.1999C124.003 83.3599 123.963 83.5199 123.883 83.6799L122.803 86.7999L118.963 98.3999L114.643 111.4L113.083 116.16C112.843 116.96 112.523 117.72 112.283 118.52L112.243 118.64L113.363 117.84H112.443C111.923 117.84 111.483 118.16 111.323 118.64C111.203 119.12 111.643 119.4 112.083 119.4H113.003C113.523 119.4 113.963 119.08 114.123 118.6L116.083 112.68L120.283 99.9199L124.283 87.7999L125.443 84.2799C125.723 83.5599 125.843 82.7599 125.803 81.9999C125.763 79.5999 125.283 77.1599 124.843 74.8399C124.483 72.9199 124.083 70.9999 123.643 69.1199L123.563 68.7999L122.403 69.7999C125.283 69.6799 127.883 67.9999 129.163 65.4399C130.123 63.4799 130.483 60.7199 129.443 58.6799C128.563 56.9199 126.683 56.2399 124.843 56.5599C122.163 57.0399 120.163 59.3599 119.043 61.6799L120.803 61.4399C120.003 59.9199 119.323 58.3199 118.723 56.6799C117.523 53.5199 116.603 50.1999 116.483 46.7999C116.363 44.9999 116.683 43.1999 117.443 41.5199C117.643 41.2399 117.523 40.8399 117.243 40.6799C117.243 40.6799 117.203 40.6799 117.203 40.6399C116.803 40.4799 116.363 40.5599 116.043 40.7999L115.723 40.9999L115.323 41.2399L115.083 41.3599L114.963 41.4399C115.163 41.3199 114.763 41.5599 114.963 41.4399C113.883 42.0799 112.803 42.6399 111.723 43.1999C108.683 44.7599 105.523 46.0799 102.203 46.7999C100.483 47.1999 98.7234 47.2799 96.9634 47.0399C96.3634 46.9599 95.8034 47.2799 95.6034 47.8399C94.0034 52.3999 92.8834 57.0799 92.1634 61.8399C91.6034 65.4399 91.3234 69.1999 91.8834 72.8399C92.0834 74.4399 92.5634 75.9599 93.2834 77.3999C94.3234 79.3999 96.0434 81.1599 97.7634 82.5599C99.3634 83.8799 101.203 84.8399 103.163 85.3599C103.923 85.5999 104.723 85.6799 105.563 85.6399L104.843 85.2799L105.203 86.0399L105.403 86.5199C105.403 86.5599 105.443 86.6399 105.483 86.6799C105.563 86.7599 105.443 86.5999 105.443 86.5199C105.443 86.5999 105.443 86.7199 105.483 86.7999L105.843 88.6799L107.203 96.0799L108.963 105.76L110.523 114.32C110.763 115.72 111.003 117.16 111.323 118.6V118.68C111.563 119.84 113.443 119.24 113.283 118.36Z" fill="#000005"/>
<path d="M102.522 71.08C102.522 71.08 88.0016 76.52 83.6016 69.32C79.2016 62.12 89.1616 56.08 99.0016 60.72" fill="white"/>
<path d="M102.123 70.6001C101.763 70.7201 101.403 70.8401 101.043 70.9601L100.523 71.1201L100.203 71.2001C100.483 71.1201 100.083 71.2401 100.003 71.2401C99.4433 71.4001 98.9233 71.5201 98.3633 71.6401C95.7633 72.2401 93.2434 72.6001 90.6434 72.3201C88.0434 72.0401 85.5634 70.9601 84.2434 68.4801C83.5234 67.2001 83.3234 65.6801 83.7234 64.2401C84.1634 62.9201 85.0434 61.8401 86.2434 61.1201C89.8834 58.8401 94.6433 59.4801 98.4033 61.2401C99.0833 61.5601 100.683 60.6401 99.6434 60.1601C95.6434 58.3201 90.7634 57.7601 86.6434 59.5601C83.6034 60.8801 81.0033 63.6401 81.6833 67.2001C82.3233 70.4001 84.9634 72.5201 88.0434 73.2401C91.1234 73.9601 94.2834 73.6801 97.3234 73.0801C99.2034 72.7201 101.083 72.2401 102.883 71.6001C103.203 71.4801 103.683 71.1601 103.443 70.7601C103.203 70.3601 102.483 70.4801 102.123 70.6001Z" fill="#000005"/>
<path d="M114.721 68.8398C114.721 68.8398 114.041 71.8398 111.121 71.7198Z" fill="white"/>
<path d="M114.122 68.16C114.122 68.08 114.162 68 114.122 68.12C114.122 68.2 114.082 68.28 114.042 68.32C113.962 68.56 113.842 68.8 113.722 69.04C113.642 69.2 113.562 69.32 113.482 69.48C113.442 69.56 113.402 69.6 113.322 69.68L113.242 69.76L113.202 69.8C113.242 69.76 113.242 69.76 113.202 69.8C112.922 70.08 112.602 70.32 112.242 70.52C111.762 70.76 111.242 70.88 110.682 70.84C110.282 70.84 110.522 71.52 110.602 71.68C110.682 71.92 110.842 72.16 111.002 72.32C111.122 72.44 111.242 72.6 111.402 72.6C112.362 72.64 113.322 72.32 114.002 71.64C114.482 71.16 114.842 70.6 115.082 69.96C115.122 69.8 115.202 69.64 115.242 69.48C115.242 69.28 115.202 69.08 115.122 68.88C115.042 68.64 114.882 68.4 114.722 68.24C114.602 68.12 114.482 67.96 114.322 67.96C114.162 67.96 114.162 68.04 114.122 68.16Z" fill="#000005"/>
<path d="M104.921 57.0399C104.921 57.0399 105.201 58.2799 104.001 58.4399C102.801 58.5999 102.601 57.1199 103.561 56.6399C104.001 56.3599 104.561 56.4799 104.841 56.9199C104.881 56.9599 104.921 56.9999 104.921 57.0399Z" fill="#000005"/>
<path d="M99.2021 57.6405C99.2021 57.6405 99.4821 58.8805 98.2821 59.0405C97.0821 59.2005 96.8821 57.7205 97.8421 57.2405C98.2821 56.9605 98.8421 57.0805 99.1221 57.5205C99.1621 57.5605 99.2021 57.6005 99.2021 57.6405Z" fill="#000005"/>
<path d="M117.124 90.2404C115.284 88.5204 113.204 87.0404 110.964 85.9204C109.924 85.4004 108.404 84.5604 107.364 85.5604C106.564 86.3604 107.044 87.7604 107.364 88.6804C108.164 90.8804 109.804 92.6804 111.404 94.2804C111.764 94.6404 112.164 95.1204 112.644 95.3204C113.364 95.5604 114.164 95.2404 114.524 94.5604C115.164 93.5204 115.884 92.5204 116.644 91.5604C117.404 90.6404 118.164 89.7604 119.044 88.9204C119.924 88.0004 120.884 87.1604 121.884 86.4404C122.044 86.3204 122.204 86.2404 122.364 86.1604C122.284 86.1604 122.244 86.0404 122.324 86.1604C122.364 86.2404 122.404 86.3204 122.444 86.3604C122.604 86.9204 122.684 87.5204 122.684 88.1204C122.724 88.8004 122.724 89.4804 122.644 90.1604C122.604 90.6004 122.644 91.6404 122.244 92.0004C122.004 92.2004 121.524 92.1604 121.244 92.1204C120.684 92.0804 120.084 91.9604 119.524 91.8004C118.404 91.4404 117.324 90.9604 116.324 90.3604C115.284 89.7204 114.284 89.0404 113.324 88.2804C112.884 87.8404 112.284 87.6404 111.684 87.6404C111.084 87.6804 110.564 88.1204 110.444 88.7204C110.364 89.2804 110.484 89.8404 110.764 90.3204C111.084 91.0004 111.444 91.6804 111.844 92.3604C112.244 93.0804 112.724 93.6004 113.644 93.4804C114.364 93.4004 115.044 92.8004 115.644 92.4004L119.564 89.9204C119.684 89.8404 119.804 89.7604 119.964 89.6804C120.044 89.6404 120.124 89.6004 120.204 89.5604C120.284 89.5604 120.284 89.5604 120.244 89.5604C120.084 89.5204 120.244 89.7204 120.284 89.8004C120.364 90.2404 120.364 90.6804 120.244 91.1204C120.004 92.2004 121.964 92.3604 122.204 91.4004C122.364 90.6404 122.484 89.7204 122.084 89.0404C121.524 88.0004 120.204 87.8804 119.204 88.3204C118.204 88.7604 117.164 89.5604 116.204 90.1604L114.644 91.1604L113.844 91.6804C113.644 91.8404 113.404 92.0004 113.164 92.0804L113.684 92.0404L114.044 92.2804C113.764 92.0004 113.564 91.6804 113.404 91.3204C113.204 90.9604 113.004 90.6004 112.804 90.2004C112.644 89.9604 112.524 89.6804 112.404 89.3604C112.364 89.2404 112.404 89.1204 112.364 89.0404C112.324 89.0404 112.324 89.0004 112.404 88.9604C112.284 89.1204 112.284 89.1204 112.364 89.0404L111.924 89.2804L111.604 89.2004L111.884 89.4004L112.164 89.6004C112.404 89.8004 112.644 89.9604 112.924 90.1604C113.404 90.5204 113.884 90.8404 114.404 91.2004C115.404 91.8804 116.484 92.4404 117.564 92.8804C118.684 93.3204 119.844 93.6404 121.004 93.7204C122.204 93.8004 123.604 93.6404 124.204 92.4804C124.444 91.9204 124.564 91.3204 124.604 90.7204C124.684 90.0404 124.724 89.3604 124.724 88.6804C124.724 87.6404 124.764 86.1204 124.004 85.3204C122.964 84.2004 121.404 84.8004 120.364 85.5604C119.404 86.2804 118.484 87.0804 117.644 87.9204C116.684 88.8804 115.764 89.8804 114.924 90.9604C114.484 91.4804 114.084 92.0404 113.684 92.6004C113.484 92.8804 113.284 93.1604 113.124 93.4404C113.004 93.6804 112.844 93.9204 112.644 94.1604L113.084 93.9204L112.964 93.9604L113.484 93.9204C113.724 94.0804 113.764 94.0804 113.564 93.9204L113.324 93.6804L112.964 93.3204C112.684 93.0404 112.444 92.7604 112.164 92.5204C111.644 91.9604 111.164 91.4004 110.684 90.7604C109.844 89.6404 109.084 88.3204 108.924 86.9204C108.924 86.8004 108.924 86.6804 108.924 86.5604C108.844 86.4404 108.444 86.5604 108.524 86.6804C108.724 86.8004 108.884 86.8804 109.124 86.9204L109.604 87.1204C110.324 87.4404 111.004 87.8404 111.684 88.2404C113.044 89.0804 114.324 90.0404 115.484 91.1204C115.844 91.4804 116.404 91.5604 116.884 91.3204C117.244 91.1204 117.524 90.6004 117.164 90.2404H117.124Z" fill="#000005"/>
<path d="M103.92 79.6396H25.3203V166.96H103.92V79.6396Z" fill="white"/>
<path d="M104.562 166.4H27.1617C26.8017 166.36 26.4817 166.36 26.1217 166.4H26.0017L26.2017 166.52V82.7602C26.2017 81.6402 26.2417 80.4802 26.2017 79.3602V79.2002L24.7217 80.2802H102.122C102.482 80.3202 102.802 80.3202 103.162 80.2802C103.202 80.2802 103.242 80.2802 103.282 80.2802L103.082 80.1202V163.88C103.082 165 103.042 166.16 103.082 167.28C103.082 167.32 103.082 167.36 103.082 167.44C103.082 167.8 104.762 167.04 104.762 166.52V82.7602C104.762 81.6402 104.802 80.4802 104.762 79.3602V79.2002C104.762 79.0802 104.682 79.0402 104.562 79.0402H29.1617C28.1617 79.0402 27.1217 79.0002 26.1217 79.0402H26.0017C25.6817 79.0802 25.3617 79.2402 25.0817 79.4802C24.9217 79.6002 24.5217 79.8802 24.5217 80.1202V163.88C24.5217 165 24.4817 166.16 24.5217 167.28V167.44C24.5217 167.56 24.6017 167.56 24.7217 167.56H100.122C101.122 167.56 102.162 167.6 103.162 167.56H103.282C103.762 167.48 104.162 167.24 104.482 166.92C104.642 166.76 104.962 166.4 104.562 166.4Z" fill="#68BA7F"/>
<path d="M34.8413 88.0004H37.7213C37.8813 88.0004 37.8813 87.8004 37.8813 87.7204C37.8413 87.5204 37.7613 87.3204 37.6413 87.1604C37.4013 86.7604 37.0413 86.5204 36.6013 86.4404H33.7213C33.5613 86.4404 33.5213 86.6404 33.5613 86.7204C33.6013 86.9204 33.6813 87.1204 33.8013 87.2804C34.0013 87.6804 34.4013 87.9204 34.8413 88.0004Z" fill="#68BA7F"/>
<path d="M34.3212 91.52H37.2412C37.4812 91.52 37.7212 91.48 37.9212 91.36C38.0812 91.24 38.2012 91.04 38.1612 90.84C38.0412 90.36 37.6012 90 37.1212 90H34.2012C33.9612 90 33.7212 90.04 33.5212 90.16C33.3612 90.28 33.2412 90.48 33.2812 90.68C33.4012 91.2 33.8412 91.52 34.3212 91.52Z" fill="#68BA7F"/>
<path d="M80.443 140.88H55.323C53.363 140.88 51.363 140.88 49.403 140.88C47.923 140.88 47.003 139.56 47.003 138.16C47.003 137.36 47.003 136.6 47.003 135.8C47.003 135 47.083 134.16 47.763 133.52C48.323 132.96 48.963 133 49.683 133H79.683C79.843 133 80.003 133 80.163 133C81.043 133.08 81.803 133.6 82.163 134.4C82.523 135.12 82.403 135.96 82.403 136.72C82.403 137.4 82.443 138.2 82.403 138.8C82.283 139.84 81.563 140.84 80.483 140.84C80.083 140.84 79.443 141.04 79.363 141.48C79.283 141.92 79.843 142.08 80.203 142.08C81.683 142.08 83.083 141.32 83.883 140.08C84.403 139.24 84.363 138.32 84.363 137.36C84.363 136.64 84.363 135.92 84.363 135.2C84.323 133.84 83.483 132.6 82.243 132.04C81.403 131.64 80.523 131.68 79.603 131.68H55.203C53.243 131.68 51.283 131.68 49.323 131.68C47.083 131.68 45.083 133.24 45.043 135.6C45.043 136.36 45.043 137.12 45.043 137.84C45.043 138.76 45.083 139.64 45.643 140.44C47.043 142.48 49.803 142.08 51.963 142.08H80.163C80.563 142.08 81.203 141.88 81.283 141.44C81.363 141 80.803 140.88 80.443 140.88Z" fill="#68BA7F"/>
<path d="M52.8805 138.44C53.6537 138.44 54.2805 137.813 54.2805 137.04C54.2805 136.266 53.6537 135.64 52.8805 135.64C52.1073 135.64 51.4805 136.266 51.4805 137.04C51.4805 137.813 52.1073 138.44 52.8805 138.44Z" fill="#68BA7F"/>
<path d="M58.8414 138.44C59.6146 138.44 60.2414 137.813 60.2414 137.04C60.2414 136.266 59.6146 135.64 58.8414 135.64C58.0682 135.64 57.4414 136.266 57.4414 137.04C57.4414 137.813 58.0682 138.44 58.8414 138.44Z" fill="#68BA7F"/>
<path d="M64.7633 138.44C65.5365 138.44 66.1633 137.813 66.1633 137.04C66.1633 136.266 65.5365 135.64 64.7633 135.64C63.9901 135.64 63.3633 136.266 63.3633 137.04C63.3633 137.813 63.9901 138.44 64.7633 138.44Z" fill="#68BA7F"/>
<path d="M70.7203 138.44C71.4935 138.44 72.1203 137.813 72.1203 137.04C72.1203 136.266 71.4935 135.64 70.7203 135.64C69.9471 135.64 69.3203 136.266 69.3203 137.04C69.3203 137.813 69.9471 138.44 70.7203 138.44Z" fill="#68BA7F"/>
<path d="M76.6422 138.44C77.4154 138.44 78.0422 137.813 78.0422 137.04C78.0422 136.266 77.4154 135.64 76.6422 135.64C75.869 135.64 75.2422 136.266 75.2422 137.04C75.2422 137.813 75.869 138.44 76.6422 138.44Z" fill="#68BA7F"/>
<path d="M56.8417 148.44H74.2817C75.9617 148.44 77.3617 149.8 77.3617 151.52V154.52C77.3617 156.2 76.0017 157.6 74.2817 157.6H56.8417C55.1617 157.6 53.7617 156.24 53.7617 154.52V151.52C53.7617 149.8 55.1617 148.44 56.8417 148.44Z" fill="#68BA7F"/>
<path d="M74.2825 157.76H56.8425C55.0425 157.76 53.5625 156.28 53.5625 154.48V151.48C53.5625 149.68 55.0425 148.2 56.8425 148.2H74.2825C76.0825 148.2 77.5625 149.68 77.5625 151.48V154.48C77.5625 156.28 76.0825 157.76 74.2825 157.76ZM56.8425 148.64C55.2425 148.64 53.9625 149.92 53.9625 151.52V154.52C53.9625 156.12 55.2425 157.4 56.8425 157.4H74.2825C75.8825 157.4 77.1625 156.12 77.1625 154.52V151.52C77.1625 149.92 75.8825 148.64 74.2825 148.64H56.8425Z" fill="#68BA7F"/>
<path d="M92.6403 87.2399L97.5203 92.0399L98.2003 92.7199C98.3203 92.8399 98.8003 93.1999 98.7603 92.7599C98.6403 92.3199 98.4003 91.8799 98.0403 91.5999L93.1603 86.7999L92.4803 86.1199C92.3603 85.9999 91.8803 85.6399 91.9203 86.0799C92.0403 86.5199 92.2803 86.9199 92.6403 87.2399Z" fill="#68BA7F"/>
<path d="M93.1225 92.4803L97.6025 87.4803L98.2425 86.7603C98.5625 86.4003 98.2425 85.7203 97.9625 85.4803C97.6825 85.2403 97.2025 85.0003 96.8825 85.3603L92.4025 90.3603L91.7625 91.0803C91.4425 91.4403 91.7625 92.1203 92.0425 92.3603C92.3225 92.6003 92.8025 92.8403 93.1225 92.4803Z" fill="#68BA7F"/>
<path d="M70.5225 109.44C70.4425 111.92 68.8425 114.12 66.5225 115C64.2025 115.88 61.5625 115.2 59.9625 113.32C58.4425 111.4 58.2825 108.72 59.6025 106.68C60.9625 104.56 63.4825 103.44 65.9625 103.92C68.6025 104.4 70.5225 106.72 70.5225 109.44C70.5225 110.48 72.1625 111 72.1625 109.68C72.1225 106.44 70.0825 103.56 67.0825 102.36C64.1225 101.24 60.7625 102.12 58.7225 104.6C56.0825 108 56.6825 112.92 60.0825 115.6C61.8025 116.92 64.0025 117.52 66.1625 117.16C69.7625 116.48 72.1625 113.32 72.2025 109.72C72.1625 108.64 70.5225 108.16 70.5225 109.44Z" fill="#68BA7F"/>
<path d="M56.001 125.16C56.361 123.96 56.801 122.8 57.321 121.68C58.361 119.48 59.681 117.24 61.561 115.68C63.441 114.12 66.081 113.28 68.481 114.28C69.521 114.72 70.441 115.4 71.201 116.28C71.561 116.68 71.921 117.12 72.201 117.6C72.361 117.84 72.521 118.08 72.641 118.32L72.721 118.48C72.801 118.64 72.881 118.8 72.961 118.92C73.241 119.44 73.481 120 73.721 120.52C73.641 120.28 73.801 120.68 73.801 120.76L73.961 121.12C74.041 121.32 74.121 121.52 74.201 121.76C74.321 122.08 74.401 122.4 74.521 122.76C74.521 122.8 74.561 122.84 74.561 122.92C74.601 123.08 74.521 122.68 74.521 122.84L74.561 122.92C74.641 123.32 74.881 123.92 75.321 124.08C75.761 124.24 75.801 123.8 75.721 123.48C75.361 122.04 74.881 120.64 74.241 119.32C73.121 116.92 71.601 114.56 69.361 113.12C67.081 111.64 64.161 111.64 61.841 113.08C59.601 114.48 58.001 116.76 56.801 119.08C56.001 120.6 55.361 122.16 54.881 123.8C54.841 124.28 55.001 124.76 55.321 125.12C55.481 125.32 55.881 125.56 56.001 125.16Z" fill="#68BA7F"/>
<path d="M113.403 168.561C104.203 173.801 79.6432 165.921 79.6432 165.921L88.0832 162.801C88.0832 162.801 68.5632 170.441 70.2432 166.601C71.9232 162.761 85.4832 155.121 85.4832 155.121C85.4832 155.121 75.7232 150.081 79.6032 147.681C82.1632 146.081 92.4032 150.081 92.4032 150.081C92.4032 150.081 99.8032 145.081 106.243 151.401L112.803 150.001L113.403 168.561Z" fill="white"/>
<path d="M112.681 168.08C112.801 168 112.481 168.16 112.441 168.2C112.401 168.24 112.241 168.28 112.121 168.36C111.841 168.48 111.601 168.6 111.321 168.68C111.201 168.72 111.081 168.76 110.961 168.8C110.921 168.8 110.721 168.88 110.881 168.84L110.721 168.88C110.441 168.96 110.161 169.04 109.881 169.12C108.721 169.4 107.521 169.56 106.321 169.6C103.561 169.72 100.761 169.6 98.001 169.24C95.201 168.88 92.4011 168.4 89.6411 167.8C88.4411 167.52 87.201 167.24 86.001 166.96C85.481 166.84 84.9611 166.68 84.4411 166.56L83.761 166.36L83.561 166.32L83.201 166.24C82.161 165.96 81.161 165.68 80.161 165.36L80.201 166.56L87.561 163.8L88.6411 163.4L87.601 162.2C85.961 162.84 84.281 163.44 82.601 164.04C81.881 164.28 81.121 164.56 80.401 164.8L79.2411 165.16L78.2411 165.48C76.8011 165.92 75.3211 166.32 73.8411 166.64C73.5211 166.72 73.2011 166.76 72.9211 166.84L72.481 166.92L72.281 166.96C72.041 167 72.3611 166.96 72.2411 166.96C72.0011 166.96 71.7611 167 71.5211 167C71.4411 167 71.3211 167 71.2411 167C71.1611 167 71.5211 167.04 71.3211 167C71.2811 167 71.241 167 71.161 167C71.121 167 71.0811 167 71.0411 166.96C70.9211 166.96 71.2811 167.04 71.1211 167C71.0811 167 70.9611 166.96 71.1211 167C71.2411 167.16 70.9611 166.88 71.1211 167C71.2011 167.16 71.0011 166.84 71.1211 167C71.1611 167.2 71.0811 166.88 71.1211 167C71.1211 166.96 71.1211 166.96 71.1211 166.92C71.1211 166.96 71.0411 167.08 71.1211 166.96C71.1611 166.88 71.161 166.8 71.201 166.72L71.281 166.56C71.361 166.4 71.2411 166.6 71.3211 166.48C72.1211 165.24 73.201 164.32 74.361 163.4C75.841 162.2 77.401 161.12 79.001 160.04C81.321 158.52 83.6411 157.04 86.0411 155.68L86.001 155.72C86.401 155.52 86.761 154.92 86.161 154.64C85.321 154.2 84.5211 153.72 83.7211 153.24C82.3611 152.4 81.0811 151.52 80.1211 150.24C80.0411 150.16 79.9611 150.04 79.9211 149.92C79.8411 149.8 79.8011 149.64 79.7211 149.52C79.6811 149.44 79.6811 149.4 79.6411 149.32C79.6411 149.32 79.6411 149.36 79.6411 149.24C79.6411 149.12 79.6811 148.84 79.6411 149C79.6811 148.92 79.8011 148.6 79.7211 148.76C79.7611 148.68 80.0011 148.4 79.9211 148.52C80.0011 148.48 80.0411 148.4 80.1211 148.36C80.2011 148.32 80.3611 148.2 80.2411 148.28C80.1211 148.36 80.321 148.24 80.361 148.24C80.561 148.12 80.281 148.24 80.401 148.2C80.521 148.16 80.6811 148.12 80.8411 148.12C81.0011 148.12 80.761 148.12 80.761 148.12H80.9211C81.0411 148.12 81.1211 148.12 81.2411 148.12C81.4411 148.12 81.601 148.12 81.801 148.12C81.841 148.12 82.161 148.12 81.961 148.12L82.281 148.16C83.241 148.28 84.2011 148.44 85.1211 148.68C86.8811 149.12 88.601 149.64 90.281 150.24C90.761 150.4 91.241 150.6 91.721 150.76C92.201 150.96 92.761 150.92 93.201 150.64L93.361 150.52C93.601 150.36 93.241 150.56 93.481 150.44C93.721 150.32 94.001 150.16 94.281 150.04C94.641 149.88 95.001 149.72 95.361 149.6C95.761 149.48 96.161 149.36 96.561 149.24C98.681 148.72 100.961 148.96 102.881 150C103.561 150.36 104.161 150.8 104.761 151.28C105.361 151.76 105.721 152.28 106.561 152.16C107.041 152.08 107.561 151.96 108.041 151.84L112.761 150.84L113.121 150.76L111.841 150.12L112.041 156.4L112.361 166.36L112.441 168.68C112.481 169.6 114.481 169.56 114.441 168.64L114.241 162.36L113.921 152.4L113.841 150.08C113.841 149.48 113.001 149.36 112.561 149.44L105.961 150.84L107.081 151.12C104.921 148.92 102.001 147.68 98.921 147.6C96.841 147.6 94.801 148.08 92.921 149.04C92.481 149.24 92.081 149.48 91.681 149.72L92.881 149.6C91.641 149.12 90.361 148.68 89.081 148.28C86.761 147.56 84.401 146.88 82.001 146.76C80.401 146.68 77.761 147.08 77.681 149.16C77.641 149.96 78.161 150.76 78.681 151.36C79.361 152.12 80.0811 152.8 80.9211 153.36C82.1211 154.28 83.441 155.08 84.761 155.76L84.9211 154.68C82.7211 155.92 80.601 157.24 78.481 158.6C76.801 159.68 75.121 160.84 73.561 162.08C72.241 163.12 70.8811 164.2 69.8411 165.56C69.2811 166.28 68.6011 167.44 69.6011 168.12C70.481 168.76 71.8411 168.56 72.8411 168.44C75.9611 168 79.0411 166.92 82.0411 165.92C84.2011 165.2 86.3611 164.48 88.4411 163.6L88.561 163.56C88.881 163.48 89.081 163.12 89.001 162.8C89.001 162.72 88.961 162.64 88.921 162.6C88.601 162.2 87.961 162.24 87.561 162.4L80.201 165.16L79.1211 165.56C78.8011 165.64 78.601 165.96 78.681 166.32C78.721 166.56 78.921 166.72 79.161 166.76C82.201 167.72 85.281 168.52 88.361 169.2C94.041 170.48 99.961 171.48 105.801 171.24C108.641 171.12 111.601 170.68 114.121 169.24C114.401 169.08 114.481 168.72 114.281 168.44C114.241 168.36 114.161 168.28 114.081 168.24C113.641 167.8 113.121 167.8 112.681 168.08Z" fill="#000005"/>
<path d="M147.561 127.601C144.161 131.121 140.561 134.441 136.761 137.561C134.881 139.121 132.961 140.601 130.961 142.081C129.081 143.521 127.121 144.841 125.121 146.001C122.961 147.201 120.561 148.081 118.081 148.121C117.601 148.161 117.161 148.401 116.841 148.721C116.681 148.881 116.361 149.321 116.801 149.321C121.841 149.241 126.281 146.321 130.241 143.481C134.481 140.441 138.561 137.161 142.401 133.681C144.561 131.721 146.681 129.681 148.721 127.561C148.921 127.361 149.201 127.001 148.761 126.961C148.321 126.921 147.801 127.361 147.561 127.601Z" fill="white"/>
<path d="M54.9223 69.5597C56.1223 69.9197 57.2423 70.5597 58.2023 71.3997C58.2823 71.4797 58.6023 71.4797 58.6823 71.4397C58.9223 71.4397 59.2023 71.3997 59.4423 71.3197C59.5623 71.2797 60.2823 71.0797 60.0823 70.9197C59.0823 70.0397 57.8823 69.3997 56.6023 68.9997C56.4023 68.9597 56.2023 68.9597 56.0023 68.9997C55.7623 68.9997 55.4823 69.0797 55.2423 69.1597C55.0423 69.2397 54.4823 69.4397 54.9223 69.5597Z" fill="#68BA7F"/>
<path d="M62.2031 61.0398V69.6797C62.2031 70.3197 64.0831 70.9598 64.0831 70.2398V61.5998C64.0831 60.9598 62.2031 60.3198 62.2031 61.0398Z" fill="#68BA7F"/>
<path d="M67.2017 71.2806C67.1617 70.7606 67.2017 70.2806 67.2817 69.7606L67.2417 69.9606C67.3617 69.3206 67.5217 68.6806 67.8017 68.0806C67.8817 67.8806 67.8417 67.6406 67.6817 67.4406C67.5217 67.2406 67.3217 67.0806 67.0817 67.0006C66.6417 66.8006 66.1217 67.0006 65.8817 67.4406C65.4017 68.5606 65.1617 69.8006 65.2417 71.0406C65.3217 71.5606 65.7217 71.9206 66.2417 71.9606C66.6417 72.0006 67.2417 71.8006 67.2017 71.2806Z" fill="#68BA7F"/>
</svg>
