<svg width="200" height="200" viewBox="0 0 200 200" fill="none" xmlns="http://www.w3.org/2000/svg">
<path d="M145.64 106.801C144.8 108.321 143.56 109.561 142.08 110.441C138.8 112.481 134.6 112.641 131.04 111.241C129.44 110.601 128 109.721 126.72 108.561C125.72 107.721 124.88 106.721 124.24 105.561C123.96 105.001 123.44 104.161 124.28 103.881C124.6 103.801 124.92 103.801 125.24 103.841C125.52 103.881 125.8 103.961 126.08 104.081C126 104.041 126.16 104.121 126.16 104.121C126.24 104.201 126.32 104.281 126.4 104.401C126.56 104.681 126.56 105.001 126.4 105.281C125.96 106.161 125.28 106.881 124.44 107.361C124.04 107.601 123.64 107.801 123.2 107.961C123 108.001 122.84 108.041 122.64 108.081C122.64 108.081 122.48 108.081 122.52 108.081C122.88 108.161 123.2 108.321 123.44 108.601C123.4 108.561 123.4 108.521 123.36 108.481C123 107.281 122.92 106.041 123.16 104.801C123.24 104.281 121.4 103.681 121.4 103.881C121.24 105.081 121.04 106.641 121.6 107.721C122.16 108.601 123.12 109.121 124.16 109.121C125.12 109.041 126 108.481 126.72 107.921C127.36 107.401 128.2 106.641 128.28 105.801C128.36 104.961 127.36 104.241 126.68 103.841C125.72 103.241 124.64 102.881 123.52 102.801C123.08 102.801 122.24 102.801 122.08 103.321C122.04 103.721 122.12 104.121 122.32 104.441C122.6 105.041 122.92 105.561 123.32 106.081C124.52 107.601 125.92 108.881 127.52 109.961C131.48 112.601 136.64 114.081 141.32 112.561C142.96 112.041 144.44 111.161 145.68 109.961C146.36 109.361 146.96 108.641 147.4 107.841C147.4 107.801 147.44 107.761 147.48 107.721C147.6 107.361 145.8 106.441 145.64 106.801Z" fill="#68BA7F"/>
<path d="M125.039 90.8004C125.879 89.2804 127.119 88.0404 128.599 87.1604C131.879 85.1204 136.079 85.0004 139.639 86.3604C141.239 87.0004 142.679 87.8804 143.919 89.0404C144.919 89.8804 145.759 90.8804 146.399 92.0404C146.679 92.5604 147.199 93.4404 146.359 93.7204C146.039 93.8004 145.719 93.8004 145.399 93.7604C145.119 93.7204 144.839 93.6404 144.559 93.5204C144.639 93.5604 144.479 93.4804 144.479 93.4804C144.399 93.4004 144.319 93.3204 144.239 93.2004C144.119 92.9204 144.119 92.6004 144.239 92.3204C144.679 91.4404 145.359 90.7204 146.199 90.2404C146.559 90.0004 146.999 89.7604 147.439 89.6404C147.639 89.6004 147.799 89.5604 147.999 89.5204C147.999 89.5204 148.159 89.5204 148.119 89.5204C147.759 89.4404 147.439 89.2804 147.199 89.0004C147.239 89.0404 147.239 89.0804 147.279 89.1204C147.639 90.3204 147.719 91.5604 147.479 92.8004C147.399 93.3204 149.239 93.9204 149.239 93.7204C149.399 92.5604 149.559 90.9604 149.039 89.8804C148.479 89.0004 147.519 88.4804 146.479 88.4804C145.519 88.5204 144.639 89.1204 143.919 89.6804C143.279 90.2004 142.439 90.9604 142.359 91.8004C142.279 92.6404 143.279 93.3604 143.959 93.7604C144.919 94.3604 145.999 94.7204 147.119 94.8004C147.559 94.8004 148.399 94.8004 148.559 94.2804C148.599 93.8804 148.519 93.4804 148.319 93.1604C148.039 92.5604 147.719 92.0404 147.319 91.5204C146.119 90.0004 144.719 88.6804 143.119 87.6404C139.159 85.0004 133.999 83.5204 129.319 85.0404C127.679 85.5604 126.199 86.4404 124.959 87.6404C124.279 88.2404 123.679 88.9604 123.239 89.7604C123.239 89.8004 123.199 89.8404 123.159 89.8804C123.079 90.2004 124.879 91.1604 125.039 90.8004Z" fill="#68BA7F"/>
<path d="M109.412 124.216L109.246 135.255L172.88 136.21L173.045 125.171L109.412 124.216Z" fill="white"/>
<path d="M173.239 135.681L166.879 135.601L151.719 135.361L133.359 135.081L117.439 134.841L112.239 134.761C111.439 134.761 110.559 134.681 109.759 134.721H109.639L110.199 135.041L110.359 125.401V124.001L108.959 124.761L115.319 124.841L130.479 125.081L148.799 125.361L164.799 125.601L169.999 125.681C170.799 125.681 171.679 125.761 172.479 125.721H172.599L172.039 125.401L171.879 135.041L171.839 136.401C171.839 137.001 173.799 136.761 173.799 136.001L173.959 126.361V125.001C173.959 124.761 173.559 124.681 173.399 124.681L167.039 124.601L151.879 124.361L133.559 124.081L117.599 123.801C115.039 123.761 112.479 123.721 109.919 123.681H109.799C109.359 123.681 108.439 123.801 108.399 124.441L108.239 134.081L108.199 135.441C108.199 135.681 108.639 135.761 108.759 135.761L115.119 135.841L130.279 136.081L148.639 136.361L164.559 136.601C167.119 136.641 169.679 136.681 172.239 136.721H172.359C172.759 136.721 173.399 136.641 173.639 136.241C173.879 135.841 173.599 135.681 173.239 135.681Z" fill="#68BA7F"/>
<path d="M155.545 124.872L155.379 135.951L172.857 136.214L173.023 125.135L155.545 124.872Z" fill="#68BA7F"/>
<path d="M173.036 136.401L155.156 136.121L155.316 124.641L173.196 124.921L173.036 136.401ZM155.556 135.721L172.636 135.961L172.796 125.281L155.716 125.041L155.556 135.721Z" fill="#68BA7F"/>
<path d="M165.519 128.521C165.519 128.521 163.519 128.361 163.559 130.321C163.599 132.281 165.959 132.241 166.479 130.561C166.999 128.881 165.519 128.521 165.519 128.521Z" fill="#000005"/>
<path d="M161.6 130.401C162.56 129.401 163.84 128.801 165.2 128.601C165.44 128.561 165.72 128.561 165.96 128.601C165.72 128.601 165.84 128.561 165.92 128.601C166.08 128.681 166.24 128.721 166.4 128.801C167.04 129.121 167.6 129.521 168.12 130.001C168.36 130.241 168.96 130.281 169.32 130.361C169.52 130.401 169.72 130.441 169.92 130.401C169.96 130.401 170.12 130.401 170.04 130.321C168.56 128.881 166.52 128.241 164.52 128.121C162.72 128.041 160.92 128.721 159.68 130.001C160 130.161 160.32 130.281 160.64 130.361C160.8 130.401 161.4 130.601 161.6 130.401Z" fill="#000005"/>
<path d="M118.358 128.24C118.478 128.84 118.478 129.44 118.358 130.04C118.278 130.28 117.958 130.88 117.638 130.84L118.558 132C119.478 131.2 120.518 130.52 121.678 130.08C122.678 129.68 123.998 129.28 125.078 129.48C125.478 129.52 125.798 129.8 125.878 130.16C125.918 130.4 125.838 130.48 125.758 130.68L125.718 130.72C125.478 130.96 125.758 131.12 126.558 131.12C126.638 131.04 126.638 130.88 126.758 130.76C127.358 130.04 128.878 129.72 129.758 130.04C130.318 130.28 130.758 130.76 130.918 131.36C130.958 131.44 130.958 131.56 130.958 131.64C130.958 131.72 130.958 131.8 130.958 131.92C131.198 131.68 131.518 131.76 131.838 132.16C131.838 132.12 131.838 131.96 131.838 131.92C131.878 131.8 131.918 131.72 131.998 131.6C132.198 131.44 132.398 131.32 132.598 131.28C133.238 131.08 133.798 130.8 134.398 130.48C135.198 130 136.718 129.04 136.558 127.88C136.398 126.68 134.518 126.32 133.718 127.08C132.638 128.12 134.078 129.68 134.878 130.36C135.958 131.28 137.238 131.88 138.638 132.16C138.998 132.24 139.558 132.12 139.558 131.64C139.558 131.16 138.918 130.88 138.558 130.84C137.398 130.6 135.958 129.84 135.438 128.72C135.318 128.44 135.398 128.32 135.438 128.08C135.318 128.72 135.558 128 135.518 128.04L135.118 127.88C134.878 127.6 134.718 127.56 134.678 127.76C134.558 127.92 134.478 128.12 134.318 128.24C133.798 128.76 133.238 129.2 132.598 129.52C131.958 129.88 131.158 130 130.558 130.44C129.958 130.84 129.718 131.6 130.038 132.24C130.478 132.92 131.278 133.28 132.078 133.12C132.838 132.96 132.998 132.28 132.838 131.6C132.518 130.16 131.238 129.12 129.878 128.76C128.438 128.36 126.478 128.6 125.278 129.6C124.798 130 124.438 130.68 124.798 131.28C125.238 131.96 126.038 132.28 126.838 132.08C127.478 131.88 127.878 131.28 127.838 130.6C127.718 129.88 127.318 129.24 126.718 128.88C125.198 127.76 123.118 128.04 121.398 128.56C119.718 129.04 118.158 129.92 116.838 131.08C116.278 131.56 117.398 132.16 117.758 132.24C118.638 132.4 119.478 132.04 119.998 131.32C120.518 130.52 120.438 129.56 120.318 128.64C120.198 127.84 118.278 127.4 118.398 128.32L118.358 128.24Z" fill="#000005"/>
<path d="M29.8194 15.3467L25.707 25.5918L84.7649 49.2977L88.8773 39.0526L29.8194 15.3467Z" fill="white"/>
<path d="M85.5182 48.8405L79.5982 46.4805L65.5182 40.8405L48.5182 34.0005L33.7182 28.0805L28.8782 26.1205L27.3582 25.5205C27.1182 25.4005 26.8382 25.2805 26.5582 25.2005C26.5182 25.2005 26.4782 25.1605 26.4782 25.1605L26.6382 25.5205L30.2382 16.5605L30.7582 15.2805L28.9982 15.7605L34.9182 18.1205L48.9982 23.7605L65.9982 30.6405L80.7982 36.5605L85.6382 38.5205L87.1582 39.1205C87.3982 39.2405 87.6782 39.3605 87.9182 39.4405C87.9582 39.4405 87.9982 39.4805 87.9982 39.4805L87.8382 39.1205L84.2382 48.0805L83.7182 49.3605C83.5582 49.7605 84.3182 49.8405 84.5182 49.8405C84.9182 49.8005 85.4782 49.6405 85.6382 49.2405L89.2382 40.2805L89.7582 39.0005C89.7982 38.8405 89.7182 38.7205 89.5982 38.6405L83.6782 36.2805L69.5982 30.6405L52.5982 23.8005L37.7982 17.8805C35.4382 16.9205 33.0382 15.9605 30.6382 15.0005L30.5582 14.9605C30.0382 14.7605 29.0382 14.8405 28.7982 15.4405L25.1982 24.4405L24.6782 25.7205C24.6382 25.8805 24.7182 26.0005 24.8782 26.0805L30.7982 28.4005L44.8782 34.0405L61.9182 40.8805L76.7182 46.8005C79.0782 47.7605 81.4782 48.7205 83.8782 49.6805L83.9582 49.7205C84.3982 49.8805 84.9182 49.8405 85.3182 49.6005C85.5582 49.4805 85.9582 49.0405 85.5182 48.8405Z" fill="#68BA7F"/>
<path d="M72.6429 32.4824L68.5156 42.7646L84.7371 49.2759L88.8644 38.9937L72.6429 32.4824Z" fill="#68BA7F"/>
<path d="M84.8383 49.5602L68.2383 42.8802L72.5183 32.2402L89.1183 38.9202L84.8383 49.5602ZM68.7583 42.6402L84.5983 49.0002L88.5583 39.0802L72.6783 32.7202L68.7583 42.6402Z" fill="#68BA7F"/>
<path d="M80.6374 39.4808C80.6374 39.4808 78.8374 38.6008 78.1574 40.4408C77.4774 42.2808 79.7174 43.0808 80.7974 41.7208C81.8774 40.3608 80.6374 39.4808 80.6374 39.4808Z" fill="#000005"/>
<path d="M76.3991 39.5609C77.1191 39.2409 77.8791 39.0409 78.6391 39.0009C78.7991 39.0009 78.9991 39.0009 79.1591 39.0009C79.3191 39.0009 79.1191 38.9609 79.1591 39.0009C79.3991 39.1209 79.6391 39.2009 79.8791 39.3209C80.9991 39.9609 81.8791 40.9609 82.3591 42.1209C82.4791 42.3609 83.0791 42.4009 83.3191 42.4409C83.6391 42.4809 83.9991 42.5209 84.3191 42.4809C83.6391 40.9609 82.3991 39.7609 80.7991 39.1609C78.7991 38.4009 76.4791 38.2409 74.4791 39.0809C74.3191 39.1609 75.0791 39.4009 75.1191 39.4009C75.3591 39.4809 75.6391 39.5209 75.8791 39.5209C76.0791 39.6009 76.2391 39.6009 76.3991 39.5609Z" fill="#000005"/>
<path d="M33.9579 24.3209C35.5979 24.4809 37.2779 24.4009 38.9179 24.0409C39.0379 24.0009 38.9979 23.8409 38.9579 23.8009C38.3579 22.7209 35.8779 21.7609 35.6779 23.6409C35.5179 25.2009 37.2779 26.3609 38.5179 26.8409C39.2779 27.1209 40.0779 27.2009 40.8779 27.1209C41.5979 27.0409 42.5979 26.9609 43.1979 26.4809C44.5179 25.4409 41.8379 23.6009 40.7979 24.5209C40.3179 24.9609 40.3579 25.7209 40.5979 26.2809C40.9579 27.0009 41.5179 27.6009 42.2379 27.9609C43.7579 28.7609 45.4779 29.1209 47.1979 28.9609C47.7179 28.9209 48.5179 28.8009 48.5579 28.1209C48.5579 27.3609 47.5979 26.8009 46.9979 26.6009C46.2779 26.3609 45.8379 26.8009 45.9579 27.5209C46.0779 28.2409 46.4779 28.8809 46.9979 29.3609C48.3979 30.7209 50.3179 31.3209 52.2379 31.0009C52.9579 30.8809 53.7979 30.6009 54.1179 29.9209C54.3979 29.2409 54.1579 28.4409 53.5579 28.0409C53.3579 27.8809 52.3979 27.1609 52.1179 27.5209C51.4379 28.4009 51.5579 29.6009 52.0779 30.5609C52.6779 31.6809 53.7579 32.4409 54.7179 33.2009C54.9579 33.3609 55.5979 33.8009 55.8779 33.6409C56.1579 33.4809 55.5579 33.0409 55.4779 32.9609C54.7579 32.4409 54.0379 31.8409 53.6379 31.0409C53.2379 30.2409 53.3179 29.2809 53.8379 28.5609L52.3979 28.0409C52.5179 28.1609 52.4779 28.6009 52.4379 28.7609C52.3579 29.0809 52.1179 29.3609 51.8379 29.5209C51.1979 29.8809 50.4379 30.0409 49.6779 30.0009C49.0779 30.0009 48.4779 29.9609 48.0779 29.4409C47.8779 29.1609 47.7579 28.8409 47.6779 28.4809C47.6379 28.3209 47.6379 28.2009 47.6379 28.0409C47.7179 27.7609 47.9579 27.7609 47.6379 27.6409L46.9579 27.2809C46.5179 27.0009 46.7979 27.0409 46.7579 27.3609C46.7179 27.5209 46.6379 27.6409 46.4779 27.7209C46.2379 27.8409 45.9579 27.9209 45.6779 27.8809C44.8379 27.9209 43.9979 27.8409 43.1579 27.6809C42.9979 27.6409 42.8379 27.6009 42.6779 27.5609C42.5979 27.5209 42.4379 27.4009 42.5179 27.5209C42.3579 27.3209 42.2379 27.1209 42.1579 26.8809C42.0779 26.6009 42.0779 26.2809 42.1979 25.9609C42.2379 25.8409 42.3179 25.7209 42.3979 25.6409C42.7579 25.2809 42.9579 25.6809 42.2379 25.2409L41.6779 24.8009C41.9179 25.0409 41.4379 25.4809 41.2779 25.5609C40.9579 25.7209 40.6379 25.8009 40.2779 25.8809C39.5179 26.0409 38.6779 26.2009 37.9179 26.0009C37.8379 26.0009 37.7979 25.9609 37.7179 25.9209C37.8379 26.0009 37.6779 25.8809 37.6379 25.8009C37.4779 25.6009 37.3579 25.3209 37.3179 25.0809C37.2379 24.8009 37.2779 24.4809 37.4379 24.2009C37.5179 24.0809 37.5979 23.9609 37.7179 23.8809C37.7979 23.8409 37.8379 23.8009 37.9179 23.8009C38.3579 23.7609 38.0779 23.6009 37.1579 23.3209L37.1979 23.0809C35.6379 23.4009 34.0779 23.4809 32.4779 23.3609C32.0379 23.3209 32.4779 23.8009 32.5579 23.8809C33.0779 24.0409 33.5179 24.2809 33.9579 24.3209Z" fill="#000005"/>
<path d="M147.438 42.0404C145.678 36.3604 141.398 31.6404 136.158 28.9204C133.478 27.5204 130.598 26.6004 127.598 26.2804C126.118 26.1204 124.598 26.1204 123.118 26.2804C121.558 26.4004 120.078 26.8404 118.718 27.6004C117.518 28.3204 116.518 29.4804 116.358 30.9204C116.278 32.2004 116.758 33.4804 117.718 34.3604C118.758 35.2804 120.398 35.6404 121.638 34.8404C122.798 34.0404 123.398 32.6404 123.198 31.2404C122.958 29.5204 121.758 28.1604 120.518 27.0404C119.318 25.9604 118.078 25.0004 116.718 24.1204C114.038 22.4004 111.078 21.0804 107.998 20.2004C101.878 18.4404 95.3579 18.5604 89.3179 20.6004C88.5579 20.8804 87.7979 21.1204 87.0779 21.4804C86.6379 21.6804 86.7979 22.2004 87.0779 22.4404C87.4379 22.8004 87.9579 22.8804 88.4379 22.7204C93.5979 20.5604 99.2779 19.9204 104.798 20.8804C110.198 21.8004 115.478 24.2004 119.478 28.0404C120.438 28.9604 121.398 30.2004 121.318 31.6004C121.278 32.5604 120.638 33.9204 119.518 33.9204C119.438 33.9204 119.358 33.8804 119.278 33.8804C119.358 33.8804 119.238 33.8404 119.238 33.8404C119.078 33.7604 118.958 33.6404 118.878 33.5204C118.558 33.1604 118.358 32.6804 118.278 32.2404C118.078 31.0404 118.638 30.0004 119.558 29.2804C120.558 28.4404 121.918 28.0804 123.198 27.8804C124.478 27.6804 125.758 27.6404 127.038 27.7204C129.558 27.8804 132.038 28.5204 134.318 29.6004C139.038 31.7604 142.798 35.5604 144.878 40.2804C145.118 40.8804 145.358 41.5204 145.558 42.1204C145.798 42.8404 147.758 43.1204 147.438 42.0404Z" fill="#68BA7F"/>
<path d="M79.8775 20.8C81.9975 19.48 84.4775 18.84 86.9975 19C87.2775 19 87.8775 18.96 87.7975 18.56C87.7175 18.16 86.9575 18 86.6375 18C83.7175 17.8 80.7975 18.48 78.2775 20C77.9175 20.24 78.2375 20.56 78.5175 20.72C78.8775 20.88 79.5175 21.04 79.8775 20.8Z" fill="#68BA7F"/>
<path d="M34.0409 178.8C34.0809 177.88 34.2009 177 34.4009 176.12C34.6809 174.48 35.0009 172.88 35.3609 171.24C36.2009 167.16 37.1209 163.12 38.0809 159.08C38.3209 158.12 38.5209 157.2 38.7609 156.28C38.8809 155.84 38.9609 155.44 39.0809 155C39.1209 154.8 39.1609 154.6 39.2409 154.4C39.3209 154.2 39.2009 154.48 39.2809 154.28C39.3209 154.2 39.3209 154.08 39.3609 153.96C39.6409 152.84 39.9209 151.72 40.2809 150.64C40.3209 150.52 40.3609 150.36 40.4409 150.24C40.4409 150.2 40.4809 150.16 40.4809 150.12C40.4409 150.16 40.4009 150.24 40.3609 150.32C40.2809 150.44 40.2809 150.4 40.3609 150.32C40.5209 150.2 40.1609 150.4 40.3209 150.36C40.4809 150.32 40.5609 150.28 40.6809 150.24C41.6409 149.96 42.6409 149.72 43.6409 149.56C47.1609 148.84 50.6009 148.36 54.1209 147.88C58.2009 147.32 62.3209 146.88 66.4409 146.56C68.1609 146.44 69.8809 146.32 71.6009 146.32C72.2809 146.32 72.9609 146.32 73.6009 146.36C73.8809 146.36 74.1609 146.4 74.4409 146.4L74.6809 146.44L74.9209 146.48C75.1209 146.52 75.2809 146.56 75.4809 146.6C75.5209 146.6 75.7609 146.72 75.6009 146.64C75.4409 146.56 75.6409 146.68 75.6809 146.68C75.8409 146.76 75.5209 146.52 75.7209 146.68C75.8009 146.76 75.8809 146.84 75.9609 146.92C76.1209 147.04 75.8409 146.72 75.9209 146.88C75.9609 146.92 76.0009 146.96 76.0409 147C76.1209 147.12 76.2009 147.24 76.2809 147.36C76.4409 147.6 76.6009 147.88 76.7609 148.16C76.8009 148.24 76.8809 148.36 76.7609 148.2L76.8809 148.4C76.9609 148.56 77.0409 148.72 77.1209 148.88C77.4809 149.64 77.8009 150.44 78.0809 151.24C79.5609 155.4 80.8009 159.64 81.7609 163.96C82.7209 167.96 83.5209 171.96 84.0809 176.04C84.1609 176.64 84.2409 177.28 84.2809 177.88C84.3609 179.04 86.1609 179.16 86.0809 177.88C85.8409 174.24 85.0409 170.6 84.2809 167.04C83.3209 162.4 82.1209 157.8 80.6809 153.28C80.1209 151.52 79.4809 149.8 78.6809 148.12C78.1609 147.04 77.5209 145.68 76.4009 145.04C75.6009 144.56 74.5209 144.52 73.6009 144.48C72.1209 144.4 70.6809 144.44 69.2009 144.52C65.1609 144.72 61.1609 145.12 57.1609 145.64C53.1609 146.16 49.2009 146.68 45.2409 147.36C43.9209 147.6 42.5609 147.84 41.2409 148.16C40.6009 148.32 39.7609 148.44 39.2409 148.84C38.7209 149.24 38.5209 150.36 38.3609 151C37.9609 152.52 37.5609 154.04 37.2009 155.56C36.2009 159.64 35.2809 163.72 34.4009 167.8C33.7209 171 32.9609 174.2 32.5209 177.44C32.4809 177.76 32.4409 178.12 32.4409 178.44C32.4009 178.96 32.7209 179.44 33.2409 179.6C33.6809 179.72 34.1209 179.44 34.2009 179.04C34.0409 178.92 34.0409 178.84 34.0409 178.8Z" fill="#000005"/>
<path d="M69.5192 118.48L54.1992 103.56C65.1192 57.3598 119.479 52.0798 119.479 52.0798C123.839 50.3998 130.119 41.7198 132.399 42.2798C134.679 42.8398 127.919 50.5998 127.919 50.5998C127.919 50.5998 138.359 43.1198 139.239 45.9998C140.119 48.8798 129.479 54.7998 129.479 54.7998C134.719 53.4398 142.159 54.9198 142.239 57.9598C142.319 60.9998 138.199 59.2798 133.679 58.8798C129.159 58.4798 127.959 65.5198 132.039 65.5198C136.119 65.5198 142.839 61.0798 142.039 64.9198C141.239 68.7598 130.479 71.1198 122.279 69.7998C122.319 69.7998 87.1992 73.8398 69.5192 118.48Z" fill="white"/>
<path d="M70.4023 118.44L65.2423 113.4L56.9623 105.36L55.0823 103.52L55.1623 103.76C56.4023 98.3597 58.4023 93.1597 61.0823 88.2797C63.5223 83.8797 66.5223 79.8397 70.0023 76.1997C73.2423 72.8397 76.8023 69.7997 80.6423 67.1997C84.2423 64.7597 88.0023 62.6397 91.9223 60.7997C95.4023 59.1597 98.9623 57.7597 102.602 56.5597C105.562 55.5997 108.602 54.7597 111.642 54.0397C113.682 53.5597 115.762 53.1597 117.842 52.8397L118.802 52.6797L119.202 52.6397L119.362 52.5997C119.482 52.5997 119.082 52.6397 119.322 52.5997C119.762 52.5597 120.162 52.4797 120.562 52.3197C122.882 51.2797 124.802 49.3197 126.602 47.5997C127.602 46.6797 128.562 45.7197 129.562 44.7997C130.282 44.1197 131.042 43.4797 131.882 42.9997C132.042 42.9197 132.202 42.8397 132.362 42.7997C132.202 42.8397 132.402 42.7997 132.442 42.7997C132.482 42.7997 132.522 42.7997 132.522 42.7997C132.402 42.8397 132.442 42.8397 132.322 42.7997C132.402 42.7997 132.122 42.7597 132.082 42.7197C131.922 42.6397 131.882 42.5597 131.762 42.5197C131.842 42.5597 131.762 42.5197 131.802 42.5597C131.842 42.5997 131.842 42.6797 131.842 42.7597C131.842 43.0397 131.762 43.3197 131.682 43.5597C131.562 43.9197 131.362 44.2797 131.202 44.6397C130.202 46.3597 129.042 47.9597 127.762 49.4397C127.522 49.7597 127.242 50.0797 127.002 50.3597C126.762 50.6397 127.322 50.9997 127.562 51.0797C127.962 51.2797 128.442 51.2397 128.842 51.0397L128.922 50.9997C128.762 51.1197 128.922 50.9997 129.002 50.9197C129.242 50.7597 129.482 50.5997 129.722 50.4397C130.482 49.9197 131.282 49.3997 132.042 48.9197C133.802 47.8397 135.762 46.6397 137.682 46.1197C137.842 46.0797 138.042 46.0397 138.202 45.9997C138.362 45.9597 138.122 45.9997 138.322 45.9997C138.362 45.9997 138.682 45.9997 138.522 45.9997C138.362 45.9997 138.922 46.0797 138.442 45.9997C138.682 46.0397 138.282 45.9597 138.402 45.9997C138.322 45.9597 138.282 45.9597 138.202 45.9197C138.322 45.9997 138.162 45.8797 138.162 45.8797L138.242 45.9597C138.242 45.9597 138.242 45.8797 138.282 46.0397C138.322 46.1197 138.322 46.1597 138.322 46.2397C138.362 46.3597 138.362 46.5197 138.322 46.6397C138.242 46.9597 138.122 47.2797 137.922 47.5597C136.722 49.3597 134.762 50.7197 133.002 51.8797C131.642 52.7997 130.202 53.7197 128.762 54.5197C128.402 54.7197 128.642 54.9997 128.882 55.1597C129.282 55.3997 129.722 55.4797 130.162 55.3997C133.082 54.6397 136.522 54.6797 139.282 55.7597C140.042 56.0797 141.042 56.5997 141.282 57.5597C141.402 57.9997 141.362 58.4797 141.082 58.8797C140.802 59.1997 140.402 59.3597 140.002 59.3197C138.522 59.3597 136.762 58.9197 135.202 58.6797C133.722 58.4797 132.162 58.2397 130.802 58.9997C129.122 59.9597 128.042 62.3597 128.882 64.1997C130.122 66.8397 133.722 66.1597 135.922 65.4797C137.282 65.0797 138.562 64.5997 139.922 64.1997C140.362 64.0797 140.842 63.9597 141.322 63.9197C141.522 63.9197 141.242 63.8797 141.322 63.9197C141.402 63.9597 141.362 63.9597 141.362 63.9197C141.362 63.8797 141.242 63.9197 141.122 63.8397C141.002 63.7597 141.042 63.7597 141.042 63.7997C141.082 63.9197 141.082 63.7997 141.122 63.9597C141.362 64.7997 140.802 65.6797 140.242 66.2797C139.362 67.0797 138.282 67.7197 137.162 68.0797C134.122 69.2797 130.722 69.7197 127.482 69.7597C126.602 69.7597 125.722 69.7597 124.842 69.6797C123.962 69.6397 123.082 69.4397 122.202 69.3597C122.002 69.3597 121.802 69.3597 121.562 69.3997C121.122 69.4797 120.682 69.5597 120.242 69.6397C118.122 70.0797 116.042 70.6397 114.002 71.3597C110.722 72.4797 107.562 73.8397 104.562 75.4797C100.522 77.6397 96.7223 80.2397 93.2023 83.1597C88.8423 86.7597 84.9223 90.8397 81.4823 95.3197C77.2823 100.76 73.7223 106.64 70.8023 112.88C70.0023 114.64 69.2423 116.4 68.5223 118.16C68.2823 118.72 70.2023 119.24 70.4823 118.6C73.1623 111.76 76.6423 105.24 80.8023 99.1597C84.2023 94.2397 88.1623 89.7597 92.5623 85.7197C96.1223 82.4797 100.042 79.6397 104.202 77.1997C107.402 75.3597 110.722 73.7597 114.202 72.4797C115.522 71.9997 116.562 71.6397 118.002 71.2397C118.962 70.9597 119.922 70.7197 120.882 70.5197C121.442 70.3997 122.002 70.2797 122.602 70.1997C122.722 70.1997 122.842 70.1597 122.962 70.1597C123.002 70.1597 122.682 70.1997 122.762 70.1997L122.402 70.1597C122.562 70.1997 122.762 70.2397 122.962 70.2397C123.842 70.3597 124.722 70.4397 125.642 70.5197C129.282 70.7597 132.922 70.3997 136.442 69.4797C137.842 69.1197 139.202 68.5997 140.482 67.9197C141.442 67.4397 142.282 66.6797 142.842 65.7597C143.242 64.9597 143.402 63.8797 142.642 63.2797C141.682 62.5197 140.242 62.6797 139.162 62.9597C137.802 63.3197 136.482 63.7997 135.122 64.2397C134.442 64.4397 133.722 64.6397 133.042 64.7997C132.762 64.8397 132.482 64.8797 132.202 64.9197C132.042 64.9197 131.882 64.9597 131.722 64.9597C131.842 64.9597 131.722 64.9597 131.682 64.9597C131.402 64.9597 131.882 64.9997 131.602 64.9597C131.562 64.9597 131.402 64.9197 131.602 64.9597C131.642 64.9597 131.362 64.8797 131.482 64.9197C131.602 64.9597 131.202 64.7597 131.362 64.8797C131.202 64.7597 131.082 64.6397 131.002 64.4797C130.762 64.1197 130.642 63.7197 130.602 63.2797C130.522 62.2797 130.842 61.2797 131.442 60.5197C131.762 60.1197 132.162 59.7997 132.602 59.5597C133.042 59.3597 133.562 59.2397 134.042 59.3197C135.842 59.4797 137.602 59.8797 139.402 60.0797C140.482 60.1997 142.202 60.3197 142.922 59.3197C143.562 58.4397 143.242 57.1997 142.562 56.4797C141.642 55.4797 140.322 54.8797 139.042 54.5197C137.362 54.0397 135.602 53.7597 133.842 53.7597C132.162 53.7197 130.522 53.8797 128.922 54.2797L130.322 55.1597C131.642 54.3997 132.962 53.5997 134.242 52.7597C135.322 52.0397 136.402 51.2797 137.402 50.4397C138.282 49.7597 139.082 48.9597 139.722 48.0397C140.122 47.4397 140.522 46.6397 140.162 45.8797C139.722 44.9597 138.442 44.7597 137.562 44.7997C136.522 44.9197 135.562 45.1997 134.602 45.6797C133.522 46.1597 132.482 46.7197 131.442 47.3197C129.922 48.1997 128.442 49.1597 127.002 50.1997L128.842 50.8797C130.122 49.4397 131.282 47.9197 132.322 46.3597C132.922 45.4797 133.602 44.4797 133.802 43.3997C134.042 42.1997 132.802 41.6397 131.722 41.6797C130.602 41.7197 129.642 42.5197 128.802 43.1997C127.562 44.1997 126.442 45.3597 125.282 46.4397C124.042 47.6397 122.762 48.7997 121.442 49.9197C120.882 50.3997 120.242 50.7997 119.642 51.1597C119.482 51.2397 119.362 51.3197 119.202 51.3597C119.042 51.3997 118.922 51.4797 118.802 51.5197C118.962 51.2397 119.202 51.4797 119.082 51.4797C118.602 51.5197 118.162 51.5597 117.682 51.6397C116.722 51.7597 115.762 51.9197 114.802 52.0797C106.922 53.5197 99.2423 55.8797 91.9223 59.1197C86.9623 61.3197 82.2023 64.0397 77.7623 67.1997C72.9223 70.6397 68.5623 74.7197 64.8023 79.3597C60.6823 84.5197 57.4423 90.2797 55.2023 96.5197C54.6023 98.2397 54.0423 99.9597 53.6023 101.72C53.4823 102.16 53.3623 102.56 53.2823 103C53.2023 103.16 53.2023 103.36 53.3223 103.52C53.4023 103.64 53.5223 103.72 53.6423 103.84L57.6023 107.68L67.9623 117.76L68.6423 118.44C69.0023 118.76 69.4823 118.92 69.9223 118.88C70.1623 118.96 70.7623 118.76 70.4023 118.44Z" fill="#000005"/>
<path d="M83.2006 149.4C83.2006 149.4 70.0806 93.1998 55.8806 93.6798C41.6806 94.1598 33.2806 146.24 32.9206 151.28C32.5606 156.32 68.9206 166.56 83.2006 149.4Z" fill="#000005"/>
<path d="M84.0801 149.239C83.8801 148.399 83.6801 147.519 83.4401 146.679C82.8801 144.439 82.2801 142.159 81.6401 139.919C80.7601 136.759 79.8401 133.599 78.8401 130.479C77.6801 126.839 76.4801 123.199 75.1601 119.639C73.8401 116.079 72.4401 112.559 70.8401 109.159C69.4401 106.039 67.7601 103.039 65.8801 100.199C64.4001 97.9993 62.6801 95.8393 60.4801 94.3193C58.7201 93.0793 56.5601 92.3993 54.4001 92.9193C52.0401 93.5193 50.1201 95.1593 48.6401 96.9993C46.7201 99.4793 45.0801 102.159 43.8401 105.039C42.2801 108.479 40.9201 112.039 39.8001 115.639C38.6001 119.399 37.5601 123.199 36.6001 126.999C35.7201 130.559 34.9201 134.119 34.2401 137.719C33.6801 140.559 33.1601 143.359 32.7201 146.199C32.4801 147.799 32.1601 149.479 32.0401 151.119C31.9201 153.039 34.0001 154.319 35.4401 155.119C38.0401 156.559 40.9601 157.479 43.8401 158.199C47.6001 159.119 51.4801 159.719 55.3601 159.879C59.6001 160.119 63.8401 159.839 68.0001 158.999C72.1201 158.199 76.0001 156.559 79.4401 154.239C81.0801 153.079 82.5601 151.719 83.8801 150.199C84.2001 149.799 84.2001 149.199 83.8801 148.839C83.6001 148.519 82.9601 148.279 82.6001 148.679C80.0001 151.719 76.7201 154.039 73.0001 155.479C69.2001 156.919 65.2001 157.759 61.1201 157.959C57.1201 158.199 53.0801 157.999 49.1201 157.359C45.8001 156.879 42.5201 156.079 39.3601 154.919C38.7201 154.679 38.0801 154.439 37.4801 154.159C37.2001 154.039 36.9201 153.879 36.6401 153.759C36.5201 153.679 36.4001 153.639 36.2801 153.559C36.1601 153.479 36.1601 153.479 36.0801 153.479C36.0001 153.479 35.8401 153.359 35.9601 153.439L35.7201 153.279C35.6001 153.199 35.4801 153.119 35.3601 153.079C35.1601 152.959 34.9601 152.839 34.8001 152.679C34.6401 152.519 34.4801 152.399 34.3201 152.279C34.1601 152.159 34.4801 152.439 34.2801 152.239L34.0801 152.039L33.9601 151.839C34.0401 152.039 33.8001 151.599 33.9601 151.839C33.9201 151.799 33.8801 151.719 33.8801 151.639C33.7601 151.399 33.9601 151.879 33.8801 151.679L33.8401 151.519C34.0001 151.519 33.8401 151.839 33.8401 151.679C33.8401 151.639 33.8401 151.599 33.8401 151.559L33.8801 151.279C33.9201 150.999 33.9601 150.719 33.9601 150.439C33.9601 150.279 34.0001 150.079 34.0401 149.919C34.0401 149.839 34.0801 149.719 34.0801 149.639C34.0801 149.559 34.0401 149.879 34.0801 149.719L34.1201 149.519C34.4401 147.199 34.8401 144.879 35.2401 142.559C35.8401 139.279 36.4801 136.039 37.2001 132.799C38.0401 129.079 38.9601 125.399 40.0001 121.719C41.0401 118.039 42.2001 114.359 43.5601 110.799C44.7201 107.679 46.1201 104.639 47.8001 101.759C48.1601 101.119 48.5601 100.519 49.0001 99.9193C49.2001 99.6393 49.4001 99.3593 49.6401 99.0793L49.7601 98.9193C49.6401 99.0793 49.8001 98.8793 49.8401 98.8393C49.9601 98.7193 50.0401 98.5993 50.1601 98.4393C50.9201 97.5193 51.8001 96.6793 52.7601 95.9593C52.5601 96.1193 52.8401 95.9193 52.9201 95.8393C53.0001 95.7593 53.1601 95.6793 53.2801 95.6393C53.5201 95.5193 53.7201 95.3993 53.9601 95.2793C54.2001 95.1593 54.4401 95.0793 54.6801 94.9993C54.7201 94.9993 54.4801 95.0393 54.6801 94.9993L54.8401 94.9593C54.9601 94.9193 55.0801 94.9193 55.2001 94.8793C55.4401 94.8393 55.6801 94.7993 55.9201 94.7593H56.1601C56.0001 94.7593 56.3601 94.7593 56.4401 94.7593C56.6801 94.7593 56.8801 94.7993 57.0801 94.8393C57.2001 94.8393 57.2801 94.8793 57.4001 94.9193L57.4801 94.9593L57.6001 94.9993C58.0401 95.1593 58.5201 95.3193 58.9201 95.5593C59.2001 95.7193 58.8401 95.5193 59.0801 95.6393L59.4401 95.8793C59.6801 96.0393 59.8801 96.1993 60.1201 96.3593C60.3601 96.5193 60.5601 96.7193 60.7601 96.8793L61.0801 97.1593C61.1201 97.1593 61.2801 97.3593 61.1601 97.2393C61.0401 97.1193 61.2401 97.3193 61.2801 97.3593C61.7201 97.7993 62.1601 98.2793 62.5601 98.7593C62.9601 99.2393 63.4401 99.7993 63.8401 100.359C64.0401 100.639 64.2801 100.959 64.4801 101.239L64.7601 101.679L64.9201 101.919C64.9601 101.959 64.9601 101.999 65.0001 102.039C65.8801 103.399 66.6801 104.759 67.4001 106.199C69.0801 109.399 70.5601 112.639 71.8801 115.999C72.6001 117.759 73.2801 119.519 73.9201 121.319C74.5201 122.959 75.1201 124.639 75.7201 126.439C76.8401 129.759 77.8801 133.119 78.8801 136.479C79.6401 139.159 80.4001 141.799 81.1201 144.479C81.5201 146.039 81.9201 147.559 82.2801 149.119C82.3201 149.319 82.3601 149.519 82.4401 149.719C82.5601 150.239 83.0001 150.599 83.5201 150.559C83.9201 150.199 84.2001 149.719 84.0801 149.239Z" fill="#000005"/>
<path d="M33.0019 101.32C33.0019 101.32 74.0419 99.7999 80.7619 88.6399C80.7619 88.6399 70.6819 60.2399 64.0419 57.1199C52.2019 51.5599 35.3619 60.0399 33.7219 67.8799C30.4419 83.9999 33.0019 101.32 33.0019 101.32Z" fill="white"/>
<path d="M32.7606 102.12C35.0406 102.04 37.3606 101.88 39.6406 101.68C44.7206 101.28 49.7606 100.72 54.8006 99.8797C60.3606 98.9597 65.9606 97.8397 71.2406 95.8797C73.4806 95.0797 75.6406 94.0397 77.6806 92.7597C78.5606 92.1997 79.3606 91.5597 80.1206 90.7997C80.4806 90.4397 80.8006 90.0397 81.1206 89.6397C81.4006 89.2397 81.8806 88.7597 81.7206 88.2397C81.4806 87.3997 81.0806 86.5597 80.8006 85.7197C80.0406 83.6797 79.2406 81.6397 78.4006 79.6397C76.2406 74.3597 73.9206 69.0797 71.0806 64.1197C69.9206 62.0797 68.6406 59.9997 67.0406 58.2797C66.4806 57.6397 65.8006 57.0797 65.0806 56.5997C63.6006 55.7997 62.0006 55.2397 60.3606 54.9597C53.1206 53.4797 45.1206 55.5597 39.1206 59.7597C36.6806 61.4797 34.4006 63.6797 33.2406 66.4397C33.0006 67.1197 32.8006 67.7997 32.6806 68.5197C32.4406 69.7197 32.2406 70.9597 32.0806 72.1997C31.7206 74.6797 31.4806 77.1597 31.3206 79.6397C30.8806 86.5597 31.0806 93.5197 31.9206 100.4C31.9606 100.76 32.0006 101.12 32.0406 101.48C32.1206 101.92 32.5206 102.2 32.9606 102.16C33.0006 102.16 33.0006 102.16 33.0406 102.16C33.4406 102.12 34.0806 101.72 34.0006 101.2C33.7206 99.1997 33.5206 97.1597 33.4006 95.1597C33.0406 90.3197 32.9606 85.4797 33.2006 80.6397C33.3606 77.7597 33.6006 74.8797 34.0006 71.9997C34.2006 70.5997 34.4006 69.1997 34.7606 67.7997C34.9206 67.1197 35.1606 66.4797 35.5206 65.8797C37.2406 62.7997 40.4006 60.5597 43.5606 59.0397C47.4406 57.0797 51.8006 56.0797 56.1606 56.1597C58.3206 56.1997 60.4806 56.6397 62.4806 57.3997C63.0806 57.5997 63.6006 57.8797 64.1206 58.1997C64.3206 58.3197 64.4806 58.4797 64.6806 58.6397C64.5206 58.4797 64.8006 58.7597 64.8406 58.7997C64.9606 58.9197 65.0806 58.9997 65.1606 59.1197C67.0806 61.0797 68.5206 63.5597 69.8006 65.9197C71.4806 68.9597 72.9606 72.1597 74.3606 75.3197C76.2806 79.7197 78.0806 84.1997 79.7206 88.7597L79.8006 88.9997L79.8806 88.3597C79.7206 88.6397 79.5206 88.9197 79.3206 89.1597C79.2406 89.2397 79.4406 89.0397 79.3606 89.1197L79.3206 89.1997L79.1606 89.3997C79.0406 89.5197 78.9206 89.6797 78.8006 89.7997C78.5606 90.0797 78.2806 90.3197 78.0406 90.5197L77.8406 90.6797C77.6406 90.8397 77.8806 90.6397 77.7606 90.7597C77.6406 90.8797 77.4406 90.9997 77.2806 91.1197C76.6406 91.5997 75.9206 92.0397 75.2406 92.4397C75.0806 92.5197 74.8806 92.6397 74.7206 92.7197L74.4006 92.7997L74.2406 92.8797C73.8406 93.0797 73.4406 93.2797 73.0006 93.4397C71.2006 94.1997 69.3606 94.8797 67.4406 95.4397C65.3606 96.0797 63.5606 96.5197 61.4006 96.9997C57.1606 97.9197 52.9206 98.5997 48.6006 99.1597C45.0806 99.5997 41.5606 99.9597 38.0406 100.2C36.3606 100.32 34.6806 100.44 33.0006 100.52H33.2006C32.6806 100.48 32.2006 100.76 32.0006 101.28C31.8806 101.64 32.1206 102.04 32.4806 102.16C32.6006 102.12 32.6806 102.12 32.7606 102.12Z" fill="#000005"/>
<path d="M38.4 78.8793C41.52 76.9193 44.64 74.8793 47.24 72.2393C49.52 69.9193 51.4 67.0793 51.88 63.7993C52 63.0793 50.28 62.0793 50.16 62.9193C49.68 66.1193 47.88 68.8393 45.64 71.0793C43.12 73.6393 40.08 75.6393 37.04 77.5193C36.28 77.9593 37.76 79.2393 38.4 78.8793Z" fill="#000005"/>
<path d="M36.0417 77.0793C40.1217 72.9193 44.3617 68.4393 45.7217 62.5993C45.9617 61.5193 44.2017 60.8393 43.9217 62.0793C42.6817 67.5993 38.4017 71.8393 34.6017 75.7193C33.8417 76.5193 35.2417 77.9193 36.0417 77.0793Z" fill="#000005"/>
<path d="M74.641 86.5995C78.481 79.0395 65.361 63.5595 65.361 63.5595C62.041 63.9195 55.921 62.5195 55.921 62.5195C60.441 71.5995 49.961 77.6795 49.961 77.6795C46.121 73.1995 40.601 76.8795 42.481 81.8395C44.361 86.7995 49.361 85.8795 49.361 85.8795C49.361 85.8795 50.601 99.1195 51.681 101C51.681 101 61.641 104.28 64.601 95.4395C64.681 95.4395 72.041 91.7195 74.641 86.5995Z" fill="white"/>
<path d="M75.6004 86.6801C76.7204 84.4801 76.4004 81.9201 75.7604 79.6001C74.9204 76.8401 73.7204 74.2401 72.2004 71.7601C70.9204 69.6401 69.5604 67.5601 68.0404 65.6001C67.6004 65.0001 67.1604 64.4401 66.6804 63.8801C66.5604 63.7601 66.4804 63.6001 66.3604 63.4801C66.0004 63.0801 65.3604 63.1201 64.8404 63.1601C64.6004 63.2001 64.0804 63.2001 63.6804 63.2001C63.2404 63.2001 62.8404 63.1601 62.3604 63.1201C61.4004 63.0401 60.4404 62.9201 59.4804 62.7601C58.4404 62.6001 57.4004 62.4001 56.3604 62.1601C56.1204 62.1201 54.6004 62.0801 54.8804 62.6001C56.3204 65.4001 56.2804 68.7601 54.8004 71.5601C53.6804 73.5601 52.1204 75.3201 50.2404 76.6401C49.8404 76.9201 49.4404 77.2001 49.0404 77.4401L50.8804 77.5201C49.5204 75.8801 47.4004 75.0001 45.2804 75.2801C43.5604 75.5201 42.0004 76.5201 41.3604 78.2001C40.6804 80.0401 41.2804 82.1601 42.4404 83.6801C43.4404 84.9601 44.8804 85.8401 46.5204 86.1201C47.6004 86.3601 48.7604 86.3601 49.8404 86.2001L48.3204 85.8801C48.7204 90.1601 49.1204 94.5201 50.0004 98.7601C50.0804 99.2401 50.2004 99.7201 50.3204 100.16C50.4004 100.48 50.4804 100.8 50.6804 101.12C50.9204 101.44 51.6804 101.52 52.0804 101.6C54.2404 102.12 56.4804 102.12 58.6404 101.72C61.9204 101.16 64.6004 98.7601 65.5604 95.5601L65.3204 95.7201C68.2404 94.2401 70.9204 92.2801 73.2004 89.9201C74.2004 88.9201 75.0004 87.8401 75.6004 86.6801C75.8804 86.1601 73.9604 85.9601 73.6804 86.4401C72.4004 88.9201 70.2804 90.8801 68.0404 92.5201C67.1604 93.2001 66.2004 93.8001 65.2804 94.3601C64.9604 94.5601 64.6404 94.7201 64.3204 94.9201L64.0404 95.0801L63.9204 95.1601C64.0804 95.0801 63.7604 95.2401 63.6804 95.3201C63.5204 95.6801 63.3604 96.0001 63.2404 96.4001C62.9604 97.0001 62.6404 97.5601 62.2804 98.0801C61.6404 98.9601 60.8004 99.7201 59.8404 100.24C59.4404 100.48 59.0004 100.64 58.6004 100.8C58.4004 100.88 58.2404 100.92 58.0004 100.96L57.6404 101.04L57.4404 101.08C57.2004 101.12 57.0004 101.16 56.7604 101.16L56.4004 101.2C56.3604 101.2 56.2404 101.2 56.3604 101.2H56.2404C56.0004 101.2 55.8004 101.2 55.6004 101.2H55.3204C55.2804 101.2 55.2004 101.2 55.1604 101.2C54.7204 101.16 54.3204 101.12 53.9204 101.08C53.6804 101.04 54.0004 101.12 53.8404 101.08L53.6004 101.04L53.1604 100.96C52.9604 100.92 52.7204 100.84 52.5204 100.8C52.4004 100.76 52.2404 100.68 52.5204 100.8C52.4804 100.8 52.4804 100.8 52.4404 100.8L52.6804 100.96C52.3604 100.28 52.1604 99.5201 52.0404 98.7601C51.8004 97.5201 51.6004 96.2801 51.4404 95.0401C51.0804 92.5601 50.8004 90.0801 50.5604 87.6001C50.5204 87.0401 50.4404 86.4801 50.4004 85.9201C50.3604 85.3601 49.2004 85.5201 48.8804 85.6001C49.3604 85.5201 49.0804 85.5601 48.9604 85.6001C48.8404 85.6401 48.5204 85.6401 48.8004 85.6001H48.2804C48.0004 85.6001 48.4004 85.6001 48.1604 85.6001L47.7604 85.5601L47.6004 85.5201C47.8004 85.5601 47.6004 85.5201 47.5604 85.5201C47.4404 85.4801 47.3204 85.4801 47.2004 85.4401C46.9604 85.3601 46.6804 85.2801 46.4804 85.2001C45.9204 84.9601 45.4004 84.6001 44.9604 84.1601C42.9604 82.2001 42.0804 77.9201 45.0804 76.3601C45.3604 76.2001 45.6404 76.1201 45.9204 76.0801C46.0004 76.0801 46.1204 76.0801 46.2004 76.0801C46.3604 76.0801 46.5204 76.1201 46.6804 76.1601C47.5604 76.4801 48.3604 77.0401 48.9604 77.8001C49.3604 78.2401 50.3204 78.1601 50.8004 77.8801C52.0404 77.1201 53.2004 76.2001 54.2004 75.1601C56.1204 73.2401 57.6804 70.7601 57.9604 68.0001C58.1204 66.0801 57.7604 64.1201 56.8404 62.4001L55.3604 62.8401C56.6004 63.1201 57.8804 63.3601 59.1204 63.5601C61.2404 63.9601 63.4004 64.0801 65.5604 63.9201L64.3204 63.6401C65.8004 65.4401 67.2004 67.2801 68.4804 69.2401C70.8004 72.7201 73.0404 76.5201 73.9604 80.6401C74.3604 82.5601 74.5204 84.6801 73.6004 86.4801C73.4404 87.0001 75.3604 87.2001 75.6004 86.6801Z" fill="#000005"/>
<path d="M65.082 74.3193C67.282 75.1593 69.602 75.6793 71.962 75.8793C79.922 76.5993 81.002 79.2793 78.722 80.9993C76.442 82.7193 65.642 82.3193 65.642 82.3193" fill="white"/>
<path d="M65.5195 74.88C67.7595 75.84 70.2795 76.24 72.6395 76.48C74.3195 76.6 75.9595 76.92 77.5595 77.44C77.7995 77.52 78.0795 77.64 78.2795 77.72L78.5595 77.88L78.6395 77.92C78.5595 77.88 78.7195 77.96 78.7195 78C78.5195 77.84 78.6395 77.96 78.6795 77.96C78.8395 78.08 78.6395 77.92 78.6395 77.92C78.6795 77.96 78.7195 77.96 78.7195 78C78.5995 77.8 78.6795 77.96 78.6795 77.96C78.7195 78 78.7595 78.04 78.7595 78.08C78.7995 78.12 78.7995 78.16 78.7995 78.2C79.3195 79.48 77.7995 80.52 76.7195 80.84C74.5595 81.48 72.1595 81.56 69.8795 81.64C68.1995 81.68 66.5195 81.68 64.8395 81.64C64.5195 81.64 65.1595 82.28 65.1995 82.32C65.4795 82.64 65.8795 82.84 66.2795 82.92C67.7995 82.96 69.3195 82.96 70.8395 82.92C73.2395 82.88 75.7995 82.84 78.1195 82.16C79.3595 81.8 80.9995 80.72 80.3995 79.2C79.9995 78.16 78.9195 77.4 78.0395 76.92C76.7595 76.24 75.3995 75.8 73.9595 75.56C70.8395 75 67.5595 75 64.5995 73.72C64.2795 73.56 64.1595 73.76 64.3595 74.04C64.7195 74.44 65.0795 74.72 65.5195 74.88Z" fill="#000005"/>
<path d="M60.3607 72.9993C60.3607 72.9993 61.6007 72.8393 61.6407 74.0393C61.6807 75.2393 60.2007 75.3193 59.8407 74.3193C59.6007 73.8793 59.7607 73.3193 60.2407 73.0793C60.2807 73.0393 60.3207 72.9993 60.3607 72.9993Z" fill="#000005"/>
<path d="M67.7604 70.72C67.7604 70.72 69.0004 70.56 69.0404 71.76C69.0804 72.96 67.6004 73.04 67.2404 72.04C67.0004 71.6 67.1604 71.04 67.6004 70.8C67.6404 70.76 67.6804 70.76 67.7604 70.72Z" fill="#000005"/>
<path d="M43.6022 88.8799C43.9222 92.3599 44.1622 95.8399 44.2422 99.3199C44.2422 99.9599 46.1222 99.3199 46.0822 98.7599C46.0022 95.2799 45.7622 91.7999 45.4422 88.3199C45.4022 87.6399 43.5622 88.3199 43.6022 88.8799Z" fill="#000005"/>
<path d="M38.0405 92.6394L35.9605 98.1594C35.8005 98.5994 36.1205 99.1994 36.4405 99.4394C36.7605 99.6794 37.1605 99.7594 37.3205 99.3194L39.4005 93.7994C39.5605 93.3594 39.2405 92.7594 38.9205 92.5194C38.6005 92.2794 38.2005 92.1994 38.0405 92.6394Z" fill="#000005"/>
<path d="M35.9193 86.7195C36.3593 86.7195 36.7993 86.6395 37.1993 86.4795C37.8393 86.2795 38.4793 86.0395 39.0793 85.7595C40.4793 85.1995 41.7993 84.3995 42.9193 83.3995C43.1593 83.1595 41.7593 81.7595 41.4393 82.0795C40.3193 83.0395 39.0393 83.8395 37.6793 84.3995C37.0793 84.6795 36.4793 84.8795 35.8393 85.0795C35.4393 85.2395 34.9993 85.3195 34.5593 85.3195C34.2393 85.3195 34.7993 85.9995 34.8393 86.0395C35.0793 86.3195 35.5193 86.7195 35.9193 86.7195Z" fill="#000005"/>
<path d="M56.4413 81.9196C56.3213 82.7996 56.6013 83.6396 57.2013 84.2796C58.0013 85.1196 59.0813 85.6396 60.2413 85.6796C60.3613 85.6796 60.6013 85.6396 60.6413 85.5196C60.6813 85.3596 60.6413 85.1996 60.5213 85.0796C60.2013 84.7196 59.7213 84.4796 59.2413 84.4796H59.1613C59.3213 84.4796 59.3213 84.4796 59.2413 84.4796L59.0813 84.4396C58.8413 84.3996 59.2413 84.4796 59.1213 84.4396L59.0013 84.3996C58.8413 84.3596 59.2813 84.5196 59.0413 84.3996C58.9613 84.3596 58.8013 84.2396 59.0813 84.4396L58.9213 84.3596L58.8413 84.3196C58.9613 84.3996 59.0013 84.4396 58.9613 84.3996L58.8413 84.3196L58.7613 84.2396C58.8413 84.3196 58.8813 84.3596 58.8013 84.2796L58.6813 84.1596L58.6413 84.0796C58.6013 84.0396 58.6013 84.0396 58.6413 84.0796C58.6813 84.1196 58.6813 84.1196 58.6413 84.0796L58.6013 83.9996L58.5213 83.8396C58.4813 83.7196 58.4413 83.5996 58.4013 83.4796L58.4413 83.6396C58.3213 83.2796 58.3213 82.8796 58.3613 82.4796C58.4013 82.3196 58.1613 82.1196 58.0813 82.0396C57.8813 81.8796 57.6413 81.7596 57.4013 81.6796C57.2013 81.5996 56.9613 81.5996 56.7613 81.6396L56.6413 81.6796C56.4813 81.6796 56.4413 81.7996 56.4413 81.9196Z" fill="#000005"/>
<path d="M65.9998 141.599L91.5998 133.359C91.9198 132.999 98.7998 125.679 103.52 123.479C108.24 121.279 118.24 122.879 117.6 125.359C116.96 127.839 110.44 125.839 106.6 128.439C106.6 128.439 113.36 129.399 116.04 130.119C119.04 130.919 118.52 133.799 115.68 133.679C113.08 133.639 110.52 133.919 107.96 134.399C107.96 134.399 112.72 135.359 115.24 135.559C117.76 135.759 118.48 139.199 114.04 139.759C109.6 140.319 107.16 141.479 107.16 141.479C107.16 141.479 96.0398 150.439 91.3998 148.119C91.3998 148.119 68.8398 166.599 52.6798 162.639C36.5198 158.679 34.5998 111.719 45.1598 105.839C55.7198 99.9594 65.9998 141.599 65.9998 141.599Z" fill="white"/>
<path d="M66.7218 142.24L75.4018 139.44L89.1618 135.04L91.2818 134.36C91.6418 134.28 91.9618 134.16 92.2818 134.04C92.6418 133.88 92.9218 133.4 93.2018 133.12C94.1218 132.16 95.0418 131.28 96.0018 130.36C98.3618 128.12 100.922 125.84 103.802 124.32C106.522 122.92 109.842 122.88 112.802 123.28C114.082 123.4 115.322 123.72 116.522 124.24C116.682 124.32 116.322 124.12 116.562 124.24C116.602 124.28 116.642 124.28 116.682 124.32C116.962 124.48 116.562 124.24 116.802 124.4C116.602 124.24 116.682 124.32 116.762 124.36C116.922 124.48 116.682 124.2 116.762 124.36C116.762 124.4 116.882 124.52 116.722 124.32C116.762 124.36 116.762 124.44 116.762 124.32C116.882 124.64 116.802 124.96 116.602 125.2C115.882 126.08 114.242 126.04 113.242 126.12C111.522 126.24 109.802 126.28 108.122 126.76C107.322 127 106.522 127.36 105.802 127.8C105.602 127.96 106.122 128.48 106.162 128.52C106.442 128.8 106.802 129 107.162 129.04C109.722 129.4 112.282 129.8 114.802 130.32C115.522 130.4 116.202 130.6 116.842 130.84C116.962 130.88 117.082 131.04 116.962 130.88C117.002 130.92 117.042 130.96 117.082 131.04C117.202 131.28 117.202 131.56 117.122 131.84C116.922 132.48 116.282 132.8 115.642 132.92C115.162 132.96 114.642 132.96 114.162 132.96C113.522 132.96 112.882 133 112.242 133.04C110.522 133.16 108.842 133.4 107.162 133.72C106.842 133.8 107.202 134.24 107.282 134.32C107.522 134.64 107.882 134.88 108.282 135C109.442 135.24 110.562 135.44 111.722 135.64C112.642 135.8 113.562 135.96 114.482 136.08C114.882 136.12 115.242 136.16 115.642 136.2C115.762 136.2 115.882 136.24 116.002 136.24C116.082 136.24 116.162 136.28 116.242 136.32C116.082 136.28 116.442 136.4 116.202 136.28C116.402 136.36 116.082 136.12 116.242 136.28C116.242 136.28 116.082 136.12 116.202 136.24C116.042 136.04 116.202 136.24 116.242 136.28C116.282 136.32 116.162 136.16 116.242 136.28C116.322 136.44 116.362 136.64 116.402 136.8C116.402 137.32 116.162 137.8 115.762 138.12C115.082 138.64 114.282 138.92 113.442 139C112.282 139.16 111.122 139.36 109.962 139.6C108.762 139.84 107.602 140.2 106.482 140.68C106.162 140.88 105.842 141.08 105.562 141.32C103.562 142.84 101.442 144.24 99.2418 145.44C97.8018 146.24 96.3218 146.88 94.7218 147.36C94.0418 147.56 93.3618 147.68 92.6818 147.72C92.3618 147.72 92.0418 147.72 91.7218 147.64C91.5218 147.6 91.2818 147.52 91.0818 147.44C90.9218 147.36 90.6418 147.24 90.4818 147.4C87.6018 149.72 84.5218 151.84 81.3218 153.76C75.2818 157.44 68.6418 160.72 61.6418 161.96C58.4418 162.56 54.9218 162.72 51.7618 161.8C51.6418 161.76 51.5218 161.72 51.4018 161.68C51.3618 161.68 51.0418 161.56 51.2418 161.64C51.0018 161.56 50.8018 161.44 50.5618 161.36C50.4818 161.32 50.1218 161.16 50.3618 161.28L50.0818 161.12L49.8018 160.96C49.7218 160.92 49.4018 160.68 49.6418 160.84C49.4418 160.68 49.2418 160.56 49.0018 160.4C48.9618 160.36 48.6418 160.12 48.8818 160.32L48.5218 160C48.3218 159.84 48.1618 159.64 47.9618 159.48C47.7618 159.32 48.0818 159.64 47.9218 159.44L47.8418 159.32C47.7218 159.2 47.6018 159.08 47.5218 158.96C47.1218 158.52 46.8018 158.08 46.5218 157.72C46.1618 157.24 45.8418 156.76 45.5218 156.24C44.8818 155.2 44.3218 154.08 43.8018 152.96C42.6818 150.36 41.8018 147.72 41.1618 144.96C39.8018 139.04 39.1618 133 39.3218 126.92C39.4418 121.8 39.9618 116.36 41.9218 111.56C42.6018 109.92 43.4818 108.28 44.8418 107.08C45.4018 106.56 46.0418 106.2 46.7618 106C47.0818 105.92 47.4018 105.84 47.7618 105.84C47.9218 105.84 48.1218 105.84 48.2818 105.88C48.3218 105.88 48.5618 105.92 48.4018 105.88L48.6818 105.96L48.9218 106.04C49.1618 106.12 48.8818 106 49.0418 106.08L49.2818 106.2L49.4018 106.24C49.6018 106.32 49.2418 106.16 49.4018 106.24C49.5618 106.32 49.7618 106.44 49.9218 106.56C49.6818 106.4 49.8818 106.52 50.0018 106.6L50.2818 106.8L50.4418 106.92C50.2018 106.76 50.3218 106.84 50.3618 106.88C50.4018 106.92 50.5618 107.04 50.6418 107.12L50.8818 107.32C50.9218 107.36 51.2018 107.68 51.0418 107.48C51.4018 107.84 51.7218 108.24 52.0418 108.64L52.2818 108.96C52.3218 109 52.4018 109.12 52.3218 109L52.4418 109.2C52.6018 109.44 52.7618 109.64 52.9218 109.88C53.2418 110.36 53.6018 110.88 53.8818 111.36C54.5218 112.44 55.1618 113.52 55.7218 114.64C58.2418 119.6 60.1618 124.88 61.8818 130.16C63.0018 133.6 64.0418 137.04 64.9218 140.56C64.9618 140.72 65.0018 140.92 65.0418 141.08C65.1218 141.48 65.7218 141.84 66.0818 142C66.3218 142.12 66.7618 142.24 66.6818 141.8C66.0418 139.16 65.2418 136.52 64.4418 133.92C62.8418 128.6 60.9218 123.36 58.6418 118.28C57.5618 115.8 56.2818 113.4 54.8418 111.12C53.6018 109.24 52.1618 107.36 50.3218 106.04C48.8818 105 47.0418 104.16 45.2418 104.68C43.6418 105.12 42.4418 106.4 41.5618 107.72C40.4418 109.56 39.6018 111.56 39.1218 113.64C38.4418 116.28 38.0018 118.92 37.8018 121.64C37.2818 127.8 37.5618 134 38.6018 140.08C39.5618 145.64 41.1218 151.4 44.2018 156.2C45.4818 158.28 47.2018 160.08 49.2018 161.48C51.5618 163.04 54.2818 163.64 57.0818 163.72C64.4818 164 71.7618 161.04 78.1618 157.64C82.8018 155.2 87.2018 152.32 91.3618 149.12C91.6018 148.96 91.8018 148.76 92.0018 148.6L91.4018 148.56C93.9618 149.8 97.1218 148.48 99.4418 147.32C101.962 146.04 104.402 144.52 106.642 142.8C106.922 142.6 107.202 142.36 107.482 142.16L107.682 142C107.802 141.92 107.562 142.04 107.682 142C108.762 141.52 109.922 141.16 111.082 140.92C112.282 140.64 113.482 140.44 114.682 140.28C115.562 140.2 116.402 139.84 117.122 139.32C118.162 138.44 118.002 137.16 117.162 136.2C116.522 135.48 115.642 135 114.722 134.8C113.722 134.64 112.722 134.56 111.762 134.4C110.802 134.24 109.722 134.04 108.682 133.88C108.322 133.84 108.002 133.76 107.682 133.68C107.642 133.68 107.282 133.64 107.482 133.64C107.442 133.64 107.402 133.64 107.362 133.6L108.482 134.88C110.122 134.56 111.802 134.32 113.442 134.2C114.082 134.16 114.722 134.12 115.362 134.12C115.962 134.16 116.522 134.12 117.122 134.04C117.842 133.92 118.442 133.4 118.642 132.72C118.842 131.96 118.442 131.28 117.922 130.72C117.122 129.92 116.162 129.4 115.042 129.16C113.282 128.72 111.482 128.44 109.722 128.16C108.442 127.96 107.122 127.76 105.842 127.56L107.242 128.8C108.762 127.8 110.682 127.52 112.442 127.36C113.922 127.24 115.482 127.32 116.922 126.88C117.802 126.6 118.602 125.84 118.202 124.84C117.722 123.72 116.362 123.04 115.282 122.6C112.362 121.48 108.922 121.28 105.842 121.72C104.402 121.88 102.962 122.36 101.682 123.08C100.202 123.96 98.8018 124.92 97.5218 126.04C95.2818 127.88 93.1218 129.88 91.1218 132C90.9618 132.16 90.8018 132.36 90.6418 132.52C90.8018 132.4 90.6418 132.52 90.5618 132.52C90.1218 132.64 89.6418 132.8 89.2018 132.96L76.0818 137.2L69.1618 139.4C67.8818 139.8 66.6018 140.2 65.3218 140.64L65.1218 140.68C64.7618 140.8 65.2818 141.36 65.4018 141.48C65.8018 141.96 66.3618 142.36 66.7218 142.24Z" fill="#000005"/>
<path d="M170.99 46.844L110.348 66.1396L113.695 76.6597L174.338 57.364L170.99 46.844Z" fill="white"/>
<path d="M173.959 56.9197L167.879 58.8397L153.439 63.4397L135.959 68.9997L120.759 73.8397L115.799 75.4397C114.999 75.6797 114.199 75.9197 113.439 76.1997L113.319 76.2397L114.679 76.4397L111.759 67.2397L111.359 65.9597L110.759 66.5997L116.799 64.6797L131.199 59.9997L148.679 54.4397L163.879 49.5997L168.839 47.9997C169.639 47.7597 170.439 47.5197 171.199 47.2397L171.319 47.1997L169.959 46.9997L172.879 56.1997L173.279 57.4797C173.519 58.1597 175.439 57.7197 175.239 57.0797L172.319 47.8797L171.919 46.5997C171.759 46.1197 170.919 46.2797 170.559 46.3997L164.479 48.3197L149.999 52.9197L132.519 58.4797L117.319 63.3197C114.879 64.1197 112.399 64.7997 109.999 65.6397L109.879 65.6797C109.679 65.7597 109.159 65.9997 109.279 66.3197L112.199 75.5197L112.599 76.7997C112.759 77.2797 113.599 77.1197 113.959 76.9997L119.999 75.0797L134.439 70.4797L151.919 64.9197L167.119 60.0797C169.559 59.3197 172.039 58.5997 174.439 57.7597L174.559 57.7197C174.839 57.6397 175.359 57.3197 175.119 56.9597C174.879 56.5997 174.239 56.7997 173.959 56.9197Z" fill="#68BA7F"/>
<path d="M170.95 46.8065L154.293 52.1064L157.652 62.6646L174.309 57.3646L170.95 46.8065Z" fill="#68BA7F"/>
<path d="M157.519 62.8795L154.039 51.9595L171.079 46.5195L174.559 57.4395L157.519 62.8795ZM154.519 52.2395L157.759 62.3995L174.039 57.1995L170.799 47.0395L154.519 52.2395Z" fill="#68BA7F"/>
<path d="M164.88 52.4C164.88 52.4 162.92 52.88 163.6 54.72C164.28 56.56 166.48 55.76 166.44 54.04C166.4 52.32 164.88 52.4 164.88 52.4Z" fill="#000005"/>
<path d="M161.762 55.7595C162.322 54.5595 163.282 53.5995 164.442 52.9995C165.042 52.6795 165.682 52.5195 166.362 52.4395C166.922 52.3995 167.442 52.4795 167.922 52.7595C168.362 52.9595 168.802 53.0395 169.242 53.0795C169.362 53.0795 170.002 53.1195 169.642 52.9595C167.802 52.0795 165.442 51.5995 163.442 52.1995C161.842 52.7195 160.522 53.8795 159.802 55.3995C159.762 55.5195 160.682 55.7195 160.762 55.7595C160.922 55.7195 161.682 55.9595 161.762 55.7595Z" fill="#000005"/>
<path d="M118.999 71.0001C120.399 70.0401 121.679 68.8801 122.719 67.5601C123.119 67.0401 122.839 66.4801 122.279 66.2801C121.439 66.0001 120.559 66.3201 120.079 67.0801C119.679 67.8401 119.839 68.8001 120.479 69.4001C121.679 70.6401 123.679 70.4401 125.039 69.6001C125.719 69.1601 126.279 68.6401 126.799 68.0001C127.279 67.4001 127.879 66.6801 127.759 65.8401C127.599 65.0001 126.799 64.4401 125.999 64.6001C125.959 64.6001 125.879 64.6401 125.839 64.6401C125.119 64.8801 124.639 65.5601 124.679 66.3201C124.759 68.0801 126.839 68.8001 128.319 68.4801C129.159 68.2801 129.919 67.9201 130.639 67.4401C131.399 67.0001 132.039 66.4801 132.639 65.8401C133.159 65.2401 133.399 64.3201 132.759 63.6801C132.199 63.1201 131.319 63.0001 130.679 63.4801C129.879 64.0801 130.159 65.1201 130.839 65.6801C131.479 66.2001 132.239 66.5201 133.039 66.5601C134.839 66.7201 136.559 65.6801 137.639 64.3201C138.199 63.6401 138.639 62.7601 138.399 61.8801C138.199 60.9601 137.399 60.3201 136.439 60.3201C135.879 60.2801 135.399 60.6801 135.359 61.2001C135.359 61.2401 135.359 61.2801 135.359 61.3601C135.399 62.4801 136.199 63.4801 137.159 64.0001C138.359 64.6401 139.719 64.6401 141.039 64.6001C141.559 64.6401 141.999 64.2801 142.159 63.8001C142.199 63.3201 141.839 62.9201 141.359 62.8801C141.319 62.8801 141.319 62.8801 141.279 62.8801C139.879 62.9201 137.399 63.0001 137.319 61.0401L136.199 62.0801C136.359 62.0801 136.359 62.1201 136.239 62.0401C136.279 62.0801 136.279 62.0001 136.319 62.0801C136.359 62.1601 136.439 62.2401 136.479 62.3201C136.519 62.6001 136.439 62.9201 136.239 63.1601C135.839 63.7601 135.319 64.2001 134.719 64.5601C134.199 64.8401 133.599 64.9601 132.999 64.8401C132.719 64.7601 132.479 64.6401 132.239 64.4801L132.119 64.3601L131.279 64.9201C131.239 64.9201 131.159 64.8401 131.119 64.8001C131.079 64.7601 131.119 64.6801 131.079 64.6801C131.039 64.6801 130.999 64.8401 130.999 64.8001C130.439 65.3601 129.799 65.8801 129.079 66.2401C128.559 66.5601 127.879 66.9201 127.239 66.7601C127.039 66.7201 126.839 66.5601 126.719 66.4001C126.679 66.3601 126.639 66.2401 126.639 66.2001C126.639 66.1601 126.639 66.0801 126.639 66.0801C126.639 66.0801 126.639 66.0801 126.599 66.1201C126.399 66.3201 126.159 66.3601 125.799 66.1601C125.759 66.2001 125.559 66.6001 125.439 66.7201C125.199 67.0401 124.959 67.3201 124.679 67.6001C124.199 68.1201 123.519 68.6001 122.759 68.5201C122.439 68.5201 122.159 68.4001 121.959 68.1601C121.879 68.0401 121.839 67.9601 121.799 67.8401C121.719 67.8801 121.599 67.9201 121.519 67.9201L121.079 66.6401C120.119 67.8401 118.959 68.8801 117.679 69.7601C117.319 70.0001 117.199 70.5201 117.479 70.8801C117.519 70.9201 117.519 70.9601 117.559 70.9601C117.999 71.3201 118.559 71.3601 118.999 71.0001Z" fill="#000005"/>
<path d="M132.08 58.3994C132.08 58.3994 136.8 57.9194 140.2 60.0394C143.6 62.1594 145.72 58.0794 141.84 55.4794C137.96 52.8794 131.96 53.3194 129.52 54.7594" fill="white"/>
<path d="M132.519 58.7997H132.599H132.719C132.919 58.7997 132.519 58.7997 132.719 58.7997C133.079 58.7997 133.439 58.7597 133.799 58.7997C134.239 58.7997 134.719 58.8397 135.159 58.8797C135.719 58.9597 136.319 59.0397 136.879 59.1997C137.479 59.3597 138.079 59.5597 138.639 59.8397C139.239 60.1197 139.759 60.5197 140.399 60.7597C141.399 61.1597 142.719 61.2797 143.719 60.7597C144.439 60.3997 144.879 59.6797 144.879 58.8797C144.919 57.8397 144.319 56.9197 143.599 56.1997C141.719 54.3197 138.759 53.5597 136.159 53.3197C133.679 53.1197 130.799 53.2397 128.599 54.5597C128.199 54.7997 128.639 55.0397 128.879 55.1597C129.319 55.3197 129.799 55.3197 130.239 55.1597C131.799 54.2397 133.799 54.0397 135.599 54.1197C137.719 54.1997 140.119 54.8397 141.679 56.3597C142.639 57.2397 143.599 59.5197 141.879 60.2797C141.799 60.3197 141.719 60.3197 141.679 60.3197C141.839 60.2797 141.519 60.2797 141.719 60.3197C141.399 60.2397 141.919 60.3997 141.559 60.2797C141.079 60.0797 140.599 59.8397 140.159 59.5597C139.039 58.9997 137.879 58.6397 136.639 58.3997C134.959 58.0397 133.239 57.9597 131.519 58.1197C131.239 58.1597 130.839 58.3197 131.119 58.6397C131.399 58.9597 132.159 58.8397 132.519 58.7997Z" fill="#000005"/>
<path d="M61.5215 179.04C62.2015 176.28 63.7615 173.84 65.9215 172.04C66.2815 171.72 65.9615 171.32 65.6415 171.2C65.2015 170.96 64.6815 171 64.2415 171.28C61.8815 173.24 60.2415 175.92 59.4815 178.88C59.3615 179.32 60.1215 179.56 60.4015 179.6C60.8815 179.56 61.4015 179.48 61.5215 179.04Z" fill="#000005"/>
<path d="M77.523 178.72C78.723 178.72 104.603 178.36 104.603 178.36L117.683 142.76L165.883 143.44L153.683 184.64H77.043L77.523 178.72Z" fill="#68BA7F"/>
<path d="M78.3214 179.24C81.5614 179.24 84.7614 179.16 88.0014 179.12L102.161 178.92L105.361 178.88L105.401 178.84L107.041 174.36L110.841 164.08L115.081 152.6L118.041 144.56L118.401 143.64C118.441 143.52 118.481 143.4 118.521 143.28C118.481 143.32 118.441 143.32 118.521 143.32C118.601 143.32 118.641 143.32 118.721 143.32H119.481L126.561 143.44L137.841 143.6L150.281 143.8L160.841 143.96L166.401 144H166.641L164.961 142.96L162.761 150.44L158.081 166.24L153.881 180.4L152.881 183.8C152.881 183.88 152.841 183.96 152.801 184.08C152.761 184.16 152.881 184.04 152.841 184.08C152.681 184.12 152.481 184.12 152.321 184.08H76.2414L77.9214 185.12L78.4014 179.2C78.4414 178.92 77.8414 178.64 77.6414 178.52C77.5614 178.48 76.6814 178.04 76.6814 178.2L76.2014 184.12C76.1614 184.36 76.6814 184.64 76.8414 184.72C77.1214 184.96 77.4814 185.08 77.8814 185.12H151.401C152.401 185.12 153.401 185.2 154.401 185.12H154.521L154.561 185.08L155.761 181L158.681 171.16L162.201 159.24L165.241 149L166.241 145.6C166.441 145.08 166.601 144.56 166.721 144C166.721 143.96 166.721 143.96 166.721 143.92C166.801 143.72 166.201 143.36 166.081 143.32C165.761 143.12 165.441 142.96 165.041 142.92L160.241 142.84L148.801 142.68L134.841 142.48L122.801 142.32L118.841 142.28H117.601C117.401 142.24 117.161 142.24 116.961 142.28C116.921 142.28 116.921 142.28 116.881 142.28L116.841 142.32L113.521 151.32L107.321 168.24L104.881 174.88L104.121 176.96C104.041 177.28 103.921 177.6 103.801 177.88C103.801 177.88 103.881 177.88 103.721 177.88C103.561 177.88 103.321 177.88 103.121 177.88L100.601 177.92L92.3214 178.04C87.2814 178.12 82.2414 178.2 77.2014 178.24H76.7614C76.5214 178.24 77.2014 178.8 77.2414 178.8C77.5214 179.04 77.9214 179.2 78.3214 179.24Z" fill="#68BA7F"/>
<path d="M103.68 184.08L107.76 171.48L108.32 169.68C108.4 169.48 107.96 168.96 107.84 168.8C107.8 168.72 107.2 168.04 107.2 168.04L103.12 180.64L102.56 182.44C102.48 182.64 102.92 183.16 103.04 183.32C103.08 183.36 103.68 184.04 103.68 184.08Z" fill="#000005"/>
<path d="M135.803 160C132.763 158.96 129.203 159.92 127.763 162.92C127.163 164.16 126.883 165.96 127.763 167.12C128.323 167.76 129.003 168.24 129.763 168.52C130.563 168.88 131.363 169.12 132.243 169.24C134.083 169.56 136.003 169.32 137.763 168.56C138.163 168.36 137.763 168 137.523 167.92C137.083 167.68 136.603 167.64 136.163 167.8C135.083 168.28 133.923 168.52 132.763 168.44C131.763 168.36 130.523 168.04 129.763 167.28C128.923 166.44 129.163 164.92 129.523 163.88C129.923 162.76 130.683 161.84 131.683 161.2C132.723 160.52 133.963 160.36 135.163 160.72C135.483 160.84 136.203 161 136.443 160.68C136.683 160.36 136.003 160.08 135.803 160Z" fill="white"/>
</svg>
