<svg width="200" height="200" viewBox="0 0 200 200" fill="none" xmlns="http://www.w3.org/2000/svg">
<path d="M140.8 24.9995L125.88 24.4395C125.2 24.3995 124.72 54.1195 124.68 54.7995C124.64 55.4795 146.68 56.7995 146.72 55.6395C146.76 54.4795 148 34.0795 148 34.0795C146.36 30.0795 140.8 24.9995 140.8 24.9995Z" fill="white"/>
<path d="M140.319 24.2397L129.879 23.8397C128.399 23.7997 126.919 23.6797 125.479 23.6797C125.119 23.6797 125.039 23.8397 124.999 24.1597C124.919 24.5597 124.879 24.9997 124.839 25.3997C124.519 29.1197 124.439 32.9197 124.359 36.6397C124.239 40.9997 124.119 45.3597 124.039 49.7197L123.959 53.5197C123.959 53.7597 123.919 53.9997 123.959 54.2397C124.039 55.0397 124.879 55.5197 125.599 55.6797C126.959 55.9597 128.319 56.1197 129.679 56.1597C131.879 56.3597 134.039 56.4797 136.239 56.5997C138.439 56.7197 140.599 56.7997 142.799 56.7997C144.159 56.7997 145.639 56.8797 146.959 56.5597C147.279 56.4797 147.519 56.3997 147.559 56.0797C147.639 55.6397 147.599 55.1997 147.639 54.7597C147.759 52.9197 147.839 51.0797 147.959 49.2397L148.759 36.3997L148.839 34.8797C148.879 34.1597 148.439 33.5197 148.119 32.8797C146.639 30.2397 144.519 27.9597 142.399 25.7997C141.999 25.3997 141.559 24.9997 141.159 24.5997C140.959 24.4397 140.399 23.9597 140.119 24.2397C139.839 24.5197 140.359 25.0797 140.519 25.2397C141.479 26.1197 142.439 27.1197 143.279 28.0397C144.839 29.7597 146.439 31.5997 147.359 33.7597L147.319 33.4397C147.159 35.9597 146.999 38.4397 146.879 40.9597C146.639 44.8797 146.399 48.7597 146.159 52.6797C146.119 53.2397 146.079 53.7997 146.079 54.3597C146.079 54.5197 146.039 54.6797 146.039 54.8397C146.039 54.8797 146.039 54.9197 146.039 54.9597C146.039 55.0797 146.079 54.8797 146.039 54.9597C145.999 55.0397 146.079 54.9597 146.039 54.9597C145.959 54.9997 145.919 54.9997 145.839 55.0397C145.679 55.0797 145.479 55.1197 145.279 55.1197C144.719 55.1997 144.159 55.2397 143.599 55.2397C139.759 55.3597 135.919 55.1197 132.119 54.8797C130.359 54.7597 128.639 54.6397 126.879 54.4397C126.279 54.3597 125.719 54.3197 125.119 54.1997L124.839 54.1597C124.719 54.1197 124.559 54.0797 124.759 54.1597L124.599 54.1197H124.559C124.559 54.1197 123.839 53.7197 124.719 54.1997C124.959 54.3597 125.239 54.9997 125.519 55.1997C125.559 55.2397 125.519 55.3997 125.519 55.1597C125.519 55.0397 125.519 54.9197 125.519 54.7997L125.559 53.5197C125.599 52.0797 125.599 50.6397 125.639 49.1997C125.719 45.1597 125.839 41.1597 125.959 37.1597C126.039 33.7597 126.159 30.3597 126.399 26.9997C126.439 26.5597 126.479 26.1197 126.519 25.6797C126.519 25.5597 126.559 25.3997 126.599 25.2797C126.599 25.2397 126.639 25.1997 126.639 25.1597C126.639 25.0797 126.599 25.1997 126.639 25.1997C126.679 25.1997 126.359 25.1997 126.399 25.1997C126.439 25.1997 126.519 25.1997 126.599 25.1997L127.239 25.2397L129.439 25.3197L140.559 25.7597L141.359 25.7997C141.799 25.7997 141.679 25.3597 141.519 25.1197C141.199 24.7197 140.759 24.2797 140.319 24.2397Z" fill="#000005"/>
<path d="M139.721 25.9198C139.281 27.9598 138.841 29.9998 138.481 32.0798C138.401 32.5198 138.321 32.9598 138.281 33.3598C138.241 33.8398 138.561 34.0798 139.041 34.2398C139.601 34.3998 140.161 34.5198 140.721 34.5598C141.481 34.6398 142.241 34.7198 143.001 34.7598C144.841 34.8798 146.841 34.9598 148.641 34.5198C149.041 34.4398 149.081 34.1198 148.761 33.8798C148.361 33.5998 147.841 33.5198 147.361 33.5998C145.961 33.8798 144.561 33.9198 143.161 33.7998C142.401 33.7598 141.681 33.7198 140.921 33.6398L140.481 33.5998C140.201 33.5598 140.681 33.6398 140.441 33.5998L140.281 33.5598C140.081 33.5598 139.841 33.5198 139.641 33.4398C139.641 33.4398 139.921 33.5198 139.681 33.4398C139.881 33.5198 140.041 33.6398 140.201 33.7998C140.241 33.8398 140.201 33.9198 140.201 33.7598C140.201 33.6798 140.201 33.5998 140.201 33.5598C140.241 33.1198 140.321 32.6798 140.401 32.2798C140.601 31.0798 140.841 29.8798 141.121 28.6798C141.281 27.8798 141.441 27.0798 141.641 26.2798C141.841 25.6798 139.881 25.2798 139.721 25.9198Z" fill="#000005"/>
<path d="M128.958 39.2398C128.958 40.5198 128.998 41.7998 128.958 43.0798C128.998 43.5198 128.838 43.9198 128.518 44.1998L128.478 44.2398L128.398 44.2798C128.438 44.2798 128.438 44.2798 128.398 44.2798C128.358 44.2798 128.358 44.2798 128.358 44.2798C128.318 44.2798 128.278 44.2398 128.238 44.1998C128.158 44.1198 128.078 44.0398 128.038 43.9598C127.678 43.4398 126.238 43.7598 126.718 44.4398C127.598 45.7198 129.718 45.5598 130.318 44.0798C130.598 43.3998 130.478 42.5198 130.478 41.7998V39.2798C130.438 38.6398 128.958 38.5998 128.958 39.2398Z" fill="#000005"/>
<path d="M132.161 44.68C132.321 43.72 132.521 42.76 132.721 41.8C132.801 41.36 132.921 40.96 133.081 40.52C133.161 40.32 133.241 40.12 133.321 39.96C133.361 39.88 133.401 39.8 133.441 39.72L133.521 39.56C133.601 39.48 133.601 39.48 133.521 39.56L132.961 39.76H133.041H132.681C132.601 39.72 132.601 39.76 132.681 39.8C132.721 39.84 132.721 39.88 132.761 39.92C132.801 40 132.841 40.08 132.881 40.16C132.961 40.36 133.041 40.56 133.121 40.8C133.241 41.2 133.361 41.64 133.481 42.04C133.721 42.92 133.881 43.84 134.041 44.76C134.081 45.08 134.681 45 134.881 44.96C135.161 44.88 135.521 44.68 135.481 44.36C135.321 43.28 135.081 42.2 134.801 41.12C134.681 40.6 134.521 40.12 134.321 39.64C134.241 39.4 134.081 39.2 133.921 39C133.641 38.8 133.281 38.72 132.921 38.88C132.361 39.04 132.041 39.6 131.801 40.12C131.601 40.6 131.441 41.08 131.321 41.6C131.041 42.68 130.841 43.76 130.641 44.84C130.641 45.48 132.121 45.24 132.161 44.68Z" fill="#000005"/>
<path d="M132.878 43.4393H134.758C134.958 43.4393 134.598 42.9593 134.558 42.9193C134.438 42.7593 134.318 42.6393 134.158 42.5193C134.078 42.4393 133.958 42.3193 133.838 42.3193H131.998C131.798 42.3193 132.158 42.7993 132.198 42.8393C132.318 42.9993 132.438 43.1193 132.598 43.2793C132.678 43.3193 132.798 43.4393 132.878 43.4393Z" fill="#000005"/>
<path d="M135.718 39.9995C135.678 40.7995 136.078 41.5995 136.358 42.3195L137.278 44.7595C137.358 44.9595 137.878 44.7995 137.998 44.7595C138.278 44.6795 138.518 44.5195 138.678 44.2395C139.438 42.5595 140.278 40.9595 141.198 39.3595C141.358 39.0795 140.998 39.0795 140.798 39.1195C140.438 39.1595 140.118 39.3595 139.878 39.5995C138.918 41.2395 138.038 42.9195 137.238 44.6395L138.638 44.1195L137.758 41.7595C137.598 41.3595 137.478 40.9995 137.318 40.5995C137.158 40.2395 137.078 39.8795 137.078 39.4795C137.118 39.1595 135.758 39.5995 135.718 39.9995Z" fill="#000005"/>
<path d="M142.041 45.4393C142.201 44.4793 142.401 43.5193 142.601 42.5593C142.681 42.1193 142.841 41.6793 142.961 41.2793C143.041 41.1193 143.121 40.9193 143.201 40.7593C143.241 40.6793 143.281 40.5993 143.321 40.5193C143.361 40.4793 143.401 40.3993 143.401 40.3593C143.521 40.1993 143.441 40.2393 143.161 40.4393L142.841 40.3193C143.001 40.3993 142.841 40.2793 142.881 40.3593C142.921 40.4393 143.001 40.5593 143.041 40.6393C143.121 40.7993 143.161 40.9593 143.241 41.0793C143.401 41.5193 143.521 41.9593 143.601 42.3993C143.841 43.2793 144.001 44.1593 144.161 45.0793C144.241 45.4793 144.561 45.7193 144.961 45.7193C145.321 45.6393 145.561 45.2793 145.441 44.9193C145.441 44.9193 145.441 44.9193 145.441 44.8793C145.281 43.7993 145.041 42.7193 144.761 41.6393C144.641 41.1193 144.441 40.5593 144.201 40.0793C143.961 39.5593 143.561 38.8793 142.921 38.9993C142.401 39.0793 142.121 39.7193 141.921 40.1593C141.721 40.6393 141.521 41.1593 141.401 41.6793C141.121 42.7593 140.921 43.8393 140.721 44.9193C140.641 45.3193 140.841 45.7193 141.201 45.8793C141.521 45.9993 141.881 45.8793 142.001 45.5593C142.001 45.5193 142.001 45.4793 142.041 45.4393Z" fill="#000005"/>
<path d="M142.68 43.8796H144.56C144.72 43.8796 144.84 43.7996 144.88 43.6796C144.92 43.5196 144.92 43.3596 144.84 43.2396C144.68 42.8796 144.36 42.6796 144 42.6396H142.12C142 42.6396 141.84 42.7196 141.8 42.8396C141.76 42.9996 141.76 43.1596 141.84 43.2796C141.96 43.5996 142.28 43.8396 142.68 43.8796Z" fill="#000005"/>
<path d="M105 16.2798L93.4396 15.8398C92.9196 15.8398 92.5596 38.7998 92.5196 39.3198C92.4796 39.8398 109.56 40.8798 109.6 39.9598C109.64 39.0398 110.6 23.2798 110.6 23.2798C109.28 20.1998 105 16.2798 105 16.2798Z" fill="white"/>
<path d="M105.361 15.5201L97.2006 15.2001C96.0806 15.1601 94.9606 15.0801 93.8406 15.0801C92.6006 15.0801 92.4006 16.0801 92.3206 17.0401C92.0406 19.9201 92.0006 22.8401 91.9206 25.7201C91.8006 29.1601 91.7606 32.5601 91.6806 36.0001L91.6406 39.0801C91.6406 39.2001 91.6406 39.3201 91.6406 39.4801C91.6406 39.6401 91.6406 39.7601 91.6406 39.4801C91.6406 39.9601 91.9206 40.1201 92.3206 40.2001C93.4406 40.4001 94.5606 40.5601 95.7206 40.6401C97.4406 40.8001 99.1206 40.8801 100.841 40.9601C102.561 41.0401 104.241 41.1201 105.921 41.1201C107.041 41.1201 108.321 41.2001 109.401 40.8801C109.881 40.7201 110.441 40.4001 110.521 39.8401C110.561 39.5201 110.561 39.2001 110.561 38.9201C110.641 37.5201 110.721 36.1201 110.801 34.7601L111.401 24.7201C111.441 24.3201 111.441 23.9201 111.481 23.4801C111.481 23.4001 111.481 23.3201 111.481 23.2801C111.441 22.8401 111.281 22.4001 111.001 22.0401C109.881 20.0401 108.281 18.2801 106.641 16.6801C106.321 16.3601 106.001 16.0401 105.681 15.7601C105.041 15.2001 103.441 16.3601 104.201 17.0401C104.961 17.7201 105.761 18.5601 106.481 19.3601C107.721 20.7201 108.961 22.2401 109.681 23.9601L109.641 23.6001C109.321 28.5201 109.041 33.4801 108.761 38.4001C108.721 38.8401 108.721 39.2801 108.681 39.7201C108.681 39.8401 108.681 39.9601 108.681 40.0801C108.681 40.1201 108.681 40.1601 108.681 40.2001V40.2401C108.641 40.1201 108.921 39.8001 109.001 39.7601C109.081 39.7201 109.401 39.5201 109.321 39.5601C109.121 39.6401 109.321 39.5201 109.401 39.5601C109.321 39.5201 109.001 39.6401 108.921 39.6401C108.721 39.6801 108.521 39.6801 108.281 39.6801H108.161C107.961 39.6801 108.361 39.6801 108.121 39.6801H107.641C104.681 39.7601 101.721 39.6001 98.8006 39.4001C97.4806 39.3201 96.1606 39.2001 94.8406 39.0801C94.4006 39.0401 93.9606 38.9601 93.5606 38.9201C93.3206 38.8801 93.6806 38.9601 93.5206 38.9201L93.3606 38.8801C93.0806 38.8401 93.3606 38.8801 93.4406 39.0001C93.5206 39.1201 93.4806 39.6001 93.4806 39.1201C93.4806 39.0801 93.4806 39.0801 93.4806 39.0401C93.4806 38.9601 93.4806 38.8401 93.4806 38.7601C93.4806 38.4401 93.4806 38.1201 93.5206 37.8001C93.5206 36.7201 93.5606 35.6401 93.6006 34.5601C93.7206 28.8801 93.7606 23.2001 94.1606 17.5201C94.2006 17.1601 94.2006 16.8001 94.2406 16.4401C94.2406 16.3201 94.2806 16.2001 94.2806 16.0801C94.2806 16.0401 94.2806 16.0001 94.3206 16.0001C94.3206 15.8401 94.2406 16.2001 94.2806 16.0801C94.0806 16.4801 92.5606 16.7201 93.2806 16.7601C93.4406 16.7601 93.6006 16.7601 93.8006 16.7601L95.4806 16.8401L104.001 17.1601L104.641 17.2001C105.161 17.2001 105.641 16.9601 105.841 16.4801C106.001 16.2001 105.921 15.8801 105.641 15.7201C105.561 15.5601 105.441 15.5201 105.361 15.5201Z" fill="#000005"/>
<path d="M104.24 16.4799C103.88 18.0799 103.56 19.6799 103.28 21.2799C103.2 21.5999 103.16 21.9199 103.16 22.2399C103.16 22.3199 103.16 22.4399 103.2 22.5199C103.44 23.0799 103.88 23.5199 104.4 23.7999C104.72 23.9199 105.04 23.9999 105.36 23.9999C105.92 24.0799 106.52 24.1199 107.08 24.1599C108.48 24.3199 109.92 24.2799 111.32 23.9999C111.48 23.9599 110.84 23.1599 110.8 23.1199C110.64 22.9199 110.24 22.4799 109.96 22.5199C108.68 22.7599 107.36 22.7999 106.08 22.6799C105.48 22.6399 104.88 22.5999 104.28 22.5199C104.08 22.4799 103.88 22.4399 103.64 22.4399C103.56 22.4399 103.48 22.3999 103.4 22.3999C103.32 22.3999 103.28 22.3999 103.36 22.3999C103.4 22.3999 103.44 22.3999 103.36 22.3999C103.08 22.2799 103.32 22.4399 103.96 22.9199L104.4 23.4799C104.48 23.5999 104.44 23.7999 104.48 23.6399C104.48 23.5999 104.48 23.5199 104.48 23.4799C104.48 23.3199 104.52 23.1599 104.56 22.9999C104.64 22.5199 104.72 22.0399 104.8 21.5599C105 20.5199 105.2 19.4799 105.44 18.4799C105.48 18.2399 105.56 17.9999 105.6 17.7599C105.64 17.6399 105.44 17.3999 105.4 17.3199C105.24 17.1199 105.08 16.9199 104.92 16.7599C104.84 16.7199 104.28 16.1999 104.24 16.4799Z" fill="#000005"/>
<path d="M100.44 25.2003C99.0802 24.8803 97.8402 25.7603 97.1602 26.8803C96.3602 28.1603 96.0402 29.6803 96.2002 31.2003C96.4002 32.5203 97.2402 34.0403 98.5602 34.5203C99.8402 34.9603 101.2 34.5203 102 33.4403C102.4 32.9603 101.36 31.2403 100.96 31.8003C100.36 32.6003 99.3202 33.0003 98.3602 32.8003C98.0402 32.7203 97.7602 32.5203 97.5602 32.2403C97.5202 32.1603 97.5202 32.1603 97.5602 32.2403C97.5202 32.2003 97.5202 32.1603 97.4802 32.0803C97.4402 32.0003 97.4402 32.0003 97.4402 32.0003C97.4002 31.7603 97.3602 31.5203 97.3602 31.2803C97.4002 29.4403 98.7602 26.5203 101.04 27.0403C101.48 27.1203 101.32 26.3203 101.28 26.1603C101.16 25.7603 100.88 25.2803 100.44 25.2003Z" fill="#000005"/>
<path d="M103.039 27.8401V31.4001C103.039 31.5601 103.279 31.7601 103.359 31.8401C103.559 32.0001 103.799 32.0801 104.079 32.1201C104.399 32.1601 104.959 32.2001 104.959 31.7601V28.2001C104.959 28.0401 104.719 27.8401 104.599 27.7601C104.399 27.6001 104.159 27.5201 103.879 27.4801C103.599 27.4001 103.039 27.4001 103.039 27.8401Z" fill="#000005"/>
<path d="M102.921 30.3599H106.481C106.721 30.3599 106.201 29.7599 106.161 29.7199C106.001 29.5199 105.801 29.3199 105.601 29.1599C105.521 29.0799 105.361 28.8799 105.201 28.8799H101.641C101.401 28.8799 101.921 29.4799 101.961 29.5199C102.121 29.7199 102.321 29.9199 102.521 30.0799C102.641 30.1999 102.801 30.3599 102.921 30.3599Z" fill="#000005"/>
<path d="M78.2797 126.28H52.7197L50.6797 140.4H80.3597L78.2797 126.28Z" fill="white"/>
<path d="M78.2796 125.4H52.7196C52.2396 125.36 51.7996 125.72 51.7196 126.2L49.8796 138.6L49.6396 140.32C49.5596 140.8 50.1996 141.281 50.6396 141.281H80.3596C80.7996 141.281 81.4396 141 81.3596 140.441L79.5196 128.04L79.2796 126.32C79.2396 125.8 78.7996 125.4 78.2796 125.4C77.8396 125.36 77.1996 125.72 77.2796 126.24L79.1196 138.641L79.3596 140.36L80.3596 139.52H50.6396L51.6396 140.481L53.4796 128.081L53.7196 126.36L52.7196 127.2H78.2796C78.7596 127.24 79.1996 126.88 79.2796 126.4C79.2796 126.4 79.2796 126.4 79.2796 126.36C79.2396 125.8 78.7996 125.4 78.2796 125.4Z" fill="#000005"/>
<path d="M19.0811 53.4004H111.721C113.921 53.4004 115.681 55.1604 115.681 57.3604V122.56C115.681 124.76 113.921 126.52 111.721 126.52H19.0811C16.8811 126.52 15.1211 124.76 15.1211 122.56V57.3604C15.1211 55.1604 16.9211 53.4004 19.0811 53.4004Z" fill="white"/>
<path d="M19.4384 54.3204H112.038C112.118 54.3204 111.958 54.3204 112.158 54.3204C112.758 54.3604 113.358 54.5604 113.838 54.9204C114.518 55.4004 114.918 56.2004 114.918 57.0004C114.958 58.0004 114.918 59.0004 114.918 60.0004V118.88C114.918 119.96 114.918 121.08 114.918 122.16C114.918 124.08 113.318 125.6 111.438 125.6H21.0784C20.3184 125.6 19.5584 125.6 18.7584 125.6C18.9184 125.6 18.6784 125.6 18.6784 125.6C18.5584 125.6 18.4384 125.6 18.3584 125.56C17.7984 125.48 17.2384 125.24 16.7984 124.84C16.2384 124.36 15.9184 123.64 15.9184 122.88C15.9184 122.56 15.9184 122.28 15.9184 121.96V58.7204C15.9184 58.4004 15.9184 58.0804 15.9184 57.7604C15.9184 55.8404 17.4784 54.2804 19.4384 54.3204C19.9184 54.3204 19.9584 53.6004 19.8384 53.2804C19.6784 52.8004 19.2784 52.4804 18.7984 52.4804C16.3584 52.5604 14.3984 54.5604 14.3984 57.0404C14.3984 57.3604 14.3984 57.6404 14.3984 57.9604V121.44C14.3984 121.68 14.3984 121.96 14.3984 122.2C14.4384 125 16.5984 127.44 19.4784 127.44H111.598C111.838 127.44 112.118 127.44 112.358 127.44C114.718 127.2 116.478 125.24 116.518 122.88C116.518 121.8 116.518 120.72 116.518 119.64V60.4404C116.518 59.5204 116.518 58.6004 116.518 57.6804C116.558 54.8404 114.278 52.4804 111.438 52.4404H18.7584C18.2784 52.4404 18.2784 53.1604 18.3584 53.4804C18.5184 54.0004 18.9184 54.3204 19.4384 54.3204Z" fill="#000005"/>
<path d="M19.0811 52.5605H111.721C113.921 52.5605 115.681 54.3206 115.681 56.5206V111.161H15.1211V56.5206C15.1211 54.3206 16.9211 52.5605 19.0811 52.5605Z" fill="#000005"/>
<path d="M19.9198 52.8003H111.8C112.04 52.8003 112.28 52.8003 112.52 52.8003H112.56C112.52 52.8003 112.76 52.8403 112.52 52.7603C112.28 52.6803 112.4 52.7203 112.52 52.8003C112.68 52.8803 112.84 52.9603 113 53.0403C114.04 53.7203 114.68 54.8803 114.72 56.1603C114.76 57.0803 114.72 58.0003 114.72 58.9203V110.92L114.88 110.88H18.3998C17.0798 110.88 15.7998 110.88 14.4798 110.88H14.3198L16.1198 111.32V56.8003C16.1198 55.6403 16.5998 54.5603 17.3998 53.8003C18.1198 53.1603 18.9998 52.8003 19.9198 52.8003C20.3198 52.8003 19.6798 52.5603 19.5998 52.5203C19.1598 52.4003 18.7198 52.3203 18.2398 52.2803C16.3998 52.2803 14.7598 53.4803 14.2398 55.2803C14.1198 55.7203 14.0798 56.1603 14.1198 56.6003V110C14.0798 110.28 14.0798 110.52 14.1198 110.8C14.1198 110.84 14.1198 110.88 14.1198 110.92C14.1198 111.24 15.7198 111.36 15.9198 111.36H112.4C113.72 111.36 115 111.4 116.32 111.36C116.36 111.36 116.44 111.36 116.48 111.36C116.52 111.36 116.6 111.36 116.64 111.32V57.2003C116.68 56.5603 116.6 55.9203 116.4 55.3203C115.56 53.0803 113.04 52.3203 110.88 52.3203H18.2798C17.8798 52.3203 18.5198 52.5603 18.5998 52.6003C18.9998 52.7203 19.4798 52.8003 19.9198 52.8003Z" fill="#000005"/>
<path d="M66.1209 117.68C66.4809 117.68 66.8409 117.8 67.1609 118C67.1609 118 67.3209 118.08 67.2409 118.04C67.1609 118 67.3609 118.16 67.2009 118C67.3609 118.16 67.0009 117.76 67.0009 117.76C66.9209 117.64 66.8409 117.56 66.8009 117.44C66.8009 117.48 66.8409 117.56 66.8009 117.44C66.8409 117.48 66.8409 117.52 66.8809 117.6C66.9209 117.68 66.9209 117.76 66.9209 117.84C67.1209 118.92 66.4009 119.96 65.3209 120.16C64.8809 120.24 64.4009 120.16 64.0009 119.92C63.9609 119.88 63.8809 119.84 63.8409 119.8C63.9609 119.88 63.7609 119.76 63.8809 119.84L63.9209 119.88C63.8009 119.76 63.8809 119.84 64.1209 120.12C64.2009 120.2 64.2409 120.32 64.3209 120.4C64.4009 120.48 64.2809 120.28 64.3209 120.44C64.2809 120.36 64.2409 120.28 64.2409 120.2C64.1609 119.84 64.1609 119.44 64.2809 119.08C64.4409 118.24 65.2409 117.68 66.1209 117.68C66.1609 117.68 66.0009 117.32 66.0009 117.36C65.8809 117.16 65.7609 116.96 65.6009 116.76C65.4409 116.56 65.3209 116.4 65.1209 116.24C65.0409 116.16 64.9609 116.08 64.8409 116.08C63.8809 116.08 63.0809 116.72 62.8409 117.64C62.7209 118.12 62.7609 118.64 62.9609 119.08C63.3209 119.88 63.8409 120.6 64.5209 121.16C65.2409 121.84 66.3609 121.92 67.1609 121.4C67.9609 120.84 68.2809 119.84 67.9609 118.92C67.8009 118.52 67.6409 118.16 67.3609 117.84C67.0809 117.44 66.7609 117.04 66.3609 116.72C65.9209 116.32 65.3609 116.08 64.8009 116.08C64.7209 116.08 64.9209 116.44 64.8809 116.4C65.0009 116.6 65.1209 116.8 65.2809 117C65.4409 117.2 65.6009 117.36 65.7609 117.52C65.9609 117.6 66.0409 117.68 66.1209 117.68Z" fill="#68BA7F"/>
<path d="M111.518 56.7207H19.0781V107.201H111.518V56.7207Z" fill="white"/>
<path d="M19.3584 57.3607H108.038C109.238 57.3607 110.438 57.4007 111.638 57.3607H111.798L110.558 56.4807V104.921C110.518 105.561 110.518 106.241 110.558 106.881C110.558 106.921 110.558 106.921 110.558 106.961L111.238 106.561H22.5584C21.3584 106.561 20.1584 106.521 18.9584 106.561H18.7984L20.0384 107.441V59.0007C20.0384 58.3607 20.0784 57.6807 20.0384 57.0407V56.9607C20.0384 56.2407 18.1584 55.6407 18.1584 56.4807V104.921C18.1584 105.561 18.1184 106.241 18.1584 106.881C18.1584 106.921 18.1584 106.921 18.1584 106.961C18.1584 107.441 18.9984 107.841 19.3984 107.841H111.838C112.118 107.841 112.518 107.801 112.518 107.441V59.0007C112.518 58.3607 112.558 57.6807 112.518 57.0407C112.518 57.0007 112.518 57.0007 112.518 56.9607C112.518 56.4807 111.678 56.0807 111.278 56.0807H18.7984C18.4384 56.0807 17.9984 56.2007 18.1984 56.6407C18.4384 57.0407 18.8784 57.3207 19.3584 57.3607Z" fill="#000005"/>
<path d="M26.0789 63.5201C26.7416 63.5201 27.2789 62.9829 27.2789 62.3201C27.2789 61.6574 26.7416 61.1201 26.0789 61.1201C25.4162 61.1201 24.8789 61.6574 24.8789 62.3201C24.8789 62.9829 25.4162 63.5201 26.0789 63.5201Z" fill="#68BA7F"/>
<path d="M30.3992 63.44C31.062 63.44 31.5992 62.9028 31.5992 62.24C31.5992 61.5773 31.062 61.04 30.3992 61.04C29.7365 61.04 29.1992 61.5773 29.1992 62.24C29.1992 62.9028 29.7365 63.44 30.3992 63.44Z" fill="#68BA7F"/>
<path d="M34.8016 63.5201C35.4643 63.5201 36.0016 62.9829 36.0016 62.3201C36.0016 61.6574 35.4643 61.1201 34.8016 61.1201C34.1388 61.1201 33.6016 61.6574 33.6016 62.3201C33.6016 62.9829 34.1388 63.5201 34.8016 63.5201Z" fill="#68BA7F"/>
<path d="M28.9611 83.96H27.1211V85.48H28.9611V83.96Z" fill="#68BA7F"/>
<path d="M48.7995 83.9199H33.5195V85.4399H48.7995V83.9199Z" fill="#68BA7F"/>
<path d="M58.0794 83.7607H53.3594V85.2807H58.0794V83.7607Z" fill="#68BA7F"/>
<path d="M28.9611 88.4004H27.1211V89.9204H28.9611V88.4004Z" fill="#68BA7F"/>
<path d="M43.1195 88.3604H33.5195V89.8804H43.1195V88.3604Z" fill="#68BA7F"/>
<path d="M48.9209 88.2002H45.9609V89.7202H48.9209V88.2002Z" fill="#68BA7F"/>
<path d="M51.2392 89.9202L51.1992 88.3602L62.7192 88.1602L62.7592 89.7202L51.2392 89.9202Z" fill="#68BA7F"/>
<path d="M28.9611 93.1602H27.1211V94.6802H28.9611V93.1602Z" fill="#68BA7F"/>
<path d="M43.7995 93.1602H33.5195V94.6802H43.7995V93.1602Z" fill="#68BA7F"/>
<path d="M50.0389 92.96H46.8789V94.48H50.0389V92.96Z" fill="#68BA7F"/>
<path d="M52.5205 94.68L52.4805 93.16L58.1205 92.96L58.1605 94.52L52.5205 94.68Z" fill="#68BA7F"/>
<path d="M28.9611 97.6006H27.1211V99.1206H28.9611V97.6006Z" fill="#68BA7F"/>
<path d="M45.4386 97.6006H33.5586V99.1206H45.4386V97.6006Z" fill="#68BA7F"/>
<path d="M52.6409 97.4404H48.9609V98.9604H52.6409V97.4404Z" fill="#68BA7F"/>
<path d="M75.1994 77.8398H73.3594V79.3598H75.1994V77.8398Z" fill="#68BA7F"/>
<path d="M90.0417 77.7998H79.7617V79.3198H90.0417V77.7998Z" fill="#68BA7F"/>
<path d="M96.2811 77.6406H93.1211V79.1606H96.2811V77.6406Z" fill="#68BA7F"/>
<path d="M98.7587 79.3206L98.7188 77.8006L104.319 77.6406L104.359 79.1606L98.7587 79.3206Z" fill="#68BA7F"/>
<path d="M75.1994 82.2803H73.3594V83.8003H75.1994V82.2803Z" fill="#68BA7F"/>
<path d="M91.6417 82.2402H79.7617V83.7602H91.6417V82.2402Z" fill="#68BA7F"/>
<path d="M98.8792 82.0801H95.1992V83.6001H98.8792V82.0801Z" fill="#68BA7F"/>
<path d="M31.0388 78.0002C31.6388 76.4002 32.5588 74.8002 33.9588 73.8402C34.5988 73.3602 35.3588 73.1202 36.1188 73.1602C36.6788 73.2402 36.9988 73.7202 37.1188 74.2402C37.3588 75.0402 37.2388 75.8802 36.8388 76.6002C36.7188 76.7602 36.5188 76.8402 36.4388 76.9602C37.0388 77.4802 37.2788 77.6002 37.1988 77.2802C37.1988 77.2002 37.2388 77.1202 37.2788 77.0402C37.5188 76.7202 37.7988 76.4402 38.1188 76.2402C39.1588 75.4802 40.9188 75.0002 41.4388 76.5602C41.6388 76.9602 41.9988 77.2402 42.4388 77.3202C42.5588 77.3602 43.4388 77.5202 43.2788 77.1202C42.5988 75.2002 40.2388 74.1202 38.3188 74.4402C37.3588 74.6002 36.4788 75.0802 35.7988 75.8002C35.5188 76.0802 35.2388 76.4002 35.3588 76.8002C35.4788 77.3202 36.0788 77.6802 36.5188 77.8402C37.4788 78.2402 38.4388 78.1202 38.8388 77.0802C39.1988 76.1602 39.1988 75.1602 38.7988 74.2402C37.9988 72.4802 35.4788 71.6402 33.6788 72.1602C31.4388 72.8002 29.9588 75.1202 29.1988 77.2002C28.9988 77.7602 30.8388 78.5602 31.0388 78.0002Z" fill="#000005"/>
<path d="M40.8791 70.5603C40.7591 71.0803 40.7591 71.6403 40.8791 72.1603C40.9991 72.5603 41.1991 72.9603 41.4791 73.2803C41.7591 73.6403 42.1191 73.9603 42.5591 74.1203C42.9991 74.2403 43.4791 74.1603 43.8391 73.8403C44.1991 73.4803 44.3591 72.9603 44.2391 72.4803C44.1191 72.0003 43.8791 71.5203 43.5591 71.1203C43.2791 70.7203 42.9191 70.4003 42.5191 70.1603C42.4391 70.1203 42.2391 70.0003 42.1191 70.1203C41.9991 70.2403 42.0791 70.4003 42.1191 70.5203C42.2791 70.9603 42.5991 71.3603 42.9991 71.6403C43.0391 71.6403 43.0391 71.6803 43.0791 71.6803C43.0391 71.6803 42.9191 71.5603 42.9991 71.6403L43.0791 71.6803C42.8391 71.5203 42.9591 71.5603 42.9991 71.6003C43.0391 71.6403 43.1191 71.7603 42.9191 71.5203L42.9591 71.6003C43.0391 71.6803 42.7991 71.3603 42.8791 71.4803C42.9591 71.6003 42.9591 71.6403 42.8391 71.4003L42.8791 71.4803C42.9591 71.6003 42.8391 71.4403 42.8391 71.4003C42.8391 71.4403 42.9191 71.5203 42.9191 71.6003C42.9191 71.5603 42.8791 71.4403 42.9191 71.5603V71.6403C42.9191 71.7203 42.9191 71.7603 42.9191 71.8403V71.7203C42.9191 71.9203 42.8391 72.0803 42.7591 72.2403L42.7991 72.1603C42.6391 72.4003 42.4391 72.5603 42.1591 72.6403L42.2391 72.6003C42.0791 72.6403 41.9191 72.6803 41.7591 72.6403L41.8791 72.6803C41.7991 72.6803 41.7591 72.6403 41.7191 72.6403C41.6791 72.6403 41.8791 72.7203 41.7591 72.6803C41.6391 72.6403 41.9191 72.8003 41.8391 72.7203C41.7191 72.6003 41.9991 72.8803 41.9191 72.8003L42.0391 72.9603C41.9591 72.8803 41.9991 72.9203 42.1591 73.1203C42.1191 73.0403 42.0791 72.9603 42.1991 73.2403L42.1591 73.1603C42.2791 73.4003 42.2391 73.3203 42.1991 73.2403C42.1991 73.2003 42.1991 73.2003 42.1591 73.1603C42.2391 73.3203 42.1991 73.2803 42.1591 73.2003V73.1203C42.1591 73.0003 42.1591 72.8403 42.1591 72.7203V72.8403C42.1591 72.6003 42.1991 72.4003 42.2391 72.1603C42.2391 72.0003 42.1991 71.8003 42.1191 71.6803C41.9991 71.4403 41.8391 71.2403 41.6791 71.0403C41.5991 70.9603 40.9591 70.4003 40.8791 70.8003V70.5603Z" fill="#000005"/>
<path d="M66.0408 70.7605L65.9608 81.4005L65.8408 98.2005L65.8008 102.041C65.8008 102.801 67.6808 103.441 67.6808 102.601L67.7608 91.9605L67.8808 75.1605L67.9208 71.3205C67.8808 70.5605 66.0408 69.8805 66.0408 70.7605Z" fill="#000005"/>
<path d="M73.7198 98.2399C74.2798 96.6799 75.2398 95.0399 76.6398 94.0799C77.1198 93.6799 77.7198 93.5199 78.3198 93.5599C78.9998 93.7199 79.5598 94.2799 79.7198 94.9999C79.9598 95.7999 79.8398 96.6399 79.4798 97.3599C79.4398 97.4399 79.3598 97.5199 79.3198 97.5599C79.9598 97.7599 80.1998 97.7599 79.9598 97.5599C79.9198 97.5199 79.9198 97.4399 79.9198 97.3599C79.9598 97.2799 79.9998 97.1999 80.0798 97.1199C80.3198 96.8399 80.5998 96.5599 80.9598 96.3599C81.4398 95.9599 82.0798 95.7999 82.6798 95.9199C83.3598 96.1599 83.9198 96.6799 84.1198 97.3999C84.3198 97.9999 86.3198 97.8799 86.0398 97.1999C85.3198 95.1999 82.7998 94.6399 80.9198 95.0799C79.9598 95.3199 79.0798 95.8399 78.3998 96.5599C78.1198 96.8399 77.8398 97.1999 77.9598 97.5999C78.1198 97.9999 78.5198 98.3199 78.9198 98.3999C79.9598 98.7199 81.1598 98.3599 81.5598 97.2799C81.9198 96.3599 81.9198 95.3199 81.5198 94.4399C80.6398 92.5999 78.0398 92.3199 76.3198 92.8799C74.1198 93.6399 72.6398 95.8399 71.8398 97.9599C71.5598 98.6399 73.5198 98.8399 73.7198 98.2399Z" fill="#000005"/>
<path d="M83.2388 91.6002C83.1188 92.0802 83.0788 92.6002 83.1588 93.1202C83.1988 93.4402 83.3588 93.7602 83.5588 94.0002C83.7588 94.2402 84.0788 94.4402 84.3988 94.5202C85.1588 94.7202 85.9588 94.5602 86.5588 94.0402C87.0388 93.6402 87.2788 93.0002 87.1588 92.4002C87.0388 91.6802 86.6388 91.0802 85.9988 90.7202C85.7988 90.6002 85.5188 90.5202 85.2788 90.5602C85.0388 90.5602 84.7988 90.6802 84.5988 90.8402C84.4388 91.0002 84.3588 91.2002 84.3588 91.4002C84.3988 91.6402 84.5188 91.8002 84.6788 91.9202C84.7588 91.9602 84.8388 92.0402 84.9188 92.0802L84.7588 91.9202C84.8788 92.0402 84.9988 92.1602 85.0788 92.3202L84.9588 92.1602C85.0388 92.3202 85.1188 92.4402 85.1588 92.6002L85.1188 92.4002C85.1588 92.5602 85.1588 92.7202 85.1588 92.8402L85.1988 92.6402C85.1988 92.7602 85.1588 92.8802 85.1188 92.9602L85.1988 92.7202C85.1588 92.8002 85.1188 92.8802 85.0388 92.9602L85.1988 92.8002C85.1188 92.8802 85.0788 92.9602 84.9988 93.0002L85.1988 92.8402C85.1188 92.8802 85.0388 92.9602 84.9588 93.0002L85.1988 92.9202C85.1188 92.9602 85.0388 92.9602 84.9588 93.0002L85.1988 92.9602C85.1188 92.9602 85.0788 92.9602 84.9988 92.9602H85.2788C85.1988 92.9602 85.1588 92.9602 85.0788 92.9202L85.3188 92.9602C85.2388 92.9602 85.1988 92.9202 85.1588 92.8802L85.3588 93.0002C85.2788 92.9602 85.2388 92.9202 85.1988 92.8802L85.3588 93.0402C85.2788 92.9602 85.2388 92.9202 85.1988 92.8402L85.3188 93.0002C85.2388 92.8802 85.1988 92.7602 85.1588 92.6402L85.1988 92.8402C85.1588 92.6002 85.1188 92.3202 85.1588 92.0802L85.1188 92.2802C85.1188 92.0802 85.1588 91.9202 85.1988 91.7202C85.2388 91.5202 85.1988 91.2802 85.0388 91.1202C84.8788 90.9602 84.6388 90.8402 84.3988 90.8002C84.1188 90.7602 83.8788 90.8002 83.6388 90.9602C83.4388 91.1602 83.2788 91.3602 83.2388 91.6002Z" fill="#000005"/>
<path d="M135.841 105.44C142.201 112.52 147.241 111.24 145.761 117.08C145.761 117.08 152.361 130.4 157.241 120.16C158.001 118.56 169.401 99.56 159.241 88.48C159.241 88.48 153.281 82.64 156.921 76.36C156.921 76.36 150.041 80.2 144.841 78.12C139.641 76.04 130.121 70.48 127.081 75.32C124.041 80.16 130.441 84.56 135.241 85.32L133.201 93.32C137.721 96.28 141.641 91.68 141.641 91.68C141.641 91.68 143.241 97.68 141.481 99.48C139.721 101.28 134.441 100.2 134.441 100.2C134.001 102.08 134.561 104.04 135.841 105.44Z" fill="white"/>
<path d="M135.001 105.96C136.521 107.64 138.241 109.12 140.081 110.44C141.281 111.28 142.601 112 143.761 112.92C144.121 113.2 144.441 113.56 144.721 113.96C144.721 113.92 144.801 114.16 144.841 114.24C144.881 114.36 144.921 114.44 144.961 114.56C145.041 114.8 145.081 115.08 145.081 115.32C145.081 115.6 145.081 115.92 145.041 116.2C145.001 116.56 144.761 117.08 144.881 117.44C144.921 117.56 145.001 117.68 145.081 117.8C145.961 119.48 147.041 121.08 148.361 122.48C149.961 124.12 152.201 125.56 154.521 124.56C156.681 123.64 157.681 121.44 158.721 119.48C159.761 117.52 160.721 115.52 161.561 113.44C163.921 107.52 165.561 100.72 163.761 94.4396C163.281 92.7596 162.521 91.1996 161.561 89.7596C160.961 88.9596 160.321 88.1596 159.641 87.4396C157.801 85.2796 156.441 82.3996 156.881 79.4796C157.041 78.5196 157.361 77.5596 157.881 76.7196C158.081 76.3996 158.001 75.9596 157.681 75.7596C157.321 75.5596 156.841 75.5596 156.481 75.7996L156.321 75.8796L156.161 75.9596C155.921 76.0796 156.281 75.9196 156.081 75.9996C155.561 76.2396 155.041 76.4796 154.521 76.6796C153.001 77.3196 151.361 77.7196 149.721 77.9196C148.001 78.1196 146.241 77.8396 144.681 77.1596C143.161 76.5196 141.681 75.7996 140.161 75.1596C138.521 74.4396 136.841 73.7996 135.121 73.2796C133.561 72.7996 131.921 72.5996 130.281 72.7196C127.321 72.9596 125.161 75.5596 125.401 78.5196C125.441 78.8796 125.481 79.2396 125.601 79.5596C126.161 81.4396 127.721 82.9196 129.281 83.9596C131.001 85.1196 132.961 85.8796 135.041 86.2396L134.321 85.3196L132.281 93.3196C132.201 93.5996 132.321 93.9196 132.561 94.0796C134.601 95.3996 137.161 95.5596 139.321 94.4796C140.481 93.9596 141.521 93.1596 142.361 92.2396L140.721 92.1196C141.201 93.7996 141.441 95.5996 141.321 97.3596C141.321 97.5996 141.281 97.8396 141.241 98.0796C141.201 98.1996 141.161 98.3196 141.161 98.4396L141.121 98.5996C141.121 98.5996 141.001 98.8396 141.081 98.7196C141.041 98.8396 140.961 98.9196 140.921 98.9996C140.801 99.1196 140.921 99.0396 140.921 98.9996C140.881 99.0396 140.841 99.0796 140.801 99.1196C140.641 99.2396 140.761 99.1596 140.801 99.1196L140.641 99.2396C140.601 99.2796 140.521 99.3196 140.481 99.3196C140.601 99.2396 140.481 99.3196 140.401 99.3596C139.361 99.7196 138.241 99.8396 137.121 99.7196C136.321 99.6796 135.521 99.5996 134.721 99.4396C134.201 99.3596 133.721 99.6796 133.521 100.16C132.881 102.12 133.641 104.4 135.001 105.96C135.681 106.72 137.401 105.72 136.641 104.88C135.841 104 135.321 102.88 135.241 101.68C135.201 101.32 135.241 100.92 135.281 100.56C135.241 100.76 135.321 100.48 135.321 100.4C135.321 100.36 135.321 100.32 135.361 100.28L134.161 101C136.201 101.4 138.641 101.6 140.641 100.84C141.921 100.4 142.881 99.3196 143.081 97.9996C143.281 96.6796 143.281 95.3196 143.041 93.9996C142.921 93.0796 142.721 92.1996 142.521 91.3196C142.321 90.6396 141.241 90.7596 140.881 91.1996C140.681 91.3996 140.481 91.6396 140.281 91.7996C140.201 91.8796 140.081 91.9596 139.961 92.0796C139.841 92.1996 140.081 91.9996 139.921 92.1196L139.721 92.2796C139.401 92.5196 139.081 92.7196 138.761 92.8796C138.081 93.2396 137.361 93.4396 136.601 93.4796C135.601 93.4796 134.641 93.1996 133.841 92.6396L134.121 93.3996L136.161 85.3996C136.281 84.8796 135.921 84.5596 135.441 84.4796C133.801 84.1996 132.241 83.5596 130.841 82.6796C129.561 81.8796 128.281 80.7996 127.641 79.3996C127.001 78.0796 127.161 76.4796 128.081 75.3196C128.241 75.1196 128.401 74.9596 128.601 74.7996C128.481 74.8796 128.801 74.6796 128.841 74.6396L129.001 74.5596C129.241 74.3996 128.801 74.6396 129.081 74.5196C129.241 74.4796 129.361 74.3996 129.521 74.3596C129.601 74.3196 129.641 74.3196 129.721 74.3196C129.561 74.3596 129.721 74.3196 129.761 74.3196C130.081 74.2396 130.441 74.1996 130.761 74.1996C130.881 74.1996 131.361 74.1996 131.641 74.2396C132.041 74.2796 132.401 74.3196 132.801 74.3996C133.561 74.5596 134.321 74.7596 135.041 74.9996C136.641 75.5196 138.201 76.1596 139.761 76.8396C141.201 77.4796 142.641 78.1596 144.081 78.7196C145.801 79.3596 147.601 79.6396 149.441 79.4396C152.241 79.1596 154.961 78.3196 157.441 76.9196L156.081 75.9996C154.521 78.7196 154.401 81.9996 155.681 84.8396C156.361 86.3596 157.281 87.7196 158.401 88.9196C162.161 92.9596 162.961 98.5996 162.201 103.88C161.521 108.48 159.841 112.92 157.841 117C157.361 117.96 156.841 118.84 156.401 119.8C156.081 120.48 155.681 121.12 155.241 121.76C155.121 121.92 154.961 122.12 154.801 122.28C154.721 122.36 154.601 122.48 154.521 122.56L154.401 122.68C154.321 122.76 154.481 122.6 154.361 122.72C154.241 122.84 154.161 122.84 154.081 122.92C154.001 123 153.761 123.08 153.961 123L153.681 123.12L153.521 123.16C153.281 123.24 153.721 123.12 153.481 123.16L153.201 123.2C153.161 123.2 153.121 123.2 153.081 123.2C153.121 123.2 153.281 123.2 153.121 123.2H152.841C152.761 123.2 152.681 123.16 152.601 123.16C152.721 123.2 152.481 123.12 152.441 123.12L152.161 123.04L151.881 122.92C151.721 122.84 151.841 122.92 151.881 122.92L151.681 122.8C151.321 122.6 150.961 122.32 150.641 122.08C150.001 121.52 149.401 120.88 148.881 120.2C148.361 119.56 147.921 118.88 147.481 118.16C147.401 118 147.321 117.88 147.241 117.72L147.081 117.48C146.961 117.28 146.881 117.12 146.761 116.92C146.721 116.84 146.681 116.8 146.641 116.72V117.16C147.081 115.36 147.081 113.52 145.681 112.16C144.201 110.72 142.281 109.8 140.601 108.56C139.121 107.48 137.801 106.24 136.561 104.92C136.001 104.16 134.281 105.16 135.001 105.96Z" fill="#000005"/>
<path d="M166.08 110.84C166.08 110.84 171.48 116.68 174.76 113.84C178.04 111 173.36 109.2 173.36 109.2C173.36 109.2 182.72 105.08 176.96 99.56C176.96 99.56 185.92 97.64 184.8 89.76C183.68 81.88 173 79.72 173 79.72C173 79.72 178.2 72.04 170.84 68.76C163.48 65.48 162.12 71.2 162.12 71.2C162.12 71.2 157.44 69.04 155.64 71.64C153.84 74.24 156.36 77.4 156.36 77.4C156.36 77.4 152.68 85.88 159.28 88.48L158.84 101.76C158.84 101.76 154.6 104 154.44 109C154.28 114 163.2 116.04 166.08 110.84Z" fill="#000005"/>
<path d="M165.601 111.44C167.161 113.12 169.161 114.68 171.361 115.32C172.801 115.84 174.401 115.52 175.521 114.48C176.161 113.96 176.601 113.16 176.721 112.32C176.761 111.52 176.481 110.76 176.001 110.12C175.321 109.28 174.441 108.68 173.441 108.28L173.881 110C176.641 108.8 179.921 106.28 179.641 102.96C179.481 101.4 178.521 100 177.441 98.96L177.321 100.48C180.761 99.72 184.361 97.32 185.361 93.8C186.241 90.8 185.401 87.52 183.561 85.04C182.001 82.92 179.721 81.4 177.321 80.32C175.921 79.64 174.401 79.12 172.881 78.76L173.641 80.44C175.241 78.04 176.241 74.6 175.041 71.84C173.921 69.16 171.241 67.72 168.561 67.04C166.601 66.56 164.481 66.68 162.961 68.08C162.201 68.76 161.681 69.64 161.401 70.6L162.201 70.32C160.721 69.6 159.121 69.32 157.481 69.44C156.241 69.6 155.201 70.32 154.641 71.44C154.001 72.68 154.081 74.16 154.521 75.48C154.841 76.36 155.281 77.2 155.881 77.92L155.601 76.76C154.321 79.72 153.921 83.68 155.721 86.48C156.561 87.76 157.761 88.72 159.161 89.28L158.441 88.04L158.041 99.64L158.001 101.28L158.281 100.76C155.481 102.24 153.601 105.56 153.641 108.72C153.681 112.72 157.921 114.96 161.561 114.68C163.721 114.52 165.641 113.32 166.761 111.48C167.001 111.04 166.921 110.52 166.561 110.16C166.361 109.92 165.721 109.56 165.441 110C163.961 112.64 160.601 113.44 157.921 112.4C157.321 112.2 156.761 111.84 156.281 111.44C156.241 111.4 156.081 111.28 156.241 111.4C156.161 111.32 156.121 111.28 156.041 111.2C155.921 111.08 155.841 110.96 155.761 110.84C155.881 111 155.641 110.64 155.601 110.6C155.561 110.56 155.521 110.44 155.481 110.36C155.561 110.56 155.481 110.32 155.441 110.28C155.201 109.6 155.161 108.88 155.321 108.2C155.441 107.32 155.721 106.48 156.161 105.72C156.801 104.6 157.641 103.64 158.681 102.88C158.881 102.72 159.081 102.64 159.281 102.48C159.521 102.32 159.641 102 159.601 101.72L159.841 95.08L160.081 88.68C160.121 88.16 159.841 87.68 159.361 87.44C158.841 87.24 158.361 86.96 157.881 86.64C157.721 86.52 157.561 86.36 157.401 86.2C157.321 86.12 157.241 86.04 157.161 85.92C157.081 85.8 156.921 85.6 157.001 85.72C156.881 85.52 156.761 85.32 156.641 85.08C156.561 84.92 156.681 85.2 156.641 85.08C156.641 85.04 156.601 85 156.601 84.96C156.561 84.84 156.481 84.68 156.441 84.56C156.321 84.16 156.241 83.76 156.201 83.32C156.161 82.92 156.121 82.48 156.161 82.08C156.161 81.64 156.241 81.2 156.281 80.76C156.401 80.08 156.561 79.4 156.761 78.76C156.881 78.44 156.961 78.08 157.121 77.76C157.241 77.36 157.121 76.92 156.841 76.6L156.761 76.52C156.641 76.36 156.841 76.64 156.801 76.56C156.761 76.48 156.721 76.44 156.681 76.36C156.601 76.2 156.481 76.08 156.441 75.92L156.281 75.68C156.201 75.56 156.201 75.52 156.201 75.48C155.721 74.56 155.681 73.52 156.081 72.56C156.921 70.76 159.081 70.92 160.721 71.32C161.201 71.44 161.641 71.6 162.121 71.8C162.401 71.92 162.841 71.88 162.921 71.52C162.961 71.32 163.041 71.12 163.121 70.96C163.161 70.88 163.201 70.76 163.241 70.68C163.281 70.6 163.281 70.6 163.321 70.56C163.361 70.52 163.241 70.68 163.361 70.52C163.481 70.28 163.641 70.08 163.801 69.88C163.881 69.76 164.001 69.64 164.121 69.56L164.281 69.4L164.401 69.32C164.681 69.12 164.961 68.92 165.281 68.8C166.041 68.48 166.921 68.4 167.721 68.48C169.001 68.64 170.281 69.04 171.441 69.68C171.921 69.92 172.361 70.24 172.761 70.6C172.921 70.76 173.081 70.92 173.201 71.08C173.241 71.12 173.281 71.2 173.321 71.24C173.401 71.32 173.481 71.48 173.521 71.6C173.881 72.24 174.041 72.96 174.041 73.68C174.041 74.48 173.921 75.24 173.681 76C173.441 76.72 173.161 77.4 172.801 78.08L172.721 78.28C172.681 78.4 172.801 78.16 172.721 78.32C172.681 78.4 172.641 78.48 172.561 78.56L172.401 78.8C172.001 79.4 172.521 80.32 173.161 80.48C173.481 80.56 173.761 80.64 174.081 80.72L174.561 80.88C174.681 80.92 174.441 80.84 174.641 80.92L174.961 81.04C175.401 81.2 175.801 81.36 176.241 81.52C176.721 81.72 177.201 81.92 177.681 82.16C178.161 82.4 178.721 82.72 179.081 82.92C179.601 83.24 180.081 83.6 180.561 83.96C181.001 84.32 181.441 84.68 181.841 85.12C182.641 85.96 183.281 86.96 183.681 88.04C184.121 89.32 184.241 90.64 184.001 92C183.601 94.16 182.081 95.88 180.281 97C179.481 97.48 178.601 97.92 177.721 98.24L177.601 98.28L177.361 98.36L177.001 98.48C176.881 98.52 176.801 98.52 176.681 98.56C176.001 98.72 176.161 99.68 176.561 100.08C177.001 100.48 177.401 100.96 177.721 101.48C177.921 101.8 178.041 102.16 178.081 102.56C178.121 103.28 177.921 104.04 177.521 104.64C176.641 106 175.361 106.96 173.961 107.72C173.601 107.92 173.281 108.08 172.921 108.24C172.201 108.56 172.841 109.76 173.361 109.96C173.561 110.04 173.721 110.12 173.921 110.24C174.001 110.28 174.081 110.32 174.161 110.4L174.321 110.52C174.521 110.64 174.721 110.8 174.921 110.96C174.761 110.8 175.001 111.04 175.041 111.12C175.081 111.2 175.121 111.2 175.121 111.24C175.001 111.04 175.201 111.36 175.121 111.24L175.201 111.4C175.081 111.2 175.161 111.32 175.201 111.36C175.241 111.4 175.281 111.6 175.241 111.48C175.201 111.36 175.241 111.68 175.241 111.56C175.241 111.44 175.201 111.84 175.201 111.76C175.161 111.88 175.121 112 175.081 112.12C174.881 112.44 174.641 112.76 174.321 113C172.401 114.68 169.761 112.96 168.161 111.68C167.921 111.48 167.681 111.28 167.481 111.08L167.161 110.8C167.121 110.76 167.041 110.68 167.201 110.84C167.161 110.8 167.121 110.76 167.081 110.72C166.921 110.56 166.761 110.4 166.641 110.28C166.361 109.96 165.841 109.72 165.521 110.12C165.201 110.52 165.361 111.12 165.601 111.44Z" fill="#000005"/>
<path d="M157.32 89.3199C157.32 89.3199 161.56 84.6399 164.68 88.0799C167.8 91.5199 161.68 104.28 155.16 99.6399" fill="white"/>
<path d="M158.12 89.9199L158.2 89.8399C158.24 89.7999 158.44 89.5999 158.36 89.6799C158.28 89.7599 158.4 89.6399 158.44 89.6399L158.6 89.4799C158.76 89.3599 158.92 89.2399 159.04 89.1199C159.72 88.5199 160.52 88.0799 161.4 87.8399C162.24 87.5599 163.16 87.7599 163.8 88.3599C163.92 88.4799 164.04 88.5999 164.16 88.7599C164 88.5599 164.16 88.7199 164.16 88.7999C164.16 88.8799 164.24 88.9599 164.28 89.0399C164.32 89.1199 164.36 89.2799 164.32 89.1199C164.36 89.1999 164.36 89.2799 164.4 89.3599C164.44 89.5199 164.48 89.7199 164.52 89.9199C164.56 90.0799 164.52 89.8399 164.52 90.0399C164.52 90.1199 164.52 90.2399 164.52 90.3199C164.52 90.5199 164.52 90.7199 164.52 90.9199C164.52 91.3199 164.48 91.6799 164.4 92.0799C164.24 92.9999 163.96 93.8799 163.56 94.7199C162.88 96.3999 161.8 97.8399 160.36 98.9199C159.68 99.4399 158.92 99.7199 158.08 99.7999C157.96 99.7999 157.84 99.7999 157.72 99.7999H157.6C157.44 99.7999 157.72 99.7999 157.56 99.7999C157.32 99.7599 157.08 99.7199 156.84 99.6399C156.4 99.4799 156 99.2799 155.64 98.9999C155.28 98.7599 154.68 98.6399 154.36 99.0399C154.12 99.4799 154.24 99.9999 154.68 100.28C156.56 101.6 158.8 101.92 160.88 100.84C162.8 99.8399 164.16 97.9999 165.08 96.1199C165.96 94.3599 166.6 92.2799 166.4 90.2799C166.24 87.8399 164.2 85.9199 161.76 85.9199C159.76 85.9199 157.84 87.2799 156.52 88.6799C155.84 89.5199 157.44 90.7599 158.12 89.9199Z" fill="#000005"/>
<path d="M149.598 83.1202C149.598 83.1202 148.438 82.8802 148.278 84.0002C148.118 85.1202 149.518 85.3202 149.958 84.4002C150.238 84.0002 150.118 83.4802 149.718 83.2002C149.678 83.1602 149.638 83.1202 149.598 83.1202Z" fill="#000005"/>
<path d="M101.478 176.12H42.918L49.918 160.84L101.478 160.6V176.12Z" fill="#68BA7F"/>
<path d="M101 175.52H44.8396C44.0796 175.52 43.3196 175.48 42.5596 175.52H42.4796L43.8796 176.56L49.9996 163.16L50.8396 161.28L50.4396 161.44H55.5596L67.8796 161.4L82.7596 161.32L95.6396 161.28C97.7196 161.28 99.8396 161.36 101.92 161.24H102.04L100.64 160.32V175.8C100.64 176.4 102.48 177.08 102.48 176.44V160.96C102.48 160.44 101.48 160.04 101.08 160.04H95.9596L83.6396 160.08L68.7596 160.16L55.8796 160.2C53.7996 160.2 51.6796 160.2 49.5996 160.24H49.5196C49.3996 160.24 49.1996 160.24 49.1196 160.4L42.9596 173.8L42.1196 175.68C41.8796 176.2 43.1596 176.72 43.5196 176.72H94.8396C97.1996 176.72 99.5996 176.76 101.96 176.72H102.08C102.48 176.72 102.6 176.48 102.36 176.16C101.96 175.8 101.48 175.56 101 175.52Z" fill="#68BA7F"/>
<path d="M48.6787 173.4H95.1588C95.3587 173.4 96.2788 173.44 96.3988 173.2C96.5188 172.96 95.7988 172.96 95.6788 172.96H49.1987C48.9987 172.96 48.0787 172.92 47.9587 173.16C47.8387 173.4 48.5587 173.4 48.6787 173.4Z" fill="white"/>
<path d="M51.5595 169.8H97.3595C97.5595 169.84 97.7595 169.84 97.9995 169.8C98.0395 169.8 98.0395 169.8 98.0795 169.8C97.9595 169.48 97.8395 169.2 97.6795 168.88C97.5995 168.72 97.2795 168.08 97.0795 168.08H51.2395C51.0395 168.04 50.8395 168.04 50.5995 168.08C50.5595 168.08 50.5595 168.08 50.5195 168.08C50.6395 168.4 50.7595 168.68 50.9195 169C51.0395 169.16 51.3595 169.8 51.5595 169.8Z" fill="white"/>
<path d="M52.9614 165H97.5614C98.1614 165.04 98.7614 165.04 99.4014 165H99.4814C99.8014 165 99.4414 164.32 99.3614 164.24C99.2414 164 98.8414 163.36 98.4814 163.36H53.8814C53.2814 163.32 52.6814 163.32 52.0414 163.36H52.0014C51.6814 163.36 52.0414 164.04 52.1214 164.12C52.2414 164.32 52.6414 165 52.9614 165Z" fill="white"/>
<path d="M59.4805 161.04L56.2805 172.56L55.8405 174.16C55.7605 174.64 55.9205 175.12 56.2805 175.48C56.4805 175.72 56.9605 175.92 57.0805 175.48L60.2805 163.96L60.7205 162.36C60.8005 161.88 60.6405 161.4 60.2805 161.04C60.0805 160.84 59.6005 160.6 59.4805 161.04Z" fill="white"/>
<path d="M67.6405 160.88L67.5205 172.52L67.4805 174.16C67.4805 174.64 67.6805 175.08 67.9605 175.44C68.0805 175.6 68.6005 176 68.6005 175.52L68.7205 163.88L68.7605 162.24C68.7605 161.76 68.5605 161.32 68.2805 160.96C68.1605 160.8 67.6405 160.4 67.6405 160.88Z" fill="white"/>
<path d="M76.5181 160.36L77.8781 172.56L78.0781 174.28C78.1981 175.2 79.9181 175.76 79.7981 174.52L78.4381 162.32L78.2381 160.6C78.1181 159.68 76.3581 159.12 76.5181 160.36Z" fill="white"/>
<path d="M128.719 150L101.879 150.2C101.879 150.2 101.879 141.04 113.319 139.72C124.759 138.4 128.719 150 128.719 150Z" fill="#68BA7F"/>
<path d="M128.118 149.24L119.038 149.32L104.598 149.4L101.278 149.44L102.598 150.84C102.638 149.68 102.878 148.52 103.358 147.48C104.358 145.04 106.238 143.08 108.598 141.96C111.958 140.32 116.198 139.84 119.758 141.04C120.478 141.28 121.198 141.6 121.838 141.96C122.118 142.12 122.438 142.32 122.678 142.48C122.838 142.56 122.958 142.68 123.078 142.76L123.318 142.96C123.358 142.96 123.558 143.16 123.438 143.04C123.718 143.28 123.958 143.48 124.238 143.72L124.358 143.84C124.198 143.68 124.398 143.88 124.438 143.92L124.838 144.32C124.958 144.44 125.078 144.6 125.198 144.72L125.358 144.92C125.558 145.16 125.758 145.4 125.918 145.64L126.078 145.84C125.958 145.68 126.158 145.92 126.158 145.96C126.238 146.08 126.318 146.2 126.398 146.36C126.558 146.6 126.718 146.84 126.838 147.12C126.918 147.24 126.958 147.36 127.038 147.48C127.158 147.68 126.958 147.32 127.078 147.52L127.158 147.72C127.278 147.92 127.358 148.12 127.478 148.36C127.638 148.68 127.758 148.96 127.878 149.28C127.918 149.36 127.958 149.44 127.958 149.52C128.038 149.68 127.918 149.36 127.958 149.48C128.118 149.92 128.438 150.28 128.798 150.56C128.918 150.64 129.518 150.96 129.358 150.52C128.838 149.16 128.198 147.84 127.358 146.64C125.638 144.04 123.358 141.72 120.598 140.32C117.038 138.52 112.918 138.48 109.158 139.72C106.238 140.64 103.718 142.48 102.278 145.24C101.558 146.6 101.118 148.08 101.078 149.6C101.078 150.12 101.878 151 102.398 151L111.518 150.92L125.998 150.8L129.318 150.76C129.678 150.76 129.198 150.04 129.118 149.96C128.918 149.72 128.478 149.24 128.118 149.24Z" fill="#68BA7F"/>
<path d="M106.839 145.92C106.999 144.6 107.639 143.4 108.599 142.48C108.839 142.28 109.039 142.08 109.319 141.92L109.399 141.84C109.359 141.88 109.359 141.88 109.399 141.84L109.599 141.72C109.679 141.68 109.759 141.64 109.799 141.6C109.839 141.6 110.039 141.48 109.959 141.52C109.879 141.56 110.079 141.48 110.119 141.44L110.359 141.36H110.319L110.439 141.32L110.679 141.24L110.799 141.2C110.679 141.2 110.679 141.24 110.759 141.2L110.999 141.16L111.159 141.12C111.079 141.12 111.359 141.12 111.359 141.12C111.839 141.12 112.279 140.96 112.639 140.6C112.919 140.24 112.399 140.16 112.159 140.16C108.799 140.32 105.399 142.68 104.959 146.16C104.919 146.56 105.519 146.52 105.759 146.48C105.999 146.44 106.279 146.36 106.479 146.24C106.599 146.2 106.839 146.08 106.839 145.92Z" fill="white"/>
<path d="M121.08 136.32C121.08 136.32 116.56 134.08 114.56 131.4C112.56 128.72 111.24 129.4 111.12 131.8C111 134.2 115.12 137 115.12 137L121.08 136.32Z" fill="white"/>
<path d="M121.921 136C120.161 135.12 118.561 134.08 117.081 132.8C116.561 132.36 116.081 131.88 115.681 131.36C115.241 130.76 114.721 130.2 114.121 129.72C113.121 129.04 111.441 129.08 110.681 130.08C110.081 131 109.961 132.16 110.401 133.16C110.921 134.2 111.641 135.12 112.521 135.88C113.041 136.36 113.601 136.84 114.201 137.24C114.721 137.56 115.561 137.36 116.121 137.28L121.201 136.72C121.401 136.68 122.201 136.56 122.121 136.2C122.041 135.84 121.281 135.96 121.081 135.96L115.081 136.64L116.081 136.76C115.321 136.24 114.641 135.68 114.001 135.04C113.081 134.12 112.041 132.92 112.161 131.52C112.161 131.16 112.241 130.8 112.401 130.44C112.441 130.28 112.521 130.16 112.601 130.04C112.841 129.76 112.881 130.08 112.121 130.08C111.761 130.08 112.001 130.08 112.161 130.16C112.281 130.24 112.441 130.32 112.521 130.4C112.921 130.76 113.321 131.16 113.641 131.6C114.721 132.92 116.001 134.04 117.441 134.92C118.361 135.52 119.281 136.08 120.281 136.6C120.721 136.76 121.201 136.72 121.641 136.52C121.841 136.48 122.321 136.2 121.921 136Z" fill="#000005"/>
<path d="M130.04 140.84C130.04 140.84 122.24 133.6 116.32 134.56C110.4 135.52 105.52 141.08 107.24 141.76C108.96 142.44 112.96 138.84 116.96 139.92C120.96 141 122 142.44 122 142.44C122 142.44 115.36 144.04 116.4 146.16C117.44 148.28 134.88 146.44 134.88 146.44L130.04 140.84Z" fill="white"/>
<path d="M130.998 140.92C129.398 139.44 127.638 138.16 125.758 137.04C122.598 135.16 118.838 133.76 115.118 134.48C113.158 134.88 111.278 135.68 109.638 136.84C108.318 137.68 107.198 138.76 106.318 140.08C106.038 140.44 105.918 140.84 105.918 141.28C105.998 141.76 106.518 141.88 106.958 141.96C107.838 142.16 108.718 142.12 109.598 141.88C110.438 141.64 111.238 141.28 112.038 140.92C113.078 140.44 114.198 140.12 115.318 139.96C116.398 139.84 117.478 140.28 118.478 140.72C119.358 141.08 120.478 141.6 121.078 142.4L121.198 142.28C119.518 142.68 117.678 143.24 116.278 144.28C115.718 144.72 114.998 145.48 115.558 146.2C115.918 146.68 116.758 146.84 117.318 146.96C119.518 147.44 121.878 147.44 124.118 147.4C126.598 147.36 129.038 147.2 131.518 147.04C132.918 146.92 134.278 146.8 135.678 146.68C135.718 146.68 136.078 146.68 135.958 146.52L130.998 140.92C130.798 140.68 130.078 140.68 129.798 140.68C129.718 140.68 128.958 140.68 129.078 140.84L133.958 146.44L134.238 146.28C131.038 146.64 127.798 146.88 124.558 147C123.438 147.04 122.318 147.04 121.198 147.04C120.718 147.04 120.398 147.04 119.838 147L119.518 146.96C119.478 146.96 119.398 146.96 119.358 146.96L118.998 146.92H118.838C118.638 146.92 118.998 146.96 118.838 146.92L118.518 146.88C118.278 146.84 118.558 146.88 118.438 146.88L118.198 146.84H118.238L118.078 146.8C117.878 146.76 117.718 146.68 117.558 146.56C117.038 146.16 117.278 145.4 117.678 145C118.478 144.16 119.718 143.72 120.758 143.36C121.438 143.12 122.118 142.92 122.798 142.76C122.878 142.76 122.998 142.72 122.918 142.64C122.398 142.08 121.798 141.64 121.118 141.32C119.238 140.28 117.118 139.72 114.918 139.64C112.918 139.64 111.118 140.32 109.318 141.04C108.638 141.32 107.958 141.56 107.238 141.76C107.478 141.72 107.158 141.76 107.158 141.76C107.438 141.68 108.198 142.12 107.998 141.88C108.038 141.92 107.918 141.84 107.918 141.8C107.838 141.68 107.798 141.56 107.838 141.4C107.878 140.36 108.998 139.32 109.718 138.64C111.038 137.4 112.558 136.44 114.198 135.72C115.078 135.32 116.038 135.04 116.998 134.88C117.558 134.76 118.158 134.76 118.718 134.88C120.318 135.24 121.838 135.88 123.278 136.72C125.358 137.88 127.318 139.28 129.118 140.92C129.358 141.16 129.998 141.16 130.318 141.16C130.358 141.08 131.158 141.04 130.998 140.92Z" fill="#000005"/>
<path d="M117.641 180.28C117.641 177.16 129.481 102.12 154.561 113.32C179.641 124.52 183.241 181.52 183.241 181.52L117.641 180.28Z" fill="white"/>
<path d="M118.481 180.76C118.521 179.96 118.601 179.2 118.761 178.44C119.001 176.8 119.281 175.12 119.561 173.48C119.961 171.16 120.441 168.84 120.921 166.52C121.521 163.72 122.161 160.92 122.841 158.16C123.601 155.08 124.401 152.04 125.321 149C126.241 145.88 127.241 142.8 128.321 139.72C129.401 136.76 130.561 133.8 131.921 130.96C133.121 128.32 134.521 125.72 136.081 123.28C137.441 121.12 139.041 119.08 140.841 117.28C142.361 115.76 144.121 114.52 146.121 113.68C147.481 113.12 148.961 112.84 150.441 112.92C150.921 112.92 151.361 112.96 151.841 113.08C152.121 113.12 152.361 113.16 152.641 113.24L153.001 113.32L153.201 113.36L153.321 113.4C153.881 113.6 154.441 113.8 154.961 114.04L155.201 114.16L155.321 114.2C155.201 114.16 155.481 114.28 155.321 114.2L155.841 114.44C156.201 114.6 156.521 114.8 156.841 115C157.161 115.2 157.481 115.4 157.841 115.6L157.921 115.64L158.161 115.8C158.321 115.92 158.481 116 158.641 116.12C159.281 116.56 159.881 117.08 160.481 117.56L160.601 117.64C160.601 117.64 160.481 117.52 160.561 117.6L160.761 117.8L161.241 118.24C161.521 118.52 161.801 118.76 162.081 119.04C163.201 120.16 164.241 121.36 165.161 122.6C167.201 125.32 169.001 128.24 170.481 131.28C172.081 134.52 173.481 137.88 174.641 141.28C175.841 144.68 176.841 148.16 177.761 151.68C178.601 154.96 179.321 158.32 179.961 161.64C180.521 164.52 181.001 167.44 181.401 170.32C181.721 172.52 181.961 174.72 182.201 176.92C182.321 178.16 182.441 179.36 182.521 180.6L182.561 180.96C182.561 180.76 182.561 181.04 182.561 180.96L182.881 180.72L176.321 180.6L160.641 180.32L141.721 179.96L125.361 179.64L119.961 179.52C119.121 179.52 118.241 179.44 117.401 179.48H117.281C116.841 179.48 117.001 180 117.161 180.24C117.441 180.64 117.881 180.88 118.361 180.92L124.921 181.04L140.601 181.36L159.521 181.72L175.881 182.04L181.281 182.16C182.121 182.16 183.001 182.24 183.841 182.2H183.961C184.081 182.2 184.281 182.12 184.281 181.96C184.241 181.28 184.161 180.56 184.121 179.88C183.961 178.08 183.761 176.32 183.561 174.52C183.241 171.88 182.881 169.24 182.441 166.64C181.921 163.4 181.281 160.2 180.601 157.04C179.801 153.52 178.921 150.04 177.881 146.64C176.801 143.08 175.561 139.56 174.121 136.12C172.761 132.8 171.121 129.64 169.281 126.56C167.481 123.6 165.361 120.88 162.961 118.44C160.641 116.12 157.921 114.2 154.961 112.8C152.881 111.8 150.601 111.32 148.321 111.48C146.241 111.68 144.241 112.4 142.481 113.56C140.521 114.88 138.761 116.52 137.281 118.4C135.561 120.56 134.041 122.88 132.721 125.32C131.241 128.04 129.921 130.8 128.761 133.68C127.521 136.72 126.401 139.8 125.361 142.92C124.321 146.04 123.401 149.16 122.561 152.28C121.761 155.24 121.001 158.24 120.321 161.24C119.721 163.84 119.161 166.44 118.681 169.08C118.281 171.12 117.921 173.16 117.601 175.2C117.401 176.44 117.201 177.72 117.041 178.96C117.001 179.2 117.001 179.48 116.961 179.72C116.961 180.16 117.361 180.52 117.721 180.72C117.721 180.92 118.481 181.2 118.481 180.76Z" fill="#000005"/>
<path d="M147.72 160.92C147.72 160.92 142.56 174.64 129.88 182.48C117.2 190.32 79.1198 168.28 75.3198 164.84C71.5198 161.4 70.9998 162.08 68.2398 164.16C65.4798 166.24 64.3198 163.76 64.9198 162.12C65.5198 160.48 67.3998 159.4 67.3998 159.4C67.3998 159.4 66.9198 155.96 70.9598 156.08C70.9598 156.08 69.1998 154.68 70.8398 153.6C72.4798 152.52 76.0398 151.96 79.8398 155.48C79.8398 155.48 76.9998 152.28 78.7598 151.12C80.5198 149.96 80.9998 152.68 85.8398 156.2C90.6798 159.72 116.56 166.76 116.56 166.76L124.6 148.32L147.72 160.92Z" fill="white"/>
<path d="M146.799 160.56C146.759 160.68 146.879 160.36 146.799 160.48C146.719 160.6 146.719 160.68 146.679 160.76C146.519 161.12 146.399 161.44 146.239 161.76C145.679 162.96 145.079 164.16 144.439 165.32C142.319 169.12 139.759 172.6 136.719 175.68C134.839 177.6 132.799 179.32 130.599 180.84C129.199 181.8 128.079 182.48 126.479 182.88C123.639 183.64 120.479 183.4 117.559 182.92C113.839 182.28 110.239 181.32 106.679 180.04C102.839 178.68 99.0793 177.12 95.3993 175.4C93.6393 174.56 91.8793 173.72 90.1193 172.84C89.2393 172.4 88.6393 172.08 87.7993 171.64C87.0393 171.24 86.2793 170.84 85.5193 170.4C83.0393 169.04 80.5993 167.64 78.2393 166.12C77.5193 165.64 76.8393 165.16 76.1593 164.68C76.4793 164.92 76.1193 164.64 75.9993 164.56C75.7193 164.32 75.4393 164.04 75.1593 163.8C74.2793 163.04 73.3193 162.2 72.1993 161.84C71.3593 161.52 70.4393 161.6 69.6393 162C68.7593 162.44 68.0393 163.12 67.2393 163.68C66.9993 163.84 66.7193 164 66.4393 164.08C66.2793 164.12 66.1193 164.16 65.9193 164.16C65.7993 164.16 65.9193 164.16 65.9593 164.16C65.7993 164.16 65.8793 164.16 65.9593 164.16C65.9593 164.16 65.7993 164.08 65.9193 164.16C66.0393 164.24 65.9193 164.16 65.8793 164.12C65.9593 164.28 65.8393 164.08 65.8393 164.04C65.8793 164.12 65.7593 163.88 65.7593 163.84C65.4793 163 65.9593 162.04 66.5193 161.36C66.9593 160.84 67.5193 160.4 68.1193 160.04C68.2793 159.92 68.3593 159.76 68.3193 159.56C68.3193 159.52 68.3193 159.48 68.3193 159.44C68.3193 159.4 68.3193 159.36 68.3193 159.28C68.3193 159.48 68.3193 159.32 68.3193 159.24C68.3193 159.08 68.3593 158.88 68.3993 158.72C68.3993 158.64 68.4393 158.52 68.4793 158.44C68.4793 158.4 68.5193 158.32 68.5193 158.28C68.5593 158.16 68.5193 158.28 68.5593 158.24C69.0393 157.12 70.1593 156.8 71.3593 156.84C72.0793 156.84 71.9993 156.04 71.5993 155.68C71.5593 155.64 71.4793 155.6 71.4393 155.56C71.3993 155.52 71.2393 155.36 71.3993 155.52C71.3593 155.44 71.2793 155.4 71.2393 155.32C71.1593 155.24 71.1193 155.12 71.1193 155.04C71.1193 154.88 71.1593 154.76 71.2393 154.64C71.6393 154.04 72.6393 153.8 73.3193 153.64C75.5993 153.24 77.7193 154.4 79.3193 155.88C79.6393 156.2 80.0793 156.32 80.5193 156.2C80.7993 156.04 80.8793 155.68 80.7193 155.4C80.6793 155.36 80.6393 155.32 80.5993 155.28C80.2393 154.88 79.9193 154.44 79.6793 154C79.5193 153.68 79.3593 153.36 79.2393 153.04C79.1193 152.72 79.1193 152.4 79.2393 152.12C79.3193 152 79.3993 151.88 79.5593 151.8C79.6393 151.76 79.6793 151.72 79.7593 151.68L79.8393 151.64C79.8793 151.64 80.0793 151.6 79.9593 151.6C79.8393 151.6 79.9993 151.6 80.0393 151.6C79.8393 151.6 80.0793 151.6 80.0393 151.6C79.8793 151.56 79.9193 151.6 80.0393 151.6C79.7193 151.48 80.2793 151.8 79.9993 151.6C80.1193 151.72 80.2393 151.8 80.3593 151.92C80.6793 152.2 80.9193 152.52 81.2393 152.8C82.7593 154.4 84.3593 156 86.2793 157.12C87.4393 157.8 88.6393 158.36 89.8793 158.88C93.2793 160.28 96.7593 161.44 100.279 162.56C103.879 163.72 107.479 164.8 111.079 165.84C112.959 166.4 114.839 167 116.719 167.44H116.799C116.999 167.48 117.399 167.48 117.519 167.24L120.239 161L124.559 151.08L125.559 148.8H124.359L132.159 153.04L144.559 159.84L147.439 161.4C147.799 161.6 148.359 161.8 148.639 161.4C148.919 161 148.479 160.48 148.159 160.32L140.359 156.08L127.959 149.28L125.079 147.72C124.799 147.56 124.079 147.28 123.879 147.72L121.119 153.96L116.799 163.88L115.799 166.16L116.519 165.96C114.879 165.52 113.279 165.08 111.639 164.6C107.999 163.56 104.519 162.52 100.959 161.4C97.3193 160.24 93.7193 159.04 90.1993 157.6C89.5193 157.32 88.8393 157.04 88.1993 156.72L87.7993 156.52L87.5993 156.4C87.3993 156.28 87.7593 156.48 87.5593 156.36C87.3593 156.24 87.0793 156.12 86.8793 155.96C84.9993 154.84 83.4793 153.2 81.9993 151.64C80.9993 150.6 79.4793 149.32 78.0393 150.44C76.4393 151.68 77.9193 154.04 78.8393 155.24C78.9193 155.36 79.0393 155.52 79.1593 155.64L80.4393 155.04C78.1993 152.96 75.1193 151.44 71.9993 152.12C71.0393 152.32 69.6393 152.84 69.3193 153.88C69.0393 154.8 69.7193 155.84 70.4393 156.4L70.6793 155.24C69.2393 155.2 67.5993 155.64 66.9193 157.04C66.5993 157.68 66.4793 158.4 66.5593 159.12L66.7593 158.64C65.1993 159.52 63.6793 161.24 63.9593 163.16C64.1193 164.28 64.8793 165.2 65.9593 165.52C67.2793 165.92 68.3993 165.2 69.4393 164.44C70.1193 163.96 70.7993 163.32 71.5593 163.16C71.7193 163.12 71.5593 163.16 71.6793 163.16C71.7993 163.16 71.8393 163.16 71.9193 163.16C71.7593 163.16 71.9593 163.16 72.0393 163.2C72.2393 163.24 72.0393 163.16 72.1593 163.24C72.3193 163.28 72.4793 163.36 72.6393 163.48C72.8793 163.64 73.1193 163.8 73.3593 163.96C74.3193 164.68 75.1593 165.52 76.1593 166.24C78.1593 167.64 80.2793 168.88 82.3993 170.12C85.5993 171.96 88.8393 173.68 92.1193 175.28C95.8393 177.12 99.6393 178.8 103.519 180.28C107.319 181.8 111.199 183 115.199 183.92C118.519 184.64 121.999 185.16 125.359 184.76C126.759 184.64 128.159 184.28 129.439 183.72C131.559 182.76 133.479 181.24 135.239 179.76C138.959 176.6 142.159 172.92 144.719 168.8C146.159 166.56 147.439 164.2 148.479 161.72C148.559 161.56 148.599 161.4 148.679 161.2C148.839 160.76 148.239 160.28 147.879 160.16C147.439 160.08 146.959 160.08 146.799 160.56Z" fill="#000005"/>
<path d="M74.5612 158.88C73.7212 158.44 72.8412 158.16 71.9212 158C70.1612 157.68 68.2412 157.8 66.7212 158.84C66.4412 159 66.3212 159.36 66.5212 159.64C66.5612 159.72 66.6412 159.76 66.6812 159.84C67.0812 160.16 67.6412 160.16 68.0812 159.92C68.3612 159.72 68.6412 159.56 69.0012 159.44L69.2812 159.36C69.1212 159.4 69.4012 159.36 69.4012 159.32C69.5612 159.28 69.7612 159.24 69.9212 159.24C69.9612 159.24 70.2412 159.24 70.0012 159.24H70.2812C70.4412 159.24 70.6012 159.24 70.7612 159.28C70.8412 159.28 70.9212 159.28 71.0012 159.32H71.1212H71.0812C71.2412 159.36 71.4012 159.36 71.5612 159.4C71.8412 159.48 72.1212 159.52 72.4012 159.6L72.6012 159.68C72.4012 159.6 72.8012 159.76 72.6012 159.68L72.9212 159.8C73.1212 159.88 73.3212 159.96 73.5212 160.08C73.9612 160.32 74.5212 160.24 74.8812 159.88C75.2012 159.52 74.9212 159.08 74.5612 158.88Z" fill="#000005"/>
<path d="M77.6408 157.24C76.9608 156.8 76.2808 156.4 75.5208 156.08C74.0408 155.4 72.4408 155.04 70.8408 155.08C70.3608 155.08 69.8808 155.28 69.5608 155.64C69.3208 155.92 69.4008 156.24 69.8008 156.2C71.9608 156.08 74.2008 156.96 75.9608 158.2C76.3208 158.44 76.9208 158.16 77.2008 158C77.3608 157.92 77.9608 157.48 77.6408 157.24Z" fill="#000005"/>
<path d="M145.481 168.76C150.001 170.92 154.921 171.8 159.881 172.12C162.321 172.28 164.761 172.36 167.201 172.4C169.561 172.48 171.921 172.32 174.281 172C176.841 171.64 179.281 170.76 181.481 169.44C181.681 169.32 180.361 167.92 179.881 168.2C176.001 170.64 171.281 171.08 166.801 171.12C162.121 171.12 157.321 171 152.721 170.16C150.041 169.72 147.441 168.92 145.001 167.76C144.801 167.68 144.361 167.48 144.481 167.84C144.601 168.2 145.161 168.6 145.481 168.76Z" fill="#000005"/>
<path d="M154.64 127.72C156.88 127.84 159.16 127.44 161.24 126.6C163.24 125.84 165.04 124.64 166.44 123.04C166.56 122.92 165.76 123.08 165.72 123.08C165.4 123.16 164.8 123.28 164.56 123.52C163.52 124.76 162.2 125.76 160.72 126.44C159.36 127 157.92 127.24 156.44 127.08C156.04 127.08 155.6 127.2 155.24 127.36C155.04 127.4 154.84 127.48 154.68 127.6C154.72 127.6 154.52 127.72 154.64 127.72Z" fill="#000005"/>
<path d="M138.041 120.88C140.601 120.12 143.321 120.16 145.881 120.92C148.481 121.72 150.761 123.2 152.561 125.2C153.721 126.48 154.881 127.68 156.441 128.44C156.841 128.64 157.321 128.44 157.481 128.04C157.481 128 157.521 127.96 157.521 127.92C157.601 127.4 157.321 126.92 156.801 126.72C155.521 126.12 154.601 124.96 153.641 123.92C152.641 122.8 151.481 121.84 150.241 121C147.761 119.44 144.881 118.56 141.921 118.48C140.241 118.44 138.561 118.68 136.961 119.16C136.481 119.32 136.441 120 136.641 120.4C137.041 120.84 137.561 121.04 138.041 120.88Z" fill="#000005"/>
<path d="M131.961 131.68C134.921 130.6 138.161 130.96 141.001 132.16C143.841 133.36 146.161 135.44 148.041 137.84C148.961 139.08 149.801 140.36 150.561 141.72C150.921 142.44 151.401 143.08 151.961 143.6C152.601 144.16 153.401 144.52 154.241 144.68C157.481 145.44 160.841 144.84 163.881 143.6C167.361 142.16 170.481 139.96 173.521 137.72C174.561 136.96 173.361 135.6 172.361 136.36C167.521 139.96 161.441 144.36 155.081 142.96C154.361 142.84 153.681 142.52 153.161 142C152.681 141.4 152.281 140.76 151.961 140.08C151.201 138.72 150.281 137.4 149.321 136.2C147.361 133.72 144.841 131.76 141.961 130.48C138.601 129 134.801 128.84 131.321 130.04C130.841 130.16 130.561 130.68 130.721 131.16C130.841 131.64 131.361 131.92 131.841 131.76C131.841 131.72 131.921 131.68 131.961 131.68Z" fill="#000005"/>
<path d="M126.638 142.72C134.438 141.96 142.358 145.36 147.518 151.16C148.958 152.76 150.118 154.6 151.598 156.16C153.078 157.64 154.838 158.8 156.798 159.52C158.798 160.24 160.918 160.68 163.038 160.84C164.998 161.04 166.998 161.08 168.958 160.96C172.878 160.68 177.238 159.56 179.558 156.08C179.798 155.72 177.918 155.44 177.638 155.88C175.718 158.8 172.238 160 168.878 160.28C167.078 160.44 165.278 160.4 163.478 160.2C161.478 160.04 159.518 159.6 157.678 158.84C155.758 158.04 154.078 156.76 152.758 155.16C151.398 153.56 150.238 151.8 148.798 150.28C146.118 147.48 142.838 145.28 139.238 143.88C135.078 142.24 130.558 141.6 126.118 142C125.918 142 125.278 142.08 125.398 142.4C125.518 142.72 126.438 142.72 126.638 142.72Z" fill="#000005"/>
</svg>
