<svg width="300" height="300" viewBox="0 0 300 300" fill="none" xmlns="http://www.w3.org/2000/svg">
<path d="M35.4006 162.42H148.321C153.181 162.42 157.081 166.32 157.081 171.18V260.82C157.081 265.68 153.181 269.58 148.321 269.58H35.4006C30.5406 269.58 26.6406 265.68 26.6406 260.82V171.18C26.6406 166.32 30.5406 162.42 35.4006 162.42Z" fill="#68BA7F"/>
<path d="M147.66 268.44H36.36C34.14 268.44 32.04 268.38 30.18 266.94C28.62 265.56 27.72 263.52 27.84 261.42V174.42C27.84 172.56 27.72 170.76 28.38 168.96C29.64 165.78 32.64 163.68 36.06 163.56H148.8C150.6 163.5 152.4 164.1 153.78 165.24C155.22 166.62 156 168.6 155.94 170.58C155.94 172.14 155.94 173.64 155.94 175.2V259.74C155.94 260.82 155.82 261.9 155.46 262.92C154.2 266.16 151.14 268.32 147.66 268.44C146.28 268.44 147.96 270.84 148.92 270.84C152.52 270.84 155.82 268.74 157.38 265.5C157.98 264.12 158.28 262.68 158.22 261.18V176.16C158.22 174.72 158.22 173.28 158.22 171.9C158.16 166.26 153.24 161.28 147.6 161.22C146.4 161.22 145.2 161.22 144 161.22H35.4C35.04 161.22 34.68 161.22 34.32 161.22C30.72 161.34 27.54 163.56 26.1 166.92C25.32 168.84 25.38 170.94 25.38 172.98V258.9C25.38 259.32 25.38 259.74 25.38 260.16C25.44 263.22 26.82 266.04 29.1 268.08C31.02 269.82 33.48 270.78 36.06 270.84C36.48 270.84 36.84 270.84 37.26 270.84H148.92C150.3 270.78 148.68 268.44 147.66 268.44Z" fill="#68BA7F"/>
<path d="M149.279 260.4H146.039V259.08H149.279V260.4ZM142.739 260.4H139.499V259.08H142.799L142.739 260.4ZM136.259 260.4H133.019V259.08H136.259V260.4ZM129.719 260.4H126.479V259.08H129.719V260.4ZM123.179 260.4H119.939V259.08H123.179V260.4ZM116.639 260.4H113.399V259.08H116.639V260.4ZM110.099 260.4H106.859V259.08H110.099V260.4ZM103.619 260.4H100.379V259.08H103.619V260.4ZM97.0791 260.4H93.8391V259.08H97.0791V260.4ZM90.5391 260.4H87.2991V259.08H90.5391V260.4ZM83.9991 260.4H80.7591V259.08H83.9991V260.4ZM77.4591 260.4H74.2191V259.08H77.4591V260.4ZM70.9191 260.4H67.6791V259.08H70.9191V260.4ZM64.4391 260.4H61.1991V259.08H64.4391V260.4ZM57.8991 260.4H54.6591V259.08H57.8991V260.4ZM51.3591 260.4H48.1191V259.08H51.3591V260.4ZM44.8191 260.4H42.8991C42.4191 260.4 41.9391 260.34 41.4591 260.28L41.6991 259.02C42.1191 259.08 42.4791 259.14 42.8991 259.14H44.8191V260.4ZM38.2191 258.9C37.2591 258.18 36.4791 257.28 35.9391 256.2L37.0791 255.6C37.5591 256.5 38.2191 257.22 38.9991 257.82L38.2191 258.9ZM35.0391 252.78V249.48H36.3591V252.72L35.0391 252.78ZM36.3591 246.24H35.0391V243H36.3591V246.24ZM36.3591 239.7H35.0391V236.46H36.3591V239.7ZM36.3591 233.16H35.0391V229.92H36.3591V233.16ZM36.3591 226.68H35.0391V223.44H36.3591V226.68ZM36.3591 220.14H35.0391V216.9H36.3591V220.14ZM36.3591 213.6H35.0391V210.36H36.3591V213.6ZM36.3591 207.06H35.0391V203.76H36.3591V207.06ZM36.3591 200.52H35.0391V197.28H36.3591V200.52ZM36.3591 193.98H35.0391V190.74H36.3591V193.98ZM36.3591 187.5H35.0391V184.2H36.3591V187.5ZM36.3591 180.96H35.0391V179.82C35.0391 179.04 35.1591 178.26 35.3991 177.54L36.6591 177.9C36.4791 178.5 36.3591 179.16 36.3591 179.82V180.96ZM38.0991 175.38L37.1391 174.48C37.9791 173.58 38.9391 172.92 40.0791 172.5L40.5591 173.7C39.5991 174.06 38.7591 174.6 38.0991 175.38ZM149.279 173.28H147.959V171.96H149.279V173.28ZM144.719 173.28H141.419V171.96H144.659L144.719 173.28ZM138.179 173.28H134.939V171.96H138.179V173.28ZM131.639 173.28H128.399V171.96H131.639V173.28ZM125.099 173.28H121.859V171.96H125.099V173.28ZM118.559 173.28H115.319V171.96H118.559V173.28ZM112.019 173.28H108.779V171.96H112.019V173.28ZM105.539 173.28H102.299V171.96H105.539V173.28ZM98.9991 173.28H95.7591V171.96H99.0591L98.9991 173.28ZM92.4591 173.28H89.2191V171.96H92.4591V173.28ZM85.9191 173.28H82.6791V171.96H85.9191V173.28ZM79.3791 173.28H76.1391V171.96H79.3791V173.28ZM72.8991 173.28H69.5991V171.96H72.8391L72.8991 173.28ZM66.3591 173.28H63.1191V171.96H66.3591V173.28ZM59.8191 173.28H56.5191V171.96H59.7591L59.8191 173.28ZM53.2791 173.28H49.9791V171.96H53.2791V173.28ZM46.7391 173.28H43.4391V171.96H46.6791L46.7391 173.28Z" fill="white"/>
<path d="M149.16 260.039H145.92L146.34 260.459V259.199L146.1 259.499H149.34L148.92 259.079V260.399C148.92 260.579 149.1 260.759 149.28 260.819C149.46 260.879 149.58 260.699 149.58 260.519V259.199C149.58 258.959 149.4 258.779 149.16 258.779H145.92C145.74 258.779 145.68 258.959 145.68 259.079V260.399C145.68 260.639 145.86 260.819 146.1 260.819H149.34C149.52 260.819 149.58 260.519 149.52 260.399C149.58 260.219 149.4 260.039 149.16 260.039Z" fill="white"/>
<path d="M142.679 260.039H139.439L139.859 260.459V259.199L139.619 259.499H142.859L142.439 259.079V260.399C142.439 260.579 142.619 260.759 142.799 260.819C142.979 260.879 143.099 260.699 143.099 260.519V259.199C143.099 258.959 142.919 258.779 142.679 258.779H139.439C139.259 258.779 139.199 258.959 139.199 259.079V260.399C139.199 260.639 139.379 260.819 139.619 260.819H142.859C143.039 260.819 143.099 260.519 143.039 260.399C143.039 260.219 142.859 260.039 142.679 260.039Z" fill="white"/>
<path d="M136.14 260.039H132.9L133.32 260.459V259.199L133.08 259.499H136.32L135.9 259.079V260.399C135.9 260.579 136.08 260.759 136.26 260.819C136.44 260.879 136.56 260.699 136.56 260.519V259.199C136.56 258.959 136.38 258.779 136.14 258.779H132.9C132.72 258.779 132.66 258.959 132.66 259.079V260.399C132.66 260.639 132.84 260.819 133.08 260.819H136.32C136.5 260.819 136.56 260.519 136.5 260.399C136.5 260.219 136.32 260.039 136.14 260.039Z" fill="white"/>
<path d="M129.601 260.039H126.361L126.781 260.459V259.199L126.541 259.499H129.781L129.361 259.079V260.399C129.361 260.579 129.541 260.759 129.721 260.819C129.961 260.879 130.021 260.699 130.021 260.519V259.199C130.021 258.959 129.841 258.779 129.601 258.779H126.361C126.181 258.779 126.121 258.959 126.121 259.079V260.399C126.121 260.639 126.301 260.819 126.541 260.819H129.781C129.961 260.819 130.021 260.519 129.961 260.399C129.961 260.219 129.841 260.039 129.601 260.039Z" fill="white"/>
<path d="M123.058 260.039H119.818L120.238 260.459V259.199L119.998 259.499H123.238L122.818 259.079V260.399C122.818 260.579 122.998 260.759 123.178 260.819C123.418 260.879 123.478 260.699 123.478 260.519V259.199C123.478 258.959 123.298 258.779 123.058 258.779H119.818C119.638 258.779 119.578 258.959 119.578 259.079V260.399C119.578 260.639 119.758 260.819 119.998 260.819H123.238C123.418 260.819 123.478 260.519 123.418 260.399C123.418 260.219 123.298 260.039 123.058 260.039Z" fill="white"/>
<path d="M116.519 260.039H113.279L113.699 260.459V259.199L113.459 259.499H116.699L116.279 259.079V260.399C116.279 260.579 116.459 260.759 116.639 260.819C116.879 260.879 116.939 260.699 116.939 260.519V259.199C116.939 258.959 116.759 258.779 116.519 258.779H113.279C113.099 258.779 113.039 258.959 113.039 259.079V260.399C113.039 260.639 113.219 260.819 113.459 260.819H116.699C116.879 260.819 116.939 260.519 116.879 260.399C116.939 260.219 116.759 260.039 116.519 260.039Z" fill="white"/>
<path d="M110.039 260.039H106.799L107.219 260.459V259.199L106.979 259.499H110.219L109.799 259.079V260.399C109.799 260.579 109.979 260.759 110.159 260.819C110.399 260.879 110.459 260.699 110.459 260.519V259.199C110.459 258.959 110.279 258.779 110.039 258.779H106.799C106.619 258.779 106.559 258.959 106.559 259.079V260.399C106.559 260.639 106.739 260.819 106.979 260.819H110.219C110.399 260.819 110.459 260.519 110.399 260.399C110.399 260.219 110.219 260.039 110.039 260.039Z" fill="white"/>
<path d="M103.501 260.039H100.201L100.621 260.459V259.199L100.381 259.499H103.621L103.201 259.079V260.399C103.201 260.579 103.381 260.759 103.561 260.819C103.741 260.879 103.861 260.699 103.861 260.519V259.199C103.861 258.959 103.681 258.779 103.441 258.779H100.201C100.021 258.779 99.9609 258.959 99.9609 259.079V260.399C99.9609 260.639 100.141 260.819 100.381 260.819H103.621C103.801 260.819 103.861 260.519 103.801 260.399C103.861 260.219 103.681 260.039 103.501 260.039Z" fill="white"/>
<path d="M96.9591 260.039H93.7191L94.1391 260.459V259.199L93.8991 259.499H97.1991L96.7791 259.079V260.399C96.7791 260.579 96.9591 260.759 97.1391 260.819C97.3191 260.879 97.4391 260.699 97.4391 260.519V259.199C97.4391 258.959 97.2591 258.779 97.0191 258.779H93.7791C93.5991 258.779 93.5391 258.959 93.5391 259.079V260.399C93.5391 260.639 93.7191 260.819 93.9591 260.819H97.1991C97.3791 260.819 97.4391 260.519 97.3791 260.399C97.3791 260.219 97.1991 260.039 96.9591 260.039Z" fill="white"/>
<path d="M90.4214 260.039H87.1814L87.6014 260.459V259.199L87.3614 259.499H90.6014L90.1814 259.079V260.399C90.1814 260.579 90.3614 260.759 90.5414 260.819C90.7814 260.879 90.8414 260.699 90.8414 260.519V259.199C90.8414 258.959 90.6614 258.779 90.4214 258.779H87.1814C87.0014 258.779 86.9414 258.959 86.9414 259.079V260.399C86.9414 260.639 87.1214 260.819 87.3614 260.819H90.6014C90.7814 260.819 90.8414 260.519 90.7814 260.399C90.7814 260.219 90.6614 260.039 90.4214 260.039Z" fill="white"/>
<path d="M83.8784 260.039H80.6384L81.0584 260.459V259.199L80.8184 259.499H84.0584L83.6384 259.079V260.399C83.6384 260.579 83.8184 260.759 83.9984 260.819C84.2384 260.879 84.2984 260.699 84.2984 260.519V259.199C84.2984 258.959 84.1184 258.779 83.8784 258.779H80.6384C80.4584 258.779 80.3984 258.959 80.3984 259.079V260.399C80.3984 260.639 80.5784 260.819 80.8184 260.819H84.0584C84.2384 260.819 84.2984 260.519 84.2384 260.399C84.2984 260.219 84.1184 260.039 83.8784 260.039Z" fill="white"/>
<path d="M77.3405 260.039H74.1005L74.5205 260.459V259.199L74.3405 259.499H77.5805L77.1605 259.079V260.399C77.1605 260.579 77.3405 260.759 77.5205 260.819C77.7605 260.879 77.8205 260.699 77.8205 260.519V259.199C77.8205 258.959 77.6405 258.779 77.4005 258.779H74.1605C73.9805 258.779 73.9805 258.959 73.9805 259.079V260.399C73.9805 260.639 74.1605 260.819 74.4005 260.819H77.6405C77.8205 260.819 77.8805 260.519 77.8205 260.399C77.7605 260.219 77.5805 260.039 77.3405 260.039Z" fill="white"/>
<path d="M70.86 260.039H67.62L68.04 260.459V259.199L67.86 259.499H71.1L70.68 259.079V260.399C70.68 260.579 70.86 260.759 71.04 260.819C71.22 260.879 71.34 260.699 71.34 260.519V259.199C71.34 258.959 71.16 258.779 70.92 258.779H67.68C67.5 258.779 67.5 258.959 67.5 259.079V260.399C67.5 260.639 67.68 260.819 67.92 260.819H71.16C71.34 260.819 71.4 260.519 71.34 260.399C71.22 260.219 71.04 260.039 70.86 260.039Z" fill="white"/>
<path d="M64.3184 260.039H61.0784L61.4984 260.459V259.199L61.3184 259.499H64.5584L64.1384 259.079V260.399C64.1384 260.579 64.3184 260.759 64.4984 260.819C64.6784 260.879 64.7984 260.699 64.7984 260.519V259.199C64.7984 258.959 64.6184 258.779 64.3784 258.779H61.1384C60.9584 258.779 60.8984 258.959 60.8984 259.079V260.399C60.8984 260.639 61.0784 260.819 61.3184 260.819H64.5584C64.7384 260.819 64.7984 260.519 64.7384 260.399C64.6784 260.219 64.4984 260.039 64.3184 260.039Z" fill="white"/>
<path d="M57.7808 260.039H54.5408L54.9608 260.459V259.199L54.7208 259.499H57.9608L57.5408 259.079V260.399C57.5408 260.579 57.7208 260.759 57.9008 260.819C58.0808 260.879 58.2008 260.699 58.2008 260.519V259.199C58.2008 258.959 58.0208 258.779 57.7808 258.779H54.5408C54.3608 258.779 54.3008 258.959 54.3008 259.079V260.399C54.3008 260.639 54.4808 260.819 54.7208 260.819H57.9608C58.1408 260.819 58.2008 260.519 58.1408 260.399C58.1408 260.219 57.9608 260.039 57.7808 260.039Z" fill="white"/>
<path d="M51.2403 260.039H48.0003L48.4203 260.459V259.199L48.1803 259.499H51.4203L51.0003 259.079V260.399C51.0003 260.579 51.1803 260.759 51.3603 260.819C51.5403 260.879 51.6603 260.699 51.6603 260.519V259.199C51.6603 258.959 51.4803 258.779 51.2403 258.779H48.0003C47.8203 258.779 47.8203 258.959 47.8203 259.079V260.399C47.8203 260.639 48.0003 260.819 48.2403 260.819H51.4803C51.6603 260.819 51.7203 260.519 51.6603 260.399C51.6603 260.219 51.4803 260.039 51.2403 260.039Z" fill="white"/>
<path d="M44.7001 260.04C43.6201 260.1 42.4801 260.04 41.4001 259.92L41.7601 260.46L42.0001 259.2L41.7001 259.44C42.7801 259.56 43.8601 259.62 44.9401 259.56L44.5201 259.14V260.46C44.5201 260.64 44.7001 260.82 44.8801 260.88C45.0601 260.94 45.1801 260.76 45.1801 260.58V259.2C45.1801 258.96 45.0001 258.78 44.7601 258.78C43.7401 258.84 42.7201 258.78 41.7001 258.66C41.5801 258.66 41.4601 258.72 41.4001 258.84L41.1601 260.1C41.1001 260.34 41.2801 260.58 41.5201 260.64C42.6601 260.82 43.8001 260.82 45.0001 260.76C45.1801 260.76 45.2401 260.46 45.1801 260.34C45.0601 260.22 44.9401 260.04 44.7001 260.04Z" fill="white"/>
<path d="M38.3381 258.599C37.4381 257.939 36.7181 257.099 36.1781 256.079L36.1181 256.559L37.2581 255.959L36.7781 255.719C37.2581 256.679 37.9781 257.459 38.8181 258.119L38.6981 257.519L37.9181 258.539C37.7981 258.719 37.8581 258.959 37.9781 259.079C38.0981 259.199 38.3381 259.319 38.4581 259.139L39.2381 258.059C39.3581 257.879 39.2981 257.579 39.1181 257.459C38.3981 256.919 37.7381 256.199 37.3181 255.359C37.2581 255.239 37.0181 255.059 36.8381 255.119L35.6981 255.719C35.5181 255.779 35.5781 256.079 35.6381 256.199C36.2381 257.339 37.0181 258.299 38.0381 259.019C38.1581 259.139 38.3981 259.139 38.4581 258.959C38.5781 258.959 38.5181 258.719 38.3381 258.599Z" fill="white"/>
<path d="M35.3413 252.84C35.3413 251.88 35.3413 250.92 35.3413 250.02V249.6L35.1612 249.9H36.4812L36.0612 249.42V252.66L36.2413 252.36L34.9212 252.42C34.7412 252.42 34.6813 252.72 34.7413 252.84C34.8013 253.02 34.9812 253.2 35.1612 253.2L36.4812 253.14C36.6612 253.14 36.7212 252.96 36.6612 252.84V249.6C36.6612 249.36 36.4813 249.18 36.2413 249.12H34.9212C34.7412 249.12 34.7413 249.3 34.7413 249.42V252.72C34.7413 252.96 34.9212 253.08 35.1012 253.14C35.2812 253.2 35.3413 253.02 35.3413 252.84Z" fill="white"/>
<path d="M36.2408 245.88H34.9208L35.3408 246.36V243.12L35.1608 243.42H36.4808L36.0608 242.94V246.18C36.0608 246.42 36.2408 246.6 36.4208 246.6C36.6008 246.66 36.7208 246.48 36.7208 246.3V243.06C36.7208 242.82 36.5408 242.64 36.3008 242.58H34.9808C34.8008 242.58 34.8008 242.76 34.8008 242.88V246.12C34.8008 246.36 34.9808 246.54 35.2208 246.6H36.5408C36.7208 246.6 36.7808 246.3 36.7208 246.18C36.6008 246 36.4208 245.88 36.2408 245.88Z" fill="white"/>
<path d="M36.2383 239.34H34.9183L35.3383 239.76V236.52L35.1583 236.82H36.4783L35.9983 236.4V239.64C35.9983 239.82 36.1783 240 36.3583 240.06C36.5383 240.12 36.6583 239.94 36.6583 239.76V236.52C36.6583 236.28 36.4783 236.1 36.2383 236.1H34.9183C34.7383 236.1 34.7383 236.28 34.7383 236.4V239.64C34.7383 239.88 34.9183 240.06 35.1583 240.06H36.4783C36.6583 240.06 36.7183 239.76 36.6583 239.64C36.5983 239.46 36.4183 239.34 36.2383 239.34Z" fill="white"/>
<path d="M36.2383 232.8H34.9183L35.3383 233.22V229.98L35.1583 230.28H36.4783L35.9983 229.86V233.1C35.9983 233.28 36.1783 233.46 36.3583 233.52C36.5383 233.58 36.6583 233.4 36.6583 233.22V229.98C36.6583 229.74 36.4783 229.56 36.2383 229.56H34.9183C34.7383 229.56 34.7383 229.74 34.7383 229.86V233.1C34.7383 233.34 34.9183 233.52 35.1583 233.52H36.4783C36.6583 233.52 36.7183 233.22 36.6583 233.1C36.5983 232.98 36.4183 232.8 36.2383 232.8Z" fill="white"/>
<path d="M36.2408 226.26H34.9208L35.3408 226.68V223.44L35.1608 223.74H36.4808L36.0608 223.32V226.56C36.0608 226.74 36.2408 226.92 36.4208 226.98C36.6008 227.04 36.7208 226.86 36.7208 226.68V223.44C36.7208 223.2 36.5408 223.02 36.3008 223.02H34.9808C34.8008 223.02 34.8008 223.2 34.8008 223.32V226.56C34.8008 226.8 34.9808 226.98 35.2208 226.98H36.5408C36.7208 226.98 36.7808 226.68 36.7208 226.56C36.6008 226.44 36.4208 226.26 36.2408 226.26Z" fill="white"/>
<path d="M36.2408 219.72H34.9208L35.3408 220.139V216.899L35.1608 217.199H36.4808L36.0608 216.779V220.02C36.0608 220.2 36.2408 220.379 36.4208 220.439C36.6008 220.499 36.7208 220.319 36.7208 220.139V216.899C36.7208 216.659 36.5408 216.479 36.3008 216.479H34.9808C34.8008 216.479 34.8008 216.659 34.8008 216.779V220.02C34.8008 220.26 34.9808 220.439 35.2208 220.439H36.5408C36.7208 220.439 36.7808 220.14 36.7208 220.02C36.6008 219.9 36.4208 219.78 36.2408 219.72Z" fill="white"/>
<path d="M36.2408 213.239H34.9208L35.3408 213.659V210.419L35.1608 210.719H36.4808L36.0608 210.239V213.539C36.0608 213.719 36.2408 213.899 36.4208 213.959C36.6008 214.019 36.7208 213.839 36.7208 213.659V210.419C36.7208 210.179 36.5408 209.999 36.3008 209.939H34.9808C34.8008 209.939 34.8008 210.119 34.8008 210.239V213.539C34.8008 213.779 34.9808 213.959 35.2208 213.959H36.5408C36.7208 213.959 36.7808 213.659 36.7208 213.539C36.6008 213.359 36.4208 213.239 36.2408 213.239Z" fill="white"/>
<path d="M36.2408 206.699H34.9208L35.3408 207.179V203.939L35.1608 204.239H36.4808L36.0608 203.759V206.999C36.0608 207.239 36.2408 207.419 36.4208 207.419C36.6008 207.479 36.7208 207.299 36.7208 207.119V203.879C36.7208 203.639 36.5408 203.459 36.3008 203.399H34.9808C34.8008 203.399 34.8008 203.579 34.8008 203.699V206.939C34.8008 207.179 34.9808 207.359 35.2208 207.419H36.5408C36.7208 207.419 36.7808 207.119 36.7208 206.999C36.6008 206.819 36.4208 206.699 36.2408 206.699Z" fill="white"/>
<path d="M36.2408 200.159H34.9208L35.3408 200.639V197.399L35.1608 197.699H36.4808L36.0608 197.219V200.459C36.0608 200.699 36.2408 200.879 36.4208 200.879C36.6008 200.939 36.7208 200.759 36.7208 200.579V197.339C36.7208 197.099 36.5408 196.919 36.3008 196.859H34.9808C34.8008 196.859 34.8008 197.039 34.8008 197.159V200.399C34.8008 200.639 34.9808 200.819 35.2208 200.879H36.5408C36.7208 200.879 36.7808 200.579 36.7208 200.459C36.6008 200.279 36.4208 200.159 36.2408 200.159Z" fill="white"/>
<path d="M36.2408 193.62H34.9208L35.3408 194.04V190.8L35.1608 191.1H36.4808L36.0608 190.68V193.92C36.0608 194.1 36.2408 194.28 36.4208 194.34C36.6008 194.4 36.7208 194.22 36.7208 194.04V190.8C36.7208 190.56 36.5408 190.38 36.3008 190.38H34.9808C34.8008 190.38 34.8008 190.56 34.8008 190.68V193.92C34.8008 194.16 34.9808 194.34 35.2208 194.34H36.5408C36.7208 194.34 36.7808 194.04 36.7208 193.92C36.6008 193.8 36.4208 193.62 36.2408 193.62Z" fill="white"/>
<path d="M36.2408 187.08H34.9208L35.3408 187.5V184.26L35.1608 184.56H36.4808L36.0608 184.14V187.38C36.0608 187.56 36.2408 187.74 36.4208 187.8C36.6008 187.86 36.7208 187.68 36.7208 187.5V184.26C36.7208 184.02 36.5408 183.84 36.3008 183.84H34.9808C34.8008 183.84 34.8008 184.02 34.8008 184.14V187.38C34.8008 187.62 34.9808 187.8 35.2208 187.8H36.5408C36.7208 187.8 36.7808 187.5 36.7208 187.38C36.6008 187.26 36.4208 187.08 36.2408 187.08Z" fill="white"/>
<path d="M36.2397 180.6H34.9197L35.3397 181.02V180C35.3397 179.28 35.4597 178.5 35.6397 177.84L35.3397 177.96L36.5997 178.32L36.2997 177.72C36.1197 178.44 35.9997 179.16 35.9997 179.88V180.9C35.9997 181.08 36.1797 181.26 36.3597 181.32C36.5397 181.38 36.6597 181.2 36.6597 181.02C36.5997 180.06 36.7197 179.1 36.8997 178.14C36.9597 177.9 36.8397 177.6 36.5997 177.54L35.3397 177.18C35.2197 177.18 35.0997 177.24 35.0397 177.3C34.7997 178.14 34.6797 178.98 34.6797 179.82V180.9C34.6797 181.14 34.8597 181.32 35.0997 181.32H36.4197C36.5997 181.32 36.6597 181.02 36.5997 180.9C36.5997 180.78 36.4197 180.6 36.2397 180.6Z" fill="white"/>
<path d="M38.2218 175.08L37.2618 174.18L37.3818 174.78C38.1618 173.94 39.1218 173.28 40.2018 172.86L39.7218 172.56L40.2018 173.76L40.3218 173.34C39.3618 173.7 38.5218 174.3 37.8018 175.08C37.5618 175.38 38.0418 176.04 38.2818 175.68C38.9418 174.96 39.7818 174.42 40.6818 174.06C40.8018 174 40.8618 173.76 40.8018 173.64L40.3218 172.44C40.2618 172.26 40.0818 172.02 39.8418 172.14C38.7018 172.56 37.6818 173.28 36.8418 174.18C36.6618 174.36 36.8418 174.66 36.9618 174.78L37.9218 175.68C38.0418 175.8 38.2218 175.8 38.2818 175.68L38.3418 175.62C38.4018 175.38 38.3418 175.2 38.2218 175.08Z" fill="white"/>
<path d="M149.159 172.86H147.839L148.259 173.34V172.02L148.019 172.32H149.339L148.919 171.9V173.22C148.919 173.34 148.979 173.46 149.039 173.52C149.099 173.58 149.159 173.64 149.279 173.64C149.339 173.64 149.459 173.64 149.519 173.58C149.579 173.52 149.579 173.4 149.579 173.34V172.02C149.579 171.9 149.519 171.78 149.399 171.72C149.339 171.66 149.219 171.6 149.099 171.6H147.779C147.719 171.6 147.659 171.66 147.599 171.72C147.539 171.78 147.539 171.84 147.539 171.96V173.28C147.539 173.4 147.599 173.52 147.719 173.58C147.779 173.64 147.899 173.7 148.019 173.7H149.399C149.459 173.7 149.519 173.64 149.579 173.58C149.639 173.46 149.639 173.4 149.579 173.28C149.519 173.04 149.399 172.86 149.159 172.86Z" fill="white"/>
<path d="M144.601 172.86H141.361L141.781 173.34V172.02L141.541 172.32H144.781L144.361 171.9V173.22C144.361 173.46 144.541 173.64 144.721 173.64C144.901 173.7 145.021 173.52 145.021 173.34V172.02C145.021 171.78 144.841 171.6 144.601 171.6H141.361C141.181 171.6 141.121 171.78 141.121 171.9V173.22C141.121 173.46 141.301 173.64 141.541 173.7H144.781C144.961 173.7 145.021 173.4 144.961 173.28C144.961 173.04 144.781 172.86 144.601 172.86Z" fill="white"/>
<path d="M138.058 172.86H134.818L135.238 173.34V172.02L134.998 172.32H138.238L137.818 171.9V173.22C137.818 173.46 137.998 173.64 138.178 173.64C138.358 173.7 138.478 173.52 138.478 173.34V172.02C138.478 171.78 138.298 171.6 138.058 171.6H134.818C134.638 171.6 134.578 171.78 134.578 171.9V173.22C134.578 173.46 134.758 173.64 134.998 173.7H138.238C138.418 173.7 138.478 173.4 138.418 173.28C138.418 173.04 138.238 172.86 138.058 172.86Z" fill="white"/>
<path d="M131.519 172.86H128.279L128.699 173.34V172.02L128.459 172.32H131.699L131.279 171.9V173.22C131.279 173.4 131.459 173.58 131.639 173.64C131.879 173.7 131.939 173.52 131.939 173.34V172.02C131.939 171.78 131.759 171.6 131.519 171.6H128.279C128.099 171.6 128.039 171.78 128.039 171.9V173.22C128.039 173.46 128.219 173.64 128.459 173.7H131.699C131.879 173.7 131.939 173.4 131.879 173.28C131.879 173.04 131.699 172.86 131.519 172.86Z" fill="white"/>
<path d="M124.98 172.86H121.74L122.16 173.34V172.02L121.92 172.32H125.16L124.74 171.9V173.22C124.74 173.4 124.92 173.58 125.1 173.64C125.34 173.7 125.4 173.52 125.4 173.34V172.02C125.4 171.78 125.22 171.6 124.98 171.6H121.74C121.56 171.6 121.5 171.78 121.5 171.9V173.22C121.5 173.46 121.68 173.64 121.92 173.7H125.16C125.34 173.7 125.4 173.4 125.34 173.28C125.34 173.04 125.16 172.86 124.98 172.86Z" fill="white"/>
<path d="M118.441 172.86H115.201L115.621 173.34V172.02L115.381 172.32H118.621L118.201 171.9V173.22C118.201 173.4 118.381 173.58 118.561 173.64C118.801 173.7 118.861 173.52 118.861 173.34V172.02C118.861 171.78 118.681 171.6 118.441 171.6H115.201C115.021 171.6 114.961 171.78 114.961 171.9V173.22C114.961 173.46 115.141 173.64 115.381 173.7H118.621C118.801 173.7 118.861 173.4 118.801 173.28C118.861 173.04 118.681 172.86 118.441 172.86Z" fill="white"/>
<path d="M111.902 172.86H108.662L109.082 173.34V172.02L108.842 172.32H112.082L111.662 171.9V173.22C111.662 173.4 111.842 173.58 112.022 173.64C112.262 173.7 112.322 173.52 112.322 173.34V172.02C112.322 171.78 112.142 171.6 111.902 171.6H108.662C108.482 171.6 108.422 171.78 108.422 171.9V173.22C108.422 173.46 108.602 173.64 108.842 173.7H112.082C112.262 173.7 112.322 173.4 112.262 173.28C112.322 173.04 112.142 172.86 111.902 172.86Z" fill="white"/>
<path d="M105.421 172.86H102.181L102.601 173.34V172.02L102.361 172.32H105.601L105.181 171.9V173.22C105.181 173.46 105.361 173.64 105.541 173.64C105.721 173.7 105.841 173.52 105.841 173.34V172.02C105.841 171.78 105.661 171.6 105.421 171.6H102.181C102.001 171.6 101.941 171.78 101.941 171.9V173.22C101.941 173.46 102.121 173.64 102.361 173.7H105.601C105.781 173.7 105.841 173.4 105.781 173.28C105.721 173.04 105.601 172.86 105.421 172.86Z" fill="white"/>
<path d="M98.8784 172.86H95.6384L96.0584 173.34V172.02L95.8184 172.32H99.0584L98.6384 171.9V173.22C98.6384 173.46 98.8184 173.64 98.9984 173.64C99.1784 173.7 99.2984 173.52 99.2984 173.34V172.02C99.2984 171.78 99.1184 171.6 98.8784 171.6H95.6384C95.4584 171.6 95.3984 171.78 95.3984 171.9V173.22C95.3984 173.46 95.5784 173.64 95.8184 173.7H99.0584C99.2384 173.7 99.2984 173.4 99.2384 173.28C99.2384 173.04 99.0584 172.86 98.8784 172.86Z" fill="white"/>
<path d="M92.3394 172.86H89.0994L89.5194 173.34V172.02L89.2794 172.32H92.5194L92.0994 171.9V173.22C92.0994 173.46 92.2794 173.64 92.4594 173.64C92.6394 173.7 92.7594 173.52 92.7594 173.34V172.02C92.7594 171.78 92.5794 171.6 92.3394 171.6H89.0994C88.9194 171.6 88.8594 171.78 88.8594 171.9V173.22C88.8594 173.46 89.0394 173.64 89.2794 173.7H92.5194C92.6994 173.7 92.7594 173.4 92.6994 173.28C92.6994 173.04 92.5194 172.86 92.3394 172.86Z" fill="white"/>
<path d="M85.8003 172.86H82.5603L82.9803 173.34V172.02L82.7403 172.32H85.9803L85.5603 171.9V173.22C85.5603 173.4 85.7403 173.58 85.9203 173.64C86.1603 173.7 86.2203 173.52 86.2203 173.34V172.02C86.2203 171.78 86.0403 171.6 85.8003 171.6H82.5603C82.3803 171.6 82.3203 171.78 82.3203 171.9V173.22C82.3203 173.46 82.5003 173.64 82.7403 173.7H85.9803C86.1603 173.7 86.2203 173.4 86.1603 173.28C86.1603 173.04 85.9803 172.86 85.8003 172.86Z" fill="white"/>
<path d="M79.2584 172.86H76.0184L76.4384 173.34V172.02L76.2584 172.32H79.4984L79.0784 171.9V173.22C79.0784 173.4 79.2584 173.58 79.4384 173.64C79.6784 173.7 79.7384 173.52 79.7384 173.34V172.02C79.7384 171.78 79.5584 171.6 79.3184 171.6H76.0784C75.8984 171.6 75.8984 171.78 75.8984 171.9V173.22C75.8984 173.46 76.0784 173.64 76.3184 173.7H79.5584C79.7384 173.7 79.7984 173.4 79.7384 173.28C79.6784 173.04 79.4984 172.86 79.2584 172.86Z" fill="white"/>
<path d="M72.7194 172.86H69.4794L69.8994 173.34V172.02L69.7194 172.32H72.9594L72.5394 171.9V173.22C72.5394 173.4 72.7194 173.58 72.8994 173.64C73.0794 173.7 73.1994 173.52 73.1994 173.34V172.02C73.1994 171.78 73.0194 171.6 72.7794 171.6H69.5394C69.3594 171.6 69.3594 171.78 69.3594 171.9V173.22C69.3594 173.46 69.5394 173.64 69.7794 173.7H73.0194C73.1994 173.7 73.2594 173.4 73.1994 173.28C73.1394 173.04 72.9594 172.86 72.7194 172.86Z" fill="white"/>
<path d="M66.2389 172.86H62.9989L63.4189 173.34V172.02L63.2389 172.32H66.4789L66.0589 171.9V173.22C66.0589 173.4 66.2389 173.58 66.4189 173.64C66.5989 173.7 66.7189 173.52 66.7189 173.34V172.02C66.7189 171.78 66.5389 171.6 66.2989 171.6H63.0589C62.8789 171.6 62.8789 171.78 62.8789 171.9V173.22C62.8789 173.46 63.0589 173.64 63.2989 173.7H66.5389C66.7189 173.7 66.7789 173.4 66.7189 173.28C66.5989 173.04 66.4189 172.86 66.2389 172.86Z" fill="white"/>
<path d="M59.7012 172.86H56.4612L56.8813 173.34V172.02L56.7012 172.32H59.9412L59.5212 171.9V173.22C59.5212 173.46 59.7013 173.64 59.8813 173.64C60.0613 173.7 60.1813 173.52 60.1813 173.34V172.02C60.1813 171.78 60.0012 171.6 59.7612 171.6H56.5212C56.3412 171.6 56.2812 171.78 56.2812 171.9V173.22C56.2812 173.46 56.4612 173.64 56.7012 173.7H59.9412C60.1212 173.7 60.1812 173.4 60.1212 173.28C60.0612 173.04 59.8812 172.86 59.7012 172.86Z" fill="white"/>
<path d="M53.1597 172.86H49.9197L50.3397 173.34V172.02L50.0997 172.32H53.3997L52.9797 171.9V173.22C52.9797 173.46 53.1597 173.64 53.3397 173.64C53.5197 173.7 53.6397 173.52 53.6397 173.34V172.02C53.6397 171.78 53.4597 171.6 53.2197 171.6H49.9197C49.7397 171.6 49.6797 171.78 49.6797 171.9V173.22C49.6797 173.46 49.8597 173.64 50.0997 173.7H53.3997C53.5797 173.7 53.6397 173.4 53.5797 173.28C53.5197 173.04 53.3997 172.86 53.1597 172.86Z" fill="white"/>
<path d="M46.6206 172.86H43.3206L43.7406 173.34V172.02L43.5006 172.32H46.7406L46.3206 171.9V173.22C46.3206 173.46 46.5006 173.64 46.6806 173.64C46.8606 173.7 46.9806 173.52 46.9806 173.34V172.02C46.9806 171.78 46.8006 171.6 46.5606 171.6H43.3206C43.1406 171.6 43.1406 171.78 43.1406 171.9V173.22C43.1406 173.46 43.3206 173.64 43.5606 173.7H46.8006C46.9806 173.7 47.0406 173.4 46.9806 173.28C46.9806 173.04 46.8606 172.86 46.6206 172.86Z" fill="white"/>
<path d="M117.662 200.16H158.642C162.002 200.16 164.702 202.86 164.702 206.22V226.32C164.702 229.68 162.002 232.38 158.642 232.38H117.662C114.302 232.38 111.602 229.68 111.602 226.32V206.22C111.602 202.86 114.302 200.16 117.662 200.16Z" fill="white"/>
<path d="M158.759 231.119H128.639C125.039 231.119 121.439 231.239 117.839 231.119C115.859 230.999 114.119 229.799 113.399 227.939C113.099 227.039 112.979 226.079 113.039 225.179V208.199C113.039 207.419 113.039 206.699 113.039 205.919C113.039 205.859 113.039 205.859 113.039 205.799C113.039 206.099 113.099 205.319 113.099 205.259C113.159 204.959 113.219 204.719 113.279 204.419C113.579 203.459 114.119 202.679 114.959 202.079C116.219 201.179 117.779 201.299 119.279 201.299H158.219C161.039 201.359 163.319 203.639 163.319 206.519V206.579C163.319 208.619 163.319 210.599 163.319 212.639V225.719C163.379 226.499 163.319 227.279 163.079 227.999C162.419 229.859 160.679 231.119 158.759 231.119C157.139 231.119 156.359 233.639 158.339 233.579C162.599 233.579 166.019 230.099 166.019 225.899C166.019 225.779 166.019 225.719 166.019 225.599V208.499C166.019 207.659 166.019 206.819 166.019 206.039C166.019 204.299 165.359 202.619 164.219 201.359C162.779 199.859 160.799 198.959 158.699 199.019H131.279C126.839 199.019 122.399 199.019 118.019 199.019C114.059 199.019 110.339 202.079 110.159 206.159C110.099 208.139 110.159 210.119 110.159 212.039V225.719C110.099 226.559 110.159 227.339 110.339 228.179C110.879 230.579 112.679 232.499 114.959 233.219C115.919 233.519 116.879 233.639 117.839 233.579H158.399C159.959 233.519 160.739 231.119 158.759 231.119Z" fill="#68BA7F"/>
<path d="M124.501 220.62C127.185 220.62 129.361 218.497 129.361 215.88C129.361 213.262 127.185 211.14 124.501 211.14C121.817 211.14 119.641 213.262 119.641 215.88C119.641 218.497 121.817 220.62 124.501 220.62Z" fill="white"/>
<path d="M128.159 215.339C128.159 216.119 127.919 216.899 127.439 217.499C126.959 218.159 126.359 218.639 125.639 218.939C124.859 219.239 123.959 219.299 123.119 219.119C122.939 219.119 122.819 219.059 122.639 218.999L122.399 218.879C122.399 218.879 122.039 218.699 122.219 218.819C122.039 218.699 121.919 218.579 121.739 218.519C121.679 218.459 121.499 218.279 121.679 218.459C121.559 218.399 121.499 218.279 121.439 218.159C121.379 218.099 121.139 217.799 121.379 218.099L121.259 217.919C121.199 217.859 121.139 217.739 121.079 217.619C120.959 217.439 121.199 217.919 121.079 217.559L120.959 217.319C120.779 216.959 121.019 217.559 120.899 217.199C120.899 217.139 120.839 217.019 120.839 216.959C120.839 216.899 120.779 216.539 120.779 216.599C120.719 215.819 120.959 215.099 121.319 214.439C122.159 213.059 123.779 212.279 125.399 212.519C125.819 212.579 126.299 212.699 126.659 212.939C126.959 213.119 127.199 213.299 127.439 213.539L127.619 213.719C127.379 213.419 127.679 213.779 127.679 213.839C127.679 213.899 127.799 214.019 127.859 214.139C127.679 213.839 127.859 214.199 127.919 214.259C127.979 214.319 128.099 214.679 127.979 214.379C128.039 214.499 128.039 214.619 128.039 214.739C128.039 214.799 128.099 214.919 128.099 214.979C128.099 215.039 128.099 215.159 128.099 215.039C128.159 215.159 128.159 215.219 128.159 215.339C128.159 216.119 128.639 216.779 129.299 217.139C129.659 217.379 130.199 217.199 130.379 216.839C130.439 216.719 130.499 216.539 130.499 216.359C130.439 213.659 128.819 211.259 126.359 210.179C124.079 209.219 121.439 209.879 119.819 211.679C118.079 213.659 118.199 216.539 119.459 218.759C120.779 221.039 123.299 222.239 125.879 221.879C128.579 221.399 130.499 219.059 130.499 216.359C130.499 215.579 130.019 214.919 129.359 214.559C128.999 214.319 128.459 214.439 128.279 214.859C128.159 214.979 128.159 215.159 128.159 215.339Z" fill="#68BA7F"/>
<path d="M232.441 267.66C251.66 267.66 267.241 252.079 267.241 232.86C267.241 213.64 251.66 198.06 232.441 198.06C213.221 198.06 197.641 213.64 197.641 232.86C197.641 252.079 213.221 267.66 232.441 267.66Z" fill="white"/>
<path d="M228.603 266.7C221.823 265.98 215.403 263.1 210.363 258.54C205.263 253.98 201.663 247.92 200.043 241.32C198.363 234.36 198.843 226.98 201.543 220.32C204.123 213.9 208.563 208.44 214.263 204.6C219.963 200.76 226.743 198.72 233.583 198.9C240.483 199.08 247.143 201.42 252.663 205.62C258.063 209.82 262.083 215.52 264.183 222.06C268.623 235.8 264.063 250.8 252.723 259.74C247.323 264 240.723 266.46 233.883 266.88C232.083 266.88 230.343 266.88 228.603 266.7C228.183 266.64 227.283 266.76 227.403 267.42C227.523 268.08 228.603 268.32 229.083 268.38C236.523 269.16 244.023 267.6 250.623 264C267.663 254.52 273.783 233.04 264.303 216C262.683 213.06 260.643 210.42 258.243 208.02C247.203 197.16 230.643 194.22 216.543 200.7C198.843 208.92 191.163 229.92 199.383 247.62C200.763 250.62 202.623 253.44 204.783 255.96C209.703 261.54 216.183 265.56 223.383 267.42C225.243 267.9 227.103 268.26 229.023 268.44C229.503 268.5 230.343 268.38 230.283 267.72C230.223 267.06 229.143 266.7 228.603 266.7Z" fill="#68BA7F"/>
<path d="M238.499 269.459C257.719 269.459 273.299 253.879 273.299 234.659C273.299 215.44 257.719 199.859 238.499 199.859C219.28 199.859 203.699 215.44 203.699 234.659C203.699 253.879 219.28 269.459 238.499 269.459Z" fill="white"/>
<path d="M234.481 268.02C227.581 267.3 221.101 264.48 215.881 259.86C210.901 255.42 207.421 249.6 205.801 243.12C204.121 236.16 204.721 228.9 207.421 222.3C210.061 215.94 214.501 210.48 220.261 206.7C226.081 202.86 232.921 200.94 239.881 201.12C246.841 201.3 253.621 203.64 259.141 207.9C264.421 211.98 268.381 217.56 270.481 223.92C272.641 230.64 272.641 237.84 270.481 244.56C268.321 251.16 264.241 256.92 258.781 261.12C253.321 265.32 246.721 267.78 239.821 268.2C238.021 268.2 236.281 268.2 234.481 268.02C233.761 267.96 233.641 268.8 233.821 269.28C234.061 270 234.661 270.48 235.441 270.6C255.001 272.58 272.461 258.36 274.441 238.8C274.801 235.38 274.621 231.96 274.021 228.6C271.201 213.6 259.441 201.9 244.501 199.14C225.181 195.6 206.641 208.38 203.101 227.7C202.501 231.12 202.321 234.6 202.741 238.08C204.421 253.2 215.221 265.74 229.921 269.7C231.721 270.18 233.581 270.48 235.501 270.72C236.221 270.78 236.341 269.94 236.161 269.46C235.861 268.62 235.201 268.14 234.481 268.02Z" fill="#68BA7F"/>
<path d="M216.301 202.14C217.081 203.22 217.981 204.18 219.001 205.02L216.301 202.14Z" fill="white"/>
<path d="M215.221 201.42C216.181 202.74 217.321 203.88 218.581 204.96C218.881 205.2 219.181 205.44 219.481 205.62C219.601 205.68 219.721 205.8 219.841 205.86C219.901 205.92 220.021 205.92 220.081 205.98C220.261 205.98 220.081 205.8 220.081 205.74C219.901 205.5 219.661 205.32 219.421 205.14L219.241 205.02C219.121 204.9 219.541 205.26 219.361 205.14L219.301 205.08L218.941 204.72L218.761 204.54L218.401 204.18L218.341 204.12C218.221 204 218.461 204.24 218.401 204.18L218.221 204L217.921 203.64C217.681 203.4 217.501 203.1 217.321 202.86C217.141 202.62 216.901 202.44 216.661 202.26C216.361 202.02 216.061 201.78 215.761 201.6L215.521 201.42C215.401 201.36 215.281 201.3 215.161 201.24C215.101 201.24 215.221 201.36 215.221 201.42Z" fill="#68BA7F"/>
<path d="M209.34 207.78C210.6 208.44 211.68 209.34 212.52 210.48L209.34 207.78Z" fill="white"/>
<path d="M208.14 208.62C208.98 209.04 209.76 209.64 210.42 210.3L210.3 210.18C210.66 210.54 210.96 210.84 211.2 211.26C211.38 211.44 211.56 211.5 211.8 211.44C212.16 211.38 212.52 211.26 212.82 211.08C213.12 210.9 213.42 210.72 213.66 210.42C213.78 210.3 213.96 210 213.84 209.82C212.94 208.68 211.8 207.72 210.54 207C210.3 206.94 210 206.94 209.76 207C209.4 207.12 209.04 207.24 208.68 207.48C208.38 207.66 208.2 207.9 208.02 208.14C207.96 208.32 207.96 208.56 208.14 208.62Z" fill="#68BA7F"/>
<path d="M207.781 216.48C206.041 216.06 204.301 215.52 202.621 214.92L207.781 216.48Z" fill="white"/>
<path d="M208.862 216.06C208.022 215.82 207.122 215.64 206.342 215.34L205.742 215.16L205.442 215.1L205.262 215.04L204.002 214.62C203.342 214.44 202.622 214.38 201.962 214.56C201.722 214.62 201.422 214.68 201.302 214.86C201.182 215.04 201.302 215.16 201.482 215.22C203.282 215.82 205.082 216.36 206.882 216.84C207.242 216.9 207.602 216.96 207.962 216.9C208.322 216.9 208.682 216.84 209.042 216.72C209.162 216.66 209.462 216.54 209.462 216.36C209.462 216.18 208.982 216.12 208.862 216.06Z" fill="#68BA7F"/>
<path d="M204.482 225.84C202.622 225.72 200.762 225.48 198.902 225.06L204.482 225.84Z" fill="white"/>
<path d="M204.062 224.52C202.202 224.4 200.342 224.1 198.482 223.74C198.242 223.68 197.942 223.86 197.822 224.04C197.702 224.34 197.702 224.64 197.762 224.94C197.942 225.66 198.542 226.2 199.262 226.38C201.122 226.74 202.982 226.98 204.842 227.16C205.502 227.22 205.742 226.5 205.562 225.96C205.382 225.24 204.842 224.7 204.062 224.52Z" fill="#68BA7F"/>
<path d="M203.281 234.6C201.541 234.48 199.861 234.42 198.121 234.48L203.281 234.6Z" fill="white"/>
<path d="M202.381 233.64C200.581 233.52 198.841 233.46 197.041 233.52C196.801 233.52 196.861 233.82 196.921 233.94C197.041 234.24 197.221 234.48 197.461 234.66C197.881 235.14 198.481 235.44 199.141 235.5C200.821 235.44 202.441 235.5 204.121 235.62C204.781 235.68 204.361 235.02 204.121 234.78C203.881 234.48 203.581 234.24 203.221 234.06C202.981 233.82 202.681 233.7 202.381 233.64Z" fill="#68BA7F"/>
<path d="M204.481 244.14C203.161 244.74 201.721 245.1 200.281 245.28L204.481 244.14Z" fill="white"/>
<path d="M203.762 242.82C202.442 243.42 201.002 243.78 199.562 243.96C199.322 243.96 199.142 244.26 199.082 244.5C199.082 244.86 199.142 245.16 199.322 245.46C199.622 246.12 200.222 246.54 200.942 246.54C202.382 246.36 203.822 246 205.142 245.4C205.382 245.34 205.562 245.1 205.622 244.86C205.622 244.5 205.562 244.2 205.382 243.9C205.202 243.54 204.962 243.24 204.602 243.06C204.362 242.94 204.002 242.7 203.762 242.82Z" fill="#68BA7F"/>
<path d="M207.841 252.359C206.761 252.419 205.741 252.719 204.781 253.199L207.841 252.359Z" fill="white"/>
<path d="M207.36 251.399C206.1 251.519 204.84 251.819 203.7 252.359C203.46 252.479 203.34 252.719 203.34 252.959C203.4 253.259 203.58 253.499 203.82 253.679C204.12 253.919 204.48 254.039 204.9 254.099C205.2 254.159 205.56 254.099 205.86 253.979C206.16 253.859 206.46 253.679 206.76 253.619L206.46 253.739C207.06 253.559 207.66 253.379 208.32 253.319L208.02 253.379H208.32C208.62 253.379 208.92 253.259 209.16 253.079C209.34 252.899 209.34 252.599 209.22 252.419C209.04 252.119 208.8 251.879 208.5 251.759C208.14 251.519 207.78 251.399 207.36 251.399Z" fill="#68BA7F"/>
<path d="M247.799 228.239C248.939 225.839 249.899 222.659 247.739 220.559C246.479 219.419 244.739 218.879 242.999 219.179C241.439 219.419 239.999 220.199 238.859 221.279C237.779 222.299 236.999 223.559 236.519 224.939C235.199 228.839 236.699 233.279 236.099 237.359C235.439 241.919 232.259 245.639 229.199 249.119L239.399 252.599" fill="white"/>
<path d="M249.3 228.3C250.5 225.72 251.46 222.3 248.88 220.2C246.3 218.1 241.8 218.22 239.04 219.96C236.1 221.76 234.66 224.94 234.54 228.3C234.42 231.96 235.32 235.68 234.24 239.28C233.1 243.06 230.34 246.12 227.82 249.06C227.58 249.3 228.06 249.42 228.18 249.48L238.38 252.96C239.1 253.14 239.82 253.14 240.48 252.96C241.02 252.78 241.02 252.54 240.48 252.36L230.28 248.88L230.64 249.3C232.68 246.96 234.78 244.56 236.16 241.8C236.82 240.48 237.3 239.1 237.54 237.66C237.78 235.98 237.78 234.3 237.6 232.62C237.36 229.44 237.06 226.02 238.86 223.14C239.64 221.82 240.78 220.74 242.16 220.08C243.18 219.48 244.5 219.48 245.46 220.14C248.46 221.94 247.32 225.66 246.18 228.24C246.18 228.48 248.94 229.08 249.3 228.3Z" fill="#68BA7F"/>
<path d="M228.781 235.439C234.121 236.879 239.341 238.559 244.501 240.599L228.781 235.439Z" fill="white"/>
<path d="M229.142 236.58C234.362 237.96 239.522 239.64 244.562 241.62C245.042 241.8 245.702 241.86 245.702 241.14C245.582 240.42 245.042 239.82 244.382 239.52C239.162 237.48 233.762 235.68 228.362 234.24C227.762 234.06 227.402 234.54 227.582 235.08C227.882 235.86 228.422 236.4 229.142 236.58Z" fill="#68BA7F"/>
<path d="M218.102 252.66H158.582V268.68H218.102V252.66Z" fill="white"/>
<path d="M218.581 267.96H161.461C160.681 267.9 159.901 267.9 159.121 267.96H159.001L159.481 268.26V252.24L157.981 253.38H215.101C215.881 253.44 216.661 253.44 217.441 253.38H217.561L217.081 253.08V269.1C217.081 269.88 219.121 268.98 219.121 268.26V252.24C219.121 251.94 218.821 251.94 218.641 251.94H166.501C164.101 251.94 161.641 251.82 159.241 251.94H159.121C158.641 251.94 157.621 252.48 157.621 253.08V269.1C157.621 269.4 157.921 269.4 158.101 269.4H210.241C212.641 269.4 215.101 269.52 217.501 269.4H217.621C218.161 269.34 218.701 269.1 219.001 268.62C219.241 268.26 219.061 267.96 218.581 267.96Z" fill="#68BA7F"/>
<path d="M168.359 254.22V266.82C168.359 267.96 170.519 267.42 170.519 266.34V253.74C170.519 252.6 168.359 253.14 168.359 254.22Z" fill="#68BA7F"/>
<path d="M180.543 252.9V267.12C180.543 268.2 182.163 269.04 182.163 267.6V253.38C182.163 252.36 180.543 251.46 180.543 252.9Z" fill="#68BA7F"/>
<path d="M192.961 252.78V266.7C192.961 268.02 195.181 267.54 195.181 266.34V252.42C195.181 251.1 192.961 251.58 192.961 252.78Z" fill="#68BA7F"/>
<path d="M203.883 254.099V267.239C203.883 267.659 206.103 267.539 206.103 266.999V253.859C206.163 253.379 203.883 253.559 203.883 254.099Z" fill="#68BA7F"/>
<path d="M223.321 235.859H163.801V251.879H223.321V235.859Z" fill="white"/>
<path d="M223.802 251.16H166.742C165.962 251.1 165.182 251.1 164.402 251.16H164.282L164.762 251.46V235.44L163.262 236.58H220.382C221.162 236.64 221.942 236.64 222.722 236.58H222.842L222.362 236.28V252.3C222.362 253.08 224.402 252.24 224.402 251.46V235.44C224.402 235.14 224.102 235.14 223.922 235.14H171.782C169.382 235.14 166.922 235.02 164.522 235.14H164.402C163.922 235.14 162.902 235.68 162.902 236.28V252.3C162.902 252.6 163.202 252.6 163.382 252.6H215.402C217.802 252.6 220.262 252.72 222.662 252.6H222.782C223.322 252.54 223.862 252.24 224.162 251.82C224.402 251.4 224.282 251.16 223.802 251.16Z" fill="#68BA7F"/>
<path d="M173.582 237.36V249.96C173.582 251.1 175.742 250.56 175.742 249.48V236.88C175.742 235.74 173.582 236.28 173.582 237.36Z" fill="#68BA7F"/>
<path d="M185.762 236.1V250.32C185.762 251.34 187.382 252.24 187.382 250.8V236.58C187.442 235.5 185.762 234.6 185.762 236.1Z" fill="#68BA7F"/>
<path d="M198.18 235.98V249.9C198.18 251.22 200.4 250.74 200.4 249.54V235.62C200.4 234.3 198.18 234.72 198.18 235.98Z" fill="#68BA7F"/>
<path d="M209.102 237.24V250.38C209.102 250.8 211.322 250.68 211.322 250.14V237C211.322 236.58 209.102 236.7 209.102 237.24Z" fill="#68BA7F"/>
<path d="M212.823 207.96C212.343 208.02 203.883 192.72 203.883 192.72L214.323 179.28L219.963 188.16C219.963 188.16 229.443 187.02 235.503 186.66C241.563 186.3 242.283 188.88 242.283 188.88L222.603 202.5C222.603 202.5 215.643 207.6 212.823 207.96Z" fill="white"/>
<path d="M212.22 206.64C212.34 206.7 212.4 206.76 212.52 206.82C212.46 206.76 212.76 207.12 212.64 206.94C212.52 206.76 212.82 207.24 212.7 207.06C212.64 207 212.58 206.88 212.52 206.82L212.22 206.34C212.16 206.22 212.1 206.16 212.04 206.04C211.98 205.92 211.74 205.62 211.86 205.8C211.98 205.98 211.74 205.62 211.74 205.56L211.5 205.14C211.32 204.84 211.14 204.54 210.96 204.24C210.54 203.58 210.18 202.92 209.76 202.2C208.26 199.56 206.76 196.98 205.26 194.34L204.24 192.54L204.6 193.98L213.72 182.22L215.04 180.54L214.02 179.94L219.66 188.82C219.84 189.12 220.2 189.6 220.62 189.54C221.22 189.48 222.24 189.36 223.02 189.24C224.94 189 226.86 188.82 228.78 188.64C230.88 188.4 233.04 188.22 235.2 188.1C237.06 187.98 239.16 187.8 240.9 188.58C241.14 188.7 241.44 188.82 241.68 189C241.74 189 241.86 189.12 241.68 189C241.62 189 241.8 189.12 241.86 189.12C241.74 188.94 242.1 189.3 241.86 189.12C241.98 189.3 241.68 188.82 241.86 189.06C241.74 188.94 241.68 188.76 241.56 188.58C241.68 188.82 241.44 188.22 241.5 188.4V187.56L230.82 195C227.64 197.22 224.52 199.38 221.34 201.6C219.9 202.62 218.46 203.58 216.96 204.48C215.46 205.38 213.84 206.4 212.16 206.64C211.74 206.7 212.76 209.4 213.6 209.28C215.1 209.04 216.54 208.2 217.8 207.48C219.3 206.64 220.68 205.68 222.12 204.78C223.02 204.18 223.98 203.52 224.88 202.86L238.86 193.2L243.12 190.26C243.36 190.08 243.18 189.6 243.12 189.42C242.34 186.6 239.4 185.52 236.76 185.4C234.36 185.4 231.96 185.58 229.56 185.88C227.34 186.06 225.12 186.3 222.9 186.54C221.7 186.66 220.5 186.84 219.3 186.96L220.26 187.68L214.62 178.8C214.44 178.56 213.9 177.78 213.6 178.2L204.48 189.96L203.16 191.64C202.92 191.94 203.4 192.84 203.52 193.08C206.1 197.76 208.68 202.5 211.56 207.06C211.86 207.48 212.1 207.96 212.4 208.32C212.64 208.62 213.06 209.4 213.54 209.4C214.08 209.34 213.06 206.7 212.22 206.64Z" fill="#000005"/>
<path d="M138.84 149.281C141.9 150.781 203.82 199.081 203.82 199.081L224.16 181.321L160.2 135.061L138.84 149.281Z" fill="#000005"/>
<path d="M203.883 199.32C203.823 199.32 203.763 199.32 203.703 199.26C203.103 198.78 141.723 151.02 138.723 149.52C138.603 149.46 138.543 149.4 138.543 149.28C138.543 149.16 138.603 149.04 138.663 149.04L159.963 134.82C160.083 134.76 160.203 134.76 160.323 134.82L224.283 181.02C224.343 181.08 224.403 181.14 224.403 181.26C224.403 181.38 224.343 181.44 224.283 181.5L203.943 199.32C204.003 199.32 203.943 199.32 203.883 199.32ZM139.443 149.28C145.443 153.24 199.503 195.3 203.883 198.66L223.743 181.32L160.203 135.42L139.443 149.28Z" fill="#000005"/>
<path d="M169.441 233.58C169.021 233.34 170.641 215.94 170.641 215.94L186.841 210.72L186.541 221.22C186.541 221.22 195.001 225.66 200.221 228.72C205.441 231.78 204.541 234.36 204.541 234.36L180.541 234.6C180.601 234.6 171.961 234.84 169.441 233.58Z" fill="white"/>
<path d="M169.02 232.32L170.22 234.24V234.18C170.28 234.24 170.22 234.42 170.22 234.24C170.22 234.06 170.22 233.88 170.22 233.7C170.22 233.22 170.22 232.74 170.28 232.26C170.34 230.82 170.46 229.44 170.58 228.06C170.82 225.06 171.06 222 171.36 219C171.42 218.34 171.48 217.62 171.54 216.96L171.42 217.26L185.58 212.7L187.62 212.04L186 209.7L185.7 220.2C185.76 221.1 186.24 221.94 186.96 222.48C189.18 223.62 191.34 224.82 193.56 226.02C195.36 227.04 197.22 228 199.02 229.08C200.58 229.98 202.62 231.06 203.64 232.38C203.7 232.44 203.76 232.56 203.82 232.62C203.76 232.5 203.76 232.5 203.82 232.62C203.7 232.26 203.88 232.92 203.82 232.56C203.88 232.86 203.82 232.44 203.82 232.68C203.82 232.92 203.82 232.56 203.82 232.8C203.82 232.92 203.82 233.16 203.82 233.1C203.82 233.04 203.82 233.1 203.82 233.16L204.06 233.04L190.92 233.16L179.4 233.28C177.66 233.28 175.98 233.28 174.24 233.16C172.5 233.04 170.64 233.04 169.02 232.32C168.48 232.02 168.66 232.8 168.72 233.1C168.9 233.76 169.32 234.36 169.86 234.84C171.3 235.44 172.8 235.74 174.3 235.74C175.98 235.86 177.72 235.92 179.4 235.92C180.54 235.92 181.74 235.92 182.88 235.86L199.92 235.68L205.14 235.62C205.26 235.62 205.32 235.62 205.38 235.5C205.56 234.66 205.44 233.82 205.08 233.1C204.24 231.06 202.8 229.38 200.94 228.18C198.96 226.92 196.92 225.72 194.82 224.64C192.9 223.56 190.98 222.54 189.06 221.52C188.04 220.98 187.02 220.44 186.06 219.9L187.32 222.18L187.62 211.68C187.62 211.14 186.78 209.1 186.06 209.34L171.9 213.9L169.86 214.56C169.8 214.62 169.74 214.74 169.74 214.86C169.26 220.2 168.66 225.54 168.48 230.82C168.42 232.26 168.48 233.76 169.8 234.72C170.34 235.14 170.22 234.12 170.1 233.94C170.04 233.34 169.62 232.74 169.02 232.32Z" fill="#000005"/>
<path d="M116.761 142.2C116.761 142.2 115.681 158.7 120.601 162C125.521 165.3 162.481 170.82 162.481 170.82L164.161 217.62L191.701 219.84C191.701 219.84 196.681 164.16 191.701 154.56C186.721 144.96 160.801 139.44 160.801 139.44L116.761 142.2Z" fill="#000005"/>
<path d="M191.702 220.2L164.162 217.98C163.982 217.98 163.922 217.86 163.862 217.68L162.242 171.12C158.762 170.58 125.282 165.48 120.482 162.3C115.442 158.94 116.462 142.86 116.522 142.2C116.522 142.02 116.642 141.9 116.822 141.9L160.862 139.14H160.922C165.542 140.16 170.102 141.54 174.542 143.1C184.022 146.58 189.902 150.36 192.002 154.44C194.102 158.52 194.702 170.7 193.862 190.86C193.262 205.8 192.062 219.78 192.062 219.9C192.002 220.08 191.882 220.2 191.702 220.2ZM164.402 217.38L191.402 219.54C191.762 215.16 196.082 163.8 191.402 154.68C186.662 145.44 161.942 139.98 160.802 139.74L117.062 142.5C116.942 144.6 116.402 158.82 120.782 161.82C125.642 165.06 162.182 170.52 162.542 170.58C162.662 170.58 162.782 170.7 162.782 170.88L164.402 217.38Z" fill="#000005"/>
<path d="M182.942 75.6605C182.942 75.6605 177.062 73.3205 175.142 74.3405C173.222 75.3605 165.422 90.4805 165.422 90.4805L176.222 90.7805L182.942 75.6605Z" fill="white"/>
<path d="M183.48 75.2397C181.5 74.3997 179.46 73.8597 177.3 73.4997C176.16 73.3197 174.72 73.1397 173.7 73.7997C173.22 74.0997 172.86 74.5197 172.56 74.9997C169.92 78.5397 167.88 82.6197 165.78 86.5197C165.18 87.6597 164.58 88.8597 163.98 89.9997C163.62 90.6597 165.66 91.1397 166.02 91.1397L176.82 91.4397C177.12 91.4397 177.54 91.4397 177.66 91.1397L183.54 77.9397L184.38 76.0797C184.68 75.3597 181.86 74.3997 181.5 75.2397L175.62 88.4397L174.78 90.2997L175.62 89.9997L164.82 89.6997L166.86 90.8397C168.3 88.0797 169.74 85.3797 171.24 82.6797C172.32 80.8197 173.4 78.8997 174.6 77.0997C174.96 76.4997 175.44 75.8997 175.86 75.3597C176.16 74.9397 176.64 74.6997 177.18 74.7597C178.32 74.8197 179.46 75.0597 180.54 75.4197L181.38 75.6597L181.68 75.7797C182.04 75.8997 181.5 75.7197 181.8 75.8397L182.46 76.0797C182.88 76.2597 183.96 76.6197 184.32 76.1997C184.68 75.7797 183.78 75.3597 183.48 75.2397Z" fill="#000005"/>
<path d="M194.163 54.1196L189.363 53.0996L170.883 88.3196L175.263 88.6796L194.163 54.1196Z" fill="#68BA7F"/>
<path d="M194.4 52.86L189.6 51.84C189 51.66 188.4 51.84 188.04 52.38L181.8 64.32L171.84 83.28L169.5 87.66C168.96 88.62 170.04 89.58 170.94 89.7L175.32 90.06C175.8 90.12 176.22 89.88 176.46 89.46L182.82 77.82L193.02 59.22L195.36 54.9C196.14 53.46 193.5 52.02 192.72 53.46L186.36 65.16L176.16 83.76L173.82 88.08L175.02 87.48L170.64 87.12L172.08 89.16L178.32 77.22L188.4 58.2L190.68 53.82L189.12 54.36L193.92 55.38C194.58 55.5 195.42 55.32 195.6 54.54C195.72 53.76 195.18 53.04 194.4 52.86Z" fill="#68BA7F"/>
<path d="M166.801 88.08C165.901 88.38 153.781 109.68 153.781 109.68L162.061 147.36L177.481 96.24C179.101 94.86 182.821 90.42 186.001 85.14C186.661 84 190.801 71.22 190.321 66C189.841 60.78 186.421 69.96 186.421 69.96C186.421 69.96 184.981 62.7 182.821 65.7C182.341 66.36 181.621 76.98 181.621 76.98C181.621 76.98 176.761 74.94 175.801 75.72C174.841 76.5 179.581 81.48 179.581 81.48C179.581 81.48 175.981 88.56 175.381 88.68" fill="white"/>
<path d="M166.263 87.06C165.723 87.42 165.243 87.9 164.943 88.5C164.403 89.34 163.863 90.18 163.323 90.96C161.763 93.48 160.263 96 158.763 98.58C157.263 101.16 155.823 103.56 154.383 106.08C153.663 107.16 153.003 108.3 152.463 109.44C152.343 109.86 152.343 110.28 152.523 110.64L152.943 112.5L154.383 118.98L158.223 136.5C159.003 140.16 159.723 143.88 160.623 147.54C160.623 147.6 160.683 147.66 160.683 147.72C160.983 149.04 163.083 148.44 163.383 147.42L164.883 142.38L168.603 130.2L173.043 115.44L176.883 102.66L178.143 98.46C178.383 97.8 178.563 97.14 178.743 96.48C178.743 96.42 178.743 96.42 178.743 96.42L178.323 97.02C179.583 95.88 180.783 94.56 181.803 93.18C183.423 91.14 184.923 89.04 186.303 86.82C186.963 85.86 187.503 84.78 187.863 83.64C188.343 82.2 188.823 80.7 189.243 79.26C190.323 75.78 191.103 72.18 191.523 68.58C191.643 67.2 191.823 65.64 191.343 64.26C190.803 62.76 189.183 62.88 188.163 63.84C187.143 64.8 186.543 66.12 186.003 67.38C185.643 68.16 185.343 68.94 185.043 69.72L187.743 69.42C187.263 67.2 186.003 62.22 182.763 64.02C181.323 64.86 181.143 66.24 180.963 67.74C180.723 69.54 180.603 71.4 180.423 73.2C180.303 74.46 180.243 75.72 180.123 76.98L182.403 75.72C181.563 75.36 180.783 75.12 179.943 74.82C178.683 74.4 177.123 73.92 175.863 74.34C172.443 75.42 175.383 78.78 176.643 80.28C177.243 80.94 177.783 81.66 178.443 82.26L178.263 81.12C177.723 82.2 177.123 83.34 176.523 84.42C176.283 84.84 176.103 85.2 175.863 85.62L175.503 86.28L175.383 86.52C175.143 86.88 175.443 86.4 175.323 86.64C175.143 86.94 174.963 87.24 174.723 87.54C174.663 87.66 174.543 87.78 174.483 87.84C174.423 88.02 174.603 87.72 174.603 87.72C174.603 87.72 175.083 87.48 175.143 87.42C174.543 87.66 173.823 88.26 173.943 88.98C174.063 89.7 174.903 89.88 175.503 89.64C176.283 89.34 176.883 88.74 177.243 87.96C177.783 87.06 178.323 86.16 178.803 85.26C179.523 84 180.183 82.74 180.843 81.42C181.023 81.06 180.963 80.58 180.663 80.28C180.123 79.68 179.523 79.08 179.043 78.42C178.683 77.94 178.263 77.46 177.903 76.92C177.603 76.5 177.363 76.08 177.123 75.6C177.183 75.78 177.063 75.48 177.063 75.42C177.123 75.24 177.003 75.66 177.003 75.72C176.823 76.08 176.523 76.32 176.163 76.44C176.283 76.38 176.283 76.38 176.043 76.44C176.103 76.44 176.403 76.44 176.103 76.44C176.703 76.5 177.363 76.62 177.903 76.8C178.863 77.1 179.763 77.4 180.663 77.76C181.503 78.12 182.823 77.46 182.943 76.5C183.123 74.04 183.303 71.52 183.543 69.06C183.603 68.34 183.723 67.56 183.783 66.84C183.843 66.6 183.843 66.3 183.903 66.06C183.903 65.94 183.963 65.88 183.963 65.76C183.963 65.64 183.963 65.64 183.963 65.64C183.963 65.64 183.903 65.7 183.903 65.76C183.843 66 183.843 65.82 183.963 65.7C183.783 65.76 184.083 65.58 183.963 65.7C184.143 65.64 183.723 65.82 183.903 65.76C184.083 65.7 183.663 65.82 183.603 65.88C183.543 65.94 183.183 65.88 183.303 65.88C183.423 65.88 183.363 65.88 183.183 65.82L183.243 65.88C183.243 65.94 183.063 65.7 183.183 65.88C183.243 65.94 183.303 65.94 183.303 66C183.543 66.24 183.303 66 183.423 66.12C183.603 66.42 183.783 66.72 183.903 67.02C184.323 68.04 184.683 69.06 184.863 70.14C185.163 71.52 187.203 70.8 187.563 69.84C187.923 68.88 188.343 67.86 188.823 66.9C189.003 66.54 189.183 66.18 189.363 65.88C189.543 65.58 189.303 65.94 189.543 65.64L189.843 65.22C189.903 65.16 189.963 65.1 190.023 65.04C190.083 64.98 189.723 65.28 189.903 65.16C190.083 65.04 189.603 65.28 189.543 65.34C189.243 65.4 188.943 65.4 188.643 65.28C188.463 65.22 188.583 65.1 188.643 65.4C188.583 65.1 188.703 65.64 188.703 65.7C188.763 65.94 188.763 66.18 188.763 66.36C188.763 66.78 188.763 67.14 188.763 67.56C188.703 68.64 188.583 69.72 188.403 70.74C187.983 73.14 187.443 75.54 186.783 77.94C186.303 79.8 185.703 81.66 185.103 83.46C184.383 85.5 183.063 87.18 181.803 88.98C180.363 91.14 178.683 93.18 176.823 95.04C176.343 95.4 176.043 95.94 175.863 96.48L171.423 111.24L164.703 133.5L162.063 142.32C161.583 143.82 161.043 145.32 160.683 146.82C160.683 146.88 160.623 146.94 160.623 147.06L163.323 146.76L160.563 134.04L156.123 113.76L155.103 109.08L154.983 109.68C158.523 103.44 162.063 97.26 165.783 91.26C166.203 90.6 166.623 89.94 167.043 89.28C167.163 89.1 167.343 88.86 167.463 88.68C167.583 88.5 167.823 88.32 167.403 88.74C167.643 88.56 167.043 88.92 167.163 88.86C167.763 88.62 168.243 87.78 167.943 87.12C167.583 86.4 166.683 86.64 166.083 86.88L166.263 87.06Z" fill="#000005"/>
<path d="M184.442 68.0399C184.742 69.5399 184.922 71.0999 185.042 72.5999C185.342 75.1199 185.582 77.7599 185.162 80.2199C184.982 81.1799 187.622 82.4999 187.862 81.3599C188.282 78.8399 188.042 76.1999 187.742 73.7399C187.562 72.2399 187.382 70.6799 187.142 69.1799C186.962 68.5199 186.482 68.0399 185.822 67.7999C185.582 67.7399 184.322 67.4399 184.442 68.0399Z" fill="#000005"/>
<path d="M182.281 78.2405C182.461 78.2405 182.581 78.3005 182.761 78.3605C182.821 78.3605 182.941 78.4205 183.001 78.4205H183.061C182.941 78.3605 183.121 78.4205 183.121 78.4205C183.301 78.4805 183.541 78.6005 183.721 78.7205C183.841 78.7805 183.961 78.8405 184.081 78.9005L184.261 79.0205C184.081 78.9005 184.381 79.0805 184.261 79.0205C184.381 79.0805 184.501 79.2005 184.561 79.2605L184.621 79.3205C184.741 79.4405 184.501 79.2005 184.501 79.2005C184.501 79.2005 184.621 79.3205 184.681 79.3805C184.741 79.4405 184.921 79.6205 184.741 79.4405C184.561 79.2605 184.741 79.5005 184.801 79.5005C184.981 79.7405 184.621 79.2005 184.741 79.3805C184.861 79.5605 184.981 79.8605 184.741 79.3805C184.801 79.4405 184.801 79.5005 184.861 79.6205C184.981 79.8005 184.741 79.3205 184.861 79.5605C184.921 79.6205 184.921 79.7405 184.981 79.8005C185.041 79.8605 184.921 79.5605 184.921 79.7405L184.981 79.9205C185.041 80.0405 185.041 80.1605 185.101 80.2205C185.161 80.2805 185.161 80.4005 185.101 80.2805V80.4005C185.161 80.6405 185.161 80.8805 185.221 81.1205C185.281 81.7205 185.281 82.3205 185.161 82.8605C185.101 83.4605 185.581 84.1205 185.941 84.5405C186.001 84.6605 186.961 85.5605 187.021 85.0805C187.381 82.6205 186.661 80.1605 185.041 78.3605C184.081 77.1605 182.821 76.3205 181.381 75.8405C181.141 75.7805 180.901 75.7205 180.661 75.6605C180.121 75.6005 180.721 76.7405 180.781 76.8605C180.961 77.2205 181.201 77.5205 181.501 77.7605C181.681 77.9405 181.861 78.1205 182.101 78.1805L182.281 78.2405Z" fill="#000005"/>
<path d="M168.842 57.9599C170.042 58.8599 171.182 59.8799 172.142 61.0799L172.022 60.8999C172.382 61.3799 172.742 61.8599 173.042 62.3399C173.402 62.8799 174.302 62.9999 174.842 62.9399C175.142 62.9399 175.502 62.8199 175.742 62.6399C175.862 62.5199 176.042 62.2799 175.922 62.0999C174.722 60.2399 173.222 58.6799 171.422 57.3599C170.822 56.9399 170.102 56.8199 169.382 56.9999C169.142 57.0599 168.782 57.1799 168.662 57.4199C168.542 57.6599 168.602 57.8999 168.842 57.9599Z" fill="#68BA7F"/>
<path d="M167.882 65.76C168.842 65.88 169.802 66.12 170.762 66.36L171.062 66.48H171.002L171.182 66.54L171.902 66.78C172.382 66.96 172.802 67.14 173.282 67.38C173.762 67.62 174.722 67.62 174.842 66.9C174.962 66.18 174.302 65.58 173.702 65.28C171.782 64.38 169.682 63.72 167.582 63.42C167.282 63.36 166.922 63.42 166.682 63.54C166.442 63.72 166.322 64.02 166.382 64.26C166.502 65.04 167.102 65.58 167.882 65.76Z" fill="#68BA7F"/>
<path d="M104.703 134.58C104.703 134.58 101.103 76.8002 127.683 76.5002C154.263 76.2002 164.523 134.94 164.163 136.32C163.803 137.7 128.883 152.4 104.703 134.58Z" fill="white"/>
<path d="M106.201 134.46C106.021 131.34 106.021 128.22 106.081 125.16C106.141 118.44 106.741 111.78 107.821 105.12C108.421 101.46 109.321 97.86 110.461 94.38C111.481 91.2 112.921 88.14 114.781 85.32C116.341 82.92 118.441 80.88 120.961 79.44C121.261 79.26 121.621 79.08 121.921 78.96C122.221 78.84 121.801 79.02 122.161 78.84L122.761 78.6C123.481 78.36 124.261 78.12 124.981 78C125.041 78 125.281 77.94 124.921 78L125.221 77.94C125.401 77.88 125.581 77.88 125.821 77.88C126.241 77.82 126.661 77.82 127.081 77.76C127.501 77.7 127.861 77.76 128.281 77.76H128.581C128.221 77.76 128.521 77.76 128.581 77.76C128.821 77.76 129.001 77.76 129.241 77.82C130.021 77.88 130.801 78.06 131.581 78.24L132.181 78.36C131.821 78.24 132.421 78.42 132.481 78.48C132.901 78.6 133.261 78.72 133.681 78.9C134.461 79.2 135.181 79.56 135.901 79.92L136.141 80.04H136.201L136.681 80.34C137.041 80.58 137.461 80.82 137.821 81.06C139.141 81.96 140.401 83.04 141.541 84.18C142.801 85.44 144.001 86.82 145.081 88.32C149.761 94.5 153.001 101.7 155.701 109.08C157.021 112.62 158.161 116.22 159.181 119.88C159.601 121.5 160.081 123.06 160.441 124.68C160.621 125.4 160.801 126.12 160.981 126.9C161.041 127.08 161.041 127.26 161.101 127.44L161.161 127.74C161.221 128.1 161.281 128.4 161.401 128.76C161.821 130.74 162.241 132.78 162.541 134.82C162.601 135.3 162.661 135.78 162.721 136.32C162.781 136.86 162.781 136.14 162.841 135.96C162.781 136.02 163.141 135.6 162.901 135.84C162.661 136.08 163.201 135.66 163.021 135.72C162.961 135.78 162.901 135.78 162.841 135.84C162.541 136.02 162.181 136.2 161.881 136.38L161.221 136.68L160.921 136.8H160.801C160.501 136.92 161.101 136.68 160.801 136.8C159.421 137.34 158.041 137.88 156.661 138.36C152.761 139.62 148.741 140.58 144.721 141.24C134.161 142.86 123.001 142.38 113.101 137.94C110.521 136.74 108.061 135.3 105.781 133.62C104.461 132.66 102.241 134.4 103.801 135.54C113.461 142.62 125.521 145.08 137.281 144.54C145.741 144.18 154.081 142.38 161.941 139.14C163.201 138.6 165.841 137.82 165.781 136.14C165.721 134.82 165.541 133.56 165.241 132.3C164.101 126.12 162.541 120 160.621 114C158.161 106.26 155.101 98.64 150.901 91.62C147.181 85.44 142.141 79.32 135.181 76.62C128.701 73.98 121.261 75.18 115.981 79.8C110.701 84.54 108.001 91.68 106.321 98.4C104.581 105.6 103.561 112.98 103.321 120.42C103.081 124.92 103.081 129.48 103.261 133.98C103.261 134.22 103.261 134.4 103.261 134.64C103.321 136.32 106.321 136.14 106.201 134.46Z" fill="#000005"/>
<path d="M125.763 113.4C125.763 113.4 118.623 151.32 111.723 158.46C106.443 163.86 102.303 173.52 99.903 174.06C97.503 174.6 97.383 171.72 98.283 169.68C99.183 167.64 101.583 163.5 98.523 161.7C95.463 159.9 80.943 162.78 80.943 162.78L77.043 163.5C77.523 160.74 81.003 158.52 81.003 158.52C77.823 158.16 82.203 153.42 89.403 151.26C96.603 149.1 102.003 147.6 102.003 147.6C102.003 147.6 105.483 104.16 106.683 103.98C107.883 103.8 125.403 110.7 125.763 113.4Z" fill="white"/>
<path d="M124.261 113.16C123.421 117.6 122.461 122.04 121.441 126.42C119.641 134.28 117.661 142.08 114.781 149.58C114.181 151.14 113.521 152.64 112.801 154.08C112.501 154.68 112.141 155.28 111.781 155.88C111.601 156.18 111.901 155.7 111.661 156.06L111.421 156.42C111.241 156.66 111.061 156.9 110.881 157.08C110.281 157.86 109.561 158.52 108.901 159.3C108.001 160.38 107.221 161.46 106.441 162.6C104.941 164.76 103.621 166.98 102.181 169.2C101.641 170.04 101.101 170.82 100.501 171.6C100.261 171.9 100.021 172.2 99.721 172.44C99.601 172.56 99.361 172.74 99.601 172.56C99.481 172.62 99.361 172.74 99.241 172.8C99.121 172.86 99.541 172.8 99.301 172.74H99.241C98.941 172.62 99.061 172.8 99.181 172.74C99.061 172.8 99.001 172.68 99.241 172.8C99.481 172.92 99.241 172.92 99.301 172.86C99.361 172.8 99.421 173.16 99.301 172.8C99.241 172.62 99.181 172.44 99.181 172.26C99.181 171.36 99.421 170.4 99.841 169.62C100.801 167.52 101.941 165.12 101.101 162.84C100.441 160.92 98.521 160.08 96.601 159.84C92.761 159.42 88.741 160.08 84.961 160.68C82.681 161.04 80.401 161.46 78.061 161.88L76.321 162.18L78.361 163.74C78.721 161.94 80.401 160.5 81.781 159.6C82.861 158.88 82.141 157.32 81.001 157.14C80.881 157.14 80.581 157.14 80.821 157.14C80.941 157.14 81.061 157.14 80.821 157.14C80.701 157.14 81.001 157.26 81.001 157.26C80.881 157.14 81.301 157.62 81.241 157.56C81.241 157.56 81.301 157.86 81.301 157.74C81.301 157.62 81.301 158.04 81.301 157.86C81.301 157.86 81.361 157.68 81.421 157.56C81.421 157.5 81.481 157.44 81.541 157.38C81.541 157.38 81.421 157.56 81.481 157.44C81.541 157.32 81.721 157.14 81.841 157.02C83.041 155.76 84.481 154.74 86.041 154.02C88.321 152.88 90.841 152.22 93.301 151.5C95.401 150.9 97.501 150.3 99.601 149.64L102.481 148.8C102.961 148.68 103.261 148.26 103.321 147.78C103.561 145.08 103.741 142.38 103.981 139.74C104.461 134.1 104.941 128.4 105.541 122.76C106.021 117.78 106.501 112.74 107.221 107.76C107.341 107.04 107.461 106.32 107.581 105.6C107.641 105.36 107.701 105.12 107.761 104.88C107.821 104.64 107.641 105.24 107.761 104.94C107.821 104.88 107.821 104.82 107.821 104.7C107.881 104.46 107.761 104.76 107.701 104.88C107.401 105.12 107.101 105.24 106.741 105.24C106.441 105.24 106.741 105.24 106.861 105.24L107.341 105.36L107.881 105.48L108.301 105.6C108.841 105.78 109.381 105.96 109.921 106.2C112.741 107.22 115.501 108.36 118.201 109.68C119.521 110.28 120.781 110.94 122.041 111.72L122.221 111.84L122.581 112.08C122.821 112.2 123.061 112.38 123.241 112.56C123.421 112.74 123.601 112.86 123.841 112.98C123.901 113.04 123.961 113.1 124.081 113.16C123.841 112.92 124.261 113.28 124.081 113.16C124.141 113.28 124.441 113.64 124.321 113.4C124.201 113.16 124.321 113.4 124.321 113.46C124.381 113.64 124.261 113.1 124.261 113.34C124.561 114.96 127.441 115.02 127.141 113.22C126.961 112.2 126.121 111.48 125.401 110.88C124.321 110.1 123.181 109.38 122.041 108.78C119.221 107.34 116.341 106.08 113.341 105C112.081 104.52 110.821 104.04 109.561 103.56C108.721 103.26 107.881 102.96 106.981 102.78C105.181 102.54 104.941 103.98 104.641 105.36C103.801 109.86 103.441 114.42 102.961 118.98C102.361 124.98 101.821 130.92 101.281 136.92C101.101 139.2 100.861 141.48 100.681 143.76C100.561 144.9 100.381 146.1 100.381 147.24C100.381 147.3 100.381 147.36 100.381 147.42L101.221 146.4C97.801 147.36 94.381 148.38 91.021 149.4C88.261 150.12 85.621 151.14 83.101 152.46C81.481 153.42 79.681 154.62 78.721 156.3C77.761 157.98 78.781 159.72 80.641 159.96L79.861 157.5C77.821 158.82 75.781 160.86 75.301 163.32C75.061 164.46 76.441 165.06 77.341 164.88L81.181 164.16L81.781 164.04L82.441 163.92L82.861 163.86L83.101 163.8C83.161 163.8 82.861 163.86 83.161 163.8C86.941 163.08 90.841 162.66 94.681 162.54C95.401 162.48 96.061 162.54 96.781 162.72L97.141 162.78C97.561 162.84 96.901 162.66 97.261 162.84C97.321 162.84 97.621 163.02 97.501 162.96C97.261 162.84 97.741 163.2 97.741 163.14C97.741 163.08 97.981 163.44 97.921 163.38C98.281 163.92 98.161 165.06 97.921 165.84C97.561 166.86 97.141 167.88 96.661 168.84C95.761 170.82 95.281 174.06 97.621 175.26C99.541 176.22 101.281 175.02 102.421 173.58C103.801 171.72 105.061 169.8 106.261 167.82C107.701 165.48 109.261 163.26 110.941 161.16C112.081 159.96 113.101 158.64 114.061 157.32C114.841 156.06 115.501 154.74 116.101 153.36C119.341 145.92 121.381 137.94 123.241 130.08C124.501 124.8 125.821 119.46 126.721 114.06C126.721 114 126.781 113.88 126.781 113.82C127.501 112.02 124.621 111.36 124.261 113.16Z" fill="#000005"/>
<path d="M90.9616 154.8C90.9616 154.8 81.9616 158.28 80.1016 159.3L90.9616 154.8Z" fill="white"/>
<path d="M89.7608 154.2C86.7608 155.34 83.8208 156.54 80.8808 157.8C80.1608 158.1 79.4408 158.4 78.7808 158.82C78.3008 159.06 79.5008 159.66 79.6208 159.72C80.1008 159.9 80.9408 160.2 81.4808 159.9C82.9208 159.18 84.4208 158.52 85.9208 157.92C87.6007 157.26 89.2808 156.54 91.0208 155.88L92.1608 155.4C92.7608 155.16 92.1608 154.74 91.8008 154.62C91.3208 154.38 90.3608 154.02 89.7608 154.2Z" fill="#000005"/>
<path d="M144.423 87.3599C139.563 89.9999 134.343 91.7399 128.883 92.5199C124.383 93.1199 118.983 93.5399 115.263 90.5399C114.663 90.1199 113.943 89.9399 113.223 89.9999C112.623 90.1199 112.563 90.4799 113.043 90.8399C116.463 93.6599 121.143 94.3799 125.463 94.2599C130.203 94.1399 134.883 93.2999 139.323 91.7999C141.903 90.8999 144.423 89.8199 146.823 88.4999C147.363 88.1999 146.883 87.7799 146.523 87.5399C145.983 87.3599 144.963 87.0599 144.423 87.3599Z" fill="#000005"/>
<path d="M151.619 99.2996L146.159 102.3C144.479 103.26 142.799 104.28 140.999 105.06C137.639 106.56 133.379 106.44 129.959 105.3C129.599 105.18 128.879 105.6 128.519 105.72C128.219 105.84 127.859 106.02 127.559 106.2C127.499 106.2 127.199 106.5 127.199 106.5C131.579 107.88 136.079 107.46 140.279 105.72C142.559 104.76 144.779 103.62 146.939 102.36L153.719 98.6396C154.139 98.3996 154.079 98.2796 153.599 98.3996C152.939 98.6396 152.279 98.9396 151.619 99.2996Z" fill="#000005"/>
<path d="M125.461 122.22C127.681 122.94 129.961 123.12 132.241 122.82C134.461 122.46 136.621 121.92 138.721 121.2C143.221 119.82 147.781 118.74 152.161 116.94C154.621 115.92 157.021 114.66 159.241 113.16C159.841 112.74 159.541 111.9 159.061 111.54C158.461 111.06 157.621 111.06 156.961 111.48C153.361 113.94 149.221 115.56 145.081 116.88C142.981 117.54 140.821 118.14 138.661 118.74C136.621 119.34 134.641 120.06 132.541 120.48C130.321 120.96 128.101 120.84 125.941 120.12C125.341 119.94 124.381 120.18 124.201 120.84C124.021 121.5 124.861 122.1 125.461 122.22Z" fill="#000005"/>
<path d="M122.46 134.04C132.9 136.2 143.7 135.36 153.48 130.92C156.3 129.66 158.94 128.16 161.52 126.42C162.36 125.88 160.5 123.54 159.6 124.14C150.9 129.9 140.88 133.14 130.44 132.72C127.38 132.6 124.38 132.18 121.38 131.58C120.72 131.46 120.78 132.3 120.9 132.66C121.2 133.32 121.74 133.8 122.46 134.04Z" fill="#000005"/>
<path d="M128.523 98.76C127.503 102.36 126.303 105.96 124.983 109.5C124.743 110.1 127.623 111.06 127.863 110.4C129.183 106.86 130.323 103.26 131.403 99.66C131.583 99 128.703 98.1 128.523 98.76Z" fill="#000005"/>
<path d="M137.639 42C137.639 42 142.379 47.76 147.719 47.82C153.059 47.88 163.439 46.2 164.459 51.54C165.479 56.88 158.279 58.5 153.719 57.54C153.719 57.54 154.499 71.58 146.159 75.12C137.819 78.66 134.159 77.52 133.439 83.16C133.439 83.16 123.779 81.6 122.339 77.4C121.799 75.84 118.559 58.14 131.399 51.9C131.339 51.9 138.659 48.84 137.639 42Z" fill="white"/>
<path d="M136.14 42.2403C137.58 43.9803 139.38 45.4803 141.36 46.6203C142.92 47.5203 144.66 48.0603 146.46 48.1803C147.9 48.2403 149.4 48.1203 150.84 48.0603C153.78 47.9403 157.02 47.7003 159.84 48.7203C160.98 49.0203 162 49.8003 162.6 50.8803C163.2 52.1403 163.14 53.5203 162.54 54.7203C161.76 55.9803 160.44 56.9403 159 57.2403L158.58 57.3603C158.82 57.3003 158.16 57.4203 158.34 57.4203C158.04 57.4803 157.68 57.4803 157.38 57.4803C156.54 57.4803 155.76 57.4203 154.92 57.2403C154.56 57.1803 152.16 57.3003 152.16 57.8403C152.34 61.4403 151.8 65.0403 150.6 68.4003C149.7 70.8603 148.14 73.3203 145.8 74.7003C142.92 76.3803 139.5 76.9803 136.44 78.1203C135.24 78.4803 134.16 79.0803 133.26 79.9803C132.42 81.0003 131.94 82.2003 131.88 83.5203L134.64 82.9203C131.52 82.3803 128.04 81.4203 125.52 79.5003C124.5 78.7803 123.84 77.7003 123.6 76.4403C123.36 75.1803 123.18 73.9203 123.12 72.6603C122.76 68.7603 123.3 64.8003 124.56 61.0803C126 57.0003 129 53.7003 132.9 51.8403C136.74 49.9803 139.8 46.3203 139.2 41.8803C139.08 41.3403 136.14 41.7603 136.14 42.2403C136.74 46.4403 134.04 49.9203 130.44 51.7203C128.82 52.5003 127.32 53.4603 126 54.6003C124.32 56.1603 123 58.0203 122.04 60.0603C120.3 63.7803 119.82 68.0403 120 72.1203C120.06 73.5003 120.18 74.8803 120.42 76.2003C120.54 77.2803 120.96 78.2403 121.68 79.0803C123.3 80.8203 125.7 81.7203 127.86 82.4403C129.24 82.8603 130.62 83.2203 132 83.4603C132.54 83.5203 133.14 83.4603 133.68 83.3403C133.92 83.2803 134.7 83.1603 134.7 82.9203C134.76 81.7803 135.18 80.6403 135.9 79.6803C136.56 78.9603 137.4 78.4203 138.3 78.1203C141.48 76.9203 144.9 76.2603 147.9 74.7003C152.64 72.2403 154.32 66.4803 154.86 61.5003C155.04 60.1203 155.1 58.6803 155.04 57.2403L152.28 57.8403C154.02 58.2003 155.76 58.2603 157.5 58.0203C159.42 57.8403 161.28 57.3603 162.96 56.4603C164.22 55.8603 165.18 54.7803 165.66 53.4003C166.08 52.0203 165.78 50.5803 164.88 49.5003C162.96 47.2803 159.18 47.2203 156.54 47.2203C154.74 47.2203 153 47.2803 151.26 47.3403C149.64 47.4003 148.08 47.5803 146.46 47.0403C143.52 46.0203 140.94 44.1603 139.02 41.7603C138.78 41.4603 137.82 41.6403 137.46 41.7003C137.46 41.7603 136.02 42.1203 136.14 42.2403Z" fill="#000005"/>
<path d="M117.48 69.2405C117.48 69.2405 110.64 72.4804 108.78 68.8204C106.92 65.1604 111.66 65.2205 111.66 65.2205C111.66 65.2205 104.82 58.3205 111.84 55.4405C111.84 55.4405 104.64 50.5805 108.36 44.0405C112.08 37.5005 122.28 39.3005 122.28 39.3005C122.28 39.3005 120.36 30.7204 128.04 30.3604C135.72 30.0004 134.88 35.5805 134.88 35.5805C134.88 35.5805 139.74 35.2804 140.46 38.2804C141.18 41.2804 137.82 43.0805 137.82 43.0805C137.82 43.0805 138.12 51.8405 131.34 51.8405L127.14 63.7205C128.88 66.0005 129.36 68.9405 128.4 71.6405C126.78 76.2005 118.2 74.8205 117.48 69.2405Z" fill="#000005"/>
<path d="M116.641 69.18L116.461 69.3C116.101 69.48 116.401 69.36 116.461 69.3L116.101 69.42L115.801 69.5401C115.741 69.5401 115.261 69.72 115.621 69.6L115.081 69.78C115.021 69.78 114.481 69.96 114.781 69.84C113.641 70.14 112.141 70.26 111.001 69.48C110.041 68.82 109.141 66.96 110.041 65.94C110.161 65.82 110.161 65.88 110.281 65.76C110.281 65.76 110.101 65.82 110.221 65.76C109.981 65.82 109.981 65.82 110.161 65.82C109.921 65.88 109.921 65.8801 110.041 65.8801C109.741 65.94 110.341 65.8801 110.041 65.8801L110.341 65.82C109.981 65.88 110.281 65.82 110.341 65.82H110.581C110.881 65.82 113.341 65.2201 112.861 64.74L112.621 64.5C112.381 64.26 112.201 64.0201 112.021 63.78C111.421 63 110.881 62.16 110.521 61.26C109.621 59.16 109.861 56.7001 112.201 55.74C112.321 55.68 113.461 55.26 113.041 54.96C110.341 53.16 108.181 49.86 108.601 46.5C109.021 44.04 110.521 41.8801 112.681 40.7401C113.041 40.5001 113.461 40.38 113.881 40.26L114.421 40.0801C114.181 40.1401 114.481 40.0801 114.481 40.0801C114.661 40.0201 114.901 39.96 115.081 39.96C115.921 39.84 116.761 39.72 117.601 39.72C118.741 39.66 119.821 39.78 120.961 39.96C121.381 40.02 123.721 39.6 123.601 39C123.121 36.9001 123.301 34.26 124.561 32.46C124.801 32.16 125.041 31.8601 125.281 31.6201C125.401 31.5001 125.581 31.3801 125.761 31.3201C125.821 31.2601 126.121 31.1401 126.061 31.1401C126.001 31.1401 126.181 31.08 126.181 31.08C126.361 31.02 126.601 31.0201 126.781 31.0201C127.501 30.9601 128.221 30.96 128.941 31.08C130.561 31.32 132.181 32.1 132.901 33.66C133.261 34.44 133.381 35.2801 133.321 36.1201C133.321 36.2401 133.801 36.2401 133.801 36.2401C134.401 36.1801 135.001 36.24 135.541 36.36C136.621 36.54 137.881 36.9601 138.481 37.9201C139.201 39.1201 139.081 40.62 138.181 41.7C137.761 42.3 137.161 42.84 136.501 43.2C136.381 43.26 136.141 43.44 136.141 43.62C136.141 44.94 135.961 46.2 135.601 47.46C135.301 48.48 134.821 49.4401 134.161 50.2801C133.801 50.7001 133.381 51 132.901 51.3C133.021 51.24 132.661 51.42 132.841 51.3C133.021 51.18 132.661 51.3 132.901 51.3C132.601 51.36 132.361 51.36 132.061 51.36C131.581 51.36 131.101 51.48 130.621 51.66C130.381 51.78 129.781 51.96 129.721 52.2L125.821 63.24C125.701 63.5401 125.461 63.96 125.581 64.26C125.761 64.62 126.001 64.98 126.241 65.28C126.601 65.8801 126.841 66.54 127.021 67.2C127.501 68.94 127.501 71.04 126.541 72.66C126.301 73.08 125.941 73.44 125.461 73.74C125.461 73.74 125.281 73.8601 125.401 73.74C125.161 73.8601 125.521 73.8 125.281 73.8C125.581 73.8 125.161 73.8 125.341 73.8C125.161 73.8 125.101 73.8 124.981 73.86C121.921 73.98 119.281 71.8801 118.741 68.8801C118.681 68.46 115.801 69.06 115.861 69.72C116.281 72.66 118.981 74.64 121.801 74.94C124.621 75.24 128.701 74.22 129.721 71.22C130.381 69.3 130.261 67.26 129.481 65.4C129.241 64.86 128.941 64.32 128.641 63.84C128.581 63.7201 128.461 63.6001 128.401 63.48C128.341 63.3601 128.341 63.6001 128.341 63.48C128.401 63.2401 128.461 63 128.581 62.82L129.061 61.5L130.381 57.7801L132.541 51.66L130.201 52.56C133.561 52.5 136.861 50.94 138.181 47.7C138.781 46.14 139.081 44.4601 139.021 42.7801L138.661 43.1401C140.641 42.0601 142.801 39.36 141.301 37.08C140.161 35.34 137.521 35.04 135.601 35.16L136.081 35.28C136.201 34.44 136.021 33.6001 135.661 32.8201C134.821 31.0201 132.961 30.2401 131.101 30.0001C128.281 29.6401 124.981 30.1201 122.701 31.9201C121.321 33.0601 120.541 34.7401 120.421 36.5401C120.301 37.6801 120.361 38.76 120.601 39.9001L123.241 38.9401C119.581 38.3401 115.801 38.7001 112.321 40.0801C109.741 41.1001 107.461 42.78 106.261 45.36C105.181 47.76 105.421 50.5201 106.921 52.68C107.761 54.0601 108.901 55.2 110.221 56.1L111.061 55.3801C109.621 55.9801 107.941 56.82 107.281 58.32C106.801 59.4 106.801 60.66 107.281 61.74C107.881 63.3 108.781 64.7401 109.981 65.8801L112.261 64.8C111.181 64.8 110.101 65.04 109.081 65.4C107.881 65.82 106.501 66.5401 106.561 68.0401C106.681 69.6 107.821 70.86 109.381 71.16C111.061 71.58 112.921 71.16 114.601 70.74C115.801 70.44 116.941 70.0201 118.021 69.5401C118.321 69.3601 118.921 69.12 118.381 68.8801C117.841 68.64 117.061 68.94 116.641 69.18Z" fill="#000005"/>
<path d="M132.72 53.2797C132.72 53.2797 130.62 47.6397 126.66 49.6197C122.7 51.5997 123.66 64.9797 131.04 63.1797" fill="white"/>
<path d="M134.04 52.6205C133.5 51.1205 132.54 49.8605 131.22 48.9005C128.94 47.4605 125.94 48.4805 124.38 50.5205C123.24 52.0805 122.88 54.1805 122.94 56.0405C122.88 58.0805 123.48 60.1205 124.56 61.9205C125.88 63.9605 128.34 64.8605 130.68 64.2005C131.34 64.0805 132.12 63.6605 132.36 62.9405C132.6 62.2205 131.88 62.1005 131.34 62.2205C130.98 62.3405 130.56 62.4005 130.2 62.3405C129.84 62.3405 129.48 62.2805 129.12 62.1005C128.52 61.8005 127.98 61.4405 127.56 60.9005C126.54 59.5205 125.94 57.8405 125.82 56.1605C125.58 54.4805 125.82 52.8605 126.42 51.3005C126.54 51.0005 126.3 51.4805 126.48 51.2405C126.54 51.1805 126.54 51.0605 126.6 51.0005C126.66 50.9405 126.78 50.7605 126.84 50.6405C126.6 50.9405 126.9 50.5805 126.96 50.5205C127.14 50.2805 126.72 50.7605 126.9 50.5205C127.08 50.2805 127.14 50.5205 126.9 50.5205C127.14 50.5205 127.32 50.3405 127.62 50.3405C127.98 50.3405 128.4 50.4605 128.7 50.6405C129.96 51.4805 130.92 52.6805 131.34 54.1205C131.76 55.0205 134.46 53.7005 134.04 52.6205Z" fill="#000005"/>
<path d="M144.781 61.3799C145.441 63.4799 147.061 65.0999 149.101 65.8799C150.181 66.1799 151.261 66.2399 152.341 65.9999C152.881 65.9399 153.361 65.6399 153.661 65.1599C153.841 64.6799 153.301 64.6199 153.001 64.6799L152.641 64.7399H152.521C152.401 64.7399 152.641 64.7399 152.521 64.7399C152.281 64.7399 152.101 64.7399 151.861 64.7399C151.681 64.7399 151.561 64.7399 151.381 64.6799C151.201 64.6199 150.961 64.6199 150.781 64.5599C150.121 64.3799 149.581 64.0199 149.041 63.5999C148.201 62.8799 147.541 62.0398 147.121 61.0198C147.001 60.8398 146.941 60.5999 146.881 60.3599C146.761 59.9399 145.861 60.2399 145.621 60.3599C145.381 60.4799 144.601 60.8999 144.781 61.3799Z" fill="#000005"/>
<path d="M141.72 50.5205C142.26 50.5805 142.68 51.0605 142.62 51.6005C142.62 51.6605 142.62 51.6605 142.62 51.7205C142.38 52.8005 141.06 52.4405 141 51.4805C140.94 51.0005 141.24 50.5805 141.66 50.5205H141.72Z" fill="#000005"/>
<path d="M193.2 162.06L192.48 184.5C192.48 185.1 195.3 184.62 195.36 183.6L196.08 161.16C196.08 160.62 193.26 161.1 193.2 162.06Z" fill="white"/>
</svg>
